<svg xmlns="http://www.w3.org/2000/svg" xmlns:xlink="http://www.w3.org/1999/xlink" width="166.428" height="71.093" viewBox="0 0 166.428 71.093">
  <defs>
    <filter id="Rectangle_484" x="0" y="0" width="166.428" height="71.093" filterUnits="userSpaceOnUse">
      <feOffset dx="10" dy="10" input="SourceAlpha"/>
      <feGaussianBlur stdDeviation="6" result="blur"/>
      <feFlood flood-opacity="0.161"/>
      <feComposite operator="in" in2="blur"/>
      <feComposite in="SourceGraphic"/>
    </filter>
  </defs>
  <g id="Group_20026" data-name="Group 20026" transform="translate(5.228 8)">
    <g transform="matrix(1, 0, 0, 1, -5.23, -8)" filter="url(#Rectangle_484)">
      <rect id="Rectangle_484-2" data-name="Rectangle 484" width="130.428" height="35.093" rx="17.547" transform="translate(8 8)"/>
    </g>
    <path id="Path_42" data-name="Path 42" d="M54.774,11.631V6.005h1.588a2.564,2.564,0,0,1,1.3.324,2.2,2.2,0,0,1,.871.924,3,3,0,0,1,.311,1.375v.36a3.012,3.012,0,0,1-.307,1.394,2.161,2.161,0,0,1-.877.919,2.711,2.711,0,0,1-1.327.329Zm.742-5.015v4.409H56.3a1.7,1.7,0,0,0,1.335-.533,2.2,2.2,0,0,0,.477-1.519V8.644a2.236,2.236,0,0,0-.45-1.489,1.6,1.6,0,0,0-1.277-.54h-.865ZM59.805,9.5A2.469,2.469,0,0,1,60.047,8.4a1.8,1.8,0,0,1,.672-.757,1.832,1.832,0,0,1,.983-.266,1.762,1.762,0,0,1,1.381.59,2.273,2.273,0,0,1,.528,1.573v.05a2.5,2.5,0,0,1-.234,1.095,1.772,1.772,0,0,1-.669.755,1.846,1.846,0,0,1-1,.27,1.761,1.761,0,0,1-1.378-.591,2.266,2.266,0,0,1-.527-1.565V9.5Zm.719.085a1.788,1.788,0,0,0,.322,1.116,1.093,1.093,0,0,0,1.729-.006A1.957,1.957,0,0,0,62.9,9.5a1.784,1.784,0,0,0-.327-1.115,1.085,1.085,0,0,0-1.721-.006A1.945,1.945,0,0,0,60.524,9.587Zm7.828,1.058.8-3.2h.715l-1.217,4.181h-.579L67.058,8.463l-.989,3.168h-.58L64.277,7.45h.711l.823,3.13.974-3.129h.575l.993,3.195Zm3.065-3.2.024.525a1.524,1.524,0,0,1,1.252-.6q1.325,0,1.337,1.5v2.762h-.715V8.864a.968.968,0,0,0-.206-.668.83.83,0,0,0-.632-.216,1.033,1.033,0,0,0-.611.185,1.259,1.259,0,0,0-.409.487v2.979h-.715V7.45h.676Zm4.612,4.181h-.715V5.7h.715Zm1.1-2.129a2.47,2.47,0,0,1,.242-1.1,1.8,1.8,0,0,1,.673-.757,1.83,1.83,0,0,1,.983-.266,1.764,1.764,0,0,1,1.381.59,2.276,2.276,0,0,1,.527,1.573v.05a2.486,2.486,0,0,1-.234,1.095,1.767,1.767,0,0,1-.669.755,1.846,1.846,0,0,1-1,.27,1.759,1.759,0,0,1-1.377-.591,2.26,2.26,0,0,1-.528-1.565V9.5Zm.719.086a1.788,1.788,0,0,0,.322,1.116A1.094,1.094,0,0,0,79.9,10.7a1.957,1.957,0,0,0,.32-1.2,1.78,1.78,0,0,0-.327-1.115,1.038,1.038,0,0,0-.867-.427,1.027,1.027,0,0,0-.854.422,1.94,1.94,0,0,0-.325,1.206Zm6.707,2.044a1.516,1.516,0,0,1-.1-.44,1.594,1.594,0,0,1-1.19.518,1.476,1.476,0,0,1-1.014-.35,1.132,1.132,0,0,1-.4-.886,1.182,1.182,0,0,1,.5-1.014,2.339,2.339,0,0,1,1.4-.361h.7V8.768a.805.805,0,0,0-.224-.6.9.9,0,0,0-.661-.222,1.042,1.042,0,0,0-.641.194.57.57,0,0,0-.259.468h-.719a.986.986,0,0,1,.223-.6,1.513,1.513,0,0,1,.6-.463,2.034,2.034,0,0,1,.837-.17,1.653,1.653,0,0,1,1.132.361,1.3,1.3,0,0,1,.424.995v1.924a2.351,2.351,0,0,0,.147.916v.062Zm-1.186-.545A1.248,1.248,0,0,0,84,10.912a1.046,1.046,0,0,0,.437-.452V9.6h-.56q-1.313,0-1.314.769a.649.649,0,0,0,.224.525.858.858,0,0,0,.576.19Zm2.88-1.58A2.445,2.445,0,0,1,86.7,7.959a1.551,1.551,0,0,1,2.357-.083V5.7h.715v5.935h-.657l-.035-.448a1.454,1.454,0,0,1-1.194.525,1.427,1.427,0,0,1-1.184-.595,2.476,2.476,0,0,1-.458-1.553Zm.714.081a1.856,1.856,0,0,0,.294,1.113.949.949,0,0,0,.811.4,1.043,1.043,0,0,0,.993-.61V8.571a1.051,1.051,0,0,0-.986-.591.953.953,0,0,0-.819.406,2.042,2.042,0,0,0-.294,1.2ZM92.94,9.5A2.469,2.469,0,0,1,93.182,8.4a1.8,1.8,0,0,1,.672-.757,1.832,1.832,0,0,1,.983-.266,1.762,1.762,0,0,1,1.381.59,2.273,2.273,0,0,1,.528,1.573v.05a2.5,2.5,0,0,1-.234,1.095,1.772,1.772,0,0,1-.669.755,1.846,1.846,0,0,1-1,.27,1.761,1.761,0,0,1-1.378-.591,2.263,2.263,0,0,1-.527-1.565V9.5Zm.719.085a1.788,1.788,0,0,0,.322,1.116A1.093,1.093,0,0,0,95.71,10.7a1.957,1.957,0,0,0,.321-1.2A1.784,1.784,0,0,0,95.7,8.387a1.085,1.085,0,0,0-1.721-.006A1.945,1.945,0,0,0,93.659,9.587Zm4.8-2.137.023.525a1.523,1.523,0,0,1,1.252-.6q1.325,0,1.337,1.5v2.762h-.714V8.864a.964.964,0,0,0-.207-.668.829.829,0,0,0-.632-.216,1.029,1.029,0,0,0-.61.185,1.259,1.259,0,0,0-.41.487v2.979h-.714V7.45h.676Zm6.906-1.013V7.45h.781V8h-.781V10.6a.581.581,0,0,0,.1.376.439.439,0,0,0,.355.126,1.731,1.731,0,0,0,.34-.047v.58a2.072,2.072,0,0,1-.549.077.891.891,0,0,1-.722-.289,1.244,1.244,0,0,1-.243-.823V8h-.761V7.45h.761V6.438h.714Zm2.475,1.519a1.518,1.518,0,0,1,1.236-.583q1.325,0,1.337,1.495v2.762H109.7V8.864a.964.964,0,0,0-.207-.668.829.829,0,0,0-.632-.216,1.033,1.033,0,0,0-.611.185,1.259,1.259,0,0,0-.409.487v2.979h-.715V5.7h.715v2.26Zm5.522,3.752a1.824,1.824,0,0,1-1.383-.558,2.073,2.073,0,0,1-.533-1.493V9.525a2.509,2.509,0,0,1,.237-1.111,1.852,1.852,0,0,1,.665-.765,1.671,1.671,0,0,1,.925-.276,1.565,1.565,0,0,1,1.268.537A2.323,2.323,0,0,1,115,9.448v.3h-2.832a1.488,1.488,0,0,0,.361,1,1.135,1.135,0,0,0,.879.381,1.248,1.248,0,0,0,.642-.155,1.611,1.611,0,0,0,.46-.41l.436.34a1.755,1.755,0,0,1-1.576.807Zm-.089-3.748a.955.955,0,0,0-.727.315,1.534,1.534,0,0,0-.363.883h2.095V9.1a1.363,1.363,0,0,0-.294-.844A.9.9,0,0,0,113.276,7.96Z" transform="translate(-8.081 -0.84)" fill="#fff"/>
    <path id="Path_43" data-name="Path 43" d="M61.662,29.325l-.16-.458-.367-1.057q-.183-.528-.367-1.056l-.16-.458H56.435l-1.054,3.029H54.008l3.867-10.583h1.293l3.867,10.583H61.662ZM58.5,20.347l-.171.488q-.17.488-.417,1.206t-.5,1.437l-.422,1.206-.17.488h3.4l-1.68-4.826H58.5Zm9.522,1a3.018,3.018,0,0,1,2.428,1.108,4.387,4.387,0,0,1,.931,2.918,4.407,4.407,0,0,1-.924,2.919A2.981,2.981,0,0,1,68.052,29.4a3.027,3.027,0,0,1-1.483-.356,2.6,2.6,0,0,1-1.018-1h-.029v3.923H64.257V21.418h1.2V22.7h.029a2.489,2.489,0,0,1,1.032-.986,3.134,3.134,0,0,1,1.5-.37Zm-.232,6.916a2.027,2.027,0,0,0,1.668-.788,3.27,3.27,0,0,0,.629-2.1,3.276,3.276,0,0,0-.629-2.1,2.029,2.029,0,0,0-1.669-.788,2,2,0,0,0-1.642.8,3.269,3.269,0,0,0-.632,2.09,3.266,3.266,0,0,0,.633,2.09A2,2,0,0,0,67.79,28.261Zm8.868-6.916a3.02,3.02,0,0,1,2.428,1.108,4.387,4.387,0,0,1,.93,2.918,4.41,4.41,0,0,1-.923,2.919A2.983,2.983,0,0,1,76.687,29.4a3.022,3.022,0,0,1-1.483-.356,2.6,2.6,0,0,1-1.018-1h-.029v3.923H72.893V21.418h1.2V22.7h.029a2.489,2.489,0,0,1,1.032-.986,3.134,3.134,0,0,1,1.5-.37Zm-.233,6.916a2.028,2.028,0,0,0,1.669-.788,3.274,3.274,0,0,0,.628-2.1,3.271,3.271,0,0,0-.629-2.1,2.027,2.027,0,0,0-1.668-.788,2,2,0,0,0-1.642.8,3.27,3.27,0,0,0-.633,2.09,3.27,3.27,0,0,0,.633,2.09A2,2,0,0,0,76.425,28.261Zm8.505-1.848h1.316a1.878,1.878,0,0,0,.836,1.379,3.159,3.159,0,0,0,1.861.521A2.885,2.885,0,0,0,90.7,27.8a1.539,1.539,0,0,0,.694-1.288,1.42,1.42,0,0,0-.483-1.107,3.716,3.716,0,0,0-1.544-.7l-1.345-.352q-2.79-.719-2.791-2.794A2.646,2.646,0,0,1,86.264,19.4a4.119,4.119,0,0,1,2.672-.836,3.936,3.936,0,0,1,2.588.843,2.818,2.818,0,0,1,1.068,2.179H91.284a1.857,1.857,0,0,0-.727-1.342,2.658,2.658,0,0,0-1.665-.491,2.687,2.687,0,0,0-1.661.484,1.507,1.507,0,0,0-.643,1.261,1.217,1.217,0,0,0,.469.986,4.121,4.121,0,0,0,1.537.664l1.1.294a5.234,5.234,0,0,1,2.34,1.093,2.4,2.4,0,0,1,.712,1.819,2.791,2.791,0,0,1-1.057,2.3,4.46,4.46,0,0,1-2.867.847,4.26,4.26,0,0,1-2.729-.843,3,3,0,0,1-1.16-2.244Zm9.777-6.776h1.265v1.782H97.5v1.056H95.972V27.22a1.151,1.151,0,0,0,.237.8.956.956,0,0,0,.737.257c.078,0,.177-.005.3-.014s.2-.017.247-.022v1.078a2.31,2.31,0,0,1-.352.047q-.23.018-.462.018a2,2,0,0,1-1.515-.488,2.351,2.351,0,0,1-.455-1.624v-4.8H93.617V21.418h1.091V19.636Zm7.6,9.762a3.355,3.355,0,0,1-2.631-1.1,4.23,4.23,0,0,1-.981-2.931,4.225,4.225,0,0,1,.981-2.934,3.714,3.714,0,0,1,5.263,0,4.225,4.225,0,0,1,.981,2.933,4.233,4.233,0,0,1-.981,2.931A3.359,3.359,0,0,1,102.311,29.4Zm0-1.137a2.073,2.073,0,0,0,1.712-.767,3.31,3.31,0,0,0,.614-2.124,3.3,3.3,0,0,0-.614-2.126,2.3,2.3,0,0,0-3.423,0,3.3,3.3,0,0,0-.614,2.123,3.293,3.293,0,0,0,.618,2.124,2.074,2.074,0,0,0,1.709.766Zm5.125,1.063V21.418h1.192V22.7h.029a1.754,1.754,0,0,1,.694-.99,2.036,2.036,0,0,1,1.2-.367,2.906,2.906,0,0,1,.523.044v1.255a1.165,1.165,0,0,0-.265-.052,3.766,3.766,0,0,0-.424-.022,1.57,1.57,0,0,0-1.226.513,1.946,1.946,0,0,0-.461,1.35v4.892h-1.265Zm8.025-6.858a2.059,2.059,0,0,0-1.53.616,2.448,2.448,0,0,0-.672,1.621h4.31a2.351,2.351,0,0,0-.6-1.621A1.974,1.974,0,0,0,115.461,22.467Zm2.079,4.6h1.25a2.488,2.488,0,0,1-1.075,1.676,3.635,3.635,0,0,1-2.174.656,3.344,3.344,0,0,1-2.62-1.082,4.2,4.2,0,0,1-.971-2.916,4.322,4.322,0,0,1,.968-2.948,3.237,3.237,0,0,1,2.566-1.108,3.14,3.14,0,0,1,2.485,1.042,4.143,4.143,0,0,1,.916,2.839v.5h-5.626V25.8a2.531,2.531,0,0,0,.632,1.8,2.193,2.193,0,0,0,1.679.675,2.382,2.382,0,0,0,1.268-.327,1.53,1.53,0,0,0,.7-.883Z" transform="translate(-7.968 -2.739)" fill="#fff" fill-rule="evenodd"/>
    <path id="Path_44" data-name="Path 44" d="M38.592,25.915c-.954,1.4-1.94,2.793-3.5,2.822-1.533.029-2.024-.911-3.773-.911s-2.3.883-3.746.941c-1.5.057-2.647-1.513-3.608-2.908C22,23.008,20.5,17.8,22.52,14.281a5.589,5.589,0,0,1,4.726-2.88c1.477-.027,2.872,1,3.773,1s2.6-1.233,4.377-1.052a5.331,5.331,0,0,1,4.179,2.275A5.208,5.208,0,0,0,37.107,18a5.07,5.07,0,0,0,3.067,4.647A12.68,12.68,0,0,1,38.592,25.915ZM32.053,7.53A5.121,5.121,0,0,1,35.42,5.79a5.085,5.085,0,0,1-1.191,3.67,4.226,4.226,0,0,1-3.39,1.626A4.826,4.826,0,0,1,32.052,7.53Z" transform="translate(-3.181 -0.854)" fill="#fff"/>
  </g>
</svg>
