<svg xmlns="http://www.w3.org/2000/svg" width="23.541" height="41.488" viewBox="0 0 23.541 41.488">
  <g id="globo" transform="translate(-352.05 -172.78)">
    <g id="Group_18786" data-name="Group 18786" transform="translate(358.976 200.527)">
      <rect id="Rectangle_8996" data-name="Rectangle 8996" width="0.57" height="4.325" transform="matrix(0.91, 0.415, -0.415, 0.91, 1.996, 0.196)" fill="#636060"/>
      <path id="Path_33269" data-name="Path 33269" d="M389.8,325.719a.209.209,0,0,1-.082-.017l-.518-.238a.2.2,0,0,1-.1-.26l1.8-3.935a.2.2,0,0,1,.26-.1l.518.237a.2.2,0,0,1,.1.11.189.189,0,0,1-.006.15l-1.8,3.935a.2.2,0,0,1-.11.1A.2.2,0,0,1,389.8,325.719Zm-.258-.529.163.075,1.633-3.577-.163-.075Z" transform="translate(-389.085 -321.155)" fill="#636060"/>
    </g>
    <g id="Group_18787" data-name="Group 18787" transform="translate(366.057 200.525)">
      <rect id="Rectangle_8997" data-name="Rectangle 8997" width="0.57" height="4.325" transform="matrix(0.91, -0.415, 0.415, 0.91, 0.199, 0.437)" fill="#636060"/>
      <path id="Path_33270" data-name="Path 33270" d="M428.945,325.711a.181.181,0,0,1-.069-.013.2.2,0,0,1-.11-.1l-1.8-3.935a.189.189,0,0,1-.006-.15.2.2,0,0,1,.1-.11l.518-.238a.2.2,0,0,1,.26.1l1.8,3.935a.2.2,0,0,1-.1.26l-.518.238A.175.175,0,0,1,428.945,325.711Zm-1.535-4.034,1.633,3.577.163-.075-1.633-3.577Z" transform="translate(-426.952 -321.145)" fill="#636060"/>
    </g>
    <g id="Group_18788" data-name="Group 18788" transform="translate(352.05 172.782)">
      <path id="Path_33271" data-name="Path 33271" d="M376.248,185.55a11.575,11.575,0,1,0-23.148,0,11.883,11.883,0,0,0,.157,1.926c.368,6.5,8.806,14.654,8.806,14.654h5.221s8.438-8.152,8.806-14.654A11.883,11.883,0,0,0,376.248,185.55Z" transform="translate(-352.904 -173.635)" fill="#ffe04d"/>
      <path id="Path_33272" data-name="Path 33272" d="M366.431,201.481h-5.223a.206.206,0,0,1-.137-.054,47.459,47.459,0,0,1-4.284-4.911c-2.88-3.809-4.421-7.127-4.58-9.861a12.173,12.173,0,0,1-.157-1.949,11.771,11.771,0,1,1,23.541,0,12.17,12.17,0,0,1-.157,1.949c-.159,2.734-1.7,6.052-4.58,9.861a47.459,47.459,0,0,1-4.284,4.911A.207.207,0,0,1,366.431,201.481Zm0-.2Zm-5.141-.2h5.062c.733-.726,8.346-8.395,8.69-14.469,0-.007,0-.013,0-.021a11.737,11.737,0,0,0,.153-1.9,11.378,11.378,0,1,0-22.755,0,11.951,11.951,0,0,0,.153,1.9.077.077,0,0,1,0,.021C352.942,192.693,360.555,200.362,361.29,201.088Z" transform="translate(-352.05 -172.79)" fill="#636060"/>
    </g>
    <g id="Group_18789" data-name="Group 18789" transform="translate(363.624 172.78)">
      <path id="Path_33273" data-name="Path 33273" d="M414.99,173.83v28.3H417.6s8.438-8.152,8.806-14.654a11.879,11.879,0,0,0,.157-1.926A11.648,11.648,0,0,0,414.99,173.83Z" transform="translate(-414.794 -173.634)" fill="#ffe04d"/>
      <path id="Path_33274" data-name="Path 33274" d="M416.747,201.473h-2.611a.2.2,0,0,1-.2-.2v-28.3a.2.2,0,0,1,.2-.2,11.857,11.857,0,0,1,11.77,11.916,12.17,12.17,0,0,1-.157,1.949c-.159,2.734-1.7,6.052-4.58,9.861a47.46,47.46,0,0,1-4.284,4.911A.2.2,0,0,1,416.747,201.473Zm-2.414-.393h2.336c.733-.726,8.346-8.395,8.69-14.469,0-.007,0-.013,0-.021a11.737,11.737,0,0,0,.153-1.9,11.469,11.469,0,0,0-11.183-11.523V201.08Z" transform="translate(-413.94 -172.78)" fill="#636060"/>
    </g>
    <g id="Group_18790" data-name="Group 18790" transform="translate(356.612 172.983)">
      <path id="Path_33275" data-name="Path 33275" d="M377.784,177.112a10.971,10.971,0,0,1,6.7-2.188v27.9h-1.681S375.95,190.8,377.784,177.112Z" transform="translate(-377.28 -174.719)" fill="#000929"/>
      <path id="Path_33276" data-name="Path 33276" d="M383.848,202.162h-1.992l-.056-.1a44.079,44.079,0,0,1-3.217-7.759,42.625,42.625,0,0,1-1.831-18.074l.011-.077.06-.049a11.069,11.069,0,0,1,6.837-2.231l.187.007Zm-1.763-.393h1.371V174.259a10.861,10.861,0,0,0-6.325,2.1,42.246,42.246,0,0,0,1.823,17.814A44.783,44.783,0,0,0,382.085,201.769Z" transform="translate(-376.443 -173.865)" fill="#636060"/>
    </g>
    <g id="Group_18791" data-name="Group 18791" transform="translate(365.09 174.858)">
      <path id="Path_33277" data-name="Path 33277" d="M428.487,186.09l-.587,12.068-2.407,9.81-2,3.936h.952a45.2,45.2,0,0,0,5.188-6.229C430.989,203.33,437.757,194.171,428.487,186.09Z" transform="translate(-423.17 -185.679)" fill="#000929"/>
      <path id="Path_33278" data-name="Path 33278" d="M423.134,210.312H421.78l2.138-4.2,2.4-9.769.608-12.453.3.266c3.725,3.248,5.324,7.056,4.754,11.318a20.438,20.438,0,0,1-3.2,7.9c-.148.239-.275.447-.372.615a44.437,44.437,0,0,1-5.217,6.268Zm-.716-.393h.55a43.761,43.761,0,0,0,5.1-6.132c.1-.174.23-.383.378-.625,1.889-3.061,6.865-11.131-1.174-18.443L426.7,196.4l-2.418,9.85-.011.021Z" transform="translate(-421.78 -183.89)" fill="#636060"/>
    </g>
    <g id="Group_18792" data-name="Group 18792" transform="translate(358.823 203.676)">
      <path id="Path_33279" data-name="Path 33279" d="M396.108,338.625H391a2.251,2.251,0,0,0-2.244,2.244v2.973c-.492,1.7.441,2.783,2.244,2.244h5.111c1.9.477,2.76-.64,2.244-2.244v-2.973C398.67,339.125,397.6,338.221,396.108,338.625Z" transform="translate(-388.557 -338.429)" fill="#abe236"/>
      <path id="Path_33280" data-name="Path 33280" d="M396.889,345.844h-7.247a1.374,1.374,0,0,1-1.373-1.373v-5.109a1.374,1.374,0,0,1,1.373-1.373h7.247a1.374,1.374,0,0,1,1.373,1.373v5.109A1.374,1.374,0,0,1,396.889,345.844Zm-7.245-7.462c-.711-.114-1.309.759-.98.98v5.109a.981.981,0,0,0,.98.98h7.247a.981.981,0,0,0,.98-.98v-5.109a.981.981,0,0,0-.98-.98Z" transform="translate(-388.27 -337.99)" fill="#636060"/>
    </g>
    <g id="Group_18795" data-name="Group 18795" transform="translate(362.508 172.829)">
      <g id="Group_18793" data-name="Group 18793" transform="translate(1.165 0)">
        <line id="Line_1195" data-name="Line 1195" y1="27.946" transform="translate(0.148 0.148)" fill="#abe236"/>
        <path id="Path_33281" data-name="Path 33281" d="M414.348,201.282a.148.148,0,0,1-.148-.148V173.188a.148.148,0,0,1,.3,0v27.948A.148.148,0,0,1,414.348,201.282Z" transform="translate(-414.2 -173.04)" fill="#636060"/>
      </g>
      <g id="Group_18794" data-name="Group 18794" transform="translate(0 0.181)">
        <path id="Path_33282" data-name="Path 33282" d="M409.736,202.723c-.142-.582-.245-1.324-.34-1.907s-.172-1.165-.241-1.747q-.2-1.748-.292-3.493c-.131-2.328-.1-4.658-.062-6.987s.127-4.658.269-6.987c.075-1.165.159-2.328.266-3.493.1-1.094.217-2.188.37-3.282a1.1,1.1,0,0,1,.451-.013c.155,1.1.271,2.2.372,3.3.108,1.165.191,2.328.266,3.493q.213,3.492.269,6.987c.035,2.328.069,4.658-.062,6.987q-.093,1.748-.292,3.493c-.071.582-.146,1.165-.241,1.747s-.2,1.324-.34,1.907Z" transform="translate(-408.62 -174.649)" fill="#abe236"/>
        <path id="Path_33283" data-name="Path 33283" d="M409.481,202.23h-.393a.146.146,0,0,1-.142-.112c-.112-.464-.2-1.027-.281-1.524-.021-.137-.043-.269-.064-.393-.1-.621-.18-1.234-.243-1.752-.131-1.128-.23-2.306-.294-3.5-.131-2.345-.1-4.711-.062-7,.043-2.412.135-4.767.269-6.994.067-1.027.15-2.244.266-3.5s.234-2.313.372-3.289a.145.145,0,0,1,.1-.118,1.04,1.04,0,0,1,.595.009.151.151,0,0,1,.054.094c.138.978.256,2.027.374,3.3s.2,2.534.266,3.5c.137,2.229.226,4.582.269,6.994.034,2.287.069,4.651-.062,7-.064,1.2-.163,2.375-.294,3.5-.064.518-.14,1.131-.243,1.754-.021.125-.041.256-.064.393-.079.5-.166,1.062-.28,1.524A.142.142,0,0,1,409.481,202.23Zm-.275-.294h.159c.1-.43.178-.937.249-1.388.022-.137.043-.269.064-.395.1-.615.18-1.225.241-1.741.131-1.12.228-2.293.292-3.484.131-2.336.1-4.7.062-6.977-.043-2.409-.135-4.757-.269-6.981-.062-.961-.15-2.227-.266-3.49-.112-1.223-.226-2.237-.357-3.179a1.279,1.279,0,0,0-.189.007c-.131.941-.243,1.952-.355,3.172-.116,1.249-.2,2.465-.266,3.49-.135,2.224-.226,4.572-.269,6.979-.034,2.282-.069,4.64.062,6.975.064,1.191.161,2.364.292,3.484.062.514.14,1.124.241,1.739.021.125.041.258.064.395C409.029,201,409.107,201.507,409.207,201.937Z" transform="translate(-407.973 -174.009)" fill="#636060"/>
      </g>
    </g>
    <g id="Group_18796" data-name="Group 18796" transform="translate(365.109 175.003)">
      <path id="Path_33284" data-name="Path 33284" d="M428.1,185.8q.123.575.209,1.156c.082.559.153,1.12.2,1.683a33.523,33.523,0,0,1,.131,3.385,38.748,38.748,0,0,1-.681,6.745c-.215,1.113-.469,2.216-.772,3.308s-.653,2.169-1.066,3.224c-.2.531-.423,1.051-.645,1.569-.116.258-.238.514-.355.77-.062.127-.116.258-.181.383l-.194.378c-.129.251-.256.5-.393.75s-.279.492-.421.735c-.071.122-.14.245-.213.365s-.148.239-.226.357c-.153.236-.3.475-.462.707a.2.2,0,0,1-.069.064,2.1,2.1,0,0,1-.292,0c.383-1.049.8-2.323,1.141-3.374.183-.52.338-1.047.511-1.569.082-.262.155-.527.234-.789s.159-.524.228-.791.144-.529.219-.793l.2-.8.1-.4.094-.4.187-.8c.239-1.068.451-2.141.643-3.218q.55-3.234.87-6.513c.217-2.145.368-4.307.484-6.485A2.434,2.434,0,0,1,428.1,185.8Z" transform="translate(-422.522 -185.304)" fill="#abe236"/>
      <path id="Path_33285" data-name="Path 33285" d="M422.206,210.893c-.073,0-.148,0-.189-.007a.153.153,0,0,1-.114-.065.142.142,0,0,1-.015-.131c.365-1,.763-2.209,1.139-3.368.118-.335.226-.677.331-1.008.06-.187.118-.376.18-.563.052-.166.1-.335.15-.5.028-.1.054-.189.082-.284l.015-.05c.073-.241.148-.488.211-.735.071-.267.146-.531.221-.795l.3-1.191L424.8,201c.224-1,.434-2.048.641-3.211.361-2.123.653-4.311.87-6.5.2-1.969.357-4.088.484-6.48a.156.156,0,0,1,.1-.133c.168-.065.666.376.669.381a.149.149,0,0,1,.041.075c.079.361.148.742.211,1.165.092.619.157,1.173.2,1.692.1,1.09.142,2.235.131,3.4a38.9,38.9,0,0,1-.683,6.77c-.221,1.143-.481,2.259-.774,3.319-.258.9-.613,2.072-1.072,3.239-.17.46-.368.922-.559,1.367l-.088.208c-.08.181-.165.357-.247.533l-.112.239c-.022.045-.043.09-.064.135-.037.084-.079.17-.122.254l-.282.55c-.1.191-.2.389-.3.582-.146.262-.3.52-.423.739-.024.043-.049.084-.075.127-.047.08-.094.161-.142.239l-.071.114c-.052.082-.1.165-.157.247s-.093.146-.142.219c-.1.161-.211.329-.322.49a.362.362,0,0,1-.122.11.155.155,0,0,1-.041.015A.5.5,0,0,1,422.206,210.893Zm4.87-25.835c-.123,2.3-.279,4.35-.471,6.257-.215,2.2-.509,4.393-.871,6.525-.208,1.169-.419,2.224-.645,3.226l-.28,1.2-.307,1.2c-.075.267-.15.529-.221.795s-.142.5-.215.746l-.015.049c-.028.094-.054.187-.082.281q-.073.255-.151.511c-.062.187-.12.374-.18.561-.1.333-.213.677-.333,1.014-.352,1.085-.724,2.22-1.072,3.183h.03s0,0,0,0c.108-.161.213-.324.318-.486l.142-.219c.052-.08.1-.161.153-.241l.071-.114c.047-.075.092-.153.137-.232.024-.043.05-.086.075-.129.127-.217.275-.473.421-.731.1-.187.2-.383.3-.572l.282-.55c.041-.079.077-.159.116-.241.021-.045.041-.092.064-.137l.112-.239c.082-.176.165-.352.243-.527l.088-.2c.189-.441.385-.9.554-1.356.454-1.159.806-2.326,1.062-3.215.292-1.053.55-2.162.769-3.3a38.675,38.675,0,0,0,.677-6.717c.011-1.154-.032-2.289-.129-3.37-.043-.514-.108-1.06-.2-1.674-.06-.4-.125-.757-.2-1.1A1.935,1.935,0,0,0,427.076,185.058Z" transform="translate(-421.879 -184.665)" fill="#636060"/>
    </g>
    <g id="Group_18797" data-name="Group 18797" transform="translate(353.452 178.92)">
      <path id="Path_33286" data-name="Path 33286" d="M362.719,220.824a.2.2,0,0,1-.165-.09,17.533,17.533,0,0,1-2.987-10.491,13.493,13.493,0,0,1,.926-4.516.2.2,0,1,1,.359.161,13.366,13.366,0,0,0-.892,4.395,17.159,17.159,0,0,0,2.925,10.241.2.2,0,0,1-.058.271A.216.216,0,0,1,362.719,220.824Z" transform="translate(-359.548 -205.611)" fill="#fff"/>
    </g>
    <g id="Group_18798" data-name="Group 18798" transform="translate(359.022 178.568)">
      <path id="Path_33287" data-name="Path 33287" d="M390.834,216.9a.2.2,0,0,1-.189-.146c-1.294-4.907-1.315-12.745-1.315-12.823a.2.2,0,0,1,.2-.2h0a.2.2,0,0,1,.2.2c0,.079.021,7.866,1.3,12.724a.2.2,0,0,1-.14.239A.232.232,0,0,1,390.834,216.9Z" transform="translate(-389.33 -203.73)" fill="#fff"/>
    </g>
    <g id="Group_18799" data-name="Group 18799" transform="translate(359.498 204.335)">
      <path id="Path_33288" data-name="Path 33288" d="M392.108,345.085a.2.2,0,0,1-.2-.189c0-.084-.071-2.051,0-2.609a.944.944,0,0,1,.885-.77.2.2,0,0,1,.034.391c-.022,0-.479.051-.529.43-.067.525,0,2.525,0,2.543a.2.2,0,0,1-.189.2A.011.011,0,0,1,392.108,345.085Z" transform="translate(-391.879 -341.516)" fill="#fff"/>
    </g>
    <g id="Group_18800" data-name="Group 18800" transform="translate(356.243 175.006)">
      <path id="Path_33289" data-name="Path 33289" d="M375.782,185.8q-.123.575-.209,1.156c-.082.559-.153,1.12-.2,1.683a33.532,33.532,0,0,0-.131,3.385,38.748,38.748,0,0,0,.681,6.745c.215,1.113.469,2.216.772,3.308s.653,2.169,1.066,3.224c.2.531.423,1.051.645,1.569.116.258.237.514.355.77.062.127.116.258.181.383l.194.378c.129.251.256.5.393.75s.279.492.421.735c.071.122.14.245.213.365s.148.239.226.357c.153.236.3.475.462.707a.2.2,0,0,0,.069.064,2.1,2.1,0,0,0,.292,0c-.383-1.049-.8-2.323-1.141-3.374-.183-.52-.338-1.047-.511-1.569-.082-.262-.155-.527-.234-.789s-.159-.524-.228-.791-.144-.529-.219-.793l-.2-.8-.1-.4-.093-.4-.187-.8c-.239-1.068-.451-2.141-.643-3.218q-.55-3.234-.87-6.513c-.217-2.145-.368-4.307-.484-6.485A2.481,2.481,0,0,0,375.782,185.8Z" transform="translate(-375.096 -185.307)" fill="#abe236"/>
      <path id="Path_33290" data-name="Path 33290" d="M380.408,210.91a.74.74,0,0,1-.14-.009.154.154,0,0,1-.041-.015.344.344,0,0,1-.122-.11c-.11-.163-.217-.329-.322-.49-.047-.073-.094-.146-.142-.219s-.107-.165-.157-.249l-.069-.11c-.049-.08-.1-.161-.142-.239-.024-.043-.049-.086-.075-.129-.135-.232-.281-.481-.423-.737-.107-.193-.208-.391-.3-.582l-.282-.552c-.043-.084-.084-.17-.122-.252-.021-.045-.041-.09-.062-.133l-.112-.241c-.082-.176-.165-.353-.245-.531l-.09-.211c-.191-.445-.387-.905-.559-1.369-.456-1.167-.812-2.341-1.07-3.235-.294-1.062-.554-2.179-.774-3.321a38.9,38.9,0,0,1-.683-6.772c-.011-1.165.032-2.31.131-3.4.045-.518.11-1.072.2-1.691.064-.423.133-.8.211-1.165a.149.149,0,0,1,.041-.075c.006,0,.5-.447.669-.381a.154.154,0,0,1,.1.133c.125,2.392.284,4.512.484,6.48.215,2.192.509,4.382.87,6.5.208,1.161.417,2.212.641,3.211l.28,1.2.3,1.191c.075.26.148.525.219.791.064.249.14.5.213.739l.015.047c.028.093.056.189.082.282.049.168.1.338.151.507q.09.278.18.561c.1.331.211.673.329,1,.378,1.163.774,2.373,1.139,3.372a.148.148,0,0,1-.015.131.143.143,0,0,1-.114.065C380.556,210.906,380.481,210.91,380.408,210.91Zm-.056-.3h.03c-.348-.963-.72-2.1-1.073-3.187-.118-.333-.226-.677-.331-1.01-.06-.187-.118-.374-.178-.559s-.1-.342-.153-.514c-.026-.094-.054-.187-.082-.281l-.013-.045c-.075-.245-.151-.5-.217-.75s-.144-.525-.219-.789l-.307-1.2-.282-1.2c-.226-1-.436-2.059-.645-3.226-.363-2.132-.656-4.327-.871-6.525-.193-1.907-.348-3.955-.471-6.257-.092.064-.194.138-.249.183-.073.34-.136.7-.2,1.1-.09.613-.155,1.159-.2,1.674a33.558,33.558,0,0,0-.129,3.372,38.681,38.681,0,0,0,.677,6.719c.219,1.133.477,2.242.769,3.3.38,1.317.707,2.308,1.062,3.211.17.458.365.916.554,1.358l.09.208c.079.174.161.35.241.525l.112.241c.021.043.041.09.064.135.039.084.075.163.116.241l.282.552c.1.189.2.385.3.574.142.254.286.5.419.731.024.043.05.086.075.129.045.079.09.155.137.232l.069.11c.051.082.1.163.153.243s.1.148.144.221c.1.163.209.325.318.484Z" transform="translate(-374.471 -184.685)" fill="#636060"/>
    </g>
    <g id="Capa_1_7_" transform="translate(361.371 204.971)">
      <g id="Path_366_18_" transform="translate(0 2.278)">
        <path id="Path_33291" data-name="Path 33291" d="M405.11,358.175a1.091,1.091,0,0,0,.1.7.373.373,0,0,0,.047.084.8.8,0,0,1-.249,1.236,1.134,1.134,0,0,1-.894.024c-.237-.077-.469-.18-.7-.273a3.591,3.591,0,0,1-.946-.64,1.865,1.865,0,0,1-.52-.7.772.772,0,0,1,.234-.883.83.83,0,0,1,.688-.2.971.971,0,0,0,.733-.221,1.02,1.02,0,0,1,.668-.2.973.973,0,0,1,.763.64C405.061,357.909,405.093,358.07,405.11,358.175Z" transform="translate(-401.894 -357.102)" fill="#fff"/>
      </g>
      <g id="Path_367_18_" transform="translate(1.804)">
        <path id="Path_33292" data-name="Path 33292" d="M411.54,346.3a1.359,1.359,0,0,1,.626-1.133,1.249,1.249,0,0,1,.714-.243.348.348,0,0,1,.357.488c-.1.318-.232.626-.357.933a1.1,1.1,0,0,1-.61.583.594.594,0,0,1-.593-.267A2.925,2.925,0,0,1,411.54,346.3Z" transform="translate(-411.54 -344.92)" fill="#fff"/>
      </g>
      <g id="Path_368_18_" transform="translate(3.175 0.626)">
        <path id="Path_33293" data-name="Path 33293" d="M419.47,350.424a.6.6,0,0,1-.589-.733,1.272,1.272,0,0,1,.3-.626c.18-.221.357-.441.546-.658s.385-.166.537.058a1.3,1.3,0,0,1,.18.78,1.394,1.394,0,0,1-.18.626A1.064,1.064,0,0,1,419.47,350.424Z" transform="translate(-418.872 -348.267)" fill="#fff"/>
      </g>
      <g id="Path_369_18_" transform="translate(0.233 0.153)">
        <path id="Path_33294" data-name="Path 33294" d="M404.532,346.146c-.03.14-.077.333-.112.527a.606.606,0,0,0-.009.232.924.924,0,0,1-.021.63.773.773,0,0,1-.467.419.428.428,0,0,1-.428-.069.832.832,0,0,1-.316-.447,1.084,1.084,0,0,1,.09-.8,1.742,1.742,0,0,1,.769-.849C404.294,345.646,404.541,345.826,404.532,346.146Z" transform="translate(-403.138 -345.738)" fill="#fff"/>
      </g>
      <g id="Path_370_18_" transform="translate(3.617 2.377)">
        <path id="Path_33295" data-name="Path 33295" d="M423.078,358.1a1.678,1.678,0,0,1-.851,1.369.664.664,0,0,1-.916-.194.674.674,0,0,1,.084-.746.91.91,0,0,1,.357-.252,1.9,1.9,0,0,0,.595-.41,1.972,1.972,0,0,1,.226-.187.336.336,0,0,1,.507.292C423.078,358.015,423.078,358.056,423.078,358.1Z" transform="translate(-421.235 -357.632)" fill="#fff"/>
      </g>
    </g>
    <g id="Group_18801" data-name="Group 18801" transform="translate(368.422 204.453)">
      <path id="Path_33296" data-name="Path 33296" d="M440.573,349.318a.148.148,0,0,1-.148-.142c0-.009-.036-.993,0-4.228.022-2.085-.331-2.431-.439-2.487a.149.149,0,0,0-.151.011.147.147,0,0,1-.2-.03.146.146,0,0,1,.026-.2.444.444,0,0,1,.458-.043c.426.211.625,1.113.606,2.757-.036,3.224,0,4.2,0,4.213a.148.148,0,0,1-.142.153Z" transform="translate(-439.599 -342.15)" fill="#636060"/>
    </g>
    <g id="Group_18802" data-name="Group 18802" transform="translate(368.473 211.326)">
      <path id="Path_33297" data-name="Path 33297" d="M441.409,379.69h0a.76.76,0,0,0-.759.759v1.889h1.517v-1.889A.757.757,0,0,0,441.409,379.69Z" transform="translate(-440.504 -379.542)" fill="#f3d854"/>
      <path id="Path_33298" data-name="Path 33298" d="M441.534,381.842h-1.517a.148.148,0,0,1-.148-.148v-1.889a.905.905,0,1,1,1.81,0v1.889A.146.146,0,0,1,441.534,381.842Zm-1.371-.294h1.223v-1.741a.612.612,0,1,0-1.223,0Z" transform="translate(-439.87 -378.9)" fill="#636060"/>
    </g>
    <g id="Group_18803" data-name="Group 18803" transform="translate(368.422 204.453)">
      <path id="Path_33299" data-name="Path 33299" d="M440.573,349.318a.148.148,0,0,1-.148-.142c0-.009-.036-.993,0-4.228.022-2.085-.331-2.431-.439-2.487a.149.149,0,0,0-.151.011.147.147,0,0,1-.2-.03.146.146,0,0,1,.026-.2.444.444,0,0,1,.458-.043c.426.211.625,1.113.606,2.757-.036,3.224,0,4.2,0,4.213a.148.148,0,0,1-.142.153Z" transform="translate(-439.599 -342.15)" fill="#636060"/>
    </g>
    <g id="Group_18804" data-name="Group 18804" transform="translate(368.473 211.326)">
      <path id="Path_33300" data-name="Path 33300" d="M441.409,379.69h0a.76.76,0,0,0-.759.759v1.889h1.517v-1.889A.757.757,0,0,0,441.409,379.69Z" transform="translate(-440.504 -379.542)" fill="#636060"/>
      <path id="Path_33301" data-name="Path 33301" d="M441.534,381.842h-1.517a.148.148,0,0,1-.148-.148v-1.889a.905.905,0,1,1,1.81,0v1.889A.146.146,0,0,1,441.534,381.842Zm-1.371-.294h1.223v-1.741a.612.612,0,1,0-1.223,0Z" transform="translate(-439.87 -378.9)" fill="#636060"/>
    </g>
    <g id="Group_18805" data-name="Group 18805" transform="translate(358.045 204.453)">
      <path id="Path_33302" data-name="Path 33302" d="M384.258,349.314h-.006a.149.149,0,0,1-.142-.153c0-.009.036-.989,0-4.213-.017-1.644.181-2.545.606-2.757a.44.44,0,0,1,.458.043.148.148,0,0,1,.026.206.146.146,0,0,1-.2.026.15.15,0,0,0-.151-.011c-.108.056-.462.4-.439,2.487.036,3.233,0,4.219,0,4.228A.148.148,0,0,1,384.258,349.314Z" transform="translate(-384.11 -342.145)" fill="#636060"/>
    </g>
    <g id="Group_18806" data-name="Group 18806" transform="translate(357.307 211.326)">
      <path id="Path_33303" data-name="Path 33303" d="M381.707,379.69h0a.76.76,0,0,1,.759.759v1.889H380.95v-1.889A.757.757,0,0,1,381.707,379.69Z" transform="translate(-380.802 -379.542)" fill="#f3d854"/>
      <path id="Path_33304" data-name="Path 33304" d="M381.824,381.842h-1.517a.148.148,0,0,1-.148-.148v-1.889a.905.905,0,1,1,1.81,0v1.889A.146.146,0,0,1,381.824,381.842Zm-1.371-.294h1.223v-1.741a.612.612,0,0,0-1.223,0v1.741Z" transform="translate(-380.16 -378.9)" fill="#636060"/>
    </g>
    <g id="Group_18807" data-name="Group 18807" transform="translate(358.045 204.453)">
      <path id="Path_33305" data-name="Path 33305" d="M384.258,349.314h-.006a.149.149,0,0,1-.142-.153c0-.009.036-.989,0-4.213-.017-1.644.181-2.545.606-2.757a.44.44,0,0,1,.458.043.148.148,0,0,1,.026.206.146.146,0,0,1-.2.026.15.15,0,0,0-.151-.011c-.108.056-.462.4-.439,2.487.036,3.233,0,4.219,0,4.228A.148.148,0,0,1,384.258,349.314Z" transform="translate(-384.11 -342.145)" fill="#636060"/>
    </g>
    <g id="Group_18808" data-name="Group 18808" transform="translate(357.307 211.326)">
      <path id="Path_33306" data-name="Path 33306" d="M381.707,379.69h0a.76.76,0,0,1,.759.759v1.889H380.95v-1.889A.757.757,0,0,1,381.707,379.69Z" transform="translate(-380.802 -379.542)" fill="#636060"/>
      <path id="Path_33307" data-name="Path 33307" d="M381.824,381.842h-1.517a.148.148,0,0,1-.148-.148v-1.889a.905.905,0,1,1,1.81,0v1.889A.146.146,0,0,1,381.824,381.842Zm-1.371-.294h1.223v-1.741a.612.612,0,0,0-1.223,0v1.741Z" transform="translate(-380.16 -378.9)" fill="#636060"/>
    </g>
  </g>
</svg>
