<svg xmlns="http://www.w3.org/2000/svg" width="35.932" height="41.026" viewBox="0 0 35.932 41.026">
  <g id="Group_18301" data-name="Group 18301" transform="translate(-126.045 -1815.098)">
    <path id="Path_31235" data-name="Path 31235" d="M406.3,234.847h-1.6v-1.94a.937.937,0,0,0-1.874,0v1.94h-1.5a2.244,2.244,0,0,0,0,4.488H406.3a2.244,2.244,0,1,0,0-4.488Z" transform="matrix(0.788, 0.616, -0.616, 0.788, -17.844, 1387.313)" fill="#f3d854" stroke="#636060" stroke-linecap="round" stroke-linejoin="round" stroke-miterlimit="10" stroke-width="1"/>
    <path id="Path_31236" data-name="Path 31236" d="M403.2,266.45H389.185c.534,9.84-2.3,19.855,0,29.352H403.2C405.5,286.308,402.664,276.293,403.2,266.45Z" transform="matrix(0.788, 0.616, -0.616, 0.788, 3.748, 1372.416)" fill="#44cef5" stroke="#636060" stroke-linecap="round" stroke-linejoin="round" stroke-miterlimit="10" stroke-width="1"/>
    <path id="Path_31237" data-name="Path 31237" d="M403.828,254.17H393.323a1.713,1.713,0,0,0-1.713,1.713v1.652h13.931v-1.652A1.713,1.713,0,0,0,403.828,254.17Z" transform="matrix(0.788, 0.616, -0.616, 0.788, -3.652, 1377.947)" fill="#c6a82c" stroke="#636060" stroke-linecap="round" stroke-linejoin="round" stroke-miterlimit="10" stroke-width="1"/>
    <path id="Path_31238" data-name="Path 31238" d="M395.2,271.67a88.129,88.129,0,0,1-.323,9.443" transform="matrix(0.788, 0.616, -0.616, 0.788, 2.299, 1366.475)" fill="#fff" stroke="#fff" stroke-linecap="round" stroke-linejoin="round" stroke-miterlimit="10" stroke-width="1"/>
    <path id="Path_31239" data-name="Path 31239" d="M403.338,329.644c1.159-5.124.814-10.4.378-15.707a87.083,87.083,0,0,1-15.008-.118c-.441,5.352-.8,10.665.367,15.827v.014a.624.624,0,0,0,.066.266c.022.09.038.178.06.269h.134c.836.844,3.6,1.463,6.872,1.463s6.039-.619,6.872-1.463h.134c.022-.088.038-.178.06-.266a.635.635,0,0,0,.066-.269A.041.041,0,0,1,403.338,329.644Z" transform="matrix(0.788, 0.616, -0.616, 0.788, 24.908, 1345.307)" fill="#d6d6d6" stroke="#636060" stroke-linecap="round" stroke-linejoin="round" stroke-miterlimit="10" stroke-width="1"/>
    <path id="Path_31240" data-name="Path 31240" d="M393.7,319.37a35.345,35.345,0,0,0,.173,12.035" transform="matrix(0.788, 0.616, -0.616, 0.788, 24.547, 1339.912)" fill="#fff" stroke="#fff" stroke-linecap="round" stroke-linejoin="round" stroke-miterlimit="10" stroke-width="1"/>
    <line id="Line_984" data-name="Line 984" y2="2.307" transform="matrix(0.788, 0.616, -0.616, 0.788, 157.342, 1826.916)" fill="#d6d6d6" stroke="#636060" stroke-linecap="round" stroke-linejoin="round" stroke-miterlimit="10" stroke-width="1"/>
    <line id="Line_985" data-name="Line 985" y2="2.307" transform="matrix(0.788, 0.616, -0.616, 0.788, 154.914, 1825.02)" fill="#d6d6d6" stroke="#636060" stroke-linecap="round" stroke-linejoin="round" stroke-miterlimit="10" stroke-width="1"/>
    <line id="Line_986" data-name="Line 986" y2="2.307" transform="matrix(0.788, 0.616, -0.616, 0.788, 152.484, 1823.121)" fill="#d6d6d6" stroke="#636060" stroke-linecap="round" stroke-linejoin="round" stroke-miterlimit="10" stroke-width="1"/>
    <line id="Line_987" data-name="Line 987" y2="2.307" transform="matrix(0.788, 0.616, -0.616, 0.788, 150.059, 1821.225)" fill="#d6d6d6" stroke="#636060" stroke-linecap="round" stroke-linejoin="round" stroke-miterlimit="10" stroke-width="1"/>
    <line id="Line_988" data-name="Line 988" y2="1.381" transform="matrix(0.788, 0.616, -0.616, 0.788, 148.678, 1820.785)" fill="#fff" stroke="#fff" stroke-linecap="round" stroke-linejoin="round" stroke-miterlimit="10" stroke-width="1"/>
  </g>
</svg>
