<svg xmlns="http://www.w3.org/2000/svg" width="35.205" height="40.926" viewBox="0 0 35.205 40.926"><g transform="translate(-188.379 -376.248)"><g transform="translate(188.379 376.248)"><path d="M249.192,41.906l-7-26.129a1.353,1.353,0,0,0-1.543-1l-23.762,6.373a1.353,1.353,0,0,0-.839,1.624l7,26.143Z" transform="translate(-215.022 -9.014)" fill="#abe236"/><path d="M250.436,43.147,243.426,17a2.327,2.327,0,0,0-2.815-1.7l-4.357,1.164L235.2,12.228a1,1,0,0,0-.474-.622l-1.664-.961a1.015,1.015,0,0,0-.771-.095l-10.446,2.8a1,1,0,0,0-.622.474l-.961,1.651a1.015,1.015,0,0,0-.095.771L221.3,20.5l-4.371,1.177a2.3,2.3,0,0,0-1.556,2.869l7.009,26.129a1,1,0,0,0,.974.758.934.934,0,0,0,.271,0l26.143-7a1.028,1.028,0,0,0,.663-1.285ZM222.182,16.084l.528-.92,9.648-2.585.934.528,1.028,3.843-11.11,2.977Zm1.84,33.044-6.766-25.155c0-.189,0-.365.122-.379L229.259,20.4l6.536-1.746,5.345-1.434a.338.338,0,0,1,.271.271l6.766,25.155Z" transform="translate(-215.278 -10.513)" fill="#4a4a4a"/></g><g transform="translate(197.324 390.613) rotate(-13)"><g transform="translate(0 0)"><path d="M0,1.777c.012-.081.02-.163.036-.243.059-.3.105-.608.183-.907A5.589,5.589,0,0,1,.4.084C.413.058.426.033.439,0,.466.023.485.04.5.058l1.08,1.08a.121.121,0,0,1,.039.127,5.3,5.3,0,0,0-.075.564c-.015.167-.014.336-.02.5a.123.123,0,0,0,0,.044c.062.157-.028.249-.131.35-.357.349-.709.7-1.061,1.06a.4.4,0,0,0-.052.082L.248,3.85.223,3.768a4.333,4.333,0,0,1-.188-.924C.027,2.774.012,2.706,0,2.634Z" transform="translate(0 5.946)" fill="#fff"/><path d="M1.9,2.46a.873.873,0,0,1-.5-.347c-.081-.122-.16-.245-.241-.367L.191.3C.129.2.064.108,0,.015L.018,0C.459.432.9.865,1.348,1.3l.728-.73c.057.087.112.171.167.257.127.2.27.387.377.594a.747.747,0,0,1-.041.787.568.568,0,0,1-.315.229.182.182,0,0,0-.035.018Z" transform="translate(4.388 16.518)" fill="#fff"/><path d="M5.012,0H6.258V9.185a3.069,3.069,0,0,1-.288,1.284,2.792,2.792,0,0,1-.554.805,2.85,2.85,0,0,1-1.332.753,4.094,4.094,0,0,1-1.3.1A2.982,2.982,0,0,1,1.2,11.582a2.7,2.7,0,0,1-.792-.889,3.5,3.5,0,0,1-.337-.931,2.718,2.718,0,0,1-.056-.472A6.865,6.865,0,0,1,0,8.6,3.314,3.314,0,0,1,.586,6.764a2.7,2.7,0,0,1,.865-.772,3.249,3.249,0,0,1,1.074-.367,3.312,3.312,0,0,1,.684-.037,3.227,3.227,0,0,1,1.156.261.105.105,0,0,1,.052.07c0,.45,0,.9,0,1.356-.114-.067-.218-.141-.331-.2A1.743,1.743,0,0,0,3.4,6.9a3.556,3.556,0,0,0-.409-.016,1.943,1.943,0,0,0-1.03.315A1.558,1.558,0,0,0,1.317,8.22a3.883,3.883,0,0,0-.069.749,2.328,2.328,0,0,0,.21,1.012,1.521,1.521,0,0,0,1.059.833,2.537,2.537,0,0,0,.775.068,1.954,1.954,0,0,0,.992-.3,1.534,1.534,0,0,0,.573-.718A1.905,1.905,0,0,0,5,9.147c0-.332.016-.664.016-1V0Z" transform="translate(3.537 0)" fill="#fff"/><path d="M1.282,5.71,1.26,5.694.278,4.731a.094.094,0,0,1-.03-.105c.062-.255.119-.512.172-.77a1.9,1.9,0,0,0,.039-.308c.011-.235.028-.472.016-.708a4.352,4.352,0,0,0-.3-1.389C.127,1.33.059,1.214.007,1.093a.1.1,0,0,1,.008-.088C.343.672.675.341,1.007.011L1.033,0c.053.078.11.156.16.238a5.861,5.861,0,0,1,.655,1.443,5.152,5.152,0,0,1,.169.814,6.079,6.079,0,0,1,.036.946A3.364,3.364,0,0,1,1.8,4.579c-.15.365-.328.719-.493,1.079C1.3,5.676,1.293,5.693,1.282,5.71Z" transform="translate(10.896 5.031)" fill="#fff"/><path d="M1.262,0a5.12,5.12,0,0,0,.375,1.367,6.052,6.052,0,0,0,.533.946Q2.727,3.154,3.279,4c.074.112.144.227.216.342a.073.073,0,0,1-.014.105c-.336.333-.671.67-1.014,1.012-.069-.105-.138-.2-.2-.3-.14-.21-.278-.428-.421-.64C1.493,4,1.139,3.47.792,2.939A6.7,6.7,0,0,1,0,1.336a.125.125,0,0,1,.018-.105c.4-.4.8-.8,1.2-1.2A.2.2,0,0,1,1.262,0Z" transform="translate(0.294 8.609)" fill="#fff"/><path d="M1.165,4.342c-.017-.016-.037-.032-.055-.049Q.57,3.757.037,3.221A.09.09,0,0,1,.013,3.1a5.029,5.029,0,0,1,.7-1.156,8.687,8.687,0,0,1,.6-.671A5.557,5.557,0,0,1,2.314.52,5.181,5.181,0,0,1,3.528,0,.094.094,0,0,1,3.6.012c.353.349.7.7,1.06,1.051A4.637,4.637,0,0,0,1.165,4.342Z" transform="translate(0.481 2.712)" fill="#fff"/><path d="M2.911,4.657l-.027-.025L1.711,3.476c-.087-.085-.177-.168-.267-.25a3.061,3.061,0,0,1-.421-.569c-.272-.4-.538-.812-.806-1.217-.069-.105-.141-.21-.205-.315a.105.105,0,0,1,0-.1C.348.685.687.347,1.034,0l2.56,3.967Z" transform="translate(2.818 13.053)" fill="#fff"/><path d="M2.191,0,3.217,1.026l-.277.556c-.105.222-.217.444-.328.664a.42.42,0,0,1-.079.111q-1.1,1.1-2.208,2.208c-.059.059-.1.069-.151,0A.729.729,0,0,0,.05,4.442c-.069-.053-.058-.105-.021-.171C.255,3.85.478,3.429.7,3.009l.783-1.472c.132-.251.272-.5.39-.757S2.089.26,2.191,0Z" transform="translate(8.92 9.804)" fill="#fff"/><path d="M0,.35A8.2,8.2,0,0,1,3.486.076c-.027.032-.041.052-.059.068C3.051.522,2.676.9,2.3,1.274a.2.2,0,0,1-.112.045q-.514.062-1.03.115A.11.11,0,0,1,1.076,1.4C.865,1.205.655,1,.453.8Z" transform="translate(4.127 2.327)" fill="#fff"/><path d="M0,0A6.031,6.031,0,0,1,1.91,1.721L.866,2.76C.8,2.655.73,2.538.656,2.428a4.452,4.452,0,0,0-.6-.694A.143.143,0,0,1,0,1.649C0,1.109,0,.565,0,0Z" transform="translate(9.97 3.233)" fill="#fff"/><path d="M1.9.137v1.41A5.248,5.248,0,0,0,0,1.231c.024-.03.035-.049.049-.064Q.611.6,1.171.038A.105.105,0,0,1,1.3.01C1.494.059,1.7.1,1.9.137Z" transform="translate(6.482 2.422)" fill="#fff"/><path d="M.708,0l.841.841c-.13.26-.2.562-.485.736A.672.672,0,0,1,.013,1.156a1.682,1.682,0,0,1,0-.412A.126.126,0,0,1,.045.668C.261.443.483.223.708,0Z" transform="translate(8.384 14.461)" fill="#fff"/><path d="M.713,2.855C.667,2.806.621,2.75.571,2.7q-.265-.26-.534-.516c-.044-.042-.054-.07,0-.12Q1.059,1.05,2.078.027A.085.085,0,0,1,2.138,0C1.663.946,1.191,1.892.713,2.855Z" transform="translate(9.238 12.366)" fill="#fff"/><path d="M.351,0,.508.156,0,.666Z" transform="translate(8.516 14.248)" fill="#fff"/></g></g></g></svg>