<svg id="Logo_Bershka" data-name="Logo Bershka" xmlns="http://www.w3.org/2000/svg" xmlns:xlink="http://www.w3.org/1999/xlink" width="75" height="99" viewBox="0 0 75 99">
  <defs>
    <clipPath id="clip-path">
      <path id="path16" d="M0-717.332H50.529V-666.8H0Z" transform="translate(0 717.332)" fill="#fff"/>
    </clipPath>
  </defs>
  <rect id="Rectangle_9013" data-name="Rectangle 9013" width="75" height="99" rx="37.5" fill="#000225"/>
  <g id="g10" transform="translate(11 742.059)">
    <g id="g12" transform="translate(0 -717.332)">
      <g id="g14" clip-path="url(#clip-path)">
        <g id="g20" transform="translate(36.65 20.103)">
          <path id="path22" d="M-13.409-86.6c.628-.779,1.235-1.533,1.842-2.287q.548-.681,1.093-1.364a.119.119,0,0,1,.1-.058c.39,0,.779,0,1.191,0l-.426.536q-.845,1.06-1.691,2.12a.091.091,0,0,0-.007.117q.341.643.679,1.288l.807,1.525c.286.541.57,1.084.859,1.624.053.1.029.11-.069.108-.331,0-.661,0-.992,0a.115.115,0,0,1-.121-.073q-.916-1.765-1.837-3.527c-.021-.04-.04-.08-.063-.128a4.857,4.857,0,0,0-.4.445c-.312.351-.619.707-.931,1.058a.16.16,0,0,0-.03.125c0,.661,0,1.322,0,1.983,0,.091-.017.121-.114.119-.27-.008-.541-.006-.811,0-.075,0-.092-.021-.092-.094q0-4.992,0-9.985c0-.074.018-.094.093-.093.27,0,.541.007.811,0,.1,0,.114.029.114.119q0,3.133,0,6.266Z" transform="translate(14.425 93.165)" fill="#fff" fill-rule="evenodd"/>
        </g>
        <g id="g24" transform="translate(28.895 20.104)">
          <path id="path26" d="M-13.415-50.834c.138-.129.253-.239.371-.347a2.815,2.815,0,0,1,1.074-.665,2.463,2.463,0,0,1,1.874.126A1.729,1.729,0,0,1-9.2-50.6a2.152,2.152,0,0,1,.09.618q0,2.671,0,5.341c0,.1-.021.134-.126.13q-.388-.013-.777,0c-.1,0-.115-.026-.115-.117,0-1.788.008-3.576,0-5.364a1.006,1.006,0,0,0-.6-.993,1.517,1.517,0,0,0-.861-.091,3.11,3.11,0,0,0-1.589.859.712.712,0,0,0-.24.595c.01,1.664,0,3.328.007,4.992,0,.09-.015.122-.114.119-.263-.008-.526-.007-.789,0-.095,0-.116-.023-.116-.117q0-4.8,0-9.6c0-.12,0-.241,0-.361,0-.07.012-.1.091-.1q.411.008.823,0c.085,0,.1.021.1.105q0,1.8,0,3.595Z" transform="translate(14.432 54.687)" fill="#fff" fill-rule="evenodd"/>
        </g>
        <g id="g28" transform="translate(21.742 22.821)">
          <path id="path30" d="M-39.151-100.313a3.768,3.768,0,0,1-2.046-.516,3.448,3.448,0,0,1-.9-.816c-.038-.048-.027-.076.02-.11.229-.168.458-.337.683-.511.054-.042.07-.019.1.022a2.8,2.8,0,0,0,.791.732,2.487,2.487,0,0,0,1.575.307,1.549,1.549,0,0,0,.844-.322,1.024,1.024,0,0,0,.344-1.23,1.2,1.2,0,0,0-.509-.536,5.714,5.714,0,0,0-1.166-.467c-.465-.167-.946-.294-1.4-.487a1.644,1.644,0,0,1-1.1-1.493,2.057,2.057,0,0,1,.247-1.163,1.661,1.661,0,0,1,.47-.532,2.64,2.64,0,0,1,1.488-.477,3.341,3.341,0,0,1,1.775.444,3.078,3.078,0,0,1,.813.661c.039.044.073.094.111.14s0,.063-.024.083c-.2.171-.4.338-.59.513-.054.048-.075.047-.126-.005a4.191,4.191,0,0,0-.61-.564,2.174,2.174,0,0,0-1.5-.388,1.027,1.027,0,0,0-.953.58.876.876,0,0,0,.242,1.119,2.882,2.882,0,0,0,.921.442c.524.179,1.043.373,1.571.541a2.084,2.084,0,0,1,1.037.708,1.888,1.888,0,0,1,.379,1.335,1.954,1.954,0,0,1-.3.95,2.128,2.128,0,0,1-.812.722,2.955,2.955,0,0,1-1.393.322" transform="translate(42.118 107.915)" fill="#fff" fill-rule="evenodd"/>
        </g>
        <g id="g32" transform="translate(17.67 22.844)">
          <path id="path34" d="M-13.668-20.745c.07-.111.135-.218.2-.321a3.168,3.168,0,0,1,.7-.8,2.225,2.225,0,0,1,1.1-.429,2.044,2.044,0,0,1,.324-.025c.05,0,.063.016.062.064q0,.445,0,.89c0,.049-.015.059-.063.063a2.878,2.878,0,0,0-.463.067,1.948,1.948,0,0,0-1.08.7,4.985,4.985,0,0,0-.8,1.6.366.366,0,0,0-.007.111q0,1.91,0,3.821c0,.089-.014.122-.113.119-.27-.008-.541,0-.811,0-.073,0-.093-.019-.093-.094q0-3.567,0-7.134c0-.073.017-.094.092-.092q.417.007.834,0c.073,0,.093.018.092.091,0,.417,0,.834,0,1.251a.158.158,0,0,0,.019.117" transform="translate(14.704 22.317)" fill="#fff" fill-rule="evenodd"/>
        </g>
        <g id="g36" transform="translate(1.765 20.104)">
          <path id="path38" d="M-73.682-107.756a1.521,1.521,0,0,1-.865.817,3.363,3.363,0,0,1-1.258.231c-.739.015-1.479,0-2.218.01-.088,0-.112-.021-.112-.111,0-.612,0-1.224,0-1.836h0c0-.616,0-1.231,0-1.847,0-.071.013-.1.091-.1.646,0,1.292-.011,1.937.006a3.431,3.431,0,0,1,1.405.284,2.038,2.038,0,0,1,.974.891,1.932,1.932,0,0,1,.188.955,1.869,1.869,0,0,1-.143.7m-4.45-5.5c0-.533,0-1.067,0-1.6,0-.08.013-.107.1-.107.785,0,1.57-.006,2.355.006a2.756,2.756,0,0,1,.987.174,1.306,1.306,0,0,1,.835.974,1.958,1.958,0,0,1,0,1,1.577,1.577,0,0,1-.78.928,2.76,2.76,0,0,1-1.412.334c-.657,0-1.315,0-1.972,0-.086,0-.113-.019-.112-.111,0-.533,0-1.067,0-1.6m5.662,4.2a2.5,2.5,0,0,0-.991-1.551,2.251,2.251,0,0,0-.852-.408c-.022-.005-.049-.01-.051-.035s.03-.027.049-.034a4.75,4.75,0,0,0,.488-.221,2.193,2.193,0,0,0,.823-.759,2.434,2.434,0,0,0,.337-1.394,2.36,2.36,0,0,0-1.429-2.169,3.411,3.411,0,0,0-1.529-.287c-1.172-.006-2.344,0-3.516,0-.1,0-.124.025-.123.124q.005,2.485,0,4.97h0v4.913c0,.174,0,.174.179.174,1.029,0,2.058,0,3.088,0a6.179,6.179,0,0,0,1.128-.089,3.684,3.684,0,0,0,1.486-.555,2.109,2.109,0,0,0,.806-1.049,3.049,3.049,0,0,0,.106-1.622" transform="translate(79.265 115.921)" fill="#fff" fill-rule="evenodd"/>
        </g>
        <g id="g40" transform="translate(43.111 22.818)">
          <path id="path42" d="M-59.015-59.711q0,.462,0,.924a.159.159,0,0,1-.036.123,3.814,3.814,0,0,1-1.557,1.045,1.54,1.54,0,0,1-.935.082,1.192,1.192,0,0,1-.867-.727,1.1,1.1,0,0,1,.129-1.019A2.494,2.494,0,0,1-61.1-60.15a8.85,8.85,0,0,1,2.007-.559c.075-.013.079.016.078.074,0,.308,0,.616,0,.924m1.168,2.834A7.118,7.118,0,0,1-58-58.448q0-1.876,0-3.753a1.866,1.866,0,0,0-.259-.94,2.157,2.157,0,0,0-1.534-1.022,3.807,3.807,0,0,0-1.341-.024,2.829,2.829,0,0,0-2.109,1.444c-.025.044-.042.066.021.1q.377.185.746.385c.071.038.1.026.129-.047a1.611,1.611,0,0,1,.786-.838,2.446,2.446,0,0,1,1.688-.132,1.063,1.063,0,0,1,.817.83,4.123,4.123,0,0,1,.043.784c0,.054-.032.047-.064.053-.187.036-.374.07-.56.109a9.594,9.594,0,0,0-2.624.859,2.339,2.339,0,0,0-.9.8,2.288,2.288,0,0,0-.307,1.507,1.817,1.817,0,0,0,.744,1.313,1.952,1.952,0,0,0,1.073.377,3.09,3.09,0,0,0,1.331-.184,3.414,3.414,0,0,0,1.245-.855c.029-.03.048-.077.1-.077.034.3.067.6.1.9,0,.035-.015.086.056.086.326,0,.652,0,.983,0,0-.042-.006-.075-.013-.107" transform="translate(63.487 64.235)" fill="#fff" fill-rule="evenodd"/>
        </g>
        <g id="g44" transform="translate(10.214 22.822)">
          <path id="path46" d="M-13.815-39.881a2.919,2.919,0,0,1,.48-1.434A1.605,1.605,0,0,1-12.2-42a2.089,2.089,0,0,1,.865.047,1.422,1.422,0,0,1,.681.449,2.29,2.29,0,0,1,.528,1.417c.005.071,0,.142.014.213s-.022.1-.1.1c-.585,0-1.171,0-1.756,0s-1.171,0-1.756,0c-.082,0-.1-.025-.1-.1m4.887,2.841-.45-.226c-.09-.045-.194-.136-.267-.116s-.116.152-.173.235a2.151,2.151,0,0,1-2.156.955,1.918,1.918,0,0,1-1.339-.859,3.041,3.041,0,0,1-.54-1.76c0-.089.026-.1.105-.1.755,0,1.51,0,2.265,0h1.138c.383,0,.766,0,1.149,0,.087,0,.1-.023.1-.105-.006-.255,0-.511,0-.766A3.919,3.919,0,0,0-9.5-41.541,2.447,2.447,0,0,0-10.752-42.7a3.037,3.037,0,0,0-1.4-.2,2.565,2.565,0,0,0-1.656.728,3.263,3.263,0,0,0-.858,1.473,5.382,5.382,0,0,0-.2,1.337,6.047,6.047,0,0,0,.107,1.438,3.426,3.426,0,0,0,.861,1.705,2.854,2.854,0,0,0,1.152.748,3.609,3.609,0,0,0,1.751.1,2.521,2.521,0,0,0,1.223-.519,3.805,3.805,0,0,0,.876-1.072c.034-.058,0-.07-.039-.089" transform="translate(14.862 42.903)" fill="#fff" fill-rule="evenodd"/>
        </g>
      </g>
    </g>
  </g>
</svg>
