<svg xmlns="http://www.w3.org/2000/svg" width="59.03" height="51.464" viewBox="0 0 59.03 51.464"><g transform="translate(-321.81 -216.94)"><g transform="translate(321.81 216.94)"><g transform="translate(12.143)"><path d="M400.674,253.153v-.547a10.454,10.454,0,0,1,3.886.947c.275-.15-.044-.459-.044-.459a5.923,5.923,0,0,0-2.958-1.218,8.5,8.5,0,0,0-3.477.144l-2.758-7.444a.858.858,0,0,0-.984-.544l-.369-1.365c.553-.306,1.946-1.4,1.993-2.106a.511.511,0,0,0-.3-.509,2.8,2.8,0,0,0-1.862-.028l-.037-.269a.568.568,0,0,0-.644-.481l-1.778.256a1.86,1.86,0,0,0-2.268-1.281,1.81,1.81,0,0,0-.662.331c-.081-.147-.259-.244-.594-.309l-5.12-1c.15-.822.353-2.084.462-2.883a1.148,1.148,0,0,0,.559.156s.594-.056.6-.447l-.056-.025c2.23-.278,3.489-1.821,2.724-3.858l.818-4.511c.013-.069.022-.137.031-.209.59-.05.947-.109.947-.181V224.7a6.455,6.455,0,0,0-6.457-6.457h0a6.455,6.455,0,0,0-6.457,6.457v.615c0,.078.409.141,1.078.194a8.521,8.521,0,0,0,.112,5.079,2.307,2.307,0,0,0-.99-.419l-9.434-1.606a2.347,2.347,0,0,0-2.708,1.918l-1.753,10.293a2.347,2.347,0,0,0,1.918,2.708l9.434,1.606a2.567,2.567,0,0,0,.375.031l.2.034a1.293,1.293,0,0,0,1.356-.465,1.758,1.758,0,0,0,.094.228l.3.818a1.1,1.1,0,0,0-.206-.019,1.259,1.259,0,1,0,.965,2.065l1.215,3.277-2.084,2.337c-.25-.209-.425-.331-.425-.331-4.677-3.561-10.643-.747-11.034-.356s.081.784.081.784a11.083,11.083,0,0,1,4.767-1.471v.884a7.881,7.881,0,1,0,7.619,11.6l5.492,1.162a3.051,3.051,0,0,0,4.214-2.5.512.512,0,0,0,.019-.1l.084-1.474,5.073-4.539a.644.644,0,0,0,.444.344c.237-.362.478-.7.725-1.009l.69.425a7.874,7.874,0,1,0,7.179-3.658Zm-14.351,7.729a.486.486,0,0,0-.178-.047l-.434-.025a3.036,3.036,0,0,0-1.984-1.009l.006-.128a.5.5,0,0,0-.022-.169c.009-.122.016-.244.022-.366l1.14-6.957a1.811,1.811,0,0,0-.047-.534l10.578,1.109Zm-8.766,1.412a7.388,7.388,0,0,0,.134-1.028l2.677,1.106c.016.006.031.009.05.016a2.711,2.711,0,0,0-.031.391Zm2.987-7.482.681-2.252L381.2,256.5Zm.644,3.63-.006.812a.46.46,0,0,0-.109.272l-.016.287-.522-.031-1.306-.537.344-.837a.464.464,0,0,0-.006-.365l.634-2.1ZM375.22,255l.531-.594a11.087,11.087,0,0,1,.978.965l-.743.459A7.428,7.428,0,0,0,375.22,255Zm25.307-2.4h-.109v.54c-.087,0-.178-.006-.269-.006a7.9,7.9,0,0,0-1.6.162l-.194-.519A9.425,9.425,0,0,1,400.527,252.6Zm-12.539-11.555a1.86,1.86,0,0,0,2.049.793,1.8,1.8,0,0,0,.631-.309l2.721-.39a.568.568,0,0,0,.481-.644l-.019-.141a2.528,2.528,0,0,1,1.656-.009c.109.056.122.119.116.181-.037.556-1.553,1.749-1.912,1.874a.174.174,0,0,0-.109.206l.419,1.549a.863.863,0,0,0-.319,1.009l2.593,7a.158.158,0,0,0-.053-.009l-11.705-1.228-2.665-5.514a1.815,1.815,0,0,0-.6-.706c.072-.325.134-.7.194-1.137h0l.569-3.14,5.161,1.009A.657.657,0,0,0,387.987,241.045Zm-9.9-8.888c-.028.019-.059.034-.087.053-.006-.059-.016-.116-.025-.172C378.016,232.079,378.053,232.12,378.091,232.157Zm-.134,19.778-.681,5.607-.122.3a7.921,7.921,0,0,0-1-1.793l.756-.465c.184.222.281.356.281.356.312-.006.178-.428.178-.428a4.185,4.185,0,0,0-1.112-1.668ZM369.3,252a9.132,9.132,0,0,1,5.92,1.971l-.519.581a7.842,7.842,0,0,0-4.873-1.693c-.147,0-.291,0-.434.013V252Zm8.091,10.962,3.065.522a3.037,3.037,0,0,0,.772,1.456l-4.264-.847A8.5,8.5,0,0,0,377.391,262.962Zm15.588-6.8a9.783,9.783,0,0,1,3.73-2.874l.2.544a7.944,7.944,0,0,0-3.268,2.74Z" transform="translate(-361.546 -217.834)" fill="#8fe305"/><path d="M399.286,268.4a8.275,8.275,0,0,1-7.2-12.365l-.044-.028c-.166.225-.328.459-.487.7a.4.4,0,0,1-.415.172,1.221,1.221,0,0,1-.394-.169l-4.652,4.161-.075,1.309a.83.83,0,0,1-.022.15,3.451,3.451,0,0,1-4.727,2.808l-5.17-1.1a8.279,8.279,0,1,1-8.225-12.405v-.094a11,11,0,0,0-4.174,1.387.4.4,0,0,1-.45-.044,1.068,1.068,0,0,1-.381-.719.859.859,0,0,1,.272-.653,10.077,10.077,0,0,1,4.136-1.418,9.759,9.759,0,0,1,7.416,1.734c.019.012.069.05.141.1l1.671-1.871-.94-2.534a1.658,1.658,0,0,1-1.624-2.89,2.131,2.131,0,0,1-.772,0l-.172-.028a2.683,2.683,0,0,1-.406-.037l-9.434-1.606a2.746,2.746,0,0,1-2.246-3.168l1.753-10.293a2.746,2.746,0,0,1,3.168-2.246l9.434,1.606a2.513,2.513,0,0,1,.266.059,9.241,9.241,0,0,1,.047-3.964c-.6-.059-.981-.162-.981-.553V223.8a6.857,6.857,0,0,1,13.714,0v.615c0,.4-.4.5-1,.553l-.781,4.314a3.044,3.044,0,0,1-.184,2.646,3.657,3.657,0,0,1-2.568,1.593,1.082,1.082,0,0,1-.89.525.23.23,0,0,1-.066,0c-.072-.006-.141-.013-.206-.022-.094.631-.219,1.4-.328,2.034l4.736.925a1.612,1.612,0,0,1,.556.2,2.148,2.148,0,0,1,.519-.209,2.278,2.278,0,0,1,2.633,1.225l1.462-.209a.958.958,0,0,1,.719.184.984.984,0,0,1,.344.481,2.711,2.711,0,0,1,1.721.153.916.916,0,0,1,.522.89c-.056.859-1.321,1.853-1.931,2.262l.209.775a1.256,1.256,0,0,1,1.056.818l2.637,7.116a8.977,8.977,0,0,1,3.28-.072,6.181,6.181,0,0,1,3.183,1.331.821.821,0,0,1,.266.653.6.6,0,0,1-.312.44.4.4,0,0,1-.319.031,8.274,8.274,0,0,1-4.283,15.357ZM393.022,256a.418.418,0,0,1-.05.122,7.48,7.48,0,1,0,6.81-3.461.5.5,0,0,1-.119-.025.544.544,0,0,1-.122.016l-.047,0a7.276,7.276,0,0,0-1.724.15.4.4,0,0,1-.456-.253l-.194-.519a.4.4,0,0,1,.025-.334.393.393,0,0,1,.269-.2,9.824,9.824,0,0,1,2.259-.184.307.307,0,0,1,.075.009.321.321,0,0,1,.078,0,11.546,11.546,0,0,1,1.15.116c-.131-.025-.247-.044-.331-.053a.023.023,0,0,1-.016,0,8.181,8.181,0,0,0-3.314.137.4.4,0,0,1-.472-.25l-2.758-7.444a.469.469,0,0,0-.528-.294.536.536,0,0,1-.1.009.468.468,0,0,1-.072.066.464.464,0,0,0-.172.54l2.593,7a.4.4,0,0,1-.478.525l-.484-.05a.413.413,0,0,1,.072.131.4.4,0,0,1-.112.422l-1.409,1.259a9.457,9.457,0,0,1,2.3-1.4.409.409,0,0,1,.316,0,.4.4,0,0,1,.216.228l.2.544a.4.4,0,0,1-.209.5,7.516,7.516,0,0,0-3.1,2.6A.665.665,0,0,1,393.022,256Zm-24.592-3.633a.5.5,0,0,1-.122.031,7.48,7.48,0,1,0,7.235,11.006.388.388,0,0,1,.153-.156.4.4,0,0,1,.034-.219,7.046,7.046,0,0,0,.406-1.075.4.4,0,0,1,.269-.269.372.372,0,0,1-.047-.056.4.4,0,0,1-.062-.306,7.53,7.53,0,0,0,.128-.978.4.4,0,0,1,.55-.344l2.687,1.106a.4.4,0,0,1,.284.444,2.94,2.94,0,0,0-.028.34.411.411,0,0,1-.144.3l-.037.028a.4.4,0,0,1,.241.287,2.639,2.639,0,0,0,.672,1.265.4.4,0,0,1,.075.437l.747.159a.485.485,0,0,1,.072.022,2.651,2.651,0,0,0,3.661-2.168.477.477,0,0,1,.012-.066.049.049,0,0,0,0-.012l.084-1.475a.4.4,0,0,1,.131-.275l0,0a.4.4,0,0,1-.156-.041.074.074,0,0,0-.025-.006l-.434-.025a.388.388,0,0,1-.275-.134,2.64,2.64,0,0,0-1.724-.875.405.405,0,0,1-.362-.422l.006-.125c0-.009,0-.019,0-.025a.388.388,0,0,1-.019-.147c.006-.119.016-.241.022-.362a.211.211,0,0,1,.006-.044l1.137-6.935a1.287,1.287,0,0,0-.038-.391.393.393,0,0,1,.084-.362.306.306,0,0,1,.056-.053l-.081-.009a.4.4,0,0,1-.319-.225l-2.665-5.514a1.435,1.435,0,0,0-.469-.553.4.4,0,0,1-.162-.412c.069-.312.131-.684.187-1.106,0-.006,0-.013,0-.019l.569-3.14a.4.4,0,0,1,.169-.259.412.412,0,0,1,.3-.062l5.161,1.009c.191.037.266,0,.356-.184a.4.4,0,0,1,.337-.219.393.393,0,0,1,.356.184,1.457,1.457,0,0,0,1.609.625,1.438,1.438,0,0,0,.5-.241.387.387,0,0,1,.181-.075l2.721-.39a.167.167,0,0,0,.141-.191l-.019-.137a.379.379,0,0,1,.016-.178.359.359,0,0,1-.062-.166l-.037-.269a.164.164,0,0,0-.066-.109.167.167,0,0,0-.125-.031l-1.777.256a.4.4,0,0,1-.44-.284,1.469,1.469,0,0,0-1.781-1.006,1.435,1.435,0,0,0-.522.259.4.4,0,0,1-.325.078.386.386,0,0,1-.269-.2s-.05-.059-.322-.112l-5.12-1a.4.4,0,0,1-.316-.465c.15-.818.353-2.077.462-2.868a.4.4,0,0,1,.615-.281.7.7,0,0,0,.331.091.759.759,0,0,0,.156-.044.41.41,0,0,1,0-.087.4.4,0,0,1,.347-.334,3.027,3.027,0,0,0,2.318-1.265,2.3,2.3,0,0,0,.081-2.056.41.41,0,0,1-.019-.212l.818-4.511a1.809,1.809,0,0,0,.025-.181.4.4,0,0,1,.365-.353c.281-.022.462-.047.578-.062V223.8a6.057,6.057,0,1,0-12.115,0v.337c.131.022.353.047.709.075a.4.4,0,0,1,.356.5,8.081,8.081,0,0,0,.1,4.823.4.4,0,0,1-.606.472,1.947,1.947,0,0,0-.818-.35l-9.434-1.606a1.949,1.949,0,0,0-2.246,1.593l-1.753,10.293a1.949,1.949,0,0,0,1.593,2.246l9.434,1.606a1.862,1.862,0,0,0,.312.025.466.466,0,0,1,.066.006l.2.034a.894.894,0,0,0,.972-.316.407.407,0,0,1,.381-.15.4.4,0,0,1,.312.262,1.591,1.591,0,0,0,.078.187c.006.012.009.022.016.034l.3.818a.4.4,0,0,1-.066.394.407.407,0,0,1-.375.141,1.069,1.069,0,0,0-.141-.012.859.859,0,0,0,0,1.718.85.85,0,0,0,.656-.309.4.4,0,0,1,.681.119l1.215,3.277a.41.41,0,0,1-.075.406l-.2.225a.4.4,0,0,1,.422.447l-.681,5.607a.3.3,0,0,1-.028.1l-.122.3a.4.4,0,0,1-.369.247h0a.4.4,0,0,1-.369-.253,7.568,7.568,0,0,0-.95-1.7.389.389,0,0,1-.059-.112.381.381,0,0,1-.1-.087,7.914,7.914,0,0,0-.728-.79.412.412,0,0,1-.122-.359.4.4,0,0,1-.372-.066,7.4,7.4,0,0,0-4.627-1.609c-.131,0-.266,0-.412.013C368.509,252.378,368.468,252.375,368.43,252.365Zm8.228,10.537,2.812.559a3.773,3.773,0,0,1-.206-.522l-2.465-.419C376.756,262.649,376.709,262.777,376.659,262.9Zm.494-1.831.556.094-.537-.222C377.165,260.987,377.159,261.031,377.152,261.072Zm2.5.034Zm5.37-1.578.275.016.05,0,8.244-7.379-9.187-.962c0,.034,0,.069,0,.1,0,.016,0,.028,0,.044l-1.137,6.935c-.006.091-.009.181-.016.272A3.435,3.435,0,0,1,385.025,259.529Zm5.767-3.78a.339.339,0,0,1,.081.012.393.393,0,0,1,.237.172c.169-.244.341-.478.515-.7a.4.4,0,0,1,.109-.1.408.408,0,0,1,.069-.125,12.253,12.253,0,0,1,.875-.956Zm-14.932-.481c.091.137.181.281.262.425l.034-.284a.378.378,0,0,1-.162-.134l-.044-.059Zm-.953-1.178c.1.106.2.216.3.325l.031-.019c-.1-.106-.212-.212-.322-.316Zm1.025-1.15a5.956,5.956,0,0,1,.456.569l.15-1.25Zm-1.047.172a.387.387,0,0,1,.156.031.268.268,0,0,0-.387-.331.409.409,0,0,1,.1.228.335.335,0,0,1,0,.1A.38.38,0,0,1,374.885,253.112Zm-3.7-2.077a10.126,10.126,0,0,1,3.283,1.631c-.147-.116-.244-.184-.244-.184l-.013-.009A8.147,8.147,0,0,0,371.189,251.035Zm-2.227.531a8.293,8.293,0,0,1,2.2.294,8.152,8.152,0,0,0-2.23-.356v.062Zm14.973-1.9,10.9,1.143-2.368-6.388a1.264,1.264,0,0,1,.244-1.281l-.353-1.315a.574.574,0,0,1,.359-.687,5.742,5.742,0,0,0,1.581-1.384,2.153,2.153,0,0,0-.887.022.968.968,0,0,1-.825.865l-2.624.378a2.285,2.285,0,0,1-.681.312,2.258,2.258,0,0,1-2.159-.556,1.065,1.065,0,0,1-.862.166l-4.761-.931-.5,2.733c-.047.341-.094.644-.147.915a2.207,2.207,0,0,1,.519.69Zm-3.743,9.656h-.025l-.522-.031a.447.447,0,0,1-.128-.028l-1.306-.537a.4.4,0,0,1-.216-.216.4.4,0,0,1,0-.306l.344-.837a.061.061,0,0,0,0-.053.425.425,0,0,1-.019-.278l.634-2.1a.4.4,0,0,1,.366-.284.42.42,0,0,1,.237.066l-.253-.65a.41.41,0,0,1-.009-.259l.681-2.252a.4.4,0,0,1,.784.116l-.025,3.942a.4.4,0,0,1-.328.39.406.406,0,0,1-.284-.053l.572,1.456a.4.4,0,0,1,.028.15l-.006.812a.4.4,0,0,1-.094.253.053.053,0,0,0-.016.037l-.016.287a.4.4,0,0,1-.4.375Zm-.431-.828.062,0a.861.861,0,0,1,.094-.259l0-.615-.534-1.359-.266.878a.853.853,0,0,1-.044.522l-.194.465Zm-2.621-26.772a.4.4,0,0,1-.4-.356c-.006-.047-.012-.1-.022-.144a.4.4,0,0,1,.216-.431.4.4,0,0,1,.472.087c.034.037.069.072.1.109a.4.4,0,0,1,.112.331.406.406,0,0,1-.191.294c-.022.012-.044.028-.069.044A.447.447,0,0,1,377.14,231.719Z" transform="translate(-360.68 -216.94)" fill="#636060"/></g><g transform="translate(0 38.49)"><g transform="translate(8.072)"><line x1="5.154" transform="translate(0.284 0.281)" fill="#211915"/><path d="M353.089,340.719h-5.154a.284.284,0,1,1,0-.569h5.154a.285.285,0,0,1,.284.284A.281.281,0,0,1,353.089,340.719Z" transform="translate(-347.65 -340.15)" fill="#636060"/></g><g transform="translate(0 2.724)"><line x1="12.03" transform="translate(0.284 0.284)" fill="#211915"/><path d="M334.125,349.439h-12.03a.284.284,0,1,1,0-.569h12.03a.285.285,0,0,1,.284.284A.281.281,0,0,1,334.125,349.439Z" transform="translate(-321.81 -348.87)" fill="#636060"/></g><g transform="translate(5.433 5.37)"><line x1="6.704" transform="translate(0.284 0.281)" fill="#211915"/><path d="M346.188,357.909h-6.7a.284.284,0,0,1,0-.569h6.7a.284.284,0,0,1,0,.569Z" transform="translate(-339.2 -357.34)" fill="#636060"/></g></g><g transform="translate(14.734 33.432)"><path d="M382.025,328.63a9.578,9.578,0,0,0-12.814-2.462s-.472-.394-.081-.784,6.357-3.205,11.034.356a5.887,5.887,0,0,1,2.043,2.462S382.341,328.627,382.025,328.63Z" transform="translate(-368.975 -323.96)" fill="#abe236"/></g><g transform="translate(42.214 33.926)"><path d="M469.883,327.334a9.578,9.578,0,0,0-12.474,3.833s-.6-.125-.44-.653,4.111-5.814,9.912-4.858a5.892,5.892,0,0,1,2.958,1.218S470.158,327.181,469.883,327.334Z" transform="translate(-456.941 -325.541)" fill="#abe236"/></g><g transform="translate(43.508 22.039)"><path d="M462.47,292.33a.173.173,0,0,1-.166-.128l-.531-1.974a.174.174,0,0,1,.109-.206c.356-.128,1.874-1.318,1.912-1.874a.171.171,0,0,0-.116-.181c-.825-.419-2.34.241-2.355.247a.171.171,0,1,1-.137-.312c.069-.031,1.681-.731,2.649-.237a.511.511,0,0,1,.3.509c-.047.706-1.44,1.8-1.993,2.106l.494,1.837a.17.17,0,0,1-.122.209A.242.242,0,0,1,462.47,292.33Z" transform="translate(-461.084 -287.488)" fill="#636060"/></g><g transform="translate(27.778 32.346)"><path d="M413.064,328.522l1.809-5.992c.194-.915-1.309-2.012-1.309-2.012h0a1.7,1.7,0,0,0-2.012,1.309l-.737,6.082c-.194.915-.1,1.553.812,1.746h0C412.546,329.85,412.871,329.437,413.064,328.522Z" transform="translate(-410.731 -320.481)" fill="#394f89"/></g><g transform="translate(26.966 39.581)"><g transform="translate(0 1.253)"><path d="M412.361,348.791l-2.533-1.047a1.225,1.225,0,0,0-1.6.669h0a1.225,1.225,0,0,0,.669,1.6l2.533,1.047a1.225,1.225,0,0,0,1.6-.669h0A1.227,1.227,0,0,0,412.361,348.791Z" transform="translate(-408.131 -347.651)" fill="#725a7d"/></g><g transform="translate(0.05)"><path d="M408.885,344.4l-.5,1.212a1.225,1.225,0,0,0,.669,1.6h0a1.225,1.225,0,0,0,1.6-.668l.5-1.212a1.225,1.225,0,0,0-.669-1.6h0A1.227,1.227,0,0,0,408.885,344.4Z" transform="translate(-408.291 -343.641)" fill="#725a7d"/></g></g><g transform="translate(42.867 35.3)"><circle cx="7.538" cy="7.538" r="7.538" transform="translate(0.344 0.344)" fill="#b7b7b7"/><path d="M466.912,345.7a7.882,7.882,0,1,1,7.882-7.882A7.891,7.891,0,0,1,466.912,345.7Zm0-15.079a7.2,7.2,0,1,0,7.2,7.2A7.205,7.205,0,0,0,466.912,330.624Z" transform="translate(-459.03 -329.94)"/></g><g transform="translate(12.543 35.026)"><circle cx="7.538" cy="7.538" r="7.538" transform="translate(0.344 0.344)" fill="#b7b7b7"/><path d="M369.842,344.823a7.882,7.882,0,1,1,7.882-7.882A7.891,7.891,0,0,1,369.842,344.823Zm0-15.076a7.2,7.2,0,1,0,7.2,7.2A7.205,7.205,0,0,0,369.842,329.747Z" transform="translate(-361.96 -329.06)"/></g><g transform="translate(26.118 24.865)"><path d="M411.056,303.578l-2.177-5.876a1.79,1.79,0,0,0-2.3-1.056h0a1.79,1.79,0,0,0-1.056,2.3l2.177,5.876a1.79,1.79,0,0,0,2.3,1.056h0A1.789,1.789,0,0,0,411.056,303.578Z" transform="translate(-405.416 -296.536)" fill="#394f89"/></g><g transform="translate(26.014 14.289)"><path d="M411.708,263.292l-3.249-.59a1.366,1.366,0,0,0-1.587,1.1l-1.771,10.05c-.134.743.515,2.109,1.256,2.243l2.849.99a1.366,1.366,0,0,0,1.587-1.1l2.015-11.106A1.363,1.363,0,0,0,411.708,263.292Z" transform="translate(-405.083 -262.679)" fill="#44cef5"/></g><g transform="translate(27 14.011)"><path d="M411.1,266.993s-.553-.453,1.215-.084l2.037,1.115a42.453,42.453,0,0,0,.719-4.442s.2-1.04-2.234-1.45c-.087-.066-3.892-1.537-3.945,2.2l-.653,3.593S410.424,268.261,411.1,266.993Z" transform="translate(-408.24 -261.792)" fill="#725a7d"/></g><g transform="translate(19.738 34.165)"><rect width="0.253" height="7.263" transform="translate(0.253 7.263) rotate(180)" fill="#211915"/></g><g transform="translate(21.021 37.534)"><path d="M389.231,341.21l-.131-.216,6.31-3.9.178.209Z" transform="translate(-389.1 -337.09)" fill="#211915"/></g><g transform="translate(27.566 29.896)"><path d="M411.3,315.78s-.569-3.083-1.253-3.071l.818-.069s1.159,2.29.981,2.824Z" transform="translate(-410.05 -312.64)" fill="#ffe04d"/></g><g transform="translate(24.991 27.872)"><path d="M408.592,306.65a25.043,25.043,0,0,0-5.126-.425,1.288,1.288,0,0,0-.4-.066,1.259,1.259,0,1,0,1,2.027h4.53V306.65Z" transform="translate(-401.81 -306.16)" fill="#000929"/></g><g transform="translate(25.921 24.663)"><path d="M410.926,296.968a13.572,13.572,0,0,1-5.935-1.078l-.178.984a2.27,2.27,0,0,0,2.04,2.655C409.327,299.97,410.389,301.007,410.926,296.968Z" transform="translate(-404.786 -295.89)" fill="#409bca"/></g><g transform="translate(31.174 42.444)"><path d="M421.684,353a.38.38,0,0,1,.181.112.488.488,0,0,1,.109.237.639.639,0,0,1-.056.312,1.178,1.178,0,0,0-.066.175,1.074,1.074,0,0,0-.034.169.039.039,0,0,0,.066.025.714.714,0,0,0,.237-.356.882.882,0,0,0,.05-.4c-.031-.241-.222-.5-.494-.462a.1.1,0,0,0-.078.1.123.123,0,0,0,.084.094Z" transform="translate(-421.6 -352.807)" fill="#fff"/></g><g transform="translate(27.388 3.416)"><path d="M415.768,240.44l-3.258-1.125a33.88,33.88,0,0,0-3.03-3.268l1.006-5.545a3.2,3.2,0,0,1,3.721-2.577l3.708.672a3.2,3.2,0,0,1,2.577,3.721l-1.006,5.545A3.2,3.2,0,0,1,415.768,240.44Z" transform="translate(-409.48 -227.874)" fill="#f3d490"/></g><g transform="translate(33.867 8.347)"><circle cx="0.768" cy="0.768" r="0.768" fill="#444"/></g><g transform="translate(36.691 8.875)"><circle cx="0.59" cy="0.59" r="0.59" fill="#444"/></g><g transform="translate(27.121 7.357)"><path d="M419.088,245.5s-2.255-1.481-4.177-.756-1.881-4.227-1.881-4.227a32.7,32.7,0,0,1-3.9-.025c-.022.156-1.787,5.992,1.4,7.288C415.792,251.027,420.409,248.984,419.088,245.5Z" transform="translate(-408.628 -240.49)" fill="#81414a"/></g><g transform="translate(28.484 8.131)"><g transform="translate(0 0)"><g transform="translate(0)"><ellipse cx="0.768" cy="1.187" rx="0.768" ry="1.187" transform="matrix(0.999, -0.054, 0.054, 0.999, 0, 0.083)" fill="#f3d490"/></g></g></g><g transform="translate(33.293 12.786)"><g transform="translate(0.079 0.079)"><path d="M430.127,259.982a1.931,1.931,0,0,1-1.484-1.712.174.174,0,0,1,.228-.141,2.776,2.776,0,0,1,.69.356,4.473,4.473,0,0,0,1.353.647,3.63,3.63,0,0,0,.772.059,1.181,1.181,0,0,1,.194.006c.184.034.15.209.131.312C431.93,259.954,431.1,260.16,430.127,259.982Z" transform="translate(-428.636 -258.125)" fill="#fff"/></g><path d="M428.682,258.033c.35.062,1.287.865,2.043,1a5.645,5.645,0,0,0,.965.066c.084.016.1.066.069.222-.072.391-.872.572-1.79.406a1.863,1.863,0,0,1-1.421-1.621c.013-.069.059-.087.134-.075m.028-.156a.306.306,0,0,0-.194.022.251.251,0,0,0-.125.181,1.987,1.987,0,0,0,1.546,1.8c1.034.187,1.884-.041,1.971-.531.019-.1.066-.356-.2-.406a1.069,1.069,0,0,0-.209-.006,3.477,3.477,0,0,1-.756-.059,4.471,4.471,0,0,1-1.325-.634,2.619,2.619,0,0,0-.712-.369l-.028.153.028-.153Z" transform="translate(-428.383 -257.87)" fill="#fff"/></g><g transform="translate(34.763 2.2)"><path d="M433.117,224.11c.225.141.456.262.675.412a4.831,4.831,0,0,1,.634.525,4.671,4.671,0,0,1,.522.619c.078.109.15.222.219.334a1.033,1.033,0,0,0,.225.334c.05.037.162.028.169-.053a.681.681,0,0,0-.141-.369,4.189,4.189,0,0,0-.241-.372,4.794,4.794,0,0,0-.565-.64,3.721,3.721,0,0,0-1.437-.915c-.066-.019-.125.084-.059.125Z" transform="translate(-433.089 -223.983)" fill="#fff"/></g><g transform="translate(34.544 8.931)"><circle cx="0.35" cy="0.35" r="0.35" fill="#fff"/></g><g transform="translate(37.184 9.375)"><circle cx="0.247" cy="0.247" r="0.247" fill="#fff"/></g><g transform="translate(44.246 26.175)"><path d="M471.18,317.644l-6.06-16.354a.863.863,0,0,0-1.109-.509h0a.863.863,0,0,0-.509,1.109l6.06,16.354a.863.863,0,0,0,1.109.509h0A.863.863,0,0,0,471.18,317.644Z" transform="translate(-463.447 -300.727)" fill="#ffe04d"/></g><g transform="translate(39.046 21.477)"><path d="M451.363,287.573l-3.483.5a.945.945,0,0,1-1.072-.8h0a.945.945,0,0,1,.8-1.072l3.483-.5a.945.945,0,0,1,1.071.8h0A.95.95,0,0,1,451.363,287.573Z" transform="translate(-446.798 -285.688)" fill="#000929"/></g><g transform="translate(20.137 41.261)"><path d="M386.27,349.02l14.942.934v.394l-14.87-1.022Z" transform="translate(-386.27 -349.02)" fill="#211915"/></g><g transform="translate(20.021 44.797)"><path d="M386.087,360.34l13.458,2.674.034.525-13.68-2.9Z" transform="translate(-385.9 -360.34)" fill="#211915"/></g><g transform="translate(19.471 32.59)"><path d="M398.878,334.854a.343.343,0,0,1-.056-.006l-14.4-2.452a.343.343,0,0,1-.266-.225.34.34,0,0,1,.069-.341l9.322-10.453a.343.343,0,0,1,.575.1l5.076,12.9a.344.344,0,0,1-.322.469Zm-13.733-3.027,13.189,2.246-4.648-11.821Z" transform="translate(-384.139 -321.262)" fill="#ffe04d"/></g><g transform="translate(28.814 32.478)"><path d="M419.467,334.679a.362.362,0,0,1-.081-.009.339.339,0,0,1-.241-.209l-5.076-13.092a.341.341,0,0,1,.356-.462l17.641,1.849a.341.341,0,0,1,.194.594l-12.564,11.243A.341.341,0,0,1,419.467,334.679Zm-4.555-13.036,4.7,12.108,11.621-10.4Z" transform="translate(-414.045 -320.904)" fill="#ffe04d"/></g><g transform="translate(30.98 41.958)"><circle cx="2.765" cy="2.765" r="2.765" transform="translate(0.284 0.284)" fill="#b7b7b7"/><path d="M424.029,357.348a3.049,3.049,0,1,1,3.049-3.049A3.053,3.053,0,0,1,424.029,357.348Zm0-5.529a2.477,2.477,0,1,0,2.477,2.477A2.479,2.479,0,0,0,424.029,351.819Z" transform="translate(-420.98 -351.25)" fill="#636060"/></g><g transform="translate(27.566 26.545)"><path d="M417.761,308.76l-2.805-5.807a1.838,1.838,0,0,0-2.455-.856h0c-.915.44-2.824.191-2.384,1.106,1.006.744,3.268,4.777,4.333,7.157a1.838,1.838,0,0,0,2.455.856h0A1.843,1.843,0,0,0,417.761,308.76Z" transform="translate(-410.052 -301.914)" fill="#409bca"/><g transform="translate(4.209 6.213)"><path d="M426.079,330.352l1.14-6.957c.056-1.072-.694-1.537-1.709-1.59h0a1.891,1.891,0,0,0-1.937,1.843l-.044,6.919c-.056,1.072.406,1.868,1.421,1.921h0C425.964,332.545,426.023,331.423,426.079,330.352Z" transform="translate(-423.525 -321.802)" fill="#409bca"/></g><g transform="translate(3.93 14.751)"><g transform="translate(0 1.484)"><path d="M427.071,354.06l-3.083-.175a1.275,1.275,0,0,0-1.346,1.2l-.006.116a1.275,1.275,0,0,0,1.2,1.346l3.083.175a1.275,1.275,0,0,0,1.346-1.2l.006-.116A1.272,1.272,0,0,0,427.071,354.06Z" transform="translate(-422.633 -353.883)" fill="#725a7d"/></g><g transform="translate(0.037)"><path d="M422.843,350.335l-.087,1.534a1.275,1.275,0,0,0,1.2,1.346l.116.006a1.275,1.275,0,0,0,1.346-1.2l.087-1.534a1.275,1.275,0,0,0-1.2-1.346l-.116-.006A1.275,1.275,0,0,0,422.843,350.335Z" transform="translate(-422.753 -349.133)" fill="#725a7d"/></g></g><g transform="translate(5.058 2.527)"><g transform="translate(0.115 0.115)"><line x1="2.049" y1="4.174" fill="#493022"/></g><path d="M428.41,314.407a.114.114,0,0,1-.1-.062l-2.052-4.177a.115.115,0,1,1,.206-.1l2.052,4.177a.115.115,0,0,1-.053.153A.155.155,0,0,1,428.41,314.407Z" transform="translate(-426.243 -310.003)" fill="#fff"/></g><g transform="translate(8.03 16.784)"><path d="M435.823,355.826a.811.811,0,0,1,.44-.016.824.824,0,0,1,.206.078.993.993,0,0,0,.1.059.284.284,0,0,1,.1.069.736.736,0,0,1,.159.428.7.7,0,0,1-.025.228c-.022.078-.059.144-.075.222a.05.05,0,0,0,.084.044.511.511,0,0,0,.144-.381.873.873,0,0,0-.078-.415.762.762,0,0,0-.109-.172.822.822,0,0,1-.066-.081.279.279,0,0,0-.066-.081.826.826,0,0,0-.391-.159.816.816,0,0,0-.462.081.052.052,0,0,0,.038.1Z" transform="translate(-435.757 -355.642)" fill="#fff"/></g></g><g transform="translate(28.063 18.757)"><path d="M421.991,278.656l-8.419-1.643a1.618,1.618,0,0,0-1.9,1.278h0a1.618,1.618,0,0,0,1.278,1.9l8.419,1.643c.878.172.95-.85,1.121-1.728h0C422.666,279.228,422.869,278.828,421.991,278.656Z" transform="translate(-411.642 -276.982)" fill="#409bca"/><g transform="translate(10.224 1.589)"><circle cx="1.862" cy="1.862" r="1.862" fill="#f3d490"/></g><g transform="translate(3.414 0.647)"><g transform="translate(0.115 0.112)"><line x1="5.876" y1="1.246" fill="#493022"/></g><path d="M428.563,280.526a.078.078,0,0,1-.025,0l-5.876-1.246a.113.113,0,1,1,.047-.222l5.876,1.246a.113.113,0,0,1,.087.134A.111.111,0,0,1,428.563,280.526Z" transform="translate(-422.572 -279.052)" fill="#fff"/></g><g transform="translate(12.02 1.77)"><path d="M450.166,282.772a1.544,1.544,0,0,1,.825.394,1.516,1.516,0,0,1,.287.356c.041.066.072.134.109.2a1.6,1.6,0,0,1,.116.216c.013.031.069.031.066-.009a1.462,1.462,0,0,0-.028-.259.882.882,0,0,0-.1-.228,1.718,1.718,0,0,0-.328-.394,1.589,1.589,0,0,0-.931-.4c-.066,0-.087.112-.013.122Z" transform="translate(-450.119 -282.65)" fill="#fff"/></g></g><g transform="translate(28.053 16.163)"><path d="M414.81,273.378l.478-3.586c-.487.228-1.381-.672-.893-.9l-1.118-.212c.209.178-.843.378-1.05.2-.2.715-.406,2.443-.612,4.064-.034.259.262.515.669.572l1.734.237C414.419,273.8,414.776,273.638,414.81,273.378Z" transform="translate(-411.611 -268.68)" fill="#409bca"/></g><g transform="translate(28.35 15.966)"><path d="M415.795,270.466s.475-1.462-.184-1.937-2.6-.853-2.88.147-.122,1.318-.122,1.318A3.431,3.431,0,0,1,415.795,270.466Z" transform="translate(-412.562 -268.048)" fill="#574263"/></g><g transform="translate(13.334 11.313)"><path d="M375.142,268.482a2.469,2.469,0,0,1-.425-.037l-8.128-1.384a2.516,2.516,0,0,1-2.059-2.905l1.518-8.906a2.516,2.516,0,0,1,2.905-2.059l8.128,1.384a2.516,2.516,0,0,1,2.059,2.905l-1.518,8.906A2.518,2.518,0,0,1,375.142,268.482Zm-.365-.372a2.176,2.176,0,0,0,2.509-1.781l1.518-8.906a2.175,2.175,0,0,0-1.777-2.512l-8.128-1.384a2.175,2.175,0,0,0-2.512,1.778l-1.518,8.906a2.175,2.175,0,0,0,1.778,2.512Z" transform="translate(-364.494 -253.155)" fill="#81a529"/></g><g transform="translate(18.021 12.223)"><g transform="translate(0.117 0.114)"><line x1="8.11" y1="1.378" fill="#493022"/></g><path d="M387.722,257.673a.039.039,0,0,1-.019,0l-8.113-1.378a.114.114,0,0,1,.038-.225l8.113,1.378a.115.115,0,0,1-.019.228Z" transform="translate(-379.496 -256.066)" fill="#fff"/></g><g transform="translate(28.487 15.029)"><path d="M417.017,269.3s.675-3.552-4.017-3.689l.094-.556s4.9.294,4.336,4.327Z" transform="translate(-413 -265.05)" fill="#000929"/></g><g transform="translate(26.997 22.461)"><path d="M413.144,288.84s-1.287,2.177-4.817,1.315l-.1.565s4.6.434,5.414-1.781Z" transform="translate(-408.23 -288.84)" fill="#000929"/></g><g transform="translate(45.404 27.698)"><line x2="4.873" y2="12.671" transform="translate(0.171 0.174)" fill="#fff"/><path d="M472.2,318.616a.168.168,0,0,1-.159-.109l-4.873-12.671a.173.173,0,0,1,.322-.125l4.873,12.671a.171.171,0,0,1-.1.222A.159.159,0,0,1,472.2,318.616Z" transform="translate(-467.152 -305.602)" fill="#fff"/></g><g transform="translate(37.811 33.522)"><line x2="5.408" y2="0.522" transform="translate(0.17 0.17)" fill="#fff"/><path d="M448.424,325.11h-.016L443,324.589a.172.172,0,0,1-.153-.187.17.17,0,0,1,.187-.153l5.408.522a.171.171,0,0,1-.019.341Z" transform="translate(-442.847 -324.247)" fill="#fff"/></g><g transform="translate(18.272 41.245)"><circle cx="1.765" cy="1.765" r="1.765" transform="translate(0.172 0.172)" fill="#000929"/><path d="M382.237,352.844a1.937,1.937,0,1,1,1.937-1.937A1.938,1.938,0,0,1,382.237,352.844Zm0-3.533a1.6,1.6,0,1,0,1.6,1.6A1.6,1.6,0,0,0,382.237,349.31Z" transform="translate(-380.3 -348.97)" fill="#636060"/></g><g transform="translate(12.862 11.056)"><path d="M374.821,268.582l-9.937-1.706a2.286,2.286,0,0,1-1.868-2.64l1.728-10.009a2.288,2.288,0,0,1,2.646-1.862l9.2,1.584a2.286,2.286,0,0,1,1.868,2.64L376.73,266.6C376.514,267.841,376.067,268.8,374.821,268.582Z" transform="translate(-362.982 -252.331)" fill="#abe236"/></g><g transform="translate(13.451 11.672)"><path d="M375.246,269.231a2.3,2.3,0,0,1-.412-.038l-7.925-1.365a2.456,2.456,0,0,1-2.006-2.833l1.5-8.66a2.453,2.453,0,0,1,2.837-2l7.925,1.365a2.456,2.456,0,0,1,2.006,2.833l-1.5,8.66A2.457,2.457,0,0,1,375.246,269.231Zm-.356-.362a2.126,2.126,0,0,0,2.452-1.724l1.5-8.66a2.12,2.12,0,0,0-1.734-2.446l-7.925-1.365a2.123,2.123,0,0,0-2.452,1.724l-1.5,8.66a2.12,2.12,0,0,0,1.734,2.446Z" transform="translate(-364.867 -254.302)" fill="#81a529"/></g><g transform="translate(18.925 12.87)"><g transform="translate(0.182 0.086)"><line x1="5.676" y1="0.972" transform="translate(0.015 0.111)" fill="#493022"/><rect width="0.228" height="5.757" transform="translate(0 0.225) rotate(-80.265)" fill="#fff"/></g><path d="M388.522,259.649h-.012l-5.676-.975a.08.08,0,0,1-.066-.091.082.082,0,0,1,.094-.066l5.676.975a.08.08,0,0,1,.066.091A.086.086,0,0,1,388.522,259.649Z" transform="translate(-382.65 -258.399)" fill="#fff"/><path d="M388.263,259.5a.129.129,0,0,1-.034,0l-5.676-.975a.2.2,0,0,1-.159-.225.2.2,0,0,1,.078-.125.184.184,0,0,1,.144-.031l5.676.975a.2.2,0,0,1,.159.225.184.184,0,0,1-.187.159Zm.006-.228Z" transform="translate(-382.39 -258.139)" fill="#fff"/></g><g transform="translate(18.311 15.979)"><g transform="translate(1.241)"><path d="M386.568,269.771l.312-1.634a.159.159,0,0,0,.006-.037.008.008,0,0,1,.009-.009l.025,0,.4.078.022,0a.013.013,0,0,1,.012.013h0l0,.022-.2,1.031-.15.79-.144.737c-.016.075-.028.153-.044.225-.028.137-.056.275-.081.412-.013.056-.028.112-.044.169s-.034.1-.053.153a1.366,1.366,0,0,1-.141.256,1,1,0,0,1-.228.231.975.975,0,0,1-.3.147,1.259,1.259,0,0,1-.237.041,1,1,0,0,1-.137,0,.27.27,0,0,1-.05,0l-.078-.009c-.069-.009-.134-.022-.2-.037-.028-.006-.059-.016-.087-.025l-.056-.019a1.358,1.358,0,0,1-.184-.078.959.959,0,0,1-.331-.281.933.933,0,0,1-.137-.266,1.13,1.13,0,0,1-.056-.247,1.7,1.7,0,0,1-.012-.178c0-.053,0-.106.006-.156a1.816,1.816,0,0,1,.028-.181.759.759,0,0,1,.031-.112,1.874,1.874,0,0,1,.1-.25,1.062,1.062,0,0,1,.328-.4,1.129,1.129,0,0,1,.44-.187,1.168,1.168,0,0,1,.465.009.878.878,0,0,1,.087.022l.072.025.128.05a.656.656,0,0,1,.081.041l.028.019a.109.109,0,0,1,.044.087.277.277,0,0,1,0,.072l-.019.125c-.016.078-.031.156-.044.234l-.006.022-.006.006-.016-.016a.853.853,0,0,0-.15-.112.788.788,0,0,0-.116-.056.933.933,0,0,0-.228-.053,1.341,1.341,0,0,0-.194,0,.574.574,0,0,0-.256.081.547.547,0,0,0-.147.134.889.889,0,0,0-.072.116,1.11,1.11,0,0,0-.116.49.941.941,0,0,0,.009.134.59.59,0,0,0,.066.206.522.522,0,0,0,.156.175.61.61,0,0,0,.162.081c.016.006.031.009.044.016a.982.982,0,0,0,.137.034.956.956,0,0,0,.131.019c.025,0,.047,0,.072,0a.589.589,0,0,0,.181-.022.547.547,0,0,0,.275-.181.688.688,0,0,0,.106-.178c.013-.028.022-.059.034-.094a.77.77,0,0,0,.028-.128Z" transform="translate(-384.4 -268.09)" fill="#000929"/></g><g transform="translate(3.989 2.046)"><path d="M393.366,274.943l.016-.016.237-.156.147-.094a.073.073,0,0,0,.022-.022c.006-.006.009-.013.016-.016l0,0,.009.009a2.109,2.109,0,0,1,.128.356,1.97,1.97,0,0,1,.066.487,1.446,1.446,0,0,1-.006.162l-.009.1a.111.111,0,0,0,0,.019l-.031.156a.6.6,0,0,1-.034.122l-.019.056a1.415,1.415,0,0,1-.091.2,1.718,1.718,0,0,1-.153.237l-.153.2-.009.009-.006-.006c-.1-.141-.2-.278-.3-.419a.014.014,0,0,1,0-.016c.009-.019.022-.038.031-.059a1.249,1.249,0,0,0,.081-.187c.019-.05.037-.1.053-.156s.022-.087.031-.131a.176.176,0,0,0,.009-.056c0-.025.009-.05.012-.078a1.257,1.257,0,0,0,.013-.156c0-.053,0-.075,0-.112a1.6,1.6,0,0,0-.013-.175,1.845,1.845,0,0,0-.056-.253S393.363,274.949,393.366,274.943Z" transform="translate(-393.196 -274.64)" fill="#fff"/></g><g transform="translate(0.017 2.683)"><path d="M381.024,276.68a.061.061,0,0,1,0,.025,1.107,1.107,0,0,0,0,.144,1.542,1.542,0,0,0,.031.266,1.683,1.683,0,0,0,.084.3c.025.063.05.125.075.191l.259.64.047.112,0,.009s0,.009,0,.009c-.025.016-.05.034-.075.05-.094.062-.184.122-.278.181a.859.859,0,0,0-.087.059.008.008,0,0,1-.012,0l0,0-.006-.013-.141-.334-.175-.415-.087-.216a2.586,2.586,0,0,1-.109-.309,2.268,2.268,0,0,1-.069-.322v-.009a.007.007,0,0,1,.006-.006c.006-.006.016-.006.016-.016s0,0,.006-.006a.023.023,0,0,0,.019-.006l.137-.091L381,276.7A.036.036,0,0,1,381.024,276.68Z" transform="translate(-380.48 -276.68)" fill="#fff"/></g><g transform="translate(0.398 0.675)"><path d="M383.485,270.709h0l-.025,0a1.72,1.72,0,0,0-.437.084,1.678,1.678,0,0,0-.412.2c-.056.038-.112.078-.166.122a1.564,1.564,0,0,0-.341.39,1.035,1.035,0,0,0-.056.1.011.011,0,0,1-.009,0,0,0,0,0,1,0,0l0,0-.006-.006-.094-.134-.2-.3-.022-.031c-.009-.009-.006-.013,0-.025a.409.409,0,0,1,.041-.056,2.134,2.134,0,0,1,.378-.391,1.788,1.788,0,0,1,.378-.228,2.093,2.093,0,0,1,.434-.147c.066-.016.131-.025.2-.037l.022,0a.007.007,0,0,1,.006.006l.022.022.247.35.053.075C383.478,270.7,383.481,270.709,383.485,270.709Z" transform="translate(-381.701 -270.25)" fill="#fff"/></g><g transform="translate(0.635 4.437)"><path d="M382.46,282.589l.006-.006a.282.282,0,0,1,.041-.025.14.14,0,0,0,.022-.013c.069-.047.137-.094.206-.137l.15-.1.013-.012a.011.011,0,0,1,.016,0l.009.019.069.169.253.625.269.659.025.059.006.012a.142.142,0,0,1-.022.022l-.081.056-.119.084-.009.009s0,0-.006-.006-.013-.009-.016-.016l-.272-.387-.006-.006a.429.429,0,0,0-.041-.062l-.1-.137a.523.523,0,0,1-.037-.05l-.1-.122a.2.2,0,0,1-.025-.044l-.241-.572Z" transform="translate(-382.46 -282.293)" fill="#fff"/></g><g transform="translate(0 1.596)"><path d="M380.993,274.228l-.394.253-.141.087a.137.137,0,0,1-.022.012h0a.463.463,0,0,1-.006-.066c0-.078-.006-.153,0-.231,0-.044,0-.087.006-.131.006-.062.013-.128.025-.191a.707.707,0,0,1,.025-.1l.016-.05a.58.58,0,0,1,.022-.069,1.9,1.9,0,0,1,.075-.184c.034-.075.075-.15.116-.222.025-.044.05-.084.078-.125l.009-.009h0a.038.038,0,0,1,.016.016.111.111,0,0,0,.013.028l.1.144.2.306.009.009a.014.014,0,0,1,0,.016c-.012.031-.025.059-.034.091s-.025.072-.037.109c-.019.066-.031.131-.044.2l-.006.034a.151.151,0,0,0,0,.037A.232.232,0,0,1,380.993,274.228Z" transform="translate(-380.426 -273.2)" fill="#fff"/></g><g transform="translate(2.899 3.805)"><path d="M390.773,280.27h0l.294.422h0l-.006.006c-.05.066-.1.131-.147.2a.081.081,0,0,1-.028.028l-.119.075c-.022.012-.047.028-.069.044l-.331.225a.2.2,0,0,0-.041.031l-.009.009a.234.234,0,0,0-.038.022c-.128.087-.259.175-.39.259l-.141.094-.012.013s0,0-.006-.006l-.009-.019c-.019-.037-.019-.028.006-.059l.394-.487c.144-.181.291-.362.434-.544a2.538,2.538,0,0,0,.206-.3S390.767,280.273,390.773,280.27Z" transform="translate(-389.707 -280.27)" fill="#fff"/></g><g transform="translate(1.916 0.644)"><path d="M387.325,270.681l-.05-.009c-.05-.006-.1-.016-.153-.019s-.072-.006-.106-.006l-.062,0-.056,0a.017.017,0,0,1-.016-.009l-.091-.128-.169-.244-.053-.075-.009-.009s0,0,.006-.006l.019,0c.069-.006.137-.012.209-.012.044,0,.087,0,.131,0l.084,0c.056,0,.112.006.169.009.025,0,.053,0,.078.006.05.006.1.013.147.022l.181.034c.006,0,.013,0,.019,0s.037.009.056.016l.1.028.069.022a.017.017,0,0,1,.016.009h0l-.019.019-.191.131c-.091.066-.181.128-.275.191A.141.141,0,0,1,387.325,270.681Z" transform="translate(-386.56 -270.15)" fill="#fff"/></g><g transform="translate(0.935 5.433)"><path d="M383.42,285.48l.059.087.1.141c.034.05.069.1.1.147.056.078.109.159.162.241l.1.156a.024.024,0,0,0,.013.012h0l.009-.009.166-.106c.031-.019.059-.041.091-.059,0,0,0,0,.009,0l0,0,.006.013.122.3a.516.516,0,0,1,.034.119.3.3,0,0,1,0,.091.209.209,0,0,1-.084.147.406.406,0,0,1-.116.059l0,0a.085.085,0,0,1-.062,0,.484.484,0,0,0-.072-.012.032.032,0,0,1-.022-.013.933.933,0,0,1-.091-.1.249.249,0,0,1-.047-.078l-.078-.184-.172-.4-.222-.531-.009-.022s0,0,0-.009Z" transform="translate(-383.42 -285.48)" fill="#fff"/></g><g transform="translate(3.937 1.303)"><path d="M393.68,272.961a.073.073,0,0,1-.022.022l-.287.2c-.038.025-.075.05-.112.078l-.016.009h0l-.009-.009a1.828,1.828,0,0,0-.162-.322.246.246,0,0,1-.041-.122v-.031c.006-.037.013-.078.019-.116l.072-.372.006-.028s.009-.009.013,0l0,0a2.483,2.483,0,0,1,.206.2,1.91,1.91,0,0,1,.237.328c.031.053.059.106.087.162Z" transform="translate(-393.03 -272.261)" fill="#fff"/></g><g transform="translate(2.963 4.58)"><path d="M390.95,282.75c-.262.35-.525.7-.787,1.043l-.009-.009-.019-.019-.122-.178-.091-.137-.013-.019.006-.006c.222-.144.444-.287.665-.434.112-.075.228-.15.344-.225A.032.032,0,0,1,390.95,282.75Z" transform="translate(-389.91 -282.75)" fill="#fff"/></g><g transform="translate(2.589 5.26)"><path d="M389.03,284.928l.013.012.175.256c.016.022.028.044.041.062s.025.041.041.059l.006.006a.009.009,0,0,1,0,.012.107.107,0,0,0-.025.034l-.062.087a.071.071,0,0,0-.022.031.3.3,0,0,1-.231.116.237.237,0,0,1-.187-.081.273.273,0,0,1-.059-.125.32.32,0,0,1,.006-.144.28.28,0,0,1,.047-.1c.019-.019.034-.044.05-.062a.156.156,0,0,0,.031-.041.145.145,0,0,1,.05-.047c.034-.022.069-.047.106-.069C389.018,284.928,389.024,284.924,389.03,284.928Z" transform="translate(-388.713 -284.926)" fill="#fff"/></g><g transform="translate(2.769 0.831)"><path d="M389.29,271.1a.245.245,0,0,1,.047-.031c.091-.059.178-.122.269-.181l.178-.122.016-.016a.034.034,0,0,1,.016,0c.047.019.091.034.134.056a.112.112,0,0,1,.031.022.068.068,0,0,1,.022.053.185.185,0,0,1-.006.044c-.009.031-.016.063-.022.094-.016.091-.034.178-.053.269a.059.059,0,0,1-.006.025c0,.006-.006.009-.013.009h0l0,0-.091-.037-.181-.072c-.041-.019-.084-.031-.125-.047a.859.859,0,0,0-.084-.025l-.025-.006c-.031-.009-.062-.016-.094-.022C389.293,271.112,389.293,271.112,389.29,271.1Z" transform="translate(-389.29 -270.75)" fill="#fff"/></g><g transform="translate(0.935 5.436)"><path d="M383.42,285.49Z" transform="translate(-383.42 -285.49)"/></g></g><g transform="translate(31.324 44.953)"><rect width="4.489" height="0.781" transform="translate(0.29 0.244) rotate(3.256)" fill="#d6b93e"/><path d="M427.019,362.358l-4.939-.281.072-1.237,4.939.281Zm-4.458-.709,4.027.228.019-.325-4.027-.228Z" transform="translate(-422.08 -360.84)" fill="#636060"/></g><g transform="translate(51.399 36.566)"><path d="M492.08,341.045h0a.175.175,0,0,1-.169-.175,5.99,5.99,0,0,0-2.662-5.314,8.149,8.149,0,0,0-2.765-1.225.172.172,0,0,1,.063-.337,8.4,8.4,0,0,1,2.887,1.271,6.392,6.392,0,0,1,2.818,5.611A.166.166,0,0,1,492.08,341.045Z" transform="translate(-486.342 -333.992)" fill="#fff"/></g><g transform="translate(20.364 42.113)"><path d="M387.539,353.591a.138.138,0,0,1-.069-.016.17.17,0,0,1-.087-.225.958.958,0,0,0-.3-1.284.171.171,0,1,1,.172-.3,1.292,1.292,0,0,1,.44,1.718A.174.174,0,0,1,387.539,353.591Z" transform="translate(-386.997 -351.747)" fill="#fff"/></g><g transform="translate(51.017 34.766)"><rect width="0.253" height="7.516" fill="#211915"/></g><g transform="translate(43.404 38.324)"><path d="M467.2,343.806l.131-.216-6.417-3.971-.166.216Z" transform="translate(-460.75 -339.62)" fill="#211915"/></g><g transform="translate(48.811 41.245)"><circle cx="1.765" cy="1.765" r="1.765" transform="translate(0.172 0.172)" fill="#000929"/><path d="M480,352.844a1.937,1.937,0,1,1,1.937-1.937A1.938,1.938,0,0,1,480,352.844Zm0-3.533a1.6,1.6,0,1,0,1.6,1.6A1.6,1.6,0,0,0,480,349.31Z" transform="translate(-478.06 -348.97)" fill="#636060"/></g><g transform="translate(50.844 42.113)"><path d="M485.109,353.591a.138.138,0,0,1-.069-.016.17.17,0,0,1-.087-.225.958.958,0,0,0-.3-1.284.171.171,0,1,1,.172-.3,1.292,1.292,0,0,1,.44,1.718A.174.174,0,0,1,485.109,353.591Z" transform="translate(-484.567 -351.747)" fill="#fff"/></g><g transform="translate(26.463 0.397)"><path d="M412.977,218.21h0a6.455,6.455,0,0,0-6.457,6.457v.615c0,.437,12.914.437,12.914,0v-.615A6.457,6.457,0,0,0,412.977,218.21Z" transform="translate(-406.52 -218.21)" fill="#abe236"/><g transform="translate(1.79 3.37)"><path d="M412.25,230.907a4,4,0,0,1,3.78-1.874,3.936,3.936,0,0,1,3.327,2.293c.009.184-.619.112-.784-.162a3.086,3.086,0,0,0-2.64-1.671,4,4,0,0,0-3.174,1.456S412.362,231.323,412.25,230.907Z" transform="translate(-412.25 -228.998)" fill="#000929"/></g><g transform="translate(2.662 0.758)"><path d="M415.04,222.086a5.1,5.1,0,0,1,5.064-1.206c3.018.959,3.73,3.14,3.708,3.346s-.79-.019-.947-.369a3.994,3.994,0,0,0-2.971-2.487,5.173,5.173,0,0,0-4.23.878S415.1,222.577,415.04,222.086Z" transform="translate(-415.04 -220.635)" fill="#000929"/></g><g transform="translate(3.583 7.401)"><path d="M422.673,250.347s-4.364-1.231-3.864-8.447h-.818s-.041,6.632,3.824,8.475C421.814,250.378,422.51,250.366,422.673,250.347Z" transform="translate(-417.99 -241.9)" fill="#211915"/></g><g transform="translate(7.022 15.235)"><path d="M429.08,266.98s-.447.993.75,1.072c0,0,.594-.056.6-.447Z" transform="translate(-428.999 -266.98)" fill="#abe236"/></g></g><g transform="translate(27.031 7.628)"><path d="M408.88,241.91a96.906,96.906,0,0,0,11.484,0" transform="translate(-408.711 -241.737)" fill="#211915"/><path d="M414.365,241.871c-3.383,0-5.832-.169-5.867-.169a.172.172,0,0,1-.159-.184.17.17,0,0,1,.184-.159,98.066,98.066,0,0,0,11.462,0,.171.171,0,0,1,.022.341C418.011,241.827,416.068,241.871,414.365,241.871Z" transform="translate(-408.339 -241.357)" fill="#636060"/></g><g transform="translate(13.788 36.404)"><path d="M366.2,341.38a.171.171,0,0,1-.169-.147,6.5,6.5,0,0,1,2.3-6.185,8.407,8.407,0,0,1,2.924-1.571.171.171,0,0,1,.087.331,8.288,8.288,0,0,0-2.8,1.512,6.1,6.1,0,0,0-2.171,5.867.172.172,0,0,1-.147.194Z" transform="translate(-365.948 -333.471)" fill="#fff"/></g></g></g></svg>