<svg id="Capa_1" data-name="Capa 1" xmlns="http://www.w3.org/2000/svg" width="9.555" height="8.604" viewBox="0 0 9.555 8.604">
  <path id="Path_399" data-name="Path 399" d="M14.539,26.87h-6.9A1.328,1.328,0,0,0,6.31,28.2V31.65a1.328,1.328,0,0,0,1.326,1.326h6.9a1.33,1.33,0,0,0,1.326-1.326V28.2A1.33,1.33,0,0,0,14.539,26.87Zm-4.272.617h1.645v1.065a.747.747,0,0,1-.822.631.747.747,0,0,1-.822-.631Zm4.981,4.163a.711.711,0,0,1-.709.709H14.1V29.686a.308.308,0,1,0-.617,0v2.672H8.658V29.686a.308.308,0,1,0-.617,0v2.672H7.63a.711.711,0,0,1-.709-.709V28.2a.711.711,0,0,1,.709-.709h.411v.7a.308.308,0,1,0,.617,0v-.7h.993v1.065A1.353,1.353,0,0,0,11.09,29.8a1.353,1.353,0,0,0,1.439-1.248V27.487h.956v.7a.308.308,0,1,0,.617,0v-.7h.442a.711.711,0,0,1,.709.709Z" transform="translate(-6.31 -24.372)" fill="#abe236"/>
  <path id="Path_400" data-name="Path 400" d="M19.671,16.628a.308.308,0,0,0,.308-.308v-.643a.339.339,0,0,1,.339-.339h2.249a.339.339,0,0,1,.339.339v.87a.308.308,0,0,0,.617,0v-.87a.958.958,0,0,0-.956-.956H20.306a.956.956,0,0,0-.956.956v.648a.308.308,0,0,0,.321.3Z" transform="translate(-16.669 -14.72)" fill="#abe236"/>
</svg>
