<svg xmlns="http://www.w3.org/2000/svg" width="23.139" height="44.139" viewBox="0 0 23.139 44.139">
  <g id="sitter" transform="translate(-377.75 -210.66)">
    <path id="Path_26384" data-name="Path 26384" d="M442.117,271.95l-5.013-5.357a1.458,1.458,0,0,0-2.061-.069h0a1.458,1.458,0,0,0-.069,2.061l5.013,5.357a1.458,1.458,0,0,0,2.061.069h0A1.458,1.458,0,0,0,442.117,271.95Z" transform="translate(-42.042 -41.032)" fill="#44cef5" stroke="#646060" stroke-linecap="round" stroke-linejoin="round" stroke-miterlimit="10" stroke-width="0.5"/>
    <path id="Path_26385" data-name="Path 26385" d="M379.063,271.95l5.013-5.357a1.458,1.458,0,0,1,2.061-.069h0a1.458,1.458,0,0,1,.069,2.061l-5.013,5.357a1.458,1.458,0,0,1-2.061.069h0A1.458,1.458,0,0,1,379.063,271.95Z" transform="translate(-0.498 -41.032)" fill="#44cef5" stroke="#646060" stroke-linecap="round" stroke-linejoin="round" stroke-miterlimit="10" stroke-width="0.5"/>
    <rect id="Rectangle_8291" data-name="Rectangle 8291" width="1.439" height="2.418" transform="translate(388.615 223.015)" fill="#c6ad7b" stroke="#646060" stroke-miterlimit="10" stroke-width="0.5"/>
    <circle id="Ellipse_6861" data-name="Ellipse 6861" cx="1.118" cy="1.118" r="1.118" transform="translate(390.352 216.306)" fill="#919191" opacity="0.41"/>
    <circle id="Ellipse_6862" data-name="Ellipse 6862" cx="0.612" cy="0.612" r="0.612" transform="translate(390.858 216.812)" fill="#444"/>
    <ellipse id="Ellipse_6863" data-name="Ellipse 6863" cx="0.712" cy="1.12" rx="0.712" ry="1.12" transform="translate(384 216.894)" fill="#f3d490" stroke="#646060" stroke-miterlimit="10" stroke-width="0.5"/>
    <ellipse id="Ellipse_6864" data-name="Ellipse 6864" cx="0.712" cy="1.12" rx="0.712" ry="1.12" transform="translate(393.263 216.935)" fill="#f3d490" stroke="#646060" stroke-miterlimit="10" stroke-width="0.5"/>
    <path id="Path_26386" data-name="Path 26386" d="M425.71,309.362V320.8a2.032,2.032,0,0,0,2.032,2.032h0a2.032,2.032,0,0,0,2.032-2.032V309.362a2.032,2.032,0,0,0-2.032-2.032h0A2.032,2.032,0,0,0,425.71,309.362Z" transform="translate(-35.451 -71.645)" fill="#409bca" stroke="#646060" stroke-miterlimit="10" stroke-width="0.5"/>
    <path id="Path_26387" data-name="Path 26387" d="M402.29,309.362V320.8a2.032,2.032,0,0,0,2.032,2.032h0a2.032,2.032,0,0,0,2.032-2.032V309.362a2.032,2.032,0,0,0-2.032-2.032h0A2.032,2.032,0,0,0,402.29,309.362Z" transform="translate(-18.048 -71.645)" fill="#409bca" stroke="#646060" stroke-miterlimit="10" stroke-width="0.5"/>
    <path id="Path_26388" data-name="Path 26388" d="M409.567,228.466h0a4.338,4.338,0,0,1-4.337-4.337v-2a4.338,4.338,0,0,1,4.337-4.337h0a4.338,4.338,0,0,1,4.337,4.337v2A4.338,4.338,0,0,1,409.567,228.466Z" transform="translate(-20.233 -5.112)" fill="#f3d490" stroke="#646060" stroke-miterlimit="10" stroke-width="0.5"/>
    <path id="Path_26389" data-name="Path 26389" d="M398.82,279.489l-1.2-13.669c0-1.061,1.973-1.919,2.927-1.919h2.505c.527,1.025,1.1.9,1.7,0h2.423c.953,0,2.839.861,2.839,1.919L408.9,279.489C408.9,280.663,398.82,280.663,398.82,279.489Z" transform="translate(-14.578 -39.374)" fill="#39323d" stroke="#646060" stroke-linecap="round" stroke-linejoin="round" stroke-miterlimit="10" stroke-width="0.5"/>
    <path id="Path_26390" data-name="Path 26390" d="M428.03,365.606h-.722a1.6,1.6,0,0,1-1.6-1.6h0a1.6,1.6,0,0,1,1.6-1.6h.722a1.6,1.6,0,0,1,1.6,1.6h0A1.6,1.6,0,0,1,428.03,365.606Z" transform="translate(-35.451 -112.573)" fill="#353535" stroke="#646060" stroke-miterlimit="10" stroke-width="0.5"/>
    <path id="Path_26391" data-name="Path 26391" d="M404.89,365.606h-.722a1.6,1.6,0,0,1-1.6-1.6h0a1.6,1.6,0,0,1,1.6-1.6h.722a1.6,1.6,0,0,1,1.6,1.6h0A1.6,1.6,0,0,1,404.89,365.606Z" transform="translate(-18.256 -112.573)" fill="#353535" stroke="#646060" stroke-miterlimit="10" stroke-width="0.5"/>
    <path id="Path_26392" data-name="Path 26392" d="M412.138,243.271a2.645,2.645,0,0,0-1.891-.686,2.606,2.606,0,0,0-1.93.727.474.474,0,0,1-.283.082c-1.141-.344-1.922-.984-1.922-1.925a4.116,4.116,0,1,0,8.207,0c0,.92-.766,1.552-1.871,1.9A.539.539,0,0,1,412.138,243.271Z" transform="translate(-20.885 -22.708)" fill="#81414a"/>
    <path id="Path_26393" data-name="Path 26393" d="M429.06,366.826a1.283,1.283,0,0,1,.817-.856" transform="translate(-37.94 -115.218)" fill="none" stroke="#fff" stroke-linecap="round" stroke-linejoin="round" stroke-miterlimit="10" stroke-width="0.5"/>
    <path id="Path_26394" data-name="Path 26394" d="M405.81,366.676a1.283,1.283,0,0,1,.817-.856" transform="translate(-20.664 -115.107)" fill="none" stroke="#fff" stroke-linecap="round" stroke-linejoin="round" stroke-miterlimit="10" stroke-width="0.5"/>
    <path id="Path_26395" data-name="Path 26395" d="M409.1,243.08" transform="translate(-23.109 -23.904)" fill="#939393" stroke="#646060" stroke-linecap="round" stroke-linejoin="round" stroke-miterlimit="10" stroke-width="0.5"/>
    <path id="Path_26396" data-name="Path 26396" d="M404.882,217.187s2.993-3.654,2.575-2.058c-.385,1.462,3.032,2.13,3.417.668,0,0,.344-.182.113-.668s2.634,1.93,2.634,1.93a6.525,6.525,0,0,0-.712-4.165s-.3-.82-.234-.342c.046.331-.64.082-.686-.249C411.894,211.637,404.078,209.833,404.882,217.187Z" transform="translate(-19.931 -0.524)" fill="#81414a" stroke="#636060" stroke-miterlimit="10" stroke-width="0.5"/>
    <path id="Path_26397" data-name="Path 26397" d="M410.62,215.72a2.855,2.855,0,0,1,1.269,2.23" transform="translate(-24.238 -3.574)" fill="#bcbcbc" stroke="#636060" stroke-linecap="round" stroke-linejoin="round" stroke-miterlimit="10" stroke-width="0.5"/>
    <path id="Path_26398" data-name="Path 26398" d="M410.62,215.72a2.855,2.855,0,0,1,1.269,2.23" transform="translate(-24.238 -3.574)" fill="#bcbcbc" stroke="#636060" stroke-linecap="round" stroke-linejoin="round" stroke-miterlimit="10" stroke-width="0.5"/>
    <path id="Path_26399" data-name="Path 26399" d="M415.67,247.82" transform="translate(-27.991 -27.426)" fill="none" stroke="#646060" stroke-linecap="round" stroke-linejoin="round" stroke-miterlimit="10" stroke-width="0.5"/>
    <path id="Path_26400" data-name="Path 26400" d="M413.257,214.579H404.11v-.933a2.737,2.737,0,0,1,2.736-2.736h3.677a2.737,2.737,0,0,1,2.736,2.736v.933Z" transform="translate(-19.401)" fill="#8fe305" stroke="#646060" stroke-linecap="round" stroke-linejoin="round" stroke-miterlimit="10" stroke-width="0.5"/>
    <path id="Path_26401" data-name="Path 26401" d="M412.747,223.864a20.058,20.058,0,0,0-9.687,0v1.185c0-.827,9.687-.827,9.687,0Z" transform="translate(-18.621 -9.184)" fill="#607226" stroke="#646060" stroke-linecap="round" stroke-linejoin="round" stroke-miterlimit="10" stroke-width="0.5"/>
    <path id="Path_26402" data-name="Path 26402" d="M407.848,214a2.51,2.51,0,0,0-.958,1.94" transform="translate(-21.467 -2.296)" fill="none" stroke="#fff" stroke-linecap="round" stroke-linejoin="round" stroke-miterlimit="10" stroke-width="0.5"/>
    <line id="Line_343" data-name="Line 343" y2="4.509" transform="translate(385.066 243.431)" fill="none" stroke="#fff" stroke-linecap="round" stroke-linejoin="round" stroke-miterlimit="10" stroke-width="0.5"/>
    <line id="Line_344" data-name="Line 344" y2="4.509" transform="translate(391.12 243.431)" fill="none" stroke="#fff" stroke-linecap="round" stroke-linejoin="round" stroke-miterlimit="10" stroke-width="0.5"/>
    <path id="Path_26403" data-name="Path 26403" d="M386.1,335.88h16.617l1.241,3.235v8.294H384.71v-8.294Z" transform="translate(-4.985 -92.86)" fill="#f3d854" stroke="#636060" stroke-linecap="round" stroke-linejoin="round" stroke-miterlimit="10" stroke-width="0.5"/>
    <g id="Group_10333" data-name="Group 10333" transform="translate(388.764 211.383)">
      <g id="Group_10319" data-name="Group 10319" transform="translate(0.396 0)">
        <path id="Path_26404" data-name="Path 26404" d="M422.015,213.279l0-.514v-.013s0,0,0,0h.141s.005,0,.005,0h0v.008l0,.324,0,.249,0,.231v.072c0,.044,0,.087,0,.131a.385.385,0,0,1-.005.054c0,.015-.005.033-.008.049a.33.33,0,0,1-.028.085.263.263,0,0,1-.057.082.277.277,0,0,1-.082.062.378.378,0,0,1-.069.026l-.041.008-.015,0-.023,0h-.064l-.028,0-.018,0a.4.4,0,0,1-.059-.013.291.291,0,0,1-.116-.067.3.3,0,0,1-.057-.072.357.357,0,0,1-.031-.072.4.4,0,0,1-.013-.054c0-.015-.005-.031-.008-.049a.208.208,0,0,1,0-.056c0-.013,0-.023,0-.036a.475.475,0,0,1,.015-.082.322.322,0,0,1,.077-.139.345.345,0,0,1,.265-.105.107.107,0,0,1,.028,0c.01,0,.015,0,.023,0l.041.008.026.008.01.005a.032.032,0,0,1,.018.023.064.064,0,0,1,0,.021v.123l-.005-.005a.192.192,0,0,0-.051-.026.211.211,0,0,0-.039-.01.227.227,0,0,0-.072,0,.485.485,0,0,0-.059.01.207.207,0,0,0-.075.039.134.134,0,0,0-.036.049l-.015.039a.314.314,0,0,0-.008.154.241.241,0,0,0,.01.041.263.263,0,0,0,.031.059.186.186,0,0,0,.057.044.213.213,0,0,0,.054.015.033.033,0,0,1,.015,0,.247.247,0,0,0,.044,0,.219.219,0,0,0,.041,0l.023,0a.149.149,0,0,0,.054-.018.17.17,0,0,0,.072-.069.218.218,0,0,0,.023-.062c0-.01,0-.021.005-.031a.208.208,0,0,0,0-.041Z" transform="translate(-421.433 -212.75)" fill="#000929"/>
      </g>
      <g id="Group_10320" data-name="Group 10320" transform="translate(1.244 0.576)">
        <path id="Path_26405" data-name="Path 26405" d="M424.73,215.106s0,0,.005-.005l.064-.062.039-.036s0-.005.005-.008a.006.006,0,0,1,.005-.005h0l0,0a.785.785,0,0,1,.059.1.737.737,0,0,1,.049.144l.008.049,0,.033v.054a.2.2,0,0,1,0,.039c0,.005,0,.013,0,.018-.005.023-.01.044-.015.064a.436.436,0,0,1-.033.08l-.036.069a0,0,0,0,1,0,0l0,0c-.039-.036-.077-.075-.113-.111v-.005a.06.06,0,0,0,.005-.021.526.526,0,0,0,.013-.062c0-.015.005-.033.008-.051a.251.251,0,0,0,0-.041v-.041a.343.343,0,0,0-.005-.049c0-.015,0-.023-.005-.033a.411.411,0,0,0-.013-.054.453.453,0,0,0-.031-.075C424.73,215.108,424.73,215.106,424.73,215.106Z" transform="translate(-424.73 -214.99)" fill="#fff"/>
      </g>
      <g id="Group_10321" data-name="Group 10321" transform="translate(0.018 0.994)">
        <path id="Path_26406" data-name="Path 26406" d="M420.114,216.62a.009.009,0,0,1,0,.008c0,.015.005.028.008.044a.46.46,0,0,0,.023.08.513.513,0,0,0,.041.085c.01.018.023.036.033.054l.113.18.021.031v.005l-.021.021c-.026.023-.049.046-.075.072l-.023.023s0,0-.005,0h0l0-.005-.062-.092-.077-.116-.039-.059a.958.958,0,0,1-.051-.087.714.714,0,0,1-.039-.092v0a0,0,0,0,1,0,0s.005,0,.005-.005,0,0,0,0,.005,0,.005,0l.036-.036.09-.085C420.109,216.623,420.112,216.62,420.114,216.62Z" transform="translate(-419.96 -216.62)" fill="#fff"/>
      </g>
      <g id="Group_10322" data-name="Group 10322" transform="translate(0.057 0.313)">
        <path id="Path_26407" data-name="Path 26407" d="M420.629,214.088h0l-.008,0a.6.6,0,0,0-.128.049.52.52,0,0,0-.113.085c-.015.015-.031.031-.044.046a.533.533,0,0,0-.082.139.166.166,0,0,0-.01.033l0,0h0l0,0-.036-.036-.08-.08-.008-.008s0,0,0-.008a.122.122,0,0,0,.008-.018.654.654,0,0,1,.093-.139.577.577,0,0,1,.1-.09.586.586,0,0,1,.123-.069l.056-.023.005,0a0,0,0,0,1,0,0l.008.005.1.092.021.021C420.629,214.086,420.629,214.088,420.629,214.088Z" transform="translate(-420.11 -213.97)" fill="#fff"/>
      </g>
      <g id="Group_10323" data-name="Group 10323" transform="translate(0.311 1.493)">
        <path id="Path_26408" data-name="Path 26408" d="M421.1,218.68h0c.005-.005.008-.01.013-.013s.005,0,.005-.005l.054-.054.041-.039s0,0,0-.005,0,0,.005,0l0,.005.031.046.113.175.118.185.01.015,0,.005s0,.005-.005.008l-.021.021-.031.031,0,0s0,0,0,0a.005.005,0,0,1-.005-.005l-.105-.1,0,0-.015-.015-.039-.036a.07.07,0,0,1-.015-.013l-.038-.031c-.005,0-.008-.008-.01-.01l-.105-.159Z" transform="translate(-421.1 -218.563)" fill="#fff"/>
      </g>
      <g id="Group_10324" data-name="Group 10324" transform="translate(0 0.668)">
        <path id="Path_26409" data-name="Path 26409" d="M420.062,215.656c-.036.033-.069.067-.105.1l-.036.033-.005.005h0a.048.048,0,0,1-.005-.021.645.645,0,0,1-.013-.069.2.2,0,0,1-.005-.041.445.445,0,0,1,0-.059.155.155,0,0,1,0-.033l0-.015a.07.07,0,0,1,0-.023.521.521,0,0,1,.013-.062c.008-.026.013-.049.023-.075s.01-.028.015-.041a0,0,0,0,1,0,0h0a.009.009,0,0,1,.005,0s0,.005.005.008l.039.039.08.082,0,0s0,0,0,.005a.139.139,0,0,0-.005.028c0,.01,0,.023-.005.036a.485.485,0,0,0,0,.062v.023A.069.069,0,0,0,420.062,215.656Z" transform="translate(-419.89 -215.35)" fill="#fff"/>
      </g>
      <g id="Group_10325" data-name="Group 10325" transform="translate(1.019 1.143)">
        <path id="Path_26410" data-name="Path 26410" d="M424.1,217.2h0l.113.113h0a0,0,0,0,1,0,0c-.01.023-.023.046-.033.067a.034.034,0,0,1-.008.01l-.033.028a.121.121,0,0,0-.018.018l-.087.087-.01.01a0,0,0,0,1,0,0l-.01.008-.1.1a.476.476,0,0,0-.036.036s0,0,0,.005h0l-.005-.005c-.008-.01-.008-.008,0-.018l.093-.17.1-.19a.739.739,0,0,0,.046-.1S424.1,217.2,424.1,217.2Z" transform="translate(-423.856 -217.2)" fill="#fff"/>
      </g>
      <g id="Group_10326" data-name="Group 10326" transform="translate(0.473 0.257)">
        <path id="Path_26411" data-name="Path 26411" d="M421.987,213.909h-.015l-.046,0a.169.169,0,0,1-.033,0l-.018,0-.018,0s-.005,0-.005,0l-.033-.033-.064-.064-.021-.021,0,0v0l.005,0,.062-.015.039-.008.026-.005.051-.008.023,0,.046,0h.062a.044.044,0,0,1,.018,0l.033,0,.023,0s0,0,.005,0h0l-.005.008-.049.051c-.023.026-.049.049-.072.075A.034.034,0,0,1,421.987,213.909Z" transform="translate(-421.73 -213.75)" fill="#fff"/>
      </g>
      <g id="Group_10327" data-name="Group 10327" transform="translate(0.439 1.806)">
        <path id="Path_26412" data-name="Path 26412" d="M421.6,219.78l.023.023.036.036.039.039.062.064.041.041s0,0,.005,0h0l0,0,.044-.041.023-.023h.005l0,.005.054.085a.214.214,0,0,1,.018.033.09.09,0,0,1,.005.028.068.068,0,0,1-.018.049.273.273,0,0,1-.031.026v0a.047.047,0,0,1-.018.005h-.023a.009.009,0,0,1-.008,0,.288.288,0,0,1-.033-.026.069.069,0,0,1-.018-.021l-.033-.051-.074-.113-.1-.149,0-.005a.008.008,0,0,0,0-.005Z" transform="translate(-421.6 -219.78)" fill="#fff"/>
      </g>
      <g id="Group_10328" data-name="Group 10328" transform="translate(1.143 0.373)">
        <path id="Path_26413" data-name="Path 26413" d="M424.551,214.388s0,.005-.005.008c-.026.026-.051.051-.077.075l-.031.031s0,0-.005,0h0a0,0,0,0,1,0,0,.565.565,0,0,0-.067-.087.1.1,0,0,1-.021-.036.016.016,0,0,0,0-.01V214.2s0,0,.005,0h0c.026.015.049.031.075.049a.567.567,0,0,1,.09.085l.036.044Z" transform="translate(-424.34 -214.2)" fill="#fff"/>
      </g>
      <g id="Group_10329" data-name="Group 10329" transform="translate(1.046 1.375)">
        <path id="Path_26414" data-name="Path 26414" d="M424.237,218.1c-.059.121-.121.242-.18.362l0,0-.008-.005-.046-.046-.036-.036-.005-.005a0,0,0,0,1,0,0l.177-.17.092-.087S424.232,218.1,424.237,218.1Z" transform="translate(-423.96 -218.1)" fill="#fff"/>
      </g>
      <g id="Group_10330" data-name="Group 10330" transform="translate(0.952 1.644)">
        <path id="Path_26415" data-name="Path 26415" d="M423.672,219.15l.005,0,.067.067.015.015.015.015,0,0s0,0,0,0-.005.008-.005.013l-.013.031a.02.02,0,0,0-.005.01.1.1,0,0,1-.064.049.076.076,0,0,1-.062-.013.093.093,0,0,1-.026-.036.082.082,0,0,1-.005-.044.16.16,0,0,1,.008-.033.09.09,0,0,0,.01-.023c0-.008.005-.008.008-.013a.046.046,0,0,1,.013-.018c.01-.008.018-.018.028-.026A.009.009,0,0,1,423.672,219.15Z" transform="translate(-423.596 -219.15)" fill="#fff"/>
      </g>
      <g id="Group_10331" data-name="Group 10331" transform="translate(0.758 0.278)">
        <path id="Path_26416" data-name="Path 26416" d="M422.84,213.966c0-.005.008-.008.013-.013.023-.023.046-.046.072-.069l.046-.046s0,0,0-.005,0,0,.005,0a.272.272,0,0,1,.044.01.013.013,0,0,1,.01.005.023.023,0,0,1,.01.015v.134s0,0,0,0h0l-.028-.005-.059-.013-.041-.008a.088.088,0,0,0-.026,0h-.008l-.031,0S422.843,213.969,422.84,213.966Z" transform="translate(-422.84 -213.83)" fill="#fff"/>
      </g>
      <g id="Group_10332" data-name="Group 10332" transform="translate(0.442 1.806)">
        <path id="Path_26417" data-name="Path 26417" d="M421.61,219.78Z" transform="translate(-421.61 -219.78)"/>
      </g>
    </g>
    <g id="Group_10334" data-name="Group 10334" transform="translate(384.545 227.36)">
      <path id="Path_361_16_" d="M404.464,276.15a.584.584,0,0,0-.442.162.715.715,0,0,0-.159.506.7.7,0,0,0,.162.506.684.684,0,0,0,.884,0,.647.647,0,0,0,.162-.468V274.93h.4v1.927a1.046,1.046,0,0,1-.275.755,1.067,1.067,0,0,1-1.447,0,1.1,1.1,0,0,1-.275-.8,1.2,1.2,0,0,1,.17-.671.872.872,0,0,1,.414-.344,1.019,1.019,0,0,1,.524-.069,1.153,1.153,0,0,1,.306.085v.465A.657.657,0,0,0,404.464,276.15Z" transform="translate(-403.47 -274.93)" fill="#fff"/>
      <path id="Path_362_16_" d="M413.014,280.07a.691.691,0,0,1,.516.2.917.917,0,0,1,0,1.138.759.759,0,0,1-1.033,0,.787.787,0,0,1-.2-.568.8.8,0,0,1,.2-.57A.691.691,0,0,1,413.014,280.07Zm-.316.409a.5.5,0,0,0-.116.362.5.5,0,0,0,.116.36.49.49,0,0,0,.632,0,.5.5,0,0,0,.116-.36.512.512,0,0,0-.116-.362.49.49,0,0,0-.632,0Z" transform="translate(-410.031 -278.749)" fill="#fff"/>
      <path id="Path_363_16_" d="M419.648,281.193v.326a.821.821,0,0,1-.3.054.683.683,0,0,1-.516-.2.76.76,0,0,1-.2-.54.8.8,0,0,1,.2-.57.683.683,0,0,1,.516-.2.691.691,0,0,1,.516.2.8.8,0,0,1,.2.57v.6a.743.743,0,0,1-.2.537.668.668,0,0,1-.514.2h-.439v-.293h.439a.409.409,0,0,0,.313-.116.455.455,0,0,0,.113-.311.006.006,0,0,0-.005.005l.005-.005v-.617a.5.5,0,0,0-.116-.362.408.408,0,0,0-.316-.116.419.419,0,0,0-.316.116.518.518,0,0,0-.116.362.457.457,0,0,0,.116.331.408.408,0,0,0,.316.116A.473.473,0,0,0,419.648,281.193Z" transform="translate(-414.735 -278.742)" fill="#fff"/>
      <path id="Path_364_16_" d="M425.723,278.736v.45a.457.457,0,0,0,.116.331.405.405,0,0,0,.313.116h.026v.293h-.026a.674.674,0,0,1-.514-.2.767.767,0,0,1-.2-.537V277.85h.283v.6h.444v.29Z" transform="translate(-419.795 -277.1)" fill="#fff"/>
      <path id="Path_365_16_" d="M437.958,280.283v.29h-.044a.574.574,0,0,0-.429.128.459.459,0,0,0-.093.319v.743h-.283v-.743a.734.734,0,0,1,.172-.522.817.817,0,0,1,.632-.218Z" transform="translate(-428.466 -278.905)" fill="#fff"/>
      <path id="Path_366_42_" d="M430.495,282.7a.414.414,0,0,0,.036.254l.015.031a.293.293,0,0,1-.087.447.385.385,0,0,1-.311.01c-.082-.028-.164-.064-.244-.1a1.266,1.266,0,0,1-.329-.231.639.639,0,0,1-.18-.254.282.282,0,0,1,.082-.319.278.278,0,0,1,.239-.072.321.321,0,0,0,.254-.08.347.347,0,0,1,.234-.072.339.339,0,0,1,.265.231C430.477,282.606,430.487,282.662,430.495,282.7Z" transform="translate(-422.72 -280.419)" fill="#fff"/>
      <path id="Path_367_42_" d="M431.81,279.588a.5.5,0,0,1,.218-.411.437.437,0,0,1,.249-.087.124.124,0,0,1,.123.177c-.036.116-.08.226-.123.339a.39.39,0,0,1-.213.211.2.2,0,0,1-.206-.1C431.841,279.676,431.825,279.632,431.81,279.588Z" transform="translate(-424.528 -278.021)" fill="#fff"/>
      <path id="Path_368_42_" d="M433.877,280.754a.214.214,0,0,1-.206-.265.484.484,0,0,1,.105-.226c.062-.08.123-.159.19-.239s.134-.059.188.021a.483.483,0,0,1,.062.283.529.529,0,0,1-.062.226A.364.364,0,0,1,433.877,280.754Z" transform="translate(-425.909 -278.678)" fill="#fff"/>
      <path id="Path_369_42_" d="M430.17,279.45c-.01.051-.026.121-.039.19a.235.235,0,0,0,0,.085.348.348,0,0,1-.008.229.269.269,0,0,1-.162.152.143.143,0,0,1-.149-.026.3.3,0,0,1-.111-.162.405.405,0,0,1,.031-.29.628.628,0,0,1,.267-.308C430.088,279.268,430.176,279.335,430.17,279.45Z" transform="translate(-422.95 -278.178)" fill="#fff"/>
      <path id="Path_370_42_" d="M434.917,282.613a.614.614,0,0,1-.3.5.227.227,0,0,1-.319-.069.251.251,0,0,1,.028-.27.333.333,0,0,1,.123-.093.669.669,0,0,0,.208-.149.641.641,0,0,1,.08-.067.113.113,0,0,1,.159.044.131.131,0,0,1,.015.064Z" transform="translate(-426.361 -280.514)" fill="#fff"/>
    </g>
    <path id="Path_26418" data-name="Path 26418" d="M418.69,250.9a1.521,1.521,0,0,0,1.732,0" transform="translate(-30.235 -29.715)" fill="none" stroke="#dc9d62" stroke-linecap="round" stroke-miterlimit="10" stroke-width="0.5"/>
    <circle id="Ellipse_6865" data-name="Ellipse 6865" cx="0.47" cy="0.47" r="0.47" transform="translate(390.958 217.174)" fill="#81414a"/>
    <circle id="Ellipse_6866" data-name="Ellipse 6866" cx="0.47" cy="0.47" r="0.47" transform="translate(386.898 217.174)" fill="#81414a"/>
    <circle id="Ellipse_6867" data-name="Ellipse 6867" cx="0.234" cy="0.234" r="0.234" transform="translate(391.117 217.663)" fill="#fff"/>
    <circle id="Ellipse_6868" data-name="Ellipse 6868" cx="0.234" cy="0.234" r="0.234" transform="translate(387.047 217.663)" fill="#fff"/>
    <path id="Path_26419" data-name="Path 26419" d="M403.96,339.071H384.71l1.457-3.191h16.552Z" transform="translate(-4.985 -92.86)" fill="#d6d6d6" stroke="#636060" stroke-linecap="round" stroke-linejoin="round" stroke-miterlimit="10" stroke-width="0.5"/>
    <g id="Group_10361" data-name="Group 10361" transform="translate(386.198 233.182)">
      <g id="Group_10335" data-name="Group 10335" transform="translate(0)">
        <path id="Path_26420" data-name="Path 26420" d="M416.7,304.271a2.587,2.587,0,0,1-.851,1.267,2.374,2.374,0,0,0-.141-.9,2.508,2.508,0,0,0-.29-1.131,1.8,1.8,0,0,1-.362-1.082,10.683,10.683,0,0,1,.267-1.59,4.253,4.253,0,0,1,.2.84c.049.519.113,1.269.663.982a2.155,2.155,0,0,0,.576-2.261c-.316-.547-1.156-1.752-1.8-1.6a1.713,1.713,0,0,0-2.508-.013c-.635-.054-1.429,1.087-1.734,1.614a2.155,2.155,0,0,0,.576,2.261c.55.288.612-.462.663-.981a3.832,3.832,0,0,1,.162-.719c.044.308.113.779.182,1.113a2.685,2.685,0,0,1-.5,1.927,1.743,1.743,0,0,0-.275.6.239.239,0,0,0-.077.057,15.764,15.764,0,0,0-.062,3.507.951.951,0,0,1-.221.193.871.871,0,0,0-.252,1.22c.082.116.3,0,.547-.208a3.63,3.63,0,0,0,.118.861.546.546,0,0,0,.678-.039c.028-.059-.054-.835-.077-1.534.262-.29.46-.532.46-.532s1.4-.105,1.811-.085.218.57.365.917a.658.658,0,0,0,.254.239,4.151,4.151,0,0,0,0,.938.392.392,0,0,0,.709-.092,2.943,2.943,0,0,0,.067-.524c.365.093.691.087.722-.131.064-.486-.665-.863-.665-.863a.263.263,0,0,1-.01-.033c.018-.743.015-1.619-.01-2.349a4.811,4.811,0,0,0,.73-.894C416.926,304.792,416.89,303.248,416.7,304.271Z" transform="translate(-410.418 -298.073)"/>
        <path id="Path_26421" data-name="Path 26421" d="M411.393,310.024a.745.745,0,0,1-.427-.128l-.021-.013-.015-.018c-.036-.044-.075-.092-.128-.647a.55.55,0,0,1-.347.1.277.277,0,0,1-.2-.118,1.036,1.036,0,0,1-.159-.8,1.012,1.012,0,0,1,.462-.671.685.685,0,0,0,.134-.111,15.492,15.492,0,0,1,.093-3.533l.01-.015a.291.291,0,0,1,.064-.062,1.839,1.839,0,0,1,.285-.6,2.533,2.533,0,0,0,.468-1.783c-.01-.044-.018-.09-.028-.136-.044.362-.126.737-.38.876a.52.52,0,0,1-.509-.031,1.676,1.676,0,0,1-.676-1.033,2.068,2.068,0,0,1,.031-1.472c.164-.285,1.007-1.67,1.814-1.7a1.886,1.886,0,0,1,2.641,0c.83-.057,1.716,1.4,1.891,1.7a2.1,2.1,0,0,1,.031,1.472,1.667,1.667,0,0,1-.676,1.033.52.52,0,0,1-.509.031c-.313-.17-.365-.7-.406-1.128l0-.026c0-.023-.005-.049-.008-.075a4.372,4.372,0,0,0-.108.8,1.659,1.659,0,0,0,.3.953c.221.175.319.91.349,1.2a1.6,1.6,0,0,1,.118.57,2,2,0,0,0,.532-.9h0c.062-.334.108-.457.244-.486a.191.191,0,0,1,.2.082,2.374,2.374,0,0,1-.211,1.516,5.114,5.114,0,0,1-.7.868c.021.668.026,1.477.01,2.2.218.131.737.5.673.994a.348.348,0,0,1-.154.252.8.8,0,0,1-.581.067,1.875,1.875,0,0,1-.059.365.522.522,0,0,1-.429.4.654.654,0,0,1-.594-.262c-.064-.1-.064-.257-.033-.945a.674.674,0,0,1-.236-.26,1.4,1.4,0,0,1-.082-.475c-.018-.316-.046-.331-.128-.337-.344-.018-1.421.056-1.714.08-.069.082-.2.242-.37.427.01.308.033.627.051.886.036.522.039.594.005.663a.458.458,0,0,1-.306.206A.779.779,0,0,1,411.393,310.024Zm-.182-.391a.454.454,0,0,0,.365,0c0-.092-.015-.3-.028-.48-.021-.283-.044-.635-.054-.969l0-.072.049-.051c.257-.283.452-.522.455-.524l.049-.059.075-.005c.056-.005,1.411-.105,1.832-.085s.447.409.462.666a1.144,1.144,0,0,0,.057.357s.026.057.188.159l.087.054-.008.162a7.6,7.6,0,0,0-.018.789.33.33,0,0,0,.242.1c.026,0,.1-.013.141-.157a2.361,2.361,0,0,0,.059-.483l.015-.208.2.051c.352.09.488.039.5.021.039-.3-.411-.606-.573-.691l-.062-.033-.044-.128v-.031c.018-.763.013-1.637-.01-2.338l0-.082.062-.054a4.621,4.621,0,0,0,.7-.861.8.8,0,0,0,.046-.082,4.278,4.278,0,0,1-.54.594l-.272.252-.023-.37a3.525,3.525,0,0,0-.1-.789l-.039-.028-.008-.075a2.826,2.826,0,0,0-.229-1.015,1.946,1.946,0,0,1-.424-1.205,9.753,9.753,0,0,1,.27-1.637l.139-.624.2.606a4.271,4.271,0,0,1,.211.879l0,.026c.026.27.074.771.224.85.046.026.123-.005.18-.033a1.394,1.394,0,0,0,.5-.82,1.739,1.739,0,0,0,0-1.2c-.388-.671-1.138-1.629-1.611-1.518l-.1.023-.069-.075a1.536,1.536,0,0,0-2.251-.01l-.059.062-.085-.008c-.481-.039-1.2.892-1.567,1.526a1.755,1.755,0,0,0,0,1.2,1.383,1.383,0,0,0,.5.82c.057.028.134.059.18.033.149-.082.2-.583.224-.85l0-.026a4.036,4.036,0,0,1,.17-.753l.234-.748.108.776c.046.324.113.776.18,1.1a2.891,2.891,0,0,1-.532,2.068,1.561,1.561,0,0,0-.244.542l-.021.077-.069.036-.015.008a17.858,17.858,0,0,0-.031,3.392l0,.072-.049.054a1.184,1.184,0,0,1-.257.226.673.673,0,0,0-.3.442.689.689,0,0,0,.08.493,1.071,1.071,0,0,0,.314-.208l.259-.218.028.339A7.5,7.5,0,0,0,411.211,309.633Zm.008.036Zm3.841-5.4Z" transform="translate(-409.904 -297.59)" fill="#636060"/>
      </g>
      <g id="Group_10360" data-name="Group 10360" transform="translate(0.118 0.113)">
        <g id="Group_10336" data-name="Group 10336" transform="translate(4.092 5.74)">
          <path id="Path_26422" data-name="Path 26422" d="M426.485,322.769s1.688-1.03,1.876-2.056.226.519-.09.984-.858,1.259-1.6,1.3S426.485,322.769,426.485,322.769Z" transform="translate(-426.29 -320.369)" fill="#3a1f12"/>
        </g>
        <g id="Group_10337" data-name="Group 10337" transform="translate(0.229 8.507)">
          <path id="Path_26423" data-name="Path 26423" d="M416.39,332.977s.73.38.665.863-1.6-.085-1.75-.432.051-.9-.365-.917-1.812.085-1.812.085-1.472,1.809-1.727,1.452a.874.874,0,0,1,.252-1.22,3.207,3.207,0,0,0,.817-1.223s3-.486,3.148-.442A10.668,10.668,0,0,1,416.39,332.977Z" transform="translate(-411.255 -331.139)" fill="#3a1f12"/>
        </g>
        <g id="Group_10358" data-name="Group 10358">
          <g id="Group_10338" data-name="Group 10338" transform="translate(0.855 2.405)">
            <path id="Path_26424" data-name="Path 26424" d="M417.836,307.62a13.14,13.14,0,0,0-.308,1.781,1.787,1.787,0,0,0,.362,1.082,3.721,3.721,0,0,1,.257,2.1c-.162.4-3.582.488-3.972.288s-.313-1.357.1-1.9a2.71,2.71,0,0,0,.5-1.927c-.113-.537-.226-1.423-.226-1.423h3.289Z" transform="translate(-413.861 -307.561)" fill="#493022"/>
            <path id="Path_26425" data-name="Path 26425" d="M415.209,312.86a4.167,4.167,0,0,1-1.231-.111.572.572,0,0,1-.252-.4,2.18,2.18,0,0,1,.329-1.585,2.619,2.619,0,0,0,.488-1.878c-.11-.534-.224-1.421-.226-1.429l-.008-.067h3.43l-.015.072a13.7,13.7,0,0,0-.308,1.765,1.731,1.731,0,0,0,.339,1.038,3.724,3.724,0,0,1,.275,2.166c-.026.064-.1.118-.231.167A10.29,10.29,0,0,1,415.209,312.86Zm-.766-5.352c.028.216.123.91.216,1.354a2.742,2.742,0,0,1-.511,1.973,2.066,2.066,0,0,0-.308,1.488.449.449,0,0,0,.19.321,10.753,10.753,0,0,0,3.726-.157c.134-.049.159-.09.164-.1a3.74,3.74,0,0,0-.239-2.032,1.816,1.816,0,0,1-.383-1.123,11.356,11.356,0,0,1,.3-1.724Z" transform="translate(-413.691 -307.39)" fill="#493022"/>
          </g>
          <g id="Group_10339" data-name="Group 10339" transform="translate(1.83 2.26)">
            <path id="Path_26426" data-name="Path 26426" d="M420.184,307.319s.062,1.637-.437,1.937-.612.062-.763.113-.851-.026-.951-.275-.213-1.686-.324-1.873S420.022,306.957,420.184,307.319Z" transform="translate(-417.649 -307.003)" fill="#774c2f"/>
            <path id="Path_26427" data-name="Path 26427" d="M419.138,309.292a.617.617,0,0,1-.19-.033.172.172,0,0,0-.108-.013c-.172.057-.907-.021-1.023-.308a6.4,6.4,0,0,1-.152-.892,5.677,5.677,0,0,0-.17-.974.083.083,0,0,1,0-.085c.095-.159,1.087-.18,1.614-.146.573.036.9.128.964.277l.005.021c0,.069.059,1.675-.465,1.989A.912.912,0,0,1,419.138,309.292Zm-.272-.167a.355.355,0,0,1,.116.023c.105.031.252.074.573-.118.38-.229.424-1.413.409-1.871-.018-.026-.085-.087-.337-.136a5.776,5.776,0,0,0-2.014.021,5.732,5.732,0,0,1,.172.992,6.468,6.468,0,0,0,.144.863c.08.2.732.288.876.242A.137.137,0,0,1,418.866,309.125Z" transform="translate(-417.485 -306.827)" fill="#774c2f"/>
          </g>
          <g id="Group_10340" data-name="Group 10340" transform="translate(4.074 0.537)">
            <path id="Path_26428" data-name="Path 26428" d="M426.939,301.974a5.739,5.739,0,0,1,.362,1.28c.049.519.113,1.269.663.982a2.156,2.156,0,0,0,.576-2.261c-.324-.563-1.208-1.824-1.86-1.588S426.939,301.974,426.939,301.974Z" transform="translate(-426.387 -300.296)" fill="#5b3d28"/>
            <path id="Path_26429" data-name="Path 26429" d="M427.577,304.179a.308.308,0,0,1-.152-.039c-.26-.141-.308-.637-.344-1.035l0-.026a5.59,5.59,0,0,0-.357-1.256c-.056-.082-.627-.953-.475-1.418a.387.387,0,0,1,.249-.252c.8-.293,1.817,1.416,1.93,1.614a1.941,1.941,0,0,1,.018,1.38,1.566,1.566,0,0,1-.617.961A.523.523,0,0,1,427.577,304.179Zm-.894-3.942a.422.422,0,0,0-.149.026.271.271,0,0,0-.177.177c-.136.424.46,1.313.465,1.321l.005.01a5.8,5.8,0,0,1,.367,1.3l0,.026c.033.352.08.832.285.943a.3.3,0,0,0,.29-.033,1.477,1.477,0,0,0,.558-.892,1.842,1.842,0,0,0-.008-1.29C427.988,301.245,427.248,300.237,426.683,300.237Z" transform="translate(-426.221 -300.119)" fill="#5b3d28"/>
          </g>
          <g id="Group_10341" data-name="Group 10341" transform="translate(0 0.54)">
            <path id="Path_26430" data-name="Path 26430" d="M412.311,301.974a5.745,5.745,0,0,0-.362,1.28c-.049.519-.113,1.269-.663.982a2.155,2.155,0,0,1-.576-2.261c.324-.563,1.208-1.824,1.86-1.588S412.311,301.974,412.311,301.974Z" transform="translate(-410.529 -300.299)" fill="#5b3d28"/>
            <path id="Path_26431" data-name="Path 26431" d="M411.342,304.188a.547.547,0,0,1-.247-.069,1.582,1.582,0,0,1-.617-.961,1.941,1.941,0,0,1,.018-1.38c.113-.2,1.128-1.9,1.93-1.614a.392.392,0,0,1,.249.252c.152.462-.421,1.334-.475,1.418a5.681,5.681,0,0,0-.357,1.257l0,.026c-.038.4-.085.894-.344,1.036A.349.349,0,0,1,411.342,304.188Zm.9-3.941c-.568,0-1.305,1.007-1.639,1.588a1.842,1.842,0,0,0-.008,1.29,1.477,1.477,0,0,0,.558.892.306.306,0,0,0,.29.033c.206-.11.252-.591.285-.943l0-.026a5.9,5.9,0,0,1,.367-1.3l.005-.01c.005-.008.6-.9.465-1.321a.266.266,0,0,0-.177-.177A.426.426,0,0,0,412.239,300.246Z" transform="translate(-410.364 -300.131)" fill="#5b3d28"/>
          </g>
          <g id="Group_10342" data-name="Group 10342" transform="translate(1.389)">
            <circle id="Ellipse_6869" data-name="Ellipse 6869" cx="1.716" cy="1.716" r="1.716" transform="translate(0.059 0.059)" fill="#774c2f"/>
            <path id="Path_26432" data-name="Path 26432" d="M417.545,301.581a1.775,1.775,0,1,1,1.776-1.776A1.778,1.778,0,0,1,417.545,301.581Zm0-3.433a1.659,1.659,0,1,0,1.657,1.66A1.66,1.66,0,0,0,417.545,298.148Z" transform="translate(-415.77 -298.03)" fill="#774c2f"/>
          </g>
          <g id="Group_10357" data-name="Group 10357" transform="translate(1.859 1.716)">
            <g id="Group_10344" data-name="Group 10344" transform="translate(1.809)">
              <g id="Group_10343" data-name="Group 10343">
                <circle id="Ellipse_6870" data-name="Ellipse 6870" cx="0.247" cy="0.247" r="0.247" fill="#212121"/>
              </g>
            </g>
            <g id="Group_10346" data-name="Group 10346">
              <g id="Group_10345" data-name="Group 10345">
                <circle id="Ellipse_6871" data-name="Ellipse 6871" cx="0.247" cy="0.247" r="0.247" fill="#212121"/>
              </g>
            </g>
            <g id="Group_10348" data-name="Group 10348" transform="translate(0.727 1.919)">
              <g id="Group_10347" data-name="Group 10347">
                <path id="Path_26433" data-name="Path 26433" d="M421.075,312.941h-.265a.383.383,0,0,1-.38-.38h0a.383.383,0,0,1,.38-.38h.265a.383.383,0,0,1,.38.38h0A.381.381,0,0,1,421.075,312.941Z" transform="translate(-420.43 -312.18)" fill="#212121"/>
              </g>
            </g>
            <g id="Group_10351" data-name="Group 10351" transform="translate(1.948 0.033)">
              <g id="Group_10350" data-name="Group 10350">
                <g id="Group_10349" data-name="Group 10349">
                  <path id="Path_26434" data-name="Path 26434" d="M425.386,304.878s-.008-.005-.01-.01l-.023-.015-.026-.01-.031,0a.122.122,0,0,0-.044.008.081.081,0,0,0-.026.013.07.07,0,0,0-.021.018.037.037,0,0,0-.015.023.076.076,0,0,0-.01.041v.013a.1.1,0,0,0,.015.054.147.147,0,0,0,.041.038.119.119,0,0,0,.059.015.1.1,0,0,0,.046-.01.119.119,0,0,0,.039-.023.1.1,0,0,0,.031-.105.061.061,0,0,0-.026-.046Z" transform="translate(-425.18 -304.84)" fill="#fff"/>
                </g>
              </g>
            </g>
            <g id="Group_10354" data-name="Group 10354" transform="translate(0.149 0.026)">
              <g id="Group_10353" data-name="Group 10353">
                <g id="Group_10352" data-name="Group 10352">
                  <path id="Path_26435" data-name="Path 26435" d="M418.386,304.849s-.008-.005-.01-.01l-.023-.015-.026-.01-.031,0a.121.121,0,0,0-.044.008.081.081,0,0,0-.026.013.069.069,0,0,0-.021.018.037.037,0,0,0-.015.023.075.075,0,0,0-.01.041v.013a.1.1,0,0,0,.015.054.146.146,0,0,0,.041.039.119.119,0,0,0,.059.015.1.1,0,0,0,.046-.01.12.12,0,0,0,.039-.023.1.1,0,0,0,.031-.105.093.093,0,0,0-.026-.046Z" transform="translate(-418.18 -304.81)" fill="#fff"/>
                </g>
              </g>
            </g>
            <g id="Group_10356" data-name="Group 10356" transform="translate(1.434 2.115)">
              <g id="Group_10355" data-name="Group 10355">
                <path id="Path_26436" data-name="Path 26436" d="M423.224,313.314a.045.045,0,0,1-.033-.015.044.044,0,0,1,.005-.062.2.2,0,0,0,.031-.231.044.044,0,0,1,.077-.041.283.283,0,0,1-.051.339A.054.054,0,0,1,423.224,313.314Z" transform="translate(-423.181 -312.942)" fill="#fff"/>
              </g>
            </g>
          </g>
        </g>
        <g id="Group_10359" data-name="Group 10359" transform="translate(0.801 6.282)">
          <path id="Path_26437" data-name="Path 26437" d="M417.826,322.649c.275-.141.272,4.867.1,5.411a.393.393,0,0,1-.709.092c-.113-.17.231-2.783-.167-2.811s-2.007.488-2.479.231-.108,2.526-.164,2.636a.549.549,0,0,1-.678.039,25.092,25.092,0,0,1-.128-5.573C413.925,322.251,417.826,322.649,417.826,322.649Z" transform="translate(-413.481 -322.48)" fill="#493022"/>
        </g>
      </g>
    </g>
    <g id="Group_10362" data-name="Group 10362" transform="translate(391.117 230.376)">
      <circle id="Ellipse_6872" data-name="Ellipse 6872" cx="1.459" cy="1.459" r="1.459" transform="translate(0 6.413)" fill="#f6d892" stroke="#636060" stroke-linecap="round" stroke-linejoin="round" stroke-miterlimit="10" stroke-width="0.5"/>
      <path id="Path_26438" data-name="Path 26438" d="M436.364,294.207l5.357-5.013a1.458,1.458,0,0,0,.069-2.061h0a1.458,1.458,0,0,0-2.061-.069l-5.357,5.013a1.458,1.458,0,0,0-.069,2.061h0A1.458,1.458,0,0,0,436.364,294.207Z" transform="translate(-432.662 -286.671)" fill="#44cef5" stroke="#646060" stroke-linecap="round" stroke-linejoin="round" stroke-miterlimit="10" stroke-width="0.5"/>
    </g>
    <g id="Group_10363" data-name="Group 10363" transform="translate(378.001 230.376)">
      <circle id="Ellipse_6873" data-name="Ellipse 6873" cx="1.459" cy="1.459" r="1.459" transform="translate(6.804 6.413)" fill="#f6d892" stroke="#636060" stroke-linecap="round" stroke-linejoin="round" stroke-miterlimit="10" stroke-width="0.5"/>
      <path id="Path_26439" data-name="Path 26439" d="M383.82,294.207l-5.357-5.013a1.458,1.458,0,0,1-.069-2.061h0a1.458,1.458,0,0,1,2.061-.069l5.357,5.013a1.458,1.458,0,0,1,.069,2.061h0A1.458,1.458,0,0,1,383.82,294.207Z" transform="translate(-378.001 -286.671)" fill="#44cef5" stroke="#646060" stroke-linecap="round" stroke-linejoin="round" stroke-miterlimit="10" stroke-width="0.5"/>
    </g>
    <line id="Line_345" data-name="Line 345" x2="4.998" y2="4.466" transform="translate(378.954 232.321)" fill="none" stroke="#fff" stroke-linecap="round" stroke-linejoin="round" stroke-miterlimit="10" stroke-width="0.5"/>
    <line id="Line_346" data-name="Line 346" y2="6.318" transform="translate(380.423 247.193)" fill="none" stroke="#fff" stroke-linecap="round" stroke-linejoin="round" stroke-miterlimit="10" stroke-width="0.5"/>
    <line id="Line_347" data-name="Line 347" x1="0.915" y2="1.922" transform="translate(380.662 243.694)" fill="none" stroke="#fff" stroke-linecap="round" stroke-linejoin="round" stroke-miterlimit="10" stroke-width="0.5"/>
  </g>
</svg>
