<svg id="Logo_Carrefour" data-name="Logo Carrefour" xmlns="http://www.w3.org/2000/svg" width="75" height="99" viewBox="0 0 75 99">
  <g id="Group_20011" data-name="Group 20011" transform="translate(18568 16389)">
    <rect id="Rectangle_9010" data-name="Rectangle 9010" width="75" height="99" rx="37.5" transform="translate(-18568 -16389)" fill="#000225"/>
    <g id="Page-1" transform="translate(-18672.65 -16354.266)">
      <g id="logo-carrefour-2">
        <g id="logo-carrefour">
          <g id="Group_18841" data-name="Group 18841">
            <g id="Logo-francia" transform="translate(119)">
              <g id="Logo">
                <path id="Path" d="M12.842.44.973,12.565a2.646,2.646,0,0,0,0,4.1L12.842,28.784a.307.307,0,0,0,.213.116.21.21,0,0,0,.186-.235l-.1-.235A21.557,21.557,0,0,1,8.323,14.658,21.813,21.813,0,0,1,13.137.794a.355.355,0,0,0,.1-.234.206.206,0,0,0-.186-.234A.307.307,0,0,0,12.842.44Z" fill="#fd0202" fill-rule="evenodd"/>
                <path id="Path-2" data-name="Path" d="M22.658.265c-4.853,0-6.75,6.77-6.75,14.839s1.9,14.752,6.75,14.752c2.915,0,5.4-1.68,5.4-3.06a1.155,1.155,0,0,0-.374-.843,5.311,5.311,0,0,1-1.924-3.781A3.915,3.915,0,0,1,29.5,18.314c2.469,0,3.924,1.909,3.924,4.383a10.161,10.161,0,0,1-2.117,5.859l-.062.2a.2.2,0,0,0,.184.223.337.337,0,0,0,.229-.119l12.4-11.8a2.471,2.471,0,0,0,0-3.992l-12.4-11.8a.354.354,0,0,0-.229-.118.2.2,0,0,0-.184.223l.062.2a10.156,10.156,0,0,1,2.117,5.858c0,2.471-1.455,4.383-3.924,4.383a3.914,3.914,0,0,1-3.734-3.857A5.316,5.316,0,0,1,27.688,4.17a1.155,1.155,0,0,0,.374-.843C28.053,1.945,25.572.265,22.658.265Z" fill="#00529c" fill-rule="evenodd"/>
              </g>
            </g>
          </g>
        </g>
      </g>
    </g>
  </g>
</svg>
