<svg xmlns="http://www.w3.org/2000/svg" width="40" height="44.294" viewBox="0 0 40 44.294">
  <g id="Group_20027" data-name="Group 20027" transform="translate(-398 -503.995)">
    <path id="Path_27441" data-name="Path 27441" d="M376.42,292.2H342.74a2.164,2.164,0,0,1-2.16-2.16v-.16a2.164,2.164,0,0,1,2.16-2.16h33.68a2.164,2.164,0,0,1,2.16,2.16v.16A2.157,2.157,0,0,1,376.42,292.2Z" transform="translate(58.42 255.089)" fill="#353535" stroke="#646060" stroke-miterlimit="10" stroke-width="2"/>
    <path id="Path_27442" data-name="Path 27442" d="M361.83,273.8h-3.72a13.422,13.422,0,0,0-13.42,13.42v.51h30.56v-.51A13.409,13.409,0,0,0,361.83,273.8Z" transform="translate(58.42 255.089)" fill="#8c8c8c" stroke="#646060" stroke-miterlimit="10" stroke-width="2"/>
    <circle id="Ellipse_7033" data-name="Ellipse 7033" cx="1.78" cy="1.78" r="1.78" transform="translate(416.221 525.119)" fill="#8c8c8c" stroke="#646060" stroke-miterlimit="10" stroke-width="2"/>
    <path id="Path_27443" data-name="Path 27443" d="M365.56,277.57c.5.19,6.66.25,7.53,8.42" transform="translate(58.42 255.089)" fill="none" stroke="#fff" stroke-linecap="round" stroke-linejoin="round" stroke-miterlimit="10" stroke-width="2"/>
    <line id="Line_540" data-name="Line 540" x1="18.94" transform="translate(412.869 544.179)" fill="none" stroke="#fff" stroke-linecap="round" stroke-linejoin="round" stroke-miterlimit="10" stroke-width="2"/>
    <path id="Path_27444" data-name="Path 27444" d="M359.58,270.89a.989.989,0,0,1,.57,1.07" transform="translate(58.42 255.089)" fill="none" stroke="#fff" stroke-linecap="round" stroke-linejoin="round" stroke-miterlimit="10" stroke-width="2"/>
    <g id="Group_16355" data-name="Group 16355" transform="translate(431.072 514.515)">
      <path id="Path_27452" data-name="Path 27452" d="M372.979,232.91c0,1.193-1.909,1.193-1.909,2.392s1.909,1.193,1.909,2.392-1.909,1.193-1.909,2.392,1.909,1.193,1.909,2.392-1.909,1.2-1.909,2.392,1.909,1.2,1.909,2.392" transform="translate(-371.07 -232.91)" fill="none" stroke="#646060" stroke-linecap="round" stroke-linejoin="round" stroke-miterlimit="10" stroke-width="1"/>
    </g>
    <g id="Group_16356" data-name="Group 16356" transform="translate(417.47 504.496)">
      <path id="Path_27453" data-name="Path 27453" d="M359.359,232.91c0,1.193-1.909,1.193-1.909,2.392s1.909,1.193,1.909,2.392-1.909,1.193-1.909,2.392,1.909,1.193,1.909,2.392-1.909,1.2-1.909,2.392,1.909,1.2,1.909,2.392" transform="translate(-357.45 -232.91)" fill="none" stroke="#646060" stroke-linecap="round" stroke-linejoin="round" stroke-miterlimit="10" stroke-width="1"/>
    </g>
    <g id="Group_16357" data-name="Group 16357" transform="translate(401.869 514.949)">
      <path id="Path_27454" data-name="Path 27454" d="M345.739,232.91c0,1.193-1.909,1.193-1.909,2.392s1.909,1.193,1.909,2.392-1.909,1.193-1.909,2.392,1.909,1.193,1.909,2.392-1.909,1.2-1.909,2.392,1.909,1.2,1.909,2.392" transform="translate(-343.83 -232.91)" fill="none" stroke="#646060" stroke-linecap="round" stroke-linejoin="round" stroke-miterlimit="10" stroke-width="1"/>
    </g>
  </g>
</svg>
