<svg xmlns="http://www.w3.org/2000/svg" width="16.586" height="41.866" viewBox="0 0 16.586 41.866">
  <g id="Capa_x0020_1" transform="translate(-33.12 -66.161)">
    <g id="_1898388698640" transform="translate(33.22 66.312)">
      <rect id="Rectangle_8994" data-name="Rectangle 8994" width="1.932" height="2.242" transform="translate(6.974 13.909)" fill="#cfa580" stroke="#646060" stroke-miterlimit="22.926" stroke-width="0.2"/>
      <path id="Path_33191" data-name="Path 33191" d="M2600.96,7503.6v10.743a1.817,1.817,0,0,0,1.816,1.816h.138a1.817,1.817,0,0,0,1.816-1.816V7503.6a1.817,1.817,0,0,0-1.816-1.816h-.138A1.817,1.817,0,0,0,2600.96,7503.6Z" transform="translate(-2592.146 -7476.258)" fill="#fff" stroke="#646060" stroke-miterlimit="22.926" stroke-width="0.2"/>
      <path id="Path_33192" data-name="Path 33192" d="M974.81,7503.6v10.743a1.817,1.817,0,0,0,1.816,1.816h.138a1.817,1.817,0,0,0,1.816-1.816V7503.6a1.817,1.817,0,0,0-1.816-1.816h-.138A1.817,1.817,0,0,0,974.81,7503.6Z" transform="translate(-971.578 -7476.258)" fill="#fff" stroke="#646060" stroke-miterlimit="22.926" stroke-width="0.2"/>
      <path id="Path_33193" data-name="Path 33193" d="M1108.175,2669.082c0-.14-.769-.271-.594.693l.007.038c0,.428.182.582.487.557Z" transform="translate(-1103.868 -2660.051)" fill="#cfa580" fill-rule="evenodd"/>
      <path id="Path_33194" data-name="Path 33194" d="M3443.2,2613.493l.113,1.243c.305.053.539-.4.536-.68.03-.494-.222-.737-.429-.786-.173,0-.189.028-.189.028v-.01a.135.135,0,0,0-.03.025Z" transform="translate(-3431.495 -2604.527)" fill="#cfa580" fill-rule="evenodd"/>
      <path id="Path_33195" data-name="Path 33195" d="M1234.992,2071.038c-.325.376-.3,3.287.07,4.543a4.39,4.39,0,0,0,3.479,2.437,5.423,5.423,0,0,0,3.558-2.342,5.5,5.5,0,0,0,.344-3.251c-.222-1.562-.306-1.457-.306-1.457a17.694,17.694,0,0,0-3.5-.337A23.819,23.819,0,0,0,1234.992,2071.038Z" transform="translate(-1230.641 -2063.748)" fill="#edc19c" stroke="#636060" stroke-miterlimit="22.926" stroke-width="0.2" fill-rule="evenodd"/>
      <g id="Group_18766" data-name="Group 18766" transform="translate(13.571 16.316)">
        <path id="Path_33196" data-name="Path 33196" d="M3988.137,4831.7h0a1.411,1.411,0,0,1-1.407-1.407V4819.57h1.407a1.411,1.411,0,0,1,1.407,1.407v9.313A1.411,1.411,0,0,1,3988.137,4831.7Z" transform="translate(-3986.729 -4819.57)" fill="#fff" stroke="#646060" stroke-miterlimit="22.926" stroke-width="0.2" fill-rule="evenodd"/>
        <ellipse id="Ellipse_7667" data-name="Ellipse 7667" cx="1.238" cy="1.255" rx="1.238" ry="1.255" transform="translate(0.265 11.986)" fill="#edc19c" stroke="#646060" stroke-miterlimit="22.926" stroke-width="0.2"/>
      </g>
      <g id="Group_18767" data-name="Group 18767" transform="translate(0 16.265)">
        <path id="Path_33197" data-name="Path 33197" d="M34.627,4816.7h0a1.412,1.412,0,0,1-1.407-1.408v-9.313a1.412,1.412,0,0,1,1.407-1.408h1.407v10.721A1.412,1.412,0,0,1,34.627,4816.7Z" transform="translate(-33.22 -4804.57)" fill="#fff" stroke="#646060" stroke-miterlimit="22.926" stroke-width="0.2" fill-rule="evenodd"/>
        <ellipse id="Ellipse_7668" data-name="Ellipse 7668" cx="1.238" cy="1.255" rx="1.238" ry="1.255" transform="translate(0.265 11.986)" fill="#edc19c" stroke="#646060" stroke-miterlimit="22.926" stroke-width="0.2"/>
      </g>
      <path id="Path_33198" data-name="Path 33198" d="M3337.38,4731.46s1.545.391,1.488.971-.628,6.686-.628,6.686" transform="translate(-3326.038 -4715.446)" fill="none" stroke="#fff" stroke-linecap="round" stroke-linejoin="round" stroke-miterlimit="22.926" stroke-width="0.2"/>
      <circle id="Ellipse_7669" data-name="Ellipse 7669" cx="0.566" cy="0.566" r="0.566" transform="translate(9.369 8.607)" fill="#444"/>
      <circle id="Ellipse_7670" data-name="Ellipse 7670" cx="0.566" cy="0.566" r="0.566" transform="translate(5.41 8.607)" fill="#444"/>
      <circle id="Ellipse_7671" data-name="Ellipse 7671" cx="0.566" cy="0.566" r="0.566" transform="translate(9.369 8.607)" fill="#444"/>
      <circle id="Ellipse_7672" data-name="Ellipse 7672" cx="0.251" cy="0.251" r="0.251" transform="translate(9.837 8.864)" fill="#fff" stroke="#fff" stroke-miterlimit="22.926" stroke-width="0.2"/>
      <circle id="Ellipse_7673" data-name="Ellipse 7673" cx="0.251" cy="0.251" r="0.251" transform="translate(5.894 8.844)" fill="#fff" stroke="#fff" stroke-miterlimit="22.926" stroke-width="0.2"/>
      <path id="Path_33199" data-name="Path 33199" d="M440.741,4451.112c7.722.046,6.426,3.253,6.426,7.319s-2.221,7.4-6.426,7.4-6.822-3.381-6.822-7.447S433.019,4451.066,440.741,4451.112Z" transform="translate(-432.512 -4436.061)" fill="#fff" stroke="#646060" stroke-miterlimit="22.926" stroke-width="0.2" fill-rule="evenodd"/>
      <path id="Path_33200" data-name="Path 33200" d="M2603.844,11329.791h-.776a1.429,1.429,0,0,1-1.428-1.428v-.107a1.429,1.429,0,0,1,1.428-1.428h.776a1.43,1.43,0,0,1,1.428,1.428v.107A1.427,1.427,0,0,1,2603.844,11329.791Z" transform="translate(-2592.823 -11288.175)" fill="#353535" stroke="#646060" stroke-miterlimit="22.926" stroke-width="0.2"/>
      <path id="Path_33201" data-name="Path 33201" d="M997.114,11329.791h-.776a1.429,1.429,0,0,1-1.428-1.428v-.107a1.429,1.429,0,0,1,1.428-1.428h.776a1.429,1.429,0,0,1,1.428,1.428v.107A1.427,1.427,0,0,1,997.114,11329.791Z" transform="translate(-991.609 -11288.175)" fill="#353535" stroke="#646060" stroke-miterlimit="22.926" stroke-width="0.2"/>
      <line id="Line_1187" data-name="Line 1187" y2="4.794" transform="translate(11.82 32.569)" fill="none" stroke="#fff" stroke-linecap="round" stroke-linejoin="round" stroke-miterlimit="22.926" stroke-width="0.2"/>
      <line id="Line_1188" data-name="Line 1188" y2="4.794" transform="translate(6.143 32.569)" fill="none" stroke="#fff" stroke-linecap="round" stroke-linejoin="round" stroke-miterlimit="22.926" stroke-width="0.2"/>
      <path id="Path_33202" data-name="Path 33202" d="M3409.49,11583.39a1.19,1.19,0,0,1,0,1.1" transform="translate(-3397.901 -11543.856)" fill="none" stroke="#fff" stroke-linecap="round" stroke-linejoin="round" stroke-miterlimit="22.926" stroke-width="0.2"/>
      <path id="Path_33203" data-name="Path 33203" d="M1811.11,11583.39a1.19,1.19,0,0,1,0,1.1" transform="translate(-1805.007 -11543.856)" fill="none" stroke="#fff" stroke-linecap="round" stroke-linejoin="round" stroke-miterlimit="22.926" stroke-width="0.2"/>
      <path id="Path_33204" data-name="Path 33204" d="M4350.08,5111.89c1.078,0,1.015.042,1.015,3.888" transform="translate(-4335.262 -5094.571)" fill="none" stroke="#fff" stroke-linecap="round" stroke-miterlimit="22.926" stroke-width="0.2" fill-rule="evenodd"/>
      <path id="Path_33205" data-name="Path 33205" d="M175.263,5111.89c-1.078,0-1.015.042-1.015,3.888" transform="translate(-173.763 -5094.571)" fill="none" stroke="#fff" stroke-linecap="round" stroke-miterlimit="22.926" stroke-width="0.2" fill-rule="evenodd"/>
      <path id="Path_33206" data-name="Path 33206" d="M206.53,8736.482s.239.725.889.725,1.015-.747,1.015-.747" transform="translate(-205.935 -8706.698)" fill="none" stroke="#fff" stroke-linecap="round" stroke-miterlimit="22.926" stroke-width="0.2" fill-rule="evenodd"/>
      <path id="Path_33207" data-name="Path 33207" d="M4147.35,8736.482s.24.725.889.725,1.015-.747,1.015-.747" transform="translate(-4133.228 -8706.698)" fill="none" stroke="#fff" stroke-linecap="round" stroke-miterlimit="22.926" stroke-width="0.2" fill-rule="evenodd"/>
      <path id="Path_33208" data-name="Path 33208" d="M2327.836,4445s-.03.442.09.456c.655.072,2.8.432,3.1,2.09.365,1.961.18,11.491.18,11.491" transform="translate(-2319.957 -4429.97)" fill="none" stroke="#646060" stroke-miterlimit="22.926" stroke-width="0.2" fill-rule="evenodd"/>
      <path id="Path_33209" data-name="Path 33209" d="M1212.42,1165.677c-.189-3.907,2.952-3.145,4.113-3.158,2.275-.025,3.469,2.182,3.566,2.249,0,0,.2-2.675-.557-3.961a.679.679,0,0,0,.151-.677c-.124-.418-.376.186-.973.14S1211.427,1155.092,1212.42,1165.677Z" transform="translate(-1208.272 -1155.235)" fill="#471900" stroke="#5a5954" stroke-miterlimit="22.926" stroke-width="0.2"/>
      <g id="Group_18768" data-name="Group 18768" transform="translate(6.137 11.364)">
        <path id="Path_33210" data-name="Path 33210" d="M1821.144,3377.037s-.1.324.83.373.856-.147.867-.264-.053-.441-.453-.287S1821.434,3377.41,1821.144,3377.037Z" transform="translate(-1821.141 -3376.819)" fill="#471900" fill-rule="evenodd"/>
        <path id="Path_33211" data-name="Path 33211" d="M2339.574,3377.037s.1.324-.83.373-.856-.147-.867-.264.052-.441.452-.287S2339.283,3377.41,2339.574,3377.037Z" transform="translate(-2336.102 -3376.819)" fill="#471900" fill-rule="evenodd"/>
      </g>
      <g id="Group_18771" data-name="Group 18771" transform="translate(2.29 0)">
        <path id="Path_33212" data-name="Path 33212" d="M706.174,67.516s-1.317-1.861-3.112-.955a2.361,2.361,0,0,0-1.482,2.47,1.608,1.608,0,0,0-1.087,1.91,1.806,1.806,0,0,0,1.63,1.482l.021,1.822a13.31,13.31,0,0,1,4.035-.725,15.287,15.287,0,0,1,4,.741l.012-1.987a1.4,1.4,0,0,0,1.564-1.1c.4-1.309-1.087-1.779-1.087-1.779a2.178,2.178,0,0,0-1.3-2.2,3.923,3.923,0,0,0-3.195.313Z" transform="translate(-700.439 -66.312)" fill="#fff" stroke="#636060" stroke-miterlimit="22.926" stroke-width="0.2" fill-rule="evenodd"/>
        <g id="Group_18770" data-name="Group 18770" transform="translate(0 0)">
          <g id="Group_18769" data-name="Group 18769">
            <path id="Path_33213" data-name="Path 33213" d="M702.156,71.435a9.358,9.358,0,0,1,3.973-.766l.046-3.154s-1.317-1.861-3.112-.955a2.361,2.361,0,0,0-1.482,2.47,1.608,1.608,0,0,0-1.087,1.91,1.806,1.806,0,0,0,1.63,1.482Z" transform="translate(-700.439 -66.312)" fill="#fff" fill-rule="evenodd"/>
            <path id="Path_33214" data-name="Path 33214" d="M1195.086,1331.986a9.357,9.357,0,0,0-3.973.765l-.033.988.021,1.822a13.312,13.312,0,0,1,4.035-.725l-.05-2.851Z" transform="translate(-1189.396 -1327.628)" fill="#e6e6e6" fill-rule="evenodd"/>
            <path id="Path_33215" data-name="Path 33215" d="M2358.01,1335.82l.05,2.851a15.292,15.292,0,0,1,4,.741l.012-1.986-.013-.848a20.229,20.229,0,0,0-4.051-.757Z" transform="translate(-2352.32 -1331.462)" fill="#ccc" fill-rule="evenodd"/>
            <path id="Path_33216" data-name="Path 33216" d="M2358.01,260.765a20.234,20.234,0,0,1,4.051.758l.013.848a1.4,1.4,0,0,0,1.564-1.1c.4-1.309-1.087-1.779-1.087-1.779a2.178,2.178,0,0,0-1.3-2.2,3.923,3.923,0,0,0-3.195.313Z" transform="translate(-2352.32 -256.407)" fill="#e6e6e6" fill-rule="evenodd"/>
          </g>
        </g>
      </g>
      <g id="Group_18774" data-name="Group 18774" transform="translate(6.442 18.211)">
        <g id="Group_18772" data-name="Group 18772">
          <circle id="Ellipse_7674" data-name="Ellipse 7674" cx="0.44" cy="0.44" r="0.44" fill="#d9171d"/>
          <circle id="Ellipse_7675" data-name="Ellipse 7675" cx="0.44" cy="0.44" r="0.44" transform="translate(0.01 2.647)" fill="#d9171d"/>
          <circle id="Ellipse_7676" data-name="Ellipse 7676" cx="0.44" cy="0.44" r="0.44" transform="translate(0 5.62)" fill="#d9171d"/>
          <circle id="Ellipse_7677" data-name="Ellipse 7677" cx="0.44" cy="0.44" r="0.44" transform="translate(0 8.207)" fill="#d9171d"/>
        </g>
        <g id="Group_18773" data-name="Group 18773" transform="translate(2.248 0.01)">
          <circle id="Ellipse_7678" data-name="Ellipse 7678" cx="0.44" cy="0.44" r="0.44" fill="#d9171d"/>
          <circle id="Ellipse_7679" data-name="Ellipse 7679" cx="0.44" cy="0.44" r="0.44" transform="translate(0.01 2.647)" fill="#d9171d"/>
          <circle id="Ellipse_7680" data-name="Ellipse 7680" cx="0.44" cy="0.44" r="0.44" transform="translate(0 5.62)" fill="#d9171d"/>
          <circle id="Ellipse_7681" data-name="Ellipse 7681" cx="0.44" cy="0.44" r="0.44" transform="translate(0 8.207)" fill="#d9171d"/>
        </g>
      </g>
      <g id="Group_18775" data-name="Group 18775" transform="translate(6.736 14.73)">
        <path id="Path_33217" data-name="Path 33217" d="M2211.252,4365.472c-.042.063-.285.144-.246.428a.418.418,0,0,0,.351.322.573.573,0,0,0,.292-.031.364.364,0,0,0,.144-.616c-.154-.132-.236-.132-.473-.121Z" transform="translate(-2210.263 -4365.421)" fill="#e92427" fill-rule="evenodd"/>
        <path id="Path_33218" data-name="Path 33218" d="M2264.09,4546.345l0,.028c.028.039.064.133.093.186a.719.719,0,0,0,.056.089c.033.048.032.035.041.083.238.144.356,1.076.4,1.312a2.665,2.665,0,0,0,.214-.693,1,1,0,0,0-.125-.766c.056.025.17.115.24.16a2.681,2.681,0,0,0,.859.377,3.352,3.352,0,0,0-.232-.41c-.045-.049-.1-.11-.139-.165s-.1-.1-.144-.161a1.7,1.7,0,0,1-.18-.143,1.887,1.887,0,0,1-.193-.143l-.194.031c.017.032,0,0,.021.027l.017.015c.052.045.289.19.242.286-.106.14-.433-.157-.527-.145-.025.051,0,.1.019.156a1.593,1.593,0,0,1,.084.47c-.081-.015-.074-.047-.145-.151C2264.266,4546.447,2264.375,4546.385,2264.09,4546.345Z" transform="translate(-2263.168 -4545.453)" fill="#e92427" fill-rule="evenodd"/>
        <path id="Path_33219" data-name="Path 33219" d="M2175.547,4357.8a.364.364,0,0,1-.144.616.573.573,0,0,1-.292.031.418.418,0,0,1-.351-.321c-.039-.285.2-.365.246-.428a1.476,1.476,0,0,0-.242.111.955.955,0,0,0-.115.215.387.387,0,0,0,.032.3,1.043,1.043,0,0,0,.111.124,1.316,1.316,0,0,0,.146.093c.285.04.176.1.412.445.071.1.064.135.145.151a1.585,1.585,0,0,0-.084-.47c-.016-.055-.044-.106-.019-.157.094-.012.421.284.527.145.05-.1-.2-.239-.259-.3-.025-.026,0,.006-.021-.027l.194-.032a3.812,3.812,0,0,0,.575-.124,1.155,1.155,0,0,1-.135-.523A2.248,2.248,0,0,1,2175.547,4357.8Z" transform="translate(-2174.016 -4357.65)" fill="#ae1d1d" fill-rule="evenodd"/>
        <path id="Path_33220" data-name="Path 33220" d="M1995.53,4370.833c.034.008.066.014.1.019l.567.1a.385.385,0,0,1-.032-.3.964.964,0,0,1,.115-.215c-.213-.058-.333-.06-.569-.119A1.128,1.128,0,0,1,1995.53,4370.833Z" transform="translate(-1995.53 -4370.277)" fill="#e92427" fill-rule="evenodd"/>
      </g>
      <path id="Path_33221" data-name="Path 33221" d="M1917.99,3684.019c.4.73,2.473.86,2.861-.148" transform="translate(-1911.52 -3671.452)" fill="none" stroke="#646060" stroke-linecap="round" stroke-miterlimit="22.926" stroke-width="0.2" fill-rule="evenodd"/>
      <line id="Line_1189" data-name="Line 1189" y1="9.693" transform="translate(0.614 17.51)" fill="none" stroke="#646060" stroke-linecap="round" stroke-miterlimit="22.926" stroke-width="0.2"/>
      <line id="Line_1190" data-name="Line 1190" y2="7.663" transform="translate(6.216 30.283)" fill="none" stroke="#5a5954" stroke-miterlimit="22.926" stroke-width="0.2"/>
      <line id="Line_1191" data-name="Line 1191" y2="7.663" transform="translate(11.991 30.283)" fill="none" stroke="#5a5954" stroke-miterlimit="22.926" stroke-width="0.2"/>
      <line id="Line_1192" data-name="Line 1192" y1="9.693" transform="translate(15.816 17.476)" fill="none" stroke="#646060" stroke-linecap="round" stroke-miterlimit="22.926" stroke-width="0.2"/>
    </g>
  </g>
</svg>
