<svg id="Heavy-L" xmlns="http://www.w3.org/2000/svg" width="18.754" height="18.754" viewBox="0 0 18.754 18.754">
  <path id="Path_33129" data-name="Path 33129" d="M20.653-83.492a9.417,9.417,0,0,0,9.38-9.374,9.423,9.423,0,0,0-9.38-9.38,9.412,9.412,0,0,0-9.374,9.38A9.415,9.415,0,0,0,20.653-83.492Zm0-2.487a6.875,6.875,0,0,1-6.887-6.887,6.873,6.873,0,0,1,6.887-6.894,6.887,6.887,0,0,1,6.894,6.894A6.877,6.877,0,0,1,20.653-85.979Zm-4.1-5.466h4.1a.892.892,0,0,0,.9-.9V-97.73a.892.892,0,0,0-.9-.9.892.892,0,0,0-.9.9v4.489h-3.2a.889.889,0,0,0-.9.895A.891.891,0,0,0,16.554-91.445Z" transform="translate(-11.279 102.246)" fill="#5c5c5c"/>
</svg>
