<svg xmlns="http://www.w3.org/2000/svg" width="15.995" height="15.937" viewBox="0 0 15.995 15.937">
  <path id="Path_33049" data-name="Path 33049" d="M29.174-55.258a1.821,1.821,0,0,0,1.379-.575l4.693-4.693,4.693,4.693a1.937,1.937,0,0,0,1.4.575,1.881,1.881,0,0,0,1.9-1.916,1.8,1.8,0,0,0-.575-1.341l-4.693-4.712,4.712-4.751a1.745,1.745,0,0,0,.575-1.3,1.893,1.893,0,0,0-1.9-1.916,1.81,1.81,0,0,0-1.379.575l-4.731,4.712L30.534-70.6a1.764,1.764,0,0,0-1.36-.555,1.865,1.865,0,0,0-1.916,1.877,1.827,1.827,0,0,0,.575,1.322l4.712,4.731L27.833-58.5a1.827,1.827,0,0,0-.575,1.322A1.9,1.9,0,0,0,29.174-55.258Z" transform="translate(-27.258 71.195)" fill="#fff"/>
</svg>
