<svg xmlns="http://www.w3.org/2000/svg" width="44.899" height="34.716" viewBox="0 0 44.899 34.716">
  <g id="utiles" transform="translate(-336.589 -242.44)">
    <g id="Group_18282" data-name="Group 18282" transform="translate(368.389 261.977)">
      <path id="Path_32524" data-name="Path 32524" d="M483.15,319.833s.807-3.031,2.872-3.51,1.924-.773,1.924-.773S486.52,320.99,483.15,319.833Z" transform="translate(-475.966 -315.55)" fill="#000929" stroke="#636060" stroke-linecap="round" stroke-linejoin="round" stroke-miterlimit="10" stroke-width="0.5"/>
      <rect id="Rectangle_8963" data-name="Rectangle 8963" width="1.485" height="11.248" transform="translate(1.097 12.715) rotate(-137.63)" fill="#a57b3d" stroke="#636060" stroke-linecap="round" stroke-linejoin="round" stroke-miterlimit="10" stroke-width="0.5"/>
    </g>
    <g id="Group_18283" data-name="Group 18283" transform="translate(367.015 250.986)">
      <path id="Path_32525" data-name="Path 32525" d="M453.4,297.735l-2.584-.667,5.331-20.667.612-2.372,2.584.667Z" transform="translate(-450.82 -274.03)" fill="#d6d6d6" stroke="#636060" stroke-linecap="round" stroke-linejoin="round" stroke-miterlimit="10" stroke-width="0.5"/>
      <line id="Line_1151" data-name="Line 1151" x1="1.231" y1="0.318" transform="translate(5.601 1.324)" fill="#d6d6d6" stroke="#636060" stroke-linecap="round" stroke-linejoin="round" stroke-miterlimit="10" stroke-width="0.5"/>
      <line id="Line_1152" data-name="Line 1152" x1="1.231" y1="0.318" transform="translate(5.162 3.028)" fill="#d6d6d6" stroke="#636060" stroke-linecap="round" stroke-linejoin="round" stroke-miterlimit="10" stroke-width="0.5"/>
      <line id="Line_1153" data-name="Line 1153" x1="1.231" y1="0.318" transform="translate(4.723 4.733)" fill="#d6d6d6" stroke="#636060" stroke-linecap="round" stroke-linejoin="round" stroke-miterlimit="10" stroke-width="0.5"/>
      <line id="Line_1154" data-name="Line 1154" x1="1.231" y1="0.318" transform="translate(4.283 6.438)" fill="#d6d6d6" stroke="#636060" stroke-linecap="round" stroke-linejoin="round" stroke-miterlimit="10" stroke-width="0.5"/>
      <line id="Line_1155" data-name="Line 1155" x1="1.228" y1="0.318" transform="translate(3.844 8.14)" fill="#d6d6d6" stroke="#636060" stroke-linecap="round" stroke-linejoin="round" stroke-miterlimit="10" stroke-width="0.5"/>
      <line id="Line_1156" data-name="Line 1156" x1="1.228" y1="0.318" transform="translate(3.404 9.845)" fill="#d6d6d6" stroke="#636060" stroke-linecap="round" stroke-linejoin="round" stroke-miterlimit="10" stroke-width="0.5"/>
      <line id="Line_1157" data-name="Line 1157" x1="1.231" y1="0.318" transform="translate(2.962 11.55)" fill="#d6d6d6" stroke="#636060" stroke-linecap="round" stroke-linejoin="round" stroke-miterlimit="10" stroke-width="0.5"/>
      <line id="Line_1158" data-name="Line 1158" x1="1.231" y1="0.318" transform="translate(2.523 13.254)" fill="#d6d6d6" stroke="#636060" stroke-linecap="round" stroke-linejoin="round" stroke-miterlimit="10" stroke-width="0.5"/>
      <line id="Line_1159" data-name="Line 1159" x1="1.231" y1="0.318" transform="translate(2.083 14.959)" fill="#d6d6d6" stroke="#636060" stroke-linecap="round" stroke-linejoin="round" stroke-miterlimit="10" stroke-width="0.5"/>
      <line id="Line_1160" data-name="Line 1160" x1="1.231" y1="0.318" transform="translate(1.644 16.664)" fill="#d6d6d6" stroke="#636060" stroke-linecap="round" stroke-linejoin="round" stroke-miterlimit="10" stroke-width="0.5"/>
      <line id="Line_1161" data-name="Line 1161" x1="1.231" y1="0.318" transform="translate(1.204 18.369)" fill="#d6d6d6" stroke="#636060" stroke-linecap="round" stroke-linejoin="round" stroke-miterlimit="10" stroke-width="0.5"/>
      <line id="Line_1162" data-name="Line 1162" x1="1.231" y1="0.315" transform="translate(0.765 20.074)" fill="#d6d6d6" stroke="#636060" stroke-linecap="round" stroke-linejoin="round" stroke-miterlimit="10" stroke-width="0.5"/>
    </g>
    <g id="Group_18284" data-name="Group 18284" transform="translate(346.091 242.69)">
      <path id="Path_32526" data-name="Path 32526" d="M404.725,242.69a3.605,3.605,0,1,0,3.605,3.605A3.606,3.606,0,0,0,404.725,242.69Zm0,5.58A1.975,1.975,0,1,1,406.7,246.3,1.975,1.975,0,0,1,404.725,248.27Z" transform="translate(-393.353 -242.69)" fill="#000929" stroke="#636060" stroke-linecap="round" stroke-linejoin="round" stroke-miterlimit="10" stroke-width="0.5"/>
      <path id="Path_32527" data-name="Path 32527" d="M436.929,252.555h0a1.549,1.549,0,0,1-1.549-1.549V246.1a1.549,1.549,0,0,1,1.549-1.549h0a1.549,1.549,0,0,1,1.549,1.549v4.908A1.549,1.549,0,0,1,436.929,252.555Z" transform="translate(-418.544 -244.058)" fill="#d6d6d6" stroke="#636060" stroke-linecap="round" stroke-linejoin="round" stroke-miterlimit="10" stroke-width="0.5"/>
      <path id="Path_32528" data-name="Path 32528" d="M383.979,252.555h0a1.549,1.549,0,0,1-1.549-1.549V246.1a1.549,1.549,0,0,1,1.549-1.549h0a1.549,1.549,0,0,1,1.549,1.549v4.908A1.549,1.549,0,0,1,383.979,252.555Z" transform="translate(-379.611 -244.058)" fill="#d6d6d6" stroke="#636060" stroke-linecap="round" stroke-linejoin="round" stroke-miterlimit="10" stroke-width="0.5"/>
      <path id="Path_32529" data-name="Path 32529" d="M394.525,284.836H371.78V262.663a6.355,6.355,0,0,1,6.353-6.353h10.038a6.355,6.355,0,0,1,6.353,6.353Z" transform="translate(-371.78 -252.705)" fill="#abe236" stroke="#636060" stroke-linecap="round" stroke-linejoin="round" stroke-miterlimit="10" stroke-width="0.5"/>
      <path id="Path_32530" data-name="Path 32530" d="M394.525,321.982H371.78v-8.8a6.355,6.355,0,0,1,6.353-6.353h10.038a6.355,6.355,0,0,1,6.353,6.353Z" transform="translate(-371.78 -289.851)" fill="#f3d854" stroke="#636060" stroke-linecap="round" stroke-linejoin="round" stroke-miterlimit="10" stroke-width="0.5"/>
      <path id="Path_32531" data-name="Path 32531" d="M377.3,317.565a4.781,4.781,0,0,1,4.453-3.812c3.743-.127,10.922,0,10.922,0a3.961,3.961,0,0,1,3.748,3.812" transform="translate(-375.839 -294.9)" fill="none" stroke="#636060" stroke-linecap="round" stroke-linejoin="round" stroke-miterlimit="10" stroke-width="0.5"/>
      <path id="Path_32532" data-name="Path 32532" d="M377.3,266.615a4.781,4.781,0,0,1,4.453-3.812c3.743-.127,10.922,0,10.922,0a3.961,3.961,0,0,1,3.748,3.812" transform="translate(-375.839 -257.437)" fill="#abe236" stroke="#636060" stroke-linecap="round" stroke-linejoin="round" stroke-miterlimit="10" stroke-width="0.5"/>
      <ellipse id="Ellipse_7640" data-name="Ellipse 7640" cx="0.691" cy="1.255" rx="0.691" ry="1.255" transform="translate(19.933 8.879)" fill="#d6d6d6" stroke="#636060" stroke-linecap="round" stroke-linejoin="round" stroke-miterlimit="10" stroke-width="0.5"/>
      <ellipse id="Ellipse_7641" data-name="Ellipse 7641" cx="0.691" cy="1.255" rx="0.691" ry="1.255" transform="translate(19.933 22.125)" fill="#d6d6d6" stroke="#636060" stroke-linecap="round" stroke-linejoin="round" stroke-miterlimit="10" stroke-width="0.5"/>
      <path id="Path_32533" data-name="Path 32533" d="M401.244,279.6H390.507a1.207,1.207,0,0,1-1.207-1.207v-.953a1.207,1.207,0,0,1,1.207-1.207h10.737a1.207,1.207,0,0,1,1.207,1.207v.953A1.207,1.207,0,0,1,401.244,279.6Z" transform="translate(-384.662 -267.351)" fill="#000929" stroke="#636060" stroke-linecap="round" stroke-linejoin="round" stroke-miterlimit="10" stroke-width="0.5"/>
      <line id="Line_1163" data-name="Line 1163" y2="4.876" transform="translate(1.461 11.388)" fill="none" stroke="#fff" stroke-linecap="round" stroke-linejoin="round" stroke-miterlimit="10" stroke-width="0.5"/>
      <line id="Line_1164" data-name="Line 1164" y2="4.876" transform="translate(1.461 24.968)" fill="none" stroke="#fff" stroke-linecap="round" stroke-linejoin="round" stroke-miterlimit="10" stroke-width="0.5"/>
      <line id="Line_1165" data-name="Line 1165" x2="9.911" transform="translate(6.38 10.133)" fill="none" stroke="#fff" stroke-linecap="round" stroke-linejoin="round" stroke-miterlimit="10" stroke-width="0.5"/>
    </g>
    <g id="Group_18287" data-name="Group 18287" transform="translate(336.843 260.721)">
      <path id="Path_32534" data-name="Path 32534" d="M349.856,324.485,342,326.923a1.315,1.315,0,0,1-1.649-.868l-3.447-11.1a1.315,1.315,0,0,1,.868-1.649l7.857-2.438a1.315,1.315,0,0,1,1.649.868l3.447,11.1A1.321,1.321,0,0,1,349.856,324.485Z" transform="translate(-336.843 -310.803)" fill="#000929" stroke="#636060" stroke-linecap="round" stroke-linejoin="round" stroke-miterlimit="10" stroke-width="0.5"/>
      <rect id="Rectangle_8964" data-name="Rectangle 8964" width="7.529" height="2.859" transform="matrix(0.955, -0.296, 0.296, 0.955, 1.903, 3.671)" fill="#d6d6d6" stroke="#636060" stroke-linecap="round" stroke-linejoin="round" stroke-miterlimit="10" stroke-width="0.5"/>
      <line id="Line_1166" data-name="Line 1166" x2="3.219" y2="10.374" transform="translate(1.169 4.354)" fill="none" stroke="#fff" stroke-linecap="round" stroke-linejoin="round" stroke-miterlimit="10" stroke-width="0.5"/>
      <path id="Path_32535" data-name="Path 32535" d="M379.248,349.612l-.053.016a.543.543,0,0,1-.68-.357l-.564-1.813a.543.543,0,0,1,.357-.68l.053-.016a.543.543,0,0,1,.68.357l.564,1.813A.542.542,0,0,1,379.248,349.612Z" transform="translate(-367.05 -337.224)" fill="#d8014c"/>
      <g id="Group_18285" data-name="Group 18285" transform="translate(3.441 5.768)">
        <path id="Path_32536" data-name="Path 32536" d="M350.82,340.917l-.524.161a.226.226,0,0,1-.283-.148l-.161-.524a.226.226,0,0,1,.148-.283l.524-.161a.226.226,0,0,1,.283.148l.161.524A.226.226,0,0,1,350.82,340.917Z" transform="translate(-349.841 -338.003)" fill="#44cef5"/>
        <path id="Path_32537" data-name="Path 32537" d="M356.75,339.077l-.524.161a.226.226,0,0,1-.283-.148l-.161-.524a.226.226,0,0,1,.148-.283l.524-.161a.226.226,0,0,1,.283.148l.161.524A.224.224,0,0,1,356.75,339.077Z" transform="translate(-354.201 -336.65)" fill="#44cef5"/>
        <path id="Path_32538" data-name="Path 32538" d="M362.68,337.237l-.524.161a.226.226,0,0,1-.283-.148l-.161-.524a.226.226,0,0,1,.148-.283l.524-.161a.226.226,0,0,1,.283.148l.161.524A.224.224,0,0,1,362.68,337.237Z" transform="translate(-358.562 -335.297)" fill="#44cef5"/>
        <path id="Path_32539" data-name="Path 32539" d="M368.61,335.4l-.524.161a.226.226,0,0,1-.283-.148l-.161-.524a.226.226,0,0,1,.148-.283l.524-.161a.226.226,0,0,1,.283.148l.161.524A.222.222,0,0,1,368.61,335.4Z" transform="translate(-362.922 -333.944)" fill="#44cef5"/>
        <path id="Path_32540" data-name="Path 32540" d="M374.54,333.557l-.524.161a.226.226,0,0,1-.283-.148l-.161-.524a.226.226,0,0,1,.148-.283l.524-.161a.226.226,0,0,1,.283.148l.161.524A.222.222,0,0,1,374.54,333.557Z" transform="translate(-367.282 -332.591)" fill="#44cef5"/>
      </g>
      <g id="Group_18286" data-name="Group 18286" transform="translate(4.013 7.61)">
        <path id="Path_32541" data-name="Path 32541" d="M352.98,347.877l-.524.161a.226.226,0,0,1-.283-.148l-.161-.524a.226.226,0,0,1,.148-.283l.524-.161a.226.226,0,0,1,.283.148l.161.524A.224.224,0,0,1,352.98,347.877Z" transform="translate(-352.001 -344.963)" fill="#44cef5"/>
        <path id="Path_32542" data-name="Path 32542" d="M358.91,346.037l-.524.161a.226.226,0,0,1-.283-.148l-.161-.524a.226.226,0,0,1,.148-.283l.524-.161a.226.226,0,0,1,.283.148l.161.524A.224.224,0,0,1,358.91,346.037Z" transform="translate(-356.361 -343.61)" fill="#44cef5"/>
        <path id="Path_32543" data-name="Path 32543" d="M364.84,344.2l-.524.161a.226.226,0,0,1-.283-.148l-.161-.524a.226.226,0,0,1,.148-.283l.524-.161a.226.226,0,0,1,.283.148l.161.524A.222.222,0,0,1,364.84,344.2Z" transform="translate(-360.722 -342.257)" fill="#44cef5"/>
        <path id="Path_32544" data-name="Path 32544" d="M370.78,342.357l-.524.161a.226.226,0,0,1-.283-.148l-.161-.524a.226.226,0,0,1,.148-.283l.524-.161a.226.226,0,0,1,.283.148l.161.524A.226.226,0,0,1,370.78,342.357Z" transform="translate(-365.089 -340.904)" fill="#44cef5"/>
        <path id="Path_32545" data-name="Path 32545" d="M376.71,340.517l-.524.161a.226.226,0,0,1-.283-.148l-.161-.524a.226.226,0,0,1,.148-.283l.524-.161a.226.226,0,0,1,.283.148l.161.524A.226.226,0,0,1,376.71,340.517Z" transform="translate(-369.449 -339.551)" fill="#44cef5"/>
      </g>
      <path id="Path_32546" data-name="Path 32546" d="M355.14,354.847l-.524.161a.226.226,0,0,1-.283-.148l-.161-.524a.226.226,0,0,1,.148-.283l.524-.161a.226.226,0,0,1,.283.148l.161.524A.222.222,0,0,1,355.14,354.847Z" transform="translate(-349.577 -342.478)" fill="#44cef5"/>
      <path id="Path_32547" data-name="Path 32547" d="M361.08,353l-.524.161a.226.226,0,0,1-.283-.148l-.161-.524a.226.226,0,0,1,.148-.283l.524-.161a.226.226,0,0,1,.283.148l.161.524A.225.225,0,0,1,361.08,353Z" transform="translate(-353.944 -341.117)" fill="#44cef5"/>
      <path id="Path_32548" data-name="Path 32548" d="M367.01,351.157l-.524.161a.226.226,0,0,1-.283-.148l-.161-.524a.226.226,0,0,1,.148-.283l.524-.161a.226.226,0,0,1,.283.148l.161.524A.226.226,0,0,1,367.01,351.157Z" transform="translate(-358.304 -339.764)" fill="#44cef5"/>
      <path id="Path_32549" data-name="Path 32549" d="M372.94,349.317l-.524.161a.226.226,0,0,1-.283-.148l-.161-.524a.226.226,0,0,1,.148-.283l.524-.161a.226.226,0,0,1,.283.148l.161.524A.226.226,0,0,1,372.94,349.317Z" transform="translate(-362.665 -338.411)" fill="#44cef5"/>
      <path id="Path_32550" data-name="Path 32550" d="M357.31,361.807l-.524.161a.226.226,0,0,1-.283-.148l-.161-.524a.226.226,0,0,1,.148-.283l.524-.161a.226.226,0,0,1,.283.148l.161.524A.226.226,0,0,1,357.31,361.807Z" transform="translate(-351.172 -347.595)" fill="#44cef5"/>
      <path id="Path_32551" data-name="Path 32551" d="M363.24,359.967l-.524.161a.226.226,0,0,1-.283-.148l-.161-.524a.226.226,0,0,1,.148-.283l.524-.161a.226.226,0,0,1,.283.148l.161.524A.226.226,0,0,1,363.24,359.967Z" transform="translate(-355.532 -346.242)" fill="#44cef5"/>
      <path id="Path_32552" data-name="Path 32552" d="M369.17,358.127l-.524.161a.226.226,0,0,1-.283-.148l-.161-.524a.226.226,0,0,1,.148-.283l.524-.161a.226.226,0,0,1,.283.148l.161.524A.226.226,0,0,1,369.17,358.127Z" transform="translate(-359.893 -344.889)" fill="#44cef5"/>
      <path id="Path_32553" data-name="Path 32553" d="M375.1,356.277l-.524.161a.226.226,0,0,1-.283-.148l-.161-.524a.226.226,0,0,1,.148-.283l.524-.161a.226.226,0,0,1,.283.148l.161.524A.225.225,0,0,1,375.1,356.277Z" transform="translate(-364.253 -343.529)" fill="#44cef5"/>
      <line id="Line_1167" data-name="Line 1167" y1="1.549" x2="4.982" transform="translate(3.247 2.66)" fill="none" stroke="#fff" stroke-linecap="round" stroke-linejoin="round" stroke-miterlimit="10" stroke-width="0.5"/>
    </g>
    <g id="Group_18288" data-name="Group 18288" transform="translate(368.386 268.828)">
      <rect id="Rectangle_8965" data-name="Rectangle 8965" width="1.485" height="10.8" transform="translate(2.14 6.132) rotate(-113.997)" fill="#f3d854" stroke="#636060" stroke-linecap="round" stroke-linejoin="round" stroke-miterlimit="10" stroke-width="0.5"/>
      <path id="Path_32554" data-name="Path 32554" d="M457.827,359.814l-.352-.794-.739.8-.736.8,1.091-.008,1.091-.011Z" transform="translate(-456 -354.364)" fill="#f3d854" stroke="#636060" stroke-linecap="round" stroke-linejoin="round" stroke-miterlimit="10" stroke-width="0.5"/>
      <path id="Path_32555" data-name="Path 32555" d="M498.6,341.739l.283.635a.521.521,0,0,1-.265.688l-1,.447-.707-1.588,1-.447A.522.522,0,0,1,498.6,341.739Z" transform="translate(-486.08 -341.43)" fill="#d8014c" stroke="#636060" stroke-linecap="round" stroke-linejoin="round" stroke-miterlimit="10" stroke-width="0.5"/>
    </g>
    <line id="Line_1168" data-name="Line 1168" x1="14.684" transform="translate(352.471 272.693)" fill="none" stroke="#fff" stroke-linecap="round" stroke-linejoin="round" stroke-miterlimit="10" stroke-width="0.5"/>
  </g>
</svg>
