<svg id="Logo_estanco" xmlns="http://www.w3.org/2000/svg" width="75" height="99" viewBox="0 0 75 99">
  <rect id="Rectangle_9006" data-name="Rectangle 9006" width="75" height="99" rx="37.5" fill="#000225"/>
  <g id="comprar-iqos-estancos" transform="translate(-33.117 -61.041)">
    <path id="Path_33329" data-name="Path 33329" d="M60.824,91.561c3.788,0,7.565-.012,11.353,0,7.138.023,12.52,3.4,16.678,9.043.127.173.5.358.358.612-.139.219-.554.1-.774.1-7.53.012-15.072,0-22.6.012-1.247,0-1.247,0-1.247,1.224,0,2.287.023,4.574-.012,6.872-.012.67.15.924.878.912,2.483-.046,4.989,0,7.473-.035.589-.012.82.139.82.785-.023,5.856-.012,11.711-.012,17.567,0,.37.035.728-.508.7-2.864-.1-5.74.277-8.581-.45a18.389,18.389,0,0,1-9.7-6.549,28.583,28.583,0,0,1-4.724-8.581,21.022,21.022,0,0,1-.936-4.4c-.693-5.417-1.374-10.857-2.079-16.273-.2-1.536-.2-1.548,1.305-1.548Z" transform="translate(0 0)" fill="#fab512"/>
    <path id="Path_33330" data-name="Path 33330" d="M357.935,263.524c0-2.876.023-5.763-.023-8.639-.012-.728.219-.9.889-.889q3.915.052,7.831,0c.6-.012.82.2.9.762q.97,6.427,1.963,12.832c.254,1.64.485,3.28.739,4.92.092.566-.092.7-.635.7-3.638-.023-7.265-.023-10.9,0-.612,0-.8-.162-.8-.8C357.958,269.449,357.935,266.481,357.935,263.524Z" transform="translate(-274.889 -143.679)" fill="#fab512"/>
  </g>
</svg>
