<svg id="Layer_82" xmlns="http://www.w3.org/2000/svg" width="42.168" height="39.699" viewBox="0 0 42.168 39.699">
  <g id="Group_12872" data-name="Group 12872" transform="translate(12.044 6.174)">
    <g id="Group_12869" data-name="Group 12869" transform="translate(0.111 0.289)">
      <g id="Group_12868" data-name="Group 12868">
        <path id="Path_10522" data-name="Path 10522" d="M396.428,272.036l-6.184.4c-3.271.477-5.011-1.606-4.838-4.254l-1.249-19.461c-1.244-3.373.789-5.44,4.254-4.838l6.184-.4c3.222-.857,5.121,1.309,4.838,4.254l1.249,19.461C401.493,270.466,399.655,272.715,396.428,272.036Z" transform="translate(-383.789 -243.293)" fill="#262626"/>
      </g>
    </g>
    <g id="Group_12871" data-name="Group 12871">
      <g id="Group_12870" data-name="Group 12870">
        <path id="Path_10523" data-name="Path 10523" d="M387.8,272.012a2.979,2.979,0,0,1-2.967-2.787l-1.494-23.311a2.977,2.977,0,0,1,2.779-3.161l10.035-.643a2.977,2.977,0,0,1,3.162,2.779L400.81,268.2a2.977,2.977,0,0,1-2.779,3.161L388,272C387.933,272.01,387.867,272.012,387.8,272.012Zm8.548-29.208c-.049,0-.1,0-.148,0l-10.035.643a2.278,2.278,0,0,0-2.125,2.419l1.494,23.311a2.278,2.278,0,0,0,2.419,2.125l10.035-.643a2.277,2.277,0,0,0,2.127-2.419l-1.494-23.311a2.278,2.278,0,0,0-2.273-2.13Zm1.66,28.208Z" transform="translate(-383.334 -242.104)" fill="#636060"/>
      </g>
    </g>
  </g>
  <g id="Group_12875" data-name="Group 12875" transform="translate(13.652 7.933)">
    <g id="Group_12874" data-name="Group 12874">
      <g id="Group_12873" data-name="Group 12873">
        <path id="Path_10524" data-name="Path 10524" d="M401.065,275.829l-6.131.394a3.521,3.521,0,0,1-3.738-3.288l-1.249-19.466a3.521,3.521,0,0,1,3.288-3.738l6.131-.394a3.521,3.521,0,0,1,3.738,3.288l1.249,19.466A3.521,3.521,0,0,1,401.065,275.829Z" transform="translate(-389.94 -249.33)" fill="#fff"/>
      </g>
    </g>
  </g>
  <g id="Group_12882" data-name="Group 12882" transform="translate(14.706 7.349)">
    <g id="Group_12878" data-name="Group 12878" transform="translate(0.073 0.071)">
      <g id="Group_12877" data-name="Group 12877">
        <g id="Group_12876" data-name="Group 12876">
          <path id="Path_10525" data-name="Path 10525" d="M395.431,249.488a.86.86,0,0,1-.054-1.718l8.548-.548.056,0a.86.86,0,0,1,.054,1.718l-8.548.548Z" transform="translate(-394.573 -247.22)" fill="#262626"/>
        </g>
      </g>
    </g>
    <g id="Group_12881" data-name="Group 12881">
      <g id="Group_12880" data-name="Group 12880">
        <g id="Group_12879" data-name="Group 12879">
          <path id="Path_10526" data-name="Path 10526" d="M403.751,247.069a.791.791,0,0,1,.789.74h0a.792.792,0,0,1-.737.84l-8.548.548-.051,0a.791.791,0,0,1-.789-.74h0a.792.792,0,0,1,.737-.84l8.548-.548.051,0m0-.139a.511.511,0,0,0-.061,0l-8.548.548a.931.931,0,0,0,.058,1.859.528.528,0,0,0,.061,0l8.548-.548a.931.931,0,0,0-.058-1.859Z" transform="translate(-394.272 -246.93)" fill="#262626"/>
        </g>
      </g>
    </g>
  </g>
  <g id="Group_12885" data-name="Group 12885" transform="translate(15.223 7.711)">
    <g id="Group_12884" data-name="Group 12884">
      <g id="Group_12883" data-name="Group 12883">
        <path id="Path_10527" data-name="Path 10527" d="M396.608,249.308a.211.211,0,0,1-.01-.421l8.818-.467a.213.213,0,0,1,.221.2.21.21,0,0,1-.2.221l-8.818.467Z" transform="translate(-396.398 -248.419)" fill="#fff"/>
      </g>
    </g>
  </g>
  <g id="Group_12974" data-name="Group 12974" transform="translate(15.793 16.529)">
    <g id="Group_12888" data-name="Group 12888">
      <g id="Group_12887" data-name="Group 12887">
        <g id="Group_12886" data-name="Group 12886">
          <ellipse id="Ellipse_705" data-name="Ellipse 705" cx="4.787" cy="4.787" rx="4.787" ry="4.787" fill="#abe236"/>
        </g>
      </g>
    </g>
    <g id="Group_12973" data-name="Group 12973" transform="translate(2.5 1.669)">
      <g id="Group_12894" data-name="Group 12894" transform="translate(1.178)">
        <g id="Group_12893" data-name="Group 12893">
          <g id="Group_12892" data-name="Group 12892">
            <g id="Group_12891" data-name="Group 12891">
              <g id="Group_12890" data-name="Group 12890">
                <g id="Group_12889" data-name="Group 12889">
                  <path id="Path_10528" data-name="Path 10528" d="M415.488,293.058l-.049-1.492v-.034s0-.01.007-.01l.022,0,.368-.012h.019s.012,0,.015.007h0v.022l.032.939.024.72.019.674c0,.068.007.139.007.207,0,.127,0,.251.01.377,0,.054,0,.1,0,.158a1.438,1.438,0,0,1-.017.144,1.137,1.137,0,0,1-.073.251.879.879,0,0,1-.153.248.853.853,0,0,1-.236.19,1.134,1.134,0,0,1-.2.083c-.039.012-.08.02-.119.029l-.044.007-.071.007c-.061,0-.124.007-.185.007-.027,0-.054,0-.08,0l-.054,0a1.092,1.092,0,0,1-.178-.034.888.888,0,0,1-.346-.18.82.82,0,0,1-.173-.2,1.12,1.12,0,0,1-.1-.2,1.215,1.215,0,0,1-.046-.153,1.376,1.376,0,0,1-.024-.139,1.218,1.218,0,0,1-.01-.163c0-.034,0-.071,0-.1a1.316,1.316,0,0,1,.037-.239.933.933,0,0,1,.209-.411,1,1,0,0,1,.35-.251,1.025,1.025,0,0,1,.409-.085c.027,0,.054,0,.08,0l.066.007.122.017a.407.407,0,0,1,.078.019l.027.012a.111.111,0,0,1,.056.068.266.266,0,0,1,.012.063l.007.114c0,.073,0,.141.007.214v.022l0,0-.017-.012a.719.719,0,0,0-.153-.068.842.842,0,0,0-.112-.027.753.753,0,0,0-.209,0,1.014,1.014,0,0,0-.17.036.505.505,0,0,0-.209.122.41.41,0,0,0-.1.148.6.6,0,0,0-.039.117.971.971,0,0,0,0,.45c.01.039.022.078.034.117a.553.553,0,0,0,.1.168.448.448,0,0,0,.17.122.519.519,0,0,0,.158.039l.044,0a.737.737,0,0,0,.127,0,1.029,1.029,0,0,0,.119-.01.577.577,0,0,0,.217-.066.483.483,0,0,0,.2-.214.76.76,0,0,0,.058-.178c0-.029.007-.056.01-.088a.982.982,0,0,0,0-.119Z" transform="translate(-413.85 -291.507)" fill="#fff"/>
                </g>
              </g>
            </g>
          </g>
        </g>
      </g>
      <g id="Group_12900" data-name="Group 12900" transform="translate(3.602 1.639)">
        <g id="Group_12899" data-name="Group 12899">
          <g id="Group_12898" data-name="Group 12898">
            <g id="Group_12897" data-name="Group 12897">
              <g id="Group_12896" data-name="Group 12896">
                <g id="Group_12895" data-name="Group 12895">
                  <path id="Path_10529" data-name="Path 10529" d="M423.81,298.59a.1.1,0,0,0,.01-.017l.178-.183.11-.112.015-.022a.044.044,0,0,1,.012-.017l0,0,.01,0a2.207,2.207,0,0,1,.183.287,1.961,1.961,0,0,1,.156.411c.01.046.019.095.027.144l.012.092a.055.055,0,0,0,0,.017l0,.141a.574.574,0,0,1,0,.112c0,.019,0,.036,0,.054a1.638,1.638,0,0,1-.039.19,1.4,1.4,0,0,1-.088.238l-.092.207a.034.034,0,0,1-.007.01l-.007,0c-.114-.1-.229-.2-.341-.307a.031.031,0,0,1,0-.015c0-.019.01-.039.015-.056a1.524,1.524,0,0,0,.034-.178q.011-.073.015-.146c0-.049,0-.08,0-.122a.363.363,0,0,0,0-.051.6.6,0,0,0,0-.068,1.363,1.363,0,0,0-.019-.139.69.69,0,0,0-.022-.1,1.078,1.078,0,0,0-.046-.151,1.272,1.272,0,0,0-.1-.209A.018.018,0,0,1,423.81,298.59Z" transform="translate(-423.81 -298.24)" fill="#fff"/>
                </g>
              </g>
            </g>
          </g>
        </g>
      </g>
      <g id="Group_12906" data-name="Group 12906" transform="translate(0.114 2.992)">
        <g id="Group_12905" data-name="Group 12905">
          <g id="Group_12904" data-name="Group 12904">
            <g id="Group_12903" data-name="Group 12903">
              <g id="Group_12902" data-name="Group 12902">
                <g id="Group_12901" data-name="Group 12901">
                  <path id="Path_10530" data-name="Path 10530" d="M409.889,303.8a.028.028,0,0,1,.007.019,1.158,1.158,0,0,0,.027.127,1.233,1.233,0,0,0,.08.224,1.442,1.442,0,0,0,.131.241l.1.151.353.509.063.09,0,.007a.006.006,0,0,1,0,.01c-.019.019-.039.039-.056.058l-.207.214-.066.068s-.007,0-.012,0l0,0-.007-.01-.187-.265-.234-.329-.119-.17a2.223,2.223,0,0,1-.156-.248,2.444,2.444,0,0,1-.124-.268l0-.007s0-.007,0-.007.012-.01.012-.017,0,0,0,0a.025.025,0,0,0,.017-.01l.1-.107.248-.256A.033.033,0,0,1,409.889,303.8Z" transform="translate(-409.48 -303.8)" fill="#fff"/>
                </g>
              </g>
            </g>
          </g>
        </g>
      </g>
      <g id="Group_12912" data-name="Group 12912" transform="translate(0.153 0.979)">
        <g id="Group_12911" data-name="Group 12911">
          <g id="Group_12910" data-name="Group 12910">
            <g id="Group_12909" data-name="Group 12909">
              <g id="Group_12908" data-name="Group 12908">
                <g id="Group_12907" data-name="Group 12907">
                  <path id="Path_10531" data-name="Path 10531" d="M411.117,295.868h0l-.022.007a1.522,1.522,0,0,0-.365.158,1.471,1.471,0,0,0-.319.256,1.644,1.644,0,0,0-.122.139,1.383,1.383,0,0,0-.219.409.756.756,0,0,0-.029.1s0,0-.007,0a0,0,0,0,1,0,0l0,0-.007,0-.109-.1-.239-.219-.027-.022c-.01-.007-.01-.01,0-.022s.015-.039.024-.056a1.758,1.758,0,0,1,.54-.691,1.982,1.982,0,0,1,.35-.214c.054-.024.109-.049.166-.071l.017,0s.007,0,.007,0l.022.015.285.256.061.054S411.115,295.866,411.117,295.868Z" transform="translate(-409.637 -295.53)" fill="#fff"/>
                </g>
              </g>
            </g>
          </g>
        </g>
      </g>
      <g id="Group_12918" data-name="Group 12918" transform="translate(0.993 4.419)">
        <g id="Group_12917" data-name="Group 12917">
          <g id="Group_12916" data-name="Group 12916">
            <g id="Group_12915" data-name="Group 12915">
              <g id="Group_12914" data-name="Group 12914">
                <g id="Group_12913" data-name="Group 12913">
                  <path id="Path_10532" data-name="Path 10532" d="M413.09,310.014a.034.034,0,0,1,0-.007.364.364,0,0,1,.032-.029.116.116,0,0,0,.017-.017l.153-.161.112-.117s.007-.01.01-.015a.007.007,0,0,1,.012,0l.01.015.092.134.346.494.365.523.032.046.007.012a.088.088,0,0,1-.017.024l-.058.066-.088.095,0,.01s0,0,0,0a.044.044,0,0,1-.017-.012l-.314-.285-.007,0a.442.442,0,0,0-.049-.046l-.114-.1c-.015-.01-.027-.024-.044-.037l-.114-.085a.194.194,0,0,1-.032-.032l-.324-.453Z" transform="translate(-413.09 -309.665)" fill="#fff"/>
                </g>
              </g>
            </g>
          </g>
        </g>
      </g>
      <g id="Group_12924" data-name="Group 12924" transform="translate(0 2.077)">
        <g id="Group_12923" data-name="Group 12923">
          <g id="Group_12922" data-name="Group 12922">
            <g id="Group_12921" data-name="Group 12921">
              <g id="Group_12920" data-name="Group 12920">
                <g id="Group_12919" data-name="Group 12919">
                  <path id="Path_10533" data-name="Path 10533" d="M409.526,300.9l-.294.3-.1.1a.105.105,0,0,1-.017.015h0a.213.213,0,0,1-.017-.056c-.019-.066-.034-.134-.049-.2-.007-.039-.015-.078-.019-.117a1.342,1.342,0,0,1-.015-.17v-.095l0-.046c0-.022,0-.044,0-.063.007-.058.015-.119.027-.178s.034-.146.056-.219c.012-.041.027-.083.041-.124,0,0,0,0,0-.01h0s.012,0,.015.01a.136.136,0,0,0,.017.022l.114.1.238.226a.013.013,0,0,0,.01,0,.018.018,0,0,1,0,.015c0,.029-.01.058-.012.085s-.007.068-.01.1a1.478,1.478,0,0,0,0,.18l0,.032c0,.012,0,.022,0,.034A.121.121,0,0,1,409.526,300.9Z" transform="translate(-409.01 -300.04)" fill="#fff"/>
                </g>
              </g>
            </g>
          </g>
        </g>
      </g>
      <g id="Group_12930" data-name="Group 12930" transform="translate(3.06 3.298)">
        <g id="Group_12929" data-name="Group 12929">
          <g id="Group_12928" data-name="Group 12928">
            <g id="Group_12927" data-name="Group 12927">
              <g id="Group_12926" data-name="Group 12926">
                <g id="Group_12925" data-name="Group 12925">
                  <path id="Path_10534" data-name="Path 10534" d="M422.245,305.06h0l.341.312h0a.005.005,0,0,1,0,0c-.029.068-.061.134-.09.2a.086.086,0,0,1-.019.032l-.09.088-.051.051-.246.263a.428.428,0,0,0-.029.034.033.033,0,0,1-.007.01.139.139,0,0,0-.027.027c-.095.1-.192.2-.29.3l-.1.109a.052.052,0,0,1-.01.015.008.008,0,0,1,0,0l-.012-.015c-.024-.029-.022-.019-.007-.051l.248-.5c.09-.187.183-.375.273-.562a2.288,2.288,0,0,0,.119-.3A.024.024,0,0,1,422.245,305.06Z" transform="translate(-421.585 -305.06)" fill="#fff"/>
                </g>
              </g>
            </g>
          </g>
        </g>
      </g>
      <g id="Group_12936" data-name="Group 12936" transform="translate(1.307 0.811)">
        <g id="Group_12935" data-name="Group 12935">
          <g id="Group_12934" data-name="Group 12934">
            <g id="Group_12933" data-name="Group 12933">
              <g id="Group_12932" data-name="Group 12932">
                <g id="Group_12931" data-name="Group 12931">
                  <path id="Path_10535" data-name="Path 10535" d="M415.149,295.281l-.046,0a1.307,1.307,0,0,0-.136.015l-.095.015-.056.012-.049.01a.016.016,0,0,1-.017,0l-.1-.092-.195-.18L414.39,295l-.01,0a.009.009,0,0,1,0,0l.015-.007c.058-.019.119-.039.18-.054l.114-.029.073-.015c.049-.01.1-.017.148-.024l.068-.01a1.2,1.2,0,0,1,.134-.01l.165,0h.017a.376.376,0,0,0,.054,0l.095,0,.066,0a.034.034,0,0,1,.015,0h0l-.012.019-.139.151c-.068.075-.134.148-.2.221A.1.1,0,0,1,415.149,295.281Z" transform="translate(-414.38 -294.84)" fill="#fff"/>
                </g>
              </g>
            </g>
          </g>
        </g>
      </g>
      <g id="Group_12942" data-name="Group 12942" transform="translate(1.395 5.321)">
        <g id="Group_12941" data-name="Group 12941">
          <g id="Group_12940" data-name="Group 12940">
            <g id="Group_12939" data-name="Group 12939">
              <g id="Group_12938" data-name="Group 12938">
                <g id="Group_12937" data-name="Group 12937">
                  <path id="Path_10536" data-name="Path 10536" d="M414.74,313.37l.068.063.112.1c.041.037.078.073.119.11.066.056.127.119.19.178l.122.117.015.01h0l.007-.01.124-.127a.909.909,0,0,1,.068-.068s0,0,.007,0l0,0,.007.01.168.239a.546.546,0,0,1,.054.1.277.277,0,0,1,.019.08.2.2,0,0,1-.046.146.381.381,0,0,1-.09.075l0,0a.07.07,0,0,1-.054.015.584.584,0,0,0-.066,0,.034.034,0,0,1-.022-.007c-.034-.022-.068-.044-.1-.068a.255.255,0,0,1-.056-.058l-.1-.146-.229-.319-.3-.419-.012-.017s0,0,0-.012Z" transform="translate(-414.74 -313.37)" fill="#fff"/>
                </g>
              </g>
            </g>
          </g>
        </g>
      </g>
      <g id="Group_12948" data-name="Group 12948" transform="translate(3.281 1.091)">
        <g id="Group_12947" data-name="Group 12947">
          <g id="Group_12946" data-name="Group 12946">
            <g id="Group_12945" data-name="Group 12945">
              <g id="Group_12944" data-name="Group 12944">
                <g id="Group_12943" data-name="Group 12943">
                  <path id="Path_10537" data-name="Path 10537" d="M423.115,296.5a.044.044,0,0,1-.015.022c-.071.075-.141.151-.212.229l-.085.09a.024.024,0,0,1-.012.01h0a.018.018,0,0,1-.01,0,1.555,1.555,0,0,0-.207-.248.223.223,0,0,1-.061-.1.122.122,0,0,1,0-.029l-.007-.1-.012-.338V296s0-.01.012,0l0,0a2.03,2.03,0,0,1,.219.134,1.819,1.819,0,0,1,.273.238l.11.124Z" transform="translate(-422.49 -295.992)" fill="#fff"/>
                </g>
              </g>
            </g>
          </g>
        </g>
      </g>
      <g id="Group_12954" data-name="Group 12954" transform="translate(3.135 3.968)">
        <g id="Group_12953" data-name="Group 12953">
          <g id="Group_12952" data-name="Group 12952">
            <g id="Group_12951" data-name="Group 12951">
              <g id="Group_12950" data-name="Group 12950">
                <g id="Group_12949" data-name="Group 12949">
                  <path id="Path_10538" data-name="Path 10538" d="M422.664,307.81q-.241.537-.482,1.068l-.01-.007-.019-.012-.141-.131-.107-.1-.015-.015s0,0,0-.007l.5-.511.256-.263A.021.021,0,0,1,422.664,307.81Z" transform="translate(-421.89 -307.81)" fill="#fff"/>
                </g>
              </g>
            </g>
          </g>
        </g>
      </g>
      <g id="Group_12960" data-name="Group 12960" transform="translate(2.884 4.778)">
        <g id="Group_12959" data-name="Group 12959">
          <g id="Group_12958" data-name="Group 12958">
            <g id="Group_12957" data-name="Group 12957">
              <g id="Group_12956" data-name="Group 12956">
                <g id="Group_12955" data-name="Group 12955">
                  <path id="Path_10539" data-name="Path 10539" d="M421.058,311.14l.015.01.2.187c.017.015.032.032.049.046s.032.029.049.041l.007,0s0,0,0,.01a.235.235,0,0,0-.015.034l-.037.09a.127.127,0,0,0-.015.032.267.267,0,0,1-.18.146.2.2,0,0,1-.178-.034.235.235,0,0,1-.078-.1.284.284,0,0,1-.022-.127.246.246,0,0,1,.022-.095c.012-.019.019-.044.032-.066s.017-.024.019-.041a.144.144,0,0,1,.034-.051l.078-.08S421.053,311.142,421.058,311.14Z" transform="translate(-420.858 -311.14)" fill="#fff"/>
                </g>
              </g>
            </g>
          </g>
        </g>
      </g>
      <g id="Group_12966" data-name="Group 12966" transform="translate(2.156 0.835)">
        <g id="Group_12965" data-name="Group 12965">
          <g id="Group_12964" data-name="Group 12964">
            <g id="Group_12963" data-name="Group 12963">
              <g id="Group_12962" data-name="Group 12962">
                <g id="Group_12961" data-name="Group 12961">
                  <path id="Path_10540" data-name="Path 10540" d="M417.87,295.349a.243.243,0,0,1,.034-.037l.2-.212.131-.141s.007-.01.01-.015a.018.018,0,0,1,.015,0,1.187,1.187,0,0,1,.129.022.122.122,0,0,1,.032.012.077.077,0,0,1,.032.041.212.212,0,0,1,0,.039c0,.029,0,.056,0,.085,0,.08,0,.163.007.243v.024a.009.009,0,0,1-.01.01h0l0,0-.085-.015-.17-.027c-.039-.007-.08-.01-.119-.015s-.051,0-.078,0h-.024c-.029,0-.058,0-.088,0C417.875,295.354,417.875,295.354,417.87,295.349Z" transform="translate(-417.87 -294.94)" fill="#fff"/>
                </g>
              </g>
            </g>
          </g>
        </g>
      </g>
      <g id="Group_12972" data-name="Group 12972" transform="translate(1.395 5.323)">
        <g id="Group_12971" data-name="Group 12971">
          <g id="Group_12970" data-name="Group 12970">
            <g id="Group_12969" data-name="Group 12969">
              <g id="Group_12968" data-name="Group 12968">
                <g id="Group_12967" data-name="Group 12967">
                  <path id="Path_10541" data-name="Path 10541" d="M414.74,313.38Z" transform="translate(-414.74 -313.38)" fill="#fff"/>
                </g>
              </g>
            </g>
          </g>
        </g>
      </g>
    </g>
  </g>
  <g id="Group_12977" data-name="Group 12977" transform="translate(24.196 0)">
    <g id="Group_12975" data-name="Group 12975" transform="translate(0.279 0.279)">
      <path id="Path_10542" data-name="Path 10542" d="M451.821,220.808l-13.6-2.928-3.811,3.568,2.005,4.821,13.6,2.928Z" transform="translate(-434.41 -217.88)" fill="#abe236"/>
    </g>
    <g id="Group_12976" data-name="Group 12976">
      <path id="Path_10543" data-name="Path 10543" d="M449.149,228.613a.239.239,0,0,1-.058-.007l-13.6-2.928a.281.281,0,0,1-.2-.166l-2.005-4.821a.281.281,0,0,1,.068-.312l3.811-3.568a.28.28,0,0,1,.251-.071l13.6,2.928a.279.279,0,0,1,.214.333l-1.806,8.389a.277.277,0,0,1-.122.178A.311.311,0,0,1,449.149,228.613Zm-13.4-3.454L448.935,228l1.689-7.842-13.184-2.838-3.561,3.334Z" transform="translate(-433.265 -216.734)" fill="#636060"/>
    </g>
  </g>
  <g id="Group_12979" data-name="Group 12979" transform="translate(30.408 2.657)">
    <g id="Group_12978" data-name="Group 12978">
      <path id="Path_10544" data-name="Path 10544" d="M459.97,233.135l-1.18-.256,5.78-4.3,1.19.256Zm-1-4.464a1.2,1.2,0,0,1,.684-.835,1.822,1.822,0,0,1,1.249-.136,1.85,1.85,0,0,1,1.073.635,1.166,1.166,0,0,1-.4,1.862,2.005,2.005,0,0,1-2.319-.5A1.171,1.171,0,0,1,458.975,228.672Zm1.516.956a.815.815,0,0,0,.552-.068.541.541,0,0,0,.312-.382.553.553,0,0,0-.127-.477.808.808,0,0,0-.475-.29.824.824,0,0,0-.565.063.549.549,0,0,0-.309.387.556.556,0,0,0,.122.479A.834.834,0,0,0,460.491,229.628Zm1.838,2.74a1.2,1.2,0,0,1,.674-.83,1.99,1.99,0,0,1,2.329.5,1.158,1.158,0,0,1-.4,1.855,1.879,1.879,0,0,1-1.246.129,1.859,1.859,0,0,1-1.083-.63A1.185,1.185,0,0,1,462.329,232.369Zm2.074.893a.549.549,0,0,0,.309-.387.556.556,0,0,0-.122-.479.837.837,0,0,0-.489-.29.812.812,0,0,0-.555.063.549.549,0,0,0-.309.387.555.555,0,0,0,.119.479.8.8,0,0,0,.484.287A.817.817,0,0,0,464.4,233.262Z" transform="translate(-458.79 -227.649)" fill="#fff"/>
    </g>
  </g>
  <g id="Group_12981" data-name="Group 12981" transform="translate(25.801 3.391)">
    <g id="Group_12980" data-name="Group 12980">
      <path id="Path_10545" data-name="Path 10545" d="M453.312,238.244a.24.24,0,0,1-.058-.007l-11.923-2.568a.28.28,0,0,1-.212-.2l-1.251-4.447a.28.28,0,1,1,.54-.151l1.2,4.284,11.758,2.531a.282.282,0,0,1-.058.557Z" transform="translate(-439.858 -230.667)" fill="#fff"/>
    </g>
  </g>
  <g id="Group_12983" data-name="Group 12983" transform="translate(19.606 3.357)">
    <g id="Group_12982" data-name="Group 12982">
      <path id="Path_10546" data-name="Path 10546" d="M414.69,233.7a.359.359,0,0,1-.085-.012.282.282,0,0,1-.185-.353,3.834,3.834,0,0,1,1.9-2.446,4.228,4.228,0,0,1,3.045-.131.281.281,0,1,1-.192.528h0a3.721,3.721,0,0,0-2.609.11,3.3,3.3,0,0,0-1.611,2.108A.274.274,0,0,1,414.69,233.7Z" transform="translate(-414.407 -230.527)" fill="#636060"/>
    </g>
  </g>
  <g id="Group_12985" data-name="Group 12985" transform="translate(13.6 22.149)">
    <g id="Group_12984" data-name="Group 12984">
      <path id="Path_10547" data-name="Path 10547" d="M389.73,307.74" transform="translate(-389.73 -307.74)" fill="none" stroke="#fff" stroke-linecap="round" stroke-linejoin="round" stroke-miterlimit="10" stroke-width="3"/>
    </g>
  </g>
  <g id="Group_13050" data-name="Group 13050" transform="translate(0 23.614)">
    <g id="Group_12992" data-name="Group 12992" transform="translate(0 7.484)">
      <g id="Group_12988" data-name="Group 12988" transform="translate(0.283 0.28)">
        <g id="Group_12987" data-name="Group 12987">
          <g id="Group_12986" data-name="Group 12986">
            <path id="Path_10548" data-name="Path 10548" d="M347.281,353.7a.09.09,0,0,1-.027,0l-11.989-1.185a.279.279,0,0,1-.251-.307l.623-6.294a.281.281,0,0,1,.28-.253.092.092,0,0,1,.027,0l11.989,1.185a.284.284,0,0,1,.253.307l-.623,6.294A.286.286,0,0,1,347.281,353.7Z" transform="translate(-335.013 -345.66)" fill="#88ad2b"/>
          </g>
        </g>
      </g>
      <g id="Group_12991" data-name="Group 12991">
        <g id="Group_12990" data-name="Group 12990">
          <g id="Group_12989" data-name="Group 12989">
            <path id="Path_10549" data-name="Path 10549" d="M335.032,345.072l11.989,1.185-.623,6.294-11.989-1.185.623-6.294m0-.562a.562.562,0,0,0-.557.506l-.623,6.294a.558.558,0,0,0,.124.411.565.565,0,0,0,.38.2l11.989,1.185a.424.424,0,0,0,.056,0,.562.562,0,0,0,.557-.506l.623-6.294a.558.558,0,0,0-.124-.411.566.566,0,0,0-.38-.2l-11.989-1.185-.056,0Z" transform="translate(-333.849 -344.51)" fill="#636060"/>
          </g>
        </g>
      </g>
    </g>
    <g id="Group_12995" data-name="Group 12995" transform="translate(4.556 9.477)">
      <g id="Group_12994" data-name="Group 12994">
        <g id="Group_12993" data-name="Group 12993">
          <ellipse id="Ellipse_706" data-name="Ellipse 706" cx="2.31" cy="2.31" rx="2.31" ry="2.31" fill="#506313"/>
        </g>
      </g>
    </g>
    <g id="Group_12998" data-name="Group 12998" transform="translate(1.634 9.03)">
      <g id="Group_12997" data-name="Group 12997">
        <g id="Group_12996" data-name="Group 12996">
          <path id="Path_10550" data-name="Path 10550" d="M341.412,355.076l.37-3.746a.428.428,0,0,0-.382-.467h0a.428.428,0,0,0-.467.382l-.37,3.746a.428.428,0,0,0,.382.467h0A.425.425,0,0,0,341.412,355.076Z" transform="translate(-340.561 -350.861)" fill="#506313"/>
        </g>
      </g>
    </g>
    <g id="Group_13001" data-name="Group 13001" transform="translate(11.077 9.962)">
      <g id="Group_13000" data-name="Group 13000">
        <g id="Group_12999" data-name="Group 12999">
          <path id="Path_10551" data-name="Path 10551" d="M380.212,358.906l.37-3.746a.428.428,0,0,0-.382-.467h0a.428.428,0,0,0-.467.382l-.37,3.746a.428.428,0,0,0,.382.467h0A.426.426,0,0,0,380.212,358.906Z" transform="translate(-379.361 -354.691)" fill="#617f17"/>
        </g>
      </g>
    </g>
    <g id="Group_13008" data-name="Group 13008" transform="translate(1.327 2.831)">
      <g id="Group_13004" data-name="Group 13004" transform="translate(0.279 0.277)">
        <g id="Group_13003" data-name="Group 13003">
          <g id="Group_13002" data-name="Group 13002">
            <path id="Path_10552" data-name="Path 10552" d="M351.312,338.4a.3.3,0,0,1-.134-.034l-10.585-5.754a.278.278,0,0,1-.112-.38l3.02-5.559a.284.284,0,0,1,.168-.136.305.305,0,0,1,.08-.012.288.288,0,0,1,.134.034l10.585,5.754a.283.283,0,0,1,.114.382l-3.02,5.556A.286.286,0,0,1,351.312,338.4Z" transform="translate(-340.446 -326.53)" fill="#9ac433"/>
          </g>
        </g>
      </g>
      <g id="Group_13007" data-name="Group 13007">
        <g id="Group_13006" data-name="Group 13006">
          <g id="Group_13005" data-name="Group 13005">
            <path id="Path_10553" data-name="Path 10553" d="M342.88,325.952l10.585,5.754-3.02,5.556-10.585-5.754,3.02-5.556m0-.562a.578.578,0,0,0-.158.022.551.551,0,0,0-.333.27l-3.02,5.556a.563.563,0,0,0,.224.762l10.585,5.754a.548.548,0,0,0,.268.068.576.576,0,0,0,.158-.022.551.551,0,0,0,.333-.27l3.02-5.556a.563.563,0,0,0-.224-.762l-10.585-5.753a.547.547,0,0,0-.268-.068Z" transform="translate(-339.299 -325.39)" fill="#636060"/>
          </g>
        </g>
      </g>
    </g>
    <g id="Group_13011" data-name="Group 13011" transform="translate(6.379 6.737)">
      <g id="Group_13010" data-name="Group 13010">
        <g id="Group_13009" data-name="Group 13009">
          <ellipse id="Ellipse_707" data-name="Ellipse 707" cx="2.31" cy="2.31" rx="2.31" ry="2.31" fill="#546814"/>
        </g>
      </g>
    </g>
    <g id="Group_13014" data-name="Group 13014" transform="translate(3.282 4.747)">
      <g id="Group_13013" data-name="Group 13013">
        <g id="Group_13012" data-name="Group 13012">
          <path id="Path_10554" data-name="Path 10554" d="M349.934,333.895l-1.8,3.308a.426.426,0,0,1-.579.17h0a.426.426,0,0,1-.17-.579l1.8-3.308a.426.426,0,0,1,.579-.17h0A.426.426,0,0,1,349.934,333.895Z" transform="translate(-347.333 -333.263)" fill="#546814"/>
        </g>
      </g>
    </g>
    <g id="Group_13017" data-name="Group 13017" transform="translate(11.618 9.278)">
      <g id="Group_13016" data-name="Group 13016">
        <g id="Group_13015" data-name="Group 13015">
          <path id="Path_10555" data-name="Path 10555" d="M384.184,352.515l-1.8,3.308a.426.426,0,0,1-.579.17h0a.426.426,0,0,1-.17-.579l1.8-3.308a.426.426,0,0,1,.579-.17h0A.428.428,0,0,1,384.184,352.515Z" transform="translate(-381.583 -351.883)" fill="#617f17"/>
        </g>
      </g>
    </g>
    <g id="Group_13034" data-name="Group 13034" transform="translate(4.567)">
      <g id="Group_13024" data-name="Group 13024">
        <g id="Group_13020" data-name="Group 13020" transform="translate(0.28 0.28)">
          <g id="Group_13019" data-name="Group 13019">
            <g id="Group_13018" data-name="Group 13018">
              <path id="Path_10556" data-name="Path 10556" d="M361.56,328.834a.283.283,0,0,1-.219-.1l-7.513-9.419a.279.279,0,0,1,.044-.394l4.943-3.945a.289.289,0,0,1,.175-.061.138.138,0,0,1,.032,0,.277.277,0,0,1,.187.1l7.513,9.419a.274.274,0,0,1,.058.207.277.277,0,0,1-.1.187l-4.943,3.945A.284.284,0,0,1,361.56,328.834Z" transform="translate(-353.765 -314.91)" fill="#abe236"/>
            </g>
          </g>
        </g>
        <g id="Group_13023" data-name="Group 13023">
          <g id="Group_13022" data-name="Group 13022">
            <g id="Group_13021" data-name="Group 13021">
              <path id="Path_10557" data-name="Path 10557" d="M358.119,314.32l7.513,9.419-4.943,3.945-7.513-9.419,4.943-3.945m0-.56a.563.563,0,0,0-.35.122l-4.943,3.945a.551.551,0,0,0-.207.377.564.564,0,0,0,.119.414l7.513,9.419a.562.562,0,0,0,.789.09l4.943-3.945a.551.551,0,0,0,.207-.377.563.563,0,0,0-.119-.414l-7.513-9.419a.557.557,0,0,0-.438-.212Z" transform="translate(-352.615 -313.76)" fill="#636060"/>
            </g>
          </g>
        </g>
      </g>
      <g id="Group_13027" data-name="Group 13027" transform="translate(4.479 4.933)">
        <g id="Group_13026" data-name="Group 13026">
          <g id="Group_13025" data-name="Group 13025">
            <ellipse id="Ellipse_708" data-name="Ellipse 708" cx="2.31" cy="2.31" rx="2.31" ry="2.31" fill="#617f17"/>
          </g>
        </g>
      </g>
      <g id="Group_13030" data-name="Group 13030" transform="translate(1.997 2.013)">
        <g id="Group_13029" data-name="Group 13029">
          <g id="Group_13028" data-name="Group 13028">
            <path id="Path_10558" data-name="Path 10558" d="M364.453,322.789l-2.942,2.349a.426.426,0,0,1-.6-.068h0a.426.426,0,0,1,.068-.6l2.943-2.349a.426.426,0,0,1,.6.068h0A.426.426,0,0,1,364.453,322.789Z" transform="translate(-360.819 -322.029)" fill="#617f17"/>
          </g>
        </g>
      </g>
      <g id="Group_13033" data-name="Group 13033" transform="translate(7.913 9.428)">
        <g id="Group_13032" data-name="Group 13032">
          <g id="Group_13031" data-name="Group 13031">
            <path id="Path_10559" data-name="Path 10559" d="M388.763,353.259l-2.943,2.349a.426.426,0,0,1-.6-.068h0a.426.426,0,0,1,.068-.6l2.942-2.349a.426.426,0,0,1,.6.068h0A.426.426,0,0,1,388.763,353.259Z" transform="translate(-385.129 -352.499)" fill="#617f17"/>
          </g>
        </g>
      </g>
    </g>
    <g id="Group_13039" data-name="Group 13039" transform="translate(2.558 8.737)">
      <g id="Group_13036" data-name="Group 13036" transform="translate(0.139 0.139)">
        <g id="Group_13035" data-name="Group 13035">
          <line id="Line_705" data-name="Line 705" x2="4.201" y2="2.283" fill="#506313"/>
        </g>
      </g>
      <g id="Group_13038" data-name="Group 13038">
        <g id="Group_13037" data-name="Group 13037">
          <path id="Path_10560" data-name="Path 10560" d="M348.7,352.223a.126.126,0,0,1-.066-.017l-4.2-2.283a.14.14,0,0,1,.134-.246l4.2,2.283a.14.14,0,0,1,.056.19A.142.142,0,0,1,348.7,352.223Z" transform="translate(-344.36 -349.66)" fill="#fff"/>
        </g>
      </g>
    </g>
    <g id="Group_13044" data-name="Group 13044" transform="translate(1.054 13.904)">
      <g id="Group_13041" data-name="Group 13041" transform="translate(0.142 0.139)">
        <g id="Group_13040" data-name="Group 13040">
          <line id="Line_706" data-name="Line 706" x2="4.758" y2="0.477" fill="#506313"/>
        </g>
      </g>
      <g id="Group_13043" data-name="Group 13043">
        <g id="Group_13042" data-name="Group 13042">
          <path id="Path_10561" data-name="Path 10561" d="M343.077,371.643h-.015l-4.758-.475a.14.14,0,0,1-.127-.153.142.142,0,0,1,.153-.127l4.758.475a.14.14,0,0,1,.127.153A.138.138,0,0,1,343.077,371.643Z" transform="translate(-338.177 -370.889)" fill="#fff"/>
        </g>
      </g>
    </g>
    <g id="Group_13049" data-name="Group 13049" transform="translate(5.74 4.62)">
      <g id="Group_13046" data-name="Group 13046" transform="translate(0.14 0.143)">
        <g id="Group_13045" data-name="Group 13045">
          <line id="Line_707" data-name="Line 707" x2="2.994" y2="3.726" fill="#506313"/>
        </g>
      </g>
      <g id="Group_13048" data-name="Group 13048">
        <g id="Group_13047" data-name="Group 13047">
          <path id="Path_10562" data-name="Path 10562" d="M360.567,336.753a.134.134,0,0,1-.11-.054l-2.994-3.729a.14.14,0,0,1,.219-.175l2.994,3.729a.14.14,0,0,1-.022.2A.134.134,0,0,1,360.567,336.753Z" transform="translate(-357.433 -332.743)" fill="#fff"/>
        </g>
      </g>
    </g>
  </g>
  <g id="Group_13057" data-name="Group 13057" transform="translate(30.119 26.104)">
    <g id="Group_13053" data-name="Group 13053">
      <g id="Group_13051" data-name="Group 13051" transform="translate(0.209 0.212)">
        <path id="Path_10563" data-name="Path 10563" d="M460.711,324.86l.625,1.623,1.626.628-1.584.667-.667,1.584-.63-1.621-1.621-.63,1.655-.6Z" transform="translate(-458.46 -324.86)" fill="#44cef5"/>
      </g>
      <g id="Group_13052" data-name="Group 13052">
        <path id="Path_10564" data-name="Path 10564" d="M460.06,328.913h0a.209.209,0,0,1-.192-.134l-.6-1.536-1.536-.6a.211.211,0,0,1,0-.394l1.563-.562.562-1.563a.211.211,0,0,1,.394,0l.594,1.538,1.538.594a.21.21,0,0,1,0,.389l-1.5.635-.635,1.5A.211.211,0,0,1,460.06,328.913Zm-1.65-2.453,1.1.426a.213.213,0,0,1,.119.119l.443,1.137.467-1.1a.21.21,0,0,1,.112-.112l1.1-.465-1.139-.438a.214.214,0,0,1-.122-.122l-.423-1.1-.4,1.124a.216.216,0,0,1-.127.127Zm1.054-.6Z" transform="translate(-457.6 -323.989)" fill="#636060"/>
      </g>
    </g>
    <g id="Group_13056" data-name="Group 13056" transform="translate(1.3 2.393)">
      <g id="Group_13054" data-name="Group 13054" transform="translate(0.071 0.071)">
        <line id="Line_708" data-name="Line 708" x2="0.796" y2="0.287" fill="#506313"/>
      </g>
      <g id="Group_13055" data-name="Group 13055">
        <path id="Path_10565" data-name="Path 10565" d="M463.806,334.248a.087.087,0,0,1-.024,0l-.8-.287a.07.07,0,0,1,.049-.131l.8.287a.068.068,0,0,1,.041.09A.073.073,0,0,1,463.806,334.248Z" transform="translate(-462.94 -333.82)" fill="#fff"/>
      </g>
    </g>
  </g>
  <g id="Group_13064" data-name="Group 13064" transform="translate(5.875 17.581)">
    <g id="Group_13060" data-name="Group 13060">
      <g id="Group_13058" data-name="Group 13058" transform="translate(0.209 0.212)">
        <path id="Path_10566" data-name="Path 10566" d="M361.1,289.84l.628,1.623,1.623.628-1.582.667-.669,1.584-.63-1.621-1.621-.63,1.657-.6Z" transform="translate(-358.85 -289.84)" fill="#44cef5"/>
      </g>
      <g id="Group_13059" data-name="Group 13059">
        <path id="Path_10567" data-name="Path 10567" d="M360.45,293.894h0a.209.209,0,0,1-.192-.134l-.6-1.536-1.536-.6a.211.211,0,0,1,0-.394l1.563-.562.562-1.562a.207.207,0,0,1,.195-.139.215.215,0,0,1,.2.134l.594,1.538,1.538.594a.21.21,0,0,1,0,.389l-1.5.635-.635,1.5A.209.209,0,0,1,360.45,293.894Zm-1.65-2.453,1.1.426a.213.213,0,0,1,.119.119l.443,1.137.467-1.1a.21.21,0,0,1,.112-.112l1.1-.465L361,291a.214.214,0,0,1-.122-.122l-.423-1.1-.4,1.124a.217.217,0,0,1-.127.127Zm1.056-.6Z" transform="translate(-357.99 -288.97)" fill="#636060"/>
      </g>
    </g>
    <g id="Group_13063" data-name="Group 13063" transform="translate(1.3 2.392)">
      <g id="Group_13061" data-name="Group 13061" transform="translate(0.071 0.071)">
        <line id="Line_709" data-name="Line 709" x2="0.796" y2="0.287" fill="#506313"/>
      </g>
      <g id="Group_13062" data-name="Group 13062">
        <path id="Path_10568" data-name="Path 10568" d="M364.2,299.228a.087.087,0,0,1-.024,0l-.8-.287a.07.07,0,0,1,.049-.131l.8.287a.07.07,0,0,1-.024.136Z" transform="translate(-363.33 -298.8)" fill="#fff"/>
      </g>
    </g>
  </g>
  <g id="Group_13071" data-name="Group 13071" transform="translate(30.328 11.321)">
    <g id="Group_13067" data-name="Group 13067">
      <g id="Group_13065" data-name="Group 13065" transform="translate(0.209 0.209)">
        <path id="Path_10569" data-name="Path 10569" d="M461.571,264.11l.625,1.626,1.626.625-1.584.669-.667,1.582-.63-1.621-1.621-.63,1.655-.594Z" transform="translate(-459.32 -264.11)" fill="#44cef5"/>
      </g>
      <g id="Group_13066" data-name="Group 13066">
        <path id="Path_10570" data-name="Path 10570" d="M460.92,268.174h0a.209.209,0,0,1-.192-.134l-.6-1.536-1.536-.6a.211.211,0,0,1,0-.394l1.563-.562.562-1.562a.207.207,0,0,1,.195-.139.22.22,0,0,1,.2.134l.594,1.538,1.538.594a.21.21,0,0,1,0,.389l-1.5.635-.635,1.5A.213.213,0,0,1,460.92,268.174Zm-1.65-2.456,1.1.426a.213.213,0,0,1,.119.119l.443,1.137.467-1.1a.21.21,0,0,1,.112-.112l1.1-.465-1.139-.438a.214.214,0,0,1-.122-.122l-.423-1.1-.4,1.124a.217.217,0,0,1-.127.127Zm1.054-.6Z" transform="translate(-458.46 -263.25)" fill="#636060"/>
      </g>
    </g>
    <g id="Group_13070" data-name="Group 13070" transform="translate(1.3 2.39)">
      <g id="Group_13068" data-name="Group 13068" transform="translate(0.071 0.071)">
        <line id="Line_710" data-name="Line 710" x2="0.796" y2="0.287" fill="#506313"/>
      </g>
      <g id="Group_13069" data-name="Group 13069">
        <path id="Path_10571" data-name="Path 10571" d="M464.666,273.5a.087.087,0,0,1-.024,0l-.8-.287a.07.07,0,0,1,.049-.131l.8.287a.07.07,0,0,1-.024.136Z" transform="translate(-463.8 -273.07)" fill="#fff"/>
      </g>
    </g>
  </g>
  <g id="Group_13074" data-name="Group 13074" transform="translate(11.203 3.26)">
    <g id="Group_13072" data-name="Group 13072" transform="translate(0.21 0.212)">
      <line id="Line_711" data-name="Line 711" x2="1.066" y2="2.94" fill="#f3d854"/>
    </g>
    <g id="Group_13073" data-name="Group 13073">
      <path id="Path_10572" data-name="Path 10572" d="M381.155,233.49a.209.209,0,0,1-.2-.139l-1.066-2.94a.211.211,0,1,1,.4-.144l1.066,2.94a.211.211,0,0,1-.127.27A.286.286,0,0,1,381.155,233.49Z" transform="translate(-379.879 -230.129)" fill="#636060"/>
    </g>
  </g>
  <g id="Group_13077" data-name="Group 13077" transform="translate(9.676 4.189)">
    <g id="Group_13075" data-name="Group 13075" transform="translate(0.211 0.213)">
      <line id="Line_712" data-name="Line 712" x1="1.777" y1="2.378" fill="#f3d854"/>
    </g>
    <g id="Group_13076" data-name="Group 13076">
      <path id="Path_10573" data-name="Path 10573" d="M375.594,236.745a.209.209,0,0,1-.168-.085l-1.779-2.378a.21.21,0,0,1,.336-.253l1.779,2.378a.212.212,0,0,1-.168.338Z" transform="translate(-373.605 -233.945)" fill="#636060"/>
    </g>
  </g>
  <g id="Group_13080" data-name="Group 13080" transform="translate(8.198 6.033)">
    <g id="Group_13078" data-name="Group 13078" transform="translate(0.208 0.211)">
      <line id="Line_713" data-name="Line 713" x2="2.779" y2="1.434" fill="#f3d854"/>
    </g>
    <g id="Group_13079" data-name="Group 13079">
      <path id="Path_10574" data-name="Path 10574" d="M370.521,243.377a.206.206,0,0,1-.1-.024l-2.777-1.431a.211.211,0,0,1,.195-.375l2.779,1.431a.212.212,0,0,1,.09.285A.216.216,0,0,1,370.521,243.377Z" transform="translate(-367.534 -241.523)" fill="#636060"/>
    </g>
  </g>
  <g id="Group_13083" data-name="Group 13083" transform="translate(7.616 7.931)">
    <g id="Group_13081" data-name="Group 13081" transform="translate(0.211 0.211)">
      <line id="Line_714" data-name="Line 714" x2="3.101" y2="0.399" fill="#f3d854"/>
    </g>
    <g id="Group_13082" data-name="Group 13082">
      <path id="Path_10575" data-name="Path 10575" d="M368.455,250.145a.1.1,0,0,1-.027,0l-3.1-.4a.211.211,0,0,1,.054-.419l3.1.4a.211.211,0,0,1-.027.421Z" transform="translate(-365.143 -249.323)" fill="#636060"/>
    </g>
  </g>
</svg>
