<svg xmlns="http://www.w3.org/2000/svg" width="46.948" height="37.251" viewBox="0 0 46.948 37.251">
  <g id="farmacia_1_" transform="translate(-343.14 -233.57)">
    <g id="Group_17204" data-name="Group 17204" transform="translate(344.655 244.187)">
      <path id="Path_31322" data-name="Path 31322" d="M387.5,294.628H350a2.668,2.668,0,0,1-2.668-2.668V271.488A2.668,2.668,0,0,1,350,268.82h37.5a2.668,2.668,0,0,1,2.668,2.668V291.96A2.664,2.664,0,0,1,387.5,294.628Z" transform="translate(-346.911 -268.407)" fill="#d6d6d6"/>
      <path id="Path_31323" data-name="Path 31323" d="M387.633,294.044H347.844a1.929,1.929,0,0,1-1.944-1.909V269.319a1.929,1.929,0,0,1,1.944-1.909h39.788a1.929,1.929,0,0,1,1.944,1.909v22.815A1.931,1.931,0,0,1,387.633,294.044Zm-39.788-25.811a1.1,1.1,0,0,0-1.107,1.086v22.815a1.1,1.1,0,0,0,1.107,1.086h39.788a1.1,1.1,0,0,0,1.107-1.086V269.319a1.1,1.1,0,0,0-1.107-1.086Z" transform="translate(-345.9 -267.41)" fill="#636060"/>
    </g>
    <rect id="Rectangle_8846" data-name="Rectangle 8846" width="39.112" height="8.563" transform="translate(347.177 234.57)" fill="#abe236" stroke="#636060" stroke-linecap="round" stroke-linejoin="round" stroke-miterlimit="10" stroke-width="2"/>
    <path id="Path_31324" data-name="Path 31324" d="M388.247,265.118H344.98a.84.84,0,0,1-.84-.84v-.987a.84.84,0,0,1,.84-.84h43.267a.84.84,0,0,1,.84.84v.987A.842.842,0,0,1,388.247,265.118Z" transform="translate(0 -19.716)" fill="#b2b2b2" stroke="#636060" stroke-linecap="round" stroke-linejoin="round" stroke-miterlimit="10" stroke-width="2"/>
    <g id="Group_17205" data-name="Group 17205" transform="translate(347.806 248.474)">
      <rect id="Rectangle_8847" data-name="Rectangle 8847" width="22.844" height="18.238" transform="translate(0.252 0.372)" fill="#44cef5"/>
      <path id="Path_31325" data-name="Path 31325" d="M379.756,301.032H356.912c-.138,0-.252-.167-.252-.372V282.422c0-.205.111-.372.252-.372h22.844c.138,0,.252.167.252.372V300.66C380.008,300.865,379.894,301.032,379.756,301.032Zm-22.593-.744h22.344V282.8H357.164Z" transform="translate(-356.66 -282.05)" fill="#636060"/>
    </g>
    <g id="Group_17210" data-name="Group 17210" transform="translate(374.27 252.799)">
      <g id="Group_17206" data-name="Group 17206" transform="translate(0 0)">
        <path id="Path_31326" data-name="Path 31326" d="M455.417,298.45h-4.293a2.453,2.453,0,0,0-2.454,2.454v14.61h9.2V300.9A2.455,2.455,0,0,0,455.417,298.45Z" transform="translate(-448.19 -297.973)" fill="#684b35"/>
        <path id="Path_31327" data-name="Path 31327" d="M456.711,314.841h-9.2a.481.481,0,0,1-.48-.48V298.9a2.088,2.088,0,0,1,2.085-2.085H455.1a2.088,2.088,0,0,1,2.085,2.085v15.456A.476.476,0,0,1,456.711,314.841Zm-8.724-.961h8.243V298.9a1.13,1.13,0,0,0-1.127-1.127h-5.989a1.13,1.13,0,0,0-1.127,1.127Z" transform="translate(-447.03 -296.82)" fill="#636060"/>
      </g>
      <g id="Group_17207" data-name="Group 17207" transform="translate(1.643 2.205)">
        <rect id="Rectangle_8848" data-name="Rectangle 8848" width="6.281" height="4.659" transform="translate(0.287 0.287)" fill="#44cef5"/>
        <path id="Path_31328" data-name="Path 31328" d="M459.208,309.583h-6.281a.287.287,0,0,1-.287-.287v-4.659a.287.287,0,0,1,.287-.287h6.281a.287.287,0,0,1,.287.287V309.3A.287.287,0,0,1,459.208,309.583Zm-5.994-.574h5.7v-4.085h-5.7Z" transform="translate(-452.64 -304.35)" fill="#636060"/>
      </g>
      <g id="Group_17208" data-name="Group 17208" transform="translate(7.201 9.781)">
        <circle id="Ellipse_7488" data-name="Ellipse 7488" cx="0.568" cy="0.568" r="0.568" fill="#000929"/>
      </g>
      <g id="Group_17209" data-name="Group 17209" transform="translate(2.436 3.136)">
        <line id="Line_1016" data-name="Line 1016" x2="4.478" transform="translate(0.287 0.287)" fill="#fff"/>
        <path id="Path_31329" data-name="Path 31329" d="M460.115,308.1h-4.478a.287.287,0,1,1,0-.574h4.478a.287.287,0,1,1,0,.574Z" transform="translate(-455.35 -307.53)" fill="#fff"/>
      </g>
    </g>
    <g id="Group_17211" data-name="Group 17211" transform="translate(348.852 249.941)">
      <path id="Path_31330" data-name="Path 31330" d="M380.963,287.657H360.482a.3.3,0,0,1,0-.6h20.481a.3.3,0,0,1,0,.6Z" transform="translate(-360.23 -287.06)" fill="#fff"/>
    </g>
    <g id="Group_17218" data-name="Group 17218" transform="translate(370.791 241.66)">
      <g id="Group_17212" data-name="Group 17212" transform="translate(3.947 0)">
        <path id="Path_31331" data-name="Path 31331" d="M452.331,270.082H452a1.806,1.806,0,0,1-1.807-1.807v-5.868A1.806,1.806,0,0,1,452,260.6h.334a1.806,1.806,0,0,1,1.807,1.807v5.868A1.81,1.81,0,0,1,452.331,270.082Z" transform="translate(-449.733 -260.067)" fill="#abe236"/>
        <path id="Path_31332" data-name="Path 31332" d="M451.236,269.325h-.351a2.462,2.462,0,0,1-2.255-2.621v-5.3a2.46,2.46,0,0,1,2.255-2.621h.351a2.462,2.462,0,0,1,2.255,2.621v5.3A2.462,2.462,0,0,1,451.236,269.325Zm-.351-9.482a1.463,1.463,0,0,0-1.341,1.558v5.3a1.463,1.463,0,0,0,1.341,1.558h.351a1.463,1.463,0,0,0,1.341-1.558v-5.3a1.463,1.463,0,0,0-1.341-1.558h-.351Z" transform="translate(-448.63 -258.78)" fill="#636060"/>
      </g>
      <g id="Group_17217" data-name="Group 17217" transform="translate(0 0)">
        <g id="Group_17213" data-name="Group 17213">
          <path id="Path_31333" data-name="Path 31333" d="M438.851,270.082h-.334a1.806,1.806,0,0,1-1.807-1.807v-5.868a1.806,1.806,0,0,1,1.807-1.807h.334a1.806,1.806,0,0,1,1.807,1.807v5.868A1.81,1.81,0,0,1,438.851,270.082Z" transform="translate(-436.253 -260.067)" fill="#fff"/>
          <path id="Path_31334" data-name="Path 31334" d="M437.756,269.325H437.4a2.462,2.462,0,0,1-2.255-2.621v-5.3a2.46,2.46,0,0,1,2.255-2.621h.351a2.462,2.462,0,0,1,2.255,2.621v5.3A2.462,2.462,0,0,1,437.756,269.325Zm-.351-9.482a1.463,1.463,0,0,0-1.341,1.558v5.3a1.463,1.463,0,0,0,1.341,1.558h.351A1.463,1.463,0,0,0,439.1,266.7v-5.3a1.463,1.463,0,0,0-1.341-1.558H437.4Z" transform="translate(-435.15 -258.78)" fill="#636060"/>
        </g>
        <g id="Group_17214" data-name="Group 17214" transform="translate(7.895)">
          <path id="Path_31335" data-name="Path 31335" d="M465.811,270.082h-.334a1.806,1.806,0,0,1-1.807-1.807v-5.868a1.806,1.806,0,0,1,1.807-1.807h.334a1.806,1.806,0,0,1,1.807,1.807v5.868A1.808,1.808,0,0,1,465.811,270.082Z" transform="translate(-463.213 -260.067)" fill="#fff"/>
          <path id="Path_31336" data-name="Path 31336" d="M464.716,269.325h-.351a2.462,2.462,0,0,1-2.255-2.621v-5.3a2.46,2.46,0,0,1,2.255-2.621h.351a2.462,2.462,0,0,1,2.255,2.621v5.3A2.462,2.462,0,0,1,464.716,269.325Zm-.351-9.482a1.463,1.463,0,0,0-1.341,1.558v5.3a1.463,1.463,0,0,0,1.341,1.558h.351a1.463,1.463,0,0,0,1.341-1.558v-5.3a1.463,1.463,0,0,0-1.341-1.558h-.351Z" transform="translate(-462.11 -258.78)" fill="#636060"/>
        </g>
        <path id="Path_31337" data-name="Path 31337" d="M479.291,270.082h-.334a1.806,1.806,0,0,1-1.807-1.807v-5.868a1.806,1.806,0,0,1,1.807-1.807h.334a1.806,1.806,0,0,1,1.807,1.807v5.868A1.808,1.808,0,0,1,479.291,270.082Z" transform="translate(-464.851 -260.067)" fill="#abe236"/>
        <path id="Path_31338" data-name="Path 31338" d="M478.2,269.325h-.351a2.462,2.462,0,0,1-2.255-2.621v-5.3a2.46,2.46,0,0,1,2.255-2.621h.351a2.462,2.462,0,0,1,2.255,2.621v5.3A2.46,2.46,0,0,1,478.2,269.325Zm-.351-9.482A1.463,1.463,0,0,0,476.5,261.4v5.3a1.463,1.463,0,0,0,1.341,1.558h.351a1.463,1.463,0,0,0,1.341-1.558v-5.3a1.463,1.463,0,0,0-1.341-1.558h-.351Z" transform="translate(-463.748 -258.78)" fill="#636060"/>
        <g id="Group_17215" data-name="Group 17215" transform="translate(13.257 2.275)">
          <path id="Path_31339" data-name="Path 31339" d="M480.6,272.527a.2.2,0,0,1-.182-.214v-5.549a.2.2,0,0,1,.182-.214.2.2,0,0,1,.182.214v5.549A.2.2,0,0,1,480.6,272.527Z" transform="translate(-480.42 -266.55)" fill="#fff"/>
        </g>
        <g id="Group_17216" data-name="Group 17216" transform="translate(5.385 2.275)">
          <path id="Path_31340" data-name="Path 31340" d="M453.722,272.527a.2.2,0,0,1-.182-.214v-5.549a.184.184,0,1,1,.363,0v5.549A.2.2,0,0,1,453.722,272.527Z" transform="translate(-453.54 -266.55)" fill="#fff"/>
        </g>
      </g>
    </g>
    <text id="FARMACIA" transform="translate(349.723 241.146)" fill="#000929" font-size="6" font-family="SegoeUI-Bold, Segoe UI" font-weight="700"><tspan x="0" y="0">FARMACIA</tspan></text>
    <path id="Path_31341" data-name="Path 31341" d="M389.241,301.181H386.09V298.03a.293.293,0,0,0-.29-.29h-3.089a.292.292,0,0,0-.29.29v3.151H379.27a.292.292,0,0,0-.29.29v3.089a.293.293,0,0,0,.29.29h3.151V308a.292.292,0,0,0,.29.29H385.8a.292.292,0,0,0,.29-.29V304.85h3.151a.292.292,0,0,0,.29-.29v-3.089A.289.289,0,0,0,389.241,301.181Z" transform="translate(-24.637 -44.671)" fill="#abe236" stroke="#636060" stroke-linecap="round" stroke-linejoin="round" stroke-miterlimit="10" stroke-width="2" opacity="0.48"/>
  </g>
</svg>
