<svg xmlns="http://www.w3.org/2000/svg" width="42.114" height="32.942" viewBox="0 0 42.114 32.942">
  <g id="fast_food" transform="translate(-374.595 -271.01)">
    <path id="Path_31527" data-name="Path 31527" d="M417.475,333.07H380.14v3.042a5.252,5.252,0,0,0,5.255,5.255H412.22a5.252,5.252,0,0,0,5.255-5.255Z" transform="translate(-3.156 -37.915)" fill="#f3d854" stroke="#636060" stroke-linecap="round" stroke-linejoin="round" stroke-miterlimit="10" stroke-width="1"/>
    <path id="Path_31528" data-name="Path 31528" d="M380.14,279.807h37.335v-3.042a5.252,5.252,0,0,0-5.255-5.255H385.395a5.252,5.252,0,0,0-5.255,5.255Z" transform="translate(-3.156)" fill="#f3d854" stroke="#636060" stroke-linecap="round" stroke-linejoin="round" stroke-miterlimit="10" stroke-width="1"/>
    <g id="Group_17500" data-name="Group 17500" transform="translate(375.016 292.07)">
      <path id="Path_31529" data-name="Path 31529" d="M375.82,327.831a8.484,8.484,0,0,0,1.805,2.308,2.893,2.893,0,0,0,2.75.6c.53-.2,1.026-.622,1.586-.538a2.528,2.528,0,0,1,.876.434,3.777,3.777,0,0,0,3.81.023,1.79,1.79,0,0,1,.853-.365,1.594,1.594,0,0,1,.676.207,7.219,7.219,0,0,0,5.493.165,2.756,2.756,0,0,1,1.448-.323,3.026,3.026,0,0,1,.81.35,4.728,4.728,0,0,0,3.388.342c1.022-.284,2.128-.906,3.054-.4.288.157.515.407.8.561,1.018.545,2.216-.3,3.372-.357,1.4-.065,2.881,1.052,4.106.365a2.84,2.84,0,0,1,.883-.48,1.809,1.809,0,0,1,.784.146,5.091,5.091,0,0,0,2.935.05,1.5,1.5,0,0,0,.818-.472,1.154,1.154,0,0,0,0-1.256,2.686,2.686,0,0,0-.987-.876,13.37,13.37,0,0,0-6.637-1.513c-2.3-.038-4.6.177-6.883-.05-1.206-.119-2.4-.357-3.607-.434-2.385-.15-4.767.35-7.156.43-3.461.115-6.906-.645-10.367-.534a6.414,6.414,0,0,0-2.524.48,7.52,7.52,0,0,0-2.028,1.6" transform="translate(-375.511 -325.76)" fill="#abe236"/>
      <g id="Group_17499" data-name="Group 17499" transform="translate(0 0)">
        <path id="Path_31530" data-name="Path 31530" d="M375.187,327.181a6.475,6.475,0,0,0,2.681,2.873,3.058,3.058,0,0,0,1.621.261c.657-.092,1.39-.784,2.051-.584a4.194,4.194,0,0,1,.8.465,3.849,3.849,0,0,0,.883.361,4.3,4.3,0,0,0,1.771.1,4.016,4.016,0,0,0,.895-.246,7.047,7.047,0,0,1,.987-.476c.338-.073.664.154.972.277a7.474,7.474,0,0,0,5.27.108,6.7,6.7,0,0,1,1.029-.365,1.689,1.689,0,0,1,1.118.288,5.59,5.59,0,0,0,2,.549,5.449,5.449,0,0,0,2.047-.261,3.952,3.952,0,0,1,2.189-.415,4.311,4.311,0,0,1,.876.542,2.218,2.218,0,0,0,.853.284,5.215,5.215,0,0,0,1.859-.288,3.893,3.893,0,0,1,2.109-.019,10.7,10.7,0,0,0,1.828.423,2.465,2.465,0,0,0,1.636-.457,1.032,1.032,0,0,1,1.06-.1,5.95,5.95,0,0,0,1.129.23c1.045.108,3.042.015,3.3-1.314s-1.137-2.109-2.139-2.573c-2.739-1.268-5.812-1.206-8.761-1.145a31.962,31.962,0,0,1-4.963-.181,25.626,25.626,0,0,0-4.755-.35c-1.594.081-3.177.319-4.771.4a34.317,34.317,0,0,1-4.9-.184c-1.632-.15-3.265-.338-4.9-.35a7.544,7.544,0,0,0-4.344.887,10.167,10.167,0,0,0-1.49,1.414c-.334.338.207.8.526.488a5.839,5.839,0,0,1,3.772-1.844,29.83,29.83,0,0,1,4.5.138c1.51.127,3.019.3,4.532.353a32.378,32.378,0,0,0,4.605-.211,27.2,27.2,0,0,1,4.4-.219c1.517.092,3.011.419,4.532.5,2.927.15,5.884-.284,8.792.192a9.824,9.824,0,0,1,3.71,1.3c.442.28,1.2.972.7,1.54-.442.5-1.579.5-2.174.457-.622-.042-1.21-.369-1.824-.38-.661-.012-1.045.58-1.663.691a4.066,4.066,0,0,1-1.771-.277,5.219,5.219,0,0,0-1.863-.269,8.526,8.526,0,0,0-1.6.411,3.079,3.079,0,0,1-.93.169c-.476-.012-.741-.334-1.1-.6-1.125-.807-2.385-.119-3.541.211a4.39,4.39,0,0,1-1.947.111,18.026,18.026,0,0,1-1.917-.749,2.8,2.8,0,0,0-1.782.277,7.1,7.1,0,0,1-2.17.434,6.858,6.858,0,0,1-2.2-.265c-.615-.177-1.291-.68-1.955-.522a3.679,3.679,0,0,0-.9.472,3.279,3.279,0,0,1-1.029.373,3.409,3.409,0,0,1-2.224-.338c-.492-.265-.906-.618-1.5-.519-.749.123-1.283.714-2.074.714-1.721,0-2.762-1.652-3.561-2.946-.1-.161-.384-.023-.277.15Z" transform="translate(-375.016 -325.037)" fill="#636060"/>
      </g>
    </g>
    <path id="Path_31531" data-name="Path 31531" d="M415.562,311.491H382.053a1.913,1.913,0,0,1-1.913-1.913V308.7a1.913,1.913,0,0,1,1.913-1.913h33.509a1.913,1.913,0,0,1,1.913,1.913v.876A1.913,1.913,0,0,1,415.562,311.491Z" transform="translate(-3.156 -21.729)" fill="#f3d854" stroke="#636060" stroke-linecap="round" stroke-linejoin="round" stroke-miterlimit="10" stroke-width="1"/>
    <g id="Group_17502" data-name="Group 17502" transform="translate(375.016 281.718)">
      <path id="Path_31532" data-name="Path 31532" d="M375.82,300.881a8.484,8.484,0,0,0,1.805,2.308,2.893,2.893,0,0,0,2.75.6c.53-.2,1.026-.622,1.586-.538a2.528,2.528,0,0,1,.876.434,3.777,3.777,0,0,0,3.81.023,1.79,1.79,0,0,1,.853-.365,1.594,1.594,0,0,1,.676.207,7.22,7.22,0,0,0,5.493.165,2.755,2.755,0,0,1,1.448-.323,3.027,3.027,0,0,1,.81.35,4.728,4.728,0,0,0,3.388.342c1.022-.284,2.128-.906,3.054-.4.288.158.515.407.8.561,1.018.545,2.216-.3,3.372-.357,1.4-.065,2.881,1.052,4.106.365a2.839,2.839,0,0,1,.883-.48,1.81,1.81,0,0,1,.784.146,5.091,5.091,0,0,0,2.935.05,1.5,1.5,0,0,0,.818-.472,1.154,1.154,0,0,0,0-1.256,2.686,2.686,0,0,0-.987-.876,13.369,13.369,0,0,0-6.637-1.513c-2.3-.038-4.6.177-6.883-.05-1.206-.119-2.4-.357-3.607-.434-2.385-.15-4.767.35-7.156.43-3.461.115-6.906-.645-10.367-.534a6.414,6.414,0,0,0-2.524.48,7.52,7.52,0,0,0-2.028,1.6" transform="translate(-375.511 -298.81)" fill="#abe236"/>
      <g id="Group_17501" data-name="Group 17501" transform="translate(0 0)">
        <path id="Path_31533" data-name="Path 31533" d="M375.187,300.231a6.475,6.475,0,0,0,2.681,2.873,3.058,3.058,0,0,0,1.621.261c.657-.092,1.39-.784,2.051-.584a4.2,4.2,0,0,1,.8.465,3.85,3.85,0,0,0,.883.361,4.3,4.3,0,0,0,1.771.1,4.014,4.014,0,0,0,.895-.246,7.043,7.043,0,0,1,.987-.476c.338-.073.664.154.972.277a7.474,7.474,0,0,0,5.27.108A6.7,6.7,0,0,1,394.15,303a1.689,1.689,0,0,1,1.118.288,5.59,5.59,0,0,0,2,.549,5.448,5.448,0,0,0,2.047-.261,3.952,3.952,0,0,1,2.189-.415,4.311,4.311,0,0,1,.876.542,2.218,2.218,0,0,0,.853.284,5.216,5.216,0,0,0,1.859-.288,3.894,3.894,0,0,1,2.109-.019,10.694,10.694,0,0,0,1.828.423,2.465,2.465,0,0,0,1.636-.457,1.032,1.032,0,0,1,1.06-.1,5.954,5.954,0,0,0,1.129.23c1.045.108,3.042.015,3.3-1.314s-1.137-2.109-2.139-2.573c-2.739-1.268-5.812-1.206-8.761-1.145a31.958,31.958,0,0,1-4.963-.181,25.624,25.624,0,0,0-4.755-.35c-1.594.081-3.177.319-4.771.4a34.326,34.326,0,0,1-4.9-.184c-1.632-.15-3.265-.338-4.9-.35a7.544,7.544,0,0,0-4.344.887,10.167,10.167,0,0,0-1.49,1.414c-.334.338.207.8.526.488a5.839,5.839,0,0,1,3.772-1.844,29.83,29.83,0,0,1,4.5.138c1.51.127,3.019.3,4.532.353a32.387,32.387,0,0,0,4.605-.211,27.206,27.206,0,0,1,4.4-.219c1.517.092,3.011.419,4.532.5,2.927.15,5.884-.284,8.792.192a9.824,9.824,0,0,1,3.71,1.3c.442.28,1.2.972.7,1.54-.442.5-1.579.5-2.174.457-.622-.042-1.21-.369-1.824-.38-.661-.012-1.045.58-1.663.691a4.066,4.066,0,0,1-1.771-.277,5.22,5.22,0,0,0-1.863-.269,8.531,8.531,0,0,0-1.6.411,3.078,3.078,0,0,1-.93.169c-.476-.012-.741-.334-1.1-.6-1.125-.807-2.385-.119-3.541.211a4.391,4.391,0,0,1-1.947.111,18.02,18.02,0,0,1-1.917-.749,2.8,2.8,0,0,0-1.782.277,7.1,7.1,0,0,1-2.17.434,6.856,6.856,0,0,1-2.2-.265c-.615-.177-1.291-.68-1.955-.522a3.68,3.68,0,0,0-.9.472,3.277,3.277,0,0,1-1.029.373,3.409,3.409,0,0,1-2.224-.338c-.492-.265-.906-.618-1.5-.519-.749.123-1.283.714-2.074.714-1.721,0-2.762-1.652-3.561-2.946-.1-.161-.384-.023-.277.15Z" transform="translate(-375.016 -298.087)" fill="#636060"/>
      </g>
    </g>
    <path id="Path_31534" data-name="Path 31534" d="M414.422,324.631H377.133a1.913,1.913,0,0,1-1.913-1.913v-.876a1.913,1.913,0,0,1,1.913-1.913h37.289a1.913,1.913,0,0,1,1.913,1.913v.876A1.913,1.913,0,0,1,414.422,324.631Z" transform="translate(-0.125 -29.822)" fill="#a57b3d" stroke="#636060" stroke-linecap="round" stroke-linejoin="round" stroke-miterlimit="10" stroke-width="1"/>
    <path id="Path_31535" data-name="Path 31535" d="M414.422,298.531H377.133a1.913,1.913,0,0,1-1.913-1.913v-.876a1.913,1.913,0,0,1,1.913-1.913h37.289a1.913,1.913,0,0,1,1.913,1.913v.876A1.913,1.913,0,0,1,414.422,298.531Z" transform="translate(-0.125 -13.747)" fill="#a57b3d" stroke="#636060" stroke-linecap="round" stroke-linejoin="round" stroke-miterlimit="10" stroke-width="1"/>
    <g id="Group_17519" data-name="Group 17519" transform="translate(379.529 273.868)">
      <g id="Group_17504" data-name="Group 17504" transform="translate(30.329 0)">
        <g id="Group_17503" data-name="Group 17503">
          <path id="Path_31536" data-name="Path 31536" d="M466.653,279.571a.961.961,0,0,0,0-1.921.961.961,0,0,0,0,1.921Z" transform="translate(-465.725 -277.65)" fill="#c6a82c"/>
        </g>
      </g>
      <g id="Group_17506" data-name="Group 17506" transform="translate(25.996 0)">
        <g id="Group_17505" data-name="Group 17505">
          <path id="Path_31537" data-name="Path 31537" d="M455.373,279.571a.961.961,0,0,0,0-1.921.961.961,0,0,0,0,1.921Z" transform="translate(-454.445 -277.65)" fill="#c6a82c"/>
        </g>
      </g>
      <g id="Group_17508" data-name="Group 17508" transform="translate(21.663 0)">
        <g id="Group_17507" data-name="Group 17507">
          <path id="Path_31538" data-name="Path 31538" d="M444.093,279.571a.961.961,0,0,0,0-1.921.961.961,0,0,0,0,1.921Z" transform="translate(-443.165 -277.65)" fill="#c6a82c"/>
        </g>
      </g>
      <g id="Group_17510" data-name="Group 17510" transform="translate(17.331 0)">
        <g id="Group_17509" data-name="Group 17509">
          <path id="Path_31539" data-name="Path 31539" d="M432.813,279.571a.961.961,0,0,0,0-1.921.961.961,0,0,0,0,1.921Z" transform="translate(-431.885 -277.65)" fill="#c6a82c"/>
        </g>
      </g>
      <g id="Group_17512" data-name="Group 17512" transform="translate(12.998 0)">
        <g id="Group_17511" data-name="Group 17511">
          <path id="Path_31540" data-name="Path 31540" d="M421.533,279.571a.961.961,0,0,0,0-1.921.961.961,0,0,0,0,1.921Z" transform="translate(-420.605 -277.65)" fill="#c6a82c"/>
        </g>
      </g>
      <g id="Group_17514" data-name="Group 17514" transform="translate(8.665 0)">
        <g id="Group_17513" data-name="Group 17513">
          <path id="Path_31541" data-name="Path 31541" d="M410.253,279.571a.961.961,0,0,0,0-1.921.961.961,0,0,0,0,1.921Z" transform="translate(-409.325 -277.65)" fill="#c6a82c"/>
        </g>
      </g>
      <g id="Group_17516" data-name="Group 17516" transform="translate(4.333 0)">
        <g id="Group_17515" data-name="Group 17515">
          <path id="Path_31542" data-name="Path 31542" d="M398.973,279.571a.961.961,0,0,0,0-1.921.961.961,0,0,0,0,1.921Z" transform="translate(-398.045 -277.65)" fill="#c6a82c"/>
        </g>
      </g>
      <g id="Group_17518" data-name="Group 17518" transform="translate(0 0)">
        <g id="Group_17517" data-name="Group 17517">
          <path id="Path_31543" data-name="Path 31543" d="M387.693,279.571a.961.961,0,0,0,0-1.921.961.961,0,0,0,0,1.921Z" transform="translate(-386.765 -277.65)" fill="#c6a82c"/>
        </g>
      </g>
    </g>
    <g id="Group_17521" data-name="Group 17521" transform="translate(407.83 276.726)">
      <g id="Group_17520" data-name="Group 17520">
        <path id="Path_31544" data-name="Path 31544" d="M461.373,287.01a.961.961,0,0,0,0-1.921.961.961,0,0,0,0,1.921Z" transform="translate(-460.445 -285.09)" fill="#c6a82c"/>
      </g>
    </g>
    <g id="Group_17523" data-name="Group 17523" transform="translate(403.497 276.726)">
      <g id="Group_17522" data-name="Group 17522" transform="translate(0)">
        <path id="Path_31545" data-name="Path 31545" d="M450.093,287.01a.961.961,0,0,0,0-1.921.961.961,0,0,0,0,1.921Z" transform="translate(-449.165 -285.09)" fill="#c6a82c"/>
      </g>
    </g>
    <g id="Group_17525" data-name="Group 17525" transform="translate(399.164 276.726)">
      <g id="Group_17524" data-name="Group 17524">
        <path id="Path_31546" data-name="Path 31546" d="M438.813,287.01a.961.961,0,0,0,0-1.921.961.961,0,0,0,0,1.921Z" transform="translate(-437.885 -285.09)" fill="#c6a82c"/>
      </g>
    </g>
    <g id="Group_17527" data-name="Group 17527" transform="translate(394.832 276.726)">
      <g id="Group_17526" data-name="Group 17526">
        <path id="Path_31547" data-name="Path 31547" d="M427.533,287.01a.961.961,0,0,0,0-1.921.961.961,0,0,0,0,1.921Z" transform="translate(-426.605 -285.09)" fill="#c6a82c"/>
      </g>
    </g>
    <g id="Group_17529" data-name="Group 17529" transform="translate(390.499 276.726)">
      <g id="Group_17528" data-name="Group 17528" transform="translate(0)">
        <path id="Path_31548" data-name="Path 31548" d="M416.253,287.01a.961.961,0,0,0,0-1.921.961.961,0,0,0,0,1.921Z" transform="translate(-415.325 -285.09)" fill="#c6a82c"/>
      </g>
    </g>
    <g id="Group_17531" data-name="Group 17531" transform="translate(386.166 276.726)">
      <g id="Group_17530" data-name="Group 17530" transform="translate(0)">
        <path id="Path_31549" data-name="Path 31549" d="M404.973,287.01a.961.961,0,0,0,0-1.921.961.961,0,0,0,0,1.921Z" transform="translate(-404.045 -285.09)" fill="#c6a82c"/>
      </g>
    </g>
    <g id="Group_17533" data-name="Group 17533" transform="translate(383.001 293.873)">
      <path id="Path_31550" data-name="Path 31550" d="M397.25,330.871c4.621.465,9.437.972,13.09,2.435q2.529-.663,5.062-1.321a25.455,25.455,0,0,0,3.353-1.037,151.681,151.681,0,0,0-16.612-.058,29.677,29.677,0,0,1-5.093,0" transform="translate(-396.571 -330.322)" fill="#f3d854"/>
      <g id="Group_17532" data-name="Group 17532" transform="translate(0 0)">
        <path id="Path_31551" data-name="Path 31551" d="M396.482,330.546c2.919.346,5.858.63,8.738,1.237a26.072,26.072,0,0,1,3.91,1.11,1.036,1.036,0,0,0,.807.065c.392-.1.784-.2,1.175-.3l2.259-.588a36.97,36.97,0,0,0,4.8-1.417c.365-.15.123-.611-.184-.63-3.607-.215-7.244-.323-10.855-.277q-2.691.035-5.377.165a20.664,20.664,0,0,1-5.335-.054.468.468,0,1,0-.134.914c3.588.046,7.167-.227,10.755-.277,3.661-.054,7.3,0,10.951.207-.061-.211-.123-.419-.184-.63a31.273,31.273,0,0,1-4.075,1.221l-4.244,1.118c.088.012.181.023.269.031-4.187-1.652-8.819-2.055-13.267-2.424-.373-.035-.357.488,0,.53Z" transform="translate(-395.804 -329.733)" fill="#636060"/>
      </g>
    </g>
    <g id="Group_17535" data-name="Group 17535" transform="translate(377.762 283.841)">
      <path id="Path_31552" data-name="Path 31552" d="M383.61,304.751c4.621.465,9.437.972,13.09,2.435q2.529-.663,5.062-1.321a25.453,25.453,0,0,0,3.353-1.037,151.681,151.681,0,0,0-16.612-.058,29.674,29.674,0,0,1-5.093,0" transform="translate(-382.931 -304.202)" fill="#f3d854"/>
      <g id="Group_17534" data-name="Group 17534" transform="translate(0 0)">
        <path id="Path_31553" data-name="Path 31553" d="M382.842,304.426c2.919.346,5.858.63,8.738,1.237a26.073,26.073,0,0,1,3.91,1.11,1.036,1.036,0,0,0,.807.065c.392-.1.784-.2,1.175-.3l2.259-.588a36.973,36.973,0,0,0,4.8-1.417c.365-.15.123-.611-.184-.63-3.607-.215-7.244-.323-10.855-.277q-2.691.035-5.377.165a20.663,20.663,0,0,1-5.335-.054.468.468,0,1,0-.134.914c3.588.046,7.167-.227,10.755-.277,3.66-.054,7.3,0,10.951.207-.061-.211-.123-.419-.184-.63a31.273,31.273,0,0,1-4.075,1.221l-4.244,1.118c.088.012.181.023.269.031-4.187-1.652-8.819-2.055-13.267-2.424-.373-.035-.357.488,0,.53Z" transform="translate(-382.164 -303.613)" fill="#636060"/>
      </g>
    </g>
    <line id="Line_1035" data-name="Line 1035" x1="25.278" transform="translate(383.48 301.516)" fill="none" stroke="#fff" stroke-linecap="round" stroke-linejoin="round" stroke-miterlimit="10" stroke-width="1"/>
  </g>
</svg>
