<svg xmlns="http://www.w3.org/2000/svg" width="51.376" height="23.963" viewBox="0 0 51.376 23.963">
  <g id="Group_18265" data-name="Group 18265" transform="translate(-681.629 -521)">
    <path id="Path_31248" data-name="Path 31248" d="M371.048,296.468h-48.42a1.078,1.078,0,0,1-1.078-1.078v-3.142a1.078,1.078,0,0,1,1.078-1.078h48.42a1.078,1.078,0,0,1,1.078,1.078v3.142A1.078,1.078,0,0,1,371.048,296.468Z" transform="translate(360.479 239.471)" fill="#d6d6d6" stroke="#636060" stroke-miterlimit="10" stroke-width="0.8"/>
    <g id="Group_17163" data-name="Group 17163" transform="translate(715.264 521.4)">
      <path id="Path_31249" data-name="Path 31249" d="M472.346,284.873h-2.218a3.02,3.02,0,0,1-3.019-3.019V271.629a3.02,3.02,0,0,1,3.019-3.019h2.218a3.02,3.02,0,0,1,3.019,3.019v10.226A3.019,3.019,0,0,1,472.346,284.873Z" transform="translate(-462.983 -265.16)" fill="#000929" stroke="#636060" stroke-miterlimit="10" stroke-width="0.8"/>
      <path id="Path_31250" data-name="Path 31250" d="M455.65,278.333h-.986a3.635,3.635,0,0,1-3.635-3.635V258.8a3.635,3.635,0,0,1,3.635-3.635h.986a3.635,3.635,0,0,1,3.635,3.635V274.7A3.635,3.635,0,0,1,455.65,278.333Z" transform="translate(-451.03 -255.17)" fill="#000929" stroke="#636060" stroke-miterlimit="10" stroke-width="0.8"/>
    </g>
    <g id="Group_17164" data-name="Group 17164" transform="translate(687.172 521.4)">
      <path id="Path_31251" data-name="Path 31251" d="M344.609,284.873h2.218a3.02,3.02,0,0,0,3.019-3.019V271.629a3.02,3.02,0,0,0-3.019-3.019h-2.218a3.02,3.02,0,0,0-3.018,3.019v10.226A3.017,3.017,0,0,0,344.609,284.873Z" transform="translate(-341.59 -265.16)" fill="#000929" stroke="#636060" stroke-miterlimit="10" stroke-width="0.8"/>
      <path id="Path_31252" data-name="Path 31252" d="M361.3,278.333h.986a3.635,3.635,0,0,0,3.635-3.635V258.8a3.635,3.635,0,0,0-3.635-3.635H361.3a3.635,3.635,0,0,0-3.635,3.635V274.7A3.635,3.635,0,0,0,361.3,278.333Z" transform="translate(-353.543 -255.17)" fill="#000929" stroke="#636060" stroke-miterlimit="10" stroke-width="0.8"/>
    </g>
    <line id="Line_993" data-name="Line 993" x2="12.582" transform="translate(701.027 532.75)" fill="#d6d6d6" stroke="#fff" stroke-linecap="round" stroke-linejoin="round" stroke-miterlimit="10" stroke-width="0.8"/>
    <line id="Line_994" data-name="Line 994" y2="14.877" transform="translate(721.424 525.682)" fill="#d6d6d6" stroke="#fff" stroke-linecap="round" stroke-linejoin="round" stroke-miterlimit="10" stroke-width="0.8"/>
    <line id="Line_995" data-name="Line 995" y2="8.409" transform="translate(726.32 528.916)" fill="#d6d6d6" stroke="#fff" stroke-linecap="round" stroke-linejoin="round" stroke-miterlimit="10" stroke-width="0.8"/>
    <line id="Line_996" data-name="Line 996" y2="8.409" transform="translate(688.713 528.916)" fill="#d6d6d6" stroke="#fff" stroke-linecap="round" stroke-linejoin="round" stroke-miterlimit="10" stroke-width="0.8"/>
    <line id="Line_997" data-name="Line 997" y2="14.877" transform="translate(693.24 525.682)" fill="#d6d6d6" stroke="#fff" stroke-linecap="round" stroke-linejoin="round" stroke-miterlimit="10" stroke-width="0.8"/>
    <g id="Group_17165" data-name="Group 17165" transform="translate(728.076 529.563)">
      <path id="Path_31253" data-name="Path 31253" d="M502.043,286.97h.031a1.094,1.094,0,0,1,1.093,1.093v5.575a1.094,1.094,0,0,1-1.093,1.093h-.031a1.094,1.094,0,0,1-1.093-1.093v-5.575A1.093,1.093,0,0,1,502.043,286.97Z" transform="translate(-500.95 -286.97)" fill="#b2b2b2" stroke="#636060" stroke-miterlimit="10" stroke-width="0.8"/>
      <line id="Line_998" data-name="Line 998" x1="1.756" transform="translate(0.231 5.359)" fill="#b2b2b2" stroke="#636060" stroke-miterlimit="10" stroke-width="0.8"/>
      <line id="Line_999" data-name="Line 999" x1="1.756" transform="translate(0.231 2.739)" fill="#b2b2b2" stroke="#636060" stroke-miterlimit="10" stroke-width="0.8"/>
    </g>
    <g id="Group_17166" data-name="Group 17166" transform="translate(684.717 529.563)">
      <path id="Path_31254" data-name="Path 31254" d="M333.113,286.97h.031a1.094,1.094,0,0,1,1.093,1.093v5.575a1.094,1.094,0,0,1-1.093,1.093h-.031a1.094,1.094,0,0,1-1.093-1.093v-5.575A1.094,1.094,0,0,1,333.113,286.97Z" transform="translate(-332.02 -286.97)" fill="#b2b2b2" stroke="#636060" stroke-miterlimit="10" stroke-width="0.8"/>
      <line id="Line_1000" data-name="Line 1000" x1="1.756" transform="translate(0.231 5.359)" fill="#b2b2b2" stroke="#636060" stroke-miterlimit="10" stroke-width="0.8"/>
      <line id="Line_1001" data-name="Line 1001" x1="1.756" transform="translate(0.231 2.739)" fill="#b2b2b2" stroke="#636060" stroke-miterlimit="10" stroke-width="0.8"/>
    </g>
  </g>
</svg>
