<svg xmlns="http://www.w3.org/2000/svg" width="20.06" height="36.161" viewBox="0 0 20.06 36.161">
  <g id="cliente" transform="translate(0.25)">
    <path id="Path_11843" data-name="Path 11843" d="M400.593,353.7h-1.7a1.185,1.185,0,0,1-1.185-1.185v-9.641a1.185,1.185,0,0,1,1.185-1.186h1.7a1.185,1.185,0,0,1,1.185,1.186v9.641A1.184,1.184,0,0,1,400.593,353.7Z" transform="translate(-393.365 -319.51)" fill="#000929" stroke="#646060" stroke-linecap="round" stroke-linejoin="round" stroke-miterlimit="10" stroke-width="0.5"/>
    <path id="Path_11844" data-name="Path 11844" d="M418.953,353.7h-1.7a1.185,1.185,0,0,1-1.185-1.185v-9.641a1.185,1.185,0,0,1,1.185-1.186h1.7a1.185,1.185,0,0,1,1.185,1.186v9.641A1.187,1.187,0,0,1,418.953,353.7Z" transform="translate(-407.724 -319.51)" fill="#000929" stroke="#646060" stroke-linecap="round" stroke-linejoin="round" stroke-miterlimit="10" stroke-width="0.5"/>
    <path id="Path_11845" data-name="Path 11845" d="M384,321.583l-.525-.133a1,1,0,0,1-.726-1.22L384.2,314.5a1,1,0,0,1,1.22-.726l.525.133a1,1,0,0,1,.726,1.22l-1.454,5.727A1.007,1.007,0,0,1,384,321.583Z" transform="translate(-381.638 -297.656)" fill="#f3d490" stroke="#646060" stroke-linecap="round" stroke-linejoin="round" stroke-miterlimit="10" stroke-width="0.5"/>
    <ellipse id="Ellipse_874" data-name="Ellipse 874" cx="1.726" cy="1.726" rx="1.726" ry="1.726" transform="translate(0 23.594)" fill="#f3d490" stroke="#646060" stroke-miterlimit="10" stroke-width="0.5"/>
    <line id="Line_937" data-name="Line 937" y1="5.509" x2="1.519" transform="translate(1.619 17.017)" fill="none" stroke="#fff" stroke-linecap="round" stroke-linejoin="round" stroke-miterlimit="10" stroke-width="0.5"/>
    <path id="Path_11846" data-name="Path 11846" d="M433.767,303.941l-.492.346a.975.975,0,0,1-1.358-.238l-3.432-4.881a.975.975,0,0,1,.238-1.358l.492-.346a.975.975,0,0,1,1.358.238L434,302.584A.977.977,0,0,1,433.767,303.941Z" transform="translate(-417.294 -284.784)" fill="#abe236" stroke="#646060" stroke-linecap="round" stroke-linejoin="round" stroke-miterlimit="10" stroke-width="0.5"/>
    <path id="Path_11847" data-name="Path 11847" d="M388.054,304.361l-.593-.1a.975.975,0,0,1-.793-1.127l.874-5.01a.975.975,0,0,1,1.127-.793l.593.1a.975.975,0,0,1,.793,1.127l-.874,5.01A.973.973,0,0,1,388.054,304.361Z" transform="translate(-384.718 -284.805)" fill="#abe236" stroke="#646060" stroke-linecap="round" stroke-linejoin="round" stroke-miterlimit="10" stroke-width="0.5"/>
    <path id="Path_11848" data-name="Path 11848" d="M410.589,287.78h-1.181l-1.035,2.179c-.185,3.886,3.1,4.04,3.28.155Z" transform="translate(-401.698 -277.348)" fill="#f3d490" stroke="#646060" stroke-miterlimit="10" stroke-width="0.5"/>
    <ellipse id="Ellipse_875" data-name="Ellipse 875" cx="0.917" cy="0.917" rx="0.917" ry="0.917" transform="translate(9.135 4.925)" fill="#919191" opacity="0.41"/>
    <ellipse id="Ellipse_876" data-name="Ellipse 876" cx="0.501" cy="0.501" rx="0.501" ry="0.501" transform="translate(9.552 5.341)" fill="#444"/>
    <ellipse id="Ellipse_877" data-name="Ellipse 877" cx="0.584" cy="0.92" rx="0.584" ry="0.92" transform="translate(3.925 5.411)" fill="#f3d490" stroke="#646060" stroke-miterlimit="10" stroke-width="0.5"/>
    <ellipse id="Ellipse_878" data-name="Ellipse 878" cx="0.584" cy="0.92" rx="0.584" ry="0.92" transform="translate(11.524 5.443)" fill="#f3d490" stroke="#646060" stroke-miterlimit="10" stroke-width="0.5"/>
    <path id="Path_11849" data-name="Path 11849" d="M403.089,257.618h0a3.558,3.558,0,0,1-3.559-3.559v-1.641a3.558,3.558,0,0,1,3.559-3.559h0a3.558,3.558,0,0,1,3.559,3.559v1.641A3.558,3.558,0,0,1,403.089,257.618Z" transform="translate(-394.788 -246.91)" fill="#f3d490" stroke="#646060" stroke-miterlimit="10" stroke-width="0.5"/>
    <path id="Path_11850" data-name="Path 11850" d="M403.28,273.33" transform="translate(-397.721 -266.047)" fill="#939393" stroke="#646060" stroke-linecap="round" stroke-linejoin="round" stroke-miterlimit="10" stroke-width="0.5"/>
    <path id="Path_11851" data-name="Path 11851" d="M409.64,277.91" transform="translate(-402.695 -269.629)" fill="none" stroke="#646060" stroke-linecap="round" stroke-linejoin="round" stroke-miterlimit="10" stroke-width="0.5"/>
    <g id="Group_14222" data-name="Group 14222" transform="translate(9.48 5.86)">
      <ellipse id="Ellipse_879" data-name="Ellipse 879" cx="0.449" cy="0.449" rx="0.449" ry="0.449" fill="#646060"/>
      <ellipse id="Ellipse_880" data-name="Ellipse 880" cx="0.207" cy="0.207" rx="0.207" ry="0.207" transform="translate(0.484 0.37)" fill="#fff"/>
    </g>
    <g id="Group_14223" data-name="Group 14223" transform="translate(6.226 5.86)">
      <ellipse id="Ellipse_881" data-name="Ellipse 881" cx="0.449" cy="0.449" rx="0.449" ry="0.449" fill="#646060"/>
      <ellipse id="Ellipse_882" data-name="Ellipse 882" cx="0.207" cy="0.207" rx="0.207" ry="0.207" transform="translate(0.508 0.37)" fill="#fff"/>
    </g>
    <path id="Path_11852" data-name="Path 11852" d="M424.794,264.89a3.855,3.855,0,0,1-.974,4.141" transform="translate(-413.785 -259.447)" fill="none" stroke="#fff" stroke-linecap="round" stroke-linejoin="round" stroke-miterlimit="10" stroke-width="0.5"/>
    <path id="Path_11853" data-name="Path 11853" d="M447.614,295.588l.534.094a1,1,0,0,1,.817,1.162l-1.016,5.821a1,1,0,0,1-1.162.817l-.534-.094a1,1,0,0,1-.817-1.162l1.016-5.821A1,1,0,0,1,447.614,295.588Z" transform="translate(-430.68 -283.443)" fill="#f3d490" stroke="#646060" stroke-linecap="round" stroke-linejoin="round" stroke-miterlimit="10" stroke-width="0.5"/>
    <path id="Path_11854" data-name="Path 11854" d="M410.781,278.417h-.615a1.2,1.2,0,0,1-1.2-1.2h3.007A1.194,1.194,0,0,1,410.781,278.417Z" transform="translate(-402.171 -269.09)" fill="#fff" stroke="#646060" stroke-linecap="round" stroke-linejoin="round" stroke-miterlimit="10" stroke-width="0.5"/>
    <g id="Group_14225" data-name="Group 14225" transform="translate(3.899 0)">
      <path id="Path_11855" data-name="Path 11855" d="M399.484,244.8c1.251-.017,2.478.076,2.975,1.118.135-.238.268-1.327.4-1.565a2.9,2.9,0,0,1,1.759,1.859,2.312,2.312,0,0,0,.146-2.417,3.416,3.416,0,0,0-2.064-1.6,5.132,5.132,0,0,0-2.752,0,1.242,1.242,0,0,1,.089-.782.507.507,0,0,0-.571.207c-.126.168-.183.373-.316.536-.4.5-1.253.412-1.837.726a.967.967,0,0,1,.717.233c-.586.362-.595,1.083-.822,1.691-.268.721.442,1.789,1.026,2.3.035-1.066.007-.721.791-1.517.24-.238.146-.939.455-.782" transform="translate(-396.827 -241.061)" fill="#b4b776"/>
      <g id="Group_14224" data-name="Group 14224">
        <path id="Path_11856" data-name="Path 11856" d="M398.317,243.982c.955-.013,2.2-.028,2.691.957a.329.329,0,0,0,.564,0c.24-.475.185-1.138.4-1.565l-.368.15a2.588,2.588,0,0,1,1.53,1.63.331.331,0,0,0,.6.078,2.791,2.791,0,0,0-.658-3.724,4.951,4.951,0,0,0-4.38-.778l.4.229a1.024,1.024,0,0,1,.089-.608.332.332,0,0,0-.229-.4.825.825,0,0,0-.843.238c-.214.22-.264.562-.521.739a2.226,2.226,0,0,1-.765.251,3.47,3.47,0,0,0-.846.279.33.33,0,0,0,.166.61.694.694,0,0,1,.486.137l.065-.514a1.812,1.812,0,0,0-.719,1.018c-.065.2-.111.412-.17.617a2.656,2.656,0,0,0-.15.623,3.148,3.148,0,0,0,1.177,2.245.331.331,0,0,0,.558-.231,2.47,2.47,0,0,1,.048-.656c.013-.035.007-.026.059-.078s.137-.126.2-.187a1.9,1.9,0,0,0,.554-.639,2.333,2.333,0,0,0,.1-.36.6.6,0,0,0,.039-.148c.009.015-.318.022-.174.081.39.159.56-.473.174-.63-.34-.139-.571.153-.652.447a1.805,1.805,0,0,1-.1.39,1.748,1.748,0,0,1-.381.379,1.391,1.391,0,0,0-.432.516,2.8,2.8,0,0,0-.092.885l.558-.231a2.621,2.621,0,0,1-.987-1.717,3.787,3.787,0,0,1,.235-.917,1.346,1.346,0,0,1,.482-.843.33.33,0,0,0,.065-.514,1.367,1.367,0,0,0-.948-.329c.054.2.109.405.166.61.447-.227.974-.227,1.43-.434a1.309,1.309,0,0,0,.549-.447c.107-.153.24-.641.49-.558l-.229-.4a1.65,1.65,0,0,0-.089.957.332.332,0,0,0,.4.229,4.332,4.332,0,0,1,3.683.562,2.169,2.169,0,0,1,.619,2.981l.6.078a3.292,3.292,0,0,0-1.985-2.088.326.326,0,0,0-.368.15c-.24.475-.185,1.138-.4,1.565h.564c-.608-1.212-2.062-1.294-3.256-1.279a.326.326,0,0,0,0,.652Z" transform="translate(-395.661 -239.911)" fill="#646060"/>
      </g>
    </g>
    <ellipse id="Ellipse_883" data-name="Ellipse 883" cx="1.726" cy="1.726" rx="1.726" ry="1.726" transform="translate(15.734 8.982)" fill="#f3d490" stroke="#646060" stroke-miterlimit="10" stroke-width="0.5"/>
    <g id="Group_14226" data-name="Group 14226" transform="translate(15.998 4.895)">
      <path id="Path_11857" data-name="Path 11857" d="M452.962,268.217l-1-.177a.947.947,0,0,1-.769-1.1l.667-3.785a.947.947,0,0,1,1.1-.769l1,.177a.947.947,0,0,1,.769,1.1l-.667,3.785A.949.949,0,0,1,452.962,268.217Z" transform="translate(-451.182 -262.372)" fill="#000929" stroke="#646060" stroke-linecap="round" stroke-linejoin="round" stroke-miterlimit="10" stroke-width="0.5"/>
      <path id="Path_11858" data-name="Path 11858" d="M454.156,270.845l-2.362-.416a.255.255,0,0,1-.207-.3l.512-2.909a.255.255,0,0,1,.3-.207l2.362.416a.255.255,0,0,1,.207.3l-.512,2.909A.255.255,0,0,1,454.156,270.845Z" transform="translate(-451.495 -266.001)" fill="#fff" stroke="#646060" stroke-linecap="round" stroke-linejoin="round" stroke-miterlimit="10" stroke-width="0.5"/>
    </g>
    <path id="Path_11859" data-name="Path 11859" d="M414.19,247a3.493,3.493,0,0,1,3.31,1.822" transform="translate(-406.253 -245.449)" fill="none" stroke="#fff" stroke-linecap="round" stroke-linejoin="round" stroke-miterlimit="10" stroke-width="0.5"/>
    <line id="Line_938" data-name="Line 938" x1="1.096" y2="5.609" transform="translate(16.684 13.485)" fill="none" stroke="#fff" stroke-linecap="round" stroke-linejoin="round" stroke-miterlimit="10" stroke-width="0.5"/>
    <path id="Path_11860" data-name="Path 11860" d="M393.219,305.335c2.63,1.876,5.032,1.85,7.978.05a103.606,103.606,0,0,1,1.022-10.323c0-.885-1.573-1.6-2.367-1.6h-1.364c0,1.556-2.789,1.556-2.789,0h-1.371c-.8,0-2.439.717-2.439,1.6A60.907,60.907,0,0,1,393.219,305.335Z" transform="translate(-388.813 -281.791)" fill="#abe236" stroke="#646060" stroke-linecap="round" stroke-linejoin="round" stroke-miterlimit="10" stroke-width="0.5"/>
    <path id="Path_11861" data-name="Path 11861" d="M431.234,316.69s-.281,2.083-.514,6.263" transform="translate(-419.181 -299.958)" fill="none" stroke="#fff" stroke-linecap="round" stroke-linejoin="round" stroke-miterlimit="10" stroke-width="0.5"/>
    <path id="Path_11862" data-name="Path 11862" d="M419.042,394.28h-2a1.135,1.135,0,0,0-1.135,1.135h0a1.135,1.135,0,0,0,1.135,1.135h2a1.135,1.135,0,0,0,1.135-1.135h0A1.137,1.137,0,0,0,419.042,394.28Z" transform="translate(-407.598 -360.64)" fill="#b2b2b2" stroke="#646060" stroke-linecap="round" stroke-linejoin="round" stroke-miterlimit="10" stroke-width="0.5"/>
    <path id="Path_11863" data-name="Path 11863" d="M399.151,394.28h-2a1.135,1.135,0,0,0-1.135,1.135h0a1.135,1.135,0,0,0,1.135,1.135h2a1.135,1.135,0,0,0,1.135-1.135h0A1.137,1.137,0,0,0,399.151,394.28Z" transform="translate(-392.043 -360.64)" fill="#b2b2b2" stroke="#646060" stroke-linecap="round" stroke-linejoin="round" stroke-miterlimit="10" stroke-width="0.5"/>
    <line id="Line_939" data-name="Line 939" y2="6.357" transform="translate(11.654 25.963)" fill="none" stroke="#fff" stroke-linecap="round" stroke-linejoin="round" stroke-miterlimit="10" stroke-width="0.5"/>
    <line id="Line_940" data-name="Line 940" y2="6.357" transform="translate(5.091 25.963)" fill="none" stroke="#fff" stroke-linecap="round" stroke-linejoin="round" stroke-miterlimit="10" stroke-width="0.5"/>
  </g>
</svg>
