<svg xmlns="http://www.w3.org/2000/svg" width="36.903" height="40.674" viewBox="0 0 36.903 40.674">
  <g id="genio" transform="translate(-345.37 -220.06)">
    <path id="Path_32729" data-name="Path 32729" d="M400.411,323.406s1.031-.8,1.9-.3-.169,1.773.356,2.346a8.138,8.138,0,0,0,1.7,1.2s-2.142.321-2.663-.264.232-1.983-.314-2.132S400.112,324.252,400.411,323.406Z" transform="translate(-41.091 -77.067)" fill="#44cef5" stroke="#646060" stroke-linecap="round" stroke-linejoin="round" stroke-miterlimit="10" stroke-width="0.5"/>
    <path id="Path_32730" data-name="Path 32730" d="M471.008,340.74a3.21,3.21,0,0,0-2.528,1.156,5.882,5.882,0,0,1,.959-.08c1.684,0,3.049.692,3.049,1.547s-1.365,1.547-3.049,1.547a5.66,5.66,0,0,1-.959-.08,3.2,3.2,0,0,0,2.528,1.156,2.653,2.653,0,1,0,0-5.246Z" transform="translate(-92.258 -90.434)" fill="#f3d854" stroke="#646060" stroke-linecap="round" stroke-linejoin="round" stroke-miterlimit="10" stroke-width="0.5"/>
    <ellipse id="Ellipse_7651" data-name="Ellipse 7651" cx="2.287" cy="1.749" rx="2.287" ry="1.749" transform="translate(371.352 248.608)" fill="#f3d854" stroke="#646060" stroke-linecap="round" stroke-linejoin="round" stroke-miterlimit="10" stroke-width="0.5"/>
    <path id="Path_32731" data-name="Path 32731" d="M447.67,364.978c.852-.8,1.532-1.592,1.345-2.329l1.345-2.329,1.345,2.329a3.638,3.638,0,0,0,1.345,2.329C453.05,365.835,447.67,365.835,447.67,364.978Z" transform="translate(-76.632 -105.137)" fill="#f3d854" stroke="#646060" stroke-linecap="round" stroke-linejoin="round" stroke-miterlimit="10" stroke-width="0.5"/>
    <path id="Path_32732" data-name="Path 32732" d="M434.8,343.359a4.233,4.233,0,0,1-4.394,4.053,4.307,4.307,0,0,1-4.331-3.373c-2.483.722-5.684-3.562-4.837-4.349a14.513,14.513,0,0,0,5.323,1.863,4.6,4.6,0,0,1,3.846-1.6C432.836,339.952,434.8,341.122,434.8,343.359Z" transform="translate(-56.681 -89.645)" fill="#f3d854" stroke="#646060" stroke-linecap="round" stroke-linejoin="round" stroke-miterlimit="10" stroke-width="0.5"/>
    <path id="Path_32733" data-name="Path 32733" d="M465.579,345.96s2.869,2.057-.269,4.605" transform="translate(-89.878 -94.353)" fill="none" stroke="#fff" stroke-linecap="round" stroke-linejoin="round" stroke-miterlimit="10" stroke-width="0.5"/>
    <g id="Group_18522" data-name="Group 18522" transform="translate(345.62 220.31)">
      <ellipse id="Ellipse_7652" data-name="Ellipse 7652" cx="1.913" cy="0.73" rx="1.913" ry="0.73" transform="matrix(0.204, -0.979, 0.979, 0.204, 11.356, 8.222)" fill="#44cef5" stroke="#646060" stroke-linecap="round" stroke-linejoin="round" stroke-miterlimit="10" stroke-width="0.5"/>
      <ellipse id="Ellipse_7653" data-name="Ellipse 7653" cx="0.73" cy="1.913" rx="0.73" ry="1.913" transform="matrix(0.979, -0.204, 0.204, 0.979, 1.19, 4.777)" fill="#44cef5" stroke="#646060" stroke-linecap="round" stroke-linejoin="round" stroke-miterlimit="10" stroke-width="0.5"/>
      <g id="Group_18511" data-name="Group 18511" transform="translate(3.176 17.997)">
        <path id="Path_32734" data-name="Path 32734" d="M371.333,299.784a10.9,10.9,0,0,0-3.642-.022,8.091,8.091,0,0,1-2.376.466,4.655,4.655,0,0,1-2.274-1.116,3,3,0,0,1-.468-.4,3.548,3.548,0,0,1-.426-.67,13.1,13.1,0,0,0-1.582-2.284,1.678,1.678,0,0,1-.583-1.193,1.079,1.079,0,0,1,.817-.829,3.687,3.687,0,0,1,1.228-.047c.966.057,1.938.02,2.9.152a4.694,4.694,0,0,1,2.628,1.118.553.553,0,0,1,.184.281c.027.169-.092.324-.159.481a1.011,1.011,0,0,0,.359,1.118,2.149,2.149,0,0,0,1.178.391,1.9,1.9,0,0,1,.555.092c.471.194.628.765.77,1.25s.441,1.044.946,1.061" transform="translate(-359.576 -293.386)" fill="#44cef5"/>
        <g id="Group_18510" data-name="Group 18510">
          <path id="Path_32735" data-name="Path 32735" d="M370.166,298.83a7.665,7.665,0,0,0-3.1-.227,8.825,8.825,0,0,0-1.452.334,3.931,3.931,0,0,1-1.5.239,2.993,2.993,0,0,1-1.33-.538,5.8,5.8,0,0,1-1.111-.889,7.3,7.3,0,0,1-.707-1.238,13.074,13.074,0,0,0-.827-1.25,9.8,9.8,0,0,1-.869-1.116c-.229-.426.02-.757.416-.934a3.594,3.594,0,0,1,1.564-.065c.543.022,1.089.025,1.631.057a5.79,5.79,0,0,1,2.772.742,1.84,1.84,0,0,1,.526.421c.13.187-.08.391-.127.59a1.27,1.27,0,0,0,.286,1.083,2.016,2.016,0,0,0,1.2.635,3.249,3.249,0,0,1,.78.132.833.833,0,0,1,.371.461,8.845,8.845,0,0,0,.463,1.24,1.315,1.315,0,0,0,1.036.675c.5.05.5-.695,0-.735-.346-.027-.508-.56-.593-.827a2.694,2.694,0,0,0-.568-1.148,1.96,1.96,0,0,0-1.308-.394c-.466-.057-1-.259-1.093-.782-.075-.431.386-.732.095-1.168a2.89,2.89,0,0,0-1.121-.842,7.317,7.317,0,0,0-2.959-.623c-.585-.025-1.171-.022-1.754-.055a4.207,4.207,0,0,0-1.549.052,1.42,1.42,0,0,0-.919.9,1.518,1.518,0,0,0,.361,1.3c.316.421.685.8,1,1.22a15.455,15.455,0,0,1,.9,1.392,5.1,5.1,0,0,0,2.234,1.818,3.1,3.1,0,0,0,1.577.341,9.447,9.447,0,0,0,1.736-.386,7.232,7.232,0,0,1,1.893-.214c.67,0,1.335.112,2.005.07.172-.017.212-.224.05-.274Z" transform="translate(-358.369 -292.564)" fill="#646060"/>
        </g>
      </g>
      <path id="Path_32736" data-name="Path 32736" d="M381.5,261.433l4.045,2.976a1.027,1.027,0,0,0,1.437-.219h0a1.027,1.027,0,0,0-.219-1.437l-4.045-2.976a1.027,1.027,0,0,0-1.437.219h0A1.027,1.027,0,0,0,381.5,261.433Z" transform="translate(-372.245 -249.796)" fill="#44cef5" stroke="#646060" stroke-linecap="round" stroke-linejoin="round" stroke-miterlimit="10" stroke-width="0.5"/>
      <path id="Path_32737" data-name="Path 32737" d="M351.769,261.433l-4.045,2.976a1.027,1.027,0,0,1-1.437-.219h0a1.027,1.027,0,0,1,.219-1.437l4.043-2.976a1.027,1.027,0,0,1,1.437.219h0A1.027,1.027,0,0,1,351.769,261.433Z" transform="translate(-345.97 -249.796)" fill="#44cef5" stroke="#646060" stroke-linecap="round" stroke-linejoin="round" stroke-miterlimit="10" stroke-width="0.5"/>
      <path id="Path_32738" data-name="Path 32738" d="M358.573,261.35h7.577c.658,0,.658,9.415,0,9.415h-7.577C357.8,270.765,357.8,261.35,358.573,261.35Z" transform="translate(-354.909 -251.128)" fill="#44cef5" stroke="#646060" stroke-linecap="round" stroke-linejoin="round" stroke-miterlimit="10" stroke-width="0.5"/>
      <path id="Path_32739" data-name="Path 32739" d="M351.222,275.207h-4.573a1.029,1.029,0,0,1-1.029-1.029h0a1.029,1.029,0,0,1,1.029-1.029h4.573a1.029,1.029,0,0,1,1.029,1.029h0A1.031,1.031,0,0,1,351.222,275.207Z" transform="translate(-345.62 -259.989)" fill="#44cef5" stroke="#646060" stroke-linecap="round" stroke-linejoin="round" stroke-miterlimit="10" stroke-width="0.5"/>
      <rect id="Rectangle_8968" data-name="Rectangle 8968" width="1.061" height="2.057" transform="translate(4.048 13.161)" fill="#ffe04d" stroke="#646060" stroke-linecap="round" stroke-linejoin="round" stroke-miterlimit="10" stroke-width="0.5"/>
      <path id="Path_32740" data-name="Path 32740" d="M380.449,275.207h4.573a1.029,1.029,0,0,0,1.029-1.029h0a1.029,1.029,0,0,0-1.029-1.029h-4.573a1.029,1.029,0,0,0-1.029,1.029h0A1.029,1.029,0,0,0,380.449,275.207Z" transform="translate(-371.001 -259.989)" fill="#44cef5" stroke="#646060" stroke-linecap="round" stroke-linejoin="round" stroke-miterlimit="10" stroke-width="0.5"/>
      <rect id="Rectangle_8969" data-name="Rectangle 8969" width="1.061" height="2.057" transform="translate(9.786 13.161)" fill="#ffe04d" stroke="#646060" stroke-linecap="round" stroke-linejoin="round" stroke-miterlimit="10" stroke-width="0.5"/>
      <path id="Path_32741" data-name="Path 32741" d="M365.153,235.454c0,2.3-2.269,4.17-5.066,4.17s-5.066-1.866-5.066-4.17,2.269-5.664,5.066-5.664S365.153,233.15,365.153,235.454Z" transform="translate(-352.679 -227.429)" fill="#44cef5" stroke="#646060" stroke-linecap="round" stroke-linejoin="round" stroke-miterlimit="10" stroke-width="0.5"/>
      <g id="Group_18512" data-name="Group 18512" transform="translate(4.648 5.736)">
        <circle id="Ellipse_7654" data-name="Ellipse 7654" cx="0.946" cy="0.946" r="0.946" fill="#333"/>
        <circle id="Ellipse_7655" data-name="Ellipse 7655" cx="0.426" cy="0.426" r="0.426" transform="translate(0.331 0.394)" fill="#fff"/>
      </g>
      <g id="Group_18513" data-name="Group 18513" transform="translate(8.287 5.736)">
        <circle id="Ellipse_7656" data-name="Ellipse 7656" cx="0.946" cy="0.946" r="0.946" fill="#333"/>
        <circle id="Ellipse_7657" data-name="Ellipse 7657" cx="0.426" cy="0.426" r="0.426" transform="translate(0.331 0.394)" fill="#fff"/>
      </g>
      <path id="Path_32742" data-name="Path 32742" d="M367.28,257.09h4.127a3.554,3.554,0,0,1-2.194,1.465A3.717,3.717,0,0,1,367.28,257.09Z" transform="translate(-361.885 -247.929)" fill="#fff" stroke="#646060" stroke-linecap="round" stroke-linejoin="round" stroke-miterlimit="10" stroke-width="0.5"/>
      <ellipse id="Ellipse_7658" data-name="Ellipse 7658" cx="1.091" cy="1.806" rx="1.091" ry="1.806" transform="translate(5.243 11.669)" fill="#44cef5" stroke="#646060" stroke-linecap="round" stroke-linejoin="round" stroke-miterlimit="10" stroke-width="0.5"/>
      <ellipse id="Ellipse_7659" data-name="Ellipse 7659" cx="1.091" cy="1.806" rx="1.091" ry="1.806" transform="translate(7.525 11.669)" fill="#44cef5" stroke="#646060" stroke-linecap="round" stroke-linejoin="round" stroke-miterlimit="10" stroke-width="0.5"/>
      <path id="Path_32743" data-name="Path 32743" d="M358.28,289.79c.09,1.338.259,2.331.511,2.331h7.577c.214,0,.356-.994.431-2.331Z" transform="translate(-355.127 -272.484)" fill="#f3d854" stroke="#646060" stroke-linecap="round" stroke-linejoin="round" stroke-miterlimit="10" stroke-width="0.5"/>
      <path id="Path_32744" data-name="Path 32744" d="M367.457,220.31h-1.136c-1.255,0-2.272.428-2.272.959v2.77a19.436,19.436,0,0,0,5.681,0v-2.77C369.729,220.738,368.71,220.31,367.457,220.31Z" transform="translate(-359.46 -220.31)" fill="#d8014c" stroke="#646060" stroke-miterlimit="10" stroke-width="0.5"/>
      <rect id="Rectangle_8970" data-name="Rectangle 8970" width="1.034" height="3.661" transform="translate(6.907 0.115)" fill="#f3d854" stroke="#f3d854" stroke-linecap="round" stroke-linejoin="round" stroke-miterlimit="10" stroke-width="0.5"/>
      <path id="Path_32745" data-name="Path 32745" d="M367.457,220.31h-1.136c-1.255,0-2.272.428-2.272.959v2.77a19.436,19.436,0,0,0,5.681,0v-2.77C369.729,220.738,368.71,220.31,367.457,220.31Z" transform="translate(-359.46 -220.31)" fill="none" stroke="#646060" stroke-miterlimit="10" stroke-width="0.5"/>
      <line id="Line_1181" data-name="Line 1181" y2="1.988" transform="translate(6.907 0.897)" fill="none" stroke="#fff" stroke-linecap="round" stroke-linejoin="round" stroke-miterlimit="10" stroke-width="0.5"/>
      <g id="Group_18515" data-name="Group 18515" transform="translate(8.115 4.652)">
        <g id="Group_18514" data-name="Group 18514">
          <path id="Path_32746" data-name="Path 32746" d="M378.231,239.85c.13-.09.269-.164.408-.242s.262-.162.394-.239a1.075,1.075,0,0,1,.436-.144,1.536,1.536,0,0,0,.466-.047.073.073,0,0,0,0-.13.89.89,0,0,0-.511-.045,1.358,1.358,0,0,0-.491.152,2.335,2.335,0,0,0-.727.67c-.015.015.01.035.025.025Z" transform="translate(-378.202 -238.988)" fill="#333"/>
        </g>
      </g>
      <g id="Group_18517" data-name="Group 18517" transform="translate(7.473 7.728)">
        <g id="Group_18516" data-name="Group 18516">
          <path id="Path_32747" data-name="Path 32747" d="M376.125,251.695h0c-.055.052-.112.1-.169.154a.234.234,0,0,0,.07-.025c.017-.012.035-.025.055-.037a.22.22,0,0,0,.067-.11.009.009,0,0,1,0,0s0-.007,0-.012a.247.247,0,0,0,0-.135.266.266,0,0,0-.07-.112l-.055-.04a.3.3,0,0,0-.137-.035.19.19,0,0,0-.1.022.21.21,0,0,0-.087.052.239.239,0,0,0-.07.112.247.247,0,0,0,0,.135s0,.007.005.012,0,0,0,0v0a.171.171,0,0,0,.047.082.2.2,0,0,0,.075.062.181.181,0,0,0,.07.025l-.169-.157h0c.008.017.017.035.025.052a.166.166,0,0,0,.062.062.137.137,0,0,0,.052.03.2.2,0,0,0,.092.02l.065-.007.057-.022a.166.166,0,0,0,.067-.057.172.172,0,0,0,.042-.075Z" transform="translate(-375.622 -251.338)" fill="#333"/>
        </g>
      </g>
      <g id="Group_18519" data-name="Group 18519" transform="translate(6.756 7.728)">
        <g id="Group_18518" data-name="Group 18518">
          <path id="Path_32748" data-name="Path 32748" d="M373.245,251.695h0c-.055.052-.112.1-.169.154a.234.234,0,0,0,.07-.025c.017-.012.035-.025.055-.037a.22.22,0,0,0,.067-.11.009.009,0,0,1,0,0s0-.007.005-.012a.247.247,0,0,0,0-.135.266.266,0,0,0-.07-.112l-.055-.04a.3.3,0,0,0-.137-.035.19.19,0,0,0-.1.022.21.21,0,0,0-.087.052.239.239,0,0,0-.07.112.247.247,0,0,0,0,.135s0,.007,0,.012,0,0,0,0v0a.171.171,0,0,0,.047.082.2.2,0,0,0,.075.062.181.181,0,0,0,.07.025l-.169-.157h0c.007.017.017.035.025.052a.166.166,0,0,0,.062.062.137.137,0,0,0,.052.03.2.2,0,0,0,.092.02l.065-.007.057-.022a.166.166,0,0,0,.067-.057.172.172,0,0,0,.042-.075Z" transform="translate(-372.743 -251.338)" fill="#333"/>
        </g>
      </g>
      <g id="Group_18521" data-name="Group 18521" transform="translate(5.089 4.653)">
        <g id="Group_18520" data-name="Group 18520">
          <path id="Path_32749" data-name="Path 32749" d="M367.82,239.826a2.334,2.334,0,0,0-.727-.67,1.343,1.343,0,0,0-.476-.149.919.919,0,0,0-.526.042.073.073,0,0,0,0,.13,1.62,1.62,0,0,0,.466.047,1.05,1.05,0,0,1,.436.144c.135.077.259.164.394.239s.276.152.409.242c.015.01.037-.01.025-.025Z" transform="translate(-366.052 -238.989)" fill="#333"/>
        </g>
      </g>
      <path id="Path_32750" data-name="Path 32750" d="M358.878,244.92s-1.4,2.409.349,3.958" transform="translate(-355.176 -238.79)" fill="none" stroke="#fff" stroke-linecap="round" stroke-linejoin="round" stroke-miterlimit="10" stroke-width="0.5"/>
      <path id="Path_32751" data-name="Path 32751" d="M368.08,302.21a8.968,8.968,0,0,1,1.168,2.2c.03.538,1.793,1.629,2.279,1.509a14.118,14.118,0,0,1,3.412-.448" transform="translate(-362.486 -281.811)" fill="none" stroke="#fff" stroke-linecap="round" stroke-linejoin="round" stroke-miterlimit="10" stroke-width="0.5"/>
      <line id="Line_1182" data-name="Line 1182" x2="6.748" transform="translate(4.1 18.472)" fill="none" stroke="#fff" stroke-linecap="round" stroke-linejoin="round" stroke-miterlimit="10" stroke-width="0.5"/>
    </g>
    <path id="Path_32752" data-name="Path 32752" d="M427.15,345.85s2.239,1.24,3.569,1.108" transform="translate(-61.223 -94.271)" fill="none" stroke="#fff" stroke-linecap="round" stroke-linejoin="round" stroke-miterlimit="10" stroke-width="0.5"/>
    <g id="Group_18523" data-name="Group 18523" transform="translate(363.686 253.146)">
      <path id="Path_32753" data-name="Path 32753" d="M421.451,353.03l.67,1.739,1.739.67-1.694.715-.715,1.694-.675-1.734-1.736-.675,1.773-.635Z" transform="translate(-418.818 -352.808)" fill="#fff"/>
      <path id="Path_32754" data-name="Path 32754" d="M420.783,357.406h0a.224.224,0,0,1-.207-.144l-.638-1.641-1.641-.638a.229.229,0,0,1-.144-.212.222.222,0,0,1,.149-.209l1.671-.6.6-1.671a.224.224,0,0,1,.421-.005l.635,1.646,1.646.635a.228.228,0,0,1,.144.207.225.225,0,0,1-.137.212l-1.609.68-.68,1.609A.236.236,0,0,1,420.783,357.406Zm-1.766-2.628,1.173.456a.228.228,0,0,1,.13.13l.473,1.216.5-1.183a.217.217,0,0,1,.12-.12l1.181-.5-1.218-.471a.222.222,0,0,1-.129-.13L420.79,353l-.431,1.2a.233.233,0,0,1-.137.137Zm1.128-.643Z" transform="translate(-418.15 -352.14)" fill="#636060"/>
    </g>
    <g id="Group_18524" data-name="Group 18524" transform="translate(377.116 246.192)">
      <path id="Path_32755" data-name="Path 32755" d="M475.849,325.12l.281,1.841,1.554,1.029-1.808.334-1.061,1.5-.286-1.838-1.549-1.031,1.868-.242Z" transform="translate(-472.753 -324.896)" fill="#fff"/>
      <path id="Path_32756" data-name="Path 32756" d="M474.082,329.368h0a.226.226,0,0,1-.172-.184l-.272-1.741-1.467-.976a.23.23,0,0,1-.095-.239.226.226,0,0,1,.192-.172l1.763-.227.947-1.5a.223.223,0,0,1,.237-.1.228.228,0,0,1,.177.187l.267,1.744,1.47.974a.224.224,0,0,1-.082.408l-1.719.316-1.009,1.427A.23.23,0,0,1,474.082,329.368Zm-1.161-2.944,1.049.7a.224.224,0,0,1,.1.152l.2,1.29.742-1.046a.238.238,0,0,1,.142-.092l1.26-.232-1.088-.72a.221.221,0,0,1-.1-.154l-.189-1.243-.68,1.081a.227.227,0,0,1-.162.1Zm1.243-.386Z" transform="translate(-472.069 -324.22)" fill="#636060"/>
    </g>
    <circle id="Ellipse_7660" data-name="Ellipse 7660" cx="0.593" cy="0.593" r="0.593" transform="translate(361.299 251.97)" fill="#44cef5" stroke="#646060" stroke-linecap="round" stroke-linejoin="round" stroke-miterlimit="10" stroke-width="0.5"/>
    <circle id="Ellipse_7661" data-name="Ellipse 7661" cx="0.593" cy="0.593" r="0.593" transform="translate(372.202 246.127)" fill="#44cef5" stroke="#646060" stroke-linecap="round" stroke-linejoin="round" stroke-miterlimit="10" stroke-width="0.5"/>
    <circle id="Ellipse_7662" data-name="Ellipse 7662" cx="0.593" cy="0.593" r="0.593" transform="translate(372.276 252.336)" fill="#44cef5" stroke="#646060" stroke-linecap="round" stroke-linejoin="round" stroke-miterlimit="10" stroke-width="0.5"/>
  </g>
</svg>
