<svg xmlns="http://www.w3.org/2000/svg" width="11.962" height="11.907" viewBox="0 0 11.962 11.907">
  <path id="Icon_material-wb-sunny" data-name="Icon material-wb-sunny" d="M4.632,3.158l-.979-.973-.767.767.973.973Zm-1.5,3.077H1.5V7.322H3.131ZM8.025.825H6.937v1.6H8.025V.825Zm4.051,2.126-.767-.767-.973.973.767.767ZM10.33,10.4l.973.979.767-.767-.979-.973-.761.761Zm1.5-4.165V7.322h1.631V6.235ZM7.481,3.516a3.262,3.262,0,1,0,3.262,3.262A3.265,3.265,0,0,0,7.481,3.516Zm-.544,9.216H8.025v-1.6H6.937ZM2.886,10.607l.767.767.973-.979L3.86,9.628Z" transform="translate(-1.5 -0.825)" fill="#abe236"/>
</svg>
