<svg id="Bold-L" xmlns="http://www.w3.org/2000/svg" width="19.966" height="21.154" viewBox="0 0 19.966 21.154">
  <path id="Path_33119" data-name="Path 33119" d="M11.231-96.265c0,3.314,2.1,5.977,4.922,5.977H19.1a9.583,9.583,0,0,0,4.215.944h1.265a12.9,12.9,0,0,0,2.894-.238,2.723,2.723,0,0,0,2.265-2.58,1.886,1.886,0,0,0-.091-.566,2.547,2.547,0,0,0,.979-2.013,2.514,2.514,0,0,0-.2-.993,2.635,2.635,0,0,0,.657-1.762,2.658,2.658,0,0,0-.294-1.223,2.793,2.793,0,0,0,.405-1.51,2.586,2.586,0,0,0-2.622-2.65H25.3c-.2,0-.328-.091-.308-.273.1-.895,1.475-3.062,1.475-4.88a2.356,2.356,0,0,0-2.384-2.468c-1,0-1.7.531-2.335,1.755a38.637,38.637,0,0,1-4.439,6.453h-1.5C13.16-102.291,11.231-99.634,11.231-96.265Zm5.907-.091a6.972,6.972,0,0,1,1.636-4.712,44.337,44.337,0,0,0,4.635-6.774c.238-.475.405-.594.657-.594.315,0,.51.224.51.6,0,1.209-1.517,3.46-1.517,4.963a1.946,1.946,0,0,0,2.174,1.895h3.258a.783.783,0,0,1,.8.8,1,1,0,0,1-.356.783.822.822,0,0,0-.077,1.133,1.219,1.219,0,0,1,.315.762.985.985,0,0,1-.461.811.919.919,0,0,0-.294,1.2,1.429,1.429,0,0,1,.238.72c0,.384-.238.678-.713.93a.815.815,0,0,0-.329,1.049,1.33,1.33,0,0,1,.168.6c0,.35-.259.622-.811.762a11.978,11.978,0,0,1-2.587.182l-1.063-.014C19.633-91.287,17.138-93.343,17.138-96.356Zm-4.055.091c0-2.265,1.112-4.034,2.44-4.153.2-.007.412-.007.622-.014a8.657,8.657,0,0,0-.909,4.1,6.306,6.306,0,0,0,1.6,4.271c-.28,0-.587,0-.881-.007C14.376-92.189,13.083-93.993,13.083-96.265Z" transform="translate(-11.231 110.498)" fill="#5c5c5c"/>
</svg>
