<svg xmlns="http://www.w3.org/2000/svg" width="55.924" height="42.062" viewBox="0 0 55.924 42.062">
  <g id="kit_vicio" transform="translate(-301.434 -215.01)">
    <path id="Path_31255" data-name="Path 31255" d="M519.3,292.611s6.032-.706,6.841.439-.816,7.978-3.5,9.04-3.526-.227-3.526-.227l.563-1.474s3.93,2.017,4.917-6.036c0,0-1.208-.654-5.183-.333S519.3,292.611,519.3,292.611Z" transform="translate(-169.398 -60.363)" fill="#d6d6d6" stroke="#636060" stroke-linecap="round" stroke-linejoin="round" stroke-miterlimit="10" stroke-width="0.7"/>
    <path id="Path_31256" data-name="Path 31256" d="M491.338,276.527l-9.467-.608c-1.26-.08-2.132,12.583-1.063,13.821l-.1,1.524a17.079,17.079,0,0,0,9.93.638l.106-1.66C491.965,288.534,492.634,276.611,491.338,276.527Z" transform="translate(-140.176 -47.452)" fill="#f3d854" stroke="#636060" stroke-linecap="round" stroke-linejoin="round" stroke-miterlimit="10" stroke-width="0.7"/>
    <line id="Line_1002" data-name="Line 1002" x1="0.721" y2="11.196" transform="translate(348.472 231.586)" fill="#f3d854" stroke="#636060" stroke-linecap="round" stroke-linejoin="round" stroke-miterlimit="10" stroke-width="0.7"/>
    <line id="Line_1003" data-name="Line 1003" x1="0.721" y2="11.196" transform="translate(346.45 231.456)" fill="#f3d854" stroke="#636060" stroke-linecap="round" stroke-linejoin="round" stroke-miterlimit="10" stroke-width="0.7"/>
    <line id="Line_1004" data-name="Line 1004" x1="0.721" y2="11.196" transform="translate(344.429 231.326)" fill="#f3d854" stroke="#636060" stroke-linecap="round" stroke-linejoin="round" stroke-miterlimit="10" stroke-width="0.7"/>
    <line id="Line_1005" data-name="Line 1005" x1="0.721" y2="11.196" transform="translate(342.407 231.196)" fill="#f3d854" stroke="#636060" stroke-linecap="round" stroke-linejoin="round" stroke-miterlimit="10" stroke-width="0.7"/>
    <circle id="Ellipse_7469" data-name="Ellipse 7469" cx="1.428" cy="1.428" r="1.428" transform="translate(349.073 226.93)" fill="#fff" stroke="#636060" stroke-linecap="round" stroke-linejoin="round" stroke-miterlimit="10" stroke-width="0.7"/>
    <circle id="Ellipse_7470" data-name="Ellipse 7470" cx="1.428" cy="1.428" r="1.428" transform="translate(347.753 225.208)" fill="#fff" stroke="#636060" stroke-linecap="round" stroke-linejoin="round" stroke-miterlimit="10" stroke-width="0.7"/>
    <circle id="Ellipse_7471" data-name="Ellipse 7471" cx="1.428" cy="1.428" r="1.428" transform="translate(345.742 223.658)" fill="#fff" stroke="#636060" stroke-linecap="round" stroke-linejoin="round" stroke-miterlimit="10" stroke-width="0.7"/>
    <circle id="Ellipse_7472" data-name="Ellipse 7472" cx="1.428" cy="1.428" r="1.428" transform="translate(350.116 224.993)" fill="#fff" stroke="#636060" stroke-linecap="round" stroke-linejoin="round" stroke-miterlimit="10" stroke-width="0.7"/>
    <circle id="Ellipse_7473" data-name="Ellipse 7473" cx="1.428" cy="1.428" r="1.428" transform="translate(341.206 224.119)" fill="#fff" stroke="#636060" stroke-linecap="round" stroke-linejoin="round" stroke-miterlimit="10" stroke-width="0.7"/>
    <circle id="Ellipse_7474" data-name="Ellipse 7474" cx="1.428" cy="1.428" r="1.428" transform="translate(345.535 226.106)" fill="#fff" stroke="#636060" stroke-linecap="round" stroke-linejoin="round" stroke-miterlimit="10" stroke-width="0.7"/>
    <circle id="Ellipse_7475" data-name="Ellipse 7475" cx="1.428" cy="1.428" r="1.428" transform="translate(343.31 225.104)" fill="#fff" stroke="#636060" stroke-linecap="round" stroke-linejoin="round" stroke-miterlimit="10" stroke-width="0.7"/>
    <circle id="Ellipse_7476" data-name="Ellipse 7476" cx="1.428" cy="1.428" r="1.428" transform="translate(341.052 226.597)" fill="#fff" stroke="#636060" stroke-linecap="round" stroke-linejoin="round" stroke-miterlimit="10" stroke-width="0.7"/>
    <circle id="Ellipse_7477" data-name="Ellipse 7477" cx="1.428" cy="1.428" r="1.428" transform="translate(343.143 227.668)" fill="#fff" stroke="#636060" stroke-linecap="round" stroke-linejoin="round" stroke-miterlimit="10" stroke-width="0.7"/>
    <circle id="Ellipse_7478" data-name="Ellipse 7478" cx="1.428" cy="1.428" r="1.428" transform="translate(346.868 227.623)" fill="#fff" stroke="#636060" stroke-linecap="round" stroke-linejoin="round" stroke-miterlimit="10" stroke-width="0.7"/>
    <circle id="Ellipse_7479" data-name="Ellipse 7479" cx="0.82" cy="0.82" r="0.82" transform="translate(346.961 235.185)" fill="#fff" stroke="#636060" stroke-linecap="round" stroke-linejoin="round" stroke-miterlimit="10" stroke-width="0.7"/>
    <circle id="Ellipse_7480" data-name="Ellipse 7480" cx="0.82" cy="0.82" r="0.82" transform="translate(342.866 237.927)" fill="#fff" stroke="#636060" stroke-linecap="round" stroke-linejoin="round" stroke-miterlimit="10" stroke-width="0.7"/>
    <circle id="Ellipse_7481" data-name="Ellipse 7481" cx="0.82" cy="0.82" r="0.82" transform="translate(344.714 241.251)" fill="#fff" stroke="#636060" stroke-linecap="round" stroke-linejoin="round" stroke-miterlimit="10" stroke-width="0.7"/>
    <circle id="Ellipse_7482" data-name="Ellipse 7482" cx="0.82" cy="0.82" r="0.82" transform="translate(347.476 231.597)" fill="#fff" stroke="#636060" stroke-linecap="round" stroke-linejoin="round" stroke-miterlimit="10" stroke-width="0.7"/>
    <circle id="Ellipse_7483" data-name="Ellipse 7483" cx="0.82" cy="0.82" r="0.82" transform="translate(343.076 232.417)" fill="#fff" stroke="#636060" stroke-linecap="round" stroke-linejoin="round" stroke-miterlimit="10" stroke-width="0.7"/>
    <path id="Path_31257" data-name="Path 31257" d="M484.977,288.66s-.8,6.794-.348,10.283" transform="translate(-143.438 -57.436)" fill="#fff" stroke="#fff" stroke-linecap="round" stroke-linejoin="round" stroke-miterlimit="10" stroke-width="0.7"/>
    <path id="Path_31258" data-name="Path 31258" d="M526.632,291.45s-.076,6.839-.972,10.244" transform="translate(-175.697 -59.622)" fill="#fff" stroke="#fff" stroke-linecap="round" stroke-linejoin="round" stroke-miterlimit="10" stroke-width="0.7"/>
    <g id="Group_17167" data-name="Group 17167" transform="translate(319.085 221.343)">
      <path id="Path_31259" data-name="Path 31259" d="M390.585,297.235c-.491.926-1.247.846-2.162.158-.6.634-1.2.753-1.775.13-.714.738-1.4,1.065-1.97.145a12.831,12.831,0,0,1-.312-4.233,46.668,46.668,0,0,0-.587-8.932l5.772-.342c-.017,3.448.093,6.986.721,8.841A12.85,12.85,0,0,1,390.585,297.235Z" transform="translate(-383.609 -275.253)" fill="#000929" stroke="#636060" stroke-linecap="round" stroke-linejoin="round" stroke-miterlimit="10" stroke-width="0.7"/>
      <path id="Path_31260" data-name="Path 31260" d="M389.78,281.63l-5.66.416.563,5.015,5.246-.385Z" transform="translate(-383.875 -273.27)" fill="#d8014c" stroke="#636060" stroke-linecap="round" stroke-linejoin="round" stroke-miterlimit="10" stroke-width="0.7"/>
      <path id="Path_31261" data-name="Path 31261" d="M387.907,253.441h0a9.575,9.575,0,0,1-1.227-3.279s-2.814-1.383-2.526.186a7.83,7.83,0,0,1-.463,3.376,1.617,1.617,0,0,0-.7,1.439l.171,2.34,5.768-.424-.171-2.34A1.612,1.612,0,0,0,387.907,253.441Z" transform="translate(-382.99 -248.171)" fill="#000929" stroke="#636060" stroke-linecap="round" stroke-linejoin="round" stroke-miterlimit="10" stroke-width="0.7"/>
      <path id="Path_31262" data-name="Path 31262" d="M388.706,245.232l-2.736.2a.533.533,0,0,1-.569-.491l-.087-1.167a.533.533,0,0,1,.491-.569l2.736-.2a.533.533,0,0,1,.569.491l.087,1.167A.532.532,0,0,1,388.706,245.232Z" transform="translate(-384.81 -243.003)" fill="#d8014c" stroke="#636060" stroke-linecap="round" stroke-linejoin="round" stroke-miterlimit="10" stroke-width="0.7"/>
      <path id="Path_31263" data-name="Path 31263" d="M392.053,317.775a20.648,20.648,0,0,0-.043-5.415" transform="translate(-390.058 -297.349)" fill="#000929" stroke="#fff" stroke-linecap="round" stroke-linejoin="round" stroke-miterlimit="10" stroke-width="0.7"/>
      <line id="Line_1006" data-name="Line 1006" x2="0.091" y2="1.227" transform="translate(1.173 6.59)" fill="#000929" stroke="#fff" stroke-linecap="round" stroke-linejoin="round" stroke-miterlimit="10" stroke-width="0.7"/>
    </g>
    <g id="Group_17169" data-name="Group 17169" transform="translate(307.794 218.768)">
      <path id="Path_31264" data-name="Path 31264" d="M332.426,233.77a4.134,4.134,0,0,0-.1,1.775,2.645,2.645,0,0,1,.071,1.022c-.063.268-.221.593-.019.779a3.227,3.227,0,0,0,1.478-1.1,1.8,1.8,0,0,0,.335-.68,4.694,4.694,0,0,0,.017-.907,2.639,2.639,0,0,1,.275-1.156c.1-.21.219-.506.028-.643-.165-.117-.392.017-.591-.015-.232-.039-.418-.305-.643-.242a.47.47,0,0,0-.195.136,3.177,3.177,0,0,0-.654,1.028" transform="translate(-331.957 -232.273)" fill="#d6d6d6"/>
      <g id="Group_17168" data-name="Group 17168" transform="translate(0 0)">
        <path id="Path_31265" data-name="Path 31265" d="M330.979,232.515a4.862,4.862,0,0,0-.067,2.162,2.035,2.035,0,0,1,.05.511,2.514,2.514,0,0,1-.1.416.82.82,0,0,0,.145.805.318.318,0,0,0,.316.084,3.6,3.6,0,0,0,1.53-1.063,2.485,2.485,0,0,0,.483-.831,3.769,3.769,0,0,0,.056-1.1,2.483,2.483,0,0,1,.242-1.019.978.978,0,0,0,.1-.825c-.152-.318-.463-.34-.771-.3-.255.03-.424-.2-.677-.238-.353-.048-.6.232-.8.485a4.432,4.432,0,0,0-.48.842c-.182.374.379.7.561.327a4.4,4.4,0,0,1,.4-.729c.039-.052.184-.277.253-.286.013,0,.19.128.227.147a.83.83,0,0,0,.4.113,1.982,1.982,0,0,0,.225-.024.687.687,0,0,1,.093-.013c.045,0,.039-.017-.015-.063a1.577,1.577,0,0,0-.087.264,3.482,3.482,0,0,0-.2.515,3.411,3.411,0,0,0-.11,1.078,1.579,1.579,0,0,1-.184.959,2.835,2.835,0,0,1-1.413,1.136l.316.084c-.065-.074.1-.45.119-.548a2.561,2.561,0,0,0-.05-.9,4.084,4.084,0,0,1,.067-1.816.326.326,0,0,0-.63-.169Z" transform="translate(-330.822 -231.105)" fill="#636060"/>
      </g>
    </g>
    <g id="Group_17171" data-name="Group 17171" transform="translate(301.434 222.94)">
      <path id="Path_31266" data-name="Path 31266" d="M309.271,252.081a2.269,2.269,0,0,0-1.757,1.55,13.323,13.323,0,0,0-.517,2.456c-.4,2.117-1.478,4.056-1.783,6.19-.327,2.29.253,4.705-.45,6.9-.571,1.788-1.97,3.376-1.829,5.255a13.949,13.949,0,0,0,4.268.312,4.955,4.955,0,0,1,.931-.028,5.169,5.169,0,0,1,.993.262,11.588,11.588,0,0,0,6.363.2,3.885,3.885,0,0,1,.9-.167,5.182,5.182,0,0,1,.87.115,8.9,8.9,0,0,0,2.6-.115l2.273-.327a3.7,3.7,0,0,0-.5-3.121c-.55-.935-1.294-1.74-1.788-2.705-1.415-2.762-.552-6.222-1.511-9.187a15.108,15.108,0,0,0-1.918-3.575,5.6,5.6,0,0,0-1.223-1.463c-.409-.307-.9-.493-1.3-.809-.418-.329-.723-.783-1.108-1.154a3.512,3.512,0,0,0-3.5-.593" transform="translate(-302.602 -251.549)" fill="#d6d6d6"/>
      <g id="Group_17170" data-name="Group 17170" transform="translate(0)">
        <path id="Path_31267" data-name="Path 31267" d="M308.1,250.591c-1.6.16-2.2,1.822-2.418,3.19a18.274,18.274,0,0,1-.524,2.454c-.24.783-.53,1.55-.794,2.327a14.107,14.107,0,0,0-.628,2.415,15.942,15.942,0,0,0-.123,2.571,12,12,0,0,1-.563,5c-.649,1.532-1.723,2.985-1.612,4.727a.337.337,0,0,0,.238.314,14.534,14.534,0,0,0,3.844.357,5.61,5.61,0,0,1,1.9.048,18.3,18.3,0,0,0,1.794.487,11.861,11.861,0,0,0,3.69.132,16.872,16.872,0,0,0,1.8-.351,6.539,6.539,0,0,1,1.9.087,11.54,11.54,0,0,0,2.166-.177l2.273-.327a.329.329,0,0,0,.227-.227c.749-2.03-.855-3.777-1.885-5.337a10.391,10.391,0,0,1-1.338-5.458,27.706,27.706,0,0,0-.236-2.9,9.556,9.556,0,0,0-.894-2.818,22.91,22.91,0,0,0-1.578-2.591,5.717,5.717,0,0,0-.922-1.119,8.163,8.163,0,0,0-1.206-.775,5.376,5.376,0,0,1-1.13-1.076,3.375,3.375,0,0,0-1.193-.874,4.268,4.268,0,0,0-2.874-.058.325.325,0,0,0,.173.625,3.674,3.674,0,0,1,2.418.013c.831.333,1.232,1.145,1.911,1.675.357.279.768.463,1.147.708a3.674,3.674,0,0,1,.985,1.017,24.471,24.471,0,0,1,1.53,2.437,9.116,9.116,0,0,1,.948,2.651,20.41,20.41,0,0,1,.258,2.766,13.142,13.142,0,0,0,.963,5.287c.857,1.734,3.095,3.5,2.3,5.657l.227-.227a32.6,32.6,0,0,1-3.85.487,5.1,5.1,0,0,1-.944-.061,4.231,4.231,0,0,0-.961-.106,17.093,17.093,0,0,0-1.757.359,11.153,11.153,0,0,1-3.677.011,12.288,12.288,0,0,1-1.775-.439,4.29,4.29,0,0,0-1.775-.212,14.047,14.047,0,0,1-4.285-.292c.08.1.158.208.238.314-.093-1.478.762-2.753,1.361-4.036a8.134,8.134,0,0,0,.7-2.182,14.247,14.247,0,0,0,.134-2.353c-.009-.833-.048-1.667-.013-2.5a10.443,10.443,0,0,1,.39-2.409c.424-1.515,1.084-2.956,1.42-4.5a18.932,18.932,0,0,1,.539-2.651,2,2,0,0,1,1.478-1.4c.413-.05.418-.7,0-.658Z" transform="translate(-301.434 -250.384)" fill="#636060"/>
      </g>
    </g>
    <path id="Path_31268" data-name="Path 31268" d="M326.092,265.515l-.907.294a.759.759,0,0,1-.957-.487l-.294-.907a.759.759,0,0,1,.487-.957l.907-.294a.759.759,0,0,1,.957.487l.294.907A.759.759,0,0,1,326.092,265.515Z" transform="translate(-17.602 -37.429)" fill="#44cef5"/>
    <path id="Path_31269" data-name="Path 31269" d="M342.022,260.975l-.907.294a.759.759,0,0,1-.957-.487l-.294-.907a.759.759,0,0,1,.487-.957l.907-.294a.759.759,0,0,1,.957.487l.294.907A.756.756,0,0,1,342.022,260.975Z" transform="translate(-30.084 -33.871)" fill="#44cef5"/>
    <path id="Path_31270" data-name="Path 31270" d="M323.832,283.635l-.907.294a.759.759,0,0,1-.957-.487l-.294-.907a.759.759,0,0,1,.487-.957l.907-.294a.759.759,0,0,1,.957.487l.294.907A.756.756,0,0,1,323.832,283.635Z" transform="translate(-15.831 -51.627)" fill="#44cef5"/>
    <path id="Path_31271" data-name="Path 31271" d="M339.772,279.095l-.907.294a.759.759,0,0,1-.957-.487l-.294-.907a.759.759,0,0,1,.487-.957l.907-.294a.759.759,0,0,1,.957.487l.294.907A.759.759,0,0,1,339.772,279.095Z" transform="translate(-28.321 -48.07)" fill="#44cef5"/>
    <path id="Path_31272" data-name="Path 31272" d="M355.7,274.545l-.907.294a.76.76,0,0,1-.957-.487l-.294-.907a.759.759,0,0,1,.487-.957l.907-.294a.759.759,0,0,1,.957.487l.294.907A.756.756,0,0,1,355.7,274.545Z" transform="translate(-40.803 -44.504)" fill="#44cef5"/>
    <path id="Path_31273" data-name="Path 31273" d="M321.072,301.415l-.907.294a.759.759,0,0,1-.957-.487l-.294-.907a.759.759,0,0,1,.487-.957l.907-.294a.759.759,0,0,1,.957.487l.294.907A.756.756,0,0,1,321.072,301.415Z" transform="translate(-13.668 -65.559)" fill="#44cef5"/>
    <path id="Path_31274" data-name="Path 31274" d="M337.012,296.865l-.907.294a.759.759,0,0,1-.957-.487l-.294-.907a.759.759,0,0,1,.487-.957l.907-.294a.759.759,0,0,1,.957.487l.294.907A.758.758,0,0,1,337.012,296.865Z" transform="translate(-26.158 -61.994)" fill="#44cef5"/>
    <path id="Path_31275" data-name="Path 31275" d="M352.942,292.325l-.907.294a.759.759,0,0,1-.957-.487l-.294-.907a.759.759,0,0,1,.487-.957l.907-.294a.759.759,0,0,1,.957.487l.294.907A.756.756,0,0,1,352.942,292.325Z" transform="translate(-38.64 -58.436)" fill="#44cef5"/>
    <path id="Path_31276" data-name="Path 31276" d="M318.822,319.535l-.907.294a.759.759,0,0,1-.957-.487l-.294-.907a.759.759,0,0,1,.487-.957l.907-.294a.759.759,0,0,1,.957.487l.294.907A.759.759,0,0,1,318.822,319.535Z" transform="translate(-11.905 -79.757)" fill="#44cef5"/>
    <path id="Path_31277" data-name="Path 31277" d="M334.752,314.985l-.907.294a.759.759,0,0,1-.957-.487l-.294-.907a.759.759,0,0,1,.487-.957l.907-.294a.759.759,0,0,1,.957.487l.294.907A.756.756,0,0,1,334.752,314.985Z" transform="translate(-24.387 -76.192)" fill="#44cef5"/>
    <path id="Path_31278" data-name="Path 31278" d="M350.692,310.445l-.907.294a.759.759,0,0,1-.957-.487l-.294-.907a.759.759,0,0,1,.487-.957l.907-.294a.759.759,0,0,1,.957.487l.294.907A.76.76,0,0,1,350.692,310.445Z" transform="translate(-36.877 -72.634)" fill="#44cef5"/>
    <path id="Path_31279" data-name="Path 31279" d="M316.062,337.3l-.907.294a.759.759,0,0,1-.957-.487l-.294-.907a.759.759,0,0,1,.487-.957l.907-.294a.759.759,0,0,1,.957.487l.294.907A.76.76,0,0,1,316.062,337.3Z" transform="translate(-9.742 -93.681)" fill="#44cef5"/>
    <path id="Path_31280" data-name="Path 31280" d="M331.992,332.765l-.907.294a.759.759,0,0,1-.957-.487l-.294-.907a.759.759,0,0,1,.487-.957l.907-.294a.759.759,0,0,1,.957.487l.294.907A.756.756,0,0,1,331.992,332.765Z" transform="translate(-22.225 -90.124)" fill="#44cef5"/>
    <path id="Path_31281" data-name="Path 31281" d="M347.932,328.225l-.907.294a.759.759,0,0,1-.957-.487l-.294-.907a.759.759,0,0,1,.487-.957l.907-.294a.759.759,0,0,1,.957.487l.294.907A.759.759,0,0,1,347.932,328.225Z" transform="translate(-34.715 -86.566)" fill="#44cef5"/>
    <path id="Path_31282" data-name="Path 31282" d="M363.862,323.675l-.907.294a.759.759,0,0,1-.957-.487l-.294-.907a.759.759,0,0,1,.487-.957l.907-.294a.759.759,0,0,1,.957.487l.294.907A.756.756,0,0,1,363.862,323.675Z" transform="translate(-47.197 -83.001)" fill="#44cef5"/>
    <ellipse id="Ellipse_7484" data-name="Ellipse 7484" cx="5.9" cy="4.565" rx="5.9" ry="4.565" transform="translate(304.976 230.778)" fill="#fff" stroke="#636060" stroke-linecap="round" stroke-linejoin="round" stroke-miterlimit="10" stroke-width="0.7"/>
    <text id="ICE" transform="translate(306.503 237.424)" fill="#000929" font-size="5" font-family="SegoeUI-Bold, Segoe UI" font-weight="700"><tspan x="0" y="0">ICE</tspan></text>
    <path id="Path_31283" data-name="Path 31283" d="M306.56,352.08a24.172,24.172,0,0,0,3.536.26c.879-.1,5.5,1.454,8.722.052,0,0,4.675.3,5.454-.312" transform="translate(-4.017 -107.13)" fill="none" stroke="#fff" stroke-linecap="round" stroke-linejoin="round" stroke-miterlimit="10" stroke-width="0.7"/>
    <g id="Group_17172" data-name="Group 17172" transform="translate(309.234 241.225)">
      <path id="Path_31284" data-name="Path 31284" d="M339.672,346.345l-.907.294a.759.759,0,0,1-.957-.487l-.294-.907a.759.759,0,0,1,.487-.957l.907-.294a.759.759,0,0,1,.957.487l.294.907A.758.758,0,0,1,339.672,346.345Z" transform="translate(-337.477 -341.99)" fill="#44cef5"/>
      <path id="Path_31285" data-name="Path 31285" d="M355.612,341.795l-.907.294a.759.759,0,0,1-.957-.487l-.294-.907a.759.759,0,0,1,.487-.957l.907-.294a.759.759,0,0,1,.957.487l.294.907A.759.759,0,0,1,355.612,341.795Z" transform="translate(-349.967 -338.424)" fill="#44cef5"/>
      <path id="Path_31286" data-name="Path 31286" d="M371.542,337.255l-.907.294a.759.759,0,0,1-.957-.487l-.294-.907a.759.759,0,0,1,.487-.957l.907-.294a.759.759,0,0,1,.957.487l.294.907A.756.756,0,0,1,371.542,337.255Z" transform="translate(-362.449 -334.867)" fill="#44cef5"/>
    </g>
    <g id="Group_17173" data-name="Group 17173" transform="translate(326.275 215.36)">
      <path id="Path_31287" data-name="Path 31287" d="M428.679,241.061l-4.688-3.322V235.6h-2.286v2.186l-4.621,3.275h-.848v.6l-.026.017h.026v1.1h1.117V258.52h-1.117v1.721h13.317V258.52h-1.34V242.783h1.34v-1.723Z" transform="translate(-416.21 -231.219)" fill="#e2a364" stroke="#636060" stroke-linecap="round" stroke-linejoin="round" stroke-miterlimit="10" stroke-width="0.7"/>
      <rect id="Rectangle_8833" data-name="Rectangle 8833" width="2.288" height="3.716" transform="translate(5.495 0)" fill="#000929" stroke="#636060" stroke-linecap="round" stroke-linejoin="round" stroke-miterlimit="10" stroke-width="0.7"/>
      <ellipse id="Ellipse_7485" data-name="Ellipse 7485" cx="3.681" cy="6.88" rx="3.681" ry="6.88" transform="translate(2.928 11.564)" fill="#f3d854" stroke="#636060" stroke-linecap="round" stroke-linejoin="round" stroke-miterlimit="10" stroke-width="0.7"/>
      <path id="Path_31288" data-name="Path 31288" d="M440.31,254.59" transform="translate(-435.094 -246.099)" fill="none" stroke="#fff" stroke-linecap="round" stroke-linejoin="round" stroke-miterlimit="10" stroke-width="0.7"/>
      <line id="Line_1007" data-name="Line 1007" x2="8.313" transform="translate(2.37 27.515)" fill="none" stroke="#fff" stroke-linecap="round" stroke-linejoin="round" stroke-miterlimit="10" stroke-width="0.7"/>
      <ellipse id="Ellipse_7486" data-name="Ellipse 7486" cx="1.619" cy="3.024" rx="1.619" ry="3.024" transform="translate(4.991 15.421)" fill="#000929"/>
      <line id="Line_1008" data-name="Line 1008" y1="1.957" x2="2.398" transform="translate(2.428 8.824)" fill="none" stroke="#fff" stroke-linecap="round" stroke-linejoin="round" stroke-miterlimit="10" stroke-width="0.7"/>
    </g>
    <g id="Group_17175" data-name="Group 17175" transform="translate(335.88 238.882)">
      <g id="Group_17174" data-name="Group 17174" transform="translate(0 0.898)">
        <path id="Path_31289" data-name="Path 31289" d="M464.761,328.208l-2.872.483a1.427,1.427,0,0,0-1.171,1.643l2.229,13.284a1.426,1.426,0,0,0,1.643,1.171l2.872-.483a1.427,1.427,0,0,0,1.171-1.643L466.4,329.379A1.427,1.427,0,0,0,464.761,328.208Z" transform="translate(-460.675 -328.189)" fill="#d6d6d6" stroke="#636060" stroke-linecap="round" stroke-linejoin="round" stroke-miterlimit="10" stroke-width="0.7"/>
        <path id="Path_31290" data-name="Path 31290" d="M482.284,363.11l-2.684.45,1.4,8.324,1.6-.268a1.1,1.1,0,0,0,.9-1.268Z" transform="translate(-475.486 -355.552)" fill="#44cef5" stroke="#636060" stroke-linecap="round" stroke-linejoin="round" stroke-miterlimit="10" stroke-width="0.7"/>
        <path id="Path_31291" data-name="Path 31291" d="M463.111,330.29l-1.625.273a1.072,1.072,0,0,0-.881,1.236l1.219,7.266,2.684-.45Z" transform="translate(-460.589 -329.835)" fill="#44cef5" stroke="#636060" stroke-linecap="round" stroke-linejoin="round" stroke-miterlimit="10" stroke-width="0.7"/>
        <circle id="Ellipse_7487" data-name="Ellipse 7487" cx="1.688" cy="1.688" r="1.688" transform="translate(2.465 6.842)" fill="#f3d854" stroke="#636060" stroke-linecap="round" stroke-linejoin="round" stroke-miterlimit="10" stroke-width="0.7"/>
        <rect id="Rectangle_8834" data-name="Rectangle 8834" width="2.285" height="1.915" transform="matrix(0.986, -0.166, 0.166, 0.986, 2.025, 3.811)" fill="#d8014c" stroke="#636060" stroke-linecap="round" stroke-linejoin="round" stroke-miterlimit="10" stroke-width="0.7"/>
      </g>
      <path id="Path_31292" data-name="Path 31292" d="M461.176,325.912l-.316-1.872,2.123,1.238Z" transform="translate(-460.801 -324.04)" fill="#d6d6d6" stroke="#636060" stroke-linecap="round" stroke-linejoin="round" stroke-miterlimit="10" stroke-width="0.7"/>
    </g>
    <line id="Line_1009" data-name="Line 1009" x2="0.827" y2="4.415" transform="translate(338.434 250.642)" fill="#fff" stroke="#fff" stroke-linecap="round" stroke-linejoin="round" stroke-miterlimit="10" stroke-width="0.7"/>
    <g id="Group_17176" data-name="Group 17176" transform="translate(326.135 240.219)">
      <rect id="Rectangle_8835" data-name="Rectangle 8835" width="1.53" height="11.012" transform="translate(1.504 11.105) rotate(-169.362)" fill="#f3d854" stroke="#636060" stroke-linecap="round" stroke-linejoin="round" stroke-miterlimit="10" stroke-width="0.7"/>
      <rect id="Rectangle_8836" data-name="Rectangle 8836" width="1.53" height="8.038" transform="translate(1.504 11.106) rotate(-169.362)" fill="#d6d6d6" stroke="#636060" stroke-linecap="round" stroke-linejoin="round" stroke-miterlimit="10" stroke-width="0.7"/>
    </g>
    <g id="Group_17182" data-name="Group 17182" transform="translate(321.121 237.612)">
      <g id="Group_17177" data-name="Group 17177" transform="translate(6.785 2.939)">
        <rect id="Rectangle_8837" data-name="Rectangle 8837" width="1.53" height="11.012" transform="translate(1.506 11.105) rotate(-169.362)" fill="#f3d854" stroke="#636060" stroke-linecap="round" stroke-linejoin="round" stroke-miterlimit="10" stroke-width="0.7"/>
        <rect id="Rectangle_8838" data-name="Rectangle 8838" width="1.53" height="8.038" transform="translate(1.504 11.105) rotate(-169.362)" fill="#d6d6d6" stroke="#636060" stroke-linecap="round" stroke-linejoin="round" stroke-miterlimit="10" stroke-width="0.7"/>
      </g>
      <g id="Group_17181" data-name="Group 17181" transform="translate(0 0)">
        <g id="Group_17178" data-name="Group 17178" transform="translate(3.544 0.666)">
          <rect id="Rectangle_8839" data-name="Rectangle 8839" width="1.53" height="11.012" transform="translate(1.504 11.105) rotate(-169.362)" fill="#f3d854" stroke="#636060" stroke-linecap="round" stroke-linejoin="round" stroke-miterlimit="10" stroke-width="0.7"/>
          <rect id="Rectangle_8840" data-name="Rectangle 8840" width="1.53" height="8.038" transform="translate(1.504 11.106) rotate(-169.362)" fill="#d6d6d6" stroke="#636060" stroke-linecap="round" stroke-linejoin="round" stroke-miterlimit="10" stroke-width="0.7"/>
        </g>
        <g id="Group_17179" data-name="Group 17179" transform="translate(1.773 0.334)">
          <rect id="Rectangle_8841" data-name="Rectangle 8841" width="1.53" height="11.012" transform="translate(1.504 11.105) rotate(-169.362)" fill="#f3d854" stroke="#636060" stroke-linecap="round" stroke-linejoin="round" stroke-miterlimit="10" stroke-width="0.7"/>
          <rect id="Rectangle_8842" data-name="Rectangle 8842" width="1.53" height="8.038" transform="translate(1.505 11.103) rotate(-169.362)" fill="#d6d6d6" stroke="#636060" stroke-linecap="round" stroke-linejoin="round" stroke-miterlimit="10" stroke-width="0.7"/>
        </g>
        <g id="Group_17180" data-name="Group 17180">
          <rect id="Rectangle_8843" data-name="Rectangle 8843" width="1.53" height="11.012" transform="translate(1.504 11.105) rotate(-169.362)" fill="#f3d854" stroke="#636060" stroke-linecap="round" stroke-linejoin="round" stroke-miterlimit="10" stroke-width="0.7"/>
          <rect id="Rectangle_8844" data-name="Rectangle 8844" width="1.53" height="8.038" transform="translate(1.504 11.106) rotate(-169.362)" fill="#d6d6d6" stroke="#636060" stroke-linecap="round" stroke-linejoin="round" stroke-miterlimit="10" stroke-width="0.7"/>
        </g>
      </g>
    </g>
    <path id="Path_31293" data-name="Path 31293" d="M391.235,349.5l-1.623,2.238-6.233-1.035-.32-2.69-1.169-.212-2.1,10.824L390.1,360.5l2.1-10.824Z" transform="translate(-61.398 -103.776)" fill="#d6d6d6" stroke="#636060" stroke-linecap="round" stroke-linejoin="round" stroke-miterlimit="10" stroke-width="0.7"/>
    <line id="Line_1010" data-name="Line 1010" x1="1.154" y2="5.727" transform="translate(319.598 248.143)" fill="#fff" stroke="#fff" stroke-linecap="round" stroke-linejoin="round" stroke-miterlimit="10" stroke-width="0.7"/>
    <path id="Path_31294" data-name="Path 31294" d="M395.4,361.21l-.268,5.209,4.716.9,1.786-5.077Z" transform="translate(-73.418 -114.284)" fill="#d8014c" stroke="#636060" stroke-linecap="round" stroke-linejoin="round" stroke-miterlimit="10" stroke-width="0.7"/>
    <line id="Line_1011" data-name="Line 1011" x1="0.783" y1="0.128" transform="translate(330.203 241.046)" fill="#fff" stroke="#fff" stroke-linecap="round" stroke-linejoin="round" stroke-miterlimit="10" stroke-width="0.7"/>
    <line id="Line_1012" data-name="Line 1012" x1="0.781" y1="0.128" transform="translate(328.424 240.704)" fill="#fff" stroke="#fff" stroke-linecap="round" stroke-linejoin="round" stroke-miterlimit="10" stroke-width="0.7"/>
    <line id="Line_1013" data-name="Line 1013" x1="0.781" y1="0.128" transform="translate(326.937 238.804)" fill="#fff" stroke="#fff" stroke-linecap="round" stroke-linejoin="round" stroke-miterlimit="10" stroke-width="0.7"/>
    <line id="Line_1014" data-name="Line 1014" x1="0.783" y1="0.13" transform="translate(325.203 238.447)" fill="#fff" stroke="#fff" stroke-linecap="round" stroke-linejoin="round" stroke-miterlimit="10" stroke-width="0.7"/>
    <line id="Line_1015" data-name="Line 1015" x1="0.781" y1="0.13" transform="translate(323.403 238.079)" fill="#fff" stroke="#fff" stroke-linecap="round" stroke-linejoin="round" stroke-miterlimit="10" stroke-width="0.7"/>
  </g>
</svg>
