<svg xmlns="http://www.w3.org/2000/svg" width="97" height="97" viewBox="0 0 97 97">
  <g id="Group_311" data-name="Group 311" transform="translate(-817 -3036)">
    <path id="Path_73" data-name="Path 73" d="M48.5,0A48.5,48.5,0,1,1,0,48.5,48.5,48.5,0,0,1,48.5,0Z" transform="translate(817 3036)" fill="#fff"/>
    <g id="Group_141" data-name="Group 141" transform="translate(834 3084.515)">
      <path id="Path_91" data-name="Path 91" d="M0,0H40.219V40.22H0Z" fill="none"/>
      <path id="Path_92" data-name="Path 92" d="M18.082,38.412,7.417,27.747a15.082,15.082,0,1,1,21.329,0Zm8.3-13.035a11.731,11.731,0,1,0-16.59,0l8.3,8.3,8.3-8.3Z" transform="translate(2.027 1.352)" fill="#abe236"/>
    </g>
    <g id="Group_243" data-name="Group 243" transform="translate(848.266 3097.913)">
      <path id="Path_1427" data-name="Path 1427" d="M876.123,324.992H875.1a.461.461,0,0,1-.118-.013c-.368-.095-.736-.187-1.1-.284a4.22,4.22,0,0,1-.409-.123,2.651,2.651,0,0,1-.66-.346,2.219,2.219,0,0,1-.375-.338,1.667,1.667,0,0,1-.373-.726,1.594,1.594,0,0,1-.039-.535,1.528,1.528,0,0,1,.285-.773,1.436,1.436,0,0,1,.535-.449c.1-.051.209-.1.309-.165a3.075,3.075,0,0,0,.724-.611,4.1,4.1,0,0,0,.442-.621c.039-.066.076-.133.115-.2a2.331,2.331,0,0,1,.333-.458,1.934,1.934,0,0,1,.7-.483,1.744,1.744,0,0,1,.355-.1.867.867,0,0,1,.16-.02c.049,0,.1-.007.147-.008s.074,0,.111.005l.042,0a1.4,1.4,0,0,1,.3.052,1.878,1.878,0,0,1,.841.481,2.292,2.292,0,0,1,.415.552c.069.127.144.252.223.373a3.926,3.926,0,0,0,.339.446,3.08,3.08,0,0,0,.964.731l.049.025a1.43,1.43,0,0,1,.724.792,1.569,1.569,0,0,1,.095.38,1.713,1.713,0,0,1,.007.349,1.691,1.691,0,0,1-.294.821,1.915,1.915,0,0,1-.334.358,2.574,2.574,0,0,1-.647.4,4.311,4.311,0,0,1-.554.2c-.2.059-.4.11-.608.157l-.559.132a.451.451,0,0,1-.047.007c-.019,0-.037,0-.057,0Z" transform="translate(-870.241 -313.698)" fill="#abe236"/>
      <path id="Path_1428" data-name="Path 1428" d="M877.507,318.378a.347.347,0,0,1-.012.118l-.086.417a3.845,3.845,0,0,1-.139.528,1.5,1.5,0,0,1-.206.388,1.412,1.412,0,0,1-.469.4,1.773,1.773,0,0,1-.466.169,1.547,1.547,0,0,1-.214.027,1.02,1.02,0,0,1-.176-.007.869.869,0,0,1-.184-.041.847.847,0,0,1-.434-.316,1.127,1.127,0,0,1-.079-.123,3.615,3.615,0,0,1-.275-.65,2.674,2.674,0,0,1-.073-.306,1.646,1.646,0,0,1-.02-.314c0-.1.005-.193.013-.287s.012-.172.021-.258c0-.062.013-.125.02-.187l.017-.14c.015-.127.036-.253.056-.38.051-.324.115-.643.184-.962a1.593,1.593,0,0,1,.1-.306.9.9,0,0,1,.091-.165.613.613,0,0,1,.118-.128.481.481,0,0,1,.29-.1.713.713,0,0,1,.26.049,1.245,1.245,0,0,1,.24.115,3.055,3.055,0,0,1,.3.208,3.021,3.021,0,0,1,.555.571,2.761,2.761,0,0,1,.444.907,3.268,3.268,0,0,1,.09.41C877.489,318.132,877.5,318.255,877.507,318.378Z" transform="translate(-868.412 -315.751)" fill="#abe236"/>
      <path id="Path_1429" data-name="Path 1429" d="M874.133,320.418h-.046a1.265,1.265,0,0,1-.534-.122,1.392,1.392,0,0,1-.373-.258,1.852,1.852,0,0,1-.495-.809,2.283,2.283,0,0,1-.074-.334,3.25,3.25,0,0,1-.03-.572c0-.091.01-.182.02-.272a2.716,2.716,0,0,1,1.013-1.886,3.287,3.287,0,0,1,.319-.226,1.537,1.537,0,0,1,.275-.137.846.846,0,0,1,.182-.046.477.477,0,0,1,.353.079.563.563,0,0,1,.115.113.9.9,0,0,1,.11.2,1.454,1.454,0,0,1,.068.241c.036.169.068.339.1.508.024.133.042.268.063.4l.051.36c.012.1.022.191.034.285s.024.2.036.306c.007.061.012.122.019.182s.015.125.022.187c.008.09.019.181.027.272a.755.755,0,0,1-.015.194,1.733,1.733,0,0,1-.083.3,2.913,2.913,0,0,1-.149.363,1.468,1.468,0,0,1-.171.272,1.043,1.043,0,0,1-.3.265,1.026,1.026,0,0,1-.336.113A1.31,1.31,0,0,1,874.133,320.418Z" transform="translate(-869.853 -315.751)" fill="#abe236"/>
      <path id="Path_1430" data-name="Path 1430" d="M872.768,321.844a1.228,1.228,0,0,1-.508-.11,1.914,1.914,0,0,1-.679-.5,2.216,2.216,0,0,1-.378-.618,4.24,4.24,0,0,1-.139-.4c-.03-.1-.057-.206-.088-.309a.228.228,0,0,1-.012-.083v-.861a.343.343,0,0,1,.017-.132c.056-.2.123-.4.187-.6.041-.123.081-.248.132-.368a2.248,2.248,0,0,1,.145-.3,1.109,1.109,0,0,1,.13-.191c.027-.029.052-.059.083-.086a.627.627,0,0,1,.341-.162.654.654,0,0,1,.323.039.56.56,0,0,1,.221.157.873.873,0,0,1,.12.172,1.515,1.515,0,0,1,.11.279c.039.142.079.284.127.422a5.122,5.122,0,0,0,.265.662,3.61,3.61,0,0,0,.525.792,1.067,1.067,0,0,1,.211.368,1.271,1.271,0,0,1,.052.238,1.185,1.185,0,0,1,.007.245,1.663,1.663,0,0,1-.039.257,1.783,1.783,0,0,1-.157.441,1.291,1.291,0,0,1-.24.333,1.063,1.063,0,0,1-.52.289A1.011,1.011,0,0,1,872.768,321.844Z" transform="translate(-870.965 -314.806)" fill="#abe236"/>
      <path id="Path_1431" data-name="Path 1431" d="M879.165,319.4c0,.056-.007.111-.012.167q-.008.111-.02.223a3.1,3.1,0,0,1-.208.854,2.106,2.106,0,0,1-.9,1.025,1.362,1.362,0,0,1-.373.154,1.051,1.051,0,0,1-.355.035,1.033,1.033,0,0,1-.449-.144,1.357,1.357,0,0,1-.358-.321,1.574,1.574,0,0,1-.3-.62,1.328,1.328,0,0,1-.032-.424,1,1,0,0,1,.165-.471c.127-.186.243-.377.353-.572a10.2,10.2,0,0,0,.544-1.119c.079-.189.154-.382.225-.574a1.124,1.124,0,0,1,.086-.184.736.736,0,0,1,.164-.2.516.516,0,0,1,.258-.116.488.488,0,0,1,.132,0,.673.673,0,0,1,.275.115,1.024,1.024,0,0,1,.243.24,2.173,2.173,0,0,1,.241.41,2.91,2.91,0,0,1,.2.589c.029.125.051.252.068.378.015.111.029.223.034.334,0,.061.008.122.012.182a.229.229,0,0,1,0,.035Z" transform="translate(-867.388 -314.814)" fill="#abe236"/>
    </g>
    <g id="Group_141-2" data-name="Group 141" transform="translate(871 3068)">
      <path id="Path_91-2" data-name="Path 91" d="M0,0H26.912V26.913H0Z" fill="none"/>
      <path id="Path_92-2" data-name="Path 92" d="M13.092,26.365,5.956,19.229a10.092,10.092,0,1,1,14.272,0Zm5.551-8.722a7.849,7.849,0,1,0-11.1,0l5.551,5.551,5.551-5.551Z" transform="translate(0.364 0.243)" fill="#000225"/>
    </g>
    <g id="Group_243-2" data-name="Group 243" transform="translate(880.546 3076.965)">
      <path id="Path_1427-2" data-name="Path 1427" d="M874.765,322.921h-.685a.309.309,0,0,1-.079-.009c-.246-.063-.493-.125-.738-.19a2.832,2.832,0,0,1-.273-.082,1.776,1.776,0,0,1-.442-.232,1.482,1.482,0,0,1-.251-.226,1.114,1.114,0,0,1-.25-.486,1.062,1.062,0,0,1-.026-.358,1.022,1.022,0,0,1,.191-.517.96.96,0,0,1,.358-.3c.07-.034.14-.07.207-.111a2.054,2.054,0,0,0,.485-.409,2.732,2.732,0,0,0,.3-.416c.026-.044.051-.089.077-.134a1.559,1.559,0,0,1,.223-.306,1.293,1.293,0,0,1,.465-.323,1.164,1.164,0,0,1,.237-.069.581.581,0,0,1,.107-.014l.1-.006c.025,0,.05,0,.075,0l.028,0a.937.937,0,0,1,.2.035,1.258,1.258,0,0,1,.563.322,1.534,1.534,0,0,1,.278.369c.046.085.1.168.149.25a2.636,2.636,0,0,0,.227.3,2.061,2.061,0,0,0,.645.489l.033.017a.957.957,0,0,1,.485.53,1.053,1.053,0,0,1,.063.254,1.16,1.16,0,0,1,0,.234,1.131,1.131,0,0,1-.2.549,1.278,1.278,0,0,1-.224.24,1.723,1.723,0,0,1-.433.267,2.88,2.88,0,0,1-.37.131c-.135.039-.27.073-.407.105l-.374.088-.032,0c-.013,0-.025,0-.038,0Z" transform="translate(-870.828 -315.364)" fill="#000225"/>
      <path id="Path_1428-2" data-name="Path 1428" d="M876.57,317.509a.23.23,0,0,1-.008.079l-.058.279a2.574,2.574,0,0,1-.093.354,1,1,0,0,1-.138.26.944.944,0,0,1-.314.268,1.188,1.188,0,0,1-.312.113,1.044,1.044,0,0,1-.144.018.679.679,0,0,1-.117,0,.58.58,0,0,1-.123-.027.567.567,0,0,1-.29-.211.762.762,0,0,1-.053-.082,2.428,2.428,0,0,1-.184-.435,1.812,1.812,0,0,1-.049-.2,1.105,1.105,0,0,1-.014-.21c0-.064,0-.129.009-.192s.008-.115.014-.173c0-.042.009-.084.013-.125l.011-.094c.01-.085.024-.17.037-.254.034-.217.077-.43.123-.644a1.069,1.069,0,0,1,.066-.2.6.6,0,0,1,.061-.111.411.411,0,0,1,.079-.086.322.322,0,0,1,.194-.07.476.476,0,0,1,.174.033.834.834,0,0,1,.16.077,2.052,2.052,0,0,1,.2.139,2.019,2.019,0,0,1,.372.382,1.848,1.848,0,0,1,.3.607,2.186,2.186,0,0,1,.06.275C876.557,317.344,876.564,317.427,876.57,317.509Z" transform="translate(-870.483 -315.751)" fill="#000225"/>
      <path id="Path_1429-2" data-name="Path 1429" d="M873.619,318.874h-.03a.847.847,0,0,1-.357-.081.932.932,0,0,1-.25-.173,1.241,1.241,0,0,1-.331-.541,1.547,1.547,0,0,1-.05-.224,2.179,2.179,0,0,1-.02-.383c0-.061.007-.122.014-.182a1.818,1.818,0,0,1,.678-1.262,2.195,2.195,0,0,1,.214-.151,1.026,1.026,0,0,1,.184-.091.568.568,0,0,1,.122-.031.319.319,0,0,1,.236.053.374.374,0,0,1,.077.076.6.6,0,0,1,.073.136.989.989,0,0,1,.045.162c.024.113.045.227.064.34.016.089.028.18.042.269l.034.241c.008.064.015.128.023.191s.016.137.024.2c0,.041.008.081.012.122s.01.084.015.125c.006.06.012.121.018.182a.5.5,0,0,1-.01.13,1.16,1.16,0,0,1-.055.2,1.949,1.949,0,0,1-.1.243.988.988,0,0,1-.114.182.7.7,0,0,1-.2.177.685.685,0,0,1-.225.076A.872.872,0,0,1,873.619,318.874Z" transform="translate(-870.755 -315.751)" fill="#000225"/>
      <path id="Path_1430-2" data-name="Path 1430" d="M872.172,320.282a.822.822,0,0,1-.34-.073,1.28,1.28,0,0,1-.454-.332,1.48,1.48,0,0,1-.253-.413,2.822,2.822,0,0,1-.093-.27c-.02-.069-.038-.138-.059-.207a.154.154,0,0,1-.008-.055v-.576a.23.23,0,0,1,.011-.088c.037-.136.082-.269.125-.4.027-.082.054-.166.088-.246a1.5,1.5,0,0,1,.1-.2.746.746,0,0,1,.087-.128c.018-.019.035-.039.055-.058a.419.419,0,0,1,.228-.108.438.438,0,0,1,.216.026.375.375,0,0,1,.148.105.583.583,0,0,1,.08.115,1.013,1.013,0,0,1,.073.186c.026.095.053.19.085.282a3.422,3.422,0,0,0,.177.443,2.42,2.42,0,0,0,.351.53.713.713,0,0,1,.141.246.858.858,0,0,1,.035.159.793.793,0,0,1,0,.164,1.106,1.106,0,0,1-.026.172,1.192,1.192,0,0,1-.1.295.868.868,0,0,1-.161.223.711.711,0,0,1-.348.193A.676.676,0,0,1,872.172,320.282Z" transform="translate(-870.965 -315.573)" fill="#000225"/>
      <path id="Path_1431-2" data-name="Path 1431" d="M878.171,318.644c0,.037,0,.075-.008.112s-.008.1-.013.149a2.08,2.08,0,0,1-.139.572,1.409,1.409,0,0,1-.6.686.91.91,0,0,1-.25.1.7.7,0,0,1-.237.024.692.692,0,0,1-.3-.1.908.908,0,0,1-.24-.215,1.053,1.053,0,0,1-.2-.415.886.886,0,0,1-.021-.284.668.668,0,0,1,.111-.315c.085-.124.163-.252.236-.383a6.831,6.831,0,0,0,.364-.749c.053-.127.1-.255.15-.384a.77.77,0,0,1,.058-.123.494.494,0,0,1,.11-.133.346.346,0,0,1,.173-.078.327.327,0,0,1,.088,0,.451.451,0,0,1,.184.077.689.689,0,0,1,.163.16,1.462,1.462,0,0,1,.161.275,1.943,1.943,0,0,1,.132.394c.019.084.034.168.045.253s.019.149.023.224c0,.041.006.081.008.122a.171.171,0,0,1,0,.024Z" transform="translate(-870.291 -315.574)" fill="#000225"/>
    </g>
    <g id="Group_728" data-name="Group 728" transform="translate(841 3050)">
      <path id="Path_91-3" data-name="Path 91" d="M0,0H26.912V26.913H0Z" fill="none"/>
      <path id="Path_92-3" data-name="Path 92" d="M13.092,26.365,5.956,19.229a10.092,10.092,0,1,1,14.272,0Zm5.551-8.722a7.849,7.849,0,1,0-11.1,0l5.551,5.551,5.551-5.551Z" transform="translate(0.364 0.243)" fill="#000225"/>
    </g>
    <g id="Group_729" data-name="Group 729" transform="translate(850.546 3058.965)">
      <path id="Path_1427-3" data-name="Path 1427" d="M874.765,322.921h-.685a.309.309,0,0,1-.079-.009c-.246-.063-.493-.125-.738-.19a2.832,2.832,0,0,1-.273-.082,1.776,1.776,0,0,1-.442-.232,1.482,1.482,0,0,1-.251-.226,1.114,1.114,0,0,1-.25-.486,1.062,1.062,0,0,1-.026-.358,1.022,1.022,0,0,1,.191-.517.96.96,0,0,1,.358-.3c.07-.034.14-.07.207-.111a2.054,2.054,0,0,0,.485-.409,2.732,2.732,0,0,0,.3-.416c.026-.044.051-.089.077-.134a1.559,1.559,0,0,1,.223-.306,1.293,1.293,0,0,1,.465-.323,1.164,1.164,0,0,1,.237-.069.581.581,0,0,1,.107-.014l.1-.006c.025,0,.05,0,.075,0l.028,0a.937.937,0,0,1,.2.035,1.258,1.258,0,0,1,.563.322,1.534,1.534,0,0,1,.278.369c.046.085.1.168.149.25a2.636,2.636,0,0,0,.227.3,2.061,2.061,0,0,0,.645.489l.033.017a.957.957,0,0,1,.485.53,1.053,1.053,0,0,1,.063.254,1.16,1.16,0,0,1,0,.234,1.131,1.131,0,0,1-.2.549,1.278,1.278,0,0,1-.224.24,1.723,1.723,0,0,1-.433.267,2.88,2.88,0,0,1-.37.131c-.135.039-.27.073-.407.105l-.374.088-.032,0c-.013,0-.025,0-.038,0Z" transform="translate(-870.828 -315.364)" fill="#000225"/>
      <path id="Path_1428-3" data-name="Path 1428" d="M876.57,317.509a.23.23,0,0,1-.008.079l-.058.279a2.574,2.574,0,0,1-.093.354,1,1,0,0,1-.138.26.944.944,0,0,1-.314.268,1.188,1.188,0,0,1-.312.113,1.044,1.044,0,0,1-.144.018.679.679,0,0,1-.117,0,.58.58,0,0,1-.123-.027.567.567,0,0,1-.29-.211.762.762,0,0,1-.053-.082,2.428,2.428,0,0,1-.184-.435,1.812,1.812,0,0,1-.049-.2,1.105,1.105,0,0,1-.014-.21c0-.064,0-.129.009-.192s.008-.115.014-.173c0-.042.009-.084.013-.125l.011-.094c.01-.085.024-.17.037-.254.034-.217.077-.43.123-.644a1.069,1.069,0,0,1,.066-.2.6.6,0,0,1,.061-.111.411.411,0,0,1,.079-.086.322.322,0,0,1,.194-.07.476.476,0,0,1,.174.033.834.834,0,0,1,.16.077,2.052,2.052,0,0,1,.2.139,2.019,2.019,0,0,1,.372.382,1.848,1.848,0,0,1,.3.607,2.186,2.186,0,0,1,.06.275C876.557,317.344,876.564,317.427,876.57,317.509Z" transform="translate(-870.483 -315.751)" fill="#000225"/>
      <path id="Path_1429-3" data-name="Path 1429" d="M873.619,318.874h-.03a.847.847,0,0,1-.357-.081.932.932,0,0,1-.25-.173,1.241,1.241,0,0,1-.331-.541,1.547,1.547,0,0,1-.05-.224,2.179,2.179,0,0,1-.02-.383c0-.061.007-.122.014-.182a1.818,1.818,0,0,1,.678-1.262,2.195,2.195,0,0,1,.214-.151,1.026,1.026,0,0,1,.184-.091.568.568,0,0,1,.122-.031.319.319,0,0,1,.236.053.374.374,0,0,1,.077.076.6.6,0,0,1,.073.136.989.989,0,0,1,.045.162c.024.113.045.227.064.34.016.089.028.18.042.269l.034.241c.008.064.015.128.023.191s.016.137.024.2c0,.041.008.081.012.122s.01.084.015.125c.006.06.012.121.018.182a.5.5,0,0,1-.01.13,1.16,1.16,0,0,1-.055.2,1.949,1.949,0,0,1-.1.243.988.988,0,0,1-.114.182.7.7,0,0,1-.2.177.685.685,0,0,1-.225.076A.872.872,0,0,1,873.619,318.874Z" transform="translate(-870.755 -315.751)" fill="#000225"/>
      <path id="Path_1430-3" data-name="Path 1430" d="M872.172,320.282a.822.822,0,0,1-.34-.073,1.28,1.28,0,0,1-.454-.332,1.48,1.48,0,0,1-.253-.413,2.822,2.822,0,0,1-.093-.27c-.02-.069-.038-.138-.059-.207a.154.154,0,0,1-.008-.055v-.576a.23.23,0,0,1,.011-.088c.037-.136.082-.269.125-.4.027-.082.054-.166.088-.246a1.5,1.5,0,0,1,.1-.2.746.746,0,0,1,.087-.128c.018-.019.035-.039.055-.058a.419.419,0,0,1,.228-.108.438.438,0,0,1,.216.026.375.375,0,0,1,.148.105.583.583,0,0,1,.08.115,1.013,1.013,0,0,1,.073.186c.026.095.053.19.085.282a3.422,3.422,0,0,0,.177.443,2.42,2.42,0,0,0,.351.53.713.713,0,0,1,.141.246.858.858,0,0,1,.035.159.793.793,0,0,1,0,.164,1.106,1.106,0,0,1-.026.172,1.192,1.192,0,0,1-.1.295.868.868,0,0,1-.161.223.711.711,0,0,1-.348.193A.676.676,0,0,1,872.172,320.282Z" transform="translate(-870.965 -315.573)" fill="#000225"/>
      <path id="Path_1431-3" data-name="Path 1431" d="M878.171,318.644c0,.037,0,.075-.008.112s-.008.1-.013.149a2.08,2.08,0,0,1-.139.572,1.409,1.409,0,0,1-.6.686.91.91,0,0,1-.25.1.7.7,0,0,1-.237.024.692.692,0,0,1-.3-.1.908.908,0,0,1-.24-.215,1.053,1.053,0,0,1-.2-.415.886.886,0,0,1-.021-.284.668.668,0,0,1,.111-.315c.085-.124.163-.252.236-.383a6.831,6.831,0,0,0,.364-.749c.053-.127.1-.255.15-.384a.77.77,0,0,1,.058-.123.494.494,0,0,1,.11-.133.346.346,0,0,1,.173-.078.327.327,0,0,1,.088,0,.451.451,0,0,1,.184.077.689.689,0,0,1,.163.16,1.462,1.462,0,0,1,.161.275,1.943,1.943,0,0,1,.132.394c.019.084.034.168.045.253s.019.149.023.224c0,.041.006.081.008.122a.171.171,0,0,1,0,.024Z" transform="translate(-870.291 -315.574)" fill="#000225"/>
    </g>
  </g>
</svg>
