<svg xmlns="http://www.w3.org/2000/svg" width="179.799" height="73.528" viewBox="0 0 179.799 73.528">
  <g id="Group_20025" data-name="Group 20025" transform="translate(-132.156 -70.027)">
    <path id="Path_361" data-name="Path 361" d="M58.372,32.214a7.884,7.884,0,0,0-5.8,2.037q-2.057,2.037-2.1,6.371,0,4.265,2.106,6.375a7.892,7.892,0,0,0,5.8,2.037A7.907,7.907,0,0,0,64.18,47a7.948,7.948,0,0,0,2.106-5.874V16.882h5.169V41.123A12.3,12.3,0,0,1,58.38,54.2a12.825,12.825,0,0,1-9.458-3.54Q45.3,47.021,45.308,40.622a14.758,14.758,0,0,1,2.208-8.432,11.308,11.308,0,0,1,5.405-4.342,13.731,13.731,0,0,1,6.847-.876,14.689,14.689,0,0,1,3.992,1.079V33.9A8.073,8.073,0,0,0,58.372,32.214Z" transform="translate(142.373 73.834)" fill="#abe236"/>
    <path id="Path_362" data-name="Path 362" d="M78.927,30.417a9.159,9.159,0,0,1,6.745,2.521A9.721,9.721,0,0,1,88.251,40.1a9.665,9.665,0,0,1-2.578,7.145,9.118,9.118,0,0,1-6.745,2.542,9.132,9.132,0,0,1-6.75-2.542A9.656,9.656,0,0,1,69.6,40.1a9.713,9.713,0,0,1,2.578-7.161A9.2,9.2,0,0,1,78.927,30.417Zm-4.139,5.137a6.179,6.179,0,0,0-1.5,4.546,6.121,6.121,0,0,0,1.5,4.53,6.567,6.567,0,0,0,8.273,0,6.155,6.155,0,0,0,1.5-4.53,6.214,6.214,0,0,0-1.5-4.546,6.625,6.625,0,0,0-8.273,0Z" transform="translate(147.85 76.885)" fill="#abe236"/>
    <path id="Path_363" data-name="Path 363" d="M100.267,44.645v4.1a11.087,11.087,0,0,1-3.955.68,9.123,9.123,0,0,1-6.75-2.542A9.292,9.292,0,0,1,86.984,40.1a9.721,9.721,0,0,1,2.578-7.161,10.295,10.295,0,0,1,13.5,0,9.752,9.752,0,0,1,2.574,7.161v7.483a9.18,9.18,0,0,1-2.558,6.766,9.027,9.027,0,0,1-6.729,2.562H90.584V53.22h5.764a5.528,5.528,0,0,0,4.114-1.466,5.452,5.452,0,0,0,1.487-3.919.207.207,0,0,0-.073.053l.057-.053v-6.8a.6.6,0,0,0,0-.147V40.1a6.179,6.179,0,0,0-1.5-4.546A5.423,5.423,0,0,0,96.3,34.1a5.628,5.628,0,0,0-4.134,1.45,6.274,6.274,0,0,0-1.5,4.546,5.629,5.629,0,0,0,1.5,4.171A5.493,5.493,0,0,0,96.3,45.737,6.508,6.508,0,0,0,100.267,44.645Z" transform="translate(151.768 76.885)" fill="#abe236"/>
    <path id="Path_364" data-name="Path 364" d="M109.331,35.733v5.642a5.612,5.612,0,0,0,1.5,4.171,5.508,5.508,0,0,0,4.114,1.466h.322V50.7h-.322a9.031,9.031,0,0,1-6.729-2.558,9.39,9.39,0,0,1-2.578-6.766V24.564h3.69v7.483h5.817v3.666Z" transform="translate(155.975 75.566)" fill="#abe236"/>
    <path id="Path_365" data-name="Path 365" d="M148.76,31.006v3.666h-.57q-4.073,0-5.621,1.629a5.583,5.583,0,0,0-1.222,4.008v9.328H137.66V40.309a9.085,9.085,0,0,1,2.257-6.566q2.648-2.762,8.269-2.758Z" transform="translate(163.196 77.014)" fill="#abe236"/>
    <path id="Path_366" data-name="Path 366" d="M131.085,41.192a4.969,4.969,0,0,0,.46,3.185,1.629,1.629,0,0,0,.216.387,3.631,3.631,0,0,1-1.136,5.633,5.187,5.187,0,0,1-4.073.114c-1.084-.35-2.139-.815-3.194-1.242a16.233,16.233,0,0,1-4.31-2.912,8.554,8.554,0,0,1-2.371-3.185,3.515,3.515,0,0,1,1.063-4.02,3.784,3.784,0,0,1,3.136-.9,4.436,4.436,0,0,0,3.344-1,4.648,4.648,0,0,1,3.047-.921c1.348.094,3.3,1.629,3.479,2.917C130.865,39.978,131,40.711,131.085,41.192Z" transform="translate(158.41 78.217)" fill="#000929"/>
    <path id="Path_367" data-name="Path 367" d="M123.138,34.1a6.22,6.22,0,0,1,2.851-5.169,5.727,5.727,0,0,1,3.259-1.108,1.589,1.589,0,0,1,1.629,2.224c-.46,1.446-1.059,2.851-1.629,4.253a4.994,4.994,0,0,1-2.782,2.66,2.712,2.712,0,0,1-2.7-1.222A14.036,14.036,0,0,1,123.138,34.1Z" transform="translate(159.92 76.302)" fill="#000929"/>
    <path id="Path_368" data-name="Path 368" d="M130.962,39.99a2.721,2.721,0,0,1-2.688-3.344,5.752,5.752,0,0,1,1.393-2.851c.815-1,1.629-2.012,2.485-3s1.76-.758,2.444.261a5.92,5.92,0,0,1,.815,3.552,6.306,6.306,0,0,1-.815,2.851A4.823,4.823,0,0,1,130.962,39.99Z" transform="translate(161.07 76.828)" fill="#000929"/>
    <path id="Path_369" data-name="Path 369" d="M123.646,30.256c-.138.635-.346,1.515-.513,2.407a2.716,2.716,0,0,0-.041,1.055A4.215,4.215,0,0,1,123,36.591a3.515,3.515,0,0,1-2.134,1.91,1.972,1.972,0,0,1-1.955-.314,3.8,3.8,0,0,1-1.438-2.037,4.929,4.929,0,0,1,.407-3.666,7.9,7.9,0,0,1,3.507-3.866C122.567,27.984,123.687,28.806,123.646,30.256Z" transform="translate(158.602 76.432)" fill="#000929"/>
    <path id="Path_370" data-name="Path 370" d="M138.279,38.8c-.387,2.644-1.377,4.945-3.878,6.236-1.458.754-3.373.623-4.179-.884a3.071,3.071,0,0,1,.383-3.4,4.073,4.073,0,0,1,1.629-1.149,8.715,8.715,0,0,0,2.709-1.866,8.468,8.468,0,0,1,1.031-.851,1.527,1.527,0,0,1,2.306,1.332C138.283,38.416,138.279,38.607,138.279,38.8Z" transform="translate(161.44 78.297)" fill="#000929"/>
    <path id="Path_371" data-name="Path 371" d="M0,25.681c.045-.314.077-.631.138-.941.228-1.173.407-2.354.709-3.515a21.654,21.654,0,0,1,.717-2.1c.037-.1.086-.2.138-.326.1.09.175.155.244.224L6.13,23.2a.468.468,0,0,1,.151.493,20.517,20.517,0,0,0-.289,2.183c-.057.648-.053,1.3-.077,1.955a.477.477,0,0,0,0,.171c.24.607-.11.965-.509,1.356C4.02,30.715,2.66,32.092,1.3,33.469a1.556,1.556,0,0,0-.2.318l-.134-.073-.1-.318a16.787,16.787,0,0,1-.729-3.581C.106,29.546.045,29.282,0,29Z" transform="translate(132.156 74.266)" fill="#abe236"/>
    <path id="Path_372" data-name="Path 372" d="M21.218,61.754A3.381,3.381,0,0,1,19.3,60.41c-.314-.473-.619-.949-.933-1.422q-1.874-2.811-3.752-5.621c-.24-.363-.493-.725-.741-1.088l.069-.057c1.711,1.674,3.422,3.352,5.153,5.055l2.819-2.827c.22.338.436.664.648.994.493.766,1.047,1.5,1.462,2.3a2.9,2.9,0,0,1-.159,3.051,2.2,2.2,0,0,1-1.222.888.7.7,0,0,0-.134.069Z" transform="translate(135.284 81.801)" fill="#abe236"/>
    <path id="Path_373" data-name="Path 373" d="M30.6,0h4.827V35.585a11.89,11.89,0,0,1-1.116,4.974,10.819,10.819,0,0,1-2.147,3.12A11.043,11.043,0,0,1,27,46.6a15.862,15.862,0,0,1-5.047.379,11.552,11.552,0,0,1-6.11-2.1,10.469,10.469,0,0,1-3.067-3.446,13.548,13.548,0,0,1-1.308-3.609,10.53,10.53,0,0,1-.216-1.829,26.6,26.6,0,0,1-.065-2.672,12.839,12.839,0,0,1,2.261-7.108,10.444,10.444,0,0,1,3.352-2.99A12.587,12.587,0,0,1,20.966,21.8a12.831,12.831,0,0,1,2.652-.143,12.5,12.5,0,0,1,4.481,1.01.407.407,0,0,1,.2.273v5.255c-.44-.261-.843-.546-1.283-.762a6.754,6.754,0,0,0-2.652-.709,13.776,13.776,0,0,0-1.585-.061,7.528,7.528,0,0,0-3.992,1.222,6.037,6.037,0,0,0-2.505,3.967,15.043,15.043,0,0,0-.269,2.9,9.018,9.018,0,0,0,.815,3.923,5.894,5.894,0,0,0,4.1,3.226,9.829,9.829,0,0,0,3,.265A7.572,7.572,0,0,0,27.777,41,5.943,5.943,0,0,0,30,38.22a7.381,7.381,0,0,0,.538-2.782c0-1.287.061-2.574.061-3.866V.452Z" transform="translate(134.678 70.027)" fill="#000929"/>
    <path id="Path_374" data-name="Path 374" d="M39.415,38.027a.608.608,0,0,1-.086-.061l-3.8-3.731a.363.363,0,0,1-.118-.407c.24-.99.46-1.984.668-2.982a7.356,7.356,0,0,0,.151-1.193c.041-.912.11-1.829.061-2.741a16.86,16.86,0,0,0-1.161-5.381c-.187-.473-.448-.921-.652-1.389a.383.383,0,0,1,.033-.342c1.271-1.291,2.558-2.574,3.841-3.853a.685.685,0,0,1,.1-.041c.2.3.428.6.619.921a22.708,22.708,0,0,1,2.538,5.593,19.96,19.96,0,0,1,.656,3.153,23.552,23.552,0,0,1,.138,3.666,13.034,13.034,0,0,1-.969,4.407c-.582,1.413-1.271,2.786-1.91,4.179C39.484,37.9,39.456,37.962,39.415,38.027Z" transform="translate(139.924 73.613)" fill="#abe236"/>
    <path id="Path_375" data-name="Path 375" d="M5.819,27.216a19.837,19.837,0,0,0,1.454,5.3,23.447,23.447,0,0,0,2.065,3.666q2.155,3.259,4.293,6.542c.285.436.558.88.835,1.324a.281.281,0,0,1-.053.407c-1.3,1.291-2.6,2.595-3.927,3.923-.269-.407-.534-.77-.786-1.157-.542-.815-1.075-1.658-1.629-2.481C6.715,42.7,5.342,40.662,4,38.6A25.947,25.947,0,0,1,.947,32.393a.485.485,0,0,1,.069-.407c1.536-1.552,3.084-3.092,4.631-4.644A.768.768,0,0,1,5.819,27.216Z" transform="translate(132.366 76.165)" fill="#abe236"/>
    <path id="Path_376" data-name="Path 376" d="M6.036,25.4c-.065-.061-.143-.122-.212-.191Q3.73,23.13,1.665,21.053a.35.35,0,0,1-.094-.464A19.483,19.483,0,0,1,4.3,16.108a33.658,33.658,0,0,1,2.338-2.6,21.532,21.532,0,0,1,3.849-2.921,20.074,20.074,0,0,1,4.7-2,.363.363,0,0,1,.289.029c1.369,1.352,2.729,2.713,4.106,4.073C12.8,14.523,8.109,18.535,6.036,25.4Z" transform="translate(132.499 71.961)" fill="#abe236"/>
    <path id="Path_377" data-name="Path 377" d="M20.191,59.311l-.106-.1q-2.273-2.236-4.546-4.481c-.338-.33-.684-.652-1.035-.969a11.862,11.862,0,0,1-1.629-2.2C11.82,50,10.789,48.415,9.751,46.843c-.269-.407-.546-.815-.794-1.222a.407.407,0,0,1,0-.375c1.3-1.324,2.615-2.635,3.959-3.98l9.919,15.369Z" transform="translate(134.166 79.332)" fill="#abe236"/>
    <path id="Path_378" data-name="Path 378" d="M36.689,31l3.976,3.976-1.071,2.155c-.407.859-.839,1.719-1.271,2.574a1.629,1.629,0,0,1-.306.432q-4.269,4.281-8.554,8.554c-.228.228-.379.269-.587,0a2.823,2.823,0,0,0-.481-.481c-.269-.2-.224-.407-.081-.664.876-1.629,1.739-3.259,2.607-4.888q1.519-2.851,3.035-5.7c.513-.974,1.055-1.935,1.511-2.933S36.294,32,36.689,31Z" transform="translate(138.514 77.016)" fill="#abe236"/>
    <path id="Path_379" data-name="Path 379" d="M13.05,8.716A31.772,31.772,0,0,1,26.557,7.653c-.106.122-.159.2-.228.265-1.458,1.462-2.912,2.925-4.379,4.375a.782.782,0,0,1-.436.175q-1.992.24-3.992.444a.428.428,0,0,1-.306-.11c-.815-.774-1.629-1.552-2.411-2.334Z" transform="translate(135.098 71.686)" fill="#abe236"/>
    <path id="Path_380" data-name="Path 380" d="M31.521,10.221a23.365,23.365,0,0,1,7.4,6.668l-4.045,4.024c-.265-.407-.53-.859-.815-1.287a17.247,17.247,0,0,0-2.334-2.688.554.554,0,0,1-.191-.33C31.517,14.518,31.521,12.408,31.521,10.221Z" transform="translate(139.264 72.333)" fill="#abe236"/>
    <path id="Path_381" data-name="Path 381" d="M27.868,8.188V13.65A20.334,20.334,0,0,0,20.5,12.428c.094-.118.134-.191.191-.248q2.175-2.2,4.346-4.375a.407.407,0,0,1,.489-.106C26.284,7.886,27.078,8.049,27.868,8.188Z" transform="translate(136.777 71.755)" fill="#abe236"/>
    <path id="Path_382" data-name="Path 382" d="M29.246,45.72l3.259,3.259c-.505,1.006-.762,2.179-1.878,2.851A2.6,2.6,0,0,1,26.554,50.2a6.517,6.517,0,0,1,0-1.6.489.489,0,0,1,.126-.3C27.515,47.435,28.375,46.584,29.246,45.72Z" transform="translate(138.133 80.336)" fill="#abe236"/>
    <path id="Path_383" data-name="Path 383" d="M31.969,50.159c-.179-.191-.354-.407-.55-.591q-1.026-1.006-2.069-2c-.171-.163-.208-.273,0-.464q3.959-3.939,7.91-7.9a.33.33,0,0,1,.232-.106C35.651,42.762,33.822,46.428,31.969,50.159Z" transform="translate(138.741 78.843)" fill="#abe236"/>
    <path id="Path_384" data-name="Path 384" d="M28.284,45.046l.607.6-1.967,1.976Z" transform="translate(138.228 80.185)" fill="#abe236"/>
  </g>
</svg>
