<svg xmlns="http://www.w3.org/2000/svg" width="21.025" height="37.745" viewBox="0 0 21.025 37.745">
  <g id="Capa_x0020_1" transform="translate(-20.524 -31.432)">
    <g id="_1900221986512" transform="translate(20.583 31.533)">
      <rect id="Rectangle_8995" data-name="Rectangle 8995" width="1.996" height="2.317" transform="translate(9.365 13.371)" fill="#b56e3c" stroke="#646060" stroke-miterlimit="22.926" stroke-width="0.2"/>
      <path id="Path_33222" data-name="Path 33222" d="M3093.97,6954.767v11.1a1.878,1.878,0,0,0,1.876,1.876h.143a1.878,1.878,0,0,0,1.877-1.876v-11.1a1.878,1.878,0,0,0-1.877-1.876h-.143a1.878,1.878,0,0,0-1.877,1.876Z" transform="translate(-3082.704 -6931.977)" fill="#f7f2ba" stroke="#646060" stroke-miterlimit="22.926" stroke-width="0.2"/>
      <path id="Path_33223" data-name="Path 33223" d="M1520.56,6954.767v11.1a1.878,1.878,0,0,0,1.877,1.876h.143a1.878,1.878,0,0,0,1.877-1.876v-11.1a1.878,1.878,0,0,0-1.877-1.876h-.143A1.878,1.878,0,0,0,1520.56,6954.767Z" transform="translate(-1515.061 -6931.977)" fill="#f7f2ba" stroke="#646060" stroke-miterlimit="22.926" stroke-width="0.2"/>
      <path id="Path_33224" data-name="Path 33224" d="M1722.989,947.142a6.086,6.086,0,0,1-3.7-.643c-.837-.449-1.442-1.263-1.442-3.211v-2.221a4.006,4.006,0,0,1,4.007-4.007h.3a4.005,4.005,0,0,1,4.006,4.007v2.221C1726.044,945.54,1725.636,946.671,1722.989,947.142Z" transform="translate(-1711.628 -933.741)" fill="#d59b65"/>
      <g id="Group_18776" data-name="Group 18776" transform="translate(16.181 15.858)">
        <path id="Path_33225" data-name="Path 33225" d="M4436.274,4370.162h0a1.458,1.458,0,0,1-1.454-1.454V4357.63h1.454a1.459,1.459,0,0,1,1.455,1.455v9.623A1.459,1.459,0,0,1,4436.274,4370.162Z" transform="translate(-4434.82 -4357.63)" stroke="#646060" stroke-miterlimit="22.926" stroke-width="0.2" fill-rule="evenodd"/>
        <ellipse id="Ellipse_7682" data-name="Ellipse 7682" cx="1.279" cy="1.296" rx="1.279" ry="1.296" transform="translate(0.274 12.385)" fill="#d59b65" stroke="#646060" stroke-miterlimit="22.926" stroke-width="0.2"/>
      </g>
      <g id="Group_18777" data-name="Group 18777" transform="translate(2.159 15.805)">
        <path id="Path_33226" data-name="Path 33226" d="M610.944,4355.662h0a1.459,1.459,0,0,1-1.454-1.455v-9.623a1.458,1.458,0,0,1,1.454-1.454H612.4v11.077A1.459,1.459,0,0,1,610.944,4355.662Z" transform="translate(-609.49 -4343.13)" stroke="#646060" stroke-miterlimit="22.926" stroke-width="0.2" fill-rule="evenodd"/>
        <ellipse id="Ellipse_7683" data-name="Ellipse 7683" cx="1.279" cy="1.296" rx="1.279" ry="1.296" transform="translate(0.274 12.385)" fill="#d59b65" stroke="#646060" stroke-miterlimit="22.926" stroke-width="0.2"/>
      </g>
      <path id="Path_33227" data-name="Path 33227" d="M3806.53,4272.39s1.6.4,1.537,1-.649,6.909-.649,6.909" transform="translate(-3792.652 -4256.844)" fill="none" stroke="#fff" stroke-linecap="round" stroke-linejoin="round" stroke-miterlimit="22.926" stroke-width="0.2"/>
      <g id="Group_18779" data-name="Group 18779" transform="translate(5.576 7.284)">
        <circle id="Ellipse_7684" data-name="Ellipse 7684" cx="0.585" cy="0.585" r="0.585" transform="translate(6.263)" fill="#444"/>
        <circle id="Ellipse_7685" data-name="Ellipse 7685" cx="0.585" cy="0.585" r="0.585" transform="translate(2.173)" fill="#444"/>
        <circle id="Ellipse_7686" data-name="Ellipse 7686" cx="0.585" cy="0.585" r="0.585" transform="translate(6.263)" fill="#444"/>
        <circle id="Ellipse_7687" data-name="Ellipse 7687" cx="0.259" cy="0.259" r="0.259" transform="translate(6.747 0.266)" fill="#fff" stroke="#fff" stroke-miterlimit="22.926" stroke-width="0.2"/>
        <circle id="Ellipse_7688" data-name="Ellipse 7688" cx="0.259" cy="0.259" r="0.259" transform="translate(2.673 0.245)" fill="#fff" stroke="#fff" stroke-miterlimit="22.926" stroke-width="0.2"/>
        <path id="Path_33228" data-name="Path 33228" d="M2453.88,3196.84a2.893,2.893,0,0,0,2.743,0" transform="translate(-2450.536 -3192.521)" fill="none" stroke="#646060" stroke-linecap="round" stroke-linejoin="round" stroke-miterlimit="22.926" stroke-width="0.2"/>
        <path id="Path_33229" data-name="Path 33229" d="M1589.994,2639.073c-1.016.059-2.325,1.745-2.325,1.745-2.092.326-.186.992.854,1.31,1.607.27,2.822-2.1,2.822-2.1s1.442,2.7,3.55,1.942c.65-.261,1.224-.611,1.27-1.157l-1.033-.007a7.607,7.607,0,0,0-2.286-1.706,1.806,1.806,0,0,0-1.517.385S1591.01,2639.015,1589.994,2639.073Z" transform="translate(-1586.564 -2636.779)" fill="#abb6c0" fill-rule="evenodd"/>
        <g id="Group_18778" data-name="Group 18778" transform="translate(0.17 3.064)">
          <path id="Path_33230" data-name="Path 33230" d="M1592.632,2854.482c-1.808,1.326-1.813,2.531-4.378,1.22a.2.2,0,0,0-.064.093,4.237,4.237,0,0,0,1.789.944c1.437.241,2.562-1.632,2.783-2.029C1592.762,2854.71,1592.808,2854.353,1592.632,2854.482Z" transform="translate(-1588.19 -2854.454)" fill="#828282" fill-rule="evenodd"/>
          <path id="Path_33231" data-name="Path 33231" d="M2837.008,2854.482c1.808,1.326,1.813,2.531,4.378,1.22a.2.2,0,0,1,.064.093,4.241,4.241,0,0,1-1.789.944c-1.437.241-2.562-1.632-2.783-2.029C2836.878,2854.71,2836.831,2854.353,2837.008,2854.482Z" transform="translate(-2832.295 -2854.454)" fill="#828282" fill-rule="evenodd"/>
        </g>
        <path id="Path_33232" data-name="Path 33232" d="M1542.391,2218.006c0-.145-.795-.28-.613.716l.008.04c0,.441.188.6.5.575l.1-1.331Z" transform="translate(-1541.751 -2217.175)" fill="#d59b65" fill-rule="evenodd"/>
        <path id="Path_33233" data-name="Path 33233" d="M3986.33,2208.561l.117,1.284c.315.055.557-.413.554-.7.031-.511-.23-.761-.444-.812-.179,0-.2.028-.2.028v-.01a.148.148,0,0,0-.031.025Z" transform="translate(-3977.369 -2207.635)" fill="#d59b65" fill-rule="evenodd"/>
      </g>
      <path id="Path_33234" data-name="Path 33234" d="M1004.253,4001.136c7.979.047,6.64,3.362,6.64,7.563s-2.3,7.651-6.64,7.651-7.049-3.494-7.049-7.695S996.274,4001.089,1004.253,4001.136Z" transform="translate(-993.591 -3986.584)" stroke="#646060" stroke-miterlimit="22.926" stroke-width="0.2" fill-rule="evenodd"/>
      <path id="Path_33235" data-name="Path 33235" d="M3096.907,10656.982h-.8a1.477,1.477,0,0,1-1.476-1.476v-.111a1.477,1.477,0,0,1,1.476-1.476h.8a1.477,1.477,0,0,1,1.476,1.476v.111A1.475,1.475,0,0,1,3096.907,10656.982Z" transform="translate(-3083.361 -10619.438)" fill="#353535" stroke="#646060" stroke-miterlimit="22.926" stroke-width="0.2"/>
      <path id="Path_33236" data-name="Path 33236" d="M1542.288,10656.982h-.8a1.477,1.477,0,0,1-1.476-1.476v-.111a1.477,1.477,0,0,1,1.476-1.476h.8a1.477,1.477,0,0,1,1.476,1.476v.111A1.475,1.475,0,0,1,1542.288,10656.982Z" transform="translate(-1534.44 -10619.438)" fill="#353535" stroke="#646060" stroke-miterlimit="22.926" stroke-width="0.2"/>
      <line id="Line_1193" data-name="Line 1193" y2="2.625" transform="translate(14.372 30.522)" fill="none" stroke="#fff" stroke-linecap="round" stroke-linejoin="round" stroke-miterlimit="22.926" stroke-width="0.2"/>
      <line id="Line_1194" data-name="Line 1194" y2="2.625" transform="translate(8.506 30.522)" fill="none" stroke="#fff" stroke-linecap="round" stroke-linejoin="round" stroke-miterlimit="22.926" stroke-width="0.2"/>
      <path id="Path_33237" data-name="Path 33237" d="M3876.3,10902.16a1.23,1.23,0,0,1,0,1.134" transform="translate(-3862.166 -10866.77)" fill="none" stroke="#fff" stroke-linecap="round" stroke-linejoin="round" stroke-miterlimit="22.926" stroke-width="0.2"/>
      <path id="Path_33238" data-name="Path 33238" d="M2329.74,10902.16a1.231,1.231,0,0,1,0,1.134" transform="translate(-2321.275 -10866.77)" fill="none" stroke="#fff" stroke-linecap="round" stroke-linejoin="round" stroke-miterlimit="22.926" stroke-width="0.2"/>
      <g id="Group_18780" data-name="Group 18780" transform="translate(6.288 14.725)">
        <path id="Path_33239" data-name="Path 33239" d="M2422.719,4048.61h-3.045l-.014,13.986a5.547,5.547,0,0,1,3.045-.049Z" transform="translate(-2417.154 -4048.61)" fill="#fff"/>
        <circle id="Ellipse_7689" data-name="Ellipse 7689" cx="0.455" cy="0.455" r="0.455" transform="translate(3.549 3.932)" fill="#d9171d"/>
        <circle id="Ellipse_7690" data-name="Ellipse 7690" cx="0.455" cy="0.455" r="0.455" transform="translate(3.559 6.667)" fill="#d9171d" stroke="#351a0c" stroke-miterlimit="22.926" stroke-width="0.2"/>
        <circle id="Ellipse_7691" data-name="Ellipse 7691" cx="0.455" cy="0.455" r="0.455" transform="translate(3.549 9.739)" fill="#d9171d"/>
        <circle id="Ellipse_7692" data-name="Ellipse 7692" cx="0.455" cy="0.455" r="0.455" transform="translate(3.549 12.412)" fill="#d9171d"/>
        <path id="Path_33240" data-name="Path 33240" d="M1737.247,6600.3l-1.023.827a.212.212,0,0,1-.3-.032l-.01-.013a.211.211,0,0,1,.032-.3l1.023-.827a.212.212,0,0,1,.3.032l.01.012A.211.211,0,0,1,1737.247,6600.3Z" transform="translate(-1735.869 -6590.562)" fill="#d9171d"/>
        <path id="Path_33241" data-name="Path 33241" d="M2137.953,4696.73l-.926,1.256c-.059.212.513.489.53.6-.29.443-.306.347-.345.481a6.623,6.623,0,0,0,.741,1.306Z" transform="translate(-2135.552 -4694.354)" fill="#d9171d"/>
        <path id="Path_33242" data-name="Path 33242" d="M3267.89,4696.73l.926,1.256c.059.212-.513.489-.529.6.29.443.306.347.345.481a6.616,6.616,0,0,1-.742,1.306Z" transform="translate(-3262.274 -4694.354)" fill="#d9171d"/>
        <path id="Path_33243" data-name="Path 33243" d="M3461.651,6600.3l1.023.827a.211.211,0,0,0,.3-.032l.01-.013a.211.211,0,0,0-.032-.3l-1.023-.827a.212.212,0,0,0-.3.032l-.01.012A.211.211,0,0,0,3461.651,6600.3Z" transform="translate(-3455.246 -6590.562)" fill="#d9171d"/>
      </g>
      <g id="Group_18785" data-name="Group 18785" transform="translate(0 0)">
        <g id="Group_18782" data-name="Group 18782" transform="translate(0 0.002)">
          <path id="Path_33244" data-name="Path 33244" d="M34.351,753.312a16.1,16.1,0,0,0-6.756.025c-4.708.586-6.884,2.95-6.884,2.95s-.158.1-.123.716a2.736,2.736,0,0,0,1.407,1.768,12.315,12.315,0,0,1,5.673-2.753,19.557,19.557,0,0,1,7.089.116,16,16,0,0,1,5.27,2.674,2.612,2.612,0,0,0,.413-.235c1.492-1.049.86-2.214.86-2.214a10.491,10.491,0,0,0-2.974-1.815,13.958,13.958,0,0,0-3.975-1.232Z" transform="translate(-20.583 -750.338)" fill="#fcaf5d" fill-rule="evenodd"/>
          <path id="Path_33245" data-name="Path 33245" d="M418.473,1509.857a19.556,19.556,0,0,0-7.089-.116,12.313,12.313,0,0,0-5.673,2.753,3.1,3.1,0,0,0,.559.255,12.661,12.661,0,0,0,3.632.142s-.15-.731.232-.819c.27-.062.347,0,.369.037.258-1.349,1.649-2.035,4.3-2.118a5.149,5.149,0,0,1,4,1.531l.066.545s.026-.042.382-.025.309.77.309.77a8.8,8.8,0,0,0,4.185-.281A16,16,0,0,0,418.473,1509.857Z" transform="translate(-404.298 -1504.061)" fill="#e48c2b" fill-rule="evenodd"/>
          <path id="Path_33246" data-name="Path 33246" d="M1933.52,35.164a16.1,16.1,0,0,1,6.756-.025,3.64,3.64,0,0,0-3.387-2.972c-2.878-.1-3.369,3-3.369,3Z" transform="translate(-1926.508 -32.165)" fill="#e48c2b" fill-rule="evenodd"/>
          <g id="Group_18781" data-name="Group 18781" transform="translate(0.767 2.758)">
            <path id="Path_33247" data-name="Path 33247" d="M229.78,1502.48l.645,3.042a13.053,13.053,0,0,1,1.685-1.218l-2.329-1.824Z" transform="translate(-229.78 -1499.848)" fill="#73b336" fill-rule="evenodd"/>
            <path id="Path_33248" data-name="Path 33248" d="M817.43,1155.56l.175,3.1a12.51,12.51,0,0,1,2.035-1.021Z" transform="translate(-815.276 -1154.2)" fill="#73b336" fill-rule="evenodd"/>
            <path id="Path_33249" data-name="Path 33249" d="M1420.782,925.06l-.322,2.92a8.577,8.577,0,0,1,1.954-.514l.438-.056Z" transform="translate(-1416.095 -924.545)" fill="#73b336" fill-rule="evenodd"/>
            <path id="Path_33250" data-name="Path 33250" d="M2073.72,784.52l-.84,2.866a25.773,25.773,0,0,1,2.727-.206Z" transform="translate(-2066.124 -784.52)" fill="#73b336" fill-rule="evenodd"/>
            <path id="Path_33251" data-name="Path 33251" d="M2816.84,793.008a17.363,17.363,0,0,1,3.163.244l-.874-2.882Z" transform="translate(-2807.356 -790.349)" fill="#73b336" fill-rule="evenodd"/>
            <path id="Path_33252" data-name="Path 33252" d="M3681.752,941.21l-2,2.329c.247.04.5.085.761.135a8.066,8.066,0,0,1,1.646.53Z" transform="translate(-3667.104 -940.636)" fill="#73b336" fill-rule="evenodd"/>
            <path id="Path_33253" data-name="Path 33253" d="M4338.369,1194.46l-2.039,2.065a16.3,16.3,0,0,1,1.962,1.027Z" transform="translate(-4321.277 -1192.957)" fill="#73b336" fill-rule="evenodd"/>
            <path id="Path_33254" data-name="Path 33254" d="M4873.885,1542.22l-2.334,1.817c.977.592,1.662,1.117,1.662,1.117Z" transform="translate(-4854.535 -1539.442)" fill="#73b336" fill-rule="evenodd"/>
          </g>
          <path id="Path_33255" data-name="Path 33255" d="M192.513,754.321l-.645-3.042a.132.132,0,0,1,.109-.155.144.144,0,0,1,.115.028l2.085,1.633-.158-2.8a.135.135,0,0,1,.132-.139.143.143,0,0,1,.107.04l2,1.879.292-2.646a.137.137,0,0,1,.153-.118.141.141,0,0,1,.093.047l1.9,2.158.769-2.623a.14.14,0,0,1,.171-.092.137.137,0,0,1,.08.056l1.781,2.51,2.171-2.5a.144.144,0,0,1,.2-.018.131.131,0,0,1,.045.066h0l.8,2.639,1.834-2.133a.144.144,0,0,1,.2-.019.13.13,0,0,1,.051.091l.367,2.71,1.838-1.86a.145.145,0,0,1,.2-.006.129.129,0,0,1,.043.106l-.07,2.8,2.1-1.634a.144.144,0,0,1,.2.018.127.127,0,0,1,.029.112h0l-.672,2.934-.273-.056.587-2.563-2.025,1.575a.142.142,0,0,1-.092.03.135.135,0,0,1-.136-.135l.069-2.746-1.79,1.813a.143.143,0,0,1-.084.04.138.138,0,0,1-.155-.114l-.364-2.688-1.792,2.084a.143.143,0,0,1-.248-.041l-.8-2.64-2.118,2.441a.139.139,0,0,1-.033.029.144.144,0,0,1-.193-.036l-1.718-2.422-.757,2.584a.131.131,0,0,1-.046.072.145.145,0,0,1-.2-.017L196.8,749.46l-.288,2.609a.128.128,0,0,1-.04.08.144.144,0,0,1-.2,0l-1.954-1.834.156,2.755a.128.128,0,0,1-.032.091.144.144,0,0,1-.2.018l-2.028-1.588.568,2.678-.273.052Z" transform="translate(-191.238 -745.863)" fill="#625956"/>
        </g>
        <g id="Group_18783" data-name="Group 18783" transform="translate(7.857 14.757)">
          <path id="Path_33256" data-name="Path 33256" d="M2843.012,4063.926l-1.7-1.8c-.256,0-.53,0-.805,0l1.16,2.375Z" transform="translate(-2838.03 -4062.102)" fill="#d9171d" fill-rule="evenodd"/>
          <path id="Path_33257" data-name="Path 33257" d="M2535.741,4062.12l-1.121,2.38.329.134.4-.1.363-.608.359.64.458.086.373-.158Z" transform="translate(-2533.261 -4062.103)" fill="#ba141a" fill-rule="evenodd"/>
          <path id="Path_33258" data-name="Path 33258" d="M2165.676,4057.3l-1.806,1.842,1.359.555,1.121-2.38C2166.123,4057.314,2165.9,4057.309,2165.676,4057.3Z" transform="translate(-2163.87 -4057.3)" fill="#d9171d" fill-rule="evenodd"/>
        </g>
        <path id="Path_33259" data-name="Path 33259" d="M39.124,34.546a15.835,15.835,0,0,1,6.714-.025m.182,9.485c-2.108.757-3.55-1.942-3.55-1.942M39.375,44.1c1.707.523,3.095-2.039,3.095-2.039m-3.677.792s1.309-1.687,2.325-1.745,1.334.41,1.334.41a1.806,1.806,0,0,1,1.517-.385,7.607,7.607,0,0,1,2.286,1.706m.378-3.266-.066-.548a5.094,5.094,0,0,0-3.976-1.539c-2.633.084-4.016.773-4.272,2.128M33.558,40A12.194,12.194,0,0,1,39.2,37.239a19.231,19.231,0,0,1,7.046.117,15.367,15.367,0,0,1,5.146,2.617m-4.067.352c.047-.765-.562-.946-.686-.748l.132,1.451M37.723,40.4c-.21-1.039.61-.9.606-.756l-.1,1.331m.9-6.432s.488-3.111,3.348-3.011a3.638,3.638,0,0,1,3.366,2.986c1.814.2,5.723,1.788,6.906,3.061C54.1,40.1,49.2,40.651,47.32,40.325c0,.29-.239.757-.554.7a3.911,3.911,0,0,1-.51,1.815l1.033.006c-.1,1.15-3.307,2.213-4.887,2.186a9.3,9.3,0,0,1-4.681-2.011l1.073-.167a3.136,3.136,0,0,1-.567-1.878c-.315.027-.5-.133-.5-.575-1.68.157-5.432.15-5.563-2.175-.035-.619.122-.719.122-.719a11.5,11.5,0,0,1,6.842-2.964Z" transform="translate(-32.112 -31.533)" fill="none" stroke="#625956" stroke-linecap="round" stroke-linejoin="round" stroke-miterlimit="22.926" stroke-width="0.2" fill-rule="evenodd"/>
        <g id="Group_18784" data-name="Group 18784" transform="translate(0.237 0.24)">
          <path id="Path_33260" data-name="Path 33260" d="M2231.03,98.227a.1.1,0,0,1-.14.031.1.1,0,0,1-.031-.137,2.591,2.591,0,0,1,2.189-1.011,2.8,2.8,0,0,1,2.231.933.1.1,0,0,1-.02.139.1.1,0,0,1-.141-.02,2.59,2.59,0,0,0-2.07-.853A2.377,2.377,0,0,0,2231.03,98.227Z" transform="translate(-2222.978 -97.11)" fill="#fff"/>
          <path id="Path_33261" data-name="Path 33261" d="M1627.208,2696.827a.1.1,0,0,1-.076-.119.1.1,0,0,1,.121-.074c.539.121,1.007-.382,1.477-.888a2.5,2.5,0,0,1,1.4-.981,2.267,2.267,0,0,1,.843.075.933.933,0,0,1,.545.368.1.1,0,0,1-.036.136.1.1,0,0,1-.138-.036.742.742,0,0,0-.431-.278,2.065,2.065,0,0,0-.765-.067c-.454.039-.862.479-1.269.916C1628.371,2696.428,1627.862,2696.974,1627.208,2696.827Z" transform="translate(-1621.478 -2685.232)" fill="#fff"/>
          <path id="Path_33262" data-name="Path 33262" d="M2850.23,2696.634a.1.1,0,0,1,.122.074.1.1,0,0,1-.076.119c-.654.147-1.162-.4-1.672-.948-.407-.437-.815-.877-1.27-.916a2.06,2.06,0,0,0-.765.067.742.742,0,0,0-.431.278.1.1,0,0,1-.138.035.1.1,0,0,1-.036-.135.931.931,0,0,1,.545-.368,2.272,2.272,0,0,1,.843-.075,2.5,2.5,0,0,1,1.4.981C2849.223,2696.251,2849.692,2696.755,2850.23,2696.634Z" transform="translate(-2835.83 -2685.232)" fill="#fff"/>
          <path id="Path_33263" data-name="Path 33263" d="M85.438,788.463a.1.1,0,0,1-.143.007.1.1,0,0,1-.008-.14,9.428,9.428,0,0,1,4.055-2.394,21.127,21.127,0,0,1,6.12-.929h.028c.78.014,6.188.114,10.051,3.343a.1.1,0,0,1,.011.14.1.1,0,0,1-.143.011c-3.807-3.183-9.152-3.281-9.922-3.3h-.029a20.894,20.894,0,0,0-6.053.919,9.226,9.226,0,0,0-3.968,2.338Z" transform="translate(-85.261 -782.484)" fill="#fff"/>
        </g>
      </g>
      <path id="Path_33264" data-name="Path 33264" d="M4786.39,4640.49c1.114,0,1.049.048,1.049,4.383" transform="translate(-4768.919 -4623.961)" fill="none" stroke="#fff" stroke-linecap="round" stroke-miterlimit="22.926" stroke-width="0.2" fill-rule="evenodd"/>
      <path id="Path_33265" data-name="Path 33265" d="M747,4640.49c-1.114,0-1.049.048-1.049,4.383" transform="translate(-743.293 -4623.961)" fill="none" stroke="#fff" stroke-linecap="round" stroke-miterlimit="22.926" stroke-width="0.2" fill-rule="evenodd"/>
      <path id="Path_33266" data-name="Path 33266" d="M777.19,8147.564s.247.748.919.748,1.049-.771,1.049-.771" transform="translate(-774.417 -8117.79)" fill="none" stroke="#fff" stroke-linecap="round" stroke-miterlimit="22.926" stroke-width="0.2" fill-rule="evenodd"/>
      <path id="Path_33267" data-name="Path 33267" d="M4590.23,8147.564s.248.748.919.748,1.049-.771,1.049-.771" transform="translate(-4573.479 -8117.79)" fill="none" stroke="#fff" stroke-linecap="round" stroke-miterlimit="22.926" stroke-width="0.2" fill-rule="evenodd"/>
      <path id="Path_33268" data-name="Path 33268" d="M1196.67,6753.459s1.461,4.6,6.233,4.678a6.326,6.326,0,0,0,6.092-4.406" transform="translate(-1192.359 -6728.819)" fill="none" stroke="#fff" stroke-linecap="round" stroke-miterlimit="22.926" stroke-width="0.2" fill-rule="evenodd"/>
    </g>
  </g>
</svg>
