<svg xmlns="http://www.w3.org/2000/svg" width="37.611" height="42.857" viewBox="0 0 37.611 42.857">
  <g id="Group_20016" data-name="Group 20016" transform="translate(-628.802 -523)">
    <path id="Path_26278" data-name="Path 26278" d="M471.988,352.052a2.1,2.1,0,1,1,2.1-2.1A2.1,2.1,0,0,1,471.988,352.052Z" transform="translate(189.135 208.314)" fill="#000929"/>
    <g id="Group_16243" data-name="Group 16243" transform="translate(433 507)">
      <path id="Path_26279" data-name="Path 26279" d="M469.883,346.4a1.456,1.456,0,1,1-1.456,1.456,1.456,1.456,0,0,1,1.456-1.456m0-1.29a2.743,2.743,0,1,0,2.743,2.743,2.747,2.747,0,0,0-2.743-2.743Z" transform="translate(-241.76 -296.588)" fill="#636060"/>
      <path id="Path_26285" data-name="Path 26285" d="M353.7,224.755a.645.645,0,0,1-.621-.474l-1.386-5.022a.645.645,0,0,1,.373-.767c.408-.171,10.04-4.176,14.593-4.051a.642.642,0,0,1,.537.314c.253.424,2.457,4.2,2.157,6.225a.645.645,0,1,1-1.275-.188c.164-1.1-.957-3.559-1.808-5.062-3.819.087-11.16,2.928-13.181,3.74l1.233,4.471a.644.644,0,0,1-.45.792A.834.834,0,0,1,353.7,224.755Z" transform="translate(-153.361 -196.553)" fill="#636060"/>
      <path id="Path_26287" data-name="Path 26287" d="M359.585,207.69a.967.967,0,0,1,.251,1.9l-16.351,4.415a.939.939,0,0,1-.253.033.968.968,0,0,1-.933-.715h0a.969.969,0,0,1,.682-1.186l16.351-4.415a1.073,1.073,0,0,1,.253-.033m0-1.29h0a2.266,2.266,0,0,0-.589.077l-16.351,4.415a2.256,2.256,0,0,0,1.177,4.356l16.351-4.415a2.256,2.256,0,0,0-.589-4.434Z" transform="translate(-145.176 -190.4)" fill="#636060"/>
      <path id="Path_26301" data-name="Path 26301" d="M386.514,253.936H386.5a.644.644,0,0,1-.631-.656l.192-9.43a.644.644,0,0,1,1.287.026l-.192,9.43A.641.641,0,0,1,386.514,253.936Z" transform="translate(-179.543 -218.586)" fill="#636060"/>
      <g id="Group_16242" data-name="Group 16242">
        <path id="Path_26268" data-name="Path 26268" d="M387.688,321.052a2.1,2.1,0,1,1,2.1-2.1A2.1,2.1,0,0,1,387.688,321.052Z" transform="translate(-179.33 -274.953)" fill="#000929"/>
        <path id="Path_26269" data-name="Path 26269" d="M385.583,315.4a1.456,1.456,0,1,1-1.456,1.456,1.456,1.456,0,0,1,1.456-1.456m0-1.287a2.743,2.743,0,1,0,2.743,2.743,2.747,2.747,0,0,0-2.743-2.743Z" transform="translate(-177.225 -272.855)" fill="#636060"/>
        <path id="Path_26270" data-name="Path 26270" d="M393.281,319.116v.935a.555.555,0,0,1-.556.556h0a.555.555,0,0,1-.556-.556v-.935a.555.555,0,0,1,.556-.556h0A.555.555,0,0,1,393.281,319.116Z" transform="translate(-184.367 -276.264)" fill="#636060"/>
        <path id="Path_26271" data-name="Path 26271" d="M393.959,269.278a.644.644,0,0,1-.41-.148c-.148-.122-14.818-12.035-26.454-3.2a.644.644,0,0,1-.778-1.027c5.17-3.925,11.674-4.6,18.813-1.953a34.911,34.911,0,0,1,9.242,5.186.646.646,0,0,1,.087.907A.653.653,0,0,1,393.959,269.278Z" transform="translate(-164.379 -232.477)" fill="#636060"/>
        <path id="Path_26272" data-name="Path 26272" d="M428.33,299.371a.645.645,0,0,1-.413-1.139c2.23-1.857,4.023-4.08,3.761-4.663-.478-.835-6.248-3.013-11.32-4.549a.645.645,0,1,1,.375-1.233c3.4,1.029,11.376,3.6,12.122,5.252.842,1.864-2.933,5.205-4.11,6.183A.651.651,0,0,1,428.33,299.371Z" transform="translate(-205.596 -252.684)" fill="#636060"/>
        <path id="Path_26273" data-name="Path 26273" d="M420.325,255.844a.646.646,0,0,1-.64-.574,37.7,37.7,0,0,1,.661-12.38.645.645,0,0,1,1.25.321,37.072,37.072,0,0,0-.628,11.915.642.642,0,0,1-.57.71A.4.4,0,0,1,420.325,255.844Z" transform="translate(-205.258 -217.965)" fill="#636060"/>
        <path id="Path_26274" data-name="Path 26274" d="M438.137,267.471a.644.644,0,0,1-.642-.6,26.531,26.531,0,0,1,1.777-11.475.644.644,0,0,1,1.177.525,25.682,25.682,0,0,0-1.667,10.87.643.643,0,0,1-.6.682A.255.255,0,0,1,438.137,267.471Z" transform="translate(-219.027 -227.613)" fill="#636060"/>
        <path id="Path_26275" data-name="Path 26275" d="M456.414,273.5a.645.645,0,0,1-.645-.642,41.855,41.855,0,0,1,1.214-10.087.644.644,0,1,1,1.243.338,41.3,41.3,0,0,0-1.17,9.744.643.643,0,0,1-.642.647Z" transform="translate(-233.055 -233.188)" fill="#636060"/>
        <path id="Path_26276" data-name="Path 26276" d="M472.643,281.425a.646.646,0,0,1-.645-.631,38.7,38.7,0,0,1,1.13-10.19.644.644,0,1,1,1.243.342,38.107,38.107,0,0,0-1.086,9.815.643.643,0,0,1-.628.659A.017.017,0,0,1,472.643,281.425Z" transform="translate(-245.471 -239.189)" fill="#636060"/>
        <path id="Path_26277" data-name="Path 26277" d="M379.414,269.659a2.9,2.9,0,0,1-.985-.192c-1.78-.249-14.234-2-15.915-2.7s-1.979-1.561-2.016-1.937c-.413-1.456-3.247-11.442-3.418-12.473a1.407,1.407,0,0,1,.3-1.184,2.075,2.075,0,0,1,1.5-.612.656.656,0,0,1,.232.042l22.738,8.759a.646.646,0,0,1,.373.375c.4,1.067-.148,3.524-.905,6.624-.216.879-.417,1.709-.448,2.019a1.333,1.333,0,0,1-.64,1.076A1.576,1.576,0,0,1,379.414,269.659ZM361.781,264.7c.038.127.319.5,1.226.877,1.179.488,10.021,1.838,15.678,2.626a.635.635,0,0,1,.162.045,1.222,1.222,0,0,0,.717.1h0s.009-.033.014-.1a21.828,21.828,0,0,1,.481-2.2,26.78,26.78,0,0,0,1-5.613l-22.288-8.586a.8.8,0,0,0-.415.148c-.023.028-.012.106-.007.138.138.828,2.506,9.231,3.407,12.4A.88.88,0,0,1,361.781,264.7Zm0,.07Zm0,0Zm0,0v0Zm0,0Zm0-.075Z" transform="translate(-157.484 -224.207)" fill="#636060"/>
        <path id="Path_26281" data-name="Path 26281" d="M457.413,281.344l7.54-2.842a.891.891,0,0,1,1.1.94c0,1.147-1.1,7.006-1.681,7.179s-7.193,3.132-7.193,3.132-1.437.952-1.039-.72S457.413,281.344,457.413,281.344Z" transform="translate(-233.285 -245.586)" fill="#abe236"/>
        <path id="Path_26282" data-name="Path 26282" d="M454.348,288.565a1,1,0,0,1-.586-.178c-.417-.291-.535-.832-.349-1.606.387-1.625,1.252-7.573,1.261-7.632a.645.645,0,0,1,.41-.511l7.54-2.842a.616.616,0,0,1,.108-.03,1.72,1.72,0,0,1,1.339.319,1.552,1.552,0,0,1,.525,1.257,29.028,29.028,0,0,1-.638,4.089c-.743,3.479-1.147,3.6-1.5,3.707-.4.122-4.53,1.948-7.071,3.083A2.09,2.09,0,0,1,454.348,288.565Zm.27-1.083h0Zm1.275-7.772c-.2,1.358-.879,5.915-1.226,7.369-.007.028-.012.054-.016.077.026-.014.052-.03.075-.045a.689.689,0,0,1,.091-.049c1.041-.464,5.993-2.678,7.1-3.1a30.59,30.59,0,0,0,1.393-6.624.384.384,0,0,0-.061-.263.425.425,0,0,0-.244-.047Z" transform="translate(-231.184 -243.482)" fill="#636060"/>
        <path id="Path_26283" data-name="Path 26283" d="M390.643,249.047a.63.63,0,0,1-.293-.073c-.136-.07-13.542-6.961-17.655-8.3a3.11,3.11,0,0,0-.816-.2c-2.513.073-11.479,1.843-12.222,2.9a.645.645,0,0,1-1.238-.361c.117-.45.366-1.386,6.286-2.689a52.749,52.749,0,0,1,7.137-1.137,3.969,3.969,0,0,1,1.252.263c4.211,1.369,17.291,8.094,17.845,8.38a.644.644,0,0,1-.3,1.217Zm-31-5.66Z" transform="translate(-158.514 -215.5)" fill="#636060"/>
        <path id="Path_26284" data-name="Path 26284" d="M383.734,328.052a5.118,5.118,0,0,1-1.557-.225c-.464-.1-4.839-1.041-9.207-2.211-9.657-2.584-9.871-3.716-9.986-4.323-.462-2.438,3.716-5.4,4.56-5.974a.645.645,0,1,1,.722,1.069c-1.791,1.212-4.206,3.444-4.019,4.642.668,1.179,9.967,3.794,18.241,5.547a.62.62,0,0,1,.094.028,4.669,4.669,0,0,0,4-.746c.706-.469,1.449-.865,2.105-1.214a7.991,7.991,0,0,0,1.754-1.1,1.362,1.362,0,0,0-.26-.209c-1.468-.964-10.3-4.166-13.578-5.318a.644.644,0,0,1,.427-1.215c.488.171,11.958,4.209,13.857,5.456a1.616,1.616,0,0,1,.865,1.329c-.042.9-1.057,1.444-2.462,2.192-.631.335-1.346.715-2,1.149A6.385,6.385,0,0,1,383.734,328.052Zm-19.484-7h0Z" transform="translate(-161.998 -273.697)" fill="#636060"/>
        <path id="Path_26286" data-name="Path 26286" d="M345.342,216.789a1.612,1.612,0,0,1-.42-3.168l16.351-4.415a1.611,1.611,0,0,1,.837,3.111l-16.351,4.415A1.558,1.558,0,0,1,345.342,216.789Z" transform="translate(-147.283 -192.506)" fill="#abe236"/>
        <path id="Path_26288" data-name="Path 26288" d="M439.228,372.729a2.1,2.1,0,1,1,2.1-2.1A2.1,2.1,0,0,1,439.228,372.729Z" transform="translate(-218.787 -314.516)" fill="#000929"/>
        <path id="Path_26289" data-name="Path 26289" d="M437.123,367.07a1.456,1.456,0,1,1-1.456,1.456,1.456,1.456,0,0,1,1.456-1.456m0-1.29a2.743,2.743,0,1,0,2.743,2.743,2.747,2.747,0,0,0-2.743-2.743Z" transform="translate(-216.682 -312.41)" fill="#636060"/>
        <path id="Path_26290" data-name="Path 26290" d="M444.821,370.8v.935a.555.555,0,0,1-.556.556h0a.555.555,0,0,1-.556-.556V370.8a.555.555,0,0,1,.556-.556h0A.555.555,0,0,1,444.821,370.8Z" transform="translate(-223.824 -315.826)" fill="#636060"/>
        <path id="Path_26291" data-name="Path 26291" d="M359.588,346.732a2.1,2.1,0,1,1,2.1-2.1A2.1,2.1,0,0,1,359.588,346.732Z" transform="translate(-157.818 -294.611)" fill="#000929"/>
        <path id="Path_26292" data-name="Path 26292" d="M357.483,341.087a1.456,1.456,0,1,1-1.456,1.456,1.456,1.456,0,0,1,1.456-1.456m0-1.287a2.743,2.743,0,1,0,2.743,2.743,2.747,2.747,0,0,0-2.743-2.743Z" transform="translate(-155.713 -292.523)" fill="#636060"/>
        <path id="Path_26293" data-name="Path 26293" d="M365.181,344.806v.935a.555.555,0,0,1-.556.556h0a.555.555,0,0,1-.556-.556v-.935a.555.555,0,0,1,.556-.556h0A.555.555,0,0,1,365.181,344.806Z" transform="translate(-162.855 -295.93)" fill="#636060"/>
        <path id="Path_26294" data-name="Path 26294" d="M387.152,273.733a.647.647,0,0,1-.633-.523,37.688,37.688,0,0,1-.317-12.391.644.644,0,0,1,1.268.223,37.111,37.111,0,0,0,.312,11.929.635.635,0,0,1-.631.762Z" transform="translate(-179.521 -231.652)" fill="#636060"/>
        <path id="Path_26295" data-name="Path 26295" d="M403.744,280.156a.647.647,0,0,1-.633-.523,37.651,37.651,0,0,1-.317-12.422.644.644,0,1,1,1.268.223,37.17,37.17,0,0,0,.314,11.957.645.645,0,0,1-.511.755A.71.71,0,0,1,403.744,280.156Z" transform="translate(-192.223 -236.547)" fill="#636060"/>
        <path id="Path_26296" data-name="Path 26296" d="M420.738,286.38a.644.644,0,0,1-.64-.584,48.742,48.742,0,0,1,.213-11,.644.644,0,1,1,1.273.2,48.623,48.623,0,0,0-.2,10.677.648.648,0,0,1-.581.7Z" transform="translate(-205.586 -242.346)" fill="#636060"/>
        <path id="Path_26297" data-name="Path 26297" d="M437.4,292.147a.646.646,0,0,1-.64-.572,45.22,45.22,0,0,1,.12-11.1.645.645,0,0,1,1.273.2,44.917,44.917,0,0,0-.11,10.75.644.644,0,0,1-.567.713Z" transform="translate(-218.287 -246.695)" fill="#636060"/>
        <path id="Path_26298" data-name="Path 26298" d="M387.861,287.279c-.028,0-.056,0-.084,0-.624-.082-15.341-2.03-21.439-6.171a.645.645,0,0,1,.724-1.067c5.847,3.969,20.731,5.939,20.881,5.958a.645.645,0,0,1-.082,1.285Z" transform="translate(-164.375 -246.688)" fill="#636060"/>
        <path id="Path_26299" data-name="Path 26299" d="M374.961,294.332a.655.655,0,0,1-.413-.148.644.644,0,0,1-.084-.907c.1-.12,2.544-2.971,11-5.484a.645.645,0,1,1,.368,1.236c-8.084,2.4-10.351,5.046-10.375,5.071A.634.634,0,0,1,374.961,294.332Z" transform="translate(-170.699 -252.688)" fill="#636060"/>
        <path id="Path_26300" data-name="Path 26300" d="M403.118,252.893a.214.214,0,0,1-.04,0,.642.642,0,0,1-.6-.682l.661-10.6a.644.644,0,0,1,1.285.08l-.661,10.6A.644.644,0,0,1,403.118,252.893Z" transform="translate(-192.256 -216.893)" fill="#636060"/>
        <path id="Path_26302" data-name="Path 26302" d="M471.806,290.7a.455.455,0,0,1-.056,0,.32.32,0,0,1-.26-.373l.83-4.685-5.193,1.965a.322.322,0,1,1-.227-.6l5.723-2.166a.316.316,0,0,1,.319.054.328.328,0,0,1,.113.3l-.928,5.243A.328.328,0,0,1,471.806,290.7Z" transform="translate(-241.414 -250.426)" fill="#fff"/>
        <path id="Path_26303" data-name="Path 26303" d="M351.561,219.238a.323.323,0,0,1-.087-.633l15.235-4.253a.321.321,0,0,1,.173.619l-15.235,4.253A.292.292,0,0,1,351.561,219.238Z" transform="translate(-153.033 -196.479)" fill="#fff"/>
        <path id="Path_5107" data-name="Path 5107" d="M.718.843V.01C.718,0,.719,0,.725,0H.888C.9,0,.9,0,.9.018V.534Q.9.81.9,1.086q0,.107,0,.213c0,.037,0,.074,0,.112q0,.1,0,.207,0,.043,0,.086t-.01.08a.788.788,0,0,1-.034.135.525.525,0,0,1-.075.142.37.37,0,0,1-.185.132C.575,2.2.558,2.2.541,2.206l-.019,0-.039,0a.489.489,0,0,1-.063,0l-.041,0-.026,0a.384.384,0,0,1-.107-.037A.391.391,0,0,1,.084,2a.622.622,0,0,1-.049-.126Q.026,1.842.019,1.81c0-.024-.009-.049-.012-.073S0,1.69,0,1.667a.842.842,0,0,1,0-.1c0-.01,0-.02,0-.031q0-.042.011-.082t.013-.064a.563.563,0,0,1,.067-.164.416.416,0,0,1,.265-.2l.023,0h0a.374.374,0,0,1,.078,0,.278.278,0,0,1,.032,0l.029.006.036.009a.158.158,0,0,1,.033.012l.01.006a.06.06,0,0,1,.025.04.211.211,0,0,1,0,.035c0,.022,0,.044,0,.066v.112s0,.009,0,.013v0h0L.624,1.318.6,1.3a.258.258,0,0,0-.068-.034.246.246,0,0,0-.081-.012.3.3,0,0,0-.048,0,.342.342,0,0,0-.052.013.221.221,0,0,0-.046.022.24.24,0,0,0-.093.12.421.421,0,0,0-.019.064q-.007.033-.011.067a.678.678,0,0,0,0,.092.7.7,0,0,0,.007.087A.622.622,0,0,0,.2,1.79a.327.327,0,0,0,.039.094.21.21,0,0,0,.071.07.189.189,0,0,0,.051.02.318.318,0,0,0,.063.009H.48l.036-.005.03-.007a.226.226,0,0,0,.137-.135.4.4,0,0,0,.027-.1.642.642,0,0,0,.007-.093Z" transform="matrix(0.996, 0.087, -0.087, 0.996, 227.809, 36.777)" fill="#fff"/>
        <path id="Path_5108" data-name="Path 5108" d="M.184,1.052l0,0L.045.881l0-.006a.007.007,0,0,1,0-.005l0-.017Q.055.8.062.748.066.716.07.683c0-.018,0-.036,0-.054s0-.02,0-.031,0-.025,0-.038,0-.018,0-.026,0-.021,0-.032,0-.023,0-.035S.064.42.06.4A.882.882,0,0,0,0,.2L0,.187a.012.012,0,0,1,0,0L.006.176.066.1.13.022A.053.053,0,0,0,.139.008L.144,0s0,0,0,0l0,0A1.2,1.2,0,0,1,.235.2,1.155,1.155,0,0,1,.279.362Q.286.4.29.437c0,.008,0,.015,0,.023S.3.49.3.505a.032.032,0,0,0,0,0A.336.336,0,0,1,.3.555C.3.575.3.594.3.614a.473.473,0,0,1,0,.058c0,.009,0,.018,0,.026A.924.924,0,0,1,.27.811,1.017,1.017,0,0,1,.234.926l-.046.12A.009.009,0,0,1,.184,1.052Z" transform="matrix(0.996, 0.087, -0.087, 0.996, 228.773, 37.779)" fill="#fff"/>
        <path id="Path_5109" data-name="Path 5109" d="M.49.766l0,0L.416.86.348.945.342.952h0l0-.006L.305.887.2.681.108.5A1.405,1.405,0,0,1,.032.327Q.015.279,0,.229L0,.222a.007.007,0,0,1,0,0l0,0a.011.011,0,0,0,0-.005l0,0A.011.011,0,0,0,.017.2L.024.191.17.01.178,0s0,0,0,0V.01a.662.662,0,0,0,.01.068A1.022,1.022,0,0,0,.223.2.979.979,0,0,0,.277.34L.319.424.463.711.486.758Z" transform="matrix(0.996, 0.087, -0.087, 0.996, 227.213, 38.32)" fill="#fff"/>
        <path id="Path_5110" data-name="Path 5110" d="M0,.554,0,.545A1.092,1.092,0,0,1,.128.294.839.839,0,0,1,.251.151.8.8,0,0,1,.4.039C.427.026.451.015.475,0L.483,0A.005.005,0,0,1,.489,0L.5.011.633.18.64.189a0,0,0,0,1,0,0l0,0L.606.205a.533.533,0,0,0-.09.043A.668.668,0,0,0,.339.4.854.854,0,0,0,.253.527.844.844,0,0,0,.176.713L.165.758l0,0h0l0,0,0,0L.11.7.014.573,0,.559Z" transform="matrix(0.996, 0.087, -0.087, 0.996, 227.344, 37.24)" fill="#fff"/>
        <path id="Path_5111" data-name="Path 5111" d="M.5.69.493.7.45.758.427.788l0,0h0L.412.783.285.625l0-.005A.2.2,0,0,0,.261.6L.213.535.2.518.148.467A.077.077,0,0,1,.135.448L0,.193,0,.186A.072.072,0,0,1,.013.169L.023.157.108.05.144,0l0,0h0L.156.01l.052.1L.352.4.494.677Z" transform="matrix(0.996, 0.087, -0.087, 0.996, 227.496, 39.145)" fill="#fff"/>
        <path id="Path_5112" data-name="Path 5112" d="M.221.477.2.5.047.688.04.7l0,0,0-.01Q.022.636.015.582C.011.553.008.524,0,.495v0C0,.475,0,.458,0,.441A.985.985,0,0,1,.009.26C.013.234.017.208.022.183S.035.12.043.088.057.037.065.011L.069,0l0,0h0l0,.005A.041.041,0,0,0,.085.02L.136.085.23.209l0,.006a.012.012,0,0,1,0,.007C.232.237.229.252.227.268s0,.038-.006.057q0,.051,0,.1V.442c0,.006,0,.012,0,.018s0,.007,0,.01S.221.475.221.477Z" transform="matrix(0.996, 0.087, -0.087, 0.996, 227.215, 37.813)" fill="#fff"/>
        <path id="Path_5113" data-name="Path 5113" d="M.445.178l0,.006L.4.292A.048.048,0,0,1,.393.307L.355.351.329.384.223.519.209.538l0,.005A.114.114,0,0,0,.191.559L.066.719.021.777.015.783h0L0,.764A.006.006,0,0,1,0,.758L0,.753.083.56.19.3.242.172A1.533,1.533,0,0,0,.3.016L.3,0s0,0,0,0L.318.018.435.166Z" transform="matrix(0.996, 0.087, -0.087, 0.996, 228.426, 38.656)" fill="#fff"/>
        <path id="Path_5114" data-name="Path 5114" d="M.322.241H.314c-.019,0-.037,0-.056,0l-.034,0-.015,0L.164.261h0C.154.263.154.263.148.256L0,.075,0,.07a0,0,0,0,1,0,0l.008,0C.036.052.064.043.092.036L.147.022C.172.017.2.012.222.008L.29,0h.1L.448.006l.024,0,.015,0,.005,0h0L.486.027.424.108.335.225A.1.1,0,0,1,.322.241Z" transform="matrix(0.996, 0.087, -0.087, 0.996, 227.857, 37.207)" fill="#fff"/>
        <path id="Path_5115" data-name="Path 5115" d="M0,0,.028.036.075.1.124.157C.151.189.176.224.2.258l.05.066L.257.33h0l0,0L.318.259.348.222h0l0,0,0,.006L.424.365A.33.33,0,0,1,.446.42.176.176,0,0,1,.453.464.127.127,0,0,1,.431.542a.173.173,0,0,1-.039.04h0A.03.03,0,0,1,.367.591H.34a.013.013,0,0,1-.01,0L.289.548A.13.13,0,0,1,.265.514L.222.433.128.252.006.016l0-.01A.025.025,0,0,1,0,0Z" transform="matrix(0.996, 0.087, -0.087, 0.996, 227.615, 39.654)" fill="#fff"/>
        <path id="Path_5116" data-name="Path 5116" d="M0,.133V.022C0,.016,0,.009,0,0S0,0,0,0l0,0A.845.845,0,0,1,.141.124.893.893,0,0,1,.21.213Q.234.248.256.287l0,.006a0,0,0,0,1,0,0L.256.3.224.343.176.4.124.471.117.479h0l0-.006A.88.88,0,0,0,.03.338l0-.006A.128.128,0,0,1,0,.276.12.12,0,0,1,0,.261C0,.244,0,.226,0,.209s0-.05,0-.075Z" transform="matrix(0.996, 0.087, -0.087, 0.996, 228.676, 37.453)" fill="#fff"/>
        <path id="Path_5117" data-name="Path 5117" d="M0,.421A.009.009,0,0,1,0,.416l.1-.13L.273.081.334.005.339,0h0l0,.013L.283.15l-.076.2-.076.2L.123.57c0,.007,0,.007-.008,0L.04.474.008.432Z" transform="matrix(0.996, 0.087, -0.087, 0.996, 228.424, 39.027)" fill="#fff"/>
        <path id="Path_5118" data-name="Path 5118" d="M.092,0l0,0L.188.123.206.145C.213.152.218.16.223.167a.006.006,0,0,1,0,.005l0,.005C.214.2.207.221.2.242A.216.216,0,0,1,.188.27.116.116,0,0,1,.116.333.074.074,0,0,1,.041.313.132.132,0,0,1,.009.258.2.2,0,0,1,0,.186.185.185,0,0,1,.012.133L.025.1.038.068A.042.042,0,0,1,.044.057L.087,0Z" transform="matrix(0.996, 0.087, -0.087, 0.996, 228.271, 39.445)" fill="#fff"/>
        <path id="Path_5119" data-name="Path 5119" d="M.253.16v.09s0,.009,0,.013a.006.006,0,0,1,0,0H.243L.174.248.117.233.1.23.066.224h0L.005.22H0s0,0,0,0l0,0L.039.165.1.087.16.009.166,0A.005.005,0,0,1,.171,0L.186,0,.224.014l.009,0A.037.037,0,0,1,.253.051a.111.111,0,0,1,0,.016c0,.018,0,.036,0,.054Z" transform="matrix(0.996, 0.087, -0.087, 0.996, 228.211, 37.26)" fill="#fff"/>
      </g>
    </g>
  </g>
</svg>
