<svg xmlns="http://www.w3.org/2000/svg" width="58.684" height="42.046" viewBox="0 0 58.684 42.046"><g transform="translate(1 1)"><path d="M373.551,295.941H326.885a2.506,2.506,0,0,1-2.505-2.505v-26.68a2.506,2.506,0,0,1,2.505-2.505h46.665a2.506,2.506,0,0,1,2.505,2.505v26.68A2.506,2.506,0,0,1,373.551,295.941Z" transform="translate(-321.85 -255.895)" fill="#d6d6d6" stroke="#636060" stroke-linecap="round" stroke-linejoin="round" stroke-miterlimit="10" stroke-width="2"/><path d="M317.361,249.373h0a2.181,2.181,0,0,1-2.181-2.181V236.051a2.181,2.181,0,0,1,2.181-2.181h0a2.181,2.181,0,0,1,2.181,2.181v11.144A2.184,2.184,0,0,1,317.361,249.373Z" transform="translate(-315.18 -233.87)" fill="#fff" stroke="#636060" stroke-linecap="round" stroke-linejoin="round" stroke-miterlimit="10" stroke-width="2"/><path d="M333.211,249.373h0a2.181,2.181,0,0,1-2.181-2.181V236.051a2.181,2.181,0,0,1,2.181-2.181h0a2.181,2.181,0,0,1,2.181,2.181v11.144A2.18,2.18,0,0,1,333.211,249.373Z" transform="translate(-326.671 -233.87)" fill="#d8014c" stroke="#636060" stroke-linecap="round" stroke-linejoin="round" stroke-miterlimit="10" stroke-width="2"/><path d="M349.071,249.373h0a2.181,2.181,0,0,1-2.181-2.181V236.051a2.181,2.181,0,0,1,2.181-2.181h0a2.181,2.181,0,0,1,2.181,2.181v11.144A2.184,2.184,0,0,1,349.071,249.373Z" transform="translate(-338.169 -233.87)" fill="#fff" stroke="#636060" stroke-linecap="round" stroke-linejoin="round" stroke-miterlimit="10" stroke-width="2"/><path d="M364.921,249.373h0a2.181,2.181,0,0,1-2.181-2.181V236.051a2.181,2.181,0,0,1,2.181-2.181h0a2.181,2.181,0,0,1,2.181,2.181v11.144A2.18,2.18,0,0,1,364.921,249.373Z" transform="translate(-349.66 -233.87)" fill="#d8014c" stroke="#636060" stroke-linecap="round" stroke-linejoin="round" stroke-miterlimit="10" stroke-width="2"/><path d="M380.771,249.373h0a2.181,2.181,0,0,1-2.181-2.181V236.051a2.181,2.181,0,0,1,2.181-2.181h0a2.181,2.181,0,0,1,2.181,2.181v11.144A2.18,2.18,0,0,1,380.771,249.373Z" transform="translate(-361.151 -233.87)" fill="#fff" stroke="#636060" stroke-linecap="round" stroke-linejoin="round" stroke-miterlimit="10" stroke-width="2"/><path d="M396.631,249.373h0a2.181,2.181,0,0,1-2.181-2.181V236.051a2.181,2.181,0,0,1,2.181-2.181h0a2.181,2.181,0,0,1,2.181,2.181v11.144A2.18,2.18,0,0,1,396.631,249.373Z" transform="translate(-372.649 -233.87)" fill="#d8014c" stroke="#636060" stroke-linecap="round" stroke-linejoin="round" stroke-miterlimit="10" stroke-width="2"/><path d="M412.481,249.373h0a2.181,2.181,0,0,1-2.181-2.181V236.051a2.181,2.181,0,0,1,2.181-2.181h0a2.181,2.181,0,0,1,2.181,2.181v11.144A2.18,2.18,0,0,1,412.481,249.373Z" transform="translate(-384.14 -233.87)" fill="#fff" stroke="#636060" stroke-linecap="round" stroke-linejoin="round" stroke-miterlimit="10" stroke-width="2"/><path d="M428.341,249.373h0a2.181,2.181,0,0,1-2.181-2.181V236.051a2.181,2.181,0,0,1,2.181-2.181h0a2.181,2.181,0,0,1,2.181,2.181v11.144A2.18,2.18,0,0,1,428.341,249.373Z" transform="translate(-395.638 -233.87)" fill="#d8014c" stroke="#636060" stroke-linecap="round" stroke-linejoin="round" stroke-miterlimit="10" stroke-width="2"/><path d="M444.191,249.373h0a2.181,2.181,0,0,1-2.181-2.181V236.051a2.181,2.181,0,0,1,2.181-2.181h0a2.181,2.181,0,0,1,2.181,2.181v11.144A2.18,2.18,0,0,1,444.191,249.373Z" transform="translate(-407.129 -233.87)" fill="#fff" stroke="#636060" stroke-linecap="round" stroke-linejoin="round" stroke-miterlimit="10" stroke-width="2"/><path d="M460.051,249.373h0a2.181,2.181,0,0,1-2.181-2.181V236.051a2.181,2.181,0,0,1,2.181-2.181h0a2.181,2.181,0,0,1,2.181,2.181v11.144A2.18,2.18,0,0,1,460.051,249.373Z" transform="translate(-418.627 -233.87)" fill="#d8014c" stroke="#636060" stroke-linecap="round" stroke-linejoin="round" stroke-miterlimit="10" stroke-width="2"/><path d="M475.9,249.373h0a2.181,2.181,0,0,1-2.181-2.181V236.051a2.181,2.181,0,0,1,2.181-2.181h0a2.181,2.181,0,0,1,2.181,2.181v11.144A2.18,2.18,0,0,1,475.9,249.373Z" transform="translate(-430.118 -233.87)" fill="#fff" stroke="#636060" stroke-linecap="round" stroke-linejoin="round" stroke-miterlimit="10" stroke-width="2"/><path d="M491.761,249.373h0a2.181,2.181,0,0,1-2.181-2.181V236.051a2.181,2.181,0,0,1,2.181-2.181h0a2.181,2.181,0,0,1,2.181,2.181v11.144A2.182,2.182,0,0,1,491.761,249.373Z" transform="translate(-441.616 -233.87)" fill="#d8014c" stroke="#636060" stroke-linecap="round" stroke-linejoin="round" stroke-miterlimit="10" stroke-width="2"/><path d="M507.611,249.373h0a2.181,2.181,0,0,1-2.181-2.181V236.051a2.181,2.181,0,0,1,2.181-2.181h0a2.181,2.181,0,0,1,2.181,2.181v11.144A2.18,2.18,0,0,1,507.611,249.373Z" transform="translate(-453.107 -233.87)" fill="#fff" stroke="#636060" stroke-linecap="round" stroke-linejoin="round" stroke-miterlimit="10" stroke-width="2"/><g transform="translate(7.637 2.423)"><line y2="11.204" transform="translate(43.472)" fill="none" stroke="#fff" stroke-linecap="round" stroke-linejoin="round" stroke-miterlimit="10" stroke-width="2"/><line y2="11.204" transform="translate(34.779)" fill="none" stroke="#fff" stroke-linecap="round" stroke-linejoin="round" stroke-miterlimit="10" stroke-width="2"/><line y2="11.204" transform="translate(26.086)" fill="none" stroke="#fff" stroke-linecap="round" stroke-linejoin="round" stroke-miterlimit="10" stroke-width="2"/><line y2="11.204" transform="translate(17.39)" fill="none" stroke="#fff" stroke-linecap="round" stroke-linejoin="round" stroke-miterlimit="10" stroke-width="2"/><line y2="11.204" transform="translate(8.696)" fill="none" stroke="#fff" stroke-linecap="round" stroke-linejoin="round" stroke-miterlimit="10" stroke-width="2"/><line y2="11.204" fill="none" stroke="#fff" stroke-linecap="round" stroke-linejoin="round" stroke-miterlimit="10" stroke-width="2"/></g><g transform="translate(23.701 22.079)"><path d="M408.744,314.15h-5.08a2.3,2.3,0,0,0-2.3,2.3v15.662h9.689V316.455A2.306,2.306,0,0,0,408.744,314.15Z" transform="translate(-401.36 -314.15)" fill="#684b35" stroke="#636060" stroke-linecap="round" stroke-linejoin="round" stroke-miterlimit="10" stroke-width="2"/><ellipse cx="0.6" cy="0.6" rx="0.6" ry="0.6" transform="translate(7.076 9.793)" fill="#000929"/><path d="M412.842,318.96H406.61v14.389" transform="translate(-405.166 -317.637)" fill="none" stroke="#fff" stroke-linecap="round" stroke-linejoin="round" stroke-miterlimit="10" stroke-width="2"/></g><g transform="translate(36.781 18.017)"><g transform="translate(0.344 0.344)"><path d="M450.511,316.622a.341.341,0,0,1-.341-.341v-15.31a.341.341,0,0,1,.341-.341h13.542a.341.341,0,0,1,.341.341v15.31a.341.341,0,0,1-.341.341Z" transform="translate(-450.17 -300.63)" fill="#d8014c"/></g><path d="M463.147,300.065v15.31H449.6v-15.31h13.542m0-.685H449.6a.685.685,0,0,0-.685.685v15.31a.685.685,0,0,0,.685.685h13.542a.685.685,0,0,0,.685-.685v-15.31a.687.687,0,0,0-.685-.685Z" transform="translate(-448.92 -299.38)" fill="#636060"/><g transform="translate(1.482 1.603)"><line x1="10.66" transform="translate(0.341 0.341)" fill="#d8014c"/><path d="M465.311,305.892h-10.66a.341.341,0,1,1,0-.682h10.66a.341.341,0,1,1,0,.682Z" transform="translate(-454.31 -305.21)" fill="#fff"/></g></g><g transform="translate(5.646 18.017)"><g transform="translate(0.344 0.344)"><path d="M337.3,316.622a.341.341,0,0,1-.341-.341v-15.31a.341.341,0,0,1,.341-.341h13.542a.341.341,0,0,1,.341.341v15.31a.341.341,0,0,1-.341.341Z" transform="translate(-336.96 -300.63)" fill="#d8014c"/></g><path d="M349.934,300.065v15.31H336.395v-15.31h13.539m0-.685H336.395a.685.685,0,0,0-.685.685v15.31a.685.685,0,0,0,.685.685h13.542a.685.685,0,0,0,.685-.685v-15.31a.689.689,0,0,0-.688-.685Z" transform="translate(-335.71 -299.38)" fill="#636060"/><g transform="translate(1.48 1.603)"><line x1="10.657" transform="translate(0.344 0.341)" fill="#d8014c"/><path d="M352.091,305.892h-10.66a.341.341,0,1,1,0-.682h10.66a.341.341,0,0,1,.341.341A.337.337,0,0,1,352.091,305.892Z" transform="translate(-341.09 -305.21)" fill="#fff"/></g></g><g transform="translate(37.466 18.866)"><path d="M451.41,302.47v15.145h13.542v-.039Z" transform="translate(-451.41 -302.47)" fill="#931c4a"/></g><g transform="translate(6.331 18.866)"><path d="M338.2,302.47v15.145h13.539v-.039Z" transform="translate(-338.2 -302.47)" fill="#931c4a"/></g></g></svg>