<svg id="Logo_Mercadona" data-name="Logo Mercadona" xmlns="http://www.w3.org/2000/svg" width="75" height="99" viewBox="0 0 75 99">
  <rect id="Rectangle_9011" data-name="Rectangle 9011" width="75" height="99" rx="37.5" fill="#000225"/>
  <g id="mercadona-logo.08013cdd" transform="translate(19.266 21.265)">
    <path id="Path_33343" data-name="Path 33343" d="M27.224,17.788H19.26V7.777a.982.982,0,1,0-1.963,0v10.01H9.337a1.27,1.27,0,0,0-1.253,1.278v9.082a1.269,1.269,0,0,0,1.253,1.277H27.223a1.268,1.268,0,0,0,1.252-1.277V19.065a1.268,1.268,0,0,0-1.252-1.277" fill="#fbbb17" fill-rule="evenodd"/>
    <path id="Path_33344" data-name="Path 33344" d="M30.54,9.777c.32.265.215.39.013.676-.664.941-1.822,2.322-1.908,3.14-.1.924.189,2.283-.839,3.228-.427-.024-5.461,0-5.461,0,1-1.3,2.222-3.629,4.156-4.15,1.2-.321,2.032-1.734,2.8-2.869.4-.587.7-.476,1.242-.025" fill="#a71e59" fill-rule="evenodd"/>
    <path id="Path_33345" data-name="Path 33345" d="M24.847,12.16a6.836,6.836,0,0,0-1.768,1.657c-1.042,1.311-2.167,3-2.167,3h-.52c.706-2.555-.441-4.308.67-5,.745-.462,1.09.26,2.145-.278a1.037,1.037,0,0,1,1.64.612m6.743,2.308a.488.488,0,0,1,.219.52c-.15.773.96,1.4.15,1.988s-.595.96-1.067.96c-.587,0-.29-.723-1.607-1.114a3.739,3.739,0,0,0,.5-2.25,2.029,2.029,0,0,1,1.808-.1M10.176,9.79c1.293-.828,1.071,1.08,1.685.706.327-.2.64-.038.679.215.094.62-.683,1.718-.653,2.4a.055.055,0,0,1-.061.059,1.738,1.738,0,0,0-.7.107,3.679,3.679,0,0,0-.93.456A12.134,12.134,0,0,1,8.345,12.8c-.473-.264-.59-.468-.6-.86-.005-.475.364-.57.22-.882A1.557,1.557,0,0,1,7.8,9.705a.825.825,0,0,1,.64-.422c.88-.02,1.007.973,1.736.507M6.77,11.548a.277.277,0,0,1,.016.314,1.265,1.265,0,0,0,.267,1.345c.516.722,2,1.137,2.678,1.358l-.186.6a6.462,6.462,0,0,0-3.638.016,1.065,1.065,0,0,1-1.046-.088.675.675,0,0,1,0-1.024s-.9-.573-.5-1.416a.913.913,0,0,1,.928-.565A1.007,1.007,0,0,1,5.8,11.021a.735.735,0,0,1,.736.049c.1.233.178.353.238.478M9.31,16.16v.662a2.1,2.1,0,0,0-2.454,1.6c-.4,1.516-2.827.878-2.01-1.165.625-1.44,2.89-1.6,4.463-1.1" fill="#bbd43a" fill-rule="evenodd"/>
    <path id="Path_33346" data-name="Path 33346" d="M16.253,13.716a2.369,2.369,0,0,0-1.506.4c-1.165-.744-2.03-.555-1.939-.693a2.9,2.9,0,0,1,3.453-.721s.017.778-.008,1.009m-2.283.935q-.108.11-.212.224A3.408,3.408,0,0,0,13,16.747H10.289a3.1,3.1,0,0,1,0-1.1,1.81,1.81,0,0,1,1.985-1.522,3.385,3.385,0,0,1,1.69.444.056.056,0,0,1,.007.086m2.3,2.17h-2.28a2.314,2.314,0,0,1,1.4-2.154,3.2,3.2,0,0,1,.875-.119Z" fill="#f05c2c" fill-rule="evenodd"/>
    <ellipse id="Ellipse_7693" data-name="Ellipse 7693" cx="17.895" cy="17.765" rx="17.895" ry="17.765" transform="translate(0.735 0.735)" fill="none" stroke="#229e6b" stroke-width="1.469"/>
  </g>
  <path id="Path_33347" data-name="Path 33347" d="M47.654,11.056l-.879-2a1.069,1.069,0,0,0-.977-.67.981.981,0,0,0-.959.932l-.675,3.865a2.3,2.3,0,0,0-.018.245.985.985,0,1,0,1.963.154l.16-.96.391,1.077c.2.561.515.815.995.815a1.06,1.06,0,0,0,1-.824l.382-1.068.222,1.132a.937.937,0,0,0,.968.76.957.957,0,0,0,.959-.969,1.657,1.657,0,0,0-.035-.335l-.675-3.893a1.04,1.04,0,0,0-.3-.66,1.024,1.024,0,0,0-.675-.272.968.968,0,0,0-.861.534l-.986,2.136ZM53.528,12.6v-.453h.7a.854.854,0,0,0,.6-.154.747.747,0,0,0,.258-.57.713.713,0,0,0-.791-.715h-.773V10.3h.977a1.03,1.03,0,0,0,.746-.218.953.953,0,0,0,.32-.733.885.885,0,0,0-.675-.869,2.474,2.474,0,0,0-.746-.045H52.978a1.692,1.692,0,0,0-.844.1.888.888,0,0,0-.471.5,1.561,1.561,0,0,0-.089.76v3.277a2.391,2.391,0,0,0,.035.6.912.912,0,0,0,.56.724,1.874,1.874,0,0,0,.746.081h1.519a1.066,1.066,0,0,0,.808-.208.98.98,0,0,0,.32-.724.938.938,0,0,0-.32-.706,1.084,1.084,0,0,0-.817-.226Zm4.626-2.326a1.979,1.979,0,0,0,.2.009c.293-.009.453.109.453.326s-.151.325-.444.317h-.213v-.652ZM60.1,12.142a2.179,2.179,0,0,0-.924-3.621,3.531,3.531,0,0,0-.95-.09h-.817a1.118,1.118,0,0,0-.888.263,1.052,1.052,0,0,0-.32.887V13.3a1.325,1.325,0,0,0,.231.851.987.987,0,0,0,.764.362.966.966,0,0,0,.959-1v-.824l.808,1.367a.906.906,0,0,0,.808.462.963.963,0,0,0,.977-.978,1.246,1.246,0,0,0-.187-.643Zm6.989.57a1.01,1.01,0,0,0-.977-.978.966.966,0,0,0-.675.29l-.2.217a1.192,1.192,0,0,1-.871.4,1.177,1.177,0,0,1,.009-2.353,1.137,1.137,0,0,1,.844.362l.284.317a.881.881,0,0,0,.613.244.989.989,0,0,0,.977-1,1.614,1.614,0,0,0-.719-1.195,3.053,3.053,0,0,0-1.98-.733,3.168,3.168,0,1,0,2.06,5.54,1.581,1.581,0,0,0,.639-1.113m3.134-.471.3-.724.3.724Zm-.6,1.439h1.812c.275.616.541.833.995.833a.989.989,0,0,0,.986-.987,1.056,1.056,0,0,0-.115-.48L71.438,8.992a1,1,0,0,0-.914-.606.978.978,0,0,0-.9.6l-1.856,4.01a1.254,1.254,0,0,0-.125.525.971.971,0,0,0,.968,1C69.085,14.514,69.378,14.269,69.626,13.681Zm6.215-3.394H76a1.629,1.629,0,0,1,.755.127,1.164,1.164,0,0,1,.631,1.041,1.221,1.221,0,0,1-.479.96c-.231.163-.391.19-1.066.2Zm-.835-1.856a1,1,0,0,0-1.074.661,2.035,2.035,0,0,0-.044.7v3.322a2.536,2.536,0,0,0,.035.652.879.879,0,0,0,.409.543,1.287,1.287,0,0,0,.826.163h.826a5.838,5.838,0,0,0,1-.072,2.945,2.945,0,0,0,1.395-.733,3.07,3.07,0,0,0,.95-2.218,2.98,2.98,0,0,0-3.126-3.015Zm6.827,3.014a1.164,1.164,0,0,1,2.327.009,1.164,1.164,0,1,1-2.327-.009m-1.963-.027a3.122,3.122,0,1,0,3.117-3.132,3.113,3.113,0,0,0-3.117,3.132m10.1-.688L88.416,8.784a.88.88,0,0,0-.728-.4.987.987,0,0,0-1.021,1.068v3.82a1.251,1.251,0,0,0,.2.851.991.991,0,0,0,.781.389.981.981,0,0,0,.755-.362,1.1,1.1,0,0,0,.222-.8V12.088l1.545,2.019a.932.932,0,0,0,.773.407.955.955,0,0,0,.764-.371,1.3,1.3,0,0,0,.213-.905V9.544a1.15,1.15,0,0,0-.231-.8.951.951,0,0,0-1.545.073,1.214,1.214,0,0,0-.178.787Zm5.1,1.512.3-.724.3.724Zm-.6,1.439h1.812c.275.616.541.833.995.833a.989.989,0,0,0,.986-.987,1.056,1.056,0,0,0-.115-.48L96.283,8.992a1,1,0,0,0-.915-.606.978.978,0,0,0-.9.6l-1.856,4.01a1.254,1.254,0,0,0-.125.525.971.971,0,0,0,.968,1c.471,0,.764-.244,1.012-.833Z" transform="translate(-33.734 57.265)" fill="#229e6b" fill-rule="evenodd"/>
</svg>
