<svg xmlns="http://www.w3.org/2000/svg" width="75" height="99" viewBox="0 0 75 99">
  <g id="Group_20013" data-name="Group 20013" transform="translate(18568 16532)">
    <rect id="Rectangle_9009" data-name="Rectangle 9009" width="75" height="99" rx="37.5" transform="translate(-18568 -16532)" fill="#000225"/>
    <g id="logotipo-miss-sushi" transform="translate(-18555.5 -16488.883)">
      <g id="Group_18840" data-name="Group 18840" transform="translate(0 0.025)">
        <g id="Group_18836" data-name="Group 18836" transform="translate(0 0.924)">
          <path id="Path_33331" data-name="Path 33331" d="M13.471,16.114a.972.972,0,0,0-.957.957.957.957,0,1,0,.957-.957m0-.414a1.38,1.38,0,0,1,1.371,1.371,1.363,1.363,0,0,1-1.371,1.371A1.38,1.38,0,0,1,12.1,17.071,1.4,1.4,0,0,1,13.471,15.7" transform="translate(-8.971 -12.571)" fill="#ea5077" stroke="#ea5077" stroke-width="0.5"/>
          <path id="Path_33332" data-name="Path 33332" d="M9,6.237A2.649,2.649,0,0,0,6.362,3.6,2.555,2.555,0,0,0,4.5,4.375,2.661,2.661,0,0,0,2.638,3.6,2.616,2.616,0,0,0,0,6.237,2.661,2.661,0,0,0,.776,8.1,2.6,2.6,0,0,0,0,9.96,2.649,2.649,0,0,0,2.638,12.6,2.709,2.709,0,0,0,4.5,11.822a2.615,2.615,0,0,0,1.862.776A2.633,2.633,0,0,0,8.223,8.1,2.709,2.709,0,0,0,9,6.237ZM6.362,3.987a2.251,2.251,0,0,1,2.25,2.25,2.227,2.227,0,0,1-.595,1.5l-.1.1a2.385,2.385,0,0,0-.853-.414A2.687,2.687,0,0,0,5.2,5.538a2.17,2.17,0,0,0-.44-.879A2.224,2.224,0,0,1,6.362,3.987ZM2.25,8.1a2.25,2.25,0,1,1,2.25,2.25A2.251,2.251,0,0,1,2.25,8.1ZM.388,6.237a2.251,2.251,0,0,1,2.25-2.25A2.219,2.219,0,0,1,4.732,5.461H4.5A2.649,2.649,0,0,0,1.862,8.1v.233A2.27,2.27,0,0,1,.388,6.237Zm2.25,5.974A2.232,2.232,0,0,1,1.086,8.357a2.614,2.614,0,0,0,.853.414A2.687,2.687,0,0,0,3.8,10.659a2.508,2.508,0,0,0,.414.879A2.165,2.165,0,0,1,2.638,12.21Zm3.724,0a2.219,2.219,0,0,1-2.095-1.474h.259A2.649,2.649,0,0,0,7.163,8.1V7.866A2.244,2.244,0,0,1,8.637,9.96,2.291,2.291,0,0,1,6.362,12.21Z" transform="translate(0 -3.598)" fill="#ea5077" stroke="#ea5077" stroke-width="0.5"/>
        </g>
        <g id="Group_18839" data-name="Group 18839" transform="translate(12.051 0)">
          <g id="Group_18837" data-name="Group 18837" transform="translate(0 0.666)">
            <path id="Path_33333" data-name="Path 33333" d="M46.988,2.91c-.078,3.336-.129,5.353-.181,6s-.078,1.138-.1,1.5c-.026.336-.052.905-.1,1.655h.8q.078-2.793.155-6.594c1.034,2.25,1.862,4.034,2.431,5.379l.672-.207c.491-2.146.828-3.465,1.034-4.008s.388-.983.491-1.319c.129,2.327.233,4.525.259,6.594v.284l.776-.155c-.155-2.793-.207-5.844-.1-9.154L52.186,2.6c-.362,1.784-.724,3.232-1.06,4.37S50.5,9.065,50.3,9.815c-.465-1.112-.931-2.2-1.371-3.258C48.462,5.5,48.152,4.643,47.919,4q-.31-.97-.388-1.319Z" transform="translate(-46.6 -2.6)" fill="#ea5077" stroke="#ea5077" stroke-width="0.5"/>
            <path id="Path_33334" data-name="Path 33334" d="M74.988,7.094c-1.06.129-1.6.414-1.681.8-.052.388-.052.646.078.75s.595.052,1.422-.1,1.215-.465,1.164-.853C75.893,7.275,75.583,7.068,74.988,7.094Zm-.905,2.767.724-.078a53.957,53.957,0,0,0,.465,5.508h-.905q.039-2.056,0-3.258A8.851,8.851,0,0,0,74.083,9.861Z" transform="translate(-66.377 -5.93)" fill="#ea5077" stroke="#ea5077" stroke-width="0.5"/>
            <path id="Path_33335" data-name="Path 33335" d="M87.357,14.99a1.527,1.527,0,0,0-.388-.983,1.052,1.052,0,0,0-.621-.207,1.437,1.437,0,0,0-.595.1c-.181.052-.31.388-.388.957a3.441,3.441,0,0,0,.155,1.758,12.191,12.191,0,0,0,.724,1.681,7.853,7.853,0,0,1,.569,1.267,1.874,1.874,0,0,1,.052.828.777.777,0,0,1-.44.465.432.432,0,0,1-.569-.181,2.829,2.829,0,0,1-.336-1.086c-.078-.491-.078-.75-.026-.75l-.595.052a5.865,5.865,0,0,0,.284,1.939,2.847,2.847,0,0,0,.517.8.626.626,0,0,0,.672.1,1.092,1.092,0,0,0,.621-.491,3.214,3.214,0,0,0,.336-1.034,2.429,2.429,0,0,0-.207-1.448,15.14,15.14,0,0,0-.672-1.448,12.14,12.14,0,0,1-.569-1.241,2.463,2.463,0,0,1-.155-1.034c.026-.336.129-.517.284-.595a1.434,1.434,0,0,1,.44-.078c.155,0,.233.1.259.284s.026.362.052.569Z" transform="translate(-74.996 -10.904)" fill="#ea5077" stroke="#ea5077" stroke-width="0.5"/>
            <path id="Path_33336" data-name="Path 33336" d="M98.483,14.99a1.527,1.527,0,0,0-.388-.983,1.052,1.052,0,0,0-.621-.207,1.517,1.517,0,0,0-.595.1c-.181.052-.31.388-.388.957a3.441,3.441,0,0,0,.155,1.758,12.192,12.192,0,0,0,.724,1.681,6.069,6.069,0,0,1,.569,1.267,1.307,1.307,0,0,1,.026.828.71.71,0,0,1-.44.465.432.432,0,0,1-.569-.181,2.829,2.829,0,0,1-.336-1.086c-.078-.491-.078-.75-.026-.75L96,18.869a5.865,5.865,0,0,0,.284,1.939,2.373,2.373,0,0,0,.517.8.617.617,0,0,0,.672.1,1.092,1.092,0,0,0,.621-.491,3.214,3.214,0,0,0,.336-1.034,2.621,2.621,0,0,0-.181-1.448,10.742,10.742,0,0,0-.7-1.448,12.142,12.142,0,0,1-.569-1.241,2.463,2.463,0,0,1-.155-1.034c.026-.336.129-.517.284-.595a1.434,1.434,0,0,1,.44-.078c.155,0,.233.1.259.284a4,4,0,0,1,.026.569Z" transform="translate(-83.225 -10.904)" fill="#ea5077" stroke="#ea5077" stroke-width="0.5"/>
          </g>
          <g id="Group_18838" data-name="Group 18838" transform="translate(16.292)">
            <path id="Path_33337" data-name="Path 33337" d="M113.324,1.674l.388-.543A2.5,2.5,0,0,0,112.574.122a1.948,1.948,0,0,0-1.215,0,1.064,1.064,0,0,0-.8.7,11.246,11.246,0,0,0-.259,1.164,3.105,3.105,0,0,0,.026,1.293,2.006,2.006,0,0,0,.336.905,2.127,2.127,0,0,0,.621.517c.284.155.569.31.879.491.31.155.595.31.853.44a2.08,2.08,0,0,1,.646.465,2.1,2.1,0,0,1,.414.8,4.887,4.887,0,0,1,.259,1.06c.078.362.1.75.155,1.164a1.63,1.63,0,0,1-.259,1.06,1.09,1.09,0,0,1-.8.491c-.31.026-.646.078-1.009.129a1.685,1.685,0,0,1-.957-.052,1.444,1.444,0,0,1-.7-.621,2.783,2.783,0,0,1-.336-.905,5.166,5.166,0,0,1-.052-.905c.026-.31.078-.75.155-1.293l-.828-.284a19.094,19.094,0,0,0-.1,2.121,4.858,4.858,0,0,0,.284,1.707,1.337,1.337,0,0,0,.7.75,4.075,4.075,0,0,0,1.138.207c.465.026.879.026,1.241.026a2.5,2.5,0,0,0,1.06-.207,1.551,1.551,0,0,0,.8-.776,4.563,4.563,0,0,0,.31-1.707,4.758,4.758,0,0,0-.284-1.888A9.863,9.863,0,0,0,114.1,5.5a2.443,2.443,0,0,0-1.112-.957q-.659-.272-1.241-.543a1.535,1.535,0,0,1-.776-.646,1.864,1.864,0,0,1,0-1.707,2.72,2.72,0,0,1,.517-.7.542.542,0,0,1,.646-.155A5.7,5.7,0,0,1,113.324,1.674Z" transform="translate(-109.6 -0.025)" fill="#ea5077" stroke="#ea5077" stroke-width="0.5"/>
            <path id="Path_33338" data-name="Path 33338" d="M132.99,13.733h.621a29.864,29.864,0,0,0,.1,4.732,1.389,1.389,0,0,0,.776,1.086,1.319,1.319,0,0,0,1.293-.259,2.04,2.04,0,0,0,.75-1.681,22.832,22.832,0,0,0-.336-3.776l.543-.336a33.8,33.8,0,0,1,.31,3.646,8.8,8.8,0,0,1-.129,1.81,1.632,1.632,0,0,1-.569,1.034,1.5,1.5,0,0,1-.879.362,8.442,8.442,0,0,1-1.215-.1,1.4,1.4,0,0,1-1.112-1.034,5.625,5.625,0,0,1-.259-1.991C132.964,16.5,132.99,15.362,132.99,13.733Z" transform="translate(-126.861 -10.015)" fill="#ea5077" stroke="#ea5077" stroke-width="0.5"/>
            <path id="Path_33339" data-name="Path 33339" d="M153.434,12.993a1.824,1.824,0,0,0-.388-1.086.994.994,0,0,0-.621-.207,1.565,1.565,0,0,0-.621.1c-.181.078-.31.44-.414,1.06a4.137,4.137,0,0,0,.155,1.939,12.156,12.156,0,0,0,.75,1.862,6.692,6.692,0,0,1,.569,1.422,2.246,2.246,0,0,1,.052.905.829.829,0,0,1-.465.517.449.449,0,0,1-.595-.207,3.3,3.3,0,0,1-.336-1.19c-.078-.543-.078-.828-.026-.828l-.595.052a6.67,6.67,0,0,0,.31,2.172,3.062,3.062,0,0,0,.543.905.574.574,0,0,0,.7.1,1.214,1.214,0,0,0,.647-.543,3.142,3.142,0,0,0,.336-1.138,3.174,3.174,0,0,0-.207-1.6,13.013,13.013,0,0,0-.7-1.6,13.8,13.8,0,0,1-.595-1.371,2.314,2.314,0,0,1-.155-1.164c.052-.362.129-.595.284-.646a.746.746,0,0,1,.465-.078c.155.026.233.129.259.336s.026.414.052.621Z" transform="translate(-140.22 -8.681)" fill="#ea5077" stroke="#ea5077" stroke-width="0.5"/>
            <path id="Path_33340" data-name="Path 33340" d="M162.726,2.6c0,3.8,0,7.008-.026,9.672h.724c-.1-1.474-.129-2.508-.129-3.129a5.417,5.417,0,0,1,.31-1.733,1.466,1.466,0,0,1,.931-1.009,1.15,1.15,0,0,1,1.655,1.034,9.964,9.964,0,0,1,.129,1.888c-.026.75-.026,1.733-.052,2.974h.621a28.75,28.75,0,0,0,.1-3.284,7.37,7.37,0,0,0-.31-2.25,4.328,4.328,0,0,0-.724-1.215,1.274,1.274,0,0,0-1.19-.414,1.34,1.34,0,0,0-1.06.595,2.412,2.412,0,0,0-.362.776,1.667,1.667,0,0,1-.155.362q.039-3.1.078-3.491a1.988,1.988,0,0,0-.078-.776Z" transform="translate(-148.968 -1.934)" fill="#ea5077" stroke="#ea5077" stroke-width="0.5"/>
            <path id="Path_33341" data-name="Path 33341" d="M183.7,15.7l.75-.1c.052,1.914.207,3.982.465,6.129h-.931c.026-1.5.026-2.715,0-3.62A10.956,10.956,0,0,0,183.7,15.7Z" transform="translate(-164.538 -11.572)" fill="#ea5077" stroke="#ea5077" stroke-width="0.5"/>
            <path id="Path_33342" data-name="Path 33342" d="M182.568,8.392c-.828.1-1.293.31-1.345.646-.052.31-.026.517.052.595.1.078.465.052,1.138-.078s.957-.362.931-.7Q183.227,8.353,182.568,8.392Z" transform="translate(-162.681 -6.226)" fill="#ea5077" stroke="#ea5077" stroke-width="0.5"/>
          </g>
        </g>
      </g>
    </g>
  </g>
</svg>
