<svg xmlns="http://www.w3.org/2000/svg" width="30.206" height="32.206" viewBox="0 0 30.206 32.206">
  <g id="Group_17028" data-name="Group 17028" transform="translate(0 0)">
    <path id="qr" d="M12.477,24.827v4.159a4.164,4.164,0,0,1-4.159,4.159H4.159A4.164,4.164,0,0,1,0,28.986V24.827a4.164,4.164,0,0,1,4.159-4.159H8.318A4.164,4.164,0,0,1,12.477,24.827Zm-2.773,0a1.388,1.388,0,0,0-1.386-1.386H4.159a1.388,1.388,0,0,0-1.386,1.386v4.159a1.388,1.388,0,0,0,1.386,1.386H8.318A1.388,1.388,0,0,0,9.7,28.986Zm-3.466.693a1.386,1.386,0,1,0,1.386,1.386A1.386,1.386,0,0,0,6.239,25.52Zm0,0" transform="translate(17.729 -0.939)" fill="#636060" opacity="0.503"/>
    <path id="qr-2" data-name="qr" d="M12.477,24.827v4.159a4.164,4.164,0,0,1-4.159,4.159H4.159A4.164,4.164,0,0,1,0,28.986V24.827a4.164,4.164,0,0,1,4.159-4.159H8.318A4.164,4.164,0,0,1,12.477,24.827Zm-2.773,0a1.388,1.388,0,0,0-1.386-1.386H4.159a1.388,1.388,0,0,0-1.386,1.386v4.159a1.388,1.388,0,0,0,1.386,1.386H8.318A1.388,1.388,0,0,0,9.7,28.986Zm-3.466.693a1.386,1.386,0,1,0,1.386,1.386A1.386,1.386,0,0,0,6.239,25.52Zm0,0" transform="translate(0 -0.939)" fill="#636060"/>
    <path id="qr-3" data-name="qr" d="M12.477,24.827v4.159a4.163,4.163,0,0,1-4.159,4.159H4.159A4.163,4.163,0,0,1,0,28.986V24.827a4.163,4.163,0,0,1,4.159-4.159H8.318A4.163,4.163,0,0,1,12.477,24.827Zm-2.773,0A1.388,1.388,0,0,0,8.318,23.44H4.159a1.388,1.388,0,0,0-1.386,1.386v4.159a1.388,1.388,0,0,0,1.386,1.386H8.318A1.388,1.388,0,0,0,9.7,28.986Zm-3.466.693a1.386,1.386,0,1,0,1.386,1.386A1.386,1.386,0,0,0,6.238,25.52Zm0,0" transform="translate(0 -20.668)" fill="#636060"/>
    <path id="qr-4" data-name="qr" d="M12.477,24.827v4.159a4.163,4.163,0,0,1-4.159,4.159H4.159A4.163,4.163,0,0,1,0,28.986V24.827a4.163,4.163,0,0,1,4.159-4.159H8.318A4.163,4.163,0,0,1,12.477,24.827Zm-2.773,0A1.388,1.388,0,0,0,8.318,23.44H4.159a1.388,1.388,0,0,0-1.386,1.386v4.159a1.388,1.388,0,0,0,1.386,1.386H8.318A1.388,1.388,0,0,0,9.7,28.986Zm-3.466.693a1.386,1.386,0,1,0,1.386,1.386A1.386,1.386,0,0,0,6.238,25.52Zm0,0" transform="translate(17.729 -20.668)" fill="#636060"/>
  </g>
</svg>
