<svg xmlns="http://www.w3.org/2000/svg" width="30.604" height="32.478" viewBox="0 0 30.604 32.478">
  <g id="Layer_127" transform="translate(-353.16 -204)">
    <g id="Group_10239" data-name="Group 10239" transform="translate(353.16 205.618)">
      <rect id="Rectangle_8283" data-name="Rectangle 8283" width="23.285" height="30.28" transform="translate(0.29 0.29)" fill="#abe236"/>
      <path id="Path_26318" data-name="Path 26318" d="M376.736,243.83H353.45a.29.29,0,0,1-.29-.29V213.26a.29.29,0,0,1,.29-.29h23.285a.29.29,0,0,1,.29.29v30.28A.29.29,0,0,1,376.736,243.83Zm-22.995-.579h22.7v-29.7h-22.7Z" transform="translate(-353.16 -212.97)" fill="#636060"/>
    </g>
    <g id="Group_10240" data-name="Group 10240" transform="translate(355.459 207.787)">
      <rect id="Rectangle_8284" data-name="Rectangle 8284" width="18.378" height="25.268" transform="translate(0.29 0.29)" fill="#f2f2f2"/>
      <path id="Path_26319" data-name="Path 26319" d="M384.567,250.839H366.19a.29.29,0,0,1-.29-.29V225.28a.29.29,0,0,1,.29-.29h18.378a.29.29,0,0,1,.29.29v25.268A.293.293,0,0,1,384.567,250.839Zm-18.087-.581h17.8V225.571h-17.8Z" transform="translate(-365.9 -224.99)" fill="#636060"/>
    </g>
    <g id="Group_10241" data-name="Group 10241" transform="translate(360.209 204)">
      <rect id="Rectangle_8285" data-name="Rectangle 8285" width="8.927" height="4.646" transform="translate(0.29 0.29)" fill="#bfbfbf"/>
      <path id="Path_26320" data-name="Path 26320" d="M401.448,209.227h-8.927a.29.29,0,0,1-.29-.29V204.29a.29.29,0,0,1,.29-.29h8.927a.29.29,0,0,1,.29.29v4.646A.29.29,0,0,1,401.448,209.227Zm-8.637-.581h8.348v-4.067h-8.348Z" transform="translate(-392.23 -204)" fill="#636060"/>
    </g>
    <g id="Group_10247" data-name="Group 10247" transform="translate(360.402 213.938)">
      <g id="Group_10242" data-name="Group 10242" transform="translate(0)">
        <line id="Line_312" data-name="Line 312" x2="10.894" transform="translate(0.218 0.218)" fill="#d8014c"/>
        <path id="Path_26321" data-name="Path 26321" d="M404.412,259.517H393.518a.218.218,0,0,1,0-.437h10.894a.218.218,0,1,1,0,.437Z" transform="translate(-393.3 -259.08)" fill="#636060"/>
      </g>
      <g id="Group_10243" data-name="Group 10243" transform="translate(0 3.967)">
        <line id="Line_313" data-name="Line 313" x2="10.894" transform="translate(0.218 0.22)" fill="#d8014c"/>
        <path id="Path_26322" data-name="Path 26322" d="M404.412,281.507H393.518a.218.218,0,0,1,0-.437h10.894a.218.218,0,1,1,0,.437Z" transform="translate(-393.3 -281.07)" fill="#636060"/>
      </g>
      <g id="Group_10244" data-name="Group 10244" transform="translate(0 7.935)">
        <line id="Line_314" data-name="Line 314" x2="10.894" transform="translate(0.218 0.22)" fill="#d8014c"/>
        <path id="Path_26323" data-name="Path 26323" d="M404.412,303.5H393.518a.218.218,0,0,1,0-.437h10.894a.218.218,0,1,1,0,.437Z" transform="translate(-393.3 -303.06)" fill="#636060"/>
      </g>
      <g id="Group_10245" data-name="Group 10245" transform="translate(0 11.904)">
        <line id="Line_315" data-name="Line 315" x2="10.894" transform="translate(0.218 0.218)" fill="#d8014c"/>
        <path id="Path_26324" data-name="Path 26324" d="M404.412,325.5H393.518a.218.218,0,0,1,0-.437h10.894a.218.218,0,1,1,0,.437Z" transform="translate(-393.3 -325.06)" fill="#636060"/>
      </g>
      <g id="Group_10246" data-name="Group 10246" transform="translate(0 15.872)">
        <line id="Line_316" data-name="Line 316" x2="10.894" transform="translate(0.218 0.218)" fill="#d8014c"/>
        <path id="Path_26325" data-name="Path 26325" d="M404.412,347.487H393.518a.218.218,0,1,1,0-.437h10.894a.218.218,0,1,1,0,.437Z" transform="translate(-393.3 -347.05)" fill="#636060"/>
      </g>
    </g>
    <g id="Group_10248" data-name="Group 10248" transform="translate(357.151 212.981)">
      <path id="Path_26326" data-name="Path 26326" d="M377.4,256.117h-1.9a.218.218,0,0,1-.218-.218V254a.218.218,0,0,1,.218-.218h1.9a.218.218,0,0,1,.218.218v1.9A.218.218,0,0,1,377.4,256.117Zm-1.682-.437h1.465v-1.465h-1.465Z" transform="translate(-375.28 -253.78)" fill="#000929"/>
    </g>
    <g id="Group_10249" data-name="Group 10249" transform="translate(357.151 216.875)">
      <path id="Path_26327" data-name="Path 26327" d="M377.4,277.7h-1.9a.218.218,0,0,1-.218-.218v-1.9a.218.218,0,0,1,.218-.218h1.9a.218.218,0,0,1,.218.218v1.9A.218.218,0,0,1,377.4,277.7Zm-1.682-.435h1.465V275.8h-1.465Z" transform="translate(-375.28 -275.36)" fill="#000929"/>
    </g>
    <g id="Group_10250" data-name="Group 10250" transform="translate(357.151 220.77)">
      <path id="Path_26328" data-name="Path 26328" d="M377.4,299.286h-1.9a.218.218,0,0,1-.218-.218v-1.9a.218.218,0,0,1,.218-.218h1.9a.218.218,0,0,1,.218.218v1.9A.218.218,0,0,1,377.4,299.286Zm-1.682-.435h1.465v-1.465h-1.465Z" transform="translate(-375.28 -296.95)" fill="#000929"/>
    </g>
    <g id="Group_10251" data-name="Group 10251" transform="translate(357.151 224.666)">
      <path id="Path_26329" data-name="Path 26329" d="M377.4,320.876h-1.9a.218.218,0,0,1-.218-.218v-1.9a.218.218,0,0,1,.218-.218h1.9a.218.218,0,0,1,.218.218v1.9A.218.218,0,0,1,377.4,320.876Zm-1.682-.435h1.465v-1.465h-1.465Z" transform="translate(-375.28 -318.54)" fill="#000929"/>
    </g>
    <g id="Group_10252" data-name="Group 10252" transform="translate(357.151 228.561)">
      <path id="Path_26330" data-name="Path 26330" d="M377.4,342.466h-1.9a.218.218,0,0,1-.218-.218v-1.9a.218.218,0,0,1,.218-.218h1.9a.218.218,0,0,1,.218.218v1.9A.218.218,0,0,1,377.4,342.466Zm-1.682-.435h1.465v-1.465h-1.465Z" transform="translate(-375.28 -340.13)" fill="#000929"/>
    </g>
    <g id="Group_10287" data-name="Group 10287" transform="translate(371.783 209.143)">
      <g id="Group_10255" data-name="Group 10255" transform="translate(1.188 5.197)">
        <g id="Group_10253" data-name="Group 10253" transform="translate(0.182 0.095)">
          <path id="Path_26331" data-name="Path 26331" d="M467.879,274.244,472.2,263.33l-3.767-1.49-4.318,10.914a2.025,2.025,0,0,0,1.138,2.629h0A2.026,2.026,0,0,0,467.879,274.244Z" transform="translate(-463.97 -261.84)" fill="#d6d6d6"/>
        </g>
        <g id="Group_10254" data-name="Group 10254">
          <path id="Path_26332" data-name="Path 26332" d="M466.194,275.055c-.043.023-.088.045-.134.065a1.839,1.839,0,0,1-1.411.023l-.52-.206a1.844,1.844,0,0,1-1.037-2.392l4.42-11.174a.1.1,0,0,1,.126-.054l3.767,1.49a.1.1,0,0,1,.054.052.1.1,0,0,1,0,.074l-4.42,11.174A1.829,1.829,0,0,1,466.194,275.055Zm1.465-13.524-4.384,11.083a1.649,1.649,0,0,0,.927,2.142l.52.206a1.65,1.65,0,0,0,2.142-.927l4.384-11.083Z" transform="translate(-462.964 -261.311)" fill="#636060"/>
        </g>
      </g>
      <g id="Group_10257" data-name="Group 10257" transform="translate(0 18.738)">
        <g id="Group_10256" data-name="Group 10256">
          <path id="Path_26333" data-name="Path 26333" d="M456.523,343a.1.1,0,0,1-.081.005.1.1,0,0,1-.054-.126l2.553-6.454a.1.1,0,1,1,.18.072l-2.553,6.454A.1.1,0,0,1,456.523,343Z" transform="translate(-456.381 -336.361)" fill="#636060"/>
        </g>
      </g>
      <g id="Group_10260" data-name="Group 10260" transform="translate(1.161 11.565)">
        <g id="Group_10258" data-name="Group 10258" transform="translate(0.123 0.125)">
          <path id="Path_26334" data-name="Path 26334" d="M467.312,303.535l1.889-4.776-3.691-1.46-1.889,4.776a1.729,1.729,0,0,0,.949,2.254l.509.2A1.731,1.731,0,0,0,467.312,303.535Z" transform="translate(-463.495 -297.3)" fill="#44cef5"/>
        </g>
        <g id="Group_10259" data-name="Group 10259">
          <path id="Path_26335" data-name="Path 26335" d="M466,303.983c-.038.02-.078.04-.117.056a1.8,1.8,0,0,1-1.407.033l-.509-.2a1.811,1.811,0,0,1-1.005-.987,1.874,1.874,0,0,1-.013-1.425l1.889-4.776a.122.122,0,0,1,.157-.069l3.691,1.46a.118.118,0,0,1,.067.065.125.125,0,0,1,0,.092l-1.889,4.776A1.865,1.865,0,0,1,466,303.983Zm-.982-7.1-1.844,4.662a1.634,1.634,0,0,0,.011,1.241,1.563,1.563,0,0,0,.87.855l.509.2a1.565,1.565,0,0,0,1.22-.029,1.635,1.635,0,0,0,.857-.9h0l1.844-4.662Z" transform="translate(-462.815 -296.605)" fill="#636060"/>
        </g>
      </g>
      <g id="Group_10262" data-name="Group 10262" transform="translate(4.004 17.293)">
        <g id="Group_10261" data-name="Group 10261">
          <path id="Path_26336" data-name="Path 26336" d="M479.77,328.986a.116.116,0,0,1-.1.005l-1.018-.4a.121.121,0,0,1,.088-.226l1.018.4a.122.122,0,0,1,.069.157A.114.114,0,0,1,479.77,328.986Z" transform="translate(-478.575 -328.355)" fill="#636060"/>
        </g>
      </g>
      <g id="Group_10264" data-name="Group 10264" transform="translate(4.715 15.496)">
        <g id="Group_10263" data-name="Group 10263">
          <path id="Path_26337" data-name="Path 26337" d="M483.71,319.026a.116.116,0,0,1-.1.005l-1.018-.4a.121.121,0,1,1,.088-.225l1.018.4a.122.122,0,0,1,.069.157A.114.114,0,0,1,483.71,319.026Z" transform="translate(-482.515 -318.395)" fill="#636060"/>
        </g>
      </g>
      <g id="Group_10266" data-name="Group 10266" transform="translate(5.426 13.699)">
        <g id="Group_10265" data-name="Group 10265">
          <path id="Path_26338" data-name="Path 26338" d="M487.65,309.066a.116.116,0,0,1-.1.005l-1.018-.4a.121.121,0,0,1,.088-.226l1.018.4a.122.122,0,0,1,.069.157A.114.114,0,0,1,487.65,309.066Z" transform="translate(-486.455 -308.435)" fill="#636060"/>
        </g>
      </g>
      <g id="Group_10268" data-name="Group 10268" transform="translate(6.137 11.902)">
        <g id="Group_10267" data-name="Group 10267">
          <path id="Path_26339" data-name="Path 26339" d="M491.59,299.107a.117.117,0,0,1-.1.005l-1.018-.4a.122.122,0,0,1-.069-.157.123.123,0,0,1,.157-.069l1.018.4a.122.122,0,0,1,.069.157A.127.127,0,0,1,491.59,299.107Z" transform="translate(-490.395 -298.476)" fill="#636060"/>
        </g>
      </g>
      <g id="Group_10270" data-name="Group 10270" transform="translate(6.848 10.104)">
        <g id="Group_10269" data-name="Group 10269">
          <path id="Path_26340" data-name="Path 26340" d="M495.53,289.137a.116.116,0,0,1-.1.005l-1.018-.4a.122.122,0,0,1-.069-.157.124.124,0,0,1,.157-.069l1.018.4a.122.122,0,0,1,.068.157A.114.114,0,0,1,495.53,289.137Z" transform="translate(-494.335 -288.506)" fill="#636060"/>
        </g>
      </g>
      <g id="Group_10272" data-name="Group 10272" transform="translate(7.559 8.307)">
        <g id="Group_10271" data-name="Group 10271">
          <path id="Path_26341" data-name="Path 26341" d="M499.47,279.177a.116.116,0,0,1-.1.005l-1.018-.4a.122.122,0,0,1-.069-.157.123.123,0,0,1,.157-.069l1.018.4a.122.122,0,0,1,.069.157A.114.114,0,0,1,499.47,279.177Z" transform="translate(-498.275 -278.546)" fill="#636060"/>
        </g>
      </g>
      <g id="Group_10275" data-name="Group 10275" transform="translate(4.264 0.648)">
        <g id="Group_10273" data-name="Group 10273" transform="translate(0.123 0.122)">
          <rect id="Rectangle_8286" data-name="Rectangle 8286" width="12.087" height="1.642" transform="translate(5.972 0.604) rotate(111.58)" fill="#c6a82c"/>
        </g>
        <g id="Group_10274" data-name="Group 10274">
          <path id="Path_26342" data-name="Path 26342" d="M481.72,248.167a.117.117,0,0,1-.1.005l-1.526-.6a.118.118,0,0,1-.067-.065.125.125,0,0,1,0-.092l4.446-11.239a.123.123,0,0,1,.157-.069l1.526.6a.118.118,0,0,1,.067.065.125.125,0,0,1,0,.092L481.776,248.1A.114.114,0,0,1,481.72,248.167Zm-1.425-.779,1.3.514,4.357-11.013-1.3-.514Z" transform="translate(-480.016 -236.096)" fill="#636060"/>
        </g>
      </g>
      <g id="Group_10278" data-name="Group 10278" transform="translate(4.264 0.65)">
        <g id="Group_10276" data-name="Group 10276" transform="translate(0.12 0.117)">
          <rect id="Rectangle_8287" data-name="Rectangle 8287" width="12.087" height="0.821" transform="translate(0 11.239) rotate(-68.42)" fill="#f3d854"/>
        </g>
        <g id="Group_10277" data-name="Group 10277">
          <path id="Path_26343" data-name="Path 26343" d="M480.957,247.874a.116.116,0,0,1-.1.005l-.763-.3a.118.118,0,0,1-.067-.065.125.125,0,0,1,0-.092l4.446-11.239a.123.123,0,0,1,.157-.069l.763.3a.118.118,0,0,1,.067.065.125.125,0,0,1,0,.092l-4.446,11.239A.114.114,0,0,1,480.957,247.874Zm-.662-.478.538.213L485.19,236.6l-.538-.213Z" transform="translate(-480.016 -236.106)" fill="#636060"/>
        </g>
      </g>
      <g id="Group_10281" data-name="Group 10281" transform="translate(6.981)">
        <g id="Group_10279" data-name="Group 10279" transform="translate(0.121 0.12)">
          <rect id="Rectangle_8288" data-name="Rectangle 8288" width="1.012" height="4.716" transform="translate(4.758 1.735) rotate(111.58)" fill="#f3d854"/>
        </g>
        <g id="Group_10280" data-name="Group 10280">
          <path id="Path_26344" data-name="Path 26344" d="M499.637,235.41a.116.116,0,0,1-.1.005l-4.384-1.734a.122.122,0,0,1-.069-.157l.374-.942a.123.123,0,0,1,.157-.069L500,234.248a.118.118,0,0,1,.067.065.125.125,0,0,1,0,.092l-.374.942A.136.136,0,0,1,499.637,235.41Zm-4.285-1.911,4.159,1.645.283-.716-4.159-1.645Z" transform="translate(-495.075 -232.506)" fill="#636060"/>
        </g>
      </g>
      <g id="Group_10284" data-name="Group 10284" transform="translate(5.359 4.092)">
        <g id="Group_10282" data-name="Group 10282" transform="translate(0.124 0.121)">
          <rect id="Rectangle_8289" data-name="Rectangle 8289" width="1.012" height="4.716" transform="translate(4.758 1.735) rotate(111.58)" fill="#f3d854"/>
        </g>
        <g id="Group_10283" data-name="Group 10283">
          <path id="Path_26345" data-name="Path 26345" d="M490.65,258.09s-.005,0-.009,0a.125.125,0,0,1-.092,0l-4.386-1.734a.118.118,0,0,1-.067-.065.126.126,0,0,1,0-.092l.373-.942a.123.123,0,0,1,.157-.069l4.384,1.734a.122.122,0,0,1,.068.157l-.373.942A.11.11,0,0,1,490.65,258.09Zm-4.283-1.911,4.159,1.645.283-.716-4.159-1.645Z" transform="translate(-486.086 -255.186)" fill="#636060"/>
        </g>
      </g>
      <g id="Group_10286" data-name="Group 10286" transform="translate(1.66 14.127)">
        <g id="Group_10285" data-name="Group 10285">
          <path id="Path_26346" data-name="Path 26346" d="M466.752,315.053a.1.1,0,0,1-.092,0l-.144-.078c-.476-.254-.889-.474-.931-1.061a6.869,6.869,0,0,1,1.111-3.056.1.1,0,0,1,.171.092c-1.647,3.116-1.184,3.363-.262,3.856l.146.079a.1.1,0,0,1,.04.132A.151.151,0,0,1,466.752,315.053Z" transform="translate(-465.581 -310.807)" fill="#fff"/>
        </g>
      </g>
    </g>
    <g id="Group_10288" data-name="Group 10288" transform="translate(357.69 212.244)">
      <path id="Path_26347" data-name="Path 26347" d="M378.9,252.075a.149.149,0,0,1-.114-.054l-.484-.6a.145.145,0,0,1,.226-.182l.368.456,1.528-1.95a.145.145,0,1,1,.229.179l-1.64,2.095a.144.144,0,0,1-.114.054Z" transform="translate(-378.269 -249.691)" fill="#000929"/>
    </g>
    <g id="Group_10289" data-name="Group 10289" transform="translate(357.69 216.071)">
      <path id="Path_26348" data-name="Path 26348" d="M378.9,273.285a.149.149,0,0,1-.114-.054l-.484-.6a.145.145,0,1,1,.226-.182l.368.456,1.528-1.95a.145.145,0,0,1,.229.179l-1.64,2.095a.15.15,0,0,1-.114.054Z" transform="translate(-378.269 -270.901)" fill="#000929"/>
    </g>
    <g id="Group_10290" data-name="Group 10290" transform="translate(360.96 205.133)">
      <path id="Path_26349" data-name="Path 26349" d="M396.608,213.443a.218.218,0,0,1-.218-.218V210.5a.218.218,0,1,1,.437,0v2.726A.218.218,0,0,1,396.608,213.443Z" transform="translate(-396.39 -210.28)" fill="#fff"/>
    </g>
    <g id="Group_10291" data-name="Group 10291" transform="translate(353.86 207.361)">
      <path id="Path_26350" data-name="Path 26350" d="M357.258,249.517a.218.218,0,0,1-.218-.218v-26.45a.218.218,0,0,1,.437,0V249.3A.22.22,0,0,1,357.258,249.517Z" transform="translate(-357.04 -222.63)" fill="#fff"/>
    </g>
  </g>
</svg>
