<svg xmlns="http://www.w3.org/2000/svg" width="59.953" height="42.558" viewBox="0 0 59.953 42.558">
  <g id="Capa_x0020_1" transform="matrix(0.799, 0.602, -0.602, 0.799, 22.251, -15.885)">
    <g id="_1898646251552" transform="translate(0.007 0.006)">
      <path id="Path_33308" data-name="Path 33308" d="M191.725,1853.694l3.866-18.384s.3-1.39,1.947-.864l8.964,2.047s1.438.271,1.064,2.4-3.959,19.543-4.557,20.933-1.737,2.317-4.631,2.317c-1.275,0-3.4-.008-5.383-.016,0,0,1.812-5.59,1.55-7.135s-2.82-1.294-2.82-1.294Z" transform="translate(-161.364 -1825.014)" fill="#abb6c0" fill-rule="evenodd"/>
      <path id="Path_33309" data-name="Path 33309" d="M100.153,102.825l-8.964-2.047s1.083-9.231,2.5-8.96,3.436,3.553,5.826,2.163,2.577-.5,1.942,2.858S100.153,102.825,100.153,102.825Z" transform="translate(-55.015 -91.346)" fill="#8ab5cb" fill-rule="evenodd"/>
      <path id="Path_33310" data-name="Path 33310" d="M2851.167,5645.864h3.525s2.558-.25,2.82,1.295-1.55,7.134-1.55,7.134c-2.515-.01-4.795-.022-4.795-.022v-8.407Z" transform="translate(-2824.33 -5617.184)" fill="#8ab5cb" fill-rule="evenodd"/>
      <path id="Path_33311" data-name="Path 33311" d="M4153.078,5357.93a1.706,1.706,0,0,1,1.672,1.729v7.7a1.705,1.705,0,0,1-1.672,1.728h-2.637a1.705,1.705,0,0,1-1.672-1.728v-7.7a1.706,1.706,0,0,1,1.672-1.729Z" transform="translate(-4127.914 -5330.727)" fill="#8ab5cb" fill-rule="evenodd"/>
      <path id="Path_33312" data-name="Path 33312" d="M10.253,9.5c0-.025,1.028-8.735,1.968-8.556a4.469,4.469,0,0,1,1.44.92c1.3,1.033,2.848,2.264,4.691,1.192.928-.54,1.387-.709,1.491-.525.2.345.078,1.313-.219,2.883-.635,3.363-1.3,5.951-1.3,5.959l-.122.483.475.1s1,.186.7,1.85c-.228,1.3-1.663,8.341-2.879,13.924-.761,3.5-1.43,6.4-1.646,6.9A2.884,2.884,0,0,1,13.6,36.082a6.038,6.038,0,0,1-2.96.578c-3.421,0-8.238-.026-9.722-.034V29.157H4.355L8.3,10.4c.021-.084.251-.871,1.369-.514l.519.166.066-.558ZM12.385.016C10.749-.3,9.681,6.865,9.414,8.867a1.729,1.729,0,0,0-2,1.328L3.621,28.215H.007V37.56l.454,0c.022,0,8.474.041,10.18.041a6.854,6.854,0,0,0,3.394-.7A3.771,3.771,0,0,0,15.687,35c.246-.571.932-3.534,1.7-7.075,1.215-5.583,2.656-12.655,2.886-13.965.307-1.745-.447-2.473-.971-2.762.212-.864.726-3.028,1.214-5.612.338-1.791.445-2.946.108-3.538-.428-.753-1.257-.671-2.72.179C16.586,3,15.3,1.975,14.216,1.116a4.838,4.838,0,0,0-1.831-1.1Z" transform="translate(26.373 -0.006)" fill="#625956"/>
      <path id="Path_33313" data-name="Path 33313" d="M2760.877,5562.33c.005-.016,1.848-5.7,1.567-7.364-.334-1.976-3.3-1.684-3.308-1.683l.078.939c.006,0,2.144-.208,2.333.906.242,1.429-1.527,6.889-1.533,6.9l.862.3Z" transform="translate(-2728.814 -5525.073)" fill="#625956"/>
      <path id="Path_33314" data-name="Path 33314" d="M4060.725,5265.12h-2.638a2.085,2.085,0,0,0-1.5.646,2.232,2.232,0,0,0-.625,1.554v7.7a2.23,2.23,0,0,0,.625,1.553,2.086,2.086,0,0,0,1.5.646h2.638a2.086,2.086,0,0,0,1.5-.646,2.228,2.228,0,0,0,.625-1.553v-7.7a2.23,2.23,0,0,0-.625-1.554A2.084,2.084,0,0,0,4060.725,5265.12Zm-2.638.942h2.638a1.19,1.19,0,0,1,.858.37,1.272,1.272,0,0,1,.358.887v7.7a1.271,1.271,0,0,1-.358.887,1.19,1.19,0,0,1-.858.37h-2.638a1.191,1.191,0,0,1-.858-.37,1.273,1.273,0,0,1-.357-.887v-7.7a1.275,1.275,0,0,1,.357-.887A1.193,1.193,0,0,1,4058.087,5266.063Z" transform="translate(-4035.56 -5238.388)" fill="#625956"/>
      <path id="Path_33315" data-name="Path 33315" d="M410.31,1769.587l-8.964-2.047-.2.917,8.964,2.047Z" transform="translate(-365.073 -1758.566)" fill="#625956"/>
      <path id="Path_33316" data-name="Path 33316" d="M352.191,795.217a.471.471,0,0,0-.335-.567.454.454,0,0,0-.548.346l-1.116,4.71-4.9-1.146a.454.454,0,0,0-.543.355.47.47,0,0,0,.344.561l5.77,1.349,1.329-5.609Z" transform="translate(-306.69 -790.602)" fill="#fff"/>
      <path id="Path_33317" data-name="Path 33317" d="M593.384,2995.351a.472.472,0,0,0-.34-.565.455.455,0,0,0-.546.352l-.532,2.346a.471.471,0,0,0,.34.565.455.455,0,0,0,.547-.352Z" transform="translate(-549.097 -2979.568)" fill="#fff"/>
      <path id="Path_33318" data-name="Path 33318" d="M763.086,3757.971a.471.471,0,0,0-.34-.565.455.455,0,0,0-.546.352l-.934,4.133a.471.471,0,0,0,.34.565.455.455,0,0,0,.546-.352Z" transform="translate(-719.63 -3738.317)" fill="#fff"/>
      <path id="Path_33319" data-name="Path 33319" d="M1067.107,4937.34a.472.472,0,0,0-.324-.574.453.453,0,0,0-.555.335c-.007.025-2.145,8.977-2.222,8.978l-5.369.019a.47.47,0,0,0,0,.939l5.867-.083c.637,0,2.6-9.585,2.6-9.613Z" transform="translate(-1025.112 -4911.686)" fill="#fff"/>
      <path id="Path_33320" data-name="Path 33320" d="M5982.738,5236.947a.448.448,0,0,0,.612-.207.479.479,0,0,0-.2-.633l-3.432-1.811a.448.448,0,0,0-.612.207.478.478,0,0,0,.2.633Z" transform="translate(-5965.55 -5207.67)" fill="#625956"/>
      <path id="Path_33321" data-name="Path 33321" d="M7298.573,4832.387a.447.447,0,0,0,.612-.2.476.476,0,0,0-.192-.633l-1.961-1.062a.446.446,0,0,0-.612.2.479.479,0,0,0,.192.634Z" transform="translate(-7287.855 -4805.914)" fill="#625956"/>
      <path id="Path_33322" data-name="Path 33322" d="M5875.7,6362.3a.469.469,0,0,0,0-.938l-5.229.024a.47.47,0,0,0,0,.939Z" transform="translate(-5857.771 -6329.061)" fill="#625956"/>
      <path id="Path_33323" data-name="Path 33323" d="M7849.461,6376.584a.47.47,0,0,0,.017-.938l-1.144-.024a.47.47,0,0,0-.018.938Z" transform="translate(-7841.25 -6343.251)" fill="#625956"/>
      <path id="Path_33324" data-name="Path 33324" d="M5923.029,7322.635a.473.473,0,0,0,.31-.582.452.452,0,0,0-.562-.32l-4.925,1.473a.472.472,0,0,0-.31.582.451.451,0,0,0,.563.32Z" transform="translate(-5905.205 -7284.54)" fill="#625956"/>
      <path id="Path_33325" data-name="Path 33325" d="M7685.215,7983.471a.47.47,0,0,0,.334-.567.454.454,0,0,0-.548-.346l-3.244.821a.471.471,0,0,0-.335.567.454.454,0,0,0,.549.346Z" transform="translate(-7676.071 -7942.016)" fill="#625956"/>
      <path id="Path_33326" data-name="Path 33326" d="M6726.359,6451.232l-.373,1.253-2.626.835,2.626.834.807,2.717.807-2.717,2.626-.834-2.626-.834-.807-2.716Zm.426,1.768.008-.03.08.268.259.082-.259.083-.08.268-.079-.268-.259-.083.259-.082Z" transform="translate(-6716.031 -6417.023)" fill="#625956"/>
      <path id="Path_33327" data-name="Path 33327" d="M7253.292,4811.451l-.394,1.328-2.7.857,2.7.857.828,2.79.829-2.79,2.7-.857-2.7-.857-.829-2.79Zm.4,1.842.031-.1.1.342.331.1-.331.1-.1.342-.1-.342-.331-.1.331-.1Z" transform="translate(-7245.644 -4785.568)" fill="#625956"/>
      <path id="Path_33328" data-name="Path 33328" d="M8404.445,6071.572l-.266.894-2.278.723,2.278.724.7,2.355.7-2.355,2.278-.724-2.278-.723-.7-2.356Z" transform="translate(-8401.901 -6039.291)" fill="#625956"/>
    </g>
  </g>
</svg>
