<svg xmlns="http://www.w3.org/2000/svg" width="30.048" height="30.049" viewBox="0 0 30.048 30.049">
  <g id="descuento" transform="translate(-0.01 0)">
    <path id="Path_27455" data-name="Path 27455" d="M28.678,15.025,30,11.587a.94.94,0,0,0-.285-1.067L26.852,8.2l-.578-3.638a.939.939,0,0,0-.781-.779l-3.638-.578L19.54.347A.94.94,0,0,0,18.475.062l-3.44,1.32L11.6.064a.937.937,0,0,0-1.065.285L8.214,3.209l-3.638.578a.941.941,0,0,0-.779.779L3.218,8.2.358,10.522a.939.939,0,0,0-.285,1.065l1.318,3.439L.073,18.464a.937.937,0,0,0,.285,1.065l2.86,2.316L3.8,25.482a.939.939,0,0,0,.779.781l3.638.578L10.531,29.7a.934.934,0,0,0,1.067.285l3.437-1.316,3.439,1.318A.94.94,0,0,0,19.54,29.7l2.316-2.858,3.638-.578a.941.941,0,0,0,.781-.781l.578-3.638,2.858-2.316A.937.937,0,0,0,30,18.464Z" transform="translate(0)" fill="#f44336"/>
    <g id="Group_16358" data-name="Group 16358" transform="translate(9.401 7.512)">
      <path id="Path_27456" data-name="Path 27456" d="M162.839,133.669a2.817,2.817,0,1,1,2.817-2.817A2.82,2.82,0,0,1,162.839,133.669Zm0-3.756a.939.939,0,1,0,.939.939A.939.939,0,0,0,162.839,129.913Z" transform="translate(-160.022 -128.034)" fill="#fafafa"/>
      <path id="Path_27457" data-name="Path 27457" d="M258.839,293.669a2.817,2.817,0,1,1,2.817-2.817A2.82,2.82,0,0,1,258.839,293.669Zm0-3.756a.939.939,0,1,0,.939.939A.942.942,0,0,0,258.839,289.913Z" transform="translate(-250.388 -278.644)" fill="#fafafa"/>
      <path id="Path_27458" data-name="Path 27458" d="M160.974,143.042a.939.939,0,0,1-.762-1.485l9.39-13.146a.939.939,0,0,1,1.529,1.091l-9.39,13.146A.943.943,0,0,1,160.974,143.042Z" transform="translate(-160.035 -128.017)" fill="#fafafa"/>
    </g>
  </g>
</svg>
