<svg xmlns="http://www.w3.org/2000/svg" width="48.962" height="40.931" viewBox="0 0 48.962 40.931">
  <g id="Group_20017" data-name="Group 20017" transform="translate(-767.945 -525)">
    <path id="Path_26447" data-name="Path 26447" d="M391.843,238.158c0,9.317-6.559,16.868-14.652,16.868s-14.651-7.552-14.651-16.868,6.559-16.868,14.651-16.868a13.266,13.266,0,0,1,8.192,2.882A17.652,17.652,0,0,1,391.843,238.158Z" transform="translate(415.432 304.375)" fill="#f3d854"/>
    <path id="Path_26448" data-name="Path 26448" d="M375.244,253.737c-8.446,0-15.314-7.867-15.314-17.534s6.871-17.534,15.314-17.534a13.918,13.918,0,0,1,8.6,3.022,18.355,18.355,0,0,1,6.716,14.512C390.561,245.87,383.69,253.737,375.244,253.737Zm0-33.739c-7.712,0-13.986,7.27-13.986,16.206s6.275,16.206,13.986,16.206,13.986-7.27,13.986-16.206a17.016,17.016,0,0,0-6.2-13.463A12.6,12.6,0,0,0,375.244,220Z" transform="translate(417.379 306.33)" fill="#636060"/>
    <path id="Path_26449" data-name="Path 26449" d="M386.261,259.341a3.443,3.443,0,0,1-.741,3.72,1.412,1.412,0,0,1-1.287.8,2.735,2.735,0,0,1-3.339-1.351,2.759,2.759,0,0,1-.378-.64,1.826,1.826,0,0,1-.1-.548,2.879,2.879,0,0,1,2.367-2.892,5.618,5.618,0,0,1,3.118.777c.223.1.173.254.188.5" transform="translate(402.1 276.693)" fill="#c6a82c"/>
    <path id="Path_26450" data-name="Path 26450" d="M384.732,257.963a5,5,0,0,1,.033,1.844,4.912,4.912,0,0,1-.83,1.511,2.466,2.466,0,0,1-.546.632,1.689,1.689,0,0,1-.823.178,3.382,3.382,0,0,1-1.61-.117,2.887,2.887,0,0,1-1.077-1.072,1.824,1.824,0,0,1-.416-1.445,2.465,2.465,0,0,1,1.574-1.892,2.924,2.924,0,0,1,1.793.053,8.37,8.37,0,0,1,1,.383l.208.094.1.046q.114.069,0-.069c.025.1.038.213.066.317.1.363.754.4.828,0a.869.869,0,0,0-.119-.792,2.805,2.805,0,0,0-1.018-.548,5.357,5.357,0,0,0-2.306-.536,3.345,3.345,0,0,0-2.946,2.184,2.74,2.74,0,0,0-.028,1.968,4.7,4.7,0,0,0,1.287,1.668,2.876,2.876,0,0,0,2.029.592,3.216,3.216,0,0,0,2-.584,4.4,4.4,0,0,0,.678-1,5.483,5.483,0,0,0,.51-1.11,2.826,2.826,0,0,0,.112-1.209,3.39,3.39,0,0,0-.378-1.133c-.023-.051-.132-.03-.124.036Z" transform="translate(403.561 278.07)" fill="#c6a82c"/>
    <path id="Path_26451" data-name="Path 26451" d="M434.224,261.7c0-.1-.163-.051-.213.036a2.211,2.211,0,0,0,.018,1.747,3.935,3.935,0,0,0,.889,1.808,3.549,3.549,0,0,0,.947.6,5.122,5.122,0,0,0,1.856.589,2.1,2.1,0,0,0,1.767-.663,2.144,2.144,0,0,0,.4-1.579,6.381,6.381,0,0,0-.46-1.6,3.1,3.1,0,0,0-.317-.66,2.09,2.09,0,0,0-1.432-.8,6.242,6.242,0,0,0-1.684.056,1.383,1.383,0,0,0-.582.163,2.393,2.393,0,0,1-.269.183,1.147,1.147,0,0,1-.673,0c-.226-.036-.272.208-.4.4" transform="translate(362.24 274.645)" fill="#c6a82c"/>
    <path id="Path_26452" data-name="Path 26452" d="M433.323,260.271c.091-.216-.178-.34-.355-.312-.363.058-.48.477-.521.79a4.822,4.822,0,0,0,.4,2.12,3.034,3.034,0,0,0,1.4,1.7,6.215,6.215,0,0,0,2.217.815,2.721,2.721,0,0,0,1.976-.46,2.231,2.231,0,0,0,.841-1.869,6.475,6.475,0,0,0-.564-2.29,2.45,2.45,0,0,0-1.595-1.447,3.863,3.863,0,0,0-1.386-.135,5.339,5.339,0,0,0-1.361.178c-.058.02-.15.053-.213.084-.091.046-.183.15-.274.183-.16.058-.361-.046-.531-.041a1.046,1.046,0,0,0-.881.777.521.521,0,0,0,.333.627.611.611,0,0,0,.719-.218,1.6,1.6,0,0,0,.226-.439c-.048.076-.1.152-.145.231-.135.16-.34.02-.135.074a1.782,1.782,0,0,0,.683,0c.257-.069.427-.284.681-.343a5,5,0,0,1,1.714-.1,1.586,1.586,0,0,1,1.158.632,5.412,5.412,0,0,1,.658,1.645,2.037,2.037,0,0,1-.165,1.5,1.473,1.473,0,0,1-1.094.66,3.072,3.072,0,0,1-1.559-.289,4.163,4.163,0,0,1-1.455-.838,3.932,3.932,0,0,1-.747-1.572,3.794,3.794,0,0,1-.2-.851,1.362,1.362,0,0,1,.038-.465c.018-.058.046-.114.066-.173s.051-.122,0-.1h-.185c.01.005.02.013.033.018a.159.159,0,0,0,.223-.086Z" transform="translate(363.289 276.113)" fill="#c6a82c"/>
    <path id="Path_26453" data-name="Path 26453" d="M409.647,279.56l2.27,3.116a3.509,3.509,0,0,1,.513.871,3.694,3.694,0,0,1-1.945-.231,7.109,7.109,0,0,0-3.26-.066,10.088,10.088,0,0,1-3.065.566,5.936,5.936,0,0,1,.952-1.915,4.855,4.855,0,0,1,1.422-1.463,5.4,5.4,0,0,1,3.238-.455" transform="translate(384.379 260.9)" fill="#c6a82c"/>
    <path id="Path_26454" data-name="Path 26454" d="M408.042,279.226a11.222,11.222,0,0,0,1.209,1.976,9.842,9.842,0,0,1,1.247,2.092l.251-.409a4.813,4.813,0,0,1-1.861-.4,7.3,7.3,0,0,0-2.138-.221,8.8,8.8,0,0,0-2.054.361,6.049,6.049,0,0,1-2.12.345c.173.211.348.422.521.632a5.926,5.926,0,0,1,1.843-2.882,4.444,4.444,0,0,1,3.245-.589c.681.053.673-.929,0-.985a5.476,5.476,0,0,0-3.9.787,6.771,6.771,0,0,0-2.232,3.4.517.517,0,0,0,.521.632c1.463.114,2.806-.642,4.251-.724a7.373,7.373,0,0,1,2.082.2,10.015,10.015,0,0,0,.988.2,2.093,2.093,0,0,0,1.046-.127.334.334,0,0,0,.216-.488,10.239,10.239,0,0,0-1.488-1.973,12.4,12.4,0,0,0-1.592-1.859c-.013-.008-.043,0-.036.02Z" transform="translate(385.965 261.24)" fill="#c6a82c"/>
    <path id="Path_26455" data-name="Path 26455" d="M404.783,293.371a6.3,6.3,0,0,1,7.234.2,3.284,3.284,0,0,1-2.671,4.225C405.7,298.543,403.615,295.331,404.783,293.371Z" transform="translate(384.156 251.395)" fill="#636060"/>
    <path id="Path_26456" data-name="Path 26456" d="M406.984,297.066a4.39,4.39,0,0,1-3.618-1.767,3.138,3.138,0,0,1-.282-3.441.5.5,0,0,1,.127-.137,6.8,6.8,0,0,1,7.755.213.458.458,0,0,1,.16.234,4.287,4.287,0,0,1-.381,3.113,3.785,3.785,0,0,1-2.628,1.666A5.458,5.458,0,0,1,406.984,297.066ZM403.8,292.4a2.289,2.289,0,0,0,.289,2.389,3.654,3.654,0,0,0,3.852,1.292,2.956,2.956,0,0,0,2.049-1.259,3.312,3.312,0,0,0,.315-2.273A5.793,5.793,0,0,0,403.8,292.4Z" transform="translate(385.473 252.68)" fill="#636060"/>
    <path id="Path_26457" data-name="Path 26457" d="M383.763,318.48s.406,8.788,6.828,10.48,10.8-4.388,10.479-10.48c0,0-.541,4.779-4.936,3.91a3.737,3.737,0,0,1-2.7-2.356s-.795-.269-1.006.338a3.611,3.611,0,0,1-3.41,2.438c-2.481.2-5.254-3.723-5.254-3.723" transform="translate(399.598 231.865)" fill="#636060"/>
    <path id="Path_26458" data-name="Path 26458" d="M391.452,328.385a8.908,8.908,0,0,1-2.268-.3c-5.533-1.455-6.8-7.745-7.082-10.05a.441.441,0,0,1-.046-.414c-.023-.234-.03-.381-.03-.422a.443.443,0,0,1,.422-.462.453.453,0,0,1,.462.422c0,.013.013.216.051.554.846,1.13,3.006,3.491,4.723,3.354a3.178,3.178,0,0,0,3.027-2.141,1.179,1.179,0,0,1,1.567-.612.452.452,0,0,1,.274.267,3.271,3.271,0,0,0,2.364,2.072,3.428,3.428,0,0,0,2.788-.467,4.941,4.941,0,0,0,1.633-3.06.442.442,0,0,1,.455-.391.446.446,0,0,1,.429.419,11.491,11.491,0,0,1-3.85,9.454A7.646,7.646,0,0,1,391.452,328.385Zm-8.2-8.961c.582,2.631,2.125,6.739,6.158,7.8a6.96,6.96,0,0,0,6.4-1.305,10.134,10.134,0,0,0,3.332-5.947,4.043,4.043,0,0,1-4.388,1.546,4.172,4.172,0,0,1-2.943-2.407c-.109-.01-.231,0-.264.1a4.056,4.056,0,0,1-3.794,2.735C386.079,322.077,384.349,320.6,383.253,319.424Z" transform="translate(400.893 233.172)" fill="#636060"/>
    <ellipse id="Ellipse_6874" data-name="Ellipse 6874" cx="2.786" cy="1.808" rx="2.786" ry="1.808" transform="translate(795.949 535.74)" fill="#636060"/>
    <ellipse id="Ellipse_6875" data-name="Ellipse 6875" cx="2.786" cy="1.808" rx="2.786" ry="1.808" transform="translate(782.703 535.74)" fill="#636060"/>
    <path id="Path_26459" data-name="Path 26459" d="M403.461,335.4s-1.668,9.873,2.387,10.548,5.513-3.773,5.292-6.551-.249-4.3-.249-4.3S410.066,336.344,403.461,335.4Z" transform="translate(385.154 219.473)" fill="#e27ab8"/>
    <path id="Path_26460" data-name="Path 26460" d="M405.331,345.1a5.364,5.364,0,0,1-.866-.074,2.864,2.864,0,0,1-1.9-1.232c-2.009-2.819-.9-9.543-.851-9.829a.444.444,0,0,1,.5-.366c5.967.856,7.011-.137,7.021-.145a.417.417,0,0,1,.48-.165.453.453,0,0,1,.307.434c0,.015.03,1.549.249,4.279a7.685,7.685,0,0,1-2.034,5.98A4.2,4.2,0,0,1,405.331,345.1Zm-2.806-10.561c-.206,1.5-.767,6.594.762,8.743a1.978,1.978,0,0,0,1.323.871,3.428,3.428,0,0,0,3.027-.823,6.866,6.866,0,0,0,1.75-5.256c-.132-1.656-.2-2.88-.226-3.6C408.261,334.8,406.387,335.057,402.525,334.542Z" transform="translate(386.465 220.828)" fill="#636060"/>
    <path id="Path_26461" data-name="Path 26461" d="M417.89,351.76" transform="translate(374.135 207.035)" fill="#e5519f" stroke="#333" stroke-linecap="round" stroke-linejoin="round" stroke-miterlimit="10" stroke-width="2"/>
    <circle id="Ellipse_6876" data-name="Ellipse 6876" cx="1.252" cy="1.252" r="1.252" transform="translate(793.137 545.51)" fill="#919191"/>
    <circle id="Ellipse_6877" data-name="Ellipse 6877" cx="1.252" cy="1.252" r="1.252" transform="translate(789.334 545.51)" fill="#919191"/>
    <path id="Path_26462" data-name="Path 26462" d="M452.853,230.528s13.7,3.255,14.611,16.6-5.7,11.023-7.945,8.141-1.808-7.1-.708-10.071S448.912,229.017,452.853,230.528Z" transform="translate(348.689 297.572)" fill="#f3d854"/>
    <path id="Path_26463" data-name="Path 26463" d="M461.6,256.213a6.207,6.207,0,0,1-4.56-2.481c-2.389-3.06-1.983-7.539-.807-10.711.434-1.168-2.191-5.482-3.926-8.339-2.6-4.274-3.382-5.726-2.7-6.546.315-.378.815-.442,1.491-.193.891.231,14.164,3.908,15.076,17.191.528,7.727-1.475,10.157-3.25,10.838A3.706,3.706,0,0,1,461.6,256.213Zm-10.8-26.975a39.749,39.749,0,0,0,2.643,4.751c2.836,4.662,4.649,7.844,4.037,9.492-1.051,2.834-1.442,6.8.609,9.431,1.028,1.32,2.94,2.359,4.357,1.818,1.11-.424,2.9-2.224,2.4-9.5C463.992,232.821,451.839,229.5,450.793,229.239Z" transform="translate(350.648 299.521)" fill="#636060"/>
    <path id="Path_26464" data-name="Path 26464" d="M340.368,230.528s-13.7,3.255-14.611,16.6,5.7,11.023,7.945,8.141,1.808-7.1.708-10.071S344.309,229.017,340.368,230.528Z" transform="translate(442.938 297.574)" fill="#f3d854"/>
    <path id="Path_26465" data-name="Path 26465" d="M327.716,256.221a3.655,3.655,0,0,1-1.32-.239c-1.775-.681-3.781-3.111-3.25-10.838.909-13.283,14.182-16.96,15.076-17.191.673-.249,1.173-.185,1.491.193.686.82-.1,2.27-2.7,6.546-1.737,2.854-4.36,7.171-3.926,8.339,1.176,3.172,1.582,7.651-.807,10.711A6.236,6.236,0,0,1,327.716,256.221Zm10.8-26.975c-1.046.262-13.2,3.583-14.05,15.987-.5,7.28,1.29,9.08,2.4,9.5,1.417.541,3.329-.5,4.357-1.818,2.052-2.631,1.661-6.6.609-9.431-.612-1.648,1.2-4.827,4.037-9.492A40.181,40.181,0,0,0,338.52,229.246Zm-.1-.66h0Z" transform="translate(444.887 299.516)" fill="#636060"/>
    <ellipse id="Ellipse_6878" data-name="Ellipse 6878" cx="0.947" cy="0.693" rx="0.947" ry="0.693" transform="translate(796.68 537.363)" fill="#fff"/>
    <ellipse id="Ellipse_6879" data-name="Ellipse 6879" cx="0.947" cy="0.693" rx="0.947" ry="0.693" transform="translate(783.564 537.363)" fill="#fff"/>
    <path id="Path_26466" data-name="Path 26466" d="M339.969,247.75s-8.433,7.125-7.265,15.845" transform="translate(437.773 284.635)" fill="#f3d854"/>
    <path id="Path_26467" data-name="Path 26467" d="M330.749,262.306a.664.664,0,0,1-.658-.576c-1.2-8.976,7.138-16.139,7.493-16.439a.665.665,0,1,1,.858,1.016c-.081.069-8.141,7-7.034,15.248a.664.664,0,0,1-.571.747A.538.538,0,0,1,330.749,262.306Z" transform="translate(439.729 286.586)" fill="#fff"/>
    <path id="Path_26468" data-name="Path 26468" d="M387.993,227.189a14.352,14.352,0,0,1,4.423-2.422,9.971,9.971,0,0,1,2.839-.289,16.718,16.718,0,0,1,6.95,1.694,2.132,2.132,0,0,1,1.013.813,2.313,2.313,0,0,1,.18.538l.526,2.143c.041.165.048.394-.112.447-.122.041-.241-.058-.335-.145a4.1,4.1,0,0,0-1.376-.835.953.953,0,0,0-.427-.074.914.914,0,0,0-.394.173c-.635.432-1.14,1.12-1.894,1.27a6.256,6.256,0,0,0-1.549-1.681,4.518,4.518,0,0,0-1.572-.9,1.909,1.909,0,0,0-1.729.292,3.591,3.591,0,0,0-.612.79,7.6,7.6,0,0,1-1.028,1.234,7.527,7.527,0,0,0-.515-.886.71.71,0,0,0-.254-.259.784.784,0,0,0-.691.122l-2.521,1.356a2.02,2.02,0,0,1,.343-1.348c-.381-.345-.973,0-1.488,0-.1,0-.218-.028-.251-.122a.273.273,0,0,1,.028-.183c.19-.475.383-.95.574-1.425.048-.119.137-.262.262-.236" transform="translate(396.799 302)" fill="#c6a82c"/>
    <path id="Path_26469" data-name="Path 26469" d="M386.868,226.534a11.043,11.043,0,0,1,5.9-2.557,15.257,15.257,0,0,1,6.234.962q.8.293,1.577.655a2.186,2.186,0,0,1,1.082.767,7.536,7.536,0,0,1,.455,1.752c.033.137.1.79.206.858.289.079.361.053.216-.079-.081-.086-.165-.173-.249-.256-.508-.455-1.437-1.026-2.141-.757a3.386,3.386,0,0,0-.9.752,2.782,2.782,0,0,1-1.239.691l.505.19a5.839,5.839,0,0,0-3.621-2.862,2.323,2.323,0,0,0-1.93.485,4.339,4.339,0,0,0-.658.886,6.881,6.881,0,0,1-.975,1.148l.681.081c-.345-.7-.7-1.645-1.661-1.348a8.837,8.837,0,0,0-1.366.691l-1.559.823.7.368a1.818,1.818,0,0,1,.279-1.133.423.423,0,0,0-.168-.587c-.465-.323-.932-.165-1.442-.074a1.065,1.065,0,0,1-.18.028c-.185-.005-.15.066.107.218a2.654,2.654,0,0,0,.221-.505,4.4,4.4,0,0,1,.477-1.026l-.277.2.112-.03c.584-.157.3-.894-.244-.815-.437.063-.584.46-.724.83a3.624,3.624,0,0,0-.457,1.419c.119.993,1.465.163,1.943.493l-.168-.587a2.561,2.561,0,0,0-.4,1.564.467.467,0,0,0,.7.368l1.93-1.059c.216-.119.648-.46.851-.355.218.114.488.714.592.914a.455.455,0,0,0,.681.081,11.874,11.874,0,0,0,1.181-1.46,1.451,1.451,0,0,1,1.673-.724,5.824,5.824,0,0,1,2.946,2.382.474.474,0,0,0,.505.19,2.755,2.755,0,0,0,.894-.465,6.982,6.982,0,0,1,.945-.79c.807-.427,1.463.64,2.184.8.67.15.833-.447.714-.973-.114-.5-.251-1-.378-1.5a4,4,0,0,0-.434-1.287,4.2,4.2,0,0,0-1.95-1.216,15.453,15.453,0,0,0-2.57-.8,15.689,15.689,0,0,0-5.459-.355,8.265,8.265,0,0,0-2.862.945c-.95.518-1.785,1.193-2.689,1.78-.241.147.015.442.226.279Z" transform="translate(398.063 302.783)" fill="#c6a82c"/>
    <path id="Path_26470" data-name="Path 26470" d="M471.795,247.26q2.141,1.7,4.116,3.59a10.813,10.813,0,0,1,2.184,2.638,10.13,10.13,0,0,1,.848,2.5,33.534,33.534,0,0,1,.848,8.067,4.691,4.691,0,0,0-.625-1.9q-.743,1.95-1.59,3.86c-.272-1.239-.653-2.631-1.775-3.222a2.558,2.558,0,0,1-.863,1.3c.4-2.283.8-4.677.076-6.881a35.037,35.037,0,0,0-2.3-4.4,23.451,23.451,0,0,1-1.12-2.862q-.453-1.322-.9-2.641a3.493,3.493,0,0,1,1.651.8,1.07,1.07,0,0,0-.965-.734" transform="translate(334.744 285)" fill="#c6a82c"/>
    <path id="Path_26471" data-name="Path 26471" d="M470.686,246.6c1.176,1.094,2.42,2.115,3.6,3.215a10.6,10.6,0,0,1,2.915,3.712,21.281,21.281,0,0,1,1.079,4.858,26.694,26.694,0,0,1,.292,4.908h.457a5.018,5.018,0,0,0-.6-2.034.3.3,0,0,0-.533.063c-.5,1.287-.957,2.618-1.526,3.875h.432c-.277-1.29-.615-2.692-1.856-3.377a.274.274,0,0,0-.389.145,2.426,2.426,0,0,1-.79,1.2l.429.231a24.113,24.113,0,0,0,.513-4.451,8.875,8.875,0,0,0-1.016-4.037c-.673-1.305-1.518-2.5-2.072-3.87-.6-1.493-1.074-3.047-1.6-4.571-.14.13-.279.256-.416.386a3.616,3.616,0,0,1,1.521.7c.19.152.648.03.518-.279a1.474,1.474,0,0,0-1.171-.967c-.485-.069-.6.594-.091.627a.727.727,0,0,1,.665.49l.518-.279a3.913,3.913,0,0,0-1.777-.9c-.221-.048-.505.13-.416.386.49,1.43.95,2.874,1.5,4.279a27.627,27.627,0,0,0,1.9,3.621,9.2,9.2,0,0,1,1.346,4.106,19.831,19.831,0,0,1-.422,4.629.257.257,0,0,0,.429.231,3.076,3.076,0,0,0,.937-1.4l-.389.145a4.444,4.444,0,0,1,1.691,3.067c.051.223.358.17.432,0,.559-1.285,1.158-2.529,1.656-3.842l-.533.063a5.352,5.352,0,0,1,.655,1.818c.038.236.455.183.447-.056a46.2,46.2,0,0,0-.325-5.332,18.654,18.654,0,0,0-1.14-4.837,11.025,11.025,0,0,0-2.773-3.489,32.439,32.439,0,0,0-3.908-3.265c-.14-.089-.325.114-.193.236Z" transform="translate(335.74 285.762)" fill="#c6a82c"/>
    <path id="Path_26472" data-name="Path 26472" d="M343.9,249.96a40.174,40.174,0,0,0-4.139,5.922,18.4,18.4,0,0,0-2.389,6.1,8.869,8.869,0,0,0,1.16,6.328,26.734,26.734,0,0,0,.523-2.938,8.887,8.887,0,0,0,1.4,1.275,5.4,5.4,0,0,0,.1-2.443,10.5,10.5,0,0,1,1.191.716c-.239-1.138-.744-2.209-.922-3.359a8.94,8.94,0,0,1,.774-4.713c.615-1.491,1.44-2.885,2.09-4.36a2.972,2.972,0,0,0,.246-2.494" transform="translate(434.314 282.984)" fill="#c6a82c"/>
    <path id="Path_26473" data-name="Path 26473" d="M342.895,248.9a33.066,33.066,0,0,0-3.311,4.36A27.572,27.572,0,0,0,337.042,258a12.432,12.432,0,0,0-.993,5.051,7.192,7.192,0,0,0,1.455,4.441.2.2,0,0,0,.33-.127,9.213,9.213,0,0,1,.323-1.516c.094-.452.173-.9.241-1.361l-.406.1a14.152,14.152,0,0,0,1.386,1.287.273.273,0,0,0,.437-.107,5.06,5.06,0,0,0,.213-2.6l-.559.4c.419.206.828.416,1.229.655a.3.3,0,0,0,.447-.317,26.423,26.423,0,0,1-.9-4.083,10.254,10.254,0,0,1,.853-3.918c.475-1.214,1.072-2.374,1.587-3.568a5.651,5.651,0,0,0,.731-3.38c-.109-.521-1.031-.165-.708.277.853,1.163-.406,2.869-.98,3.908a25.772,25.772,0,0,0-1.681,3.425,8.426,8.426,0,0,0-.543,3.654,23.162,23.162,0,0,0,1.059,3.832l.51-.274a9.774,9.774,0,0,0-1.214-.82.378.378,0,0,0-.559.4,6.769,6.769,0,0,1,.013,2.285l.386-.145a7.245,7.245,0,0,1-1.361-1.224.248.248,0,0,0-.414.157c-.048.485-.1.97-.173,1.452a5.583,5.583,0,0,1-.295,1.437h.373a15.765,15.765,0,0,1-.889-2.166,8.93,8.93,0,0,1-.295-2.377,13.021,13.021,0,0,1,1.077-4.906,39.919,39.919,0,0,1,5.431-8.776c.114-.145-.145-.31-.259-.183Z" transform="translate(435.201 283.932)" fill="#c6a82c"/>
  </g>
</svg>
