<svg id="tramitacion" xmlns="http://www.w3.org/2000/svg" width="34.08" height="44.449" viewBox="0 0 34.08 44.449">
  <g id="Group_13461" data-name="Group 13461" transform="translate(12.086 9.036)">
    <path id="Path_11023" data-name="Path 11023" d="M409.791,232.521l2.667,16.357a2.118,2.118,0,0,1-1.75,2.432h0a2.118,2.118,0,0,1-2.432-1.75L405.609,233.2a2.118,2.118,0,0,1,1.75-2.432h0A2.118,2.118,0,0,1,409.791,232.521Z" transform="translate(-405.334 -230.499)" fill="#f6d892"/>
    <path id="Path_11024" data-name="Path 11024" d="M409.379,250.8a2.121,2.121,0,0,1-2.086-1.778l-2.735-16.782a2.119,2.119,0,0,1,1.75-2.432l.426-.068a2.119,2.119,0,0,1,2.432,1.75L411.9,248.27a2.121,2.121,0,0,1-1.75,2.432l-.426.068A2.144,2.144,0,0,1,409.379,250.8Zm-2.3-20.661a1.553,1.553,0,0,0-.275.024l-.426.068a1.688,1.688,0,0,0-1.395,1.938l2.735,16.782a1.688,1.688,0,0,0,1.938,1.395l.426-.068a1.692,1.692,0,0,0,1.395-1.938l-2.735-16.782a1.684,1.684,0,0,0-.68-1.1A1.664,1.664,0,0,0,407.076,230.137Z" transform="translate(-404.529 -229.709)" fill="#636060"/>
  </g>
  <g id="Group_13462" data-name="Group 13462" transform="translate(19.97 10.631)">
    <path id="Path_11025" data-name="Path 11025" d="M445.267,239.932l-1.954,14.24a2.118,2.118,0,0,1-2.387,1.811h0a2.118,2.118,0,0,1-1.811-2.387l1.954-14.24a2.118,2.118,0,0,1,2.387-1.811h0A2.12,2.12,0,0,1,445.267,239.932Z" transform="translate(-438.85 -237.282)" fill="#f6d892"/>
    <path id="Path_11026" data-name="Path 11026" d="M440.6,255.458a2.4,2.4,0,0,1-.289-.019l-.428-.059a2.121,2.121,0,0,1-1.811-2.387l2.013-14.668a2.12,2.12,0,0,1,2.387-1.811l.428.059a2.12,2.12,0,0,1,1.811,2.387L442.7,253.628A2.123,2.123,0,0,1,440.6,255.458Zm1.58-18.532a1.687,1.687,0,0,0-1.667,1.458L438.5,253.052a1.686,1.686,0,0,0,1.442,1.9l.428.059a1.686,1.686,0,0,0,1.9-1.442l2.013-14.668h0a1.686,1.686,0,0,0-1.442-1.9l-.428-.059A1.552,1.552,0,0,0,442.183,236.926Z" transform="translate(-438.055 -236.494)" fill="#636060"/>
  </g>
  <g id="Group_13463" data-name="Group 13463" transform="translate(17.375 26.13)">
    <path id="Path_11027" data-name="Path 11027" d="M432.658,303.894a2.387,2.387,0,0,1-4.718,0c0-1.117,1.056-.259,2.359-.259S432.658,302.777,432.658,303.894Z" transform="translate(-427.723 -303.103)" fill="#f6d892"/>
    <path id="Path_11028" data-name="Path 11028" d="M429.6,305.423a2.427,2.427,0,0,1-2.575-2.237.794.794,0,0,1,.245-.666c.27-.212.656-.118,1.143,0a3.888,3.888,0,0,0,2.375,0c.489-.12.872-.214,1.143,0a.791.791,0,0,1,.245.666A2.427,2.427,0,0,1,429.6,305.423Zm-1.919-2.6a.248.248,0,0,0-.146.033c-.052.04-.078.155-.078.325a2.174,2.174,0,0,0,4.285,0,.46.46,0,0,0-.078-.325c-.106-.082-.444,0-.774.082a4.269,4.269,0,0,1-2.582,0A3.217,3.217,0,0,0,427.676,302.827Z" transform="translate(-427.02 -302.396)" fill="#636060"/>
  </g>
  <g id="Group_13464" data-name="Group 13464" transform="translate(9.64 27.067)">
    <path id="Path_11029" data-name="Path 11029" d="M394.346,311.923a.216.216,0,0,1-.216-.216V306.6a.216.216,0,0,1,.433,0v5.111A.216.216,0,0,1,394.346,311.923Z" transform="translate(-394.13 -306.38)" fill="#fff"/>
  </g>
  <g id="Group_13465" data-name="Group 13465" transform="translate(8.838 28.404)">
    <path id="Path_11030" data-name="Path 11030" d="M403.18,316c-2.846-3.765-6.736-4.6-11.333-3.459l-1.127,3.147,9.958,5.87Z" transform="translate(-390.72 -312.064)" fill="#f6d892"/>
  </g>
  <g id="Group_13466" data-name="Group 13466" transform="translate(10.642 26.1)">
    <path id="Path_11031" data-name="Path 11031" d="M411.539,303.188s2.392-.459,3.168,2.81.583,11.025-.428,11.592H399.31" transform="translate(-399.094 -302.955)" fill="#f6d892"/>
    <path id="Path_11032" data-name="Path 11032" d="M413.576,317.119H398.606a.216.216,0,1,1,0-.433h14.9c.3-.27.647-1.778.736-4.574a29.367,29.367,0,0,0-.452-6.752c-.722-3.031-2.829-2.665-2.919-2.648a.215.215,0,0,1-.08-.423c.026,0,2.6-.456,3.419,2.973a29.784,29.784,0,0,1,.463,6.865c-.054,1.677-.254,4.548-.995,4.965A.21.21,0,0,1,413.576,317.119Z" transform="translate(-398.39 -302.266)" fill="#636060"/>
  </g>
  <g id="Group_13467" data-name="Group 13467" transform="translate(5.001 28.663)">
    <path id="Path_11033" data-name="Path 11033" d="M378.121,314.1s-1.517-.376-2.293,2.309-.583,9.061.428,9.529h14.969" transform="translate(-375.128 -313.867)" fill="#f6d892"/>
    <path id="Path_11034" data-name="Path 11034" d="M390.5,325.454H375.53a.234.234,0,0,1-.089-.019c-1.249-.576-1.289-7.213-.546-9.786.826-2.853,2.484-2.476,2.554-2.46a.216.216,0,0,1,.158.261.214.214,0,0,1-.259.158c-.059-.014-1.333-.268-2.037,2.159a19.979,19.979,0,0,0-.449,5.529c.085,2.187.423,3.5.727,3.725H390.5a.216.216,0,1,1,0,.433Z" transform="translate(-374.404 -313.164)" fill="#636060"/>
  </g>
  <g id="Group_13468" data-name="Group 13468" transform="translate(12.084 9.033)">
    <path id="Path_11035" data-name="Path 11035" d="M419.55,234.416l-2.013,14.668a1.9,1.9,0,0,1-2.145,1.627l-.428-.059a1.875,1.875,0,0,1-1.037-.494,2.742,2.742,0,0,1-1.729-.016,1.9,1.9,0,0,1-1.392,1.018l-.426.068a1.9,1.9,0,0,1-2.185-1.573l-2.738-16.785a1.9,1.9,0,0,1,1.573-2.185l.426-.068a1.9,1.9,0,0,1,2.185,1.573L412.2,247.9a4.171,4.171,0,0,0,.882.108c.108,0,.216-.007.322-.016l1.945-14.153a1.905,1.905,0,0,1,2.145-1.627l.426.059A1.908,1.908,0,0,1,419.55,234.416Z" transform="translate(-405.219 -230.383)" fill="#f6d892"/>
    <path id="Path_11036" data-name="Path 11036" d="M409.378,250.79a2.121,2.121,0,0,1-2.091-1.778l-2.738-16.785a2.121,2.121,0,0,1,1.75-2.432l.426-.068a2.119,2.119,0,0,1,2.434,1.752l2.538,15.56a3.535,3.535,0,0,0,.694.075c.042,0,.087,0,.132,0l1.919-13.981a2.122,2.122,0,0,1,2.387-1.811l.426.059a2.122,2.122,0,0,1,1.811,2.389l-2.013,14.666a2.122,2.122,0,0,1-2.389,1.811l-.428-.059a2.1,2.1,0,0,1-1.061-.466,2.977,2.977,0,0,1-1.573,0,2.121,2.121,0,0,1-1.46.974l-.426.068A2.29,2.29,0,0,1,409.378,250.79Zm-2.307-20.661a1.552,1.552,0,0,0-.275.024l-.426.068a1.692,1.692,0,0,0-1.395,1.938l2.738,16.785a1.691,1.691,0,0,0,1.938,1.395l.426-.068a1.7,1.7,0,0,0,1.235-.9.216.216,0,0,1,.263-.106,2.534,2.534,0,0,0,1.59.014.215.215,0,0,1,.214.047,1.667,1.667,0,0,0,.92.437l.428.059a1.69,1.69,0,0,0,1.9-1.442l2.013-14.666h0a1.688,1.688,0,0,0-1.442-1.9l-.426-.059a1.692,1.692,0,0,0-1.9,1.442l-1.945,14.153a.217.217,0,0,1-.193.186c-.12.012-.235.019-.346.019a4.563,4.563,0,0,1-.929-.113.216.216,0,0,1-.167-.176l-2.561-15.708a1.675,1.675,0,0,0-.68-1.1A1.613,1.613,0,0,0,407.071,230.13Z" transform="translate(-404.522 -229.699)" fill="#636060"/>
  </g>
  <g id="Group_13469" data-name="Group 13469" transform="translate(9.455 21.754)">
    <path id="Path_11037" data-name="Path 11037" d="M398.635,286.559l1.43,6.646a2.118,2.118,0,0,1-1.625,2.516h0a2.118,2.118,0,0,1-2.516-1.625l-1.43-6.646a2.118,2.118,0,0,1,1.625-2.516h0A2.119,2.119,0,0,1,398.635,286.559Z" transform="translate(-394.186 -284.627)" fill="#f6d892"/>
    <path id="Path_11038" data-name="Path 11038" d="M396.983,295.184a2.126,2.126,0,0,1-2.072-1.674l-1.519-7.067a2.119,2.119,0,0,1,1.625-2.516l.421-.092a2.119,2.119,0,0,1,2.516,1.627h0l1.519,7.067a2.121,2.121,0,0,1-1.627,2.516l-.421.092A2,2,0,0,1,396.983,295.184Zm-1.1-10.964a1.674,1.674,0,0,0-.355.038l-.421.092a1.687,1.687,0,0,0-1.3,2l1.519,7.067a1.69,1.69,0,0,0,2,1.3l.421-.092a1.69,1.69,0,0,0,1.3-2l-1.519-7.067A1.691,1.691,0,0,0,395.887,284.22Z" transform="translate(-393.343 -283.786)" fill="#636060"/>
  </g>
  <g id="Group_13470" data-name="Group 13470" transform="translate(5.419 24.145)">
    <path id="Path_11039" data-name="Path 11039" d="M381.465,296.729l1.43,6.646a2.118,2.118,0,0,1-1.625,2.516h0a2.118,2.118,0,0,1-2.516-1.625l-1.43-6.646a2.118,2.118,0,0,1,1.625-2.516h0A2.115,2.115,0,0,1,381.465,296.729Z" transform="translate(-377.019 -294.796)" fill="#f6d892"/>
    <path id="Path_11040" data-name="Path 11040" d="M379.823,305.351a2.126,2.126,0,0,1-2.072-1.674l-1.519-7.067a2.119,2.119,0,0,1,1.625-2.516l.421-.092a2.119,2.119,0,0,1,2.516,1.625h0l1.519,7.067a2.121,2.121,0,0,1-1.627,2.516l-.421.092A2.023,2.023,0,0,1,379.823,305.351Zm-1.1-10.964a1.673,1.673,0,0,0-.355.038l-.421.092a1.687,1.687,0,0,0-1.3,2l1.519,7.067a1.69,1.69,0,0,0,2,1.3l.421-.092a1.69,1.69,0,0,0,1.3-2l-1.519-7.07A1.687,1.687,0,0,0,378.725,294.387Z" transform="translate(-376.183 -293.953)" fill="#636060"/>
  </g>
  <g id="Group_13471" data-name="Group 13471" transform="translate(13.195 25.487)">
    <path id="Path_11041" data-name="Path 11041" d="M422.1,302.157l-9.675-1.59a1.985,1.985,0,0,0-2.222,1.783,2.119,2.119,0,0,0,1.733,2.432s5.962.644,7.154,2.26" transform="translate(-409.953 -300.346)" fill="#f6d892"/>
    <path id="Path_11042" data-name="Path 11042" d="M418.388,306.571a.218.218,0,0,1-.174-.087c-1.122-1.519-6.945-2.166-7-2.173l-.019,0a2.344,2.344,0,0,1-1.907-2.679,2.208,2.208,0,0,1,2.462-1.961l9.682,1.59a.217.217,0,1,1-.071.428l-9.675-1.59a1.764,1.764,0,0,0-1.973,1.6,1.892,1.892,0,0,0,1.555,2.185c.365.04,6.072.691,7.3,2.345a.214.214,0,0,1-.045.3A.225.225,0,0,1,418.388,306.571Z" transform="translate(-409.246 -299.659)" fill="#636060"/>
  </g>
  <g id="Group_13472" data-name="Group 13472" transform="translate(15.852 30.597)">
    <path id="Path_11043" data-name="Path 11043" d="M420.759,328.058a.1.1,0,0,1-.026,0,.216.216,0,0,1-.188-.24c.024-.2.588-4.788,2.514-6.376a.216.216,0,1,1,.273.334c-1.792,1.477-2.354,6.046-2.359,6.091A.214.214,0,0,1,420.759,328.058Z" transform="translate(-420.543 -321.391)" fill="#636060"/>
  </g>
  <g id="Group_13473" data-name="Group 13473" transform="translate(4.682 40.517)">
    <path id="Path_11044" data-name="Path 11044" d="M394.411,364.5h-18.7a1.755,1.755,0,0,0-1.75,1.75h0a1.755,1.755,0,0,0,1.75,1.75h18.7a1.755,1.755,0,0,0,1.75-1.75h0A1.754,1.754,0,0,0,394.411,364.5Z" transform="translate(-373.746 -364.281)" fill="#c4a059"/>
    <path id="Path_11045" data-name="Path 11045" d="M394.169,367.5H374.562a1.514,1.514,0,0,1-1.512-1.512v-.908a1.514,1.514,0,0,1,1.512-1.512h19.607a1.514,1.514,0,0,1,1.512,1.512v.908A1.513,1.513,0,0,1,394.169,367.5Zm-19.607-3.5a1.081,1.081,0,0,0-1.079,1.079v.908a1.081,1.081,0,0,0,1.079,1.079h19.607a1.081,1.081,0,0,0,1.079-1.079v-.908a1.081,1.081,0,0,0-1.079-1.079Z" transform="translate(-373.05 -363.57)" fill="#636060"/>
  </g>
  <g id="Group_13474" data-name="Group 13474" transform="translate(24.64 29.84)">
    <path id="Path_11046" data-name="Path 11046" d="M458.7,328.322a.26.26,0,0,1-.042,0,.215.215,0,0,1-.169-.254,32.915,32.915,0,0,0,.564-5.536c0-2.85-1.068-3.979-1.079-3.991a.218.218,0,0,1,0-.306.215.215,0,0,1,.3,0c.049.049,1.2,1.249,1.2,4.3a33.132,33.132,0,0,1-.574,5.614A.214.214,0,0,1,458.7,328.322Z" transform="translate(-457.909 -318.169)" fill="#fff"/>
  </g>
  <g id="Group_13475" data-name="Group 13475" transform="translate(14.163 41.373)">
    <path id="Path_11047" data-name="Path 11047" d="M424.933,369.439a.546.546,0,0,1-.113-.009H413.576a.216.216,0,1,1,0-.433h11.263a.285.285,0,0,1,.045,0,.373.373,0,0,0,.31-.1c.111-.12.259-.463.007-1.42a.215.215,0,0,1,.416-.111c.233.889.2,1.505-.115,1.832A.777.777,0,0,1,424.933,369.439Z" transform="translate(-413.36 -367.209)" fill="#fff"/>
  </g>
  <g id="Group_13476" data-name="Group 13476" transform="translate(23.961 13.239)">
    <path id="Path_11048" data-name="Path 11048" d="M455.237,259.262a.143.143,0,0,1-.031,0,.216.216,0,0,1-.183-.245l1.555-11.249a.216.216,0,1,1,.428.061l-1.555,11.249A.217.217,0,0,1,455.237,259.262Z" transform="translate(-455.021 -247.581)" fill="#fff"/>
  </g>
  <g id="Group_13477" data-name="Group 13477" transform="translate(15.566 11.008)">
    <path id="Path_11049" data-name="Path 11049" d="M421.716,251.7a.219.219,0,0,1-.214-.181l-2.171-13.168a.217.217,0,1,1,.428-.071l2.171,13.168a.219.219,0,0,1-.179.249Z" transform="translate(-419.328 -238.096)" fill="#fff"/>
  </g>
  <g id="Group_13478" data-name="Group 13478" transform="translate(8.623 25.681)">
    <path id="Path_11050" data-name="Path 11050" d="M391.518,307.414a.214.214,0,0,1-.209-.167l-1.5-6.5a.216.216,0,1,1,.421-.1l1.5,6.5a.216.216,0,0,1-.162.259A.176.176,0,0,1,391.518,307.414Z" transform="translate(-389.807 -300.484)" fill="#fff"/>
  </g>
  <g id="Group_13479" data-name="Group 13479" transform="translate(12.77 23.2)">
    <path id="Path_11051" data-name="Path 11051" d="M408.2,292.723a.214.214,0,0,1-.209-.167l-.543-2.357a.216.216,0,0,1,.421-.1l.543,2.357a.216.216,0,0,1-.162.259A.351.351,0,0,1,408.2,292.723Z" transform="translate(-407.437 -289.934)" fill="#fff"/>
  </g>
  <g id="Group_13482" data-name="Group 13482" transform="translate(27.914 21.95)">
    <g id="Group_13480" data-name="Group 13480">
      <path id="Path_11052" data-name="Path 11052" d="M475.441,285.31l.814,2.11,2.11.811-2.056.868-.868,2.053-.816-2.1-2.1-.818,2.15-.771Z" transform="translate(-472.358 -285.148)" fill="#d8014c"/>
      <path id="Path_11053" data-name="Path 11053" d="M474.913,290.786h0a.161.161,0,0,1-.151-.1l-.793-2.037-2.037-.793a.162.162,0,0,1,0-.3l2.077-.746.746-2.077a.165.165,0,0,1,.151-.108.156.156,0,0,1,.153.1l.788,2.041,2.041.788a.16.16,0,0,1,.1.148.165.165,0,0,1-.1.153l-1.994.842-.842,1.994A.157.157,0,0,1,474.913,290.786Zm-2.458-3.076,1.7.661a.16.16,0,0,1,.092.092l.673,1.731.713-1.686a.158.158,0,0,1,.087-.087l1.684-.71-1.733-.668a.16.16,0,0,1-.092-.092l-.656-1.7-.626,1.74a.164.164,0,0,1-.1.1Zm1.686-.778Z" transform="translate(-471.83 -284.62)" fill="#636060"/>
    </g>
    <g id="Group_13481" data-name="Group 13481" transform="translate(2.963 1.331)">
      <line id="Line_818" data-name="Line 818" x2="0.393" y2="1.244" transform="translate(0.162 0.16)" fill="#d8014c"/>
      <path id="Path_11054" data-name="Path 11054" d="M484.985,291.846a.166.166,0,0,1-.155-.113l-.393-1.244a.161.161,0,1,1,.308-.1l.393,1.244a.162.162,0,0,1-.106.2A.152.152,0,0,1,484.985,291.846Z" transform="translate(-484.43 -290.28)" fill="#fff"/>
    </g>
  </g>
  <g id="Group_13485" data-name="Group 13485" transform="translate(0 15.729)">
    <g id="Group_13483" data-name="Group 13483">
      <path id="Path_11055" data-name="Path 11055" d="M356.751,258.86l.811,2.107,2.11.814-2.055.868-.865,2.053-.818-2.1-2.1-.818,2.147-.771Z" transform="translate(-353.668 -258.698)" fill="#d8014c"/>
      <path id="Path_11056" data-name="Path 11056" d="M356.223,264.336h0a.161.161,0,0,1-.151-.1l-.793-2.037-2.037-.793a.162.162,0,0,1,0-.3l2.077-.746.746-2.077a.165.165,0,0,1,.151-.108.161.161,0,0,1,.153.1l.788,2.041,2.041.788a.16.16,0,0,1,.1.148.165.165,0,0,1-.1.153l-1.994.842-.842,1.994A.162.162,0,0,1,356.223,264.336Zm-2.46-3.076,1.7.661a.16.16,0,0,1,.092.092l.673,1.731.713-1.686a.158.158,0,0,1,.087-.087l1.684-.71-1.733-.668a.16.16,0,0,1-.092-.092l-.656-1.7-.626,1.74a.164.164,0,0,1-.1.1Zm1.686-.778Z" transform="translate(-353.14 -258.17)" fill="#636060"/>
    </g>
    <g id="Group_13484" data-name="Group 13484" transform="translate(2.961 1.331)">
      <line id="Line_819" data-name="Line 819" x2="0.39" y2="1.244" transform="translate(0.165 0.16)" fill="#d8014c"/>
      <path id="Path_11057" data-name="Path 11057" d="M366.285,265.4a.166.166,0,0,1-.155-.113l-.393-1.244a.161.161,0,1,1,.308-.1l.393,1.244a.162.162,0,0,1-.106.2A.152.152,0,0,1,366.285,265.4Z" transform="translate(-365.73 -263.83)" fill="#fff"/>
    </g>
  </g>
  <g id="Group_13488" data-name="Group 13488" transform="translate(17.1 0)">
    <g id="Group_13486" data-name="Group 13486">
      <path id="Path_11058" data-name="Path 11058" d="M429.461,191.98l.811,2.11,2.11.811-2.055.868-.865,2.055-.818-2.1-2.1-.818,2.147-.771Z" transform="translate(-426.378 -191.817)" fill="#d8014c"/>
      <path id="Path_11059" data-name="Path 11059" d="M428.933,197.455h0a.161.161,0,0,1-.15-.1l-.793-2.037-2.037-.793a.162.162,0,0,1,0-.3l2.077-.746.746-2.077a.165.165,0,0,1,.151-.108.157.157,0,0,1,.153.1l.788,2.041,2.041.788a.16.16,0,0,1,.1.148.165.165,0,0,1-.1.153l-1.994.842-.842,1.994A.162.162,0,0,1,428.933,197.455Zm-2.46-3.076,1.7.661a.16.16,0,0,1,.092.092l.673,1.731.713-1.686a.158.158,0,0,1,.087-.087l1.684-.71-1.733-.668a.16.16,0,0,1-.092-.092l-.656-1.7-.626,1.74a.164.164,0,0,1-.1.1Zm1.689-.778Z" transform="translate(-425.85 -191.289)" fill="#636060"/>
    </g>
    <g id="Group_13487" data-name="Group 13487" transform="translate(2.961 1.331)">
      <line id="Line_820" data-name="Line 820" x2="0.39" y2="1.244" transform="translate(0.165 0.161)" fill="#d8014c"/>
      <path id="Path_11060" data-name="Path 11060" d="M438.995,198.513a.166.166,0,0,1-.155-.113l-.393-1.244a.162.162,0,0,1,.106-.2.16.16,0,0,1,.2.106l.393,1.244a.162.162,0,0,1-.106.2A.151.151,0,0,1,438.995,198.513Z" transform="translate(-438.44 -196.946)" fill="#fff"/>
    </g>
  </g>
</svg>
