<svg xmlns="http://www.w3.org/2000/svg" width="29.759" height="41.523" viewBox="0 0 29.759 41.523">
  <g id="anillo" transform="translate(-373.98 -235.73)">
    <g id="Group_18281" data-name="Group 18281" transform="translate(381.272 235.98)">
      <g id="Group_18266" data-name="Group 18266" transform="translate(0 0)">
        <path id="Path_32508" data-name="Path 32508" d="M409.618,236.56h-9.825l-2.493,2.668,7.4,9.788,7.407-9.788Z" transform="translate(-397.116 -236.378)" fill="#44cef5" stroke="#636060" stroke-miterlimit="10" stroke-width="0.5"/>
        <path id="Path_32509" data-name="Path 32509" d="M404.3,248.8a.2.2,0,0,1-.147-.072l-7.4-9.788a.184.184,0,0,1,.013-.235l2.493-2.668a.18.18,0,0,1,.135-.06h9.828a.185.185,0,0,1,.135.06l2.493,2.668a.185.185,0,0,1,.013.235l-7.4,9.788A.21.21,0,0,1,404.3,248.8Zm-7.166-9.96,7.166,9.474,7.166-9.474-2.333-2.5h-9.669Z" transform="translate(-396.714 -235.98)" fill="#636060" stroke="#636060" stroke-miterlimit="10" stroke-width="0.5"/>
      </g>
      <g id="Group_18267" data-name="Group 18267" transform="translate(4.637 0.003)">
        <path id="Path_32510" data-name="Path 32510" d="M416.707,236.56h-3.674l-.933,2.668,2.769,9.788,2.772-9.788Z" transform="translate(-411.918 -236.381)" fill="#44cef5" stroke="#636060" stroke-miterlimit="10" stroke-width="0.5"/>
        <path id="Path_32511" data-name="Path 32511" d="M414.469,248.809a.181.181,0,0,1-.175-.132l-2.769-9.787a.187.187,0,0,1,0-.11l.93-2.668a.183.183,0,0,1,.172-.122H416.3a.183.183,0,0,1,.172.122l.93,2.668a.187.187,0,0,1,0,.11l-2.769,9.787A.176.176,0,0,1,414.469,248.809Zm-2.575-9.966,2.578,9.111,2.578-9.111-.871-2.493h-3.414Z" transform="translate(-411.519 -235.99)" fill="#636060" stroke="#636060" stroke-miterlimit="10" stroke-width="0.5"/>
      </g>
      <g id="Group_18268" data-name="Group 18268" transform="translate(0.002 2.668)">
        <path id="Path_32512" data-name="Path 32512" d="M397.3,245.08h14.811" transform="translate(-397.118 -244.898)" fill="#44cef5" stroke="#636060" stroke-miterlimit="10" stroke-width="0.5"/>
        <path id="Path_32513" data-name="Path 32513" d="M411.713,244.863H396.9a.182.182,0,0,1,0-.363h14.811a.182.182,0,0,1,0,.363Z" transform="translate(-396.72 -244.5)" fill="#636060" stroke="#636060" stroke-miterlimit="10" stroke-width="0.5"/>
      </g>
      <g id="Group_18271" data-name="Group 18271" transform="translate(2.162 0.877)">
        <g id="Group_18269" data-name="Group 18269" transform="translate(0.062)">
          <line id="Line_1143" data-name="Line 1143" x1="0.996" y2="0.974" transform="translate(0.098 0.087)" fill="#44cef5" stroke="#fff" stroke-miterlimit="10" stroke-width="0.5"/>
          <path id="Path_32514" data-name="Path 32514" d="M403.914,239.93a.1.1,0,0,1-.066-.022.082.082,0,0,1-.006-.125l1-.974a.109.109,0,0,1,.138-.006.082.082,0,0,1,.006.125l-1,.974A.1.1,0,0,1,403.914,239.93Z" transform="translate(-403.816 -238.781)" fill="#fff" stroke="#fff" stroke-miterlimit="10" stroke-width="0.5"/>
        </g>
        <g id="Group_18270" data-name="Group 18270" transform="translate(0 2.771)">
          <line id="Line_1144" data-name="Line 1144" x2="1.898" y2="2.493" transform="translate(0.138 0.135)" fill="#44cef5" stroke="#fff" stroke-miterlimit="10" stroke-width="0.5"/>
          <path id="Path_32515" data-name="Path 32515" d="M405.655,250.395a.143.143,0,0,1-.11-.053l-1.9-2.493a.136.136,0,1,1,.216-.166l1.9,2.493a.135.135,0,0,1-.025.191A.123.123,0,0,1,405.655,250.395Z" transform="translate(-403.619 -247.629)" fill="#fff" stroke="#fff" stroke-miterlimit="10" stroke-width="0.5"/>
        </g>
      </g>
      <g id="Group_18274" data-name="Group 18274" transform="translate(6.101 0.963)">
        <g id="Group_18272" data-name="Group 18272">
          <line id="Line_1145" data-name="Line 1145" x1="0.326" y2="0.98" transform="translate(0.089 0.089)" fill="#44cef5" stroke="#fff" stroke-miterlimit="10" stroke-width="0.5"/>
          <path id="Path_32516" data-name="Path 32516" d="M416.284,240.212a.087.087,0,0,1-.028,0,.089.089,0,0,1-.056-.113l.326-.98a.089.089,0,0,1,.169.056l-.326.98A.087.087,0,0,1,416.284,240.212Z" transform="translate(-416.195 -239.055)" fill="#fff" stroke="#fff" stroke-miterlimit="10" stroke-width="0.5"/>
        </g>
        <g id="Group_18273" data-name="Group 18273" transform="translate(0.09 2.686)">
          <line id="Line_1146" data-name="Line 1146" x2="0.742" y2="2.493" transform="translate(0.137 0.134)" fill="#44cef5" stroke="#fff" stroke-miterlimit="10" stroke-width="0.5"/>
          <path id="Path_32517" data-name="Path 32517" d="M417.361,250.4a.137.137,0,0,1-.132-.1l-.742-2.493a.136.136,0,0,1,.26-.078l.742,2.493a.134.134,0,0,1-.091.169A.157.157,0,0,1,417.361,250.4Z" transform="translate(-416.481 -247.631)" fill="#fff" stroke="#fff" stroke-miterlimit="10" stroke-width="0.5"/>
        </g>
      </g>
      <g id="Group_18277" data-name="Group 18277" transform="translate(7.979 0.963)">
        <g id="Group_18275" data-name="Group 18275" transform="translate(0.599)">
          <line id="Line_1147" data-name="Line 1147" x2="0.329" y2="0.98" transform="translate(0.086 0.089)" fill="#44cef5" stroke="#fff" stroke-miterlimit="10" stroke-width="0.5"/>
          <path id="Path_32518" data-name="Path 32518" d="M424.52,240.212a.087.087,0,0,0,.028,0,.089.089,0,0,0,.056-.113l-.326-.98a.089.089,0,0,0-.169.056l.326.98A.087.087,0,0,0,424.52,240.212Z" transform="translate(-424.105 -239.055)" fill="#fff" stroke="#fff" stroke-miterlimit="10" stroke-width="0.5"/>
        </g>
        <g id="Group_18276" data-name="Group 18276" transform="translate(0 2.686)">
          <line id="Line_1148" data-name="Line 1148" x1="0.739" y2="2.493" transform="translate(0.134 0.134)" fill="#44cef5" stroke="#fff" stroke-miterlimit="10" stroke-width="0.5"/>
          <path id="Path_32519" data-name="Path 32519" d="M422.325,250.4a.137.137,0,0,0,.132-.1l.742-2.493a.136.136,0,0,0-.26-.078l-.742,2.493a.137.137,0,0,0,.128.175Z" transform="translate(-422.191 -247.631)" fill="#fff" stroke="#fff" stroke-miterlimit="10" stroke-width="0.5"/>
        </g>
      </g>
      <g id="Group_18280" data-name="Group 18280" transform="translate(10.851 0.877)">
        <g id="Group_18278" data-name="Group 18278" transform="translate(0.92)">
          <line id="Line_1149" data-name="Line 1149" x2="0.996" y2="0.974" transform="translate(0.098 0.087)" fill="#44cef5" stroke="#fff" stroke-miterlimit="10" stroke-width="0.5"/>
          <path id="Path_32520" data-name="Path 32520" d="M435.39,239.93a.1.1,0,0,0,.066-.022.082.082,0,0,0,.006-.125l-1-.974a.109.109,0,0,0-.138-.006.082.082,0,0,0-.006.125l1,.974A.1.1,0,0,0,435.39,239.93Z" transform="translate(-434.296 -238.781)" fill="#fff" stroke="#fff" stroke-miterlimit="10" stroke-width="0.5"/>
        </g>
        <g id="Group_18279" data-name="Group 18279" transform="translate(0 2.771)">
          <line id="Line_1150" data-name="Line 1150" x1="1.898" y2="2.493" transform="translate(0.135 0.135)" fill="#44cef5" stroke="#fff" stroke-miterlimit="10" stroke-width="0.5"/>
          <path id="Path_32521" data-name="Path 32521" d="M431.494,250.395a.143.143,0,0,0,.11-.053l1.9-2.493a.136.136,0,1,0-.216-.166l-1.9,2.493a.136.136,0,0,0,.106.219Z" transform="translate(-431.359 -247.629)" fill="#fff" stroke="#fff" stroke-miterlimit="10" stroke-width="0.5"/>
        </g>
      </g>
    </g>
    <path id="Path_32522" data-name="Path 32522" d="M388.86,273.54a14.63,14.63,0,1,0,14.63,14.63A14.628,14.628,0,0,0,388.86,273.54Zm0,26.262a11.629,11.629,0,1,1,11.629-11.629A11.628,11.628,0,0,1,388.86,299.8Z" transform="translate(0 -25.796)" fill="#f3d854" stroke="#636060" stroke-miterlimit="10" stroke-width="0.5"/>
    <path id="Path_32523" data-name="Path 32523" d="M384.077,283.12s-6.991,4.51-6.364,12.844" transform="translate(-2.365 -32.376)" fill="none" stroke="#fff" stroke-linecap="round" stroke-linejoin="round" stroke-miterlimit="10" stroke-width="0.5"/>
  </g>
</svg>
