<svg xmlns="http://www.w3.org/2000/svg" width="42.232" height="43.21" viewBox="0 0 42.232 43.21">
  <g id="Group_20025" data-name="Group 20025" transform="translate(-248.648 -505.65)">
    <g id="Group_17031" data-name="Group 17031" transform="translate(249.375 506)">
      <line id="Line_970" data-name="Line 970" x1="1.669" y2="0.459" transform="translate(11.687 1.472)" fill="#d6d6d6" stroke="#636060" stroke-linecap="round" stroke-linejoin="round" stroke-miterlimit="10" stroke-width="0.7"/>
      <line id="Line_971" data-name="Line 971" x1="1.669" y2="0.459" transform="translate(0 4.692)" fill="#d6d6d6" stroke="#636060" stroke-linecap="round" stroke-linejoin="round" stroke-miterlimit="10" stroke-width="0.7"/>
      <path id="Path_31119" data-name="Path 31119" d="M370.49,234.326a4.324,4.324,0,0,1,3.379-.932" transform="translate(-365.401 -230.577)" fill="#d6d6d6" stroke="#636060" stroke-linecap="round" stroke-linejoin="round" stroke-miterlimit="10" stroke-width="0.7"/>
      <circle id="Ellipse_7449" data-name="Ellipse 7449" cx="2.39" cy="2.39" r="2.39" transform="translate(1.067 1.807)" fill="#d6d6d6" stroke="#636060" stroke-linecap="round" stroke-linejoin="round" stroke-miterlimit="10" stroke-width="0.7"/>
      <circle id="Ellipse_7450" data-name="Ellipse 7450" cx="2.39" cy="2.39" r="2.39" transform="translate(7.628 0)" fill="#d6d6d6" stroke="#636060" stroke-linecap="round" stroke-linejoin="round" stroke-miterlimit="10" stroke-width="0.7"/>
      <path id="Path_31120" data-name="Path 31120" d="M359.382,233.1a1.76,1.76,0,0,0-.627,2.226" transform="translate(-356.718 -230.394)" fill="none" stroke="#fff" stroke-linecap="round" stroke-linejoin="round" stroke-miterlimit="10" stroke-width="0.7"/>
      <path id="Path_31121" data-name="Path 31121" d="M383.542,226.44a1.759,1.759,0,0,0-.627,2.226" transform="translate(-374.353 -225.532)" fill="none" stroke="#fff" stroke-linecap="round" stroke-linejoin="round" stroke-miterlimit="10" stroke-width="0.7"/>
    </g>
    <path id="Path_31122" data-name="Path 31122" d="M445.7,263.868l-.405-.116a2.232,2.232,0,0,1-3.838-1.113l-.057-.016-.024.086-7.63-.119a7.586,7.586,0,0,0-.062,4.019l3.157.049L433.811,277.1a24.5,24.5,0,0,0,11.02,3.193l3.014-10.4,2.56,1.564a3.7,3.7,0,0,0,2.1-3.43Z" transform="translate(-161.973 254.082)" fill="#abe236" stroke="#636060" stroke-linecap="round" stroke-linejoin="round" stroke-miterlimit="10" stroke-width="0.7"/>
    <g id="Group_17033" data-name="Group 17033" transform="translate(274.109 519.531)">
      <path id="Path_31123" data-name="Path 31123" d="M445.858,274.66a17.62,17.62,0,0,1-1.118,1.494" transform="translate(-444.332 -274.26)" fill="#abe236"/>
      <g id="Group_17032" data-name="Group 17032" transform="translate(0 0)">
        <path id="Path_31124" data-name="Path 31124" d="M444.4,273.377c-.17.254-.348.505-.532.751l-.138.181c-.005.008-.046.059-.011.016s-.005.005-.011.016c-.024.03-.046.059-.07.089-.1.122-.194.243-.294.362a.434.434,0,0,0-.119.286.4.4,0,0,0,.119.286.41.41,0,0,0,.573,0,19.184,19.184,0,0,0,1.18-1.577.4.4,0,0,0-.7-.411Z" transform="translate(-443.23 -273.18)" fill="#636060"/>
      </g>
    </g>
    <g id="Group_17035" data-name="Group 17035" transform="translate(285.012 522.566)">
      <path id="Path_31125" data-name="Path 31125" d="M485.09,285.91a5.811,5.811,0,0,1,.546,1.167" transform="translate(-484.686 -285.506)" fill="#abe236"/>
      <g id="Group_17034" data-name="Group 17034" transform="translate(0 0)">
        <path id="Path_31126" data-name="Path 31126" d="M483.649,285.024a5.825,5.825,0,0,1,.392.764l-.04-.1c.057.132.105.267.151.4a.439.439,0,0,0,.186.243.407.407,0,0,0,.6-.459,6.156,6.156,0,0,0-.586-1.261.4.4,0,1,0-.7.408Z" transform="translate(-483.593 -284.415)" fill="#636060"/>
      </g>
    </g>
    <line id="Line_972" data-name="Line 972" x1="2.477" y2="8.546" transform="translate(273.119 521.738)" fill="none" stroke="#fff" stroke-linecap="round" stroke-linejoin="round" stroke-miterlimit="10" stroke-width="0.7"/>
    <line id="Line_973" data-name="Line 973" x2="4.54" y2="0.17" transform="translate(272.592 517.428)" fill="none" stroke="#fff" stroke-linecap="round" stroke-linejoin="round" stroke-miterlimit="10" stroke-width="0.7"/>
    <g id="Group_17038" data-name="Group 17038" transform="translate(249 512.713)">
      <path id="Path_31127" data-name="Path 31127" d="M373.927,264l-6.593-12.984c-.689-1.356-3.722-1.283-3.746-1.283-.419.019-2.342.381-2.342.381l-.759-1.369a1.024,1.024,0,0,0-1.207-.791l-1.856.389a1.024,1.024,0,0,0-.791,1.207l-.084,1.545-1.847.386a5.04,5.04,0,0,0-.616.24s-2.887,1.1-2.979,2.652l-.843,14.537a1.36,1.36,0,0,0,1.28,1.437l1.456.084a1.36,1.36,0,0,0,1.437-1.28l.508-8.77,1.456,6.971a1.58,1.58,0,0,0,1.869,1.224l8.33-1.739a1.58,1.58,0,0,0,1.224-1.869l-1.332-6.369,3.7,7.293a1.362,1.362,0,0,0,1.831.6l1.3-.659A1.357,1.357,0,0,0,373.927,264Z" transform="translate(-350.262 -247.932)" fill="#f3d854" stroke="#636060" stroke-linecap="round" stroke-linejoin="round" stroke-miterlimit="10" stroke-width="0.7"/>
      <g id="Group_17036" data-name="Group 17036" transform="translate(4.302 9.429)">
        <path id="Path_31128" data-name="Path 31128" d="M366.19,282.84l.14,3.066.27.084S367.311,286.065,366.19,282.84Z" transform="translate(-366.19 -282.84)" fill="#f3d854" stroke="#636060" stroke-linecap="round" stroke-linejoin="round" stroke-miterlimit="10" stroke-width="0.7"/>
      </g>
      <g id="Group_17037" data-name="Group 17037" transform="translate(15.282 7.703)">
        <path id="Path_31129" data-name="Path 31129" d="M406.84,276.45l1.1,2.866-.213.184S407.1,279.853,406.84,276.45Z" transform="translate(-406.84 -276.45)" fill="#f3d854" stroke="#636060" stroke-linecap="round" stroke-linejoin="round" stroke-miterlimit="10" stroke-width="0.7"/>
      </g>
    </g>
    <g id="Group_17040" data-name="Group 17040" transform="translate(249.371 532.844)">
      <g id="Group_17039" data-name="Group 17039" transform="translate(0 0)">
        <path id="Path_31130" data-name="Path 31130" d="M351.647,322.494a.012.012,0,0,0,0-.024.012.012,0,0,0,0,.024Z" transform="translate(-351.635 -322.47)" fill="#c6a82c"/>
      </g>
    </g>
    <path id="Path_31131" data-name="Path 31131" d="M369.14,284.33" transform="translate(-115.041 238.213)" fill="#44cef5"/>
    <path id="Path_31132" data-name="Path 31132" d="M371.021,289.133a76.488,76.488,0,0,0-2.031-9.723" transform="translate(-114.932 241.805)" fill="none" stroke="#fff" stroke-linecap="round" stroke-linejoin="round" stroke-miterlimit="10" stroke-width="0.7"/>
    <path id="Path_31133" data-name="Path 31133" d="M359.466,265.02s-2.6.213-2.879,2.39a10.645,10.645,0,0,0-.213,1.831" transform="translate(-105.719 252.309)" fill="none" stroke="#fff" stroke-linecap="round" stroke-linejoin="round" stroke-miterlimit="10" stroke-width="0.7"/>
    <g id="Group_17042" data-name="Group 17042" transform="translate(276.053 506.699)">
      <path id="Path_31134" data-name="Path 31134" d="M462.2,233.368a18.64,18.64,0,0,0,.208-2.026c0-2.118-2.239-3.833-5-3.833s-5,1.715-5,3.833a3.01,3.01,0,0,0,.113.81C454.906,232.855,458.506,234.044,462.2,233.368Z" transform="translate(-451.873 -227.013)" fill="#d8014c"/>
      <g id="Group_17041" data-name="Group 17041" transform="translate(0 0)">
        <path id="Path_31135" data-name="Path 31135" d="M461.271,232.157a10.665,10.665,0,0,0,.219-1.964,3.593,3.593,0,0,0-.583-2.145,6.344,6.344,0,0,0-9.877-.035,3.591,3.591,0,0,0-.567,2.523c.046.3.089.594.4.732a6.3,6.3,0,0,0,.708.216c.459.135.918.27,1.38.4a18.155,18.155,0,0,0,7.944.627.5.5,0,0,0,.378-.613.555.555,0,0,0-.664-.348c-3.206.567-6.339-.316-9.391-1.215l.378.348c-.586-2.247,1.742-3.76,3.687-3.976s4.578.6,5.081,2.755a3.839,3.839,0,0,1,.013,1.218,8.735,8.735,0,0,1-.143,1.215C460.066,232.535,461.114,232.778,461.271,232.157Z" transform="translate(-450.422 -225.669)" fill="#636060"/>
      </g>
    </g>
    <path id="Path_31136" data-name="Path 31136" d="M440.3,249.94" transform="translate(-166.98 263.314)" fill="#d8014c" stroke="#636060" stroke-linecap="round" stroke-linejoin="round" stroke-miterlimit="10" stroke-width="0.7"/>
    <path id="Path_31137" data-name="Path 31137" d="M481.95,249.15" transform="translate(-197.381 263.891)" fill="#d8014c" stroke="#636060" stroke-linecap="round" stroke-linejoin="round" stroke-miterlimit="10" stroke-width="0.7"/>
    <path id="Path_31138" data-name="Path 31138" d="M455.09,233.419a3.9,3.9,0,0,1,3.773-3.039" transform="translate(-177.777 277.592)" fill="#d8014c" stroke="#fff" stroke-linecap="round" stroke-linejoin="round" stroke-miterlimit="10" stroke-width="0.7"/>
    <g id="Group_17044" data-name="Group 17044" transform="translate(250.705 533.088)">
      <path id="Path_31139" data-name="Path 31139" d="M375.883,339.592l-.154-12.057-6.558.084-6.088-2.439L358.6,336.373a17.172,17.172,0,0,0,6.634,2.658l3.39-8.462.116,9.113A19.068,19.068,0,0,0,375.883,339.592Z" transform="translate(-358.053 -324.69)" fill="#d6d6d6"/>
      <g id="Group_17043" data-name="Group 17043" transform="translate(0)">
        <path id="Path_31140" data-name="Path 31140" d="M374.945,338.269q-.024-2.034-.051-4.07-.041-3.245-.084-6.49c-.005-.5-.014-1-.019-1.5a.529.529,0,0,0-.54-.5l-5.729.073-.829.011c.092.022.181.046.273.068l-5.318-2.131-.77-.308a.569.569,0,0,0-.794.3q-.758,1.888-1.513,3.779l-2.415,6.026c-.186.462-.37.926-.556,1.388a.5.5,0,0,0,.248.565,17.792,17.792,0,0,0,6.763,2.709.564.564,0,0,0,.664-.348q1.483-3.7,2.963-7.4c.143-.354.284-.708.427-1.064l-1.061-.132q.053,3.983.1,7.968c.005.381.011.764.013,1.145a.512.512,0,0,0,.4.481,20.111,20.111,0,0,0,7.433-.092c.681-.154.37-1.11-.286-.962a18.7,18.7,0,0,1-6.858.092l.4.481q-.053-3.983-.1-7.968c-.005-.381-.011-.764-.014-1.145-.008-.605-.859-.637-1.061-.132q-1.483,3.7-2.963,7.4c-.143.354-.284.708-.427,1.064l.664-.348a17.035,17.035,0,0,1-6.5-2.606c.084.189.165.375.249.564q.758-1.888,1.513-3.779l2.415-6.026c.186-.462.37-.926.556-1.388-.265.1-.529.2-.794.3l5.361,2.147c.24.1.481.194.724.289a1.9,1.9,0,0,0,.751.065l3.376-.043,2.709-.035-.54-.5q.024,2.034.051,4.07.041,3.245.084,6.49c.005.5.013,1,.019,1.5C373.872,338.918,374.953,338.92,374.945,338.269Z" transform="translate(-356.574 -323.368)" fill="#636060"/>
      </g>
    </g>
    <path id="Path_31141" data-name="Path 31141" d="M381.488,328.094c1.8.373,4.192-.2,6.528-.67l-12.376-2.3A12.773,12.773,0,0,0,381.488,328.094Z" transform="translate(-119.785 208.441)" fill="#000929" stroke="#636060" stroke-linecap="round" stroke-linejoin="round" stroke-miterlimit="10" stroke-width="0.7"/>
    <g id="Group_17046" data-name="Group 17046" transform="translate(264.895 535.932)">
      <g id="Group_17045" data-name="Group 17045" transform="translate(0)">
        <path id="Path_31142" data-name="Path 31142" d="M409.519,333.958a1.176,1.176,0,0,0-.354,1.337,3.039,3.039,0,0,0,.6,1.378,2.637,2.637,0,0,0,2.5.71.408.408,0,0,0,.284-.5.417.417,0,0,0-.5-.284l-.1.016c.038-.005-.086.008-.1.008q-.118.008-.235.008c-.092,0-.184-.008-.273-.016.084.008-.04-.005-.046-.008a.851.851,0,0,1-.113-.024,2.182,2.182,0,0,1-.259-.076c-.005,0-.116-.049-.046-.016l-.1-.049a1.714,1.714,0,0,1-.224-.138c.062.046-.032-.027-.035-.03-.032-.03-.065-.059-.1-.092a1.865,1.865,0,0,1-.424-.908c-.022-.095-.043-.189-.059-.284-.005-.03-.016-.105-.008-.032-.005-.043-.008-.084-.011-.127s0-.084,0-.127c-.005.07.005.005.011-.03.016-.095-.016.057.011-.024.024-.038.024-.035-.005.005s-.04.027,0,0a.414.414,0,0,0,.146-.554.408.408,0,0,0-.556-.149Z" transform="translate(-409.109 -333.901)" fill="#636060"/>
      </g>
    </g>
    <g id="Group_17048" data-name="Group 17048" transform="translate(254.096 534.482)">
      <g id="Group_17047" data-name="Group 17047" transform="translate(0)">
        <path id="Path_31143" data-name="Path 31143" d="M372.406,329.142c.032.046.046.04.03.095.013-.043-.016.046-.019.057s-.022.062-.024.068a2.676,2.676,0,0,1-.273.443,1.892,1.892,0,0,1-.67.629,1.838,1.838,0,0,1-1.723-.221.405.405,0,0,0-.408.7,2.6,2.6,0,0,0,2.631.17,3.1,3.1,0,0,0,.962-1c.251-.386.505-.918.2-1.348a.417.417,0,0,0-.554-.146.411.411,0,0,0-.149.556Z" transform="translate(-369.126 -328.532)" fill="#636060"/>
      </g>
    </g>
    <line id="Line_974" data-name="Line 974" x1="0.397" y2="2.134" transform="translate(261.25 536.828)" fill="#d6d6d6" stroke="#636060" stroke-linecap="round" stroke-linejoin="round" stroke-miterlimit="10" stroke-width="0.7"/>
    <g id="Group_17051" data-name="Group 17051" transform="translate(266.6 532.844)">
      <g id="Group_17050" data-name="Group 17050" transform="translate(0 1.678)">
        <path id="Path_31144" data-name="Path 31144" d="M433.133,331.813a1.763,1.763,0,0,0-.216-.567c-.332-.559-1.178-.786-1.777-1.086-.751.475-1.218.238-1.966.71s-3.762.648-4.84-.281a3.681,3.681,0,0,0-2.579.821c-1.207.881-.824,1.955-2.185,2.593-.513.24-1.08.354-1.591.594a1.686,1.686,0,0,0-1.053,1.2,1.067,1.067,0,0,0,.165.675,2.4,2.4,0,0,0,3.02,1.542l5.942-1.723a4.773,4.773,0,0,1,3.292-.956l2.072-.6a2.4,2.4,0,0,0,1.726-2.92Z" transform="translate(-416.514 -329.76)" fill="#44cef5"/>
        <g id="Group_17049" data-name="Group 17049">
          <path id="Path_31145" data-name="Path 31145" d="M432.429,330.623c-.238-.994-.98-1.364-1.847-1.742a1.228,1.228,0,0,0-.589-.2,6.9,6.9,0,0,0-.716.294,5.294,5.294,0,0,0-1.291.4,3.69,3.69,0,0,1-1.591.381,6.3,6.3,0,0,1-2.145-.189,3.048,3.048,0,0,1-.764-.375,2.227,2.227,0,0,0-1.367,0,4.084,4.084,0,0,0-2.261,1.34c-.459.565-.613,1.4-1.221,1.831-.829.594-1.953.564-2.7,1.321a1.609,1.609,0,0,0-.51,1.207,2.947,2.947,0,0,0,.486,1.283,2.818,2.818,0,0,0,2.061,1.248,6.573,6.573,0,0,0,2.469-.481l3.282-.953,1.134-.329a8.035,8.035,0,0,0,1.1-.6,4.76,4.76,0,0,1,1.286-.381,3.871,3.871,0,0,1,.61-.046,2.97,2.97,0,0,0,.513.011c.443-.084.886-.257,1.318-.381a6.5,6.5,0,0,0,1.413-.5,2.85,2.85,0,0,0,1.4-1.912,2.754,2.754,0,0,0-.051-1.224.414.414,0,0,0-.5-.284l-.008,0a.405.405,0,0,0,.216.781l.008,0-.5-.284a2.022,2.022,0,0,1-1.458,2.425c-.64.194-1.286.4-1.934.562-.151.038-.095.005-.273,0a4.774,4.774,0,0,0-.962.07,5.317,5.317,0,0,0-1.775.616,2.968,2.968,0,0,0-.335.219,2.041,2.041,0,0,0-.181.14s.124-.054.113-.051c-.04.014-.081.024-.124.035-.213.057-.427.124-.637.186q-2.216.644-4.435,1.286a4.6,4.6,0,0,1-1.494.3,2.017,2.017,0,0,1-1.45-.727,2.925,2.925,0,0,1-.362-.716.741.741,0,0,1,.162-.929c.567-.573,1.469-.648,2.172-.983a2.789,2.789,0,0,0,1.313-1.386,3.243,3.243,0,0,1,1.232-1.453,3.5,3.5,0,0,1,2.015-.519c-.095-.041-.192-.078-.286-.119a5.121,5.121,0,0,0,3.6.759,4.679,4.679,0,0,0,1.585-.338,3.954,3.954,0,0,1,.894-.362,3.758,3.758,0,0,0,1.218-.424h-.408c.354.173.724.305,1.072.489a1.277,1.277,0,0,1,.735.921C431.77,331.344,432.551,331.131,432.429,330.623Z" transform="translate(-415.422 -328.678)" fill="#636060"/>
        </g>
      </g>
      <path id="Path_31146" data-name="Path 31146" d="M451.376,327.015l-.467-.257a.45.45,0,0,1-.178-.61l1.9-3.449a.449.449,0,0,1,.61-.178l.467.257a.45.45,0,0,1,.178.61l-1.9,3.449A.448.448,0,0,1,451.376,327.015Z" transform="translate(-441.153 -322.465)" fill="#44cef5" stroke="#636060" stroke-linecap="round" stroke-linejoin="round" stroke-miterlimit="10" stroke-width="0.7"/>
      <path id="Path_31147" data-name="Path 31147" d="M419.02,341.529a19.487,19.487,0,0,0,4.805-.856c2.409-.783,4.494-2.082,6.658-2.2a5.762,5.762,0,0,0,3.706-2.077" transform="translate(-418.048 -332.636)" fill="#44cef5" stroke="#636060" stroke-linecap="round" stroke-linejoin="round" stroke-miterlimit="10" stroke-width="0.7"/>
      <circle id="Ellipse_7451" data-name="Ellipse 7451" cx="0.319" cy="0.319" r="0.319" transform="translate(6.714 5.112)" fill="#44cef5" stroke="#636060" stroke-linecap="round" stroke-linejoin="round" stroke-miterlimit="10" stroke-width="0.7"/>
      <circle id="Ellipse_7452" data-name="Ellipse 7452" cx="0.319" cy="0.319" r="0.319" transform="translate(5.177 6.173)" fill="#44cef5" stroke="#636060" stroke-linecap="round" stroke-linejoin="round" stroke-miterlimit="10" stroke-width="0.7"/>
      <circle id="Ellipse_7453" data-name="Ellipse 7453" cx="0.319" cy="0.319" r="0.319" transform="translate(3.592 6.994)" fill="#44cef5" stroke="#636060" stroke-linecap="round" stroke-linejoin="round" stroke-miterlimit="10" stroke-width="0.7"/>
      <circle id="Ellipse_7454" data-name="Ellipse 7454" cx="0.319" cy="0.319" r="0.319" transform="translate(1.888 7.545)" fill="#44cef5" stroke="#636060" stroke-linecap="round" stroke-linejoin="round" stroke-miterlimit="10" stroke-width="0.7"/>
      <circle id="Ellipse_7455" data-name="Ellipse 7455" cx="0.319" cy="0.319" r="0.319" transform="translate(2.552 6.546)" fill="#44cef5" stroke="#636060" stroke-linecap="round" stroke-linejoin="round" stroke-miterlimit="10" stroke-width="0.7"/>
      <circle id="Ellipse_7456" data-name="Ellipse 7456" cx="0.319" cy="0.319" r="0.319" transform="translate(0.885 7.089)" fill="#44cef5" stroke="#636060" stroke-linecap="round" stroke-linejoin="round" stroke-miterlimit="10" stroke-width="0.7"/>
      <circle id="Ellipse_7457" data-name="Ellipse 7457" cx="0.319" cy="0.319" r="0.319" transform="translate(3.892 5.744)" fill="#44cef5" stroke="#636060" stroke-linecap="round" stroke-linejoin="round" stroke-miterlimit="10" stroke-width="0.7"/>
      <circle id="Ellipse_7458" data-name="Ellipse 7458" cx="0.319" cy="0.319" r="0.319" transform="translate(5.085 4.712)" fill="#44cef5" stroke="#636060" stroke-linecap="round" stroke-linejoin="round" stroke-miterlimit="10" stroke-width="0.7"/>
      <path id="Path_31148" data-name="Path 31148" d="M449.7,334.72a3.584,3.584,0,0,1-2.577,1.723c-2.061.5-3.427.381-5.95,1.877" transform="translate(-434.215 -331.41)" fill="#44cef5" stroke="#fff" stroke-linecap="round" stroke-linejoin="round" stroke-miterlimit="10" stroke-width="0.7"/>
    </g>
    <g id="Group_17053" data-name="Group 17053" transform="translate(261.41 546.6)">
      <g id="Group_17052" data-name="Group 17052" transform="translate(0 0)">
        <path id="Path_31149" data-name="Path 31149" d="M396.251,373.637a3.048,3.048,0,0,0,1.6.257c.64-.011,1.283-.049,1.923-.068.662-.019,1.326-.04,1.988-.019a2.871,2.871,0,0,0,1.467-.251c.105-.059.005-.2-.095-.149a3.192,3.192,0,0,1-1.7.111c-.575-.016-1.148,0-1.723.03a9.728,9.728,0,0,1-3.392-.054.079.079,0,0,0-.062.143Z" transform="translate(-396.211 -373.396)" fill="#636060"/>
      </g>
    </g>
    <g id="Group_17055" data-name="Group 17055" transform="translate(258.861 536.826)">
      <g id="Group_17054" data-name="Group 17054">
        <path id="Path_31150" data-name="Path 31150" d="M387.078,337.422a.945.945,0,0,0-.259.416.761.761,0,0,0-.024.432.556.556,0,0,0,.616.429.687.687,0,0,0,.516-.632,2.011,2.011,0,0,0,0-.459.419.419,0,0,0-.216-.351.513.513,0,0,0-.448.013.665.665,0,0,0-.184.14.68.68,0,0,0-.081.095.212.212,0,0,0-.027.116.058.058,0,0,0,.076.051.249.249,0,0,0,.14-.07.942.942,0,0,1,.13-.1.3.3,0,0,1,.232-.059.157.157,0,0,1,.124.157,2,2,0,0,1,0,.359.54.54,0,0,1-.257.483c-.154.065-.267-.076-.3-.219a.507.507,0,0,1,.038-.278,3.653,3.653,0,0,1,.211-.321c.1-.178-.146-.321-.289-.2Z" transform="translate(-386.774 -337.212)" fill="#636060"/>
      </g>
    </g>
    <g id="Group_17057" data-name="Group 17057" transform="translate(262.719 537.281)">
      <g id="Group_17056" data-name="Group 17056">
        <path id="Path_31151" data-name="Path 31151" d="M401.286,339.426a.358.358,0,0,0-.216.286.728.728,0,0,0,.022.4.845.845,0,0,0,.189.34.723.723,0,0,0,.4.178.212.212,0,0,0,.248-.13,2.157,2.157,0,0,0,.167-.529,1.114,1.114,0,0,0-.03-.581.806.806,0,0,0-.359-.435.43.43,0,0,0-.5.043.341.341,0,0,0-.084.257,2.1,2.1,0,0,1,.019.224c0,.057-.059.124,0,.184.084.081.192-.005.227-.089a.574.574,0,0,0,.024-.224c0-.054-.005-.135.019-.162.008-.011.011-.008.013-.011s.005,0,.008,0a.159.159,0,0,1,.062.011.259.259,0,0,1,.138.135c.005.008.008.016.014.024-.008-.016,0,.005,0,.011a.532.532,0,0,1,.022.07l.016.073c-.005-.032,0,.022,0,.032a1.819,1.819,0,0,1,0,.3c0,.011,0,.019,0,.03-.005.035.008-.046,0,.016-.005.024-.008.046-.013.07-.011.051-.024.1-.038.149-.024.105-.054.208-.086.311l.194-.138a.177.177,0,0,1-.038,0c.022,0,.019,0,0,0s-.049-.011-.076-.019l-.008,0-.035-.016c-.024-.011-.043-.024-.068-.038a.372.372,0,0,1-.192-.159.538.538,0,0,1-.043-.284.951.951,0,0,1,.038-.151.645.645,0,0,0,.016-.143.036.036,0,0,0-.041-.027Z" transform="translate(-401.052 -338.899)" fill="#636060"/>
      </g>
    </g>
    <g id="Group_17059" data-name="Group 17059" transform="translate(263.049 538.252)">
      <g id="Group_17058" data-name="Group 17058" transform="translate(0 0)">
        <path id="Path_31152" data-name="Path 31152" d="M402.334,342.651a.3.3,0,0,1,.135.1c-.011-.022-.022-.046-.03-.068a1.251,1.251,0,0,0,.081.232,1.931,1.931,0,0,1,.049.278c.024.276.035.551.041.829s0,.554-.011.829a.933.933,0,0,0,.016.4.907.907,0,0,0,.073.1.594.594,0,0,1,.035.276.025.025,0,0,0,.049.005.905.905,0,0,1,.054-.246c.027-.046.078-.07.108-.119a1.108,1.108,0,0,0,.054-.5,9.48,9.48,0,0,0-.046-1.037c-.038-.413-.027-1.129-.556-1.229-.113-.022-.159.119-.051.157Z" transform="translate(-402.273 -342.492)" fill="#636060"/>
      </g>
    </g>
    <g id="Group_17061" data-name="Group 17061" transform="translate(258.02 537.553)">
      <g id="Group_17060" data-name="Group 17060" transform="translate(0 0)">
        <path id="Path_31153" data-name="Path 31153" d="M384.7,339.963a2.837,2.837,0,0,0-.851,1.124,2.736,2.736,0,0,0-.186.648.854.854,0,0,0,.076.357c.027.113.038.23.059.343.008.043.084.032.084-.011a.923.923,0,0,1,.043-.332,2,2,0,0,0,.14-.273,3.318,3.318,0,0,1,.189-.6,2.451,2.451,0,0,1,.778-.945.209.209,0,0,0,0-.308.254.254,0,0,0-.332,0Z" transform="translate(-383.655 -339.901)" fill="#636060"/>
      </g>
    </g>
    <g id="Group_17063" data-name="Group 17063" transform="translate(251.928 543.703)">
      <g id="Group_17062" data-name="Group 17062" transform="translate(0 0)">
        <path id="Path_31154" data-name="Path 31154" d="M361.123,362.728c.494.138.991.259,1.475.438a15.642,15.642,0,0,1,1.523.675l1.488.729.745.365a2.835,2.835,0,0,0,.751.324c.143.024.3-.138.165-.262a2.944,2.944,0,0,0-.772-.4c-.254-.113-.505-.23-.759-.343-.54-.246-1.083-.492-1.623-.735a8.51,8.51,0,0,0-2.985-.854.03.03,0,0,0-.008.059Z" transform="translate(-361.099 -362.669)" fill="#636060"/>
      </g>
    </g>
    <line id="Line_975" data-name="Line 975" x1="1.923" y2="5.01" transform="translate(253.303 537.895)" fill="none" stroke="#fff" stroke-linecap="round" stroke-linejoin="round" stroke-miterlimit="10" stroke-width="0.7"/>
    <g id="Group_17065" data-name="Group 17065" transform="translate(274.418 522.148)">
      <g id="Group_17064" data-name="Group 17064" transform="translate(0 0)">
        <path id="Path_31155" data-name="Path 31155" d="M446.831,283.025a2.956,2.956,0,0,1-.591,2.334,12.259,12.259,0,0,0-.878,2.258c-.257.791-.556,1.585-.74,2.4-.086.384-.113.767-.162,1.156a3.355,3.355,0,0,0-.049,1.226.129.129,0,0,0,.249-.032c.04-.419-.068-.832-.005-1.256a11.291,11.291,0,0,1,.365-1.388c.238-.848.516-1.685.786-2.523a11.566,11.566,0,0,1,1.053-2.317,1.942,1.942,0,0,0,.213-1.95c-.065-.119-.289-.043-.24.095Z" transform="translate(-444.367 -282.872)" fill="#636060"/>
      </g>
    </g>
    <g id="Group_17067" data-name="Group 17067" transform="translate(280.084 524.154)">
      <g id="Group_17066" data-name="Group 17066">
        <path id="Path_31156" data-name="Path 31156" d="M468.007,290.348a5.8,5.8,0,0,1-.675,2.288,9.847,9.847,0,0,0-.681,2.2,3.8,3.8,0,0,1-.467,1.124,6.141,6.141,0,0,0-.454,1.072,7.821,7.821,0,0,0-.275,1.143,2.827,2.827,0,0,0-.07,1.132.124.124,0,0,0,.216.027,3.41,3.41,0,0,0,.311-1.1c.092-.4.181-.8.308-1.191a6.939,6.939,0,0,1,.532-1.172,3.168,3.168,0,0,0,.357-1.088c.238-1.515,1.2-2.852,1.013-4.43,0-.07-.113-.076-.113,0Z" transform="translate(-465.345 -290.296)" fill="#636060"/>
      </g>
    </g>
    <g id="Group_17069" data-name="Group 17069" transform="translate(277.572 529.086)">
      <g id="Group_17068" data-name="Group 17068" transform="translate(0 0)">
        <path id="Path_31157" data-name="Path 31157" d="M456.446,308.566a4.143,4.143,0,0,0-.2.978c-.057.37-.089.732-.116,1.1s-.049.745-.068,1.118a1.455,1.455,0,0,0,.135.94.2.2,0,0,0,.37-.143,4.82,4.82,0,0,1-.076-.481c-.008-.146,0-.289,0-.435,0-.346,0-.691,0-1.037s-.013-.691-.043-1.037a2.982,2.982,0,0,1,.049-.991c.008-.032-.035-.04-.049-.014Z" transform="translate(-456.045 -308.55)" fill="#636060"/>
      </g>
    </g>
    <g id="Group_17071" data-name="Group 17071" transform="translate(275.982 531.281)">
      <g id="Group_17070" data-name="Group 17070" transform="translate(0)">
        <path id="Path_31158" data-name="Path 31158" d="M451.458,316.682c-.221.286-.47.546-.7.827-.113.138-.224.275-.346.408a.725.725,0,0,0-.149.221c-.035.078-.068.157-.1.235s.07.1.113.059c.068-.059.135-.119.2-.181a.785.785,0,0,0,.159-.216c.084-.151.178-.3.273-.446.192-.3.354-.613.551-.9,0-.005-.005-.008-.008,0Z" transform="translate(-450.163 -316.679)" fill="#636060"/>
      </g>
    </g>
    <g id="Group_17073" data-name="Group 17073" transform="translate(278.271 517.217)">
      <g id="Group_17072" data-name="Group 17072" transform="translate(0)">
        <path id="Path_31159" data-name="Path 31159" d="M458.65,264.719a2.162,2.162,0,0,0,.629,1.612,2.55,2.55,0,0,0,1.585.959,6.829,6.829,0,0,0,2.147-.13,6.677,6.677,0,0,0,2-.886c.316-.186.008-.632-.286-.451a6.842,6.842,0,0,1-1.583.794,7.066,7.066,0,0,1-1.9.238c-1.253.013-2-1.1-2.353-2.169a.121.121,0,0,0-.232.032Z" transform="translate(-458.639 -264.611)" fill="#636060"/>
      </g>
    </g>
    <g id="Group_17075" data-name="Group 17075" transform="translate(271.58 511.391)">
      <path id="Path_31160" data-name="Path 31160" d="M444.386,245.189l-2.52-.465a5.927,5.927,0,0,1-1.061-.265c-.248-.095-.483-.224-.732-.313a4.272,4.272,0,0,0-2.215-.043,13.89,13.89,0,0,0-2.625.756,1.111,1.111,0,0,0-.559.375c-.211.321.567.173.875.405a13.46,13.46,0,0,0,2.674,1.072,8.322,8.322,0,0,0,3.3-.2,4.627,4.627,0,0,0,2.952-1.224" transform="translate(-434.428 -243.725)" fill="#d8014c"/>
      <g id="Group_17074" data-name="Group 17074" transform="translate(0)">
        <path id="Path_31161" data-name="Path 31161" d="M443.877,244.316c-1-.327-2.072-.411-3.1-.659-.421-.1-.791-.311-1.2-.451a3.366,3.366,0,0,0-1.35-.157,10.349,10.349,0,0,0-2.7.575c-.389.14-.786.284-1.159.462-.208.1-.546.311-.513.583.024.23.275.278.462.311a1.792,1.792,0,0,1,.656.216,11.032,11.032,0,0,0,1.41.637,5.66,5.66,0,0,0,1.264.424,6.415,6.415,0,0,0,1.8.065c.759-.1,1.534-.208,2.285-.354a4.119,4.119,0,0,0,2.355-1.183.26.26,0,0,0-.381-.354c-1.016,1.059-2.563,1.078-3.914,1.332a5.342,5.342,0,0,1-2.682-.122c-.478-.162-.951-.343-1.413-.548a5.358,5.358,0,0,0-.983-.448,1.9,1.9,0,0,0-.351-.051l-.059-.011c-.07-.032-.078-.011-.027.068.076-.04.135-.138.213-.184a5.206,5.206,0,0,1,1.286-.44,10.248,10.248,0,0,1,2.444-.473,3.159,3.159,0,0,1,1.34.227,6.866,6.866,0,0,0,1.291.459,18.924,18.924,0,0,0,2.958.465.2.2,0,0,0,.054-.389Z" transform="translate(-433.862 -243.037)" fill="#636060"/>
      </g>
    </g>
    <g id="Group_17079" data-name="Group 17079" transform="translate(280.063 507.24)">
      <g id="Group_17078" data-name="Group 17078" transform="translate(0 0)">
        <path id="Path_31164" data-name="Path 31164" d="M467.145,227.679c-.381-.059-.74.537-.918.813a5.378,5.378,0,0,0-.6,1.332,5.462,5.462,0,0,0-.189,3.176c.046.143.284.089.243-.062a4.757,4.757,0,0,1-.013-1.6,7.629,7.629,0,0,1,.257-1.394,4.444,4.444,0,0,1,.554-1.226,3.357,3.357,0,0,1,.429-.527c.124-.124.313-.232.308-.427a.087.087,0,0,0-.068-.084Z" transform="translate(-465.27 -227.675)" fill="#636060"/>
      </g>
    </g>
    <g id="Group_17081" data-name="Group 17081" transform="translate(282.543 507.297)">
      <g id="Group_17080" data-name="Group 17080" transform="translate(0 0)">
        <path id="Path_31165" data-name="Path 31165" d="M474.465,227.992a6.791,6.791,0,0,1,.745,1.013,4.194,4.194,0,0,1,.448,1.34c.192,1.091.054,2.2.154,3.292a.255.255,0,0,0,.508,0c.027-.6-.03-1.213-.054-1.812a9.284,9.284,0,0,0-.192-1.75,2.876,2.876,0,0,0-1.523-2.185c-.054-.022-.13.051-.086.1Z" transform="translate(-474.453 -227.886)" fill="#636060"/>
      </g>
    </g>
    <g id="Group_17083" data-name="Group 17083" transform="translate(255.104 529.379)">
      <g id="Group_17082" data-name="Group 17082" transform="translate(0)">
        <path id="Path_31166" data-name="Path 31166" d="M372.865,312c.081.157.2.146.362.162a4.814,4.814,0,0,0,.764.024,8.043,8.043,0,0,0,1.34-.211c1-.232,1.958-.594,2.947-.856a21.106,21.106,0,0,1,3.1-.5c.494-.057.989-.119,1.477-.208a5.255,5.255,0,0,0,1.48-.405c.232-.122.051-.4-.165-.365-.483.081-.956.251-1.442.338-.508.089-1.021.149-1.534.208a20.993,20.993,0,0,0-2.928.475c-.932.246-1.837.583-2.768.832a8.837,8.837,0,0,1-1.448.278c-.235.022-.47.041-.7.043-.184,0-.338-.051-.467.1a.068.068,0,0,0-.016.086Z" transform="translate(-372.856 -309.639)" fill="#636060"/>
      </g>
    </g>
    <g id="Group_17085" data-name="Group 17085" transform="translate(256.063 531.73)">
      <g id="Group_17084" data-name="Group 17084" transform="translate(0 0)">
        <path id="Path_31167" data-name="Path 31167" d="M376.422,318.461a.5.5,0,0,0-.005.211l.032.165c.022.105.041.211.062.319s.038.213.062.319c.011.051.024.1.038.151a.541.541,0,0,0,.073.2.246.246,0,0,0,.232.1.228.228,0,0,0,.194-.154.942.942,0,0,0-.051-.394c-.024-.105-.057-.208-.086-.311s-.057-.208-.086-.311a.908.908,0,0,0-.13-.332.191.191,0,0,0-.181-.081.169.169,0,0,0-.154.116Z" transform="translate(-376.408 -318.343)" fill="#636060"/>
      </g>
    </g>
    <g id="Group_17087" data-name="Group 17087" transform="translate(257.006 531.566)">
      <g id="Group_17086" data-name="Group 17086" transform="translate(0)">
        <path id="Path_31168" data-name="Path 31168" d="M379.969,317.782a.529.529,0,0,0-.054.127.486.486,0,0,0,0,.2c.016.092.03.184.046.275s.04.181.062.27c.014.049.024.1.038.143a.447.447,0,0,0,.092.186.217.217,0,0,0,.351-.086.714.714,0,0,0-.04-.335,2.477,2.477,0,0,0-.073-.278l-.089-.265a.451.451,0,0,0-.068-.146.6.6,0,0,0-.113-.105.1.1,0,0,0-.154.016Z" transform="translate(-379.906 -317.738)" fill="#636060"/>
      </g>
    </g>
    <g id="Group_17089" data-name="Group 17089" transform="translate(257.818 531.246)">
      <g id="Group_17088" data-name="Group 17088">
        <path id="Path_31169" data-name="Path 31169" d="M382.921,316.774q.1.344.227.681c.041.111.081.221.124.332a1.761,1.761,0,0,0,.154.367.238.238,0,0,0,.289.086.217.217,0,0,0,.135-.254,1.6,1.6,0,0,0-.13-.343l-.138-.327c-.1-.23-.2-.454-.313-.678a.2.2,0,0,0-.238-.073.173.173,0,0,0-.111.208Z" transform="translate(-382.914 -316.553)" fill="#636060"/>
      </g>
    </g>
    <g id="Group_17091" data-name="Group 17091" transform="translate(258.854 530.982)">
      <g id="Group_17090" data-name="Group 17090" transform="translate(0 0)">
        <path id="Path_31170" data-name="Path 31170" d="M386.751,315.746a.362.362,0,0,0,.038.249c.022.043.046.084.068.127s.04.078.059.119a.144.144,0,0,1,.013.03s.016.038.005.011l.005.011a.271.271,0,0,0,.019.04q.109.255.194.519c.013.043.024.086.041.127a.306.306,0,0,0,.284.205.273.273,0,0,0,.262-.186.381.381,0,0,0-.019-.232,5.258,5.258,0,0,0-.2-.519c-.049-.108-.1-.216-.154-.321s-.116-.259-.243-.316a.271.271,0,0,0-.224-.011.221.221,0,0,0-.149.149Z" transform="translate(-386.743 -315.578)" fill="#636060"/>
      </g>
    </g>
    <g id="Group_17093" data-name="Group 17093" transform="translate(260.164 530.566)">
      <g id="Group_17092" data-name="Group 17092" transform="translate(0 0)">
        <path id="Path_31171" data-name="Path 31171" d="M392.037,314.1a.259.259,0,0,0-.438.173.656.656,0,0,0,.059.238c.027.078.054.157.084.232l.178.438.089.219a1.477,1.477,0,0,0,.113.259.243.243,0,0,0,.443-.173.77.77,0,0,0-.068-.17l-.073-.17-.138-.313c-.049-.113-.1-.23-.151-.34l-.081-.165a.565.565,0,0,0-.035-.07c.054.068-.265.1-.17.138a.2.2,0,0,0,.216-.081.172.172,0,0,0-.03-.213Z" transform="translate(-391.599 -314.032)" fill="#636060"/>
      </g>
    </g>
    <g id="Group_17095" data-name="Group 17095" transform="translate(261.387 530.355)">
      <g id="Group_17094" data-name="Group 17094">
        <path id="Path_31172" data-name="Path 31172" d="M396.136,313.373a.318.318,0,0,0,.027.221,1.532,1.532,0,0,0,.054.157c.043.105.086.213.124.321s.073.219.1.329c.016.054.03.108.043.162a.311.311,0,0,0,.254.246c-.04-.035-.078-.073-.119-.108a.213.213,0,0,0,.065.108.163.163,0,0,0,.262-.065.225.225,0,0,0,0-.127c-.014.051-.03.1-.043.151a.285.285,0,0,0,.092-.338c-.016-.054-.035-.105-.054-.159-.041-.116-.086-.232-.135-.346s-.108-.238-.165-.357a1.108,1.108,0,0,0-.1-.151.347.347,0,0,0-.189-.162.19.19,0,0,0-.221.116Z" transform="translate(-396.123 -313.252)" fill="#636060"/>
      </g>
    </g>
    <g id="Group_17097" data-name="Group 17097" transform="translate(262.42 530.203)">
      <g id="Group_17096" data-name="Group 17096" transform="translate(0 0)">
        <path id="Path_31173" data-name="Path 31173" d="M399.949,312.886a1.035,1.035,0,0,0,.089.354c.032.1.062.208.092.311s.054.211.078.316a2.331,2.331,0,0,0,.076.329.261.261,0,0,0,.284.17.245.245,0,0,0,.224-.235,1.772,1.772,0,0,0-.078-.37c-.032-.113-.065-.224-.1-.335s-.073-.213-.113-.319c-.019-.054-.041-.105-.062-.157a.917.917,0,0,0-.046-.108.458.458,0,0,0-.078-.1.217.217,0,0,0-.362.14Z" transform="translate(-399.949 -312.688)" fill="#636060"/>
      </g>
    </g>
    <g id="Group_17099" data-name="Group 17099" transform="translate(263.354 529.996)">
      <g id="Group_17098" data-name="Group 17098" transform="translate(0 0)">
        <path id="Path_31174" data-name="Path 31174" d="M403.415,312.255c.03.108.057.216.095.321s.076.211.111.319.068.213.1.321a.692.692,0,0,0,.176.378.285.285,0,0,0,.219.068.244.244,0,0,0,.192-.116.46.46,0,0,0,.038-.3c-.013-.059-.027-.116-.043-.176q-.041-.162-.089-.324c-.032-.108-.065-.216-.1-.321a2.724,2.724,0,0,0-.17-.373.3.3,0,0,0-.359-.108.261.261,0,0,0-.162.311Z" transform="translate(-403.405 -311.924)" fill="#636060"/>
      </g>
    </g>
    <g id="Group_17101" data-name="Group 17101" transform="translate(264.43 529.984)">
      <g id="Group_17100" data-name="Group 17100" transform="translate(0)">
        <path id="Path_31175" data-name="Path 31175" d="M407.4,312.048a.715.715,0,0,0-.008.076.446.446,0,0,0,.024.116,1.53,1.53,0,0,0,.043.159c.035.1.07.2.1.3s.051.216.084.321c.016.051.041.105.059.157a.26.26,0,0,0,.329.157.247.247,0,0,0,.157-.259,1.321,1.321,0,0,0-.024-.208,2.905,2.905,0,0,0-.095-.308c-.035-.1-.073-.2-.116-.3a1.209,1.209,0,0,0-.1-.184.488.488,0,0,0-.135-.143.207.207,0,0,0-.208-.035.172.172,0,0,0-.111.157Z" transform="translate(-407.39 -311.877)" fill="#636060"/>
      </g>
    </g>
    <g id="Group_17103" data-name="Group 17103" transform="translate(265.281 529.906)">
      <g id="Group_17102" data-name="Group 17102" transform="translate(0 0)">
        <path id="Path_31176" data-name="Path 31176" d="M410.54,311.762v.049a.309.309,0,0,0,.038.138l-.024-.051c.035.078.068.157.111.232s.068.127.1.192c-.008-.019-.019-.038-.027-.059l.049.111c.005.016.013.032.019.049a.289.289,0,0,0,.054.1.412.412,0,0,0,.084.07.261.261,0,0,0,.232.014.237.237,0,0,0,.151-.157.239.239,0,0,0,0-.157c-.013-.032-.03-.065-.043-.1s-.027-.057-.04-.084c-.03-.057-.059-.116-.095-.17a1.263,1.263,0,0,0-.143-.2c-.022-.022-.04-.046-.065-.068a.223.223,0,0,0-.1-.054c.035.013.043.016.019.008s-.054-.022-.081-.03a.183.183,0,0,0-.23.165Z" transform="translate(-410.54 -311.589)" fill="#636060"/>
      </g>
    </g>
    <g id="Group_17105" data-name="Group 17105" transform="translate(268.889 528.576)">
      <g id="Group_17104" data-name="Group 17104" transform="translate(0)">
        <path id="Path_31177" data-name="Path 31177" d="M424.029,308.361a4.026,4.026,0,0,0,.365-.2c.127-.065.254-.127.386-.184.292-.122.586-.235.881-.351.273-.108.548-.205.813-.332.149-.07.294-.143.448-.2s.319-.084.47-.151.038-.324-.122-.265-.289.151-.438.221a4.672,4.672,0,0,1-.456.176c-.308.108-.6.249-.9.378s-.608.27-.918.389a1.155,1.155,0,0,0-.648.405c-.046.086.049.146.122.116Z" transform="translate(-423.895 -306.667)" fill="#636060"/>
      </g>
    </g>
    <g id="Group_17107" data-name="Group 17107" transform="translate(271.398 529.025)">
      <g id="Group_17106" data-name="Group 17106" transform="translate(0)">
        <path id="Path_31178" data-name="Path 31178" d="M433.2,308.532c.062.167.1.34.151.513q.036.126.065.259a.893.893,0,0,0,.1.289.213.213,0,0,0,.375-.046.714.714,0,0,0-.008-.346c-.022-.092-.049-.184-.078-.273a1.974,1.974,0,0,0-.289-.521.178.178,0,0,0-.216-.065.154.154,0,0,0-.1.189Z" transform="translate(-433.19 -308.33)" fill="#636060"/>
      </g>
    </g>
    <g id="Group_17109" data-name="Group 17109" transform="translate(270.748 529.334)">
      <g id="Group_17108" data-name="Group 17108" transform="translate(0 0)">
        <path id="Path_31179" data-name="Path 31179" d="M430.78,309.607a.293.293,0,0,0,.008.084.455.455,0,0,0,.043.089c.022.041.043.081.062.122.008.016.005.016,0,0,.005.011.008.019.013.03s.019.043.027.065c.016.043.032.084.051.127.04.095.07.189.119.281l.032.065c.005.011.008.019.014.03h0a.239.239,0,0,0,.084.116.429.429,0,0,0,.059.035.139.139,0,0,0,.178-.043.2.2,0,0,0,.057-.162q-.008-.089-.024-.178a1.17,1.17,0,0,0-.108-.3,1.294,1.294,0,0,0-.146-.232.612.612,0,0,0-.24-.243.172.172,0,0,0-.154,0,.129.129,0,0,0-.076.116Z" transform="translate(-430.78 -309.472)" fill="#636060"/>
      </g>
    </g>
    <g id="Group_17111" data-name="Group 17111" transform="translate(270.176 529.623)">
      <g id="Group_17110" data-name="Group 17110" transform="translate(0 0)">
        <path id="Path_31180" data-name="Path 31180" d="M428.669,310.675c.065.235.116.473.176.708.013.057.027.116.038.176l.016.089c0-.022,0,0,0,.011a.34.34,0,0,0,.014.076.6.6,0,0,0,.084.205.2.2,0,0,0,.194.062c.054-.022.119-.057.13-.119a1.664,1.664,0,0,0,.027-.2.885.885,0,0,0-.027-.186,2.31,2.31,0,0,0-.081-.327,2.016,2.016,0,0,0-.162-.324,1.608,1.608,0,0,0-.216-.27.116.116,0,0,0-.194.1Z" transform="translate(-428.665 -310.54)" fill="#636060"/>
      </g>
    </g>
    <g id="Group_17113" data-name="Group 17113" transform="translate(269.631 529.828)">
      <g id="Group_17112" data-name="Group 17112">
        <path id="Path_31181" data-name="Path 31181" d="M426.646,311.475a1.66,1.66,0,0,0,.086.5,2.253,2.253,0,0,0,.078.227.845.845,0,0,0,.157.221.15.15,0,0,0,.138.062.134.134,0,0,0,.116-.092.921.921,0,0,0,.027-.284,1.852,1.852,0,0,0-.051-.243,1.772,1.772,0,0,0-.192-.481.2.2,0,0,0-.359.089Z" transform="translate(-426.645 -311.3)" fill="#636060"/>
      </g>
    </g>
    <g id="Group_17115" data-name="Group 17115" transform="translate(249.17 532.75)">
      <g id="Group_17114" data-name="Group 17114">
        <path id="Path_31182" data-name="Path 31182" d="M350.94,322.379a2.289,2.289,0,0,0,.837.332,3.373,3.373,0,0,0,.972.14,5.825,5.825,0,0,1,1.864.019.169.169,0,1,0,.1-.324,5.015,5.015,0,0,0-1.8-.1,3.914,3.914,0,0,1-.953-.108c-.157-.035-.311-.076-.465-.119a1.658,1.658,0,0,0-.44-.1.153.153,0,0,0-.116.259Z" transform="translate(-350.891 -322.12)" fill="#636060"/>
      </g>
    </g>
    <g id="Group_17117" data-name="Group 17117" transform="translate(249.678 533.115)">
      <g id="Group_17116" data-name="Group 17116" transform="translate(0)">
        <path id="Path_31183" data-name="Path 31183" d="M353.053,323.549c-.024.1-.051.2-.081.3s-.046.213-.07.319a3.614,3.614,0,0,0-.132.651.179.179,0,0,0,.327.081,1.114,1.114,0,0,0,.081-.173c.016-.054.024-.113.035-.167.022-.111.038-.221.054-.335a2.016,2.016,0,0,0,.032-.313c0-.113-.008-.227-.016-.338s-.2-.151-.23-.027Z" transform="translate(-352.77 -323.471)" fill="#636060"/>
      </g>
    </g>
    <g id="Group_17119" data-name="Group 17119" transform="translate(250.527 533.252)">
      <g id="Group_17118" data-name="Group 17118" transform="translate(0 0)">
        <path id="Path_31184" data-name="Path 31184" d="M355.92,324.047c.005.232.011.462.016.694,0,.111.005.224.008.335,0,.059,0,.119.005.181s-.005.116.049.159a.09.09,0,0,0,.119,0c.051-.046.043-.095.038-.159s-.008-.119-.013-.181c-.008-.111-.016-.224-.024-.335l-.049-.694c0-.089-.151-.092-.149,0Z" transform="translate(-355.92 -323.979)" fill="#636060"/>
      </g>
    </g>
    <g id="Group_17121" data-name="Group 17121" transform="translate(251.125 533.391)">
      <g id="Group_17120" data-name="Group 17120" transform="translate(0)">
        <path id="Path_31185" data-name="Path 31185" d="M358.13,324.518c.005.208,0,.416,0,.621,0,.108,0,.219.005.324s.027.278.165.262.127-.186.119-.284a3.183,3.183,0,0,0-.054-.321,4.393,4.393,0,0,0-.181-.61c-.008-.027-.059-.024-.057.008Z" transform="translate(-358.13 -324.492)" fill="#636060"/>
      </g>
    </g>
    <g id="Group_17123" data-name="Group 17123" transform="translate(251.68 533.193)">
      <g id="Group_17122" data-name="Group 17122">
        <path id="Path_31186" data-name="Path 31186" d="M360.257,323.769l-.008,0a.108.108,0,0,0-.059.095.847.847,0,0,0-.005.165c.005.049.013.095.019.143l.041.319c.013.111.035.221.057.33a.471.471,0,0,0,.143.311.139.139,0,0,0,.205-.024.493.493,0,0,0,.019-.367c-.019-.1-.041-.205-.065-.305s-.051-.2-.078-.3c-.014-.054-.027-.111-.043-.162a1.062,1.062,0,0,0-.073-.159.12.12,0,0,0-.1-.054.081.081,0,0,0-.049.011Z" transform="translate(-360.182 -323.757)" fill="#636060"/>
      </g>
    </g>
    <g id="Group_17125" data-name="Group 17125" transform="translate(255.297 514.6)">
      <g id="Group_17124" data-name="Group 17124" transform="translate(0 0)">
        <path id="Path_31187" data-name="Path 31187" d="M373.794,256.281a4.248,4.248,0,0,0,1.161-.14c.394-.068.786-.14,1.18-.211s.786-.14,1.18-.213a1.541,1.541,0,0,0,.826-.354c.262-.254-.149-.594-.4-.37a1.5,1.5,0,0,1-.737.257c-.365.073-.727.149-1.091.221s-.7.143-1.051.216a3.918,3.918,0,0,1-1.07.173c-.294-.022-.284.389,0,.421Z" transform="translate(-373.577 -254.92)" fill="#646060"/>
      </g>
    </g>
    <g id="Group_17127" data-name="Group 17127" transform="translate(257.746 512.861)">
      <g id="Group_17126" data-name="Group 17126" transform="translate(0 0)">
        <path id="Path_31188" data-name="Path 31188" d="M382.786,248.492c-.211.1-.146.316-.068.483.095.194.186.389.273.589s.189.389.275.589c.046.105.089.211.124.319a.656.656,0,0,0,.113.275.072.072,0,0,0,.113-.027.492.492,0,0,0-.008-.265c-.014-.1-.027-.2-.043-.3a3.156,3.156,0,0,0-.124-.57,3.393,3.393,0,0,0-.248-.543c-.051-.086-.111-.17-.165-.254-.027-.041-.081-.122-.062-.167.046-.108-.1-.165-.181-.13Z" transform="translate(-382.644 -248.482)" fill="#646060"/>
      </g>
    </g>
    <g id="Group_17129" data-name="Group 17129" transform="translate(257.072 512.949)">
      <g id="Group_17128" data-name="Group 17128" transform="translate(0 0)">
        <path id="Path_31189" data-name="Path 31189" d="M380.15,249.006a4.908,4.908,0,0,0,.216,1.34,5.689,5.689,0,0,0,.23.632c.078.189.165.473.424.435a.232.232,0,0,0,.159-.167c.035-.116-.049-.246-.089-.351-.081-.208-.151-.421-.216-.637a12.759,12.759,0,0,1-.308-1.307c-.046-.213-.419-.165-.416.057Z" transform="translate(-380.15 -248.812)" fill="#646060"/>
      </g>
    </g>
    <g id="Group_17131" data-name="Group 17131" transform="translate(256.189 513.619)">
      <g id="Group_17130" data-name="Group 17130" transform="translate(0)">
        <path id="Path_31190" data-name="Path 31190" d="M376.892,251.314a.012.012,0,1,0,0-.024.012.012,0,1,0,0,.024Z" transform="translate(-376.877 -251.29)" fill="#646060"/>
      </g>
    </g>
    <g id="Group_17133" data-name="Group 17133" transform="translate(256.277 513.316)">
      <g id="Group_17132" data-name="Group 17132" transform="translate(0)">
        <path id="Path_31191" data-name="Path 31191" d="M377.249,250.227a1.041,1.041,0,0,0-.041.273c.005.086.022.173.035.257.027.186.059.373.1.556a3.863,3.863,0,0,0,.157.521c.057.159.135.389.305.451a.126.126,0,0,0,.138-.051.394.394,0,0,0,.008-.273,2.3,2.3,0,0,0-.068-.243c-.054-.167-.1-.338-.154-.505s-.1-.335-.146-.508c-.022-.081-.035-.165-.059-.246a1.266,1.266,0,0,0-.122-.251.088.088,0,0,0-.154.019Z" transform="translate(-377.207 -250.17)" fill="#646060"/>
      </g>
    </g>
    <g id="Group_17135" data-name="Group 17135" transform="translate(255.426 520.531)">
      <g id="Group_17134" data-name="Group 17134" transform="translate(0)">
        <path id="Path_31192" data-name="Path 31192" d="M374.066,277.072a14.2,14.2,0,0,1,.732,1.983,7.932,7.932,0,0,1,0,1.045,2.342,2.342,0,0,0,.224.937,2.672,2.672,0,0,1,.284.962c.024.365.03.732.054,1.1.024.4.062.794.095,1.191a2.953,2.953,0,0,0,.162,1.045c.092.194.416.13.47-.057a3.2,3.2,0,0,0-.024-1.121c-.032-.4-.059-.794-.1-1.191a5.165,5.165,0,0,0-.451-2,1.921,1.921,0,0,1-.27-1.045,6.736,6.736,0,0,0-.022-1.07,3.842,3.842,0,0,0-.84-1.9c-.1-.127-.375-.078-.313.122Z" transform="translate(-374.057 -276.881)" fill="#646060"/>
      </g>
    </g>
    <g id="Group_17137" data-name="Group 17137" transform="translate(261.543 519.215)">
      <g id="Group_17136" data-name="Group 17136" transform="translate(0)">
        <path id="Path_31193" data-name="Path 31193" d="M397.055,272.012a.153.153,0,0,1-.035,0,.2.2,0,0,0-.192.135,2.894,2.894,0,0,0,0,1.667c.135.648.238,1.275.321,1.931.149,1.167,1.051,2.012,1.253,3.165a7.357,7.357,0,0,1,.089.913c.011.227.024.508.281.594.486.165.4-.643.375-.889a5.148,5.148,0,0,0-.432-1.667c-.246-.519-.616-.975-.84-1.5a12.674,12.674,0,0,1-.4-2.026,6.366,6.366,0,0,1-.259-2.136.181.181,0,0,0-.1-.159.133.133,0,0,0-.065-.022Z" transform="translate(-396.702 -272.01)" fill="#646060"/>
      </g>
    </g>
    <g id="Group_17139" data-name="Group 17139" transform="translate(258.635 520.502)">
      <g id="Group_17138" data-name="Group 17138" transform="translate(0 0)">
        <path id="Path_31194" data-name="Path 31194" d="M386.109,276.794c-.359.332-.078.967.089,1.326a2.416,2.416,0,0,1,.275,1.043,3.3,3.3,0,0,0,.124,1.016c.216.656.554,1.259.737,1.928.2.713.189,1.442.335,2.158a.16.16,0,0,0,.3,0,4.61,4.61,0,0,0-.081-1.92,9.881,9.881,0,0,0-.662-1.983,2.813,2.813,0,0,1-.232-1.007,2.887,2.887,0,0,0-.143-.935c-.1-.259-.235-.505-.359-.751a2.194,2.194,0,0,1-.17-.4c-.043-.146-.043-.3-.089-.44a.075.075,0,0,0-.124-.032Z" transform="translate(-385.935 -276.774)" fill="#646060"/>
      </g>
    </g>
    <g id="Group_17141" data-name="Group 17141" transform="translate(265.516 522.949)">
      <g id="Group_17140" data-name="Group 17140">
        <path id="Path_31195" data-name="Path 31195" d="M411.562,287.19a2.678,2.678,0,0,0,.87-.251c.124-.049.249-.1.375-.14a.888.888,0,0,0,.135-.038c0,.008-.046-.095-.032-.016.032.159.24.162.343.084a5.334,5.334,0,0,0,1-.891c.038-.049-.03-.119-.081-.1a5.793,5.793,0,0,0-1.169.691l.308.162c-.049-.351-.456-.394-.732-.286-.189.076-.378.154-.564.232a1.79,1.79,0,0,0-.562.311.141.141,0,0,0,.108.24Z" transform="translate(-411.411 -285.835)" fill="#646060"/>
      </g>
    </g>
    <g id="Group_17143" data-name="Group 17143" transform="translate(250.906 526.031)">
      <g id="Group_17142" data-name="Group 17142" transform="translate(0 0)">
        <path id="Path_31196" data-name="Path 31196" d="M357.569,297.6c-.062.022-.122.04-.184.065a.122.122,0,0,0-.057.162.146.146,0,0,0,.167.076,5.088,5.088,0,0,0,.754-.176,1.328,1.328,0,0,1,.346-.1c.068,0,.132.089.184.135a1.42,1.42,0,0,0,.556.319.808.808,0,0,0,.681-.024.185.185,0,0,0-.04-.3.971.971,0,0,0-.354-.038.906.906,0,0,1-.267-.068c-.2-.084-.321-.259-.508-.357a.9.9,0,0,0-.7.065,5.5,5.5,0,0,0-.754.305l.208.146c.022-.046.035-.095.054-.14s-.041-.084-.081-.07Z" transform="translate(-357.318 -297.244)" fill="#646060"/>
      </g>
    </g>
  </g>
</svg>
