<svg xmlns="http://www.w3.org/2000/svg" width="45.868" height="33.815" viewBox="0 0 45.868 33.815">
  <g id="Group_20024" data-name="Group 20024" transform="translate(-396 -511.481)">
    <rect id="Rectangle_8832" data-name="Rectangle 8832" width="1.547" height="3.296" transform="matrix(0.866, -0.5, 0.5, 0.866, 401.891, 519.141)" fill="#44cef5" stroke="#636060" stroke-linecap="round" stroke-linejoin="round" stroke-miterlimit="10" stroke-width="1"/>
    <path id="Path_31197" data-name="Path 31197" d="M457.471,272.942c-.008.03-.014.057-.022.087a2.713,2.713,0,0,0-3.059,1.958l-4.96,17.952,6.7,1.852,4.96-17.952a2.715,2.715,0,0,0-1.615-3.247c.008-.027.019-.057.027-.087.234-.846-.03-1.659-.59-1.814S457.7,272.1,457.471,272.942Z" transform="translate(-19.875 246.266)" fill="#d6d6d6" stroke="#636060" stroke-linecap="round" stroke-linejoin="round" stroke-miterlimit="10" stroke-width="1"/>
    <path id="Path_31198" data-name="Path 31198" d="M452.626,352.755h0a1.052,1.052,0,0,1-1.294.734l-7.69-2.124a1.052,1.052,0,0,1-.734-1.294h0a1.052,1.052,0,0,1,1.294-.734l7.69,2.124A1.052,1.052,0,0,1,452.626,352.755Z" transform="translate(-15.098 189.742)" fill="#d6d6d6" stroke="#636060" stroke-linecap="round" stroke-linejoin="round" stroke-miterlimit="10" stroke-width="1"/>
    <line id="Line_976" data-name="Line 976" x1="4.291" y2="15.516" transform="translate(435.432 523.166)" fill="#d6d6d6" stroke="#fff" stroke-linecap="round" stroke-linejoin="round" stroke-miterlimit="10" stroke-width="1"/>
    <g id="Group_17146" data-name="Group 17146" transform="translate(422.525 519.891)">
      <g id="Group_17145" data-name="Group 17145" transform="translate(0 0)">
        <path id="Path_31199" data-name="Path 31199" d="M425.08,280.805q.033,5.821.068,11.641a1.523,1.523,0,0,1,1.6-.277,3.126,3.126,0,0,0,1.681.22c.424-.128.837-.484,1.251-.326.223.084.37.3.585.405.519.239,1.055-.291,1.615-.394a2.232,2.232,0,0,1,1.39.367,1.778,1.778,0,0,1,1.15-.533c.473.027.968.424,1.37.171a1.006,1.006,0,0,0,.324-.862,76.968,76.968,0,0,0-.324-8.226,3.384,3.384,0,0,0-.416-1.659,1.166,1.166,0,0,0-1.493-.462,2.794,2.794,0,0,1-.451.313c-.71.28-1.267-.99-2.015-.838-.473.1-.753.742-1.232.688-.3-.033-.525-.351-.827-.359-.5-.014-.775.783-1.264.693-.345-.062-.462-.519-.778-.677-.239.245-.479.489-.721.734-.318-.383-.843-.8-1.248-.508" transform="translate(-424.672 -279.936)" fill="#44cef5"/>
        <g id="Group_17144" data-name="Group 17144">
          <path id="Path_31200" data-name="Path 31200" d="M423.58,279.743q.033,5.82.068,11.641a.413.413,0,0,0,.7.288c.438-.5,1.218-.16,1.743-.019a2.8,2.8,0,0,0,1.12.114,8.169,8.169,0,0,0,1.012-.37c.324-.09.522.258.8.381a1.223,1.223,0,0,0,.878.022c.31-.1.59-.3.911-.375a1.763,1.763,0,0,1,1.169.3.428.428,0,0,0,.495-.062,1.149,1.149,0,0,1,1.137-.348,1.79,1.79,0,0,0,1.126.133c.857-.288.715-1.477.723-2.175.022-2.137-.114-4.275-.272-6.406a6.79,6.79,0,0,0-.435-2.621,1.674,1.674,0,0,0-1.9-.914,1.427,1.427,0,0,0-.416.234c-.1.079-.2.2-.34.179-.207-.022-.446-.288-.6-.411a1.328,1.328,0,0,0-1.727-.231c-.141.1-.264.231-.4.337a.273.273,0,0,1-.4.03,1.111,1.111,0,0,0-1.107-.182,1.716,1.716,0,0,0-.435.321c-.071.065-.2.25-.31.269s-.185-.125-.25-.209a1.6,1.6,0,0,0-.432-.4.415.415,0,0,0-.495.063c-.239.245-.479.489-.721.734h.576c-.43-.5-1.093-.957-1.743-.574a.408.408,0,0,0,.411.7c.261-.155.6.272.753.446a.41.41,0,0,0,.576,0c.239-.245.479-.489.721-.734-.166.022-.329.044-.495.063.256.152.367.468.634.623a.881.881,0,0,0,.935-.046c.2-.133.351-.378.563-.487.237-.125.579.247.837.3a1.038,1.038,0,0,0,.808-.223c.188-.139.43-.481.691-.465.223.014.446.256.606.383a2.291,2.291,0,0,0,.71.449,1.014,1.014,0,0,0,.832-.079c.285-.166.457-.424.821-.31.8.25.808,1.327.859,2.007.15,2,.3,4,.324,6,.008.541.005,1.08-.005,1.621-.005.258.1,1-.34.93a4.022,4.022,0,0,0-1.172-.231,2.481,2.481,0,0,0-1.226.642c.166-.022.329-.043.495-.063a3.318,3.318,0,0,0-1.237-.435,2.2,2.2,0,0,0-1.118.269,1.885,1.885,0,0,1-.476.188c-.19.03-.283-.057-.424-.171a1.166,1.166,0,0,0-1.033-.291c-.392.084-.712.364-1.118.389a4.713,4.713,0,0,1-1.305-.285,1.89,1.89,0,0,0-1.906.405l.7.288q-.033-5.821-.068-11.641a.408.408,0,0,0-.816.008Z" transform="translate(-423.58 -278.874)" fill="#636060"/>
        </g>
      </g>
      <circle id="Ellipse_7459" data-name="Ellipse 7459" cx="3.464" cy="3.464" r="3.464" transform="translate(2.428 3.227)" fill="#44cef5" stroke="#636060" stroke-linecap="round" stroke-linejoin="round" stroke-miterlimit="10" stroke-width="1"/>
      <path id="Path_31201" data-name="Path 31201" d="M449.41,296.61a2.3,2.3,0,0,1,.778,3.056" transform="translate(-442.386 -291.787)" fill="none" stroke="#fff" stroke-linecap="round" stroke-linejoin="round" stroke-miterlimit="10" stroke-width="1"/>
    </g>
    <path id="Path_31202" data-name="Path 31202" d="M355.549,292.322c1.952,4.234,6.477,11.755,7.557,11.258s-3.013-8.44-3.646-13.06c-.813-5.947-4.071-7.774-5.49-6.768C353,284.441,353.6,288.088,355.549,292.322Z" transform="translate(49.959 237.656)" fill="#d6d6d6" stroke="#636060" stroke-linecap="round" stroke-linejoin="round" stroke-miterlimit="10" stroke-width="1"/>
    <path id="Path_31203" data-name="Path 31203" d="M362.76,307.52a25.662,25.662,0,0,0,4.185,8.375" transform="translate(43.229 220.16)" fill="#d6d6d6" stroke="#fff" stroke-linecap="round" stroke-linejoin="round" stroke-miterlimit="10" stroke-width="1"/>
    <path id="Path_31204" data-name="Path 31204" d="M372.09,322.82" transform="translate(36.436 209.02)" fill="#d6d6d6" stroke="#636060" stroke-linecap="round" stroke-linejoin="round" stroke-miterlimit="10" stroke-width="1"/>
    <path id="Path_31205" data-name="Path 31205" d="M366.94,311.99" transform="translate(40.184 216.906)" fill="#d6d6d6" stroke="#636060" stroke-linecap="round" stroke-linejoin="round" stroke-miterlimit="10" stroke-width="1"/>
    <path id="Path_31206" data-name="Path 31206" d="M333.91,351.265s10.776-2.257,6.855-6.023-6.893,3.967.859,5.534,7.842-1.653,7.211-2.98" transform="translate(64.232 193.439)" fill="none" stroke="#636060" stroke-linecap="round" stroke-linejoin="round" stroke-miterlimit="10" stroke-width="1"/>
    <g id="Group_17148" data-name="Group 17148" transform="translate(404.572 513.082)">
      <g id="Group_17147" data-name="Group 17147">
        <path id="Path_31207" data-name="Path 31207" d="M357.616,254.185c.174.171.375.307.563.462a3.806,3.806,0,0,1,.517.508,3.938,3.938,0,0,1,.715,1.256c.092.28.2.658.576.555-.035.011-.087.054.043-.016a.338.338,0,0,0,.112-.1.437.437,0,0,0,.063-.247,1.379,1.379,0,0,0-.1-.43,4.01,4.01,0,0,0-1.425-1.925,1.941,1.941,0,0,0-.843-.4c-.2-.03-.386.174-.218.343Z" transform="translate(-357.551 -253.839)" fill="#636060"/>
      </g>
    </g>
    <g id="Group_17150" data-name="Group 17150" transform="translate(405.477 512.322)">
      <g id="Group_17149" data-name="Group 17149" transform="translate(0 0)">
        <path id="Path_31208" data-name="Path 31208" d="M360.928,251.276a.142.142,0,0,1,.052.046l-.049-.111c0,.147.155.25.258.332s.218.182.326.269a3.841,3.841,0,0,1,1.055,1.292c.063.122.125.245.193.364a.957.957,0,0,0,.063.1.69.69,0,0,0,.139.117c.044.035.071.09.133.114a.174.174,0,0,0,.22-.054.463.463,0,0,0,.057-.218c-.024.12.03-.079.03-.106a.592.592,0,0,0-.027-.169,1.98,1.98,0,0,0-.19-.457,4.551,4.551,0,0,0-1.232-1.387,2.275,2.275,0,0,0-.424-.247,1.426,1.426,0,0,0-.253-.1.686.686,0,0,0-.131-.016.127.127,0,0,0-.071.005q-.094.037-.008,0c-.122-.035-.269.136-.141.228Z" transform="translate(-360.879 -251.04)" fill="#636060"/>
      </g>
    </g>
    <g id="Group_17152" data-name="Group 17152" transform="translate(397.117 517.576)">
      <g id="Group_17151" data-name="Group 17151" transform="translate(0 0)">
        <path id="Path_31209" data-name="Path 31209" d="M330.325,270.406a1.253,1.253,0,0,1-.1.139.8.8,0,0,0-.06.177,1.133,1.133,0,0,0-.03.383,2.547,2.547,0,0,0,.144.729,3.1,3.1,0,0,0,.34.669,1.9,1.9,0,0,0,.264.307.566.566,0,0,0,.394.193.228.228,0,0,0,.226-.209.5.5,0,0,0-.141-.324c-.065-.087-.128-.177-.19-.264a2.574,2.574,0,0,1-.3-.541,3.678,3.678,0,0,1-.19-.609c-.022-.106-.035-.212-.068-.318-.016-.049-.025-.1-.044-.152a1.229,1.229,0,0,1-.076-.16c-.022-.068-.144-.087-.174-.019Z" transform="translate(-330.136 -270.364)" fill="#636060"/>
      </g>
    </g>
    <g id="Group_17154" data-name="Group 17154" transform="translate(396 517.863)">
      <g id="Group_17153" data-name="Group 17153" transform="translate(0 0)">
        <path id="Path_31210" data-name="Path 31210" d="M326.061,271.544a3.307,3.307,0,0,0,0,.867,3.523,3.523,0,0,0,.25.791,3.15,3.15,0,0,0,.454.729,2.3,2.3,0,0,0,.318.332.647.647,0,0,0,.432.217.225.225,0,0,0,.228-.212c-.005-.163-.114-.247-.218-.359-.079-.087-.158-.174-.234-.264a4.47,4.47,0,0,1-.443-.655,3.3,3.3,0,0,1-.3-.683,3.947,3.947,0,0,1-.207-.761.143.143,0,0,0-.286,0Z" transform="translate(-326.032 -271.415)" fill="#636060"/>
      </g>
    </g>
    <path id="Path_31211" data-name="Path 31211" d="M390.96,288.129A87.078,87.078,0,0,1,395,309.015a3.936,3.936,0,0,0,5.06-.979,87.211,87.211,0,0,1-4.043-20.886Z" transform="translate(22.695 234.99)" fill="#d6d6d6" stroke="#636060" stroke-linecap="round" stroke-linejoin="round" stroke-miterlimit="10" stroke-width="1"/>
    <path id="Path_31212" data-name="Path 31212" d="M402.528,314.231l1.164,6.018a.855.855,0,0,0,1,.677h0a.855.855,0,0,0,.677-1l-1.164-6.018a.855.855,0,0,0-1-.677h0A.855.855,0,0,0,402.528,314.231Z" transform="translate(14.285 216.016)" fill="#d8014c" stroke="#636060" stroke-linecap="round" stroke-linejoin="round" stroke-miterlimit="10" stroke-width="1"/>
    <path id="Path_31213" data-name="Path 31213" d="M410.63,357.818l1.487-.288-.557,1.1Z" transform="translate(8.375 183.748)" fill="#44cef5" stroke="#636060" stroke-linecap="round" stroke-linejoin="round" stroke-miterlimit="10" stroke-width="1"/>
    <line id="Line_977" data-name="Line 977" y1="0.231" x2="1.205" transform="translate(416.66 527.707)" fill="#d6d6d6" stroke="#636060" stroke-linecap="round" stroke-linejoin="round" stroke-miterlimit="10" stroke-width="1"/>
    <line id="Line_978" data-name="Line 978" y1="0.234" x2="1.205" transform="translate(418.803 538.783)" fill="#d6d6d6" stroke="#636060" stroke-linecap="round" stroke-linejoin="round" stroke-miterlimit="10" stroke-width="1"/>
    <line id="Line_979" data-name="Line 979" y1="0.291" x2="1.506" transform="translate(417.311 531.885)" fill="#d6d6d6" stroke="#636060" stroke-linecap="round" stroke-linejoin="round" stroke-miterlimit="10" stroke-width="1"/>
    <line id="Line_980" data-name="Line 980" y1="0.291" x2="1.506" transform="translate(417.748 534.145)" fill="#d6d6d6" stroke="#636060" stroke-linecap="round" stroke-linejoin="round" stroke-miterlimit="10" stroke-width="1"/>
    <line id="Line_981" data-name="Line 981" x1="0.234" y1="1.207" transform="translate(419.291 538.297)" fill="#d6d6d6" stroke="#636060" stroke-linecap="round" stroke-linejoin="round" stroke-miterlimit="10" stroke-width="1"/>
    <path id="Path_31214" data-name="Path 31214" d="M468.474,282.618s-1-.228-2.964,8.092" transform="translate(-31.582 238.291)" fill="#d6d6d6" stroke="#636060" stroke-linecap="round" stroke-linejoin="round" stroke-miterlimit="10" stroke-width="1"/>
    <ellipse id="Ellipse_7460" data-name="Ellipse 7460" cx="1.12" cy="1.262" rx="1.12" ry="1.262" transform="matrix(0.957, -0.289, 0.289, 0.957, 405.707, 524.57)" fill="#d8014c" stroke="#636060" stroke-linecap="round" stroke-linejoin="round" stroke-miterlimit="10" stroke-width="1"/>
    <path id="Path_31215" data-name="Path 31215" d="M389.762,256.454l2.156-.53-.432-1.534-2.026.508Z" transform="translate(23.789 258.844)" fill="#d6d6d6" stroke="#636060" stroke-linecap="round" stroke-linejoin="round" stroke-miterlimit="10" stroke-width="1"/>
    <ellipse id="Ellipse_7461" data-name="Ellipse 7461" cx="2.975" cy="3.622" rx="2.975" ry="3.622" transform="translate(397.939 513.479) rotate(-13.55)" fill="#d6d6d6" stroke="#636060" stroke-linecap="round" stroke-linejoin="round" stroke-miterlimit="10" stroke-width="1"/>
    <path id="Path_31216" data-name="Path 31216" d="M337.22,263.649s4.128-1.623,5-2.959a2.207,2.207,0,0,1,.359.914c.106.8-4.313,3.421-4.827,2.784C337.454,264.007,337.22,263.649,337.22,263.649Z" transform="translate(61.822 254.256)" fill="#d8014c" stroke="#636060" stroke-linecap="round" stroke-linejoin="round" stroke-miterlimit="10" stroke-width="1"/>
    <path id="Path_31217" data-name="Path 31217" d="M406.033,323.554l-.946.182a.131.131,0,0,0-.1.155l.329,1.7a.131.131,0,0,0,.155.1l.946-.182a.131.131,0,0,0,.1-.155l-.329-1.7A.134.134,0,0,0,406.033,323.554Z" transform="translate(12.488 208.488)" fill="#d6d6d6"/>
    <path id="Path_31218" data-name="Path 31218" d="M391.783,260.69s.25,2.578,1.555,3.589,1.466,3.747,1.466,3.747l-5.071.835s-.927-2.464-.144-3.769.038-4.054.038-4.054Z" transform="translate(23.924 254.256)" fill="#44cef5" stroke="#636060" stroke-linecap="round" stroke-linejoin="round" stroke-miterlimit="10" stroke-width="1"/>
    <path id="Path_31219" data-name="Path 31219" d="M399.15,275.21a4.585,4.585,0,0,1,1.4,2.252" transform="translate(16.732 243.684)" fill="none" stroke="#fff" stroke-linecap="round" stroke-linejoin="round" stroke-miterlimit="10" stroke-width="1"/>
  </g>
</svg>
