<svg xmlns="http://www.w3.org/2000/svg" width="30.119" height="40.808" viewBox="0 0 30.119 40.808">
  <g id="shopping_2" transform="translate(-374.625 -233.134)">
    <g id="Group_17192" data-name="Group 17192" transform="translate(374.625 233.134)">
      <g id="Group_17187" data-name="Group 17187">
        <path id="Path_31306" data-name="Path 31306" d="M388.95,249.5c-.816-5.211-2.925-10.55-7.286-13.852a6.234,6.234,0,0,0-2.065-1.112,2.878,2.878,0,0,0-2.283.255,2.923,2.923,0,0,0-1.131,1.716,10.386,10.386,0,0,0-.062,3.925,44.087,44.087,0,0,0,1.819,9.678,3.077,3.077,0,0,0,.878,1.467,2.637,2.637,0,0,0,1.258.483c3,.442,5.613-1.853,8.569-2.448" transform="translate(-375.549 -234.019)" fill="#f3d854"/>
        <g id="Group_17186" data-name="Group 17186">
          <path id="Path_31307" data-name="Path 31307" d="M388.183,248.62a8.329,8.329,0,0,0-.283-2.314c-.168-.748-.361-1.486-.589-2.218a22.515,22.515,0,0,0-1.835-4.283,18.823,18.823,0,0,0-2.744-3.744,9.4,9.4,0,0,0-3.944-2.785,3.393,3.393,0,0,0-2.286.118,2.973,2.973,0,0,0-1.489,1.685c-.673,1.7-.318,3.732-.065,5.489.265,1.844.629,3.682.984,5.513a27.57,27.57,0,0,0,.685,2.788,3.877,3.877,0,0,0,1.115,2.056,4.182,4.182,0,0,0,2.4.673,6.85,6.85,0,0,0,2.589-.5,42.63,42.63,0,0,1,5.124-1.978c.561-.125.3-.894-.237-.788a20.327,20.327,0,0,0-4.158,1.533,8.922,8.922,0,0,1-4.171,1,2.022,2.022,0,0,1-1.832-1.305,17.637,17.637,0,0,1-.791-2.37,26.992,26.992,0,0,1-.875-5.155c-.068-.878-.131-1.754-.221-2.632a14.366,14.366,0,0,1-.1-2.56,4.061,4.061,0,0,1,.7-2.177,2.138,2.138,0,0,1,2.028-.713c1.448.19,2.747,1.358,3.766,2.33a15.905,15.905,0,0,1,2.66,3.37,22.231,22.231,0,0,1,1.972,4.37c.255.763.48,1.539.673,2.321a19.183,19.183,0,0,0,.614,2.314.161.161,0,0,0,.311-.034Z" transform="translate(-374.625 -233.134)" fill="#636060"/>
        </g>
      </g>
      <g id="Group_17189" data-name="Group 17189" transform="translate(1.918 6.622)">
        <g id="Group_17188" data-name="Group 17188">
          <path id="Path_31308" data-name="Path 31308" d="M388.6,254.81a16.878,16.878,0,0,0-3.953-.411,9.488,9.488,0,0,0-3.8.645.117.117,0,0,0,.065.218,17.422,17.422,0,0,0,1.744-.212c.663-.084,1.321-.159,1.99-.181a20.444,20.444,0,0,1,3.878.193c.168.025.255-.212.075-.252Z" transform="translate(-380.784 -254.394)" fill="#636060"/>
        </g>
      </g>
      <g id="Group_17191" data-name="Group 17191" transform="translate(4.64 11.611)">
        <g id="Group_17190" data-name="Group 17190">
          <path id="Path_31309" data-name="Path 31309" d="M395.636,270.718a3.855,3.855,0,0,0-1.439-.246c-.554-.044-1.109-.065-1.667-.062-.536,0-1.072.04-1.6.093-.439.044-1.05.016-1.377.346a.087.087,0,0,0,.019.14,2.727,2.727,0,0,0,1.414-.022c.514-.047,1.031-.072,1.548-.087s1.034-.012,1.551.012a5.818,5.818,0,0,0,1.523.047.12.12,0,0,0,.031-.221Z" transform="translate(-389.522 -270.409)" fill="#636060"/>
        </g>
      </g>
    </g>
    <g id="Group_17194" data-name="Group 17194" transform="translate(399.134 244.412)">
      <path id="Path_31310" data-name="Path 31310" d="M459.013,273.772c-.5-.3-1.1-.551-1.324-1.09-1.71-2.707-2.268-1.813-3.364-2.252a38.558,38.558,0,0,0,.009,7.245.511.511,0,0,0,.093.277.443.443,0,0,0,.24.121,2.26,2.26,0,0,0,1.872-.5,6.537,6.537,0,0,0,1.293-1.523c.53-.763.651-1.511,1.181-2.277" transform="translate(-453.891 -270.091)" fill="#d3b271"/>
      <g id="Group_17193" data-name="Group 17193" transform="translate(0)">
        <path id="Path_31311" data-name="Path 31311" d="M458.706,272.767c-.271-.249-.62-.383-.9-.626a5.392,5.392,0,0,1-.682-1.006,4.817,4.817,0,0,0-1.315-1.343c-.635-.4-1.33-.23-1.972-.436a.367.367,0,0,0-.467.327c0,1.433-.075,2.863-.065,4.3.006.744.09,1.473.128,2.215.022.449-.069,1.109.421,1.333,1.056.483,2.286-.343,2.947-1.106a8.96,8.96,0,0,0,1.028-1.439,19.656,19.656,0,0,1,1.009-1.735c.336-.483-.514-.916-.816-.439a6.3,6.3,0,0,0-.62,1.445,5.322,5.322,0,0,1-.794,1.414,3.985,3.985,0,0,1-1.118,1.131c-.343.209-1.283.595-1.48.065a3.992,3.992,0,0,1-.137-.966c-.028-.3-.022-.589-.022-.885,0-.592-.019-1.184-.006-1.776a33.905,33.905,0,0,1,.268-3.554l-.554.293c.607.274,1.308.178,1.825.554a5.486,5.486,0,0,1,1.2,1.433,3.051,3.051,0,0,0,.716.866,3.888,3.888,0,0,0,1.022.545.37.37,0,0,0,.38-.607Z" transform="translate(-453.307 -269.341)" fill="#636060"/>
      </g>
    </g>
    <g id="Group_17196" data-name="Group 17196" transform="translate(385.021 237.185)">
      <path id="Path_31312" data-name="Path 31312" d="M409.5,267.4a55.267,55.267,0,0,1,.492-7.834c.259-1.626.663-3.227.9-4.856a46.919,46.919,0,0,0,.3-6.971,47.53,47.53,0,0,1,14.752-.156,1.606,1.606,0,0,1,.583.162,1.57,1.57,0,0,1,.617,1.081,19.746,19.746,0,0,1,.218,5.953,77.7,77.7,0,0,1-1.941,12.232,12.713,12.713,0,0,0-.526,3.4,1.359,1.359,0,0,1-.249,1.106,1.214,1.214,0,0,1-.91.178q-3.757-.276-7.513-.548a11.529,11.529,0,0,1-4.476-.938,3.93,3.93,0,0,1-2.311-3.663" transform="translate(-408.976 -246.789)" fill="#d8014c"/>
      <g id="Group_17195" data-name="Group 17195">
        <path id="Path_31313" data-name="Path 31313" d="M408.713,266.751a77.459,77.459,0,0,1,.676-7.741c.209-1.255.511-2.492.738-3.744a30.15,30.15,0,0,0,.439-3.772c.078-1.464.084-2.937.047-4.4-.1.118-.193.234-.29.352.959-.178,1.919-.38,2.891-.48q1.392-.14,2.788-.2a44.055,44.055,0,0,1,5.663.134c.947.081,1.888.19,2.828.33.364.053.819.05,1.043.383a2.953,2.953,0,0,1,.327,1.106,21.62,21.62,0,0,1,.081,5.638,75.561,75.561,0,0,1-1.757,11.161c-.218.928-.483,1.85-.629,2.794a8.359,8.359,0,0,0-.109,1.305c0,.255.118.825-.165.963-.3.146-.894-.025-1.212-.05-.486-.034-.972-.069-1.458-.106-.972-.069-1.944-.14-2.912-.209-1.044-.075-2.087-.14-3.13-.227a11.694,11.694,0,0,1-2.8-.5c-1.533-.517-2.987-1.85-2.869-3.588.037-.536-.829-.52-.885,0a4.231,4.231,0,0,0,2.2,3.887,11.671,11.671,0,0,0,5.336,1.2q3.182.234,6.364.47c.785.059,1.909.259,2.333-.614a2.248,2.248,0,0,0,.134-1.075,7.872,7.872,0,0,1,.121-1.6c.178-1.015.455-2.012.676-3.018s.421-2.025.6-3.04q.547-3.028.857-6.093a31.651,31.651,0,0,0,.212-6.143,6.311,6.311,0,0,0-.592-2.592c-.467-.772-1.473-.738-2.268-.829a50.593,50.593,0,0,0-6.937-.287c-1.159.025-2.317.093-3.47.206s-2.324.2-3.476.371a.375.375,0,0,0-.29.352,47.852,47.852,0,0,1-.436,7.759,54.678,54.678,0,0,0-1.075,7.523c-.053,1.461-.019,2.919.031,4.383a.186.186,0,0,0,.371,0Z" transform="translate(-407.999 -246.139)" fill="#636060"/>
      </g>
    </g>
    <g id="Group_17198" data-name="Group 17198" transform="translate(388.713 239.593)">
      <g id="Group_17197" data-name="Group 17197">
        <path id="Path_31314" data-name="Path 31314" d="M419.954,254.668c2.04.081,4.09-.131,6.133-.118,1,.006,2,.022,3,.065.511.022,1.025.05,1.536.087.255.019.511.037.766.059a4.515,4.515,0,0,0,.841-.075c.243-.025.321-.34.062-.414a5.978,5.978,0,0,0-.673-.209,6.987,6.987,0,0,0-.766-.056c-.536-.037-1.075-.065-1.61-.087-1.05-.044-2.1-.062-3.149-.04a27.061,27.061,0,0,0-6.161.6.1.1,0,0,0,.025.19Z" transform="translate(-419.851 -253.871)" fill="#fff"/>
      </g>
    </g>
    <text id="CAFÉ" transform="translate(389.398 244.6)" fill="#fff" font-size="4" font-family="SegoeUI-Bold, Segoe UI" font-weight="700"><tspan x="0" y="0">CAFÉ</tspan></text>
    <g id="Group_17200" data-name="Group 17200" transform="translate(378.083 246.094)">
      <path id="Path_31315" data-name="Path 31315" d="M388.425,276.888c1.981-.053,3.975.084,5.95-.109,6.934-.67,12.958-1.084,18.59.962-.121,6.464-1.265,12.911-.863,19.362.1,1.6.3,3.2.34,4.8a1,1,0,0,1-.115.6.988.988,0,0,1-.695.315,49.808,49.808,0,0,1-7.622.4q-6.625-.009-13.248-.14a15.251,15.251,0,0,1-2.8-.23.779.779,0,0,1-.458-.215.824.824,0,0,1-.137-.48c-.545-8.451,2.884-16.986,1.165-25.281" transform="translate(-386.816 -275.767)" fill="#d3b271"/>
      <g id="Group_17199" data-name="Group 17199" transform="translate(0 0)">
        <path id="Path_31316" data-name="Path 31316" d="M387.334,276.221c1.776.059,3.567.146,5.342.031,1.673-.109,3.342-.311,5.015-.43a44.1,44.1,0,0,1,9.245.137,26.158,26.158,0,0,1,4.813,1.177l-.346-.421c-.012,2.523-.262,5.037-.424,7.551s-.368,5.027-.43,7.544c-.062,2.489.121,4.94.3,7.42a15.427,15.427,0,0,1,.065,1.654c-.009.333-.062.414-.386.477-.346.065-.7.109-1.044.153-1.265.153-2.539.221-3.81.265-5.018.174-10.058.031-15.076-.106a17.54,17.54,0,0,1-3.595-.262c-.262-.062-.234-.156-.249-.414-.016-.283-.028-.57-.034-.857-.016-.617-.034-1.237-.028-1.853a53.824,53.824,0,0,1,.673-7c.361-2.6.766-5.2.944-7.828a32.807,32.807,0,0,0-.349-7.734c-.1-.607-1.174-.383-1.022.262,1.124,4.757.287,9.753-.374,14.516-.336,2.42-.639,4.841-.754,7.28a16.88,16.88,0,0,0,.028,3.613,1.062,1.062,0,0,0,.919.857,10.384,10.384,0,0,0,1.888.2c2.6.1,5.211.059,7.815.078,2.641.019,5.283.053,7.921.053,1.3,0,2.6-.006,3.894-.1q.977-.07,1.947-.2a1.866,1.866,0,0,0,1.383-.545c.34-.477.174-1.146.14-1.688-.04-.626-.09-1.252-.143-1.875-.115-1.308-.218-2.617-.249-3.931-.118-5.208.685-10.357.931-15.55.031-.66.05-1.324.075-1.984a.458.458,0,0,0-.346-.421c-5.893-2.215-12.438-1.589-18.565-1.006-2.031.193-4.068.044-6.1.212a.359.359,0,1,0-.019.716Z" transform="translate(-385.725 -274.742)" fill="#636060"/>
      </g>
    </g>
    <path id="Path_31317" data-name="Path 31317" d="M393.785,283.47a22.087,22.087,0,0,1,.243,9.379c-.981,5.233-1.878,12.506-1.878,12.506" transform="translate(-12.066 -34.657)" fill="none" stroke="#fff" stroke-linecap="round" stroke-linejoin="round" stroke-miterlimit="10" stroke-width="1"/>
    <path id="Path_31318" data-name="Path 31318" d="M463.686,285.86s-1.271,16.568-.449,20.979" transform="translate(-60.82 -36.302)" fill="none" stroke="#fff" stroke-linecap="round" stroke-linejoin="round" stroke-miterlimit="10" stroke-width="1"/>
    <g id="Group_17202" data-name="Group 17202" transform="translate(375.019 244.736)">
      <path id="Path_31319" data-name="Path 31319" d="M377.459,272.059a36.241,36.241,0,0,0,3.663,1.576,1.01,1.01,0,0,1,.414.234.932.932,0,0,1,.171.358,25.623,25.623,0,0,1,.944,3.52c.508,3.012-.078,6.08-.517,9.1-.6,4.134-1.162,8.55-1.48,12.715a9.18,9.18,0,0,1-1.807-2,4.906,4.906,0,0,1-.564-.773,6.686,6.686,0,0,1-.632-3.012,34.281,34.281,0,0,1,.4-9.553,17.585,17.585,0,0,0,.67-3.355,11.559,11.559,0,0,0-.224-2.265c-.252-1.517-.5-3.037-.822-4.542a4.8,4.8,0,0,1-.134-2.208" transform="translate(-376.97 -271.399)" fill="#d3b271"/>
      <g id="Group_17201" data-name="Group 17201" transform="translate(0 0)">
        <path id="Path_31320" data-name="Path 31320" d="M376.185,271.344c.885.436,1.782.841,2.7,1.2.212.084.427.165.642.246a1.874,1.874,0,0,1,.611.259,1.144,1.144,0,0,1,.224.526c.087.277.174.558.259.838a16.26,16.26,0,0,1,.673,5.741c-.125,2.009-.5,4-.785,5.987-.277,1.909-.539,3.822-.766,5.738q-.4,3.327-.635,6.669c.237-.125.473-.252.71-.377a8.025,8.025,0,0,1-1.607-1.791,4.537,4.537,0,0,1-1.1-2.314c-.128-.916-.131-1.857-.168-2.779-.037-.938-.062-1.872-.04-2.813a24.513,24.513,0,0,1,.663-5.557,18.278,18.278,0,0,0,.576-2.707,10.638,10.638,0,0,0-.221-2.825c-.187-1.087-.374-2.174-.582-3.255a8.163,8.163,0,0,1-.389-3.168c.134-.6-.829-.825-.966-.246a6.48,6.48,0,0,0,.2,2.835c.2,1.006.377,2.018.545,3.031a19.591,19.591,0,0,1,.4,3.121,11.671,11.671,0,0,1-.5,2.828,22.834,22.834,0,0,0-.66,5.794c.009.987.047,1.975.093,2.959.044.944.062,1.9.193,2.831a6.293,6.293,0,0,0,.371,1.533,4.732,4.732,0,0,0,.816,1.2,9.842,9.842,0,0,0,1.894,2.075.477.477,0,0,0,.71-.377c.343-4.084.866-8.152,1.439-12.207a57.573,57.573,0,0,0,.707-6.108,17.874,17.874,0,0,0-.838-5.928,9.157,9.157,0,0,0-.483-1.455c-.218-.433-.685-.539-1.106-.7-1.087-.421-2.156-.894-3.2-1.408-.417-.2-.829.392-.386.611Z" transform="translate(-375.888 -270.382)" fill="#636060"/>
      </g>
    </g>
    <path id="Path_31321" data-name="Path 31321" d="M417.907,298.71l1.978,4.012,4.429.645-3.205,3.121.757,4.411-3.959-2.081-3.962,2.081.757-4.411-3.2-3.121,4.426-.645Z" transform="translate(-25.388 -45.15)" fill="none" stroke="#fff" stroke-linecap="round" stroke-linejoin="round" stroke-miterlimit="10" stroke-width="1"/>
  </g>
</svg>
