<svg xmlns="http://www.w3.org/2000/svg" width="24.712" height="35.974" viewBox="0 0 24.712 35.974">
  <g id="Capa_2" data-name="Capa 2" transform="translate(0.25 8.25)">
    <g id="Capa_1" data-name="Capa 1" transform="translate(0 -8)">
      <path id="Path_371" data-name="Path 371" d="M0,22.118c.022-.151.037-.3.067-.454.11-.566.2-1.136.342-1.7a10.446,10.446,0,0,1,.346-1.014c.018-.049.041-.1.067-.157.049.043.085.075.118.108l2.018,2.018a.226.226,0,0,1,.073.238,9.9,9.9,0,0,0-.14,1.053c-.028.312-.026.629-.037.943a.23.23,0,0,0,0,.083c.116.293-.053.466-.246.654-.668.652-1.325,1.317-1.983,1.981a.751.751,0,0,0-.1.153l-.065-.035L.417,25.84a8.1,8.1,0,0,1-.352-1.727c-.014-.13-.043-.257-.065-.393Z" transform="translate(0 -7.684)" fill="#abe236" stroke="#abe236" stroke-width="0.5"/>
      <path id="Path_372" data-name="Path 372" d="M17.417,56.821a1.631,1.631,0,0,1-.926-.649c-.151-.228-.3-.458-.45-.686l-1.81-2.712c-.116-.175-.238-.35-.358-.525l.033-.027c.825.808,1.651,1.617,2.486,2.439l1.36-1.364c.106.163.21.32.312.48.238.369.505.723.705,1.11a1.4,1.4,0,0,1-.077,1.472,1.061,1.061,0,0,1-.59.428.341.341,0,0,0-.065.033Z" transform="translate(-5.671 -21.347)" fill="#abe236" stroke="#abe236" stroke-width="0.5"/>
      <path id="Path_373" data-name="Path 373" d="M20.549,0h2.329V17.168a5.736,5.736,0,0,1-.538,2.4A5.22,5.22,0,0,1,21.3,21.073a5.328,5.328,0,0,1-2.49,1.407,7.653,7.653,0,0,1-2.435.183,5.573,5.573,0,0,1-2.948-1.014,5.051,5.051,0,0,1-1.48-1.663,6.536,6.536,0,0,1-.631-1.741,5.081,5.081,0,0,1-.1-.882,12.834,12.834,0,0,1-.031-1.289,6.194,6.194,0,0,1,1.091-3.429A5.039,5.039,0,0,1,13.893,11.2a6.072,6.072,0,0,1,2.008-.686,6.19,6.19,0,0,1,1.279-.069,6.031,6.031,0,0,1,2.162.487.2.2,0,0,1,.1.132V13.6c-.212-.126-.407-.263-.619-.367a3.258,3.258,0,0,0-1.279-.342,6.646,6.646,0,0,0-.764-.029,3.632,3.632,0,0,0-1.926.59,2.912,2.912,0,0,0-1.209,1.914,7.258,7.258,0,0,0-.13,1.4,4.351,4.351,0,0,0,.393,1.892,2.844,2.844,0,0,0,1.979,1.556,4.742,4.742,0,0,0,1.448.128,3.653,3.653,0,0,0,1.855-.56,2.867,2.867,0,0,0,1.071-1.342,3.561,3.561,0,0,0,.259-1.342c0-.621.029-1.242.029-1.865V.218Z" transform="translate(-4.571)" fill="#abe236" stroke="#abe236" stroke-width="0.5"/>
      <path id="Path_374" data-name="Path 374" d="M36.844,26.578a.29.29,0,0,1-.041-.029l-1.836-1.8a.175.175,0,0,1-.057-.2c.116-.478.222-.957.322-1.439a3.546,3.546,0,0,0,.073-.576c.02-.44.053-.882.029-1.323a8.134,8.134,0,0,0-.56-2.6c-.09-.228-.216-.444-.314-.67a.185.185,0,0,1,.016-.165c.613-.623,1.234-1.242,1.853-1.859a.33.33,0,0,1,.049-.02c.1.145.206.291.3.444a10.955,10.955,0,0,1,1.224,2.7,9.627,9.627,0,0,1,.316,1.521,11.36,11.36,0,0,1,.067,1.769,6.288,6.288,0,0,1-.468,2.126c-.281.682-.613,1.344-.922,2.016C36.878,26.515,36.864,26.546,36.844,26.578Z" transform="translate(-14.081 -6.502)" fill="#abe236" stroke="#abe236" stroke-width="0.5"/>
      <path id="Path_375" data-name="Path 375" d="M3.288,27.216a9.57,9.57,0,0,0,.7,2.555,11.312,11.312,0,0,0,1,1.769q1.04,1.572,2.071,3.156c.138.21.269.424.4.639a.136.136,0,0,1-.026.2c-.629.623-1.254,1.252-1.894,1.892-.13-.2-.257-.371-.379-.558-.261-.393-.519-.8-.786-1.2-.654-.983-1.317-1.965-1.965-2.96A12.518,12.518,0,0,1,.938,29.714a.234.234,0,0,1,.033-.2c.741-.749,1.488-1.492,2.234-2.24A.371.371,0,0,1,3.288,27.216Z" transform="translate(-0.38 -11.125)" fill="#abe236" stroke="#abe236" stroke-width="0.5"/>
      <path id="Path_376" data-name="Path 376" d="M3.7,16.691c-.031-.029-.069-.059-.1-.092q-1.01-1-2.006-2a.169.169,0,0,1-.045-.224,9.4,9.4,0,0,1,1.317-2.162A16.238,16.238,0,0,1,3.99,10.955,10.388,10.388,0,0,1,5.847,9.546a9.684,9.684,0,0,1,2.268-.963.175.175,0,0,1,.14.014c.66.652,1.317,1.309,1.981,1.965A8.668,8.668,0,0,0,3.7,16.691Z" transform="translate(-0.622 -3.505)" fill="#abe236" stroke="#abe236" stroke-width="0.5"/>
      <path id="Path_377" data-name="Path 377" d="M14.353,49.972l-.051-.047q-1.1-1.079-2.193-2.162c-.163-.159-.33-.314-.5-.468a5.723,5.723,0,0,1-.786-1.063c-.509-.755-1.006-1.517-1.507-2.276-.13-.2-.263-.393-.383-.59a.2.2,0,0,1,0-.181c.629-.639,1.262-1.271,1.91-1.92l4.785,7.415Z" transform="translate(-3.642 -16.869)" fill="#abe236" stroke="#abe236" stroke-width="0.5"/>
      <path id="Path_378" data-name="Path 378" d="M32.3,31l1.918,1.918-.517,1.04c-.2.415-.4.829-.613,1.242a.786.786,0,0,1-.147.208q-2.06,2.065-4.127,4.127c-.11.11-.183.13-.283,0a1.362,1.362,0,0,0-.232-.232c-.13-.1-.108-.2-.039-.32.423-.786.839-1.572,1.258-2.358q.733-1.376,1.464-2.751c.248-.47.509-.933.729-1.415S32.1,31.481,32.3,31Z" transform="translate(-11.527 -12.67)" fill="#abe236" stroke="#abe236" stroke-width="0.5"/>
      <path id="Path_379" data-name="Path 379" d="M13.05,8.013A15.328,15.328,0,0,1,19.566,7.5c-.051.059-.077.1-.11.128-.7.706-1.405,1.411-2.113,2.111a.377.377,0,0,1-.21.085q-.961.116-1.926.214a.206.206,0,0,1-.147-.053c-.393-.373-.786-.749-1.163-1.126Z" transform="translate(-5.334 -3.008)" fill="#abe236" stroke="#abe236" stroke-width="0.5"/>
      <path id="Path_380" data-name="Path 380" d="M31.521,10.221a11.272,11.272,0,0,1,3.571,3.217L33.14,15.38c-.128-.2-.255-.415-.393-.621a8.321,8.321,0,0,0-1.126-1.3.267.267,0,0,1-.092-.159C31.519,12.294,31.521,11.276,31.521,10.221Z" transform="translate(-12.885 -4.178)" fill="#abe236" stroke="#abe236" stroke-width="0.5"/>
      <path id="Path_381" data-name="Path 381" d="M24.052,7.914v2.635A9.81,9.81,0,0,0,20.5,9.96c.045-.057.065-.092.092-.12q1.049-1.059,2.1-2.111a.2.2,0,0,1,.236-.051C23.288,7.769,23.671,7.847,24.052,7.914Z" transform="translate(-8.378 -3.131)" fill="#abe236" stroke="#abe236" stroke-width="0.5"/>
      <path id="Path_382" data-name="Path 382" d="M27.827,45.72,29.4,47.293c-.244.485-.367,1.051-.906,1.376a1.256,1.256,0,0,1-1.965-.786,3.145,3.145,0,0,1,0-.77.236.236,0,0,1,.061-.143C26.992,46.548,27.407,46.137,27.827,45.72Z" transform="translate(-10.834 -18.689)" fill="#abe236" stroke="#abe236" stroke-width="0.5"/>
      <path id="Path_383" data-name="Path 383" d="M30.54,44.433c-.086-.092-.171-.2-.265-.285q-.5-.485-1-.965c-.083-.079-.1-.132,0-.224q1.91-1.9,3.816-3.812A.159.159,0,0,1,33.2,39.1C32.316,40.865,31.434,42.633,30.54,44.433Z" transform="translate(-11.939 -15.981)" fill="#abe236" stroke="#abe236" stroke-width="0.5"/>
      <path id="Path_384" data-name="Path 384" d="M27.58,45.046l.293.291-.949.953Z" transform="translate(-11.006 -18.413)" fill="#abe236" stroke="#abe236" stroke-width="0.5"/>
    </g>
  </g>
</svg>
