<svg xmlns="http://www.w3.org/2000/svg" width="42.17" height="36.962" viewBox="0 0 42.17 36.962">
  <g id="varita" transform="translate(-61.142 -425.263) rotate(47)">
    <path id="Path_32556" data-name="Path 32556" d="M412.037,307.4c-1.025,1.275-1.521-.541-.5-1.815V279.475a1.117,1.117,0,0,1,.98-1.215h1.388a1.117,1.117,0,0,1,.98,1.215v26.111C415.966,307.617,412.516,308.891,412.037,307.4Z" transform="translate(-33.443 -40.096)" fill="#936938" stroke="#636060" stroke-linecap="round" stroke-linejoin="round" stroke-miterlimit="10" stroke-width="0.5"/>
    <path id="Path_32557" data-name="Path 32557" d="M397.437,234.77l2.611,5.367,5.676.654-4.469,3.719,1.3,6.021-5.121-3.067-5.121,3.067,1.3-6.021-4.469-3.719,5.676-.654Z" transform="translate(-17.798 -8.924)" fill="#f3d854" stroke="#636060" stroke-linecap="round" stroke-linejoin="round" stroke-miterlimit="10" stroke-width="0.5"/>
    <g id="Group_18291" data-name="Group 18291" transform="translate(364.32 237.413)">
      <g id="Group_18289" data-name="Group 18289">
        <path id="Path_32558" data-name="Path 32558" d="M368.737,276.7l.923,2.393,2.393.923-2.334.983-.983,2.334-.929-2.39-2.388-.926,2.439-.878Z" transform="translate(-365.108 -276.391)" fill="#000929"/>
        <path id="Path_32559" data-name="Path 32559" d="M367.948,282.861h-.006a.314.314,0,0,1-.286-.2l-.878-2.26-2.26-.878a.309.309,0,0,1,.008-.581l2.3-.827.827-2.3a.31.31,0,0,1,.581-.006l.872,2.266,2.266.872a.31.31,0,0,1,.008.575l-2.218.935-.935,2.215A.3.3,0,0,1,367.948,282.861Zm-2.43-3.614,1.614.629a.307.307,0,0,1,.176.176l.651,1.674.688-1.629a.311.311,0,0,1,.164-.164l1.626-.685-1.677-.646a.308.308,0,0,1-.178-.178l-.623-1.617-.595,1.657a.306.306,0,0,1-.187.187Zm1.552-.889Z" transform="translate(-364.32 -275.61)" fill="#000929"/>
      </g>
      <g id="Group_18290" data-name="Group 18290" transform="translate(3.522 0.72)">
        <path id="Path_32560" data-name="Path 32560" d="M377.4,280.073a.1.1,0,0,1-.1-.074l-.541-1.711a.1.1,0,1,1,.2-.062l.541,1.711a.105.105,0,0,1-.068.13A.056.056,0,0,1,377.4,280.073Z" transform="translate(-376.754 -278.154)" fill="#fff"/>
      </g>
    </g>
    <g id="Group_18294" data-name="Group 18294" transform="translate(382.639 222.32)">
      <g id="Group_18292" data-name="Group 18292" transform="translate(0)">
        <path id="Path_32561" data-name="Path 32561" d="M433.417,223.41l.923,2.393,2.393.923-2.334.983-.983,2.334-.929-2.388-2.388-.929,2.439-.878Z" transform="translate(-429.788 -223.101)" fill="#000929"/>
        <path id="Path_32562" data-name="Path 32562" d="M432.628,229.571h-.006a.313.313,0,0,1-.286-.2l-.878-2.26-2.26-.878a.309.309,0,0,1,.008-.581l2.3-.827.827-2.3a.31.31,0,0,1,.581-.006l.872,2.266,2.266.872a.31.31,0,0,1,.008.575l-2.218.935-.935,2.215A.3.3,0,0,1,432.628,229.571Zm-2.433-3.614,1.614.629a.307.307,0,0,1,.176.176l.651,1.674.688-1.629a.311.311,0,0,1,.164-.164l1.626-.685-1.677-.646a.308.308,0,0,1-.178-.178l-.623-1.617-.595,1.657a.306.306,0,0,1-.187.187Zm1.555-.889Z" transform="translate(-429 -222.32)" fill="#000929"/>
      </g>
      <g id="Group_18293" data-name="Group 18293" transform="translate(3.522 0.72)">
        <path id="Path_32563" data-name="Path 32563" d="M442.078,226.783a.1.1,0,0,1-.1-.074L441.438,225a.1.1,0,1,1,.2-.062l.541,1.711a.105.105,0,0,1-.068.13A.061.061,0,0,1,442.078,226.783Z" transform="translate(-441.434 -224.864)" fill="#fff"/>
      </g>
    </g>
    <g id="Group_18297" data-name="Group 18297" transform="translate(389.119 241.325)">
      <g id="Group_18295" data-name="Group 18295" transform="translate(0 0)">
        <path id="Path_32564" data-name="Path 32564" d="M456.3,290.51l.923,2.393,2.393.921-2.334.986-.983,2.331-.929-2.388-2.388-.929,2.439-.875Z" transform="translate(-452.668 -290.201)" fill="#000929"/>
        <path id="Path_32565" data-name="Path 32565" d="M455.508,296.671H455.5a.314.314,0,0,1-.286-.2l-.878-2.26-2.26-.878a.309.309,0,0,1,.008-.581l2.3-.827.827-2.3a.31.31,0,0,1,.581-.006l.872,2.266,2.266.872a.31.31,0,0,1,.2.283.315.315,0,0,1-.19.292l-2.218.935-.935,2.215A.3.3,0,0,1,455.508,296.671Zm-2.43-3.614,1.614.629a.306.306,0,0,1,.176.176l.651,1.674.688-1.629a.311.311,0,0,1,.164-.164l1.626-.685-1.677-.646a.308.308,0,0,1-.178-.178l-.623-1.617-.595,1.657a.306.306,0,0,1-.187.187Zm1.552-.889Z" transform="translate(-451.88 -289.42)" fill="#000929"/>
      </g>
      <g id="Group_18296" data-name="Group 18296" transform="translate(3.522 0.72)">
        <path id="Path_32566" data-name="Path 32566" d="M464.958,293.883a.1.1,0,0,1-.1-.074l-.541-1.711a.1.1,0,0,1,.2-.062l.541,1.711a.105.105,0,0,1-.068.13A.055.055,0,0,1,464.958,293.883Z" transform="translate(-464.314 -291.964)" fill="#fff"/>
      </g>
    </g>
    <line id="Line_1169" data-name="Line 1169" x2="1.49" y2="3.359" transform="translate(379.733 228.098)" fill="none" stroke="#fff" stroke-linecap="round" stroke-linejoin="round" stroke-miterlimit="10" stroke-width="0.5"/>
    <path id="Path_32567" data-name="Path 32567" d="M414.27,309.33s1.359.649,1.232,1.8-.085,5,.3,5.1" transform="translate(-35.803 -62.366)" fill="none" stroke="#636060" stroke-linecap="round" stroke-linejoin="round" stroke-miterlimit="10" stroke-width="0.5"/>
    <path id="Path_32568" data-name="Path 32568" d="M413.87,337.829s.85-.408,1.02.986,1.631,3.127.816,4.011-1.241-1.054-1.241-1.054" transform="translate(-35.516 -82.754)" fill="none" stroke="#636060" stroke-linecap="round" stroke-linejoin="round" stroke-miterlimit="10" stroke-width="0.5"/>
    <path id="Path_32569" data-name="Path 32569" d="M413.95,365.71s.374,1.731,1.054,1.561a6.348,6.348,0,0,1,1.8-.238" transform="translate(-35.573 -102.778)" fill="#936938" stroke="#636060" stroke-linecap="round" stroke-linejoin="round" stroke-miterlimit="10" stroke-width="0.5"/>
    <line id="Line_1170" data-name="Line 1170" y2="8.27" transform="translate(380.436 242.047)" fill="none" stroke="#fff" stroke-linecap="round" stroke-linejoin="round" stroke-miterlimit="10" stroke-width="0.5"/>
  </g>
</svg>
