<svg xmlns="http://www.w3.org/2000/svg" width="42.57" height="30.369" viewBox="0 0 42.57 30.369">
  <g id="Group_20015" data-name="Group 20015" transform="translate(-473.93 -530.682)">
    <path id="Path_26360" data-name="Path 26360" d="M360.44,287.491H326.217a1.838,1.838,0,0,1-1.837-1.837V266.087a1.838,1.838,0,0,1,1.837-1.837H360.44a1.838,1.838,0,0,1,1.837,1.837v19.566A1.838,1.838,0,0,1,360.44,287.491Z" transform="translate(151.906 273.061)" fill="#d6d6d6" stroke="#636060" stroke-linecap="round" stroke-linejoin="round" stroke-miterlimit="10" stroke-width="1"/>
    <path id="Path_26361" data-name="Path 26361" d="M316.779,245.239h0a1.6,1.6,0,0,1-1.6-1.6v-8.171a1.6,1.6,0,0,1,1.6-1.6h0a1.6,1.6,0,0,1,1.6,1.6v8.173A1.6,1.6,0,0,1,316.779,245.239Z" transform="translate(159.25 297.313)" fill="#fff" stroke="#636060" stroke-linecap="round" stroke-linejoin="round" stroke-miterlimit="10" stroke-width="1"/>
    <path id="Path_26362" data-name="Path 26362" d="M332.629,245.239h0a1.6,1.6,0,0,1-1.6-1.6v-8.171a1.6,1.6,0,0,1,1.6-1.6h0a1.6,1.6,0,0,1,1.6,1.6v8.173A1.6,1.6,0,0,1,332.629,245.239Z" transform="translate(146.596 297.313)" fill="#d8014c" stroke="#636060" stroke-linecap="round" stroke-linejoin="round" stroke-miterlimit="10" stroke-width="1"/>
    <path id="Path_26363" data-name="Path 26363" d="M348.489,245.239h0a1.6,1.6,0,0,1-1.6-1.6v-8.171a1.6,1.6,0,0,1,1.6-1.6h0a1.6,1.6,0,0,1,1.6,1.6v8.173A1.6,1.6,0,0,1,348.489,245.239Z" transform="translate(133.938 297.313)" fill="#fff" stroke="#636060" stroke-linecap="round" stroke-linejoin="round" stroke-miterlimit="10" stroke-width="1"/>
    <path id="Path_26364" data-name="Path 26364" d="M364.339,245.239h0a1.6,1.6,0,0,1-1.6-1.6v-8.171a1.6,1.6,0,0,1,1.6-1.6h0a1.6,1.6,0,0,1,1.6,1.6v8.173A1.6,1.6,0,0,1,364.339,245.239Z" transform="translate(121.283 297.313)" fill="#d8014c" stroke="#636060" stroke-linecap="round" stroke-linejoin="round" stroke-miterlimit="10" stroke-width="1"/>
    <path id="Path_26365" data-name="Path 26365" d="M380.189,245.239h0a1.6,1.6,0,0,1-1.6-1.6v-8.171a1.6,1.6,0,0,1,1.6-1.6h0a1.6,1.6,0,0,1,1.6,1.6v8.173A1.6,1.6,0,0,1,380.189,245.239Z" transform="translate(108.629 297.313)" fill="#fff" stroke="#636060" stroke-linecap="round" stroke-linejoin="round" stroke-miterlimit="10" stroke-width="1"/>
    <path id="Path_26366" data-name="Path 26366" d="M396.049,245.239h0a1.6,1.6,0,0,1-1.6-1.6v-8.171a1.6,1.6,0,0,1,1.6-1.6h0a1.6,1.6,0,0,1,1.6,1.6v8.173A1.6,1.6,0,0,1,396.049,245.239Z" transform="translate(95.967 297.313)" fill="#d8014c" stroke="#636060" stroke-linecap="round" stroke-linejoin="round" stroke-miterlimit="10" stroke-width="1"/>
    <path id="Path_26367" data-name="Path 26367" d="M411.9,245.239h0a1.6,1.6,0,0,1-1.6-1.6v-8.171a1.6,1.6,0,0,1,1.6-1.6h0a1.6,1.6,0,0,1,1.6,1.6v8.173A1.6,1.6,0,0,1,411.9,245.239Z" transform="translate(83.314 297.313)" fill="#fff" stroke="#636060" stroke-linecap="round" stroke-linejoin="round" stroke-miterlimit="10" stroke-width="1"/>
    <path id="Path_26368" data-name="Path 26368" d="M427.759,245.239h0a1.6,1.6,0,0,1-1.6-1.6v-8.171a1.6,1.6,0,0,1,1.6-1.6h0a1.6,1.6,0,0,1,1.6,1.6v8.173A1.6,1.6,0,0,1,427.759,245.239Z" transform="translate(70.654 297.313)" fill="#d8014c" stroke="#636060" stroke-linecap="round" stroke-linejoin="round" stroke-miterlimit="10" stroke-width="1"/>
    <path id="Path_26369" data-name="Path 26369" d="M443.609,245.239h0a1.6,1.6,0,0,1-1.6-1.6v-8.171a1.6,1.6,0,0,1,1.6-1.6h0a1.6,1.6,0,0,1,1.6,1.6v8.173A1.6,1.6,0,0,1,443.609,245.239Z" transform="translate(58 297.313)" fill="#fff" stroke="#636060" stroke-linecap="round" stroke-linejoin="round" stroke-miterlimit="10" stroke-width="1"/>
    <path id="Path_26370" data-name="Path 26370" d="M459.469,245.239h0a1.6,1.6,0,0,1-1.6-1.6v-8.171a1.6,1.6,0,0,1,1.6-1.6h0a1.6,1.6,0,0,1,1.6,1.6v8.173A1.6,1.6,0,0,1,459.469,245.239Z" transform="translate(45.338 297.313)" fill="#d8014c" stroke="#636060" stroke-linecap="round" stroke-linejoin="round" stroke-miterlimit="10" stroke-width="1"/>
    <path id="Path_26371" data-name="Path 26371" d="M475.319,245.239h0a1.6,1.6,0,0,1-1.6-1.6v-8.171a1.6,1.6,0,0,1,1.6-1.6h0a1.6,1.6,0,0,1,1.6,1.6v8.173A1.6,1.6,0,0,1,475.319,245.239Z" transform="translate(32.688 297.313)" fill="#fff" stroke="#636060" stroke-linecap="round" stroke-linejoin="round" stroke-miterlimit="10" stroke-width="1"/>
    <path id="Path_26372" data-name="Path 26372" d="M491.179,245.239h0a1.6,1.6,0,0,1-1.6-1.6v-8.171a1.6,1.6,0,0,1,1.6-1.6h0a1.6,1.6,0,0,1,1.6,1.6v8.173A1.6,1.6,0,0,1,491.179,245.239Z" transform="translate(20.025 297.313)" fill="#d8014c" stroke="#636060" stroke-linecap="round" stroke-linejoin="round" stroke-miterlimit="10" stroke-width="1"/>
    <path id="Path_26373" data-name="Path 26373" d="M507.029,245.239h0a1.6,1.6,0,0,1-1.6-1.6v-8.171a1.6,1.6,0,0,1,1.6-1.6h0a1.6,1.6,0,0,1,1.6,1.6v8.173A1.6,1.6,0,0,1,507.029,245.239Z" transform="translate(7.371 297.313)" fill="#fff" stroke="#636060" stroke-linecap="round" stroke-linejoin="round" stroke-miterlimit="10" stroke-width="1"/>
    <line id="Line_335" data-name="Line 335" y2="8.217" transform="translate(511.912 532.959)" fill="none" stroke="#fff" stroke-linecap="round" stroke-linejoin="round" stroke-miterlimit="10" stroke-width="1"/>
    <line id="Line_336" data-name="Line 336" y2="8.217" transform="translate(505.535 532.959)" fill="none" stroke="#fff" stroke-linecap="round" stroke-linejoin="round" stroke-miterlimit="10" stroke-width="1"/>
    <line id="Line_337" data-name="Line 337" y2="8.217" transform="translate(499.16 532.959)" fill="none" stroke="#fff" stroke-linecap="round" stroke-linejoin="round" stroke-miterlimit="10" stroke-width="1"/>
    <line id="Line_338" data-name="Line 338" y2="8.217" transform="translate(492.783 532.959)" fill="none" stroke="#fff" stroke-linecap="round" stroke-linejoin="round" stroke-miterlimit="10" stroke-width="1"/>
    <line id="Line_339" data-name="Line 339" y2="8.217" transform="translate(486.406 532.959)" fill="none" stroke="#fff" stroke-linecap="round" stroke-linejoin="round" stroke-miterlimit="10" stroke-width="1"/>
    <line id="Line_340" data-name="Line 340" y2="8.217" transform="translate(480.029 532.959)" fill="none" stroke="#fff" stroke-linecap="round" stroke-linejoin="round" stroke-miterlimit="10" stroke-width="1"/>
    <path id="Path_26374" data-name="Path 26374" d="M406.775,314.15H403.05a1.69,1.69,0,0,0-1.69,1.69v11.486h7.106V315.84A1.691,1.691,0,0,0,406.775,314.15Z" transform="translate(90.451 233.225)" fill="#684b35" stroke="#636060" stroke-linecap="round" stroke-linejoin="round" stroke-miterlimit="10" stroke-width="1"/>
    <circle id="Ellipse_6860" data-name="Ellipse 6860" cx="0.44" cy="0.44" r="0.44" transform="translate(497.002 554.557)" fill="#000929"/>
    <path id="Path_26375" data-name="Path 26375" d="M411.18,318.96h-4.57v10.552" transform="translate(86.26 229.383)" fill="none" stroke="#fff" stroke-linecap="round" stroke-linejoin="round" stroke-miterlimit="10" stroke-width="1"/>
    <path id="Path_26376" data-name="Path 26376" d="M450.42,312.358a.25.25,0,0,1-.25-.25V300.88a.25.25,0,0,1,.25-.25h9.931a.25.25,0,0,1,.25.25v11.228a.25.25,0,0,1-.25.25Z" transform="translate(51.486 244.016)" fill="#d8014c"/>
    <path id="Path_26377" data-name="Path 26377" d="M459.354,299.882V311.11h-9.931V299.882h9.931m0-.5h-9.931a.5.5,0,0,0-.5.5V311.11a.5.5,0,0,0,.5.5h9.931a.5.5,0,0,0,.5-.5V299.882a.5.5,0,0,0-.5-.5Z" transform="translate(52.484 245.014)" fill="#636060"/>
    <line id="Line_341" data-name="Line 341" x1="7.818" transform="translate(502.74 545.822)" fill="#d8014c"/>
    <path id="Path_26378" data-name="Path 26378" d="M462.378,305.71H454.56a.25.25,0,0,1,0-.5h7.818a.25.25,0,1,1,0,.5Z" transform="translate(48.182 240.361)" fill="#fff"/>
    <path id="Path_26379" data-name="Path 26379" d="M337.21,312.358a.25.25,0,0,1-.25-.25V300.88a.25.25,0,0,1,.25-.25h9.931a.25.25,0,0,1,.25.25v11.228a.25.25,0,0,1-.25.25Z" transform="translate(141.861 244.016)" fill="#d8014c"/>
    <path id="Path_26380" data-name="Path 26380" d="M346.141,299.882V311.11h-9.929V299.882h9.929m0-.5h-9.929a.5.5,0,0,0-.5.5V311.11a.5.5,0,0,0,.5.5h9.931a.5.5,0,0,0,.5-.5V299.882a.505.505,0,0,0-.5-.5Z" transform="translate(142.859 245.014)" fill="#636060"/>
    <line id="Line_342" data-name="Line 342" x1="7.816" transform="translate(479.906 545.822)" fill="#d8014c"/>
    <path id="Path_26381" data-name="Path 26381" d="M349.158,305.71H341.34a.25.25,0,0,1,0-.5h7.818a.25.25,0,0,1,.25.25A.247.247,0,0,1,349.158,305.71Z" transform="translate(138.564 240.361)" fill="#fff"/>
    <path id="Path_26382" data-name="Path 26382" d="M451.41,302.47v11.107h9.931v-.028Z" transform="translate(50.496 242.547)" fill="#931c4a"/>
    <path id="Path_26383" data-name="Path 26383" d="M338.2,302.47v11.107h9.929v-.028Z" transform="translate(140.873 242.547)" fill="#931c4a"/>
  </g>
</svg>
