<svg xmlns="http://www.w3.org/2000/svg" width="54.678" height="24.487" viewBox="0 0 54.678 24.487">
  <g id="taxi" transform="translate(-289.785 -256.42)">
    <g id="Group_18213" data-name="Group 18213" transform="translate(314.711 257.488)">
      <text id="TAXI-2" data-name="TAXI" transform="translate(0.074 0.998) rotate(4.031)" fill="#fff" stroke="#636060" stroke-linecap="round" stroke-linejoin="round" stroke-miterlimit="10" stroke-width="1" font-size="1" font-family="SegoeUI-Bold, Segoe UI" font-weight="700"><tspan x="0" y="0">TAXI</tspan></text>
      <text id="TAXI-3" data-name="TAXI" transform="translate(0.074 0.998) rotate(4.031)" fill="#fff" stroke="#636060" stroke-linecap="round" stroke-linejoin="round" stroke-miterlimit="10" stroke-width="1" font-size="1" font-family="SegoeUI-Bold, Segoe UI" font-weight="700"><tspan x="0" y="0">TAXI</tspan></text>
      <text id="TAXI-4" data-name="TAXI" transform="translate(0.074 0.998) rotate(4.031)" fill="#fff" stroke="#636060" stroke-miterlimit="10" stroke-width="1" font-size="1" font-family="SegoeUI-Bold, Segoe UI" font-weight="700"><tspan x="0" y="0">TAXI</tspan></text>
    </g>
    <path id="Path_32473" data-name="Path 32473" d="M343.819,270.9h0a2.261,2.261,0,0,0-.413-1.315c-.016-.021-.032-.043-.048-.062-.664-.726-10.837-7.013-22.1-9.353l.185-2.621-8.362-.589-.164,2.326c-12.487-.084-18.48,4.3-18.48,4.3a7.587,7.587,0,0,0-2.678-.073c-.078.034-.164.183-.258.413h0v0c-.689,1.717-1.673,8.125-.973,8.668a9.8,9.8,0,0,0,3.981,1.991h-.459l1.616,1.3H296c0,.055.007.11.011.164h.612a4.929,4.929,0,0,0,9.793,0h.612c0-.055.009-.11.011-.164h24.207c0,.055.007.11.011.164h.612a4.929,4.929,0,0,0,9.793,0h.61c.011-.123.018-.247.023-.37a5.027,5.027,0,0,0,1.644-1.1A22.859,22.859,0,0,0,343.819,270.9Z" transform="translate(-0.009 -0.016)" fill="#fff" stroke="#636060" stroke-linecap="round" stroke-linejoin="round" stroke-miterlimit="10" stroke-width="1"/>
    <g id="Group_18214" data-name="Group 18214" transform="translate(312.885 256.94)">
      <text id="TAXI-5" data-name="TAXI" transform="translate(1.9 1.546) rotate(4.031)" stroke="#636060" stroke-linecap="round" stroke-linejoin="round" stroke-miterlimit="10" stroke-width="1" font-size="1" font-family="SegoeUI-Bold, Segoe UI" font-weight="700"><tspan x="0" y="0">TAXI</tspan></text>
      <text id="TAXI-6" data-name="TAXI" transform="translate(1.9 1.546) rotate(4.031)" stroke="#636060" stroke-linecap="round" stroke-linejoin="round" stroke-miterlimit="10" stroke-width="1" font-size="1" font-family="SegoeUI-Bold, Segoe UI" font-weight="700"><tspan x="0" y="0">TAXI</tspan></text>
      <rect id="Rectangle_8920" data-name="Rectangle 8920" width="8.383" height="2.63" transform="translate(0.185) rotate(4.031)" fill="#fdfffe"/>
      <text id="TAXI-7" data-name="TAXI" transform="translate(1.9 2.043) rotate(4.031)" font-size="2" font-family="SegoeUI-Bold, Segoe UI" font-weight="700"><tspan x="0" y="0">TAXI</tspan></text>
    </g>
    <path id="Path_32474" data-name="Path 32474" d="M343.928,282.443s.217-4.2-.58-5.066-15.2-9.7-28.8-10.2-20.121,4.269-20.121,4.269a7.587,7.587,0,0,0-2.678-.073c-.651.29-2.027,8.467-1.23,9.083a9.8,9.8,0,0,0,3.981,1.991C296.016,282.659,343.928,282.443,343.928,282.443Z" transform="translate(0 -7.868)" fill="#abe236"/>
    <rect id="Rectangle_8921" data-name="Rectangle 8921" width="25.477" height="3.981" transform="translate(336.69 274.576) rotate(180)" fill="#abe236"/>
    <path id="Path_32475" data-name="Path 32475" d="M364.946,276.479s-10.928-4.995-22-5.066S331,273.441,331,273.441s-.941.507,3.545,1.157,28.442,3.541,28.442,3.541S364.656,277.854,364.946,276.479Z" transform="translate(-31.368 -11.168)" fill="#a2e7fa"/>
    <path id="Path_32476" data-name="Path 32476" d="M510.735,311.68H507.55s1.664,1.447,2.244,1.447h1.692S511.458,311.68,510.735,311.68Z" transform="translate(-167.676 -42.244)" fill="#d8014c"/>
    <path id="Path_32477" data-name="Path 32477" d="M294.5,287.49h5.324s.58.6-1.087.89a31.3,31.3,0,0,0-4.559,1.447Z" transform="translate(-3.015 -23.576)" fill="#d8014c"/>
    <path id="Path_32478" data-name="Path 32478" d="M306.77,334.19h49.889a4.312,4.312,0,0,1-2.678,1.3h-45.6" transform="translate(-12.731 -59.615)" fill="#000929"/>
    <g id="Group_18230" data-name="Group 18230" transform="translate(304.789 271.016)">
      <g id="Group_18217" data-name="Group 18217" transform="translate(0)">
        <g id="Group_18215" data-name="Group 18215">
          <rect id="Rectangle_8922" data-name="Rectangle 8922" width="1.29" height="1.479"/>
          <rect id="Rectangle_8923" data-name="Rectangle 8923" width="1.29" height="1.479" transform="translate(0 1.479)" fill="#fff"/>
        </g>
        <g id="Group_18216" data-name="Group 18216" transform="translate(1.29)">
          <rect id="Rectangle_8924" data-name="Rectangle 8924" width="1.29" height="1.479" transform="translate(0 1.479)"/>
          <rect id="Rectangle_8925" data-name="Rectangle 8925" width="1.29" height="1.479" fill="#fff"/>
        </g>
      </g>
      <g id="Group_18220" data-name="Group 18220" transform="translate(2.577)">
        <g id="Group_18218" data-name="Group 18218">
          <rect id="Rectangle_8926" data-name="Rectangle 8926" width="1.29" height="1.479"/>
          <rect id="Rectangle_8927" data-name="Rectangle 8927" width="1.29" height="1.479" transform="translate(0 1.479)" fill="#fff"/>
        </g>
        <g id="Group_18219" data-name="Group 18219" transform="translate(1.29)">
          <rect id="Rectangle_8928" data-name="Rectangle 8928" width="1.29" height="1.479" transform="translate(0 1.479)"/>
          <rect id="Rectangle_8929" data-name="Rectangle 8929" width="1.29" height="1.479" fill="#fff"/>
        </g>
      </g>
      <g id="Group_18223" data-name="Group 18223" transform="translate(5.155)">
        <g id="Group_18221" data-name="Group 18221">
          <rect id="Rectangle_8930" data-name="Rectangle 8930" width="1.29" height="1.479"/>
          <rect id="Rectangle_8931" data-name="Rectangle 8931" width="1.29" height="1.479" transform="translate(0 1.479)" fill="#fff"/>
        </g>
        <g id="Group_18222" data-name="Group 18222" transform="translate(1.29)">
          <rect id="Rectangle_8932" data-name="Rectangle 8932" width="1.29" height="1.479" transform="translate(0 1.479)"/>
          <rect id="Rectangle_8933" data-name="Rectangle 8933" width="1.29" height="1.479" fill="#fff"/>
        </g>
      </g>
      <g id="Group_18226" data-name="Group 18226" transform="translate(7.732)">
        <g id="Group_18224" data-name="Group 18224">
          <rect id="Rectangle_8934" data-name="Rectangle 8934" width="1.29" height="1.479"/>
          <rect id="Rectangle_8935" data-name="Rectangle 8935" width="1.29" height="1.479" transform="translate(0 1.479)" fill="#fff"/>
        </g>
        <g id="Group_18225" data-name="Group 18225" transform="translate(1.29)">
          <rect id="Rectangle_8936" data-name="Rectangle 8936" width="1.29" height="1.479" transform="translate(0 1.479)"/>
          <rect id="Rectangle_8937" data-name="Rectangle 8937" width="1.29" height="1.479" fill="#fff"/>
        </g>
      </g>
      <g id="Group_18229" data-name="Group 18229" transform="translate(10.312)">
        <g id="Group_18227" data-name="Group 18227">
          <rect id="Rectangle_8938" data-name="Rectangle 8938" width="1.29" height="1.479"/>
          <rect id="Rectangle_8939" data-name="Rectangle 8939" width="1.29" height="1.479" transform="translate(0 1.479)" fill="#fff"/>
        </g>
        <g id="Group_18228" data-name="Group 18228" transform="translate(1.288)">
          <rect id="Rectangle_8940" data-name="Rectangle 8940" width="1.29" height="1.479" transform="translate(0 1.479)"/>
          <rect id="Rectangle_8941" data-name="Rectangle 8941" width="1.29" height="1.479" fill="#fff"/>
        </g>
      </g>
    </g>
    <g id="Group_18246" data-name="Group 18246" transform="translate(324.499 271.016)">
      <g id="Group_18233" data-name="Group 18233" transform="translate(0)">
        <g id="Group_18231" data-name="Group 18231">
          <rect id="Rectangle_8942" data-name="Rectangle 8942" width="1.29" height="1.479"/>
          <rect id="Rectangle_8943" data-name="Rectangle 8943" width="1.29" height="1.479" transform="translate(0 1.479)" fill="#fff"/>
        </g>
        <g id="Group_18232" data-name="Group 18232" transform="translate(1.29)">
          <rect id="Rectangle_8944" data-name="Rectangle 8944" width="1.29" height="1.479" transform="translate(0 1.479)"/>
          <rect id="Rectangle_8945" data-name="Rectangle 8945" width="1.29" height="1.479" fill="#fff"/>
        </g>
      </g>
      <g id="Group_18236" data-name="Group 18236" transform="translate(2.577)">
        <g id="Group_18234" data-name="Group 18234">
          <rect id="Rectangle_8946" data-name="Rectangle 8946" width="1.29" height="1.479"/>
          <rect id="Rectangle_8947" data-name="Rectangle 8947" width="1.29" height="1.479" transform="translate(0 1.479)" fill="#fff"/>
        </g>
        <g id="Group_18235" data-name="Group 18235" transform="translate(1.29)">
          <rect id="Rectangle_8948" data-name="Rectangle 8948" width="1.29" height="1.479" transform="translate(0 1.479)"/>
          <rect id="Rectangle_8949" data-name="Rectangle 8949" width="1.29" height="1.479" fill="#fff"/>
        </g>
      </g>
      <g id="Group_18239" data-name="Group 18239" transform="translate(5.155)">
        <g id="Group_18237" data-name="Group 18237">
          <rect id="Rectangle_8950" data-name="Rectangle 8950" width="1.29" height="1.479"/>
          <rect id="Rectangle_8951" data-name="Rectangle 8951" width="1.29" height="1.479" transform="translate(0 1.479)" fill="#fff"/>
        </g>
        <g id="Group_18238" data-name="Group 18238" transform="translate(1.29)">
          <rect id="Rectangle_8952" data-name="Rectangle 8952" width="1.29" height="1.479" transform="translate(0 1.479)"/>
          <rect id="Rectangle_8953" data-name="Rectangle 8953" width="1.29" height="1.479" fill="#fff"/>
        </g>
      </g>
      <g id="Group_18242" data-name="Group 18242" transform="translate(7.732)">
        <g id="Group_18240" data-name="Group 18240">
          <rect id="Rectangle_8954" data-name="Rectangle 8954" width="1.29" height="1.479"/>
          <rect id="Rectangle_8955" data-name="Rectangle 8955" width="1.29" height="1.479" transform="translate(0 1.479)" fill="#fff"/>
        </g>
        <g id="Group_18241" data-name="Group 18241" transform="translate(1.29)">
          <rect id="Rectangle_8956" data-name="Rectangle 8956" width="1.29" height="1.479" transform="translate(0 1.479)"/>
          <rect id="Rectangle_8957" data-name="Rectangle 8957" width="1.29" height="1.479" fill="#fff"/>
        </g>
      </g>
      <g id="Group_18245" data-name="Group 18245" transform="translate(10.309)">
        <g id="Group_18243" data-name="Group 18243">
          <rect id="Rectangle_8958" data-name="Rectangle 8958" width="1.29" height="1.479"/>
          <rect id="Rectangle_8959" data-name="Rectangle 8959" width="1.29" height="1.479" transform="translate(0 1.479)" fill="#fff"/>
        </g>
        <g id="Group_18244" data-name="Group 18244" transform="translate(1.29)">
          <rect id="Rectangle_8960" data-name="Rectangle 8960" width="1.29" height="1.479" transform="translate(0 1.479)"/>
          <rect id="Rectangle_8961" data-name="Rectangle 8961" width="1.29" height="1.479" fill="#fff"/>
        </g>
      </g>
    </g>
    <path id="Path_32479" data-name="Path 32479" d="M326.272,319.992c.018-.187.03-.374.03-.566a5.536,5.536,0,0,0-11.072,0,5.16,5.16,0,0,0,.03.566Z" transform="translate(-19.26 -43.949)" fill="#30521d"/>
    <path id="Path_32480" data-name="Path 32480" d="M480.672,319.992c.018-.187.03-.374.03-.566a5.536,5.536,0,0,0-11.072,0,5.175,5.175,0,0,0,.03.566Z" transform="translate(-138.413 -43.949)" fill="#30521d"/>
    <circle id="Ellipse_7632" data-name="Ellipse 7632" cx="4.931" cy="4.931" r="4.931" transform="translate(296.575 270.546)" fill="#000929"/>
    <circle id="Ellipse_7633" data-name="Ellipse 7633" cx="4.931" cy="4.931" r="4.931" transform="translate(331.822 270.546)" fill="#000929"/>
    <circle id="Ellipse_7634" data-name="Ellipse 7634" cx="2.105" cy="2.105" r="2.105" transform="translate(334.648 273.372)" fill="#b2b2b2"/>
    <circle id="Ellipse_7635" data-name="Ellipse 7635" cx="2.105" cy="2.105" r="2.105" transform="translate(299.401 273.372)" fill="#b2b2b2"/>
    <path id="Path_32481" data-name="Path 32481" d="M493.83,331.21a1.764,1.764,0,0,1,1.58,1.582" transform="translate(-157.088 -57.315)" fill="none" stroke="#fff" stroke-linecap="round" stroke-linejoin="round" stroke-miterlimit="10" stroke-width="1"/>
    <path id="Path_32482" data-name="Path 32482" d="M338.04,331.21a1.764,1.764,0,0,1,1.58,1.582" transform="translate(-36.863 -57.315)" fill="none" stroke="#fff" stroke-linecap="round" stroke-linejoin="round" stroke-miterlimit="10" stroke-width="1"/>
    <path id="Path_32483" data-name="Path 32483" d="M326.272,319.992c.018-.187.03-.374.03-.566a5.536,5.536,0,0,0-11.072,0,5.16,5.16,0,0,0,.03.566Z" transform="translate(-19.26 -43.949)" fill="#30521d"/>
    <path id="Path_32484" data-name="Path 32484" d="M480.672,319.992c.018-.187.03-.374.03-.566a5.536,5.536,0,0,0-11.072,0,5.175,5.175,0,0,0,.03.566Z" transform="translate(-138.413 -43.949)" fill="#30521d"/>
    <circle id="Ellipse_7636" data-name="Ellipse 7636" cx="4.931" cy="4.931" r="4.931" transform="translate(296.575 270.546)" fill="#000929"/>
    <circle id="Ellipse_7637" data-name="Ellipse 7637" cx="4.931" cy="4.931" r="4.931" transform="translate(331.822 270.546)" fill="#000929"/>
    <circle id="Ellipse_7638" data-name="Ellipse 7638" cx="2.105" cy="2.105" r="2.105" transform="translate(334.648 273.372)" fill="#b2b2b2"/>
    <circle id="Ellipse_7639" data-name="Ellipse 7639" cx="2.105" cy="2.105" r="2.105" transform="translate(299.401 273.372)" fill="#b2b2b2"/>
    <path id="Path_32485" data-name="Path 32485" d="M345.759,292.148l-3.678-.388a.491.491,0,0,0-.541.438h0a.491.491,0,0,0,.438.541l3.678.388a.491.491,0,0,0,.541-.438h0A.5.5,0,0,0,345.759,292.148Z" transform="translate(-39.561 -26.869)" fill="#30521d"/>
    <path id="Path_32486" data-name="Path 32486" d="M406.6,297.848l-3.678-.388a.491.491,0,0,0-.541.438h0a.491.491,0,0,0,.438.541l3.678.388a.491.491,0,0,0,.541-.438h0A.492.492,0,0,0,406.6,297.848Z" transform="translate(-86.513 -31.268)" fill="#30521d"/>
    <g id="Group_18261" data-name="Group 18261" transform="translate(319.385 268.651)">
      <g id="Group_18247" data-name="Group 18247" transform="translate(0.955 0)">
        <path id="Path_32487" data-name="Path 32487" d="M423.381,309.493l.034-1.219a.111.111,0,0,1,0-.027.006.006,0,0,1,.007-.007h.018l.3.009h.016a.013.013,0,0,1,.011.007h0v.018l-.021.769-.016.589-.016.55c0,.057,0,.114,0,.169,0,.1-.007.205-.011.308,0,.043-.007.084-.011.128a1.035,1.035,0,0,1-.021.116,1.049,1.049,0,0,1-.071.2.713.713,0,0,1-.137.194.654.654,0,0,1-.2.142.842.842,0,0,1-.167.057c-.032.007-.066.011-.1.016l-.036,0-.057,0a1.11,1.11,0,0,1-.151,0,.657.657,0,0,1-.066-.009l-.043-.007a.988.988,0,0,1-.142-.037.707.707,0,0,1-.272-.164.664.664,0,0,1-.13-.176.791.791,0,0,1-.068-.171,1.153,1.153,0,0,1-.03-.128.97.97,0,0,1-.014-.114,1.322,1.322,0,0,1,0-.135c0-.027,0-.057.009-.084a1.3,1.3,0,0,1,.041-.192.743.743,0,0,1,.192-.326.81.81,0,0,1,.3-.187.894.894,0,0,1,.338-.05.658.658,0,0,1,.066.007c.023,0,.037.007.053.009l.1.021a.485.485,0,0,1,.062.018l.023.011a.1.1,0,0,1,.043.059.2.2,0,0,1,.007.052v.094c0,.059,0,.116,0,.176l0,.016,0,0-.014-.009a.686.686,0,0,0-.121-.064.662.662,0,0,0-.089-.027.72.72,0,0,0-.171-.011.707.707,0,0,0-.139.021.415.415,0,0,0-.176.089.4.4,0,0,0-.089.114.467.467,0,0,0-.037.094.8.8,0,0,0-.025.368.764.764,0,0,0,.023.1.394.394,0,0,0,.071.142.4.4,0,0,0,.132.107.415.415,0,0,0,.128.039.182.182,0,0,1,.034.007.784.784,0,0,0,.1.009.671.671,0,0,0,.1,0l.052,0a.51.51,0,0,0,.128-.036.372.372,0,0,0,.176-.164.506.506,0,0,0,.055-.142c0-.023.009-.046.014-.071s0-.064.007-.1Z" transform="translate(-421.982 -308.24)" fill="#000929"/>
      </g>
      <g id="Group_18248" data-name="Group 18248" transform="translate(2.972 1.374)">
        <path id="Path_32488" data-name="Path 32488" d="M430.82,314.534s.007-.009.009-.014l.153-.142.094-.087a.124.124,0,0,0,.014-.018.062.062,0,0,1,.011-.014l0,0,.007,0a1.674,1.674,0,0,1,.135.242,1.5,1.5,0,0,1,.105.345,1.015,1.015,0,0,1,.014.116l0,.075v.014l0,.116a.618.618,0,0,1-.009.091c0,.016,0,.03-.007.043-.011.053-.025.1-.041.153a1.283,1.283,0,0,1-.082.189l-.087.164-.007.009-.007,0c-.089-.089-.176-.178-.263-.267a.01.01,0,0,1,0-.011l.014-.046a1.1,1.1,0,0,0,.036-.144c.007-.039.016-.08.021-.119s0-.066.009-.1a.124.124,0,0,0,0-.041v-.057c0-.039,0-.075-.009-.114s-.007-.055-.011-.082a1.113,1.113,0,0,0-.03-.126,1.178,1.178,0,0,0-.071-.176Z" transform="translate(-430.82 -314.26)" fill="#fff"/>
      </g>
      <g id="Group_18249" data-name="Group 18249" transform="translate(0.068 2.313)">
        <path id="Path_32489" data-name="Path 32489" d="M418.449,318.37a.042.042,0,0,1,0,.016.8.8,0,0,0,.016.1,1.348,1.348,0,0,0,.055.187,1.1,1.1,0,0,0,.1.2c.025.043.05.084.078.128l.263.431.048.078,0,.007a0,0,0,0,1,0,.007c-.016.016-.032.032-.048.046l-.178.164c-.018.018-.037.034-.057.053,0,0-.007,0-.009,0l0,0-.007-.009-.139-.224-.173-.281-.089-.144a2.116,2.116,0,0,1-.116-.21,1.675,1.675,0,0,1-.087-.224l0-.007s0,0,0-.007.009-.007.009-.014,0,0,0,0a.02.02,0,0,0,.014-.007l.089-.082.215-.2S418.442,318.372,418.449,318.37Z" transform="translate(-418.1 -318.37)" fill="#fff"/>
      </g>
      <g id="Group_18250" data-name="Group 18250" transform="translate(0.161 0.699)">
        <path id="Path_32490" data-name="Path 32490" d="M419.747,311.6h0l-.018,0a1.272,1.272,0,0,0-.58.3c-.036.034-.073.071-.1.107a1.146,1.146,0,0,0-.2.322c-.011.025-.021.052-.03.078a0,0,0,0,1-.007,0,0,0,0,0,1,0,0l0,0,0,0-.082-.087-.183-.192-.021-.021c-.007-.007-.007-.009,0-.018s.014-.03.023-.046a1.471,1.471,0,0,1,.228-.326,1.334,1.334,0,0,1,.244-.21,1.663,1.663,0,0,1,.294-.158c.046-.018.091-.034.137-.05l.014,0s0,0,.007,0l.018.014.219.224.046.048A.036.036,0,0,1,419.747,311.6Z" transform="translate(-418.506 -311.3)" fill="#fff"/>
      </g>
      <g id="Group_18251" data-name="Group 18251" transform="translate(0.712 3.512)">
        <path id="Path_32491" data-name="Path 32491" d="M420.92,323.9a.032.032,0,0,1,0-.007.241.241,0,0,1,.027-.023l.014-.014.132-.123.1-.091s.007-.007.009-.011.007,0,.011,0l.009.014.068.114.258.42.272.445.023.039,0,.009-.014.021c-.018.018-.034.034-.052.05l-.075.073,0,.007s0,0,0,0l-.014-.009-.242-.247,0,0-.036-.041-.087-.089c-.011-.009-.021-.021-.034-.032l-.089-.075a.269.269,0,0,1-.025-.027l-.242-.386Z" transform="translate(-420.92 -323.625)" fill="#fff"/>
      </g>
      <g id="Group_18252" data-name="Group 18252" transform="translate(0 1.548)">
        <path id="Path_32492" data-name="Path 32492" d="M418.216,315.741c-.084.075-.169.153-.256.228l-.089.08-.014.011h0a.338.338,0,0,1-.011-.046c-.011-.055-.023-.11-.03-.167,0-.032-.009-.064-.011-.1s0-.094,0-.139c0-.025,0-.05,0-.078l0-.039.007-.053c.009-.048.018-.1.032-.144s.037-.116.057-.176a.742.742,0,0,1,.041-.1s0,0,0-.007h0a.023.023,0,0,1,.011.009.035.035,0,0,0,.014.018l.087.091.183.2s0,0,.007,0,0,.009,0,.011c0,.023-.011.046-.016.068s-.009.057-.014.084c0,.048-.007.1-.007.146v.025a.111.111,0,0,0,0,.027A.084.084,0,0,1,418.216,315.741Z" transform="translate(-417.8 -315.02)" fill="#fff"/>
      </g>
      <g id="Group_18253" data-name="Group 18253" transform="translate(2.397 2.723)">
        <path id="Path_32493" data-name="Path 32493" d="M428.906,320.17h0l.263.272h0s0,0,0,0c-.027.053-.055.105-.084.16a.064.064,0,0,1-.018.025l-.078.066c-.014.014-.03.025-.043.039l-.212.2a.143.143,0,0,0-.025.027l-.007.009a.2.2,0,0,0-.023.021c-.082.078-.167.155-.251.233l-.089.084-.007.011s0,0,0,0l-.009-.011c-.018-.025-.018-.018,0-.043l.226-.4c.082-.148.167-.3.249-.445a1.9,1.9,0,0,0,.112-.24C428.9,320.175,428.9,320.17,428.906,320.17Z" transform="translate(-428.299 -320.17)" fill="#fff"/>
      </g>
      <g id="Group_18254" data-name="Group 18254" transform="translate(1.157 0.604)">
        <path id="Path_32494" data-name="Path 32494" d="M423.48,311.253h-.037c-.037,0-.075,0-.112,0l-.078.007-.046.007-.041,0a.017.017,0,0,1-.014,0l-.08-.082-.151-.158-.046-.048-.007,0a.008.008,0,0,1,0,0l.014,0c.05-.011.1-.025.148-.034.032,0,.064-.011.094-.018l.062-.009.121-.014.057,0c.037,0,.073,0,.11,0l.135,0h.014l.043,0,.078.009.052.007a.017.017,0,0,1,.011,0h0l-.011.016-.121.116-.176.171A.061.061,0,0,1,423.48,311.253Z" transform="translate(-422.87 -310.887)" fill="#fff"/>
      </g>
      <g id="Group_18255" data-name="Group 18255" transform="translate(1.011 4.257)">
        <path id="Path_32495" data-name="Path 32495" d="M422.23,326.89l.052.055.087.089c.032.032.059.064.091.1.05.05.1.1.144.155l.094.1.011.007h0a.032.032,0,0,0,.007-.009l.107-.1c.021-.018.039-.036.059-.052,0,0,0,0,.007,0l0,0,.007.009.123.2a.385.385,0,0,1,.039.082.211.211,0,0,1,.011.066.158.158,0,0,1-.043.116.273.273,0,0,1-.078.057l0,0a.058.058,0,0,1-.043.009.4.4,0,0,0-.053,0,.026.026,0,0,1-.018-.007c-.027-.021-.053-.039-.078-.059a.181.181,0,0,1-.043-.05l-.078-.126-.171-.272-.224-.356-.009-.016a.018.018,0,0,0,0-.007Z" transform="translate(-422.23 -326.89)" fill="#fff"/>
      </g>
      <g id="Group_18256" data-name="Group 18256" transform="translate(2.751 0.901)">
        <path id="Path_32496" data-name="Path 32496" d="M430.339,312.633a.035.035,0,0,1-.014.018l-.185.176-.073.068s-.007,0-.009.009h0s0,0-.007,0a1.179,1.179,0,0,0-.155-.212.167.167,0,0,1-.043-.084.078.078,0,0,1,0-.023v-.087l.007-.279,0-.023s0-.007.009,0l0,0a1.453,1.453,0,0,1,.171.121,1.5,1.5,0,0,1,.21.208c.027.034.055.071.082.107Z" transform="translate(-429.85 -312.187)" fill="#fff"/>
      </g>
      <g id="Group_18257" data-name="Group 18257" transform="translate(2.449 3.278)">
        <path id="Path_32497" data-name="Path 32497" d="M429.2,322.6c-.148.283-.3.566-.445.847l-.009-.007-.016-.011-.11-.114-.082-.089-.011-.014a0,0,0,0,1,0,0l.429-.393c.073-.068.146-.135.221-.2A.05.05,0,0,1,429.2,322.6Z" transform="translate(-428.53 -322.6)" fill="#fff"/>
      </g>
      <g id="Group_18258" data-name="Group 18258" transform="translate(2.231 3.899)">
        <path id="Path_32498" data-name="Path 32498" d="M427.754,325.32l.011.009.155.164c.014.014.025.027.036.041s.023.025.037.036l0,0s0,0,0,.009a.153.153,0,0,0-.014.027l-.034.071a.089.089,0,0,0-.014.025.222.222,0,0,1-.153.11.174.174,0,0,1-.144-.037.18.18,0,0,1-.057-.084.237.237,0,0,1-.011-.105.233.233,0,0,1,.023-.078.379.379,0,0,0,.027-.052c.009-.018.014-.021.018-.032a.106.106,0,0,1,.03-.041l.068-.062A.02.02,0,0,1,427.754,325.32Z" transform="translate(-427.572 -325.32)" fill="#fff"/>
      </g>
      <g id="Group_18259" data-name="Group 18259" transform="translate(1.833 0.652)">
        <path id="Path_32499" data-name="Path 32499" d="M425.83,311.414a.363.363,0,0,1,.03-.03l.171-.164c.036-.037.075-.073.114-.11,0,0,.007-.007.009-.011a.01.01,0,0,1,.011,0c.034.007.068.016.105.025a.086.086,0,0,1,.025.011.057.057,0,0,1,.023.037.075.075,0,0,1,0,.032c0,.023,0,.046,0,.068,0,.066,0,.132-.007.2v.021s0,.007-.007.009h0l0,0-.068-.016-.139-.032c-.032-.007-.064-.014-.1-.018a.288.288,0,0,0-.064-.007l-.018,0c-.023,0-.048,0-.071,0C425.832,311.419,425.832,311.419,425.83,311.414Z" transform="translate(-425.83 -311.096)" fill="#fff"/>
      </g>
      <g id="Group_18260" data-name="Group 18260" transform="translate(1.011 4.257)">
        <path id="Path_32500" data-name="Path 32500" d="M422.23,326.89Z" transform="translate(-422.23 -326.89)"/>
      </g>
    </g>
    <path id="Path_32501" data-name="Path 32501" d="M493.83,331.21a1.764,1.764,0,0,1,1.58,1.582" transform="translate(-157.088 -57.315)" fill="none" stroke="#fff" stroke-linecap="round" stroke-linejoin="round" stroke-miterlimit="10" stroke-width="1"/>
    <path id="Path_32502" data-name="Path 32502" d="M338.04,331.21a1.764,1.764,0,0,1,1.58,1.582" transform="translate(-36.863 -57.315)" fill="none" stroke="#fff" stroke-linecap="round" stroke-linejoin="round" stroke-miterlimit="10" stroke-width="1"/>
    <path id="Path_32503" data-name="Path 32503" d="M456.35,293.5v2.707c2.128,0,3.853-.6,3.853-1.354S458.478,293.5,456.35,293.5Z" transform="translate(-128.164 -28.214)" fill="#30521d"/>
    <line id="Line_1141" data-name="Line 1141" x2="1.835" transform="translate(341.018 269.772)" fill="none" stroke="#fff" stroke-linecap="round" stroke-linejoin="round" stroke-miterlimit="10" stroke-width="1"/>
    <path id="Path_32504" data-name="Path 32504" d="M394.5,270.18s-.285,6.25-.788,6.4,1.37.24,1.37.24.11-6.94.657-6.995S394.5,270.18,394.5,270.18Z" transform="translate(-79.758 -9.937)" fill="#abe236"/>
    <path id="Path_32505" data-name="Path 32505" d="M407.49,275.11s8.271,1.424,12.622,3.178" transform="translate(-90.458 -14.022)" fill="none" stroke="#fff" stroke-linecap="round" stroke-linejoin="round" stroke-miterlimit="10" stroke-width="1"/>
    <line id="Line_1142" data-name="Line 1142" x2="2.794" transform="translate(291.872 264.266)" fill="none" stroke="#fff" stroke-linecap="round" stroke-linejoin="round" stroke-miterlimit="10" stroke-width="1"/>
    <path id="Path_32506" data-name="Path 32506" d="M338.04,274.416s6.835-1.26,11.346-.931" transform="translate(-36.863 -12.726)" fill="none" stroke="#fff" stroke-linecap="round" stroke-linejoin="round" stroke-miterlimit="10" stroke-width="1"/>
  </g>
</svg>
