<svg xmlns="http://www.w3.org/2000/svg" width="49.247" height="43.934" viewBox="0 0 49.247 43.934">
  <g id="entrena_dog" transform="translate(-324.91 -210.519)">
    <g id="Group_18490" data-name="Group 18490" transform="translate(327.104 211.041)">
      <path id="Path_32679" data-name="Path 32679" d="M342.925,233.731s-1.148.6-1.162,1.078-.1.952.378,1.26-.056-.5.014-.868.77-.63.77-.63.49-.868.49-.924S342.925,233.731,342.925,233.731Z" transform="translate(-339.246 -228.361)" fill="#d8014c" stroke="#636060" stroke-linecap="round" stroke-linejoin="round" stroke-miterlimit="10" stroke-width="1"/>
      <path id="Path_32680" data-name="Path 32680" d="M353.05,244.37s-2.831.308-3.025,1.288.392,2.915.9,3.109,1.368-.656,1.09-1.267-1.33-1.286-.691-1.578a24.017,24.017,0,0,1,3.944-.46" transform="translate(-345.562 -236.592)" fill="#a57a46" stroke="#636060" stroke-linecap="round" stroke-linejoin="round" stroke-miterlimit="10" stroke-width="1"/>
      <path id="Path_32681" data-name="Path 32681" d="M422.19,250.226s.868,1.484,1.736,1.484,3,.448,3.613,1.12.588,1.148,1.876,1.428,1.148-.259.616-.733-1.358-.387-1.96-1.246-.784-1.186-1.484-1.382-4.369-1.82-4.677-1.848" transform="translate(-400.699 -240.179)" fill="#a57a46" stroke="#636060" stroke-linecap="round" stroke-linejoin="round" stroke-miterlimit="10" stroke-width="1"/>
      <path id="Path_32682" data-name="Path 32682" d="M335.94,219.879a2.792,2.792,0,0,0-1.3,1.68s-1.827.819-1.722,1.428a.775.775,0,0,0,1.071.546c.378-.105,2.184-1.05,2.353-.882s-.378,1.134-.588,1.386-.4.777-.252.819a2.632,2.632,0,0,0,1.26-1.092c.273-.525,1.554.42,1.932.441s1.386,3.046,2.9,3.361,6.175.42,7.709-.252a3.706,3.706,0,0,1,1.827.945c.945.84,3.529.987,4.1-.672s.028-3.27-.952-3.746a59.154,59.154,0,0,0-7.45-2.128c-1.232-.2-2.969-.056-3.753-.588a3.788,3.788,0,0,0-1.932-.728c-.588-.056-2.6-.588-3.669-.812A1.588,1.588,0,0,0,335.94,219.879Z" transform="translate(-332.472 -217.548)" fill="#a57a46" stroke="#636060" stroke-linecap="round" stroke-linejoin="round" stroke-miterlimit="10" stroke-width="1"/>
      <path id="Path_32683" data-name="Path 32683" d="M416.87,235.45s3.473.983,4.985,2.607,5.909.614,5.881,1.09-1.4,1.741-3.109,1.7a8.291,8.291,0,0,1-5.741-2.313" transform="translate(-396.836 -229.753)" fill="#a57a46" stroke="#636060" stroke-linecap="round" stroke-linejoin="round" stroke-miterlimit="10" stroke-width="1"/>
      <path id="Path_32684" data-name="Path 32684" d="M340.391,237.173s-.56,3.057-1.036,3.477a44.115,44.115,0,0,1-5.461,1.932c-.84.28-1.96,1.092-2.661.392s.56-1.116,1.148-1.132a7.254,7.254,0,0,0,2.661-1.137c1.176-.672,2.717-1.158,2.689-1.559s-.728-2.082.2-2.7" transform="translate(-331.027 -230.52)" fill="#a57a46" stroke="#636060" stroke-linecap="round" stroke-linejoin="round" stroke-miterlimit="10" stroke-width="1"/>
      <path id="Path_32685" data-name="Path 32685" d="M348.224,213.974a24.623,24.623,0,0,0-.962-2.857c-.324-.588-.971,2.38-.8,2.857" transform="translate(-342.837 -211.041)" fill="#a57a46" stroke="#636060" stroke-linecap="round" stroke-linejoin="round" stroke-miterlimit="10" stroke-width="1"/>
      <circle id="Ellipse_7642" data-name="Ellipse 7642" cx="0.252" cy="0.252" r="0.252" transform="translate(2.503 3.603)" fill="#704f2c"/>
      <path id="Path_32686" data-name="Path 32686" d="M333.333,232.15s-.03.861-.163.929S332.7,232.381,333.333,232.15Z" transform="translate(-332.511 -227.224)" fill="#704f2c" stroke="#704f2c" stroke-miterlimit="10" stroke-width="1"/>
      <g id="Group_18469" data-name="Group 18469" transform="translate(6.609 3.649)">
        <path id="Path_32687" data-name="Path 32687" d="M360.512,228.379a2.721,2.721,0,0,1,2.334,2.467,6.88,6.88,0,0,1-.149,1.127.263.263,0,0,0,.016.184.4.4,0,0,0,.215.126,7.1,7.1,0,0,1,1.092.688,2.474,2.474,0,0,0,2.378,0,1.186,1.186,0,0,1,.3-.147,1.408,1.408,0,0,1,.4-.012c1.428.051,2.621-1.316,4.031-1.1a6.719,6.719,0,0,0,1.685.378.474.474,0,0,0,.324-.14.405.405,0,0,0,.075-.217,1.189,1.189,0,0,0-.609-1.34,3.434,3.434,0,0,0-.78-.117,6.685,6.685,0,0,1-1.536-.544,13.185,13.185,0,0,0-3.65-.6,7.474,7.474,0,0,1-3.515-.962,3.525,3.525,0,0,0-.672-.411,2.657,2.657,0,0,0-.9-.117l-.864-.012c-.184,0-.411.016-.49.166a.838.838,0,0,0,.245.483" transform="translate(-359.993 -227.415)" fill="#704f2c"/>
        <g id="Group_18468" data-name="Group 18468">
          <path id="Path_32688" data-name="Path 32688" d="M359.837,227.735a2.8,2.8,0,0,1,2.175,2.028,2.493,2.493,0,0,1-.014.873c-.035.226-.189.6-.084.824.086.189.336.224.5.308a7.912,7.912,0,0,1,.726.49,2.692,2.692,0,0,0,2.812.058,2.182,2.182,0,0,1,.828-.077,3.3,3.3,0,0,0,.733-.166c.457-.156.885-.38,1.323-.579a3.05,3.05,0,0,1,1.475-.352c.574.047,1.081.385,1.659.408.492.019.784-.2.815-.693a1.483,1.483,0,0,0-.376-1.137c-.4-.4-.976-.294-1.48-.425-.581-.152-1.1-.464-1.68-.632a20.958,20.958,0,0,0-3.7-.485,8.113,8.113,0,0,1-1.958-.4,4.564,4.564,0,0,1-.882-.436,4.671,4.671,0,0,0-.812-.513,2.656,2.656,0,0,0-.948-.133c-.343,0-.7-.033-1.039,0-.2.016-.481.1-.551.313-.077.236.163.511.324.651.11.1.338-.026.236-.168a.863.863,0,0,1-.17-.413c-.019.044-.04.089-.058.133.138-.161.593-.07.777-.068.28,0,.565,0,.842.023a4.392,4.392,0,0,1,1.461.7,8.424,8.424,0,0,0,2.878.7,19.79,19.79,0,0,1,3.34.434c.534.147,1.02.4,1.538.588a2.977,2.977,0,0,0,.7.163,1.522,1.522,0,0,1,.836.2.887.887,0,0,1,.278.49c.04.17.091.495-.026.642-.268.338-1.214-.149-1.543-.233a3.566,3.566,0,0,0-2.437.481,6.562,6.562,0,0,1-1.279.511c-.446.105-.913-.021-1.321.212a2.391,2.391,0,0,1-1.44.324,2.783,2.783,0,0,1-1.377-.637c-.189-.135-.553-.25-.644-.448-.11-.243.042-.6.068-.87a2.392,2.392,0,0,0-.254-1.349,2.882,2.882,0,0,0-2.219-1.524.1.1,0,0,0-.03.189Z" transform="translate(-359.346 -226.677)" fill="#704f2c"/>
        </g>
      </g>
      <g id="Group_18471" data-name="Group 18471" transform="translate(4.006 1.064)">
        <path id="Path_32689" data-name="Path 32689" d="M348.757,217.961c.04-.371-.009-.747-.007-1.12a3.845,3.845,0,0,1,.091-.8,3.029,3.029,0,0,1,.392,1.314,1.963,1.963,0,0,0,.068.548h-.432" transform="translate(-348.62 -215.937)" fill="#704f2c"/>
        <g id="Group_18470" data-name="Group 18470">
          <path id="Path_32690" data-name="Path 32690" d="M348.376,217.634c.016-.084.026-.17.047-.252a.879.879,0,0,0,.035-.208c0-.168,0-.336-.007-.5a6.71,6.71,0,0,1,.07-.969l-.2.049a1.8,1.8,0,0,1,.226.429,2.884,2.884,0,0,1,.114.439,2.817,2.817,0,0,1,.044.464c0,.082,0,.163.009.243,0,.054.042.159.026.2l.131-.091a1.786,1.786,0,0,1-.224-.033.447.447,0,0,0-.259-.012.174.174,0,0,0,0,.338.467.467,0,0,0,.259-.012,1.786,1.786,0,0,1,.224-.033.125.125,0,0,0,.068-.233.128.128,0,0,1-.021-.016l.051.063a1.621,1.621,0,0,1-.068-.488,2.987,2.987,0,0,0-.075-.474,2.812,2.812,0,0,0-.145-.45c-.061-.147-.114-.3-.182-.441-.037-.082-.17-.054-.194.023a2.955,2.955,0,0,0-.114.959c0,.163.016.324.028.485s.056.331.056.5c0,.051.089.063.1.014Z" transform="translate(-348.193 -215.598)" fill="#704f2c"/>
        </g>
      </g>
      <g id="Group_18473" data-name="Group 18473" transform="translate(0.152 11.629)">
        <g id="Group_18472" data-name="Group 18472">
          <path id="Path_32691" data-name="Path 32691" d="M331.789,261.1a2.7,2.7,0,0,0,.336.014c.056,0,.11,0,.163-.009a.547.547,0,0,0,.2-.035.106.106,0,0,0-.028-.2.458.458,0,0,0-.126,0l-.037,0-.019,0c-.054.007-.11.009-.163.014a3.1,3.1,0,0,1-.329,0,.1.1,0,1,0,0,.2Z" transform="translate(-331.68 -260.867)" fill="#636060"/>
        </g>
      </g>
      <g id="Group_18475" data-name="Group 18475" transform="translate(0.457 12.206)">
        <g id="Group_18474" data-name="Group 18474">
          <path id="Path_32692" data-name="Path 32692" d="M333.016,263.725l.154-.014a1.236,1.236,0,0,0,.154-.037,1.076,1.076,0,0,0,.163-.063.351.351,0,0,0,.161-.107.111.111,0,0,0-.1-.163.406.406,0,0,0-.182.07c-.023.012-.049.023-.072.037s-.051.035-.026.016c-.012.007-.023.016-.033.023-.044.03-.091.061-.133.093s-.07.063-.105.093a.029.029,0,0,0,.021.051Z" transform="translate(-332.984 -263.34)" fill="#636060"/>
        </g>
      </g>
      <g id="Group_18477" data-name="Group 18477" transform="translate(5.573 11.382)">
        <g id="Group_18476" data-name="Group 18476">
          <path id="Path_32693" data-name="Path 32693" d="M354.918,259.934a.381.381,0,0,0,0,.17c.007.035.016.072.023.107s.016.068.023.1a.279.279,0,0,0,.082.175.225.225,0,0,0,.205.049.214.214,0,0,0,.147-.135.265.265,0,0,0-.023-.184c-.012-.033-.021-.063-.033-.1s-.021-.061-.03-.093a.637.637,0,0,0-.058-.128c.007.014.012.028.019.042,0,0,0,0,0-.009s-.012-.028-.019-.04a.128.128,0,0,0-.047-.047.189.189,0,0,0-.11-.037.187.187,0,0,0-.177.124Z" transform="translate(-354.908 -259.81)" fill="#636060"/>
        </g>
      </g>
      <g id="Group_18479" data-name="Group 18479" transform="translate(28.257 13.421)">
        <g id="Group_18478" data-name="Group 18478">
          <path id="Path_32694" data-name="Path 32694" d="M452.108,268.725l.077.208a1.451,1.451,0,0,0,.061.138c.019.033.037.065.054.1a.261.261,0,0,0,.21.135.181.181,0,0,0,.173-.121.277.277,0,0,0,0-.107.553.553,0,0,0-.07-.156c-.019-.033-.037-.065-.058-.1-.054-.07-.105-.14-.159-.208a.164.164,0,0,0-.2-.058.136.136,0,0,0-.091.166Z" transform="translate(-452.102 -268.547)" fill="#636060"/>
        </g>
      </g>
      <g id="Group_18481" data-name="Group 18481" transform="translate(0.75 4.036)">
        <g id="Group_18480" data-name="Group 18480">
          <path id="Path_32695" data-name="Path 32695" d="M334.239,230.012c.026.3.369.355.616.3a3.466,3.466,0,0,0,1.116-.5,4.081,4.081,0,0,1,.492-.3c.2-.093.411-.152.616-.233a4.705,4.705,0,0,0,1.071-.674l-.268-.191c-.105.18-.25.348-.341.534a.252.252,0,0,0,.077.348.643.643,0,0,0,.439.019,1.438,1.438,0,0,0,.639-.166c-.058-.07-.117-.14-.175-.208a.478.478,0,0,0-.205.345c-.014.168.037.322.033.492,0,.044.054.051.082.03a.462.462,0,0,0,.177-.3c.023-.124-.063-.3.091-.364.119-.049.072-.212-.035-.243a1.685,1.685,0,0,0-.754.047c-.023,0-.049.009-.072.012-.084,0-.065.051.058.147.023,0,.077-.149.086-.17.061-.126.128-.247.2-.369.1-.177-.133-.294-.268-.191a4.623,4.623,0,0,1-.833.539c-.315.145-.658.212-.962.385-.275.156-.527.341-.819.471a3.467,3.467,0,0,1-.474.168c-.117.03-.282.1-.383,0-.065-.065-.21-.028-.2.072Z" transform="translate(-334.239 -228.335)" fill="#704f2c"/>
        </g>
      </g>
      <g id="Group_18483" data-name="Group 18483" transform="translate(21.635 7.412)">
        <path id="Path_32696" data-name="Path 32696" d="M424.69,244.277a2.487,2.487,0,0,0,1.468,1.629.367.367,0,0,0-.009-.289,7.093,7.093,0,0,0,2.107,1.118.779.779,0,0,0-.273-.387,1.814,1.814,0,0,0,.71.32,8.092,8.092,0,0,0,2.481.266c-1.025-.831-2.579-.693-3.636-1.482a5.755,5.755,0,0,0-.969-.74c-.268-.121-.572-.149-.833-.282-.308-.156-.539-.443-.854-.588a.117.117,0,0,0-.1-.012.108.108,0,0,0-.049.065.663.663,0,0,0,0,.469" transform="translate(-424.466 -243.584)" fill="#704f2c"/>
        <g id="Group_18482" data-name="Group 18482">
          <path id="Path_32697" data-name="Path 32697" d="M423.854,243.52a2.618,2.618,0,0,0,1.475,1.757.2.2,0,0,0,.282-.105.6.6,0,0,0,.021-.392c-.124.068-.247.133-.373.2a7.343,7.343,0,0,0,2.2,1.193c.159.056.366-.11.3-.28a1.153,1.153,0,0,0-.331-.495l-.364.336a3.342,3.342,0,0,0,1.564.558,8.7,8.7,0,0,0,1.809.119c.21-.007.4-.282.2-.443-1.132-.894-2.745-.742-3.827-1.685a3.055,3.055,0,0,0-.889-.635,5.338,5.338,0,0,0-.567-.149,1.4,1.4,0,0,1-.546-.294c-.21-.166-.523-.483-.822-.385-.32.105-.278.572-.2.822s.511.159.436-.112c-.016-.063-.065-.252.012-.31l-.182.07c-.086,0,.042.03.084.054a1.967,1.967,0,0,1,.212.154c.117.091.231.189.355.271a4.989,4.989,0,0,0,.882.376c.551.233.92.754,1.454,1.025,1.011.516,2.287.46,3.2,1.167l.2-.443a7.894,7.894,0,0,1-1.557-.072,3.421,3.421,0,0,1-1.452-.422c-.24-.173-.625.126-.364.336a.633.633,0,0,1,.217.282l.3-.28a7.748,7.748,0,0,1-2.061-1.076c-.145-.1-.39.058-.327.233a.343.343,0,0,1,.033.236c.082-.056.161-.114.243-.17a2.422,2.422,0,0,1-1.419-1.484c-.037-.124-.233-.079-.2.047Z" transform="translate(-423.73 -242.801)" fill="#704f2c"/>
        </g>
      </g>
      <g id="Group_18485" data-name="Group 18485" transform="translate(2.701 4.707)">
        <g id="Group_18484" data-name="Group 18484">
          <path id="Path_32698" data-name="Path 32698" d="M342.827,231.794a1.45,1.45,0,0,1,.2-.14.762.762,0,0,1,.233-.128,1.452,1.452,0,0,1,.5-.026c.012-.084.023-.166.037-.25a1.27,1.27,0,0,0-.485.061,1.97,1.97,0,0,0-.457.189l.2.236a1.148,1.148,0,0,1,.569-.259.5.5,0,0,1,.254-.007c.11.04.037.154,0,.224.093.037.189.072.282.11a.456.456,0,0,0-.131-.511.214.214,0,0,0-.266-.014.174.174,0,0,0-.051.24,1.437,1.437,0,0,0,.1.107c-.014-.023-.03-.047-.044-.072.082.245-.065.49-.114.726a.193.193,0,0,0,.352.138.679.679,0,0,1,.754-.233.214.214,0,0,0,.273-.194.672.672,0,0,0-.537-.653.454.454,0,0,0-.478.175.284.284,0,0,0,.114.4.187.187,0,0,0,.21-.026.963.963,0,0,1,.4-.233.175.175,0,0,0,.124-.236.2.2,0,0,0-.268-.084c-.168.086-.308.208-.469.3.079.019.159.037.238.058,0,0-.009.026-.012.016.009.037-.04,0,0,.016a.911.911,0,0,1,.119.042.274.274,0,0,1,.119.222l.273-.194a1.1,1.1,0,0,0-1.2.439l.359.091c.026-.175.091-.343.11-.52a.908.908,0,0,0-.077-.478l-.275.254a.138.138,0,0,1,.077.142.155.155,0,0,0,.3.077.472.472,0,0,0-.009-.429.439.439,0,0,0-.369-.166,1.434,1.434,0,0,0-.464.075,2.917,2.917,0,0,0-.455.219c-.17.086-.042.313.126.275.145-.035.282-.112.425-.159a3.1,3.1,0,0,1,.432-.114c.154-.026.112-.252-.037-.25a1.682,1.682,0,0,0-.6.112c-.093.037-.194.049-.285.089a1.612,1.612,0,0,0-.278.17c-.133.093.061.271.184.168Z" transform="translate(-342.598 -231.208)" fill="#704f2c"/>
        </g>
      </g>
      <g id="Group_18487" data-name="Group 18487" transform="translate(3.25 7.573)">
        <path id="Path_32699" data-name="Path 32699" d="M349.8,244.322l1.144-.189a.142.142,0,0,1,.119.016c.047.042.019.119-.012.173-.152.271-.306.541-.457.812a.265.265,0,0,1,.177.208l-.833.483a.38.38,0,0,1-.275.5,1.626,1.626,0,0,1-.446-.058c-.149-.016-.338.061-.341.212a.573.573,0,0,1,0,.126c-.019.082-.119.11-.2.121-.364.058-.726.117-1.09.177-.072.012-.156.033-.182.1-.019.051,0,.11,0,.163-.012.145-.194.2-.338.21l-1.146.119a8.908,8.908,0,0,1,3.16-1.589,1.924,1.924,0,0,0,.632-.329.689.689,0,0,0,.252-.637c-.049-.219-.229-.478-.065-.635" transform="translate(-345.694 -243.978)" fill="#704f2c"/>
        <g id="Group_18486" data-name="Group 18486">
          <path id="Path_32700" data-name="Path 32700" d="M349.092,243.956c.159-.023.32-.047.478-.068a1.684,1.684,0,0,1,.527-.075c.061.019.04,0-.023.11-.04.068-.075.135-.112.2-.084.149-.166.3-.247.448a.139.139,0,0,0,.056.194.132.132,0,0,1,.079.128l.084-.191c-.289.14-.562.31-.84.471a.185.185,0,0,0-.091.205.2.2,0,0,1-.175.28,3.263,3.263,0,0,1-.357-.061.575.575,0,0,0-.364.1.386.386,0,0,0-.126.147c-.026.056,0,.161-.028.2-.047.084-.511.1-.614.112-.315.049-.791.012-.868.392-.023.112.019.161-.124.2a2.169,2.169,0,0,1-.411.028c-.254.016-.509.007-.766.023.051.112.1.226.152.338a7.522,7.522,0,0,1,2.7-1.433,2.572,2.572,0,0,0,1.186-.621.838.838,0,0,0,.205-.523c0-.2-.212-.5-.124-.677a.157.157,0,0,0-.252-.18.377.377,0,0,0-.121.411c.063.278.21.471.009.74a1.345,1.345,0,0,1-.644.387c-.24.089-.481.173-.721.261a7.553,7.553,0,0,0-2.539,1.354c-.175.159.028.357.208.331.282-.042.56-.107.842-.147a1.4,1.4,0,0,0,.616-.149.339.339,0,0,0,.131-.161c.04-.11-.009-.114.07-.166a1.715,1.715,0,0,1,.495-.082l.446-.075c.173-.028.4-.051.467-.243.037-.1-.014-.2.112-.233.1-.028.282.061.39.068a.563.563,0,0,0,.579-.723l-.091.205c.278-.159.562-.313.826-.492a.169.169,0,0,0,.084-.191.455.455,0,0,0-.278-.285l.056.194c.14-.243.282-.483.418-.728.072-.131.173-.308.033-.436s-.362-.04-.513-.012l-.9.168c-.17.033-.084.268.084.245Z" transform="translate(-344.953 -243.489)" fill="#704f2c"/>
        </g>
      </g>
      <path id="Path_32701" data-name="Path 32701" d="M408.879,247.13s-1.512,2.682.392,3.853,3.053.614,3.109,1.284-1.3,1.4-2.035,1.48-1.186.53-.429.67a4.108,4.108,0,0,0,2.467,0c.586-.364,2.042-1.981,1.622-2.6s-2.072-1.4-2.1-2.57" transform="translate(-390.273 -238.707)" fill="#a57a46" stroke="#636060" stroke-linecap="round" stroke-linejoin="round" stroke-miterlimit="10" stroke-width="1"/>
      <g id="Group_18489" data-name="Group 18489" transform="translate(18.828 9.309)">
        <path id="Path_32702" data-name="Path 32702" d="M412.624,252.019a1.128,1.128,0,0,0-.229.833,4.667,4.667,0,0,0,.271,1.44l.273-.3a.118.118,0,0,1,.086-.051c.042,0,.068.047.089.084a1.22,1.22,0,0,0,.464.49c-.054-.068.028-.173.112-.175a.351.351,0,0,1,.224.112l.782.665a5.367,5.367,0,0,0-.229-1.291,1.1,1.1,0,0,1-.077-.42,2.436,2.436,0,0,0,.079-.441c-.023-.266-.31-.418-.558-.518-.322-.128-.642-.259-.964-.387a.438.438,0,0,0-.222-.047c-.075.012-.149.079-.138.154" transform="translate(-412.232 -251.757)" fill="#704f2c"/>
        <g id="Group_18488" data-name="Group 18488">
          <path id="Path_32703" data-name="Path 32703" d="M412.056,251.156a1.041,1.041,0,0,0-.355.985,3.848,3.848,0,0,0,.264,1.365.184.184,0,0,0,.294.072l.161-.168c.021-.023.1-.126.124-.131l-.145-.019c.035.014.07.119.091.152a1.618,1.618,0,0,0,.133.173,1.528,1.528,0,0,0,.32.266.2.2,0,0,0,.285-.264c-.077.063-.091.11-.044.14l.03.023a.829.829,0,0,0,.107.093l.224.2c.149.133.3.266.45.4s.425.054.415-.159a5.408,5.408,0,0,0-.252-1.375.862.862,0,0,1-.058-.327c.012-.1.056-.194.072-.292a.639.639,0,0,0-.133-.53,2.569,2.569,0,0,0-1.092-.59,2.185,2.185,0,0,0-.7-.245.421.421,0,0,0-.453.408.261.261,0,0,0,.518,0c-.007.1-.152.07,0,.124l.107.042c.086.033.17.068.257.1.18.072.359.142.541.215.208.082.523.175.46.453a1.287,1.287,0,0,0-.051.471c.023.163.086.317.126.478a6.1,6.1,0,0,1,.168,1.069c.138-.054.278-.107.415-.159-.156-.128-.313-.254-.471-.383a3.792,3.792,0,0,0-.462-.362.407.407,0,0,0-.446,0,.3.3,0,0,0-.1.4l.285-.264a1.089,1.089,0,0,1-.3-.25c-.077-.1-.119-.231-.229-.3-.264-.156-.476.212-.616.373.1.023.2.047.294.072a6.842,6.842,0,0,1-.254-1.162,2.935,2.935,0,0,1-.028-.495.827.827,0,0,1,.107-.539.049.049,0,1,0-.068-.07Z" transform="translate(-411.699 -250.929)" fill="#704f2c"/>
        </g>
      </g>
      <path id="Path_32704" data-name="Path 32704" d="M382.19,229.49s7.338.952,10.642,2.857" transform="translate(-370.249 -225.184)" fill="none" stroke="#f9f9f9" stroke-linecap="round" stroke-linejoin="round" stroke-miterlimit="10" stroke-width="1"/>
    </g>
    <g id="Group_18492" data-name="Group 18492" transform="translate(347.008 226.222)">
      <g id="Group_18491" data-name="Group 18491">
        <path id="Path_32705" data-name="Path 32705" d="M416.528,276.575a.009.009,0,0,0,0-.007v.054l-.014.026a.031.031,0,0,1,.009-.007.1.1,0,0,0,.016-.014.134.134,0,0,1,.019-.014c-.009.007-.007,0,0,0a.415.415,0,0,0,.051-.037l.016-.014h0c.049-.033.1-.065.149-.093s.1-.054.154-.077l.079-.035a.157.157,0,0,0,.1-.14c-.007.021-.012.042-.019.063.009-.019.019-.037.026-.054a.079.079,0,0,0-.051-.117.238.238,0,0,0-.04-.007c-.012,0-.012,0,0,0s.012,0-.007,0a.2.2,0,0,0-.065-.012.331.331,0,0,0-.152.061,1.93,1.93,0,0,0-.189.114,1.4,1.4,0,0,0-.187.142.778.778,0,0,0-.082.093.128.128,0,0,0-.021.152.117.117,0,0,0,.138.042.1.1,0,0,0,.063-.119Z" transform="translate(-416.311 -276.09)" fill="#636060"/>
      </g>
    </g>
    <g id="Group_18494" data-name="Group 18494" transform="translate(347.932 226.27)">
      <g id="Group_18493" data-name="Group 18493" transform="translate(0)">
        <path id="Path_32706" data-name="Path 32706" d="M420.369,277.015a.267.267,0,0,0,.126-.056.867.867,0,0,1,.075-.054,2.169,2.169,0,0,1,.2-.114c.07-.035.14-.065.21-.1l.117-.054a.5.5,0,0,0,.147-.082.149.149,0,0,0,.026-.187.175.175,0,0,0-.189-.07.456.456,0,0,0-.142.072c-.04.026-.082.049-.121.075-.07.042-.138.084-.205.128a1.792,1.792,0,0,0-.2.149c-.03.026-.061.054-.089.082a.169.169,0,0,0-.047.068.314.314,0,0,0-.009.068c-.007.056.058.082.1.072Z" transform="translate(-420.268 -276.296)" fill="#636060"/>
      </g>
    </g>
    <g id="Group_18496" data-name="Group 18496" transform="translate(325.91 227.445)">
      <g id="Group_18495" data-name="Group 18495" transform="translate(0)">
        <rect id="Rectangle_8966" data-name="Rectangle 8966" width="2.187" height="12.395" transform="translate(3.697 1.697)" fill="#f3d854" stroke="#636060" stroke-linecap="round" stroke-linejoin="round" stroke-miterlimit="10" stroke-width="2"/>
        <path id="Path_32707" data-name="Path 32707" d="M334.683,281.33h-7.965a.808.808,0,0,0-.807.807v.082a.808.808,0,0,0,.807.807h7.965a.808.808,0,0,0,.807-.807v-.082A.808.808,0,0,0,334.683,281.33Z" transform="translate(-325.91 -281.33)" fill="#44cef5" stroke="#636060" stroke-linecap="round" stroke-linejoin="round" stroke-miterlimit="10" stroke-width="2"/>
      </g>
      <line id="Line_1175" data-name="Line 1175" y2="10.166" transform="translate(5.209 2.563)" fill="none" stroke="#f9f9f9" stroke-linecap="round" stroke-linejoin="round" stroke-miterlimit="10" stroke-width="1"/>
    </g>
    <g id="Group_18498" data-name="Group 18498" transform="translate(344.646 227.445)">
      <g id="Group_18497" data-name="Group 18497" transform="translate(0)">
        <rect id="Rectangle_8967" data-name="Rectangle 8967" width="2.187" height="12.395" transform="translate(3.697 1.697)" fill="#f3d854" stroke="#636060" stroke-linecap="round" stroke-linejoin="round" stroke-miterlimit="10" stroke-width="2"/>
        <path id="Path_32708" data-name="Path 32708" d="M414.963,281.33H407a.808.808,0,0,0-.807.807v.082a.808.808,0,0,0,.807.807h7.965a.808.808,0,0,0,.808-.807v-.082A.808.808,0,0,0,414.963,281.33Z" transform="translate(-406.19 -281.33)" fill="#44cef5" stroke="#636060" stroke-linecap="round" stroke-linejoin="round" stroke-miterlimit="10" stroke-width="2"/>
      </g>
      <line id="Line_1176" data-name="Line 1176" y2="10.166" transform="translate(5.209 2.563)" fill="none" stroke="#f9f9f9" stroke-linecap="round" stroke-linejoin="round" stroke-miterlimit="10" stroke-width="1"/>
    </g>
    <path id="Path_32709" data-name="Path 32709" d="M436.82,375.74s-4.026.756-4.565,1.641,3.678,1.433,5.193,1.132.219-2.539.219-2.539Z" transform="translate(-81.489 -126.261)" fill="#d6d6d6" stroke="#636060" stroke-linecap="round" stroke-linejoin="round" stroke-miterlimit="10" stroke-width="2"/>
    <path id="Path_32710" data-name="Path 32710" d="M515.87,368.586s.976,3.979,1.89,4.467,1.228-3.75.845-5.246-2.549-.079-2.549-.079Z" transform="translate(-145.627 -119.653)" fill="#d6d6d6" stroke="#636060" stroke-linecap="round" stroke-linejoin="round" stroke-miterlimit="10" stroke-width="2"/>
    <g id="Group_18499" data-name="Group 18499" transform="translate(350.303 225.174)">
      <path id="Path_32711" data-name="Path 32711" d="M437.156,278.2a.679.679,0,0,0,.138.254l3.547,4.051a2.6,2.6,0,0,0,.679.371l5.132.464a.645.645,0,0,0,.7-.583l.012-.117a.646.646,0,0,0-.586-.7l-5.12-.464-3.4-3.872a.647.647,0,0,0-.913-.061A.656.656,0,0,0,437.156,278.2Z" transform="translate(-435.569 -276.034)" fill="#d8014c" stroke="#636060" stroke-linecap="round" stroke-linejoin="round" stroke-miterlimit="10" stroke-width="2"/>
      <circle id="Ellipse_7643" data-name="Ellipse 7643" cx="1.083" cy="1.083" r="1.083" transform="translate(0 0)" fill="#f3d490" stroke="#636060" stroke-linecap="round" stroke-linejoin="round" stroke-miterlimit="10" stroke-width="2"/>
      <line id="Line_1177" data-name="Line 1177" x2="3.118" y2="3.47" transform="translate(2.418 1.965)" fill="none" stroke="#f9f9f9" stroke-linecap="round" stroke-linejoin="round" stroke-miterlimit="10" stroke-width="1"/>
    </g>
    <g id="Group_18500" data-name="Group 18500" transform="translate(362.68 238.468)">
      <path id="Path_32712" data-name="Path 32712" d="M484,335.917a1.109,1.109,0,0,0,.682.924,1.015,1.015,0,0,0,.271.236l5.218,3.19a1.1,1.1,0,0,0,1.519-.369l.338-.553a1.1,1.1,0,0,0-.366-1.519l-4.889-2.987-.467-5.27a1.1,1.1,0,0,0-1.2-1l-.644.056a1.1,1.1,0,0,0-1,1.2Z" transform="translate(-483.461 -328.561)" fill="#000929" stroke="#636060" stroke-linecap="round" stroke-linejoin="round" stroke-miterlimit="10" stroke-width="2"/>
    </g>
    <path id="Path_32713" data-name="Path 32713" d="M469.327,297.689l1.344-.168a2.563,2.563,0,0,0,2.226-2.859l-1.074-8.621a2.563,2.563,0,0,0-2.859-2.227l-1.344.168a2.563,2.563,0,0,0-2.226,2.859l1.074,8.621A2.563,2.563,0,0,0,469.327,297.689Z" transform="translate(-106.916 -55.774)" fill="#d8014c" stroke="#636060" stroke-linecap="round" stroke-linejoin="round" stroke-miterlimit="10" stroke-width="2"/>
    <path id="Path_32714" data-name="Path 32714" d="M470.2,327.148s3.809-1.935,6.292-1.123c0,0,1.349,4.192-4.154,3.874C472.335,329.9,470.445,328.336,470.2,327.148Z" transform="translate(-110.615 -87.997)" fill="#000929" stroke="#636060" stroke-linecap="round" stroke-linejoin="round" stroke-miterlimit="10" stroke-width="2"/>
    <path id="Path_32715" data-name="Path 32715" d="M447.977,341.748l.642.075a1.1,1.1,0,0,0,1.225-.969l.663-5.692,4.591-2.635a1.1,1.1,0,0,0,.408-1.508l-.322-.562a1.107,1.107,0,0,0-1.51-.408l-5.3,3.046a1.1,1.1,0,0,0-.553,1,1.163,1.163,0,0,0-.1.352l-.707,6.075A1.1,1.1,0,0,0,447.977,341.748Z" transform="translate(-92.828 -91.12)" fill="#000929" stroke="#636060" stroke-linecap="round" stroke-linejoin="round" stroke-miterlimit="10" stroke-width="2"/>
    <g id="Group_18501" data-name="Group 18501" transform="translate(361.887 229.897)">
      <path id="Path_32716" data-name="Path 32716" d="M480.419,293.307l4.794,2.593a.623.623,0,0,0,.17.061l1.559,4.686a.611.611,0,0,0,.8.4.676.676,0,0,0,.406-.714.6.6,0,0,0-.03-.14l-1.748-5.242a.633.633,0,0,0-.478-.434c-.009,0-.016-.012-.026-.016l-4.794-2.6a.622.622,0,0,0-.863.308l-.075.159A.721.721,0,0,0,480.419,293.307Z" transform="translate(-480.063 -291.835)" fill="#d8014c" stroke="#636060" stroke-linecap="round" stroke-linejoin="round" stroke-miterlimit="10" stroke-width="2"/>
      <ellipse id="Ellipse_7644" data-name="Ellipse 7644" cx="1.078" cy="1.16" rx="1.078" ry="1.16" transform="translate(6.525 8.506)" fill="#f3d490" stroke="#636060" stroke-linecap="round" stroke-linejoin="round" stroke-miterlimit="10" stroke-width="2"/>
    </g>
    <g id="Group_18509" data-name="Group 18509" transform="translate(355.428 218.194)">
      <circle id="Ellipse_7645" data-name="Ellipse 7645" cx="0.983" cy="0.983" r="0.983" transform="translate(2.805 4.675)" fill="#919191" opacity="0.41"/>
      <circle id="Ellipse_7646" data-name="Ellipse 7646" cx="0.537" cy="0.537" r="0.537" transform="translate(3.251 5.121)" fill="#444"/>
      <path id="Path_32717" data-name="Path 32717" d="M464.053,257.527h0a3.812,3.812,0,0,0,3.846-3.774l.016-1.757a3.812,3.812,0,0,0-3.774-3.846h0a3.812,3.812,0,0,0-3.846,3.774l-.016,1.757A3.807,3.807,0,0,0,464.053,257.527Z" transform="translate(-458.438 -246.642)" fill="#f3d490" stroke="#636060" stroke-linecap="round" stroke-linejoin="round" stroke-miterlimit="10" stroke-width="2"/>
      <path id="Path_32718" data-name="Path 32718" d="M489.18,272.73" transform="translate(-480.594 -265.486)" fill="#939393" stroke="#646060" stroke-linecap="round" stroke-linejoin="round" stroke-miterlimit="10" stroke-width="3"/>
      <path id="Path_32719" data-name="Path 32719" d="M482.78,277.25" transform="translate(-475.688 -268.951)" fill="none" stroke="#646060" stroke-linecap="round" stroke-linejoin="round" stroke-miterlimit="10" stroke-width="3"/>
      <g id="Group_18502" data-name="Group 18502" transform="translate(4.135 5.415)">
        <circle id="Ellipse_7647" data-name="Ellipse 7647" cx="0.481" cy="0.481" r="0.481" transform="translate(0.021)" fill="#646060"/>
        <circle id="Ellipse_7648" data-name="Ellipse 7648" cx="0.222" cy="0.222" r="0.222" transform="translate(0 0.168)" fill="#fff"/>
      </g>
      <ellipse id="Ellipse_7649" data-name="Ellipse 7649" cx="0.927" cy="0.462" rx="0.927" ry="0.462" transform="matrix(0.009, -1, 1, 0.009, 7.128, 6.831)" fill="#f3d490" stroke="#636060" stroke-linecap="round" stroke-linejoin="round" stroke-miterlimit="10" stroke-width="2"/>
      <g id="Group_18504" data-name="Group 18504" transform="translate(0 0)">
        <path id="Path_32720" data-name="Path 32720" d="M463.8,250.045q-.522.826-.973,1.69a4.619,4.619,0,0,0-.359-.721c-.042-.07-.1-.145-.18-.152a.278.278,0,0,0-.177.072l-.46.334a5.005,5.005,0,0,0-.238-1.638,1.976,1.976,0,0,0,.07-1.172,1.558,1.558,0,0,0-.224-.709.528.528,0,0,0-.658-.194c-.086.051-.159.135-.257.14a.343.343,0,0,1-.184-.068c-.511-.343-.838-.964-1.426-1.141a2.211,2.211,0,0,0-1.75.516c.2-.271-.051-.679-.373-.768a1.586,1.586,0,0,0-.973.152l-1.253.483a2.686,2.686,0,0,1,.679-1.594,2.692,2.692,0,0,0-1.571.471,2.821,2.821,0,0,1,2.35-1.914,4.4,4.4,0,0,0,1.139-.133,4.018,4.018,0,0,0,.6-.338,3.358,3.358,0,0,1,3.33-.016c.3.175.574.4.866.586a4.83,4.83,0,0,0,2.324.763l-.642.726a.418.418,0,0,0-.138.266.438.438,0,0,0,.114.238l1.018,1.291a.342.342,0,0,0-.338.252,1.106,1.106,0,0,0-.016.455,5.144,5.144,0,0,1-1.27,3.783" transform="translate(-453.233 -242.626)" fill="#917e30"/>
        <g id="Group_18503" data-name="Group 18503">
          <path id="Path_32721" data-name="Path 32721" d="M462.906,249.083q-.532.819-1.053,1.648l.266.033c-.1-.289-.226-.8-.506-.966-.324-.194-.714.24-.943.411l.322.124a5.671,5.671,0,0,0-.173-1.358.827.827,0,0,1-.051-.327c.012-.091.061-.187.077-.282a2.383,2.383,0,0,0,.012-.59c-.047-.537-.229-1.547-1.013-1.358-.152.037-.292.212-.455.163a1.6,1.6,0,0,1-.457-.385,3.649,3.649,0,0,0-.752-.642,2.286,2.286,0,0,0-2.135.366l.259.238c.322-.455-.121-1.011-.6-1.076a2.2,2.2,0,0,0-1.011.21q-.606.214-1.211.432l.3.212a2.65,2.65,0,0,1,.639-1.41.261.261,0,0,0-.2-.443,3.1,3.1,0,0,0-1.7.523l.385.273a2.628,2.628,0,0,1,1.923-1.678,6.707,6.707,0,0,0,1.554-.231,7.413,7.413,0,0,1,1.291-.609,3.148,3.148,0,0,1,1.384-.03,3.763,3.763,0,0,1,1.393.67,5.578,5.578,0,0,0,2.819,1.013l-.189-.42c-.212.243-.429.481-.639.726a.6.6,0,0,0-.187.59,2.614,2.614,0,0,0,.5.681l.649.817.224-.359a.643.643,0,0,0-.623.67,12.46,12.46,0,0,1-.021,1.384,4.944,4.944,0,0,1-1.162,2.507c-.215.245.161.562.362.334a5.476,5.476,0,0,0,1.139-2.049,5.375,5.375,0,0,0,.205-1.139c.012-.154-.077-1.228.1-1.23s.35-.2.224-.359c-.3-.387-.609-.775-.913-1.165-.051-.065-.177-.17-.173-.264,0-.068.159-.191.2-.233.166-.189.331-.376.5-.565a.248.248,0,0,0-.189-.42,4.684,4.684,0,0,1-2.462-.95,4.084,4.084,0,0,0-2.215-.873,3.8,3.8,0,0,0-2.25.651,2.954,2.954,0,0,1-1.382.287,3.071,3.071,0,0,0-1.032.3,3.036,3.036,0,0,0-1.531,1.813.26.26,0,0,0,.385.273,2.517,2.517,0,0,1,1.44-.42l-.2-.443a2.925,2.925,0,0,0-.719,1.778c-.012.194.219.25.359.191.455-.189.908-.411,1.375-.567a1.077,1.077,0,0,1,.672-.063c.182.063.362.285.266.485s.14.334.3.212c.642-.492,1.4-.829,2.089-.222.294.259.754,1.02,1.214.922.131-.028.219-.14.352-.147a.434.434,0,0,1,.39.306,2.858,2.858,0,0,1,.194,1.074,1.349,1.349,0,0,1-.023.273c-.016.084-.075.177-.084.259a1.269,1.269,0,0,0,.091.4,4.7,4.7,0,0,1,.119,1.277.189.189,0,0,0,.282.149,2.881,2.881,0,0,1,.371-.261c.131-.061.126-.093.238.033a2.562,2.562,0,0,1,.345.614c.056.119.226.063.266-.033a13.448,13.448,0,0,1,.88-1.7c.037-.063-.058-.11-.093-.056Z" transform="translate(-452.39 -241.689)" fill="#636060"/>
        </g>
      </g>
      <g id="Group_18506" data-name="Group 18506" transform="translate(2.983 7.947)">
        <g id="Group_18505" data-name="Group 18505">
          <path id="Path_32722" data-name="Path 32722" d="M466.473,275.877c.035.065-.04.175-.068.231-.04.077-.079.152-.121.226a2.512,2.512,0,0,1-.3.415,3.375,3.375,0,0,1-.38.35,2.146,2.146,0,0,1-.191.133c-.093.058-.21.1-.236.219a.169.169,0,0,0,.126.205.418.418,0,0,0,.352-.117,2.945,2.945,0,0,0,.254-.2,2.433,2.433,0,0,0,.408-.467,2.685,2.685,0,0,0,.282-.53c.068-.17.159-.42.023-.576a.093.093,0,0,0-.149.105Z" transform="translate(-465.171 -275.742)" fill="#636060"/>
        </g>
      </g>
      <g id="Group_18508" data-name="Group 18508" transform="translate(4.143 4.702)">
        <g id="Group_18507" data-name="Group 18507">
          <path id="Path_32723" data-name="Path 32723" d="M471.71,262.07a2.368,2.368,0,0,0-.7-.212,2.335,2.335,0,0,0-.721.019.19.19,0,0,0-.147.208.2.2,0,0,0,.2.163,3.419,3.419,0,0,1,.642-.028,3.377,3.377,0,0,1,.614.084c.142.035.259-.166.11-.233Z" transform="translate(-470.142 -261.838)" fill="#636060"/>
        </g>
      </g>
      <path id="Path_32724" data-name="Path 32724" d="M462.742,260.83a5.744,5.744,0,0,0-.063,3.522" transform="translate(-460.093 -256.363)" fill="none" stroke="#f9f9f9" stroke-linecap="round" stroke-linejoin="round" stroke-miterlimit="10" stroke-width="1"/>
      <path id="Path_32725" data-name="Path 32725" d="M477.887,246.736a7.408,7.408,0,0,1-1.97-.6,3.03,3.03,0,0,0-3.127-.562" transform="translate(-468.029 -244.493)" fill="none" stroke="#f9f9f9" stroke-linecap="round" stroke-linejoin="round" stroke-miterlimit="10" stroke-width="1"/>
      <path id="Path_32726" data-name="Path 32726" d="M494.693,260.11a4.56,4.56,0,0,0-.208,1.281,8.267,8.267,0,0,1-.586,2.556" transform="translate(-484.212 -255.811)" fill="none" stroke="#f9f9f9" stroke-linecap="round" stroke-linejoin="round" stroke-miterlimit="10" stroke-width="1"/>
    </g>
    <path id="Path_32727" data-name="Path 32727" d="M487.238,282.787s3.232,1.834,4.241.378-2.156-3.169-2.885-3.055-1.326-.8-2.553.805S487.238,282.787,487.238,282.787Z" transform="translate(-122.493 -52.828)" fill="#d8014c" stroke="#636060" stroke-linecap="round" stroke-linejoin="round" stroke-miterlimit="10" stroke-width="2"/>
    <line id="Line_1178" data-name="Line 1178" y1="5.923" x2="0.588" transform="translate(354.894 243.297)" fill="none" stroke="#f9f9f9" stroke-linecap="round" stroke-linejoin="round" stroke-miterlimit="10" stroke-width="1"/>
    <line id="Line_1179" data-name="Line 1179" x2="5.839" y2="3.613" transform="translate(363.905 246.153)" fill="none" stroke="#f9f9f9" stroke-linecap="round" stroke-linejoin="round" stroke-miterlimit="10" stroke-width="1"/>
    <line id="Line_1180" data-name="Line 1180" x2="1.893" y2="1.12" transform="translate(361.172 235.679)" fill="#d8014c" stroke="#636060" stroke-linecap="round" stroke-linejoin="round" stroke-miterlimit="10" stroke-width="2"/>
    <path id="Path_32728" data-name="Path 32728" d="M468.034,292.2a5.283,5.283,0,0,0,0,2.9,42.608,42.608,0,0,1,.569,4.831" transform="translate(-108.818 -62.218)" fill="none" stroke="#f9f9f9" stroke-linecap="round" stroke-linejoin="round" stroke-miterlimit="10" stroke-width="1"/>
  </g>
</svg>
