<svg xmlns="http://www.w3.org/2000/svg" xmlns:xlink="http://www.w3.org/1999/xlink" width="47.072" height="43.5" viewBox="0 0 47.072 43.5">
  <defs>
    <linearGradient id="linear-gradient" x1="0.5" x2="0.5" y2="1" gradientUnits="objectBoundingBox">
      <stop offset="0" stop-color="#f9d366"/>
      <stop offset="0.754" stop-color="#9f8741"/>
      <stop offset="1" stop-color="#7d6a33"/>
    </linearGradient>
  </defs>
  <g id="Group_16369" data-name="Group 16369" transform="translate(-936.631 -12)">
    <g id="Group_16264" data-name="Group 16264" transform="translate(19827.48 20656)">
      <g id="Group_16263" data-name="Group 16263" transform="translate(-18882 -20635)">
        <g id="bola-magica" transform="translate(2.827 0)">
          <path id="Path_27394" data-name="Path 27394" d="M104.3,333.689c0,1.922-4.99,3.481-11.146,3.481a33.159,33.159,0,0,1-4.465-.291c-3.934-.538-6.681-1.764-6.681-3.19l1.512-8.955h19.268Z" transform="translate(-80.217 -303.169)" stroke="#707070" stroke-width="1" fill="url(#linear-gradient)"/>
          <path id="Path_27395" data-name="Path 27395" d="M86.282,324.734h0Z" transform="translate(-82.982 -303.168)" fill="#d83" stroke="#707070" stroke-width="1"/>
          <path id="Path_27404" data-name="Path 27404" d="M12.935,0A12.935,12.935,0,1,1,0,12.935,12.935,12.935,0,0,1,12.935,0Z" transform="translate(0 0)" fill="#cf8bfc" stroke="#707070" stroke-width="1"/>
          <path id="Path_27396" data-name="Path 27396" d="M235.219,0q-.526,0-1.041.042a12.918,12.918,0,0,1,9.351,5.191,1.625,1.625,0,0,1-1.638,2.55,5.969,5.969,0,1,0-1.147,11.828h.053a1.624,1.624,0,0,1,1.135,2.808,12.883,12.883,0,0,1-7.754,3.41q.515.041,1.041.042a12.934,12.934,0,1,0,0-25.869Z" transform="translate(-222.284)" fill="#cfb1fc"/>
          <path id="Path_27397" data-name="Path 27397" d="M60.8,12.935A12.939,12.939,0,0,1,70.873.318a12.934,12.934,0,1,0,0,25.232A12.939,12.939,0,0,1,60.8,12.935Z" transform="translate(-55.076)" fill="#96c"/>
          <g id="Group_16262" data-name="Group 16262" transform="translate(7.755 0.548)">
            <path id="Path_27398" data-name="Path 27398" d="M288.146,15.131l1.5-.3a.664.664,0,0,0,0-1.3l-1.5-.3a3.762,3.762,0,0,1-2.939-2.939l-.3-1.5a.664.664,0,0,0-1.3,0l-.3,1.5a3.762,3.762,0,0,1-2.939,2.939l-1.5.3a.664.664,0,0,0,0,1.3l1.5.3a3.762,3.762,0,0,1,2.939,2.939l.3,1.5a.664.664,0,0,0,1.3,0l.3-1.5A3.762,3.762,0,0,1,288.146,15.131Z" transform="translate(-271.25 -8.246)" fill="#f9d366" stroke="#707070" stroke-width="0.4"/>
            <path id="Path_27399" data-name="Path 27399" d="M236.52,162.534l.439-.089a.542.542,0,0,0,0-1.063l-.439-.089a2.809,2.809,0,0,1-2.195-2.195l-.089-.439a.542.542,0,0,0-1.063,0l-.089.439a2.809,2.809,0,0,1-2.195,2.195l-.439.089a.542.542,0,0,0,0,1.063l.439.089a2.809,2.809,0,0,1,2.195,2.195l.089.439a.542.542,0,0,0,1.063,0l.089-.439A2.809,2.809,0,0,1,236.52,162.534Z" transform="translate(-226.153 -148.265)" fill="#f9d366" stroke="#707070" stroke-width="0.4"/>
            <path id="Path_27400" data-name="Path 27400" d="M209.988,73.023a.52.52,0,0,1-.52-.52V71.149a.52.52,0,0,1,1.041,0V72.5A.521.521,0,0,1,209.988,73.023Z" transform="translate(-206.97 -66.486)" fill="#f9d366" stroke="#707070" stroke-width="0.3"/>
            <path id="Path_27401" data-name="Path 27401" d="M209.988,127.877a.52.52,0,0,1-.52-.52V126a.52.52,0,1,1,1.041,0v1.353A.521.521,0,0,1,209.988,127.877Z" transform="translate(-206.97 -117.698)" fill="#f9d366" stroke="#707070" stroke-width="0.3"/>
            <path id="Path_27402" data-name="Path 27402" d="M228.582,109.284h-1.353a.52.52,0,0,1,0-1.041h1.353a.52.52,0,0,1,0,1.041Z" transform="translate(-223.066 -101.602)" fill="#f9d366" stroke="#707070" stroke-width="0.3"/>
            <path id="Path_27403" data-name="Path 27403" d="M173.726,109.284h-1.353a.52.52,0,1,1,0-1.041h1.353a.52.52,0,0,1,0,1.041Z" transform="translate(-171.853 -101.602)" fill="#f9d366" stroke="#707070" stroke-width="0.3"/>
          </g>
        </g>
        <path id="Path_27405" data-name="Path 27405" d="M7.478,0A15.912,15.912,0,0,0,2.447,3.5,13.008,13.008,0,0,0,.006,8.256" transform="translate(0 11.208) rotate(-39)" fill="none" stroke="#fff" stroke-linecap="round" stroke-linejoin="round" stroke-miterlimit="10" stroke-width="0.6"/>
        <path id="Path_27406" data-name="Path 27406" d="M5.605.348H.174A.174.174,0,0,1,.174,0H5.605a.174.174,0,1,1,0,.348Z" transform="translate(24.559 24.966) rotate(81)" fill="#fff" stroke="#fff" stroke-width="0.6"/>
      </g>
    </g>
    <g id="Group_16265" data-name="Group 16265" transform="translate(976.301 37.91)">
      <g id="Group_9352" data-name="Group 9352" transform="translate(0 0)">
        <path id="Path_9676" data-name="Path 9676" d="M476.026,285.31l.977,2.532,2.532.974-2.467,1.042-1.042,2.465-.98-2.524-2.527-.982,2.58-.926Z" transform="translate(-472.325 -285.115)" fill="#d8014c"/>
        <path id="Path_9677" data-name="Path 9677" d="M475.531,292.022h0a.193.193,0,0,1-.181-.124l-.951-2.445-2.445-.951a.194.194,0,0,1,.006-.364l2.493-.895.895-2.493a.2.2,0,0,1,.181-.13.187.187,0,0,1,.184.124l.946,2.451,2.45.946a.192.192,0,0,1,.124.178.2.2,0,0,1-.119.184l-2.394,1.011-1.011,2.394A.189.189,0,0,1,475.531,292.022Zm-2.95-3.693,2.041.793a.192.192,0,0,1,.11.11l.807,2.078.855-2.024a.189.189,0,0,1,.1-.1l2.021-.853-2.081-.8a.192.192,0,0,1-.11-.11l-.788-2.044-.751,2.089a.2.2,0,0,1-.119.119Zm2.024-.934Z" transform="translate(-471.83 -284.62)" fill="#636060"/>
      </g>
      <g id="Group_9353" data-name="Group 9353" transform="translate(3.557 1.598)">
        <line id="Line_78" data-name="Line 78" x2="0.471" y2="1.493" transform="translate(0.195 0.192)" fill="#d8014c"/>
        <path id="Path_9678" data-name="Path 9678" d="M485.1,292.16a.2.2,0,0,1-.186-.136l-.471-1.493a.194.194,0,0,1,.37-.116l.471,1.493a.2.2,0,0,1-.127.243A.182.182,0,0,1,485.1,292.16Z" transform="translate(-484.43 -290.28)" fill="#fff"/>
      </g>
    </g>
    <g id="Group_16266" data-name="Group 16266" transform="translate(936.631 31.746)">
      <g id="Group_9355" data-name="Group 9355">
        <path id="Path_9679" data-name="Path 9679" d="M356.708,258.86l.8,2.076,2.079.8-2.025.855-.853,2.023-.806-2.072-2.072-.806,2.116-.76Z" transform="translate(-353.67 -258.7)" fill="#d8014c"/>
        <path id="Path_9680" data-name="Path 9680" d="M356.178,264.246h0a.159.159,0,0,1-.148-.1l-.781-2.007-2.007-.781a.159.159,0,0,1,0-.3l2.046-.735.735-2.046a.163.163,0,0,1,.148-.107.159.159,0,0,1,.151.1l.776,2.011,2.012.776a.158.158,0,0,1,.1.146.162.162,0,0,1-.1.151l-1.965.83-.83,1.965A.16.16,0,0,1,356.178,264.246Zm-2.424-3.031,1.675.651a.158.158,0,0,1,.09.09l.663,1.706.7-1.662a.156.156,0,0,1,.086-.086l1.659-.7-1.708-.658a.158.158,0,0,1-.09-.09l-.647-1.678-.616,1.715a.162.162,0,0,1-.1.1Zm1.662-.767Z" transform="translate(-353.14 -258.17)" fill="#636060"/>
      </g>
      <g id="Group_9356" data-name="Group 9356" transform="translate(2.918 1.312)">
        <line id="Line_79" data-name="Line 79" x2="0.385" y2="1.226" transform="translate(0.162 0.158)" fill="#d8014c"/>
        <path id="Path_9681" data-name="Path 9681" d="M366.277,265.373a.164.164,0,0,1-.153-.111l-.387-1.226a.159.159,0,1,1,.3-.1l.387,1.226a.16.16,0,0,1-.1.2A.149.149,0,0,1,366.277,265.373Z" transform="translate(-365.73 -263.83)" fill="#fff"/>
      </g>
    </g>
    <g id="Group_16267" data-name="Group 16267" transform="translate(965.043 12)">
      <g id="Group_9358" data-name="Group 9358">
        <path id="Path_9682" data-name="Path 9682" d="M428.745,191.98l.612,1.592,1.592.612-1.551.655-.653,1.551-.618-1.589-1.587-.618,1.621-.582Z" transform="translate(-426.418 -191.857)" fill="#d8014c"/>
        <path id="Path_9683" data-name="Path 9683" d="M428.177,195.943h0a.122.122,0,0,1-.114-.078l-.6-1.537-1.537-.6a.122.122,0,0,1,0-.229l1.567-.563.563-1.567a.125.125,0,0,1,.114-.082.118.118,0,0,1,.115.078l.595,1.541,1.541.595a.121.121,0,0,1,.078.112.124.124,0,0,1-.075.115l-1.505.635-.635,1.505A.122.122,0,0,1,428.177,195.943Zm-1.857-2.322,1.283.5a.121.121,0,0,1,.069.069l.508,1.306.538-1.273a.119.119,0,0,1,.066-.066l1.271-.536-1.308-.5a.121.121,0,0,1-.069-.069l-.5-1.285-.472,1.313a.124.124,0,0,1-.075.075Zm1.274-.588Z" transform="translate(-425.85 -191.289)" fill="#636060"/>
      </g>
      <g id="Group_9359" data-name="Group 9359" transform="translate(2.235 1.004)">
        <line id="Line_80" data-name="Line 80" x2="0.295" y2="0.939" transform="translate(0.124 0.121)" fill="#d8014c"/>
        <path id="Path_9684" data-name="Path 9684" d="M438.859,198.129a.125.125,0,0,1-.117-.085l-.3-.939a.122.122,0,0,1,.08-.153.121.121,0,0,1,.153.08l.3.939a.122.122,0,0,1-.08.153A.115.115,0,0,1,438.859,198.129Z" transform="translate(-438.44 -196.946)" fill="#fff"/>
      </g>
    </g>
  </g>
</svg>
