<svg xmlns="http://www.w3.org/2000/svg" width="708.827" height="289.871" viewBox="0 0 708.827 289.871">
  <g id="Group_19786" data-name="Group 19786" transform="translate(14113.844 19482.198)">
    <path id="Path_34149" data-name="Path 34149" d="M96.808,77.327q-14.742,0-22.851,8.029t-8.27,25.116q0,16.813,8.3,25.132,8.126,8.029,22.851,8.029t22.867-8.029q8.3-8.318,8.3-23.156V16.882h20.378v95.565q0,23.365-14.148,37.5t-37.4,14.051q-23.253,0-37.288-13.955-14.26-14.34-14.244-39.568,0-20.378,8.7-33.241a44.579,44.579,0,0,1,21.31-17.118,54.133,54.133,0,0,1,26.994-3.453,57.908,57.908,0,0,1,15.737,4.256V83.959Q110.265,77.343,96.808,77.327Z" transform="translate(-13940.255 -19417.514)" fill="#fff"/>
    <path id="Path_34150" data-name="Path 34150" d="M106.374,30.417q16.572,0,26.593,9.94Q143.132,50.6,143.132,68.588T132.967,96.755q-10.021,10.021-26.593,10.021T79.765,96.755Q69.6,86.59,69.6,68.588T79.765,40.357Q89.849,30.417,106.374,30.417ZM90.058,50.667q-5.926,5.926-5.926,17.921t5.926,17.857q5.813,5.781,16.316,5.781t16.3-5.781Q128.6,80.52,128.6,68.588t-5.926-17.921q-5.733-5.717-16.3-5.717T90.058,50.667Z" transform="translate(-13847.19 -19365.666)" fill="#fff"/>
    <path id="Path_34151" data-name="Path 34151" d="M139.351,86.51v16.171a43.71,43.71,0,0,1-15.593,2.682q-16.588,0-26.609-10.021T86.984,68.588q0-17.986,10.165-28.231,10.021-9.956,26.609-9.94t26.609,9.94Q160.5,50.6,160.516,68.588v29.5q0,16.524-10.085,26.673t-26.529,10.1H101.179V120.313H123.9q10.5,0,16.219-5.781t5.861-15.448a.818.818,0,0,0-.289.209l.225-.209V72.266a2.358,2.358,0,0,0,0-.578v-3.1q0-12-5.926-17.921t-16.3-5.717q-10.518,0-16.3,5.717t-5.926,17.921q0,10.534,5.926,16.444t16.3,5.781Q133.569,90.813,139.351,86.51Z" transform="translate(-13780.593 -19365.666)" fill="#fff"/>
    <path id="Path_34152" data-name="Path 34152" d="M120.19,68.6V90.837q0,10.567,5.926,16.444t16.219,5.781H143.6V127.6h-1.269q-16.572,0-26.529-10.085T105.641,90.837V24.564H120.19v29.5h22.932V68.516Z" transform="translate(-13709.114 -19388.09)" fill="#fff"/>
    <path id="Path_34153" data-name="Path 34153" d="M181.42,31.066V45.519h-2.248q-16.059,0-22.161,6.423-4.818,4.946-4.818,15.8v36.774H137.66V67.744q0-16.637,8.9-25.886,10.438-10.888,32.6-10.872Z" transform="translate(-13586.437 -19363.486)" fill="#fff"/>
    <path id="Path_34154" data-name="Path 34154" d="M174.194,55.524a19.591,19.591,0,0,0,1.815,12.558,6.425,6.425,0,0,0,.851,1.526c6.6,7.13,3.4,18.291-4.48,22.209-5.364,2.666-10.679,2.168-16.058.45-4.272-1.381-8.431-3.212-12.59-4.9-6.423-2.682-11.771-6.953-16.99-11.482a33.724,33.724,0,0,1-9.346-12.558,13.858,13.858,0,0,1,4.191-15.85c3.645-2.778,7.387-4.432,12.365-3.549s9.2-1.2,13.184-3.95a18.323,18.323,0,0,1,12.012-3.629c5.315.369,12.991,6.423,13.714,11.5C173.327,50.738,173.873,53.629,174.194,55.524Z" transform="translate(-13667.756 -19343.045)" fill="#fff"/>
    <path id="Path_34155" data-name="Path 34155" d="M123.138,52.574A24.522,24.522,0,0,1,134.379,32.2a22.579,22.579,0,0,1,12.847-4.368c5.6,0,7.917,4.256,6.423,8.768-1.815,5.7-4.175,11.241-6.423,16.765a19.688,19.688,0,0,1-10.968,10.486c-2.778,1.22-9.089-1.493-10.663-4.818A55.331,55.331,0,0,1,123.138,52.574Z" transform="translate(-13642.078 -19375.582)" fill="#fff"/>
    <path id="Path_34156" data-name="Path 34156" d="M138.992,68.9c-7.242-.1-11.674-5.861-10.6-13.184a22.676,22.676,0,0,1,5.492-11.241c3.212-3.95,6.424-7.933,9.8-11.819s6.937-2.987,9.635,1.028c2.923,4.256,3.212,8.977,3.212,14a24.859,24.859,0,0,1-3.212,11.241C150.908,63.987,143.906,68.981,138.992,68.9Z" transform="translate(-13622.555 -19366.637)" fill="#fff"/>
    <path id="Path_34157" data-name="Path 34157" d="M142.352,35.714c-.546,2.505-1.365,5.974-2.023,9.491a10.706,10.706,0,0,0-.161,4.159c.851,3.838,1.429,7.644-.369,11.321a13.859,13.859,0,0,1-8.415,7.531,7.773,7.773,0,0,1-7.708-1.237,14.983,14.983,0,0,1-5.669-8.029A19.431,19.431,0,0,1,119.613,44.5c3.051-6.423,7.339-11.964,13.826-15.24C138.1,26.753,142.513,30,142.352,35.714Z" transform="translate(-13664.484 -19373.383)" fill="#fff"/>
    <path id="Path_34158" data-name="Path 34158" d="M163,45.062c-1.526,10.422-5.428,19.5-15.288,24.586-5.749,2.971-13.3,2.457-16.476-3.485a12.108,12.108,0,0,1,1.509-13.409,16.059,16.059,0,0,1,6.423-4.528c4.32-1.606,7.419-4.48,10.679-7.355a33.381,33.381,0,0,1,4.063-3.356A6.022,6.022,0,0,1,163,42.766C163.018,43.537,163,44.292,163,45.062Z" transform="translate(-13616.262 -19341.686)" fill="#fff"/>
    <path id="Path_34159" data-name="Path 34159" d="M0,45.936c.177-1.237.305-2.489.546-3.71.9-4.625,1.606-9.282,2.794-13.859a85.366,85.366,0,0,1,2.826-8.286c.145-.4.337-.787.546-1.285.4.353.691.61.964.883L24.168,36.172a1.847,1.847,0,0,1,.594,1.943,80.886,80.886,0,0,0-1.14,8.607c-.225,2.553-.209,5.139-.305,7.708a1.879,1.879,0,0,0,0,.674c.947,2.393-.434,3.806-2.007,5.348-5.46,5.331-10.823,10.759-16.2,16.187a6.135,6.135,0,0,0-.787,1.253L3.79,77.6,3.4,76.351A66.178,66.178,0,0,1,.53,62.235c-.112-1.06-.353-2.1-.53-3.212Z" transform="translate(-14113.844 -19410.182)" fill="#fff"/>
    <path id="Path_34160" data-name="Path 34160" d="M42.828,89.8a13.328,13.328,0,0,1-7.564-5.3c-1.237-1.863-2.441-3.742-3.677-5.6Q24.2,67.815,16.8,56.734c-.947-1.429-1.943-2.858-2.923-4.288l.273-.225c6.745,6.6,13.489,13.216,20.314,19.929L45.574,61.006c.867,1.333,1.718,2.618,2.553,3.918,1.943,3.019,4.127,5.91,5.765,9.073a11.418,11.418,0,0,1-.626,12.028,8.672,8.672,0,0,1-4.818,3.5,2.778,2.778,0,0,0-.53.273Z" transform="translate(-14060.691 -19282.125)" fill="#fff"/>
    <path id="Path_34161" data-name="Path 34161" d="M87.735,0h19.029V140.288a46.874,46.874,0,0,1-4.4,19.607A42.651,42.651,0,0,1,93.9,172.2a43.535,43.535,0,0,1-20.346,11.5,62.531,62.531,0,0,1-19.9,1.493A45.542,45.542,0,0,1,29.571,176.9a41.271,41.271,0,0,1-12.092-13.586,53.411,53.411,0,0,1-5.155-14.228,41.511,41.511,0,0,1-.851-7.21,104.858,104.858,0,0,1-.257-10.534c.514-10.1,2.858-19.7,8.913-28.022A41.174,41.174,0,0,1,33.345,91.534a49.621,49.621,0,0,1,16.412-5.6,50.583,50.583,0,0,1,10.454-.562A49.284,49.284,0,0,1,77.875,89.35a1.606,1.606,0,0,1,.787,1.076v20.716c-1.734-1.028-3.324-2.152-5.058-3a26.625,26.625,0,0,0-10.454-2.794A54.31,54.31,0,0,0,56.9,105.1a29.676,29.676,0,0,0-15.737,4.818,23.8,23.8,0,0,0-9.876,15.641A59.3,59.3,0,0,0,30.229,137a35.554,35.554,0,0,0,3.212,15.464,23.237,23.237,0,0,0,16.171,12.718,38.749,38.749,0,0,0,11.835,1.044,29.853,29.853,0,0,0,15.159-4.577,23.429,23.429,0,0,0,8.752-10.968,29.1,29.1,0,0,0,2.12-10.968c0-5.075.241-10.149.241-15.24V1.783Z" transform="translate(-14071.004 -19482.197)" fill="#fff"/>
    <path id="Path_34162" data-name="Path 34162" d="M54.029,103.119a2.4,2.4,0,0,1-.337-.241l-15-14.71a1.429,1.429,0,0,1-.466-1.606c.947-3.9,1.815-7.821,2.634-11.755a29,29,0,0,0,.594-4.705c.161-3.6.434-7.21.241-10.807A66.467,66.467,0,0,0,37.12,38.082c-.739-1.863-1.766-3.629-2.569-5.476a1.509,1.509,0,0,1,.128-1.349c5.01-5.091,10.085-10.149,15.143-15.191a2.7,2.7,0,0,1,.4-.161c.8,1.188,1.686,2.377,2.441,3.629a89.525,89.525,0,0,1,10,22.048,78.69,78.69,0,0,1,2.585,12.429A92.847,92.847,0,0,1,65.8,68.465,51.386,51.386,0,0,1,61.978,85.84c-2.3,5.572-5.01,10.984-7.531,16.476C54.3,102.605,54.19,102.862,54.029,103.119Z" transform="translate(-13981.864 -19421.264)" fill="#fff"/>
    <path id="Path_34163" data-name="Path 34163" d="M20.206,27.216a78.205,78.205,0,0,0,5.733,20.876A92.434,92.434,0,0,0,34.08,62.545q8.495,12.847,16.926,25.79c1.124,1.718,2.2,3.469,3.292,5.219a1.108,1.108,0,0,1-.209,1.606c-5.139,5.091-10.245,10.229-15.48,15.464-1.06-1.606-2.1-3.035-3.1-4.561-2.136-3.212-4.239-6.536-6.423-9.78C23.739,88.255,18.327,80.226,13.028,72.1A102.293,102.293,0,0,1,1,47.627a1.911,1.911,0,0,1,.273-1.606C7.327,39.9,13.429,33.832,19.531,27.714A3.026,3.026,0,0,1,20.206,27.216Z" transform="translate(-14110.28 -19377.924)" fill="#fff"/>
    <path id="Path_34164" data-name="Path 34164" d="M19.32,74.9c-.257-.241-.562-.482-.835-.755q-8.254-8.19-16.4-16.38a1.381,1.381,0,0,1-.369-1.831A76.809,76.809,0,0,1,12.479,38.273,132.691,132.691,0,0,1,21.7,28.027,84.887,84.887,0,0,1,36.872,16.513,79.136,79.136,0,0,1,55.4,8.644a1.429,1.429,0,0,1,1.14.112c5.4,5.331,10.759,10.7,16.187,16.059C45.978,32.026,27.494,47.843,19.32,74.9Z" transform="translate(-14108.018 -19449.346)" fill="#fff"/>
    <path id="Path_34165" data-name="Path 34165" d="M53.38,112.406l-.418-.385Q44,103.2,35.041,94.356c-1.333-1.3-2.7-2.569-4.079-3.822-2.714-2.457-4.368-5.717-6.423-8.688-4.159-6.166-8.222-12.4-12.317-18.6-1.06-1.606-2.152-3.212-3.131-4.818a1.606,1.606,0,0,1,0-1.477C14.229,51.737,19.4,46.566,24.7,41.266l39.1,60.589Z" transform="translate(-14079.703 -19324.096)" fill="#fff"/>
    <path id="Path_34166" data-name="Path 34166" d="M61.666,31,77.339,46.669l-4.223,8.5c-1.606,3.388-3.308,6.777-5.01,10.149a6.423,6.423,0,0,1-1.2,1.7Q50.071,83.892,33.178,100.738c-.9.9-1.493,1.06-2.312,0a11.128,11.128,0,0,0-1.895-1.895c-1.06-.8-.883-1.606-.321-2.618C32.1,89.8,35.506,83.379,38.927,76.955q5.99-11.241,11.964-22.482c2.023-3.838,4.159-7.628,5.958-11.562S60.108,34.962,61.666,31Z" transform="translate(-14005.806 -19363.445)" fill="#fff"/>
    <path id="Path_34167" data-name="Path 34167" d="M13.05,12.711A125.257,125.257,0,0,1,66.3,8.52c-.418.482-.626.787-.9,1.044-5.749,5.765-11.482,11.53-17.263,17.247a3.083,3.083,0,0,1-1.718.691q-7.853.947-15.737,1.75a1.686,1.686,0,0,1-1.2-.434c-3.212-3.051-6.423-6.118-9.507-9.2Z" transform="translate(-14063.849 -19454.006)" fill="#fff"/>
    <path id="Path_34168" data-name="Path 34168" d="M31.522,10.221A92.112,92.112,0,0,1,60.7,36.509L44.754,52.375c-1.044-1.606-2.088-3.388-3.212-5.075a67.994,67.994,0,0,0-9.2-10.6,2.184,2.184,0,0,1-.755-1.3C31.506,27.163,31.522,18.844,31.522,10.221Z" transform="translate(-13993.082 -19443.035)" fill="#fff"/>
    <path id="Path_34169" data-name="Path 34169" d="M49.561,9.744V31.279A80.164,80.164,0,0,0,20.5,26.461c.369-.466.53-.755.755-.98q8.575-8.656,17.134-17.247a1.606,1.606,0,0,1,1.927-.418C43.314,8.556,46.446,9.2,49.561,9.744Z" transform="translate(-14035.324 -19452.855)" fill="#fff"/>
    <path id="Path_34170" data-name="Path 34170" d="M37.313,45.72,50.16,58.567c-1.991,3.966-3,8.591-7.4,11.241C36.43,73.614,28.625,71.414,26.7,63.385a25.694,25.694,0,0,1,0-6.295,1.927,1.927,0,0,1,.5-1.172C30.488,52.481,33.876,49.125,37.313,45.72Z" transform="translate(-14012.295 -19307.031)" fill="#fff"/>
    <path id="Path_34171" data-name="Path 34171" d="M40.094,82.711c-.707-.755-1.4-1.606-2.168-2.328Q33.88,76.416,29.769,72.5c-.674-.642-.819-1.076,0-1.831Q45.378,55.138,60.954,39.513a1.3,1.3,0,0,1,.915-.418C54.611,53.549,47.4,68,40.094,82.711Z" transform="translate(-14001.944 -19332.41)" fill="#fff"/>
    <path id="Path_34172" data-name="Path 34172" d="M32.287,45.046l2.393,2.377-7.756,7.788Z" transform="translate(-14010.689 -19309.615)" fill="#fff"/>
  </g>
</svg>
